<svg viewBox="0 0 330 200" xmlns="http://www.w3.org/2000/svg"><g><g><g><g><g><line x1="50" y1="178" x2="45" y2="178" style="visibility: inherit;" fill="rgb(0, 0, 0)" stroke="rgb(204, 204, 204)" stroke-width="1px"></line><line x1="50" y1="164.30769230769232" x2="45" y2="164.30769230769232" style="visibility: inherit;" fill="rgb(0, 0, 0)" stroke="rgb(204, 204, 204)" stroke-width="1px"></line><line x1="50" y1="150.6153846153846" x2="45" y2="150.6153846153846" style="visibility: inherit;" fill="rgb(0, 0, 0)" stroke="rgb(204, 204, 204)" stroke-width="1px"></line><line x1="50" y1="136.9230769230769" x2="45" y2="136.9230769230769" style="visibility: inherit;" fill="rgb(0, 0, 0)" stroke="rgb(204, 204, 204)" stroke-width="1px"></line><line x1="50" y1="123.23076923076923" x2="45" y2="123.23076923076923" style="visibility: inherit;" fill="rgb(0, 0, 0)" stroke="rgb(204, 204, 204)" stroke-width="1px"></line><line x1="50" y1="109.53846153846155" x2="45" y2="109.53846153846155" style="visibility: inherit;" fill="rgb(0, 0, 0)" stroke="rgb(204, 204, 204)" stroke-width="1px"></line><line x1="50" y1="95.84615384615387" x2="45" y2="95.84615384615387" style="visibility: inherit;" fill="rgb(0, 0, 0)" stroke="rgb(204, 204, 204)" stroke-width="1px"></line><line x1="50" y1="82.15384615384616" x2="45" y2="82.15384615384616" style="visibility: inherit;" fill="rgb(0, 0, 0)" stroke="rgb(204, 204, 204)" stroke-width="1px"></line><line x1="50" y1="68.46153846153848" x2="45" y2="68.46153846153848" style="visibility: inherit;" fill="rgb(0, 0, 0)" stroke="rgb(204, 204, 204)" stroke-width="1px"></line><line x1="50" y1="54.769230769230774" x2="45" y2="54.769230769230774" style="visibility: inherit;" fill="rgb(0, 0, 0)" stroke="rgb(204, 204, 204)" stroke-width="1px"></line><line x1="50" y1="41.07692307692309" x2="45" y2="41.07692307692309" style="visibility: inherit;" fill="rgb(0, 0, 0)" stroke="rgb(204, 204, 204)" stroke-width="1px"></line><line x1="50" y1="27.384615384615387" x2="45" y2="27.384615384615387" style="visibility: inherit;" fill="rgb(0, 0, 0)" stroke="rgb(204, 204, 204)" stroke-width="1px"></line><line x1="50" y1="13.692307692307683" x2="45" y2="13.692307692307683" style="visibility: inherit;" fill="rgb(0, 0, 0)" stroke="rgb(204, 204, 204)" stroke-width="1px"></line><line x1="50" y1="0" x2="45" y2="0" style="visibility: inherit;" fill="rgb(0, 0, 0)" stroke="rgb(204, 204, 204)" stroke-width="1px"></line></g><g transform="translate(40, 0)"><text x="0" y="178" dx="0em" dy="0.3em" style="text-anchor: end; visibility: hidden; font-family: Roboto, sans-serif; font-size: 12px; font-weight: 200;" fill="rgb(50, 49, 63)" stroke="none" stroke-width="1px">-0.1</text><text x="0" y="164.30769230769232" dx="0em" dy="0.3em" style="text-anchor: end; visibility: inherit; font-family: Roboto, sans-serif; font-size: 12px; font-weight: 200;" fill="rgb(50, 49, 63)" stroke="none" stroke-width="1px">0</text><text x="0" y="150.6153846153846" dx="0em" dy="0.3em" style="text-anchor: end; visibility: hidden; font-family: Roboto, sans-serif; font-size: 12px; font-weight: 200;" fill="rgb(50, 49, 63)" stroke="none" stroke-width="1px">0.1</text><text x="0" y="136.9230769230769" dx="0em" dy="0.3em" style="text-anchor: end; visibility: inherit; font-family: Roboto, sans-serif; font-size: 12px; font-weight: 200;" fill="rgb(50, 49, 63)" stroke="none" stroke-width="1px">0.2</text><text x="0" y="123.23076923076923" dx="0em" dy="0.3em" style="text-anchor: end; visibility: hidden; font-family: Roboto, sans-serif; font-size: 12px; font-weight: 200;" fill="rgb(50, 49, 63)" stroke="none" stroke-width="1px">0.3</text><text x="0" y="109.53846153846155" dx="0em" dy="0.3em" style="text-anchor: end; visibility: inherit; font-family: Roboto, sans-serif; font-size: 12px; font-weight: 200;" fill="rgb(50, 49, 63)" stroke="none" stroke-width="1px">0.4</text><text x="0" y="95.84615384615387" dx="0em" dy="0.3em" style="text-anchor: end; visibility: hidden; font-family: Roboto, sans-serif; font-size: 12px; font-weight: 200;" fill="rgb(50, 49, 63)" stroke="none" stroke-width="1px">0.5</text><text x="0" y="82.15384615384616" dx="0em" dy="0.3em" style="text-anchor: end; visibility: inherit; font-family: Roboto, sans-serif; font-size: 12px; font-weight: 200;" fill="rgb(50, 49, 63)" stroke="none" stroke-width="1px">0.6</text><text x="0" y="68.46153846153848" dx="0em" dy="0.3em" style="text-anchor: end; visibility: hidden; font-family: Roboto, sans-serif; font-size: 12px; font-weight: 200;" fill="rgb(50, 49, 63)" stroke="none" stroke-width="1px">0.7</text><text x="0" y="54.769230769230774" dx="0em" dy="0.3em" style="text-anchor: end; visibility: inherit; font-family: Roboto, sans-serif; font-size: 12px; font-weight: 200;" fill="rgb(50, 49, 63)" stroke="none" stroke-width="1px">0.8</text><text x="0" y="41.07692307692309" dx="0em" dy="0.3em" style="text-anchor: end; visibility: hidden; font-family: Roboto, sans-serif; font-size: 12px; font-weight: 200;" fill="rgb(50, 49, 63)" stroke="none" stroke-width="1px">0.9</text><text x="0" y="27.384615384615387" dx="0em" dy="0.3em" style="text-anchor: end; visibility: inherit; font-family: Roboto, sans-serif; font-size: 12px; font-weight: 200;" fill="rgb(50, 49, 63)" stroke="none" stroke-width="1px">1</text><text x="0" y="13.692307692307683" dx="0em" dy="0.3em" style="text-anchor: end; visibility: hidden; font-family: Roboto, sans-serif; font-size: 12px; font-weight: 200;" fill="rgb(50, 49, 63)" stroke="none" stroke-width="1px">1.1</text><text x="0" y="0" dx="0em" dy="0.3em" style="text-anchor: end; visibility: hidden; font-family: Roboto, sans-serif; font-size: 12px; font-weight: 200;" fill="rgb(50, 49, 63)" stroke="none" stroke-width="1px">1.2</text></g><line x1="50" y1="0" x2="50" y2="178" fill="rgb(0, 0, 0)" stroke="rgb(204, 204, 204)" stroke-width="1px"></line></g></g><g transform="translate(50, 0)" clip-path="url(#clip_0)"><clipPath id="clip_0"><rect width="280" height="178"></rect></clipPath><g><g><g><line x1="0" y1="0" x2="0" y2="178" fill="rgb(0, 0, 0)" stroke="rgb(60, 60, 60)" stroke-width="1px" opacity="0.25"></line><line x1="28" y1="0" x2="28" y2="178" fill="rgb(0, 0, 0)" stroke="rgb(60, 60, 60)" stroke-width="1px" opacity="0.25"></line><line x1="56" y1="0" x2="56" y2="178" fill="rgb(0, 0, 0)" stroke="rgb(60, 60, 60)" stroke-width="1px" opacity="0.25"></line><line x1="84" y1="0" x2="84" y2="178" fill="rgb(0, 0, 0)" stroke="rgb(60, 60, 60)" stroke-width="1px" opacity="0.25"></line><line x1="112" y1="0" x2="112" y2="178" fill="rgb(0, 0, 0)" stroke="rgb(60, 60, 60)" stroke-width="1px" opacity="0.25"></line><line x1="140" y1="0" x2="140" y2="178" fill="rgb(0, 0, 0)" stroke="rgb(60, 60, 60)" stroke-width="1px" opacity="0.25"></line><line x1="168" y1="0" x2="168" y2="178" fill="rgb(0, 0, 0)" stroke="rgb(60, 60, 60)" stroke-width="1px" opacity="0.25"></line><line x1="196" y1="0" x2="196" y2="178" fill="rgb(0, 0, 0)" stroke="rgb(60, 60, 60)" stroke-width="1px" opacity="0.25"></line><line x1="224" y1="0" x2="224" y2="178" fill="rgb(0, 0, 0)" stroke="rgb(60, 60, 60)" stroke-width="1px" opacity="0.25"></line><line x1="252" y1="0" x2="252" y2="178" fill="rgb(0, 0, 0)" stroke="rgb(60, 60, 60)" stroke-width="1px" opacity="0.25"></line><line x1="280" y1="0" x2="280" y2="178" fill="rgb(0, 0, 0)" stroke="rgb(60, 60, 60)" stroke-width="1px" opacity="0.25"></line></g><g><line x1="0" y1="178" x2="280" y2="178" fill="rgb(0, 0, 0)" stroke="rgb(60, 60, 60)" stroke-width="1px" opacity="0.25"></line><line x1="0" y1="164.30769230769232" x2="280" y2="164.30769230769232" fill="rgb(0, 0, 0)" stroke="rgb(60, 60, 60)" stroke-width="1px" opacity="0.25"></line><line x1="0" y1="150.6153846153846" x2="280" y2="150.6153846153846" fill="rgb(0, 0, 0)" stroke="rgb(60, 60, 60)" stroke-width="1px" opacity="0.25"></line><line x1="0" y1="136.9230769230769" x2="280" y2="136.9230769230769" fill="rgb(0, 0, 0)" stroke="rgb(60, 60, 60)" stroke-width="1px" opacity="0.25"></line><line x1="0" y1="123.23076923076923" x2="280" y2="123.23076923076923" fill="rgb(0, 0, 0)" stroke="rgb(60, 60, 60)" stroke-width="1px" opacity="0.25"></line><line x1="0" y1="109.53846153846155" x2="280" y2="109.53846153846155" fill="rgb(0, 0, 0)" stroke="rgb(60, 60, 60)" stroke-width="1px" opacity="0.25"></line><line x1="0" y1="95.84615384615387" x2="280" y2="95.84615384615387" fill="rgb(0, 0, 0)" stroke="rgb(60, 60, 60)" stroke-width="1px" opacity="0.25"></line><line x1="0" y1="82.15384615384616" x2="280" y2="82.15384615384616" fill="rgb(0, 0, 0)" stroke="rgb(60, 60, 60)" stroke-width="1px" opacity="0.25"></line><line x1="0" y1="68.46153846153848" x2="280" y2="68.46153846153848" fill="rgb(0, 0, 0)" stroke="rgb(60, 60, 60)" stroke-width="1px" opacity="0.25"></line><line x1="0" y1="54.769230769230774" x2="280" y2="54.769230769230774" fill="rgb(0, 0, 0)" stroke="rgb(60, 60, 60)" stroke-width="1px" opacity="0.25"></line><line x1="0" y1="41.07692307692309" x2="280" y2="41.07692307692309" fill="rgb(0, 0, 0)" stroke="rgb(60, 60, 60)" stroke-width="1px" opacity="0.25"></line><line x1="0" y1="27.384615384615387" x2="280" y2="27.384615384615387" fill="rgb(0, 0, 0)" stroke="rgb(60, 60, 60)" stroke-width="1px" opacity="0.25"></line><line x1="0" y1="13.692307692307683" x2="280" y2="13.692307692307683" fill="rgb(0, 0, 0)" stroke="rgb(60, 60, 60)" stroke-width="1px" opacity="0.25"></line><line x1="0" y1="0" x2="280" y2="0" fill="rgb(0, 0, 0)" stroke="rgb(60, 60, 60)" stroke-width="1px" opacity="0.25"></line></g></g></g><g><g><line x1="0" y1="164.30769230769232" x2="280" y2="164.30769230769232" fill="rgb(0, 0, 0)" stroke="rgb(153, 153, 153)" stroke-width="1.5px"></line></g></g><g><g><line x1="28" y1="0" x2="28" y2="178" fill="rgb(0, 0, 0)" stroke="rgb(153, 153, 153)" stroke-width="1.5px"></line></g></g><g><g><g><g><g><path stroke="rgb(0, 119, 187)" stroke-width="2px" d="M33.60112,112.96153846153845L34.162240000000004,116.52724273961323L34.72336,119.94740848395288L35.284479999999995,123.17242014212576L35.8456,127.30914761979957L36.40672,127.51294489372387L36.96784,126.08219403489872L37.528960000000005,126.1600246605375L38.09008,127.01474939439643L38.651199999999996,128.90305132021743L39.21232,130.6235969857105L39.77344,132.19430006849947L40.33456,133.63127761837058L40.89568,132.75654292475824L41.4568,133.20627387305012L42.017920000000004,133.910776141887L42.57904,134.73811729684226L43.140159999999995,134.5851625363342L43.70128,135.19819355695017L44.2624,135.88817196687972L44.82352,136.3021428673928L45.384640000000005,136.55051959561823L45.94576,135.8113867145496L46.506879999999995,135.67954386870747L47.068,135.8960897095187L47.62912,136.3068851324589L48.19024,136.82052975188833L48.75136,137.62577097750403L49.31248,138.56178748193912L49.8736,139.3350657937334L50.43472,140.38220149379586L50.99584,141.0104828249395L51.55696,140.66420799042777L52.11808,140.45644310030335L52.6792,140.33178417003845L53.240320000000004,140.62171187586017L53.80144000000001,140.13806179078514L54.362559999999995,139.84787174165575L54.92368,139.6737577128677L55.4848,139.91869450247702L56.04592,138.53478944753343L56.60704,137.36007996553576L57.16816,136.65525427669897L57.72928,136.4146420449693L58.2904,136.27027470595814L58.85152,136.53139542959693L59.412639999999996,136.68806786376976L59.97376,136.7820713242697L60.53488,136.51630147406559L61.096000000000004,136.35683956394539L61.657120000000006,135.80091680858843L62.218239999999994,135.6326627727036L62.77936,135.84872273456125L63.34048,135.97835871167558L63.9016,136.20822113644107L64.46272,134.27566258200395L65.02383999999999,133.11612744934212L65.58496,132.58506124821486L66.14608,131.91576438541284L66.7072,130.5282124327402L67.26832,128.755567129796L67.82943999999999,127.2381327598135L68.39056,125.63518669529567L68.95168,124.67341905658498L69.5128,124.2769163662313L70.07392,124.2156487152372L70.63504,124.3517222092249L71.19616,124.60252293033818L71.75728,124.91859841763262L72.3184,125.10824371000925L72.87952,124.97834897778145L73.44064,125.0617339618583L74.00176,124.87704083414505L74.56287999999999,123.12314796915017L75.124,120.97542704715853L75.68512,120.23448627933577L76.24624,119.7899218186421L76.80736,118.97549135685368L77.36848,118.48683307978065L77.92960000000001,118.19363811353684L78.49072000000001,118.0177211337905L79.05184000000001,117.91217094594273L79.61295999999999,117.84884083323409L80.17407999999999,118.3585345509811L80.73519999999999,118.66435078162932L81.29632,118.84784052001824L81.85744,118.95793436305159L82.41856,118.47629888349937L82.97968,118.18731759576805L83.5408,117.46623703775705L84.10192,116.48589528532794L84.66304000000001,115.89769023387046L85.22416,114.99707541762379L85.78528,113.3613229571313L86.3464,111.28448627784113L86.90752,109.49069248489478L87.46864,107.8667227915045L88.02976,105.79695740472587L88.59088,104.55509817265872L89.152,103.8099826334184L89.71312,102.26752810687951L90.27423999999999,100.79436360558395L90.83536,99.36277148718413L91.39648,97.95612443077202L91.9576,96.56444441155253L92.51872,95.18174461464861L93.07984,94.35212473650628L93.64096,93.85435280962086L94.20208000000001,93.55568965348961L94.76320000000001,93.37649175981088L95.32432,92.72128123823141L95.88543999999999,92.87584671065595L96.44655999999999,92.96858599411068L97.00768,92.47653777881128L97.5688,91.08592201438667L98.12992,90.79924434110413L98.69104,90.07954595176236L99.25216,89.64772691815732L99.81328,88.84094371262206L100.37440000000001,88.3568737893009L100.93552000000001,87.51874004993601L101.49664,87.01585980631705L102.05776,86.7141316601457L102.61887999999999,87.08078655781509L103.17999999999999,86.7530877110445L103.74112,87.10416018835438L104.30224,87.31480367474029L104.86336,87.98888155194408L105.42448,88.39332827826632L105.9856,88.08830452868747L106.54672,86.2622149228235L107.10784,85.16656115930512L107.66896,84.50916890119407L108.23008,84.11473354632746L108.7912,83.87807233340749L109.35232,84.83145917639995L109.91344000000001,85.95118306756764L110.47456,86.62301740226826L111.03568,87.02611800308861L111.5968,87.26797836358082L112.15791999999999,87.41309457987617L112.71903999999999,86.40478073890894L113.28016,85.25210064895637L113.84128,84.56049259498484L114.4024,82.5024491419847L114.96352,81.26762307018464L115.52464,80.52672742710459L116.08576000000001,80.08219004125657L116.64688000000001,80.36315939511995L117.20800000000001,80.531741007438L117.76911999999999,80.63288997482883L118.33023999999999,80.69357935526331L118.89135999999999,81.82537981876901L119.45248,82.5044600968724L120.0136,82.91190826373446L120.57472,83.15637716385167L121.13584,82.75536345404926L121.69696,81.96706344279558L122.25808,82.0417752214156L122.8192,82.63429733846037L123.38032,82.44211555881446L123.94144,81.2314229202825L124.50256,79.40962376641885L125.06368,78.31654427410068L125.62480000000001,77.11300479333757L126.18592,75.84318605500691L126.74704,74.5336030266363L127.30816,73.74785320961395L127.86928,73.82409510477274L128.4304,72.77445667112359L128.99152,72.69236539630631L129.55264,72.09541884604371L130.11375999999998,71.73725091588618L130.67488,70.97465837241941L131.236,70.51710284633936L131.79712,69.69487774531912L132.35824,67.55846406408973L132.91936,66.27661585535213L133.48048,64.95981514473735L134.0416,61.97896757687959L134.60272,60.19045903616495L135.16384,59.11735391173614L135.72496,59.021182622451086L136.28608,58.96347984888006L136.84720000000002,57.83347134949246L137.40832,56.06008267911547L137.96944,54.99604947688926L138.53056,54.90532134092575L139.09168,54.850884459347654L139.65279999999998,54.8182223304008L140.21392,55.346316838404896L140.77504,56.210868593080136L141.33616,56.72959964588526L141.89728,57.04083827756833L142.4584,57.775273241950416L143.01952,58.215934220579655L143.58064000000002,58.48033080775719L144.14176,58.638968760063726L144.70288000000002,58.734151531447644L145.264,59.338952979650216L145.82512000000003,59.701833848571745L146.38624000000002,59.371870584552454L146.94735999999997,59.17389262614087L147.50848,59.05510585109393L148.06959999999998,58.43614200069356L148.63072,56.969376855208345L149.19183999999998,57.184704603162196L149.75296,57.31390125193451L150.31408,56.84372419132511L150.8752,56.013926169587265L151.43632,56.063739141916784L151.99744,55.54593513994226L152.55856,54.68756095338536L153.11968000000002,54.17253644145119L153.6808,54.41121351966293L154.24192,55.10211155196219L154.80304,56.06434542121449L155.36416,56.64168574276588L155.92528000000001,58.08347350644114L156.4864,58.40085437927411L157.04752000000002,58.59128290297388L157.60864,59.25323180256597L158.16976,59.65040114232119L158.73087999999998,59.888702746174346L159.292,60.031683708486256L159.85312,59.56978050050116L160.41424,59.292638575710114L160.97536,59.126353420835464L161.53647999999998,59.026582327910674L162.0976,57.32364105153862L162.65872,55.75418450034316L163.21984,54.26481878425364L163.78096,53.37119935459994L164.34208,52.28733591143549L164.9032,52.18470963090906L165.46432000000001,52.67082564796542L166.02544,51.867111687454795L166.58656000000002,51.3848833111484L167.14768,51.09554628536458L167.70880000000002,50.92194406989428L168.26992,50.81778274061211L168.83103999999997,50.7552859430428L169.39216,51.26547964987343L169.95327999999998,51.57159587397181L170.5144,51.75526560843084L171.07551999999998,51.31777566373405L171.63664,51.05528169691597L172.19776,50.3500935314529L172.75888,50.47467241754728L173.32,50.54941974920392L173.88112,51.14195993357011L174.44224,51.497484044189825L175.00336000000001,51.163106725189444L175.56448,50.96248033378921L176.12560000000002,51.389796284321264L176.68672,50.550802283896076L177.24784,50.04740588364096L177.80896,51.38844339960456L178.37008,52.193065909182714L178.93120000000002,52.12814762955739L179.49231999999998,51.54150487640999L180.05344,50.64182743914932L180.61455999999998,50.102020976792915L181.17568,50.32582888475129L181.7368,49.364726794281324L182.29792,48.78806553999933L182.85904,48.442068787430166L183.42016,48.234470735888664L183.98128,48.109911904963745L184.5424,48.035176606408804L185.10352,47.990335427275824L185.66464,47.963430719796044L186.22576,47.947287895308186L186.78688,48.48529725048824L187.348,48.26040781372351L187.90912,48.12547415166467L188.47024000000002,48.04451395442935L189.03136,47.99593783608815L189.59248000000002,47.41910037971123L190.15359999999998,47.07299790588508L190.71472,46.31764463621716L191.27584,45.864432674416406L191.83695999999998,45.59250549733594L192.39808,45.42934919108766L192.95919999999998,45.87914719271094L193.52032,46.14902599368489L194.08144,46.310953274269266L194.64256,45.86041785724769L195.20368,45.59009660703473L195.7648,44.880212071534736L196.32592,43.906589564862514L196.88704,42.77472427548696L197.44816,42.095605101861636L198.00928000000002,41.68813359768644L198.5704,41.99134248055354L199.13152000000002,42.72095959564602L199.69264,43.15872986470152L200.25376,43.42139202613481L200.81488,43.57898932299477L201.37599999999998,43.67354770111077L201.93712,43.730282727980345L202.49823999999998,43.76432374410211L203.05936,43.78474835377516L203.62048,44.3446949049512L204.1816,43.58527926491239L204.74272,42.58193809551687L205.30384,41.43223834400682L205.86496,40.74241849310078L206.42608,40.328526582557124L206.9872,40.08019143623098L207.54832,39.93119034843527L208.10944,39.841789695757846L208.67056,39.788149304151354L209.23168,39.7559650691875L209.7928,39.18896274283696L210.35392000000002,38.301069561654415L210.91504,37.76833365294489L211.47616000000002,36.90100032234697L212.03727999999998,36.92829210936041L212.5984,36.94466718156851L213.15952,36.95449222489333L213.72064,36.412695465516016L214.28176,35.53992562451743L214.84287999999998,34.46857193454601L215.404,33.27806467069044L215.96511999999998,32.563760312377084L216.52624,32.13517769738907L217.08736,31.878028128396238L217.64848,31.72373838700055L218.2096,31.631164542163148L218.77072,31.57562023526071L219.33184,31.542293651119245L219.89296000000002,31.52229770063437L220.45408,31.510300130343463L221.01520000000002,31.503101588168878L221.57632,31.498782462864135L222.13744000000003,31.496190987681302L222.69856,32.04233115244436L223.25967999999997,32.37001525130219L223.8208,33.114317495989106L224.38191999999998,33.56089884280126L224.94304,34.37653943626079L225.50415999999998,34.86592379233649L226.06528,35.15955440598193L226.6264,35.33573277416917L227.18752,35.44143979508151L227.74864,35.504864007628925L228.30976,36.09061032052961L228.87088,36.442058108270004L229.43200000000002,36.65292678091424L229.99312,36.7794479845008L230.55424000000002,36.85536070665272L231.11536,36.90090833994387L231.67648,36.928236919918554L232.23760000000001,37.49232585327562L232.79872,37.83077921328984L233.35984,37.48615944392615L233.92095999999998,37.27938758230793L234.48208,37.155324465337L235.04319999999998,37.080886595154446L235.60432,37.03622387304491L236.16544,36.46173445440698L236.72656,36.1170408032242L237.28768,35.36253282714233L237.8488,34.90982804149319L238.40992,34.09051338473151L238.97104,33.051229540801714L239.53216,32.42765923444385L240.09328,32.05351705062914L240.6544,31.829031740340277L241.21552,31.694340554166985L241.77664000000001,31.613525842463027L242.33776,31.01734523006841L242.89888000000002,31.20732864800386L243.46,30.773626913392913L244.02112,30.513405872626347L244.58223999999998,30.3572732481664L245.14336,30.26359367349043L245.70448,30.20738592868485L246.26559999999998,30.173661281801497L246.82672,29.605734708299256L247.38783999999998,29.264978764197913L247.94896,29.060525197737118L248.51008,28.93785305786062L249.0712,28.86424977393476L249.63232,29.367779588951432L250.19344,29.66989747796146L250.75456,29.851168211367455L251.31568000000001,29.959930651411074L251.8768,30.02518811543723L252.43792000000002,30.064342593852942L252.99904,30.08783528090235L253.56016000000002,30.101930893131996L254.12128,30.1103882604698L254.68240000000003,30.115462680872486L255.24352,30.118507333114074L255.80463999999998,30.120334124459024L256.36575999999997,30.669121984638235L256.92688,30.998394700745767L257.488,31.195958330410278L258.04912,30.766804722836763L258.61024,30.509312558292653L259.17136,30.354817259566175L259.73248,30.262120080330302L260.2936,30.20650177278877L260.85472,30.720822573636095L261.41584,31.029415054144465L261.97696,31.214570542449504L262.53808,31.325663835432493L263.0992,31.392319811222333L263.66032,31.432313396696212L264.22144000000003,31.456309547980556L264.78256,30.92301545337894L265.34368,31.150730781990166L265.90479999999997,31.287359979156903L266.46592,31.369337497456986L267.02704,31.418524008437007L267.58816,31.995730964897795L268.14928,32.34205513877424L268.7104,32.54984964310013L269.27152,33.22221813106788L269.83263999999997,33.62563922384853L270.39376,33.86769187951692L270.95488,34.01292347291794L271.516,34.64775421433079L272.07712,34.48096087380629L272.63824,34.38088486949159L273.19936,34.320839266902745L273.76048000000003,34.28481190534944" style="fill: none;" fill="none"></path></g><g><path stroke="rgb(187, 187, 187)" stroke-width="2px" d="M33.60112,89.62237539658179L34.162240000000004,93.51223692756435L34.72336,97.0316344840186L35.284479999999995,98.33754829071228L35.8456,100.55625175570027L36.40672,98.58000901035484L36.96784,97.45497314054946L37.528960000000005,95.68635587344981L38.09008,94.64439088539473L38.651199999999996,96.14843485816317L39.21232,96.02708218944997L39.77344,95.95455297181172L40.33456,94.19735984383296L40.89568,94.0269078330251L41.4568,95.5377341419032L42.017920000000004,97.10283850194844L42.57904,98.04161848892527L43.140159999999995,99.27006614308917L43.70128,100.0070548836237L44.2624,100.95078742559895L44.82352,100.81948495393556L45.384640000000005,99.43868130872481L45.94576,99.1426941713056L46.506879999999995,98.96510338486111L47.068,99.39413309483302L47.62912,100.65970960835709L48.19024,101.31774188896688L48.75136,102.61442209408561L49.31248,103.39242970753502L49.8736,103.73694261020344L50.43472,103.31908924051939L50.99584,103.37264994840976L51.55696,103.40478637041589L52.11808,103.80441029523769L52.6792,104.77029118892268L53.240320000000004,105.34981971450699L53.80144000000001,105.5755032659177L54.362559999999995,106.6978486299368L54.92368,106.92127382510738L55.4848,107.9681485853984L56.04592,108.59627344067738L56.60704,109.54218017922861L57.16816,110.109724222068L57.72928,110.2971880106046L58.2904,109.99369709526577L58.85152,109.67801918378844L59.412639999999996,109.48861243691464L59.97376,109.37496838879488L60.53488,109.30678195992465L61.096000000000004,109.39945346489012L61.657120000000006,109.70979677111886L62.218239999999994,110.3881164184566L62.77936,110.65680111228377L63.34048,110.81801192857978L63.9016,111.37776374985475L64.46272,110.99163300541994L65.02383999999999,110.63856900275822L65.58496,110.42673060116122L66.14608,110.29962756020304L66.7072,108.89977725431189L67.26832,108.60755885614944L67.82943999999999,108.43222781725201L68.39056,106.68395220554662L68.95168,105.63498683852336L69.5128,105.00560761830943L70.07392,104.62798008618105L70.63504,104.40140356690404L71.19616,104.81314944071006L71.75728,105.06019696499365L72.3184,104.66073369419159L72.87952,104.42105573171037L73.44064,103.72955716884941L74.00176,103.31465803113281L74.56287999999999,101.97033334550818L75.124,99.52066154576646L75.68512,98.05085846592141L76.24624,95.52590126189773L76.80736,93.46323188961074L77.36848,91.13024669549411L77.92960000000001,89.18276379365192L78.49072000000001,87.46658226717439L79.05184000000001,85.88918156591565L79.61295999999999,84.39504609528763L80.17407999999999,81.85548945679417L80.73519999999999,79.78406368832587L81.29632,78.54120822724488L81.85744,77.7954949505963L82.41856,77.34806698460713L82.97968,77.07961020501364L83.5408,77.46622792262977L84.10192,77.69819855319943L84.66304000000001,77.28968914616902L85.22416,75.40150488133355L85.78528,73.17321075168786L86.3464,70.740850703156L86.90752,68.1860478387919L87.46864,66.1054743348012L88.02976,64.30943844703457L88.59088,62.68412512900236L89.152,60.613553567438586L89.71312,58.82351558062758L90.27423999999999,57.201801003168754L90.83536,56.228772256693475L91.39648,55.64495500880828L91.9576,54.746972874704944L92.51872,54.20818359424297L93.07984,53.884910025965745L93.64096,53.14325409962721L94.20208000000001,52.15056875845187L94.76320000000001,51.00726576837444L95.32432,49.225897139082996L95.88543999999999,47.609384176135904L96.44655999999999,46.09178461299545L97.00768,45.18122487511117L97.5688,44.63488903238061L98.12992,44.307087526742244L98.69104,44.11040662335924L99.25216,43.99239808132944L99.81328,44.46928474148379L100.37440000000001,44.75541673757639L100.93552000000001,45.47478772060418L101.49664,45.90641031042085L102.05776,45.61769207893862L102.61887999999999,44.89676935467707L103.17999999999999,43.368832149375706L103.74112,41.35668299094989L104.30224,40.1493934958944L104.86336,39.42501979886108L105.42448,39.538087366013336L105.9856,39.60592790630468L106.54672,39.64663223047947L107.10784,39.67105482498438L107.66896,39.68570838168731L108.23008,39.14680873033683L108.7912,38.82346893952655L109.35232,38.629465065040385L109.91344000000001,38.51306274034868L110.47456,37.895529560161464L111.03568,37.52500965204914L111.5968,37.30269770718171L112.15791999999999,37.717002325633466L112.71903999999999,37.965585096704544L113.28016,38.662426544719416L113.84128,39.62822646340109L114.4024,40.755398199982324L114.96352,41.43170124193107L115.52464,42.93286663784477L116.08576000000001,43.833565875392964L116.64688000000001,44.3739854179219L117.20800000000001,45.24592892881147L117.76911999999999,45.76909503534521L118.33023999999999,46.08299469926547L118.89135999999999,46.27133449761761L119.45248,46.93203016200111L120.0136,47.328447560631226L120.57472,47.56629799980929L121.13584,47.70900826331614L121.69696,47.79463442142025L122.25808,47.29831833091049L122.8192,47.000528676604624L123.38032,46.821854884021114L123.94144,46.16695882309877L124.50256,45.774021186545355L125.06368,45.53825860461333L125.62480000000001,45.39680105545412L126.18592,45.31192652595858L126.74704,45.80869359363349L127.30816,46.65444561961066L127.86928,47.16189683519695L128.4304,47.46636756454874L128.99152,47.10135821678756L129.55264,46.88235260813088L130.11375999999998,46.203257457564646L130.67488,45.248108581852684L131.236,44.6750192564255L131.79712,44.33116566116921L132.35824,44.12485350401542L132.91936,44.001066209723156L133.48048,43.9267938331478L134.0416,44.4299221925748L134.60272,44.73179920823099L135.16384,45.46061720299693L135.72496,45.897907999856486L136.28608,46.16028247797222L136.84720000000002,46.317707164841664L137.40832,46.41216197696333L137.96944,45.921143078864134L138.53056,45.07883995463237L139.09168,43.478074509348865L139.65279999999998,41.969920192306006L140.21392,41.61272265195304L140.77504,40.850709077868515L141.33616,40.94119598329054L141.89728,40.995488126543755L142.4584,41.02806341249571L143.01952,41.04760858406687L143.58064000000002,40.511640637136814L144.14176,40.190059868978764L144.70288000000002,40.544806457956696L145.264,40.757654411343445L145.82512000000003,41.43305496874773L146.38624000000002,42.385987088562544L146.94735999999997,42.95774636045142L147.50848,43.300801923584736L148.06959999999998,44.05432704683694L148.63072,45.05413390616051L149.19183999999998,46.201709807126846L149.75296,46.89025534770668L150.31408,47.851077721927325L150.8752,48.42757114645971L151.43632,49.32115898655137L151.99744,49.857311690606345L152.55856,50.72669509841157L153.11968000000002,51.248325143094696L153.6808,52.10899495527682L154.24192,51.530013271841625L154.80304,51.18262426178053L155.36416,50.974190855743856L155.92528000000001,50.84913081212186L156.4864,50.774094785948655L157.04752000000002,50.72907317024473L157.60864,50.70206020082237L158.16976,50.68585241916897L158.73087999999998,50.67612775017693L159.292,50.67029294878167L159.85312,51.214483853316764L160.41424,51.54099839603782L160.97536,51.73690712167045L161.53647999999998,51.85445235705001L162.0976,51.92497949827777L162.65872,51.967295783014414L163.21984,51.9926855538564L163.78096,52.007919416361595L164.34208,52.01705973386471L164.9032,52.57023570973881L165.46432000000001,52.35444950989103L166.02544,52.22497778998239L166.58656000000002,52.14729475803719L167.14768,52.10068493887007L167.70880000000002,52.07271904736981L168.26992,51.50824772709743L168.83103999999997,50.62187314956178L169.39216,50.6377401884126L169.95327999999998,50.09956862635089L170.5144,50.32435747448608L171.07551999999998,50.45923078336718L171.63664,49.992462983323634L172.19776,49.712402303297495L172.75888,49.544365895281814L173.32,49.4435440504724L173.88112,48.83535589371399L174.44224,47.37505942891451L175.00336000000001,46.498881550034824L175.56448,45.973174822706994L176.12560000000002,46.20544257168253L176.68672,45.797111435695655L177.24784,45.55211275410351L177.80896,44.85742175977601L178.37008,44.44060716317951L178.93120000000002,44.19051840522159L179.49231999999998,44.04046515044685L180.05344,43.402741412209785L180.61455999999998,43.020107169267526L181.17568,42.79052662350219L181.7368,42.65277829604298L182.29792,43.11782108493969L182.85904,43.39684675827772L183.42016,43.56426216228052L183.98128,43.6647114046822L184.5424,43.724980950123225L185.10352,43.213450892015594L185.66464,42.35884107177882L186.22576,41.84607517963674L186.78688,41.53841564435149L187.348,41.353819923180346L187.90912,41.24306249047765L188.47024000000002,41.17660803085604L189.03136,40.58904030521032L189.59248000000002,40.78419471969561L190.15359999999998,40.90128736838683L190.71472,40.423847907728764L191.27584,40.685079281206704L191.83695999999998,40.2941230554207L192.39808,39.511857534576876L192.95919999999998,39.04249822207057L193.52032,38.7608826345668L194.08144,39.13960506743677L194.64256,39.36683852715874L195.20368,38.955486817619686L195.7648,38.160984006524046L196.32592,37.136590534494445L196.88704,36.521954451276684L197.44816,36.15317280134602L198.00928000000002,35.93190381138763L198.5704,36.34683420278484L199.13152000000002,36.59579243762313L199.69264,36.74516737852611L200.25376,36.8347923430679L200.81488,36.888567321793L201.37599999999998,37.46852409440022L201.93712,37.81649815796461L202.49823999999998,37.47759081073101L203.05936,37.27424640239086L203.62048,37.15223975738676L204.1816,37.0790357703843L204.74272,37.03511337818283L205.30384,37.556451728234144L205.86496,37.86925473826494L206.42608,38.05693654428344L206.9872,38.169545627894514L207.54832,38.7848028634334L208.10944,39.15395720475673L208.67056,39.37544980955073L209.23168,39.50834537242712L209.7928,39.58808271015294L210.35392000000002,39.63592511278845L210.91504,39.66463055436974L211.47616000000002,39.68185381931853L212.03727999999998,40.239882828160546L212.5984,40.57470023346579L213.15952,41.87097424739337L213.72064,42.648738655749916L214.28176,42.567705515391616L214.84287999999998,43.066777416548874L215.404,43.36622055724322L215.96511999999998,43.545886441659825L216.52624,43.65368597230979L217.08736,43.71836569069978L217.64848,43.757173521733755L218.2096,43.780458220354156L218.77072,44.34212082489859L219.33184,44.67911838762527L219.89296000000002,44.333625139889065L220.45408,44.12632919124734L221.01520000000002,44.00195162206229L221.57632,43.37963329517905L222.13744000000003,43.0062422990491L222.69856,42.2345159159989L223.25967999999997,41.22378503629603L223.8208,40.069654723102076L224.38191999999998,39.37717653518572L224.94304,38.96168962243589L225.50415999999998,38.71239747478601L226.06528,38.01513040082385L226.6264,38.144461941818754L227.18752,38.22206086641571L227.74864,38.2686202211739L228.30976,37.74886404865658L228.87088,36.88931855977397L229.43200000000002,35.8258994810722L229.99312,35.18784803385112L230.55424000000002,34.80501716551847L231.11536,35.12301042989111L231.67648,34.76611460314247L232.23760000000001,34.55197710709331L232.79872,33.87580282409156L233.35984,33.47009825429053L233.92095999999998,33.77436729778213L234.48208,33.95692872387707L235.04319999999998,34.06646557953405L235.60432,33.58449590755601L236.16544,33.84300588974143L236.72656,33.99811187905264L237.28768,34.63886725801162L237.8488,35.02332048538699L238.40992,35.253992421812214L238.97104,35.392395583667366L239.53216,35.47543748078045L240.09328,35.525262619048284L240.6544,35.555157702008984L241.21552,35.57309475178542L241.77664000000001,35.583856981651266L242.33776,35.59031431957077L242.89888000000002,35.5941887223225L243.46,35.59651336397353L244.02112,35.05021636359193L244.58223999999998,34.72243816336297L245.14336,34.52577124322559L245.70448,34.40777109114317L246.26559999999998,34.33697099989369L246.82672,34.29449094514402L247.38783999999998,34.26900291229421L247.94896,33.70601830721209L248.51008,33.36822754416284L249.0712,33.16555308633327L249.63232,33.04394841163553L250.19344,32.97098560681691L250.75456,32.92720792392571L251.31568000000001,32.900941314191L251.8768,32.88518134835017L252.43792000000002,32.87572536884569L252.99904,32.32235673127021L253.56016000000002,31.442643763352727L254.12128,30.914815982602242L254.68240000000003,30.59811931415194L255.24352,30.408101313081772L255.80463999999998,30.294090512439624L256.36575999999997,30.225684032054374L256.92688,30.18464014382321L257.488,30.160013810884543L258.04912,30.145238011121307L258.61024,30.136372531263387L259.17136,30.131053243348624L259.73248,30.127861670599767L260.2936,30.125946726950453L260.85472,30.124797760760867L261.41584,30.671800166419324" style="fill: none;" fill="none"></path></g><g><path stroke="rgb(0, 153, 136)" stroke-width="2px" d="M33.60112,95.84615384615387L34.162240000000004,95.84615384615387L34.72336,95.84615384615387L35.284479999999995,98.70634427305936L35.8456,102.41473573018959L36.40672,104.44618540058316L36.96784,105.60264947984668L37.528960000000005,109.59121924005174L38.09008,113.25835393526367L38.651199999999996,116.58280636140074L39.21232,119.25167342739202L39.77344,117.35386535479311L40.33456,117.08487723988922L40.89568,118.44891873231015L41.4568,118.53605833370148L42.017920000000004,119.24051528712987L42.57904,119.66306224722278L43.140159999999995,120.52365486846773L43.70128,122.13662418901981L44.2624,121.88965779162142L44.82352,121.74148373217812L45.384640000000005,122.17123572749489L45.94576,121.30635393967799L46.506879999999995,121.29370180748188L47.068,121.20375188039465L47.62912,121.14978208780991L48.19024,120.1565343586897L48.75136,120.45114429953831L49.31248,120.62791014825974L49.8736,120.2679800147992L50.43472,120.45729182726693L50.99584,120.57087889867645L51.55696,120.20607183358064L52.11808,120.36717874445381L52.6792,120.82799956228644L53.240320000000004,121.10449204791604L53.80144000000001,120.50194205926206L54.362559999999995,120.11891696454036L54.92368,118.52377188804574L55.4848,116.92125554413272L56.04592,116.31539022227385L56.60704,115.95187102946952L57.16816,114.29932818067641L57.72928,113.10168190728284L58.2904,112.71961681430703L58.85152,112.49037775854698L59.412639999999996,112.35283432510008L59.97376,112.5963159796809L60.53488,113.36478200126633L61.096000000000004,113.3056667169219L61.657120000000006,112.58120185486605L62.218239999999994,111.97265237412721L62.77936,110.26871999957828L63.34048,108.01054145517602L63.9016,106.1875212729399L64.46272,105.39056162387341L65.02383999999999,104.91238583443372L65.58496,104.62548036076996L66.14608,103.72180820752963L66.7072,103.40443759709466L67.26832,103.2140152308337L67.82943999999999,102.32807795308597L68.39056,101.48326227542684L68.95168,100.93995736525609L69.5128,100.61397441915364L70.07392,100.68305566539763L70.63504,100.68458120373357L71.19616,100.68549652673515L71.75728,100.9405282282418L72.3184,101.09354724914576L72.87952,101.18535866168814L73.44064,101.78813892683608L74.00176,101.60211366830234L74.56287999999999,100.39511494243766L75.124,100.21860749229108L75.68512,99.01731781920839L76.24624,98.2965440153588L76.80736,97.31638794767683L77.36848,96.18060252169542L77.92960000000001,94.95143948073434L78.49072000000001,94.76163344152994L79.05184000000001,95.1954416033795L79.61295999999999,94.3603429297448L80.17407999999999,93.31159194019178L80.73519999999999,92.68234134645994L81.29632,91.75709594034807L81.85744,90.10656512593653L82.41856,89.11624663728958L82.97968,87.426671973357L83.5408,86.41292717499744L84.10192,86.35237208135392L84.66304000000001,86.3160390251678L85.22416,86.29423919145613L85.78528,85.73346750585691L86.3464,84.30161765925239L86.90752,83.44250775128968L87.46864,82.92704180651208L88.02976,82.61776223964549L88.59088,82.43219449952555L89.152,82.86854890532634L89.71312,82.03497471356184L90.27423999999999,81.53483019850313L90.83536,80.68705170409568L91.39648,80.72607639282344L91.9576,78.55872406457121L92.51872,77.25831266761988L93.07984,75.9303707795763L93.64096,75.13360564675017L94.20208000000001,74.65554656705447L94.76320000000001,74.36871111923708L95.32432,74.19660985054662L95.88543999999999,72.9979655185879L96.44655999999999,71.73108713404046L97.00768,70.42326831793977L97.5688,69.63857702827936L98.12992,68.07237541923811L98.69104,66.03727088306896L99.25216,63.72082459062299L99.81328,62.330956815155425L100.37440000000001,60.94934436450264L100.93552000000001,59.57268510873878L101.49664,58.19899450540769L102.05776,55.73170478729237L102.61887999999999,53.15594738567874L103.17999999999999,51.0627978948378L103.74112,49.80690820033323L104.30224,48.50568259825826L104.86336,47.72494723701329L105.42448,46.16112244952187L105.9856,44.67513579165479L106.54672,43.783543796934545L107.10784,43.2485886001024L107.66896,42.92761548200311L108.23008,43.28272339651577L108.7912,42.94809635985113L109.35232,42.74732013785235L109.91344000000001,42.62685440465308L110.47456,42.00688317936129L111.03568,42.73028401493067L111.5968,42.61663273090007L112.15791999999999,42.54844196048171L112.71903999999999,43.05521928360293L113.28016,43.35928567747563L113.84128,43.541725513799285L114.4024,44.198881200965666L114.96352,45.14086639863775L115.52464,45.70605751724097L116.08576000000001,46.04517218840292L116.64688000000001,45.70094920572785L117.20800000000001,45.49441541612283L117.76911999999999,45.3704951423598L118.33023999999999,45.29614297810201L118.89135999999999,45.25153167954732L119.45248,45.772456685786736L120.0136,45.537319904158174L120.57472,45.396237835181005L121.13584,45.85928037916694L121.69696,46.13710590555849L122.25808,46.30380122139345L122.8192,45.856126625522165L123.38032,45.58752186799943L123.94144,45.42635901348576L124.50256,45.32966130077758L125.06368,45.27164267315266L125.62480000000001,45.78452328194992L126.18592,46.639943432600504L126.74704,47.15319552299085L127.30816,47.461146777225075L127.86928,48.193612579638355L128.4304,48.63309206108633L128.99152,48.89677974995513L129.55264,49.60268414864861L130.11375999999998,50.02622678786468L130.67488,50.28035237139437L131.236,49.88513593613993L131.79712,49.10031102511451L132.35824,48.08172429312704L132.91936,47.47057225393455L133.48048,46.55618924504685L134.0416,45.459867654342005L134.60272,43.70669112917464L135.16384,41.55939837882924L135.72496,40.27102272862201L136.28608,39.497997338497655L136.84720000000002,38.48649031905083L137.40832,37.87958610738275L137.96944,36.967751795009654L138.53056,36.420651207585806L139.09168,35.544699069759275L139.65279999999998,35.01912778706338L140.21392,35.25147680281804L140.77504,35.39088621227083L141.33616,35.47453185794252L141.89728,35.52471924534551L142.4584,35.55483167778734L143.01952,35.57289913725242L143.58064000000002,35.583739612931474L144.14176,35.59024389833892L144.70288000000002,34.498762898838926L145.264,33.84387429913894L145.82512000000003,33.998632924691165L146.38624000000002,34.09148810002251L146.94735999999997,34.14720120522131L147.50848,33.08524223309558L148.06959999999998,32.44806684982019L148.63072,32.06576161985492L149.19183999999998,32.38407353174853L149.75296,32.57506067888471L150.31408,32.689652967166396L150.8752,32.75840834013541L151.43632,32.79966156391682L151.99744,32.82441349818566L152.55856,32.83926465874697L153.11968000000002,32.84817535508377L153.6808,32.853521772885834L154.24192,33.404421408939314L154.80304,33.73496119057138L155.36416,33.93328505955064L155.92528000000001,34.0522793809382L156.4864,34.123675973770716L157.04752000000002,34.16651392947024L157.60864,34.19221670288995L158.16976,34.207638366941794L158.73087999999998,34.21689136537286L159.292,34.22244316443153L159.85312,34.225774243866724L160.41424,34.22777289152785L160.97536,34.22897208012449L161.53647999999998,34.229691593282496L162.0976,34.23012330117731L162.65872,34.23038232591419L163.21984,33.6828459553841L163.78096,32.80662908319327L164.34208,32.28089895987878L164.9032,31.965460885890092L165.46432000000001,31.228506256124646L166.02544,30.786333478265387L166.58656000000002,31.068721596922032L167.14768,31.238154468116058L167.70880000000002,31.339814190832435L168.26992,31.40081002446228L168.83103999999997,31.98510257451295L169.39216,32.33567810454334L169.95327999999998,32.54602342256158L170.5144,32.67223061337253L171.07551999999998,32.74795492785911L171.63664,32.79338951655104L172.19776,32.27295521989345L172.75888,32.50838969177164L173.32,32.64965037489857L173.88112,32.73440678477471L174.44224,32.23756558082765L175.00336000000001,31.939460858459416L175.56448,31.760598025038465L176.12560000000002,31.653280324985918L176.68672,31.58888970495437L177.24784,31.550255332935443L177.80896,31.527074709724065L178.37008,31.513166335797262L178.93120000000002,31.504821311441162L179.49231999999998,31.499814296827537L180.05344,31.496810088059352L180.61455999999998,31.495007562798435L181.17568,31.493926047641875L181.7368,31.493277138547956L182.29792,30.94519600771936L182.85904,30.616347329222204L183.42016,31.514424957368913L183.98128,31.505576484384143L184.5424,31.500267400593295L185.10352,31.497081950318815L185.66464,31.49517068015409L186.22576,30.946332132683036L186.78688,30.617029004200408L187.348,30.41944712711086L187.90912,30.300898000857117L188.47024000000002,30.22976852510487L189.03136,30.187090839653507L189.59248000000002,30.16148422838271L190.15359999999998,30.14612026162023L190.71472,30.136901881562736L191.27584,30.131370853528228L191.83695999999998,30.675744022079765L192.39808,31.002367923210677L192.95919999999998,31.746037313761985L193.52032,32.19223894809275L194.08144,32.45995992869123L194.64256,32.62059251705031L195.20368,32.71697207006577L195.7648,32.774799801875055L196.32592,32.809496440960615L196.88704,32.830314424411924L197.44816,33.39049699985496L198.00928000000002,33.72660654512078L198.5704,33.92827227228028L199.13152000000002,32.95388487333097L199.69264,32.369252433961414L200.25376,32.01847297033966L200.81488,31.80800529216662L201.37599999999998,31.681724685262765L201.93712,32.153651370993245L202.49823999999998,32.43680738243154L203.05936,32.606700989294495L203.62048,32.70863715341227L204.1816,32.76979885188294L204.74272,32.806495870965335L205.30384,32.82851408241476L205.86496,32.84172500928445L206.42608,32.84965156540624L206.9872,32.85440749907932L207.54832,32.85726105928319L208.10944,32.31127814553274L208.67056,31.435996611910205L209.23168,30.910827691736728L209.7928,30.595726339632627L210.35392000000002,30.40666552837019L210.91504,30.293229041612683L211.47616000000002,30.22516714955822L212.03727999999998,30.18433001432554L212.5984,30.159827733185924L213.15952,30.145126364502133L213.72064,29.588613757919667L214.28176,29.254706193970183L214.84287999999998,29.054361655600488L215.404,28.934154932578654L215.96511999999998,29.409722684137776L216.52624,29.69506333507327L217.08736,29.866267725634543L217.64848,29.96899035997131L218.2096,29.48293215520117L218.77072,29.191297232339075L219.33184,29.01631627862181L219.89296000000002,28.911327706391468L220.45408,28.848334563053243L221.01520000000002,28.810538677050328L221.57632,28.787861145448588L222.13744000000003,28.774254626487533L222.69856,28.766090715110895L223.25967999999997,28.761192368284913L223.8208,28.758253360189308L224.38191999999998,28.756489955331965L224.94304,29.303123697789754L225.50415999999998,29.63110394326446L226.06528,30.375583875921492L226.6264,30.822271835515725L227.18752,31.09028461127227L227.74864,31.251092276726162L228.30976,31.34757687599852L228.87088,31.405467635561923L229.43200000000002,31.44020209129997L229.99312,31.461042764742793L230.55424000000002,31.473547168808516L231.11536,31.481049811247917L231.67648,31.485551396711557L232.23760000000001,31.488252347989757L232.79872,31.489872918756696L233.35984,31.49084526121683L233.92095999999998,31.491428666692897L234.48208,31.49177870997856L235.04319999999998,31.49198873594996L235.60432,32.039809801405546" style="fill: none;" fill="none"></path></g></g></g></g><g opacity="0.2"><g><g><g><path stroke="rgb(0, 119, 187)" stroke-width="2px" d="M33.60112,112.96153846153845L34.162240000000004,118.66666530645813L34.72336,123.23076759851898L35.284479999999995,126.96503385213705L35.8456,132.71005901465048L36.40672,127.79486989057983L36.96784,124.03619741476501L37.528960000000005,126.27350245989288L38.09008,128.27530235510608L38.651199999999996,131.70695960980197L39.21232,133.18881026139627L39.77344,134.54180699586868L40.33456,135.78205196215558L40.89568,131.44615458066647L41.4568,133.88034165364047L42.017920000000004,134.96703267555972L42.57904,135.9787789262258L43.140159999999995,134.35576923076923L43.70128,136.11764669876834L44.2624,136.92307651501437L44.82352,136.92307651501437L45.384640000000005,136.92307651501437L45.94576,134.70270198583603L46.506879999999995,135.48178116174844L47.068,136.2209069316204L47.62912,136.92307651501437L48.19024,137.59099536675674L48.75136,138.83363157969256L49.31248,139.96581137638827L49.8736,140.49498283404571L50.43472,141.95290469664795L50.99584,141.95290469664795L51.55696,140.1447957799985L52.11808,140.1447957799985L52.6792,140.1447957799985L53.240320000000004,141.0566034271167L53.80144000000001,139.4125866706555L54.362559999999995,139.4125866706555L54.92368,139.4125866706555L55.4848,140.28609968607242L56.04592,136.45893186789294L56.60704,135.59801574395254L57.16816,135.59801574395254L57.72928,136.05372369747897L58.2904,136.05372369747897L58.85152,136.92307651501437L59.412639999999996,136.92307651501437L59.97376,136.92307651501437L60.53488,136.11764669876834L61.096000000000004,136.11764669876834L61.657120000000006,134.96703267555972L62.218239999999994,135.38028171887765L62.77936,136.17281267734674L63.34048,136.17281267734674L63.9016,136.55301477358893L64.46272,131.37682475035007L65.02383999999999,131.37682475035007L65.58496,131.7884619465241L66.14608,130.91181909121002L66.7072,128.44688450373138L67.26832,126.09659917537982L67.82943999999999,124.96198120483984L68.39056,123.23076759851898L68.95168,123.23076759851898L69.5128,123.6821623307008L70.07392,124.12374723874606L70.63504,124.55583245020648L71.19616,124.97872401200809L71.75728,125.39271164857425L72.3184,125.39271164857425L72.87952,124.78350687943973L73.44064,125.18681143797363L74.00176,124.6000011425752L74.56287999999999,120.49230867165787L75.124,117.75384566417108L75.68512,119.12307512760162L76.24624,119.12307512760162L76.80736,117.75384566417108L77.36848,117.75384566417108L77.92960000000001,117.75384566417108L78.49072000000001,117.75384566417108L79.05184000000001,117.75384566417108L79.61295999999999,117.75384566417108L80.17407999999999,119.12307512760162L80.73519999999999,119.12307512760162L81.29632,119.12307512760162L81.85744,119.12307512760162L82.41856,117.75384566417108L82.97968,117.75384566417108L83.5408,116.38461620074054L84.10192,115.0153826566843L84.66304000000001,115.0153826566843L85.22416,113.64615319325372L85.78528,110.90769426639264L86.3464,108.16923125890585L86.90752,106.80000179547531L87.46864,105.43076825141907L88.02976,102.69230932455798L88.59088,102.69230932455798L89.152,102.69230932455798L89.71312,99.9538463170712L90.27423999999999,98.58461685364063L90.83536,97.21538330958441L91.39648,95.84615384615387L91.9576,94.4769243827233L92.51872,93.10769491929275L93.07984,93.10769491929275L93.64096,93.10769491929275L94.20208000000001,93.10769491929275L94.76320000000001,93.10769491929275L95.32432,91.73846545586218L95.88543999999999,93.10769491929275L96.44655999999999,93.10769491929275L97.00768,91.73846545586218L97.5688,88.99999836774973L98.12992,90.3692278311803L98.69104,88.99999836774973L99.25216,88.99999836774973L99.81328,87.63076890431918L100.37440000000001,87.63076890431918L100.93552000000001,86.26153944088864L101.49664,86.26153944088864L102.05776,86.26153944088864L102.61887999999999,87.63076890431918L103.17999999999999,86.26153944088864L103.74112,87.63076890431918L104.30224,87.63076890431918L104.86336,88.99999836774973L105.42448,88.99999836774973L105.9856,87.63076890431918L106.54672,83.52308051402753L107.10784,83.52308051402753L107.66896,83.52308051402753L108.23008,83.52308051402753L108.7912,83.52308051402753L109.35232,86.26153944088864L109.91344000000001,87.63076890431918L110.47456,87.63076890431918L111.03568,87.63076890431918L111.5968,87.63076890431918L112.15791999999999,87.63076890431918L112.71903999999999,84.89230997745807L113.28016,83.52308051402753L113.84128,83.52308051402753L114.4024,79.41538396248453L114.96352,79.41538396248453L115.52464,79.41538396248453L116.08576000000001,79.41538396248453L116.64688000000001,80.78461342591507L117.20800000000001,80.78461342591507L117.76911999999999,80.78461342591507L118.33023999999999,80.78461342591507L118.89135999999999,83.52308051402753L119.45248,83.52308051402753L120.0136,83.52308051402753L120.57472,83.52308051402753L121.13584,82.15384288934561L121.69696,80.78461342591507L122.25808,82.15384288934561L122.8192,83.52308051402753L123.38032,82.15384288934561L123.94144,79.41538396248453L124.50256,76.67692503562341L125.06368,76.67692503562341L125.62480000000001,75.30769557219287L126.18592,73.93845794751095L126.74704,72.56922848408038L127.30816,72.56922848408038L127.86928,73.93845794751095L128.4304,71.19999902064984L128.99152,72.56922848408038L129.55264,71.19999902064984L130.11375999999998,71.19999902064984L130.67488,69.8307695572193L131.236,69.8307695572193L131.79712,68.46154009378876L132.35824,64.35384354224573L132.91936,64.35384354224573L133.48048,62.98461407881518L134.0416,57.50769622509298L134.60272,57.50769622509298L135.16384,57.50769622509298L135.72496,58.87692568852352L136.28608,58.87692568852352L136.84720000000002,56.13845860041106L137.40832,53.39999967354996L137.96944,53.39999967354996L138.53056,54.7692291369805L139.09168,54.7692291369805L139.65279999999998,54.7692291369805L140.21392,56.13845860041106L140.77504,57.50769622509298L141.33616,57.50769622509298L141.89728,57.50769622509298L142.4584,58.87692568852352L143.01952,58.87692568852352L143.58064000000002,58.87692568852352L144.14176,58.87692568852352L144.70288000000002,58.87692568852352L145.264,60.24615515195407L145.82512000000003,60.24615515195407L146.38624000000002,58.87692568852352L146.94735999999997,58.87692568852352L147.50848,58.87692568852352L148.06959999999998,57.50769622509298L148.63072,54.7692291369805L149.19183999999998,57.50769622509298L149.75296,57.50769622509298L150.31408,56.13845860041106L150.8752,54.7692291369805L151.43632,56.13845860041106L151.99744,54.7692291369805L152.55856,53.39999967354996L153.11968000000002,53.39999967354996L153.6808,54.7692291369805L154.24192,56.13845860041106L154.80304,57.50769622509298L155.36416,57.50769622509298L155.92528000000001,60.24615515195407L156.4864,58.87692568852352L157.04752000000002,58.87692568852352L157.60864,60.24615515195407L158.16976,60.24615515195407L158.73087999999998,60.24615515195407L159.292,60.24615515195407L159.85312,58.87692568852352L160.41424,58.87692568852352L160.97536,58.87692568852352L161.53647999999998,58.87692568852352L162.0976,54.7692291369805L162.65872,53.39999967354996L163.21984,52.03077021011941L163.78096,52.03077021011941L164.34208,50.66154074668884L164.9032,52.03077021011941L165.46432000000001,53.39999967354996L166.02544,50.66154074668884L166.58656000000002,50.66154074668884L167.14768,50.66154074668884L167.70880000000002,50.66154074668884L168.26992,50.66154074668884L168.83103999999997,50.66154074668884L169.39216,52.03077021011941L169.95327999999998,52.03077021011941L170.5144,52.03077021011941L171.07551999999998,50.66154074668884L171.63664,50.66154074668884L172.19776,49.2923112832583L172.75888,50.66154074668884L173.32,50.66154074668884L173.88112,52.03077021011941L174.44224,52.03077021011941L175.00336000000001,50.66154074668884L175.56448,50.66154074668884L176.12560000000002,52.03077021011941L176.68672,49.2923112832583L177.24784,49.2923112832583L177.80896,53.39999967354996L178.37008,53.39999967354996L178.93120000000002,52.03077021011941L179.49231999999998,50.66154074668884L180.05344,49.2923112832583L180.61455999999998,49.2923112832583L181.17568,50.66154074668884L181.7368,47.923073658576385L182.29792,47.923073658576385L182.85904,47.923073658576385L183.42016,47.923073658576385L183.98128,47.923073658576385L184.5424,47.923073658576385L185.10352,47.923073658576385L185.66464,47.923073658576385L186.22576,47.923073658576385L186.78688,49.2923112832583L187.348,47.923073658576385L187.90912,47.923073658576385L188.47024000000002,47.923073658576385L189.03136,47.923073658576385L189.59248000000002,46.553844195145835L190.15359999999998,46.553844195145835L190.71472,45.18461473171529L191.27584,45.18461473171529L191.83695999999998,45.18461473171529L192.39808,45.18461473171529L192.95919999999998,46.553844195145835L193.52032,46.553844195145835L194.08144,46.553844195145835L194.64256,45.18461473171529L195.20368,45.18461473171529L195.7648,43.81538526828473L196.32592,42.44615580485418L196.88704,41.076926341423636L197.44816,41.076926341423636L198.00928000000002,41.076926341423636L198.5704,42.44615580485418L199.13152000000002,43.81538526828473L199.69264,43.81538526828473L200.25376,43.81538526828473L200.81488,43.81538526828473L201.37599999999998,43.81538526828473L201.93712,43.81538526828473L202.49823999999998,43.81538526828473L203.05936,43.81538526828473L203.62048,45.18461473171529L204.1816,42.44615580485418L204.74272,41.076926341423636L205.30384,39.7076887167417L205.86496,39.7076887167417L206.42608,39.7076887167417L206.9872,39.7076887167417L207.54832,39.7076887167417L208.10944,39.7076887167417L208.67056,39.7076887167417L209.23168,39.7076887167417L209.7928,38.33845925331116L210.35392000000002,36.96922978988059L210.91504,36.96922978988059L211.47616000000002,35.60000032645004L212.03727999999998,36.96922978988059L212.5984,36.96922978988059L213.15952,36.96922978988059L213.72064,35.60000032645004L214.28176,34.2307708630195L214.84287999999998,32.86154139958894L215.404,31.492303774907022L215.96511999999998,31.492303774907022L216.52624,31.492303774907022L217.08736,31.492303774907022L217.64848,31.492303774907022L218.2096,31.492303774907022L218.77072,31.492303774907022L219.33184,31.492303774907022L219.89296000000002,31.492303774907022L220.45408,31.492303774907022L221.01520000000002,31.492303774907022L221.57632,31.492303774907022L222.13744000000003,31.492303774907022L222.69856,32.86154139958894L223.25967999999997,32.86154139958894L223.8208,34.2307708630195L224.38191999999998,34.2307708630195L224.94304,35.60000032645004L225.50415999999998,35.60000032645004L226.06528,35.60000032645004L226.6264,35.60000032645004L227.18752,35.60000032645004L227.74864,35.60000032645004L228.30976,36.96922978988059L228.87088,36.96922978988059L229.43200000000002,36.96922978988059L229.99312,36.96922978988059L230.55424000000002,36.96922978988059L231.11536,36.96922978988059L231.67648,36.96922978988059L232.23760000000001,38.33845925331116L232.79872,38.33845925331116L233.35984,36.96922978988059L233.92095999999998,36.96922978988059L234.48208,36.96922978988059L235.04319999999998,36.96922978988059L235.60432,36.96922978988059L236.16544,35.60000032645004L236.72656,35.60000032645004L237.28768,34.2307708630195L237.8488,34.2307708630195L238.40992,32.86154139958894L238.97104,31.492303774907022L239.53216,31.492303774907022L240.09328,31.492303774907022L240.6544,31.492303774907022L241.21552,31.492303774907022L241.77664000000001,31.492303774907022L242.33776,30.123074311476476L242.89888000000002,31.492303774907022L243.46,30.123074311476476L244.02112,30.123074311476476L244.58223999999998,30.123074311476476L245.14336,30.123074311476476L245.70448,30.123074311476476L246.26559999999998,30.123074311476476L246.82672,28.753844848045933L247.38783999999998,28.753844848045933L247.94896,28.753844848045933L248.51008,28.753844848045933L249.0712,28.753844848045933L249.63232,30.123074311476476L250.19344,30.123074311476476L250.75456,30.123074311476476L251.31568000000001,30.123074311476476L251.8768,30.123074311476476L252.43792000000002,30.123074311476476L252.99904,30.123074311476476L253.56016000000002,30.123074311476476L254.12128,30.123074311476476L254.68240000000003,30.123074311476476L255.24352,30.123074311476476L255.80463999999998,30.123074311476476L256.36575999999997,31.492303774907022L256.92688,31.492303774907022L257.488,31.492303774907022L258.04912,30.123074311476476L258.61024,30.123074311476476L259.17136,30.123074311476476L259.73248,30.123074311476476L260.2936,30.123074311476476L260.85472,31.492303774907022L261.41584,31.492303774907022L261.97696,31.492303774907022L262.53808,31.492303774907022L263.0992,31.492303774907022L263.66032,31.492303774907022L264.22144000000003,31.492303774907022L264.78256,30.123074311476476L265.34368,31.492303774907022L265.90479999999997,31.492303774907022L266.46592,31.492303774907022L267.02704,31.492303774907022L267.58816,32.86154139958894L268.14928,32.86154139958894L268.7104,32.86154139958894L269.27152,34.2307708630195L269.83263999999997,34.2307708630195L270.39376,34.2307708630195L270.95488,34.2307708630195L271.516,35.60000032645004L272.07712,34.2307708630195L272.63824,34.2307708630195L273.19936,34.2307708630195L273.76048000000003,34.2307708630195" style="fill: none;" fill="none"></path></g><g><path stroke="rgb(187, 187, 187)" stroke-width="2px" d="M33.60112,89.62237539658179L34.162240000000004,95.84615384615387L34.72336,100.41025613821472L35.284479999999995,99.87330292738403L35.8456,103.45299099958862L36.40672,95.84615384615387L36.96784,95.84615384615387L37.528960000000005,93.10769491929275L38.09008,93.10769491929275L38.651199999999996,98.38176487042355L39.21232,95.84615384615387L39.77344,95.84615384615387L40.33456,91.56730769230771L40.89568,93.77156375004697L41.4568,97.80219768560852L42.017920000000004,99.4493912091622L42.57904,99.4493912091622L43.140159999999995,101.11242572160869L43.70128,101.11242572160869L44.2624,102.36629997766937L44.82352,100.62253844738007L45.384640000000005,97.36752127684082L45.94576,98.69871930892651L46.506879999999995,98.69871930892651L47.068,100.0376746104314L47.62912,102.55806898153747L48.19024,102.30478862615733L48.75136,104.55944041105418L49.31248,104.55944041105418L49.8736,104.25371177379901L50.43472,102.69230932455798L50.99584,103.45299099958862L51.55696,103.45299099958862L52.11808,104.40384615384616L52.6792,106.2191124879397L53.240320000000004,106.2191124879397L53.80144000000001,105.91402858954211L54.362559999999995,108.38136666554672L54.92368,107.25641161661883L55.4848,109.53846072233642L56.04592,109.53846072233642L56.60704,110.96104028591742L57.16816,110.96104028591742L57.72928,110.57838369332828L58.2904,109.53846072233642L58.85152,109.20450231662164L59.412639999999996,109.20450231662164L59.97376,109.20450231662164L60.53488,109.20450231662164L61.096000000000004,109.53846072233642L61.657120000000006,110.17531173045819L62.218239999999994,111.40559588945831L62.77936,111.05982815302337L63.34048,111.05982815302337L63.9016,112.21739148176636L64.46272,110.41243688876813L65.02383999999999,110.10897299876581L65.58496,110.10897299876581L66.14608,110.10897299876581L66.7072,106.80000179547531L67.26832,108.16923125890585L67.82943999999999,108.16923125890585L68.39056,104.06153878798852L68.95168,104.06153878798852L69.5128,104.06153878798852L70.07392,104.06153878798852L70.63504,104.06153878798852L71.19616,105.43076825141907L71.75728,105.43076825141907L72.3184,104.06153878798852L72.87952,104.06153878798852L73.44064,102.69230932455798L74.00176,102.69230932455798L74.56287999999999,99.9538463170712L75.124,95.84615384615387L75.68512,95.84615384615387L76.24624,91.73846545586218L76.80736,90.3692278311803L77.36848,87.63076890431918L77.92960000000001,86.26153944088864L78.49072000000001,84.89230997745807L79.05184000000001,83.52308051402753L79.61295999999999,82.15384288934561L80.17407999999999,78.04615449905396L80.73519999999999,76.67692503562341L81.29632,76.67692503562341L81.85744,76.67692503562341L82.41856,76.67692503562341L82.97968,76.67692503562341L83.5408,78.04615449905396L84.10192,78.04615449905396L84.66304000000001,76.67692503562341L85.22416,72.56922848408038L85.78528,69.8307695572193L86.3464,67.09231063035818L86.90752,64.35384354224573L87.46864,62.98461407881518L88.02976,61.61538461538461L88.59088,60.24615515195407L89.152,57.50769622509298L89.71312,56.13845860041106L90.27423999999999,54.7692291369805L90.83536,54.7692291369805L91.39648,54.7692291369805L91.9576,53.39999967354996L92.51872,53.39999967354996L93.07984,53.39999967354996L93.64096,52.03077021011941L94.20208000000001,50.66154074668884L94.76320000000001,49.2923112832583L95.32432,46.553844195145835L95.88543999999999,45.18461473171529L96.44655999999999,43.81538526828473L97.00768,43.81538526828473L97.5688,43.81538526828473L98.12992,43.81538526828473L98.69104,43.81538526828473L99.25216,43.81538526828473L99.81328,45.18461473171529L100.37440000000001,45.18461473171529L100.93552000000001,46.553844195145835L101.49664,46.553844195145835L102.05776,45.18461473171529L102.61887999999999,43.81538526828473L103.17999999999999,41.076926341423636L103.74112,38.33845925331116L104.30224,38.33845925331116L104.86336,38.33845925331116L105.42448,39.7076887167417L105.9856,39.7076887167417L106.54672,39.7076887167417L107.10784,39.7076887167417L107.66896,39.7076887167417L108.23008,38.33845925331116L108.7912,38.33845925331116L109.35232,38.33845925331116L109.91344000000001,38.33845925331116L110.47456,36.96922978988059L111.03568,36.96922978988059L111.5968,36.96922978988059L112.15791999999999,38.33845925331116L112.71903999999999,38.33845925331116L113.28016,39.7076887167417L113.84128,41.076926341423636L114.4024,42.44615580485418L114.96352,42.44615580485418L115.52464,45.18461473171529L116.08576000000001,45.18461473171529L116.64688000000001,45.18461473171529L117.20800000000001,46.553844195145835L117.76911999999999,46.553844195145835L118.33023999999999,46.553844195145835L118.89135999999999,46.553844195145835L119.45248,47.923073658576385L120.0136,47.923073658576385L120.57472,47.923073658576385L121.13584,47.923073658576385L121.69696,47.923073658576385L122.25808,46.553844195145835L122.8192,46.553844195145835L123.38032,46.553844195145835L123.94144,45.18461473171529L124.50256,45.18461473171529L125.06368,45.18461473171529L125.62480000000001,45.18461473171529L126.18592,45.18461473171529L126.74704,46.553844195145835L127.30816,47.923073658576385L127.86928,47.923073658576385L128.4304,47.923073658576385L128.99152,46.553844195145835L129.55264,46.553844195145835L130.11375999999998,45.18461473171529L130.67488,43.81538526828473L131.236,43.81538526828473L131.79712,43.81538526828473L132.35824,43.81538526828473L132.91936,43.81538526828473L133.48048,43.81538526828473L134.0416,45.18461473171529L134.60272,45.18461473171529L135.16384,46.553844195145835L135.72496,46.553844195145835L136.28608,46.553844195145835L136.84720000000002,46.553844195145835L137.40832,46.553844195145835L137.96944,45.18461473171529L138.53056,43.81538526828473L139.09168,41.076926341423636L139.65279999999998,39.7076887167417L140.21392,41.076926341423636L140.77504,39.7076887167417L141.33616,41.076926341423636L141.89728,41.076926341423636L142.4584,41.076926341423636L143.01952,41.076926341423636L143.58064000000002,39.7076887167417L144.14176,39.7076887167417L144.70288000000002,41.076926341423636L145.264,41.076926341423636L145.82512000000003,42.44615580485418L146.38624000000002,43.81538526828473L146.94735999999997,43.81538526828473L147.50848,43.81538526828473L148.06959999999998,45.18461473171529L148.63072,46.553844195145835L149.19183999999998,47.923073658576385L149.75296,47.923073658576385L150.31408,49.2923112832583L150.8752,49.2923112832583L151.43632,50.66154074668884L151.99744,50.66154074668884L152.55856,52.03077021011941L153.11968000000002,52.03077021011941L153.6808,53.39999967354996L154.24192,50.66154074668884L154.80304,50.66154074668884L155.36416,50.66154074668884L155.92528000000001,50.66154074668884L156.4864,50.66154074668884L157.04752000000002,50.66154074668884L157.60864,50.66154074668884L158.16976,50.66154074668884L158.73087999999998,50.66154074668884L159.292,50.66154074668884L159.85312,52.03077021011941L160.41424,52.03077021011941L160.97536,52.03077021011941L161.53647999999998,52.03077021011941L162.0976,52.03077021011941L162.65872,52.03077021011941L163.21984,52.03077021011941L163.78096,52.03077021011941L164.34208,52.03077021011941L164.9032,53.39999967354996L165.46432000000001,52.03077021011941L166.02544,52.03077021011941L166.58656000000002,52.03077021011941L167.14768,52.03077021011941L167.70880000000002,52.03077021011941L168.26992,50.66154074668884L168.83103999999997,49.2923112832583L169.39216,50.66154074668884L169.95327999999998,49.2923112832583L170.5144,50.66154074668884L171.07551999999998,50.66154074668884L171.63664,49.2923112832583L172.19776,49.2923112832583L172.75888,49.2923112832583L173.32,49.2923112832583L173.88112,47.923073658576385L174.44224,45.18461473171529L175.00336000000001,45.18461473171529L175.56448,45.18461473171529L176.12560000000002,46.553844195145835L176.68672,45.18461473171529L177.24784,45.18461473171529L177.80896,43.81538526828473L178.37008,43.81538526828473L178.93120000000002,43.81538526828473L179.49231999999998,43.81538526828473L180.05344,42.44615580485418L180.61455999999998,42.44615580485418L181.17568,42.44615580485418L181.7368,42.44615580485418L182.29792,43.81538526828473L182.85904,43.81538526828473L183.42016,43.81538526828473L183.98128,43.81538526828473L184.5424,43.81538526828473L185.10352,42.44615580485418L185.66464,41.076926341423636L186.22576,41.076926341423636L186.78688,41.076926341423636L187.348,41.076926341423636L187.90912,41.076926341423636L188.47024000000002,41.076926341423636L189.03136,39.7076887167417L189.59248000000002,41.076926341423636L190.15359999999998,41.076926341423636L190.71472,39.7076887167417L191.27584,41.076926341423636L191.83695999999998,39.7076887167417L192.39808,38.33845925331116L192.95919999999998,38.33845925331116L193.52032,38.33845925331116L194.08144,39.7076887167417L194.64256,39.7076887167417L195.20368,38.33845925331116L195.7648,36.96922978988059L196.32592,35.60000032645004L196.88704,35.60000032645004L197.44816,35.60000032645004L198.00928000000002,35.60000032645004L198.5704,36.96922978988059L199.13152000000002,36.96922978988059L199.69264,36.96922978988059L200.25376,36.96922978988059L200.81488,36.96922978988059L201.37599999999998,38.33845925331116L201.93712,38.33845925331116L202.49823999999998,36.96922978988059L203.05936,36.96922978988059L203.62048,36.96922978988059L204.1816,36.96922978988059L204.74272,36.96922978988059L205.30384,38.33845925331116L205.86496,38.33845925331116L206.42608,38.33845925331116L206.9872,38.33845925331116L207.54832,39.7076887167417L208.10944,39.7076887167417L208.67056,39.7076887167417L209.23168,39.7076887167417L209.7928,39.7076887167417L210.35392000000002,39.7076887167417L210.91504,39.7076887167417L211.47616000000002,39.7076887167417L212.03727999999998,41.076926341423636L212.5984,41.076926341423636L213.15952,43.81538526828473L213.72064,43.81538526828473L214.28176,42.44615580485418L214.84287999999998,43.81538526828473L215.404,43.81538526828473L215.96511999999998,43.81538526828473L216.52624,43.81538526828473L217.08736,43.81538526828473L217.64848,43.81538526828473L218.2096,43.81538526828473L218.77072,45.18461473171529L219.33184,45.18461473171529L219.89296000000002,43.81538526828473L220.45408,43.81538526828473L221.01520000000002,43.81538526828473L221.57632,42.44615580485418L222.13744000000003,42.44615580485418L222.69856,41.076926341423636L223.25967999999997,39.7076887167417L223.8208,38.33845925331116L224.38191999999998,38.33845925331116L224.94304,38.33845925331116L225.50415999999998,38.33845925331116L226.06528,36.96922978988059L226.6264,38.33845925331116L227.18752,38.33845925331116L227.74864,38.33845925331116L228.30976,36.96922978988059L228.87088,35.60000032645004L229.43200000000002,34.2307708630195L229.99312,34.2307708630195L230.55424000000002,34.2307708630195L231.11536,35.60000032645004L231.67648,34.2307708630195L232.23760000000001,34.2307708630195L232.79872,32.86154139958894L233.35984,32.86154139958894L233.92095999999998,34.2307708630195L234.48208,34.2307708630195L235.04319999999998,34.2307708630195L235.60432,32.86154139958894L236.16544,34.2307708630195L236.72656,34.2307708630195L237.28768,35.60000032645004L237.8488,35.60000032645004L238.40992,35.60000032645004L238.97104,35.60000032645004L239.53216,35.60000032645004L240.09328,35.60000032645004L240.6544,35.60000032645004L241.21552,35.60000032645004L241.77664000000001,35.60000032645004L242.33776,35.60000032645004L242.89888000000002,35.60000032645004L243.46,35.60000032645004L244.02112,34.2307708630195L244.58223999999998,34.2307708630195L245.14336,34.2307708630195L245.70448,34.2307708630195L246.26559999999998,34.2307708630195L246.82672,34.2307708630195L247.38783999999998,34.2307708630195L247.94896,32.86154139958894L248.51008,32.86154139958894L249.0712,32.86154139958894L249.63232,32.86154139958894L250.19344,32.86154139958894L250.75456,32.86154139958894L251.31568000000001,32.86154139958894L251.8768,32.86154139958894L252.43792000000002,32.86154139958894L252.99904,31.492303774907022L253.56016000000002,30.123074311476476L254.12128,30.123074311476476L254.68240000000003,30.123074311476476L255.24352,30.123074311476476L255.80463999999998,30.123074311476476L256.36575999999997,30.123074311476476L256.92688,30.123074311476476L257.488,30.123074311476476L258.04912,30.123074311476476L258.61024,30.123074311476476L259.17136,30.123074311476476L259.73248,30.123074311476476L260.2936,30.123074311476476L260.85472,30.123074311476476L261.41584,31.492303774907022" style="fill: none;" fill="none"></path></g><g><path stroke="rgb(0, 153, 136)" stroke-width="2px" d="M33.60112,95.84615384615387L34.162240000000004,95.84615384615387L34.72336,95.84615384615387L35.284479999999995,102.06992821510022L35.8456,107.25641161661883L36.40672,107.25641161661883L36.96784,107.25641161661883L37.528960000000005,115.40659224070038L38.09008,118.66666530645813L38.651199999999996,121.51923076923077L39.21232,123.23076759851898L39.77344,114.51748103361865L40.33456,116.68227336039911L40.89568,120.49230867165787L41.4568,118.66666530645813L42.017920000000004,120.29670387964984L42.57904,120.29670387964984L43.140159999999995,121.81432529596182L43.70128,124.55583245020648L44.2624,121.51923076923077L44.82352,121.51923076923077L45.384640000000005,122.81584957929759L45.94576,120.00904833353485L46.506879999999995,121.27472375906433L47.068,121.06882762908936L47.62912,121.06882762908936L48.19024,118.66666530645813L48.75136,120.89305875851556L49.31248,120.89305875851556L49.8736,119.72808501353632L50.43472,120.74125948319067L50.99584,120.74125948319067L51.55696,119.65886127948761L52.11808,120.60883909922381L52.6792,121.51923076923077L53.240320000000004,121.51923076923077L53.80144000000001,119.59811708560358L54.362559999999995,119.54437932601343L54.92368,116.13105428218842L55.4848,114.51748103361865L56.04592,115.40659224070038L56.60704,115.40659224070038L57.16816,111.82051390867969L57.72928,111.30521249771118L58.2904,112.14651917494263L58.85152,112.14651917494263L59.412639999999996,112.14651917494263L59.97376,112.96153846153845L60.53488,114.51748103361865L61.096000000000004,113.21699379040643L61.657120000000006,111.49450456179108L62.218239999999994,111.05982815302337L62.77936,107.71282143776233L63.34048,104.62327363857855L63.9016,103.45299099958862L64.46272,104.19512215027441L65.02383999999999,104.19512215027441L65.58496,104.19512215027441L66.14608,102.36629997766937L66.7072,102.92838168144226L67.26832,102.92838168144226L67.82943999999999,100.99917203646442L68.39056,100.21603875893814L68.95168,100.125L69.5128,100.125L70.07392,100.78667753476364L70.63504,100.68686951123752L71.19616,100.68686951123752L71.75728,101.32307578050174L72.3184,101.32307578050174L72.87952,101.32307578050174L73.44064,102.69230932455798L74.00176,101.32307578050174L74.56287999999999,98.58461685364063L75.124,99.9538463170712L75.68512,97.21538330958441L76.24624,97.21538330958441L76.80736,95.84615384615387L77.36848,94.4769243827233L77.92960000000001,93.10769491929275L78.49072000000001,94.4769243827233L79.05184000000001,95.84615384615387L79.61295999999999,93.10769491929275L80.17407999999999,91.73846545586218L80.73519999999999,91.73846545586218L81.29632,90.3692278311803L81.85744,87.63076890431918L82.41856,87.63076890431918L82.97968,84.89230997745807L83.5408,84.89230997745807L84.10192,86.26153944088864L84.66304000000001,86.26153944088864L85.22416,86.26153944088864L85.78528,84.89230997745807L86.3464,82.15384288934561L86.90752,82.15384288934561L87.46864,82.15384288934561L88.02976,82.15384288934561L88.59088,82.15384288934561L89.152,83.52308051402753L89.71312,80.78461342591507L90.27423999999999,80.78461342591507L90.83536,79.41538396248453L91.39648,80.78461342591507L91.9576,75.30769557219287L92.51872,75.30769557219287L93.07984,73.93845794751095L93.64096,73.93845794751095L94.20208000000001,73.93845794751095L94.76320000000001,73.93845794751095L95.32432,73.93845794751095L95.88543999999999,71.19999902064984L96.44655999999999,69.8307695572193L97.00768,68.46154009378876L97.5688,68.46154009378876L98.12992,65.72307300567627L98.69104,62.98461407881518L99.25216,60.24615515195407L99.81328,60.24615515195407L100.37440000000001,58.87692568852352L100.93552000000001,57.50769622509298L101.49664,56.13845860041106L102.05776,52.03077021011941L102.61887999999999,49.2923112832583L103.17999999999999,47.923073658576385L103.74112,47.923073658576385L104.30224,46.553844195145835L104.86336,46.553844195145835L105.42448,43.81538526828473L105.9856,42.44615580485418L106.54672,42.44615580485418L107.10784,42.44615580485418L107.66896,42.44615580485418L108.23008,43.81538526828473L108.7912,42.44615580485418L109.35232,42.44615580485418L109.91344000000001,42.44615580485418L110.47456,41.076926341423636L111.03568,43.81538526828473L111.5968,42.44615580485418L112.15791999999999,42.44615580485418L112.71903999999999,43.81538526828473L113.28016,43.81538526828473L113.84128,43.81538526828473L114.4024,45.18461473171529L114.96352,46.553844195145835L115.52464,46.553844195145835L116.08576000000001,46.553844195145835L116.64688000000001,45.18461473171529L117.20800000000001,45.18461473171529L117.76911999999999,45.18461473171529L118.33023999999999,45.18461473171529L118.89135999999999,45.18461473171529L119.45248,46.553844195145835L120.0136,45.18461473171529L120.57472,45.18461473171529L121.13584,46.553844195145835L121.69696,46.553844195145835L122.25808,46.553844195145835L122.8192,45.18461473171529L123.38032,45.18461473171529L123.94144,45.18461473171529L124.50256,45.18461473171529L125.06368,45.18461473171529L125.62480000000001,46.553844195145835L126.18592,47.923073658576385L126.74704,47.923073658576385L127.30816,47.923073658576385L127.86928,49.2923112832583L128.4304,49.2923112832583L128.99152,49.2923112832583L129.55264,50.66154074668884L130.11375999999998,50.66154074668884L130.67488,50.66154074668884L131.236,49.2923112832583L131.79712,47.923073658576385L132.35824,46.553844195145835L132.91936,46.553844195145835L133.48048,45.18461473171529L134.0416,43.81538526828473L134.60272,41.076926341423636L135.16384,38.33845925331116L135.72496,38.33845925331116L136.28608,38.33845925331116L136.84720000000002,36.96922978988059L137.40832,36.96922978988059L137.96944,35.60000032645004L138.53056,35.60000032645004L139.09168,34.2307708630195L139.65279999999998,34.2307708630195L140.21392,35.60000032645004L140.77504,35.60000032645004L141.33616,35.60000032645004L141.89728,35.60000032645004L142.4584,35.60000032645004L143.01952,35.60000032645004L143.58064000000002,35.60000032645004L144.14176,35.60000032645004L144.70288000000002,32.86154139958894L145.264,32.86154139958894L145.82512000000003,34.2307708630195L146.38624000000002,34.2307708630195L146.94735999999997,34.2307708630195L147.50848,31.492303774907022L148.06959999999998,31.492303774907022L148.63072,31.492303774907022L149.19183999999998,32.86154139958894L149.75296,32.86154139958894L150.31408,32.86154139958894L150.8752,32.86154139958894L151.43632,32.86154139958894L151.99744,32.86154139958894L152.55856,32.86154139958894L153.11968000000002,32.86154139958894L153.6808,32.86154139958894L154.24192,34.2307708630195L154.80304,34.2307708630195L155.36416,34.2307708630195L155.92528000000001,34.2307708630195L156.4864,34.2307708630195L157.04752000000002,34.2307708630195L157.60864,34.2307708630195L158.16976,34.2307708630195L158.73087999999998,34.2307708630195L159.292,34.2307708630195L159.85312,34.2307708630195L160.41424,34.2307708630195L160.97536,34.2307708630195L161.53647999999998,34.2307708630195L162.0976,34.2307708630195L162.65872,34.2307708630195L163.21984,32.86154139958894L163.78096,31.492303774907022L164.34208,31.492303774907022L164.9032,31.492303774907022L165.46432000000001,30.123074311476476L166.02544,30.123074311476476L166.58656000000002,31.492303774907022L167.14768,31.492303774907022L167.70880000000002,31.492303774907022L168.26992,31.492303774907022L168.83103999999997,32.86154139958894L169.39216,32.86154139958894L169.95327999999998,32.86154139958894L170.5144,32.86154139958894L171.07551999999998,32.86154139958894L171.63664,32.86154139958894L172.19776,31.492303774907022L172.75888,32.86154139958894L173.32,32.86154139958894L173.88112,32.86154139958894L174.44224,31.492303774907022L175.00336000000001,31.492303774907022L175.56448,31.492303774907022L176.12560000000002,31.492303774907022L176.68672,31.492303774907022L177.24784,31.492303774907022L177.80896,31.492303774907022L178.37008,31.492303774907022L178.93120000000002,31.492303774907022L179.49231999999998,31.492303774907022L180.05344,31.492303774907022L180.61455999999998,31.492303774907022L181.17568,31.492303774907022L181.7368,31.492303774907022L182.29792,30.123074311476476L182.85904,30.123074311476476L183.42016,32.86154139958894L183.98128,31.492303774907022L184.5424,31.492303774907022L185.10352,31.492303774907022L185.66464,31.492303774907022L186.22576,30.123074311476476L186.78688,30.123074311476476L187.348,30.123074311476476L187.90912,30.123074311476476L188.47024000000002,30.123074311476476L189.03136,30.123074311476476L189.59248000000002,30.123074311476476L190.15359999999998,30.123074311476476L190.71472,30.123074311476476L191.27584,30.123074311476476L191.83695999999998,31.492303774907022L192.39808,31.492303774907022L192.95919999999998,32.86154139958894L193.52032,32.86154139958894L194.08144,32.86154139958894L194.64256,32.86154139958894L195.20368,32.86154139958894L195.7648,32.86154139958894L196.32592,32.86154139958894L196.88704,32.86154139958894L197.44816,34.2307708630195L198.00928000000002,34.2307708630195L198.5704,34.2307708630195L199.13152000000002,31.492303774907022L199.69264,31.492303774907022L200.25376,31.492303774907022L200.81488,31.492303774907022L201.37599999999998,31.492303774907022L201.93712,32.86154139958894L202.49823999999998,32.86154139958894L203.05936,32.86154139958894L203.62048,32.86154139958894L204.1816,32.86154139958894L204.74272,32.86154139958894L205.30384,32.86154139958894L205.86496,32.86154139958894L206.42608,32.86154139958894L206.9872,32.86154139958894L207.54832,32.86154139958894L208.10944,31.492303774907022L208.67056,30.123074311476476L209.23168,30.123074311476476L209.7928,30.123074311476476L210.35392000000002,30.123074311476476L210.91504,30.123074311476476L211.47616000000002,30.123074311476476L212.03727999999998,30.123074311476476L212.5984,30.123074311476476L213.15952,30.123074311476476L213.72064,28.753844848045933L214.28176,28.753844848045933L214.84287999999998,28.753844848045933L215.404,28.753844848045933L215.96511999999998,30.123074311476476L216.52624,30.123074311476476L217.08736,30.123074311476476L217.64848,30.123074311476476L218.2096,28.753844848045933L218.77072,28.753844848045933L219.33184,28.753844848045933L219.89296000000002,28.753844848045933L220.45408,28.753844848045933L221.01520000000002,28.753844848045933L221.57632,28.753844848045933L222.13744000000003,28.753844848045933L222.69856,28.753844848045933L223.25967999999997,28.753844848045933L223.8208,28.753844848045933L224.38191999999998,28.753844848045933L224.94304,30.123074311476476L225.50415999999998,30.123074311476476L226.06528,31.492303774907022L226.6264,31.492303774907022L227.18752,31.492303774907022L227.74864,31.492303774907022L228.30976,31.492303774907022L228.87088,31.492303774907022L229.43200000000002,31.492303774907022L229.99312,31.492303774907022L230.55424000000002,31.492303774907022L231.11536,31.492303774907022L231.67648,31.492303774907022L232.23760000000001,31.492303774907022L232.79872,31.492303774907022L233.35984,31.492303774907022L233.92095999999998,31.492303774907022L234.48208,31.492303774907022L235.04319999999998,31.492303774907022L235.60432,32.86154139958894" style="fill: none;" fill="none"></path></g></g></g></g></g></g><g transform="translate(50, 178)" clip-path="url(#clip_1)"><clipPath id="clip_1"><rect width="280" height="22"></rect></clipPath><g><g><line x1="0" y1="0" x2="0" y2="5" style="visibility: inherit;" fill="rgb(0, 0, 0)" stroke="rgb(204, 204, 204)" stroke-width="1px"></line><line x1="28" y1="0" x2="28" y2="5" style="visibility: inherit;" fill="rgb(0, 0, 0)" stroke="rgb(204, 204, 204)" stroke-width="1px"></line><line x1="56" y1="0" x2="56" y2="5" style="visibility: inherit;" fill="rgb(0, 0, 0)" stroke="rgb(204, 204, 204)" stroke-width="1px"></line><line x1="84" y1="0" x2="84" y2="5" style="visibility: inherit;" fill="rgb(0, 0, 0)" stroke="rgb(204, 204, 204)" stroke-width="1px"></line><line x1="112" y1="0" x2="112" y2="5" style="visibility: inherit;" fill="rgb(0, 0, 0)" stroke="rgb(204, 204, 204)" stroke-width="1px"></line><line x1="140" y1="0" x2="140" y2="5" style="visibility: inherit;" fill="rgb(0, 0, 0)" stroke="rgb(204, 204, 204)" stroke-width="1px"></line><line x1="168" y1="0" x2="168" y2="5" style="visibility: inherit;" fill="rgb(0, 0, 0)" stroke="rgb(204, 204, 204)" stroke-width="1px"></line><line x1="196" y1="0" x2="196" y2="5" style="visibility: inherit;" fill="rgb(0, 0, 0)" stroke="rgb(204, 204, 204)" stroke-width="1px"></line><line x1="224" y1="0" x2="224" y2="5" style="visibility: inherit;" fill="rgb(0, 0, 0)" stroke="rgb(204, 204, 204)" stroke-width="1px"></line><line x1="252" y1="0" x2="252" y2="5" style="visibility: inherit;" fill="rgb(0, 0, 0)" stroke="rgb(204, 204, 204)" stroke-width="1px"></line><line x1="280" y1="0" x2="280" y2="5" style="visibility: inherit;" fill="rgb(0, 0, 0)" stroke="rgb(204, 204, 204)" stroke-width="1px"></line></g><g transform="translate(0, 8)"><text x="0" y="0" dx="0em" dy="0.95em" style="text-anchor: middle; visibility: hidden; font-family: Roboto, sans-serif; font-size: 12px; font-weight: 200;" fill="rgb(50, 49, 63)" stroke="none" stroke-width="1px">-50k</text><text x="28" y="0" dx="0em" dy="0.95em" style="text-anchor: middle; visibility: inherit; font-family: Roboto, sans-serif; font-size: 12px; font-weight: 200;" fill="rgb(50, 49, 63)" stroke="none" stroke-width="1px">0</text><text x="56" y="0" dx="0em" dy="0.95em" style="text-anchor: middle; visibility: hidden; font-family: Roboto, sans-serif; font-size: 12px; font-weight: 200;" fill="rgb(50, 49, 63)" stroke="none" stroke-width="1px">50k</text><text x="84" y="0" dx="0em" dy="0.95em" style="text-anchor: middle; visibility: inherit; font-family: Roboto, sans-serif; font-size: 12px; font-weight: 200;" fill="rgb(50, 49, 63)" stroke="none" stroke-width="1px">100k</text><text x="112" y="0" dx="0em" dy="0.95em" style="text-anchor: middle; visibility: hidden; font-family: Roboto, sans-serif; font-size: 12px; font-weight: 200;" fill="rgb(50, 49, 63)" stroke="none" stroke-width="1px">150k</text><text x="140" y="0" dx="0em" dy="0.95em" style="text-anchor: middle; visibility: inherit; font-family: Roboto, sans-serif; font-size: 12px; font-weight: 200;" fill="rgb(50, 49, 63)" stroke="none" stroke-width="1px">200k</text><text x="168" y="0" dx="0em" dy="0.95em" style="text-anchor: middle; visibility: hidden; font-family: Roboto, sans-serif; font-size: 12px; font-weight: 200;" fill="rgb(50, 49, 63)" stroke="none" stroke-width="1px">250k</text><text x="196" y="0" dx="0em" dy="0.95em" style="text-anchor: middle; visibility: inherit; font-family: Roboto, sans-serif; font-size: 12px; font-weight: 200;" fill="rgb(50, 49, 63)" stroke="none" stroke-width="1px">300k</text><text x="224" y="0" dx="0em" dy="0.95em" style="text-anchor: middle; visibility: hidden; font-family: Roboto, sans-serif; font-size: 12px; font-weight: 200;" fill="rgb(50, 49, 63)" stroke="none" stroke-width="1px">350k</text><text x="252" y="0" dx="0em" dy="0.95em" style="text-anchor: middle; visibility: inherit; font-family: Roboto, sans-serif; font-size: 12px; font-weight: 200;" fill="rgb(50, 49, 63)" stroke="none" stroke-width="1px">400k</text><text x="280" y="0" dx="0em" dy="0.95em" style="text-anchor: middle; visibility: hidden; font-family: Roboto, sans-serif; font-size: 12px; font-weight: 200;" fill="rgb(50, 49, 63)" stroke="none" stroke-width="1px">450k</text></g><line x1="0" y1="0" x2="280" y2="0" fill="rgb(0, 0, 0)" stroke="rgb(204, 204, 204)" stroke-width="1px"></line></g></g></g></g></svg>