<svg viewBox="0 0 330 200" xmlns="http://www.w3.org/2000/svg"><g><g><g><g><g><line x1="41.171875" y1="178" x2="36.171875" y2="178" style="visibility: inherit;" fill="rgb(0, 0, 0)" stroke="rgb(204, 204, 204)" stroke-width="1px"></line><line x1="41.171875" y1="166.13333333333333" x2="36.171875" y2="166.13333333333333" style="visibility: inherit;" fill="rgb(0, 0, 0)" stroke="rgb(204, 204, 204)" stroke-width="1px"></line><line x1="41.171875" y1="154.26666666666668" x2="36.171875" y2="154.26666666666668" style="visibility: inherit;" fill="rgb(0, 0, 0)" stroke="rgb(204, 204, 204)" stroke-width="1px"></line><line x1="41.171875" y1="142.4" x2="36.171875" y2="142.4" style="visibility: inherit;" fill="rgb(0, 0, 0)" stroke="rgb(204, 204, 204)" stroke-width="1px"></line><line x1="41.171875" y1="130.53333333333333" x2="36.171875" y2="130.53333333333333" style="visibility: inherit;" fill="rgb(0, 0, 0)" stroke="rgb(204, 204, 204)" stroke-width="1px"></line><line x1="41.171875" y1="118.66666666666669" x2="36.171875" y2="118.66666666666669" style="visibility: inherit;" fill="rgb(0, 0, 0)" stroke="rgb(204, 204, 204)" stroke-width="1px"></line><line x1="41.171875" y1="106.8" x2="36.171875" y2="106.8" style="visibility: inherit;" fill="rgb(0, 0, 0)" stroke="rgb(204, 204, 204)" stroke-width="1px"></line><line x1="41.171875" y1="94.93333333333334" x2="36.171875" y2="94.93333333333334" style="visibility: inherit;" fill="rgb(0, 0, 0)" stroke="rgb(204, 204, 204)" stroke-width="1px"></line><line x1="41.171875" y1="83.06666666666666" x2="36.171875" y2="83.06666666666666" style="visibility: inherit;" fill="rgb(0, 0, 0)" stroke="rgb(204, 204, 204)" stroke-width="1px"></line><line x1="41.171875" y1="71.2" x2="36.171875" y2="71.2" style="visibility: inherit;" fill="rgb(0, 0, 0)" stroke="rgb(204, 204, 204)" stroke-width="1px"></line><line x1="41.171875" y1="59.33333333333334" x2="36.171875" y2="59.33333333333334" style="visibility: inherit;" fill="rgb(0, 0, 0)" stroke="rgb(204, 204, 204)" stroke-width="1px"></line><line x1="41.171875" y1="47.466666666666676" x2="36.171875" y2="47.466666666666676" style="visibility: inherit;" fill="rgb(0, 0, 0)" stroke="rgb(204, 204, 204)" stroke-width="1px"></line><line x1="41.171875" y1="35.599999999999994" x2="36.171875" y2="35.599999999999994" style="visibility: inherit;" fill="rgb(0, 0, 0)" stroke="rgb(204, 204, 204)" stroke-width="1px"></line><line x1="41.171875" y1="23.733333333333327" x2="36.171875" y2="23.733333333333327" style="visibility: inherit;" fill="rgb(0, 0, 0)" stroke="rgb(204, 204, 204)" stroke-width="1px"></line><line x1="41.171875" y1="11.866666666666664" x2="36.171875" y2="11.866666666666664" style="visibility: inherit;" fill="rgb(0, 0, 0)" stroke="rgb(204, 204, 204)" stroke-width="1px"></line><line x1="41.171875" y1="0" x2="36.171875" y2="0" style="visibility: inherit;" fill="rgb(0, 0, 0)" stroke="rgb(204, 204, 204)" stroke-width="1px"></line></g><g transform="translate(31.171875, 0)"><text x="0" y="178" dx="0em" dy="0.3em" style="text-anchor: end; visibility: hidden; font-family: Roboto, sans-serif; font-size: 12px; font-weight: 200;" fill="rgb(50, 49, 63)" stroke="none" stroke-width="1px">-28</text><text x="0" y="166.13333333333333" dx="0em" dy="0.3em" style="text-anchor: end; visibility: inherit; font-family: Roboto, sans-serif; font-size: 12px; font-weight: 200;" fill="rgb(50, 49, 63)" stroke="none" stroke-width="1px">-26</text><text x="0" y="154.26666666666668" dx="0em" dy="0.3em" style="text-anchor: end; visibility: hidden; font-family: Roboto, sans-serif; font-size: 12px; font-weight: 200;" fill="rgb(50, 49, 63)" stroke="none" stroke-width="1px">-24</text><text x="0" y="142.4" dx="0em" dy="0.3em" style="text-anchor: end; visibility: inherit; font-family: Roboto, sans-serif; font-size: 12px; font-weight: 200;" fill="rgb(50, 49, 63)" stroke="none" stroke-width="1px">-22</text><text x="0" y="130.53333333333333" dx="0em" dy="0.3em" style="text-anchor: end; visibility: hidden; font-family: Roboto, sans-serif; font-size: 12px; font-weight: 200;" fill="rgb(50, 49, 63)" stroke="none" stroke-width="1px">-20</text><text x="0" y="118.66666666666669" dx="0em" dy="0.3em" style="text-anchor: end; visibility: inherit; font-family: Roboto, sans-serif; font-size: 12px; font-weight: 200;" fill="rgb(50, 49, 63)" stroke="none" stroke-width="1px">-18</text><text x="0" y="106.8" dx="0em" dy="0.3em" style="text-anchor: end; visibility: hidden; font-family: Roboto, sans-serif; font-size: 12px; font-weight: 200;" fill="rgb(50, 49, 63)" stroke="none" stroke-width="1px">-16</text><text x="0" y="94.93333333333334" dx="0em" dy="0.3em" style="text-anchor: end; visibility: inherit; font-family: Roboto, sans-serif; font-size: 12px; font-weight: 200;" fill="rgb(50, 49, 63)" stroke="none" stroke-width="1px">-14</text><text x="0" y="83.06666666666666" dx="0em" dy="0.3em" style="text-anchor: end; visibility: hidden; font-family: Roboto, sans-serif; font-size: 12px; font-weight: 200;" fill="rgb(50, 49, 63)" stroke="none" stroke-width="1px">-12</text><text x="0" y="71.2" dx="0em" dy="0.3em" style="text-anchor: end; visibility: inherit; font-family: Roboto, sans-serif; font-size: 12px; font-weight: 200;" fill="rgb(50, 49, 63)" stroke="none" stroke-width="1px">-10</text><text x="0" y="59.33333333333334" dx="0em" dy="0.3em" style="text-anchor: end; visibility: hidden; font-family: Roboto, sans-serif; font-size: 12px; font-weight: 200;" fill="rgb(50, 49, 63)" stroke="none" stroke-width="1px">-8</text><text x="0" y="47.466666666666676" dx="0em" dy="0.3em" style="text-anchor: end; visibility: inherit; font-family: Roboto, sans-serif; font-size: 12px; font-weight: 200;" fill="rgb(50, 49, 63)" stroke="none" stroke-width="1px">-6</text><text x="0" y="35.599999999999994" dx="0em" dy="0.3em" style="text-anchor: end; visibility: hidden; font-family: Roboto, sans-serif; font-size: 12px; font-weight: 200;" fill="rgb(50, 49, 63)" stroke="none" stroke-width="1px">-4</text><text x="0" y="23.733333333333327" dx="0em" dy="0.3em" style="text-anchor: end; visibility: inherit; font-family: Roboto, sans-serif; font-size: 12px; font-weight: 200;" fill="rgb(50, 49, 63)" stroke="none" stroke-width="1px">-2</text><text x="0" y="11.866666666666664" dx="0em" dy="0.3em" style="text-anchor: end; visibility: hidden; font-family: Roboto, sans-serif; font-size: 12px; font-weight: 200;" fill="rgb(50, 49, 63)" stroke="none" stroke-width="1px">0</text><text x="0" y="0" dx="0em" dy="0.3em" style="text-anchor: end; visibility: hidden; font-family: Roboto, sans-serif; font-size: 12px; font-weight: 200;" fill="rgb(50, 49, 63)" stroke="none" stroke-width="1px">2</text></g><line x1="41.171875" y1="0" x2="41.171875" y2="178" fill="rgb(0, 0, 0)" stroke="rgb(204, 204, 204)" stroke-width="1px"></line></g></g><g transform="translate(41, 0)" clip-path="url(#clip_0)"><clipPath id="clip_0"><rect width="288" height="178"></rect></clipPath><g><g><g><line x1="0" y1="0" x2="0" y2="178" fill="rgb(0, 0, 0)" stroke="rgb(60, 60, 60)" stroke-width="1px" opacity="0.25"></line><line x1="28.8828125" y1="0" x2="28.8828125" y2="178" fill="rgb(0, 0, 0)" stroke="rgb(60, 60, 60)" stroke-width="1px" opacity="0.25"></line><line x1="57.765625" y1="0" x2="57.765625" y2="178" fill="rgb(0, 0, 0)" stroke="rgb(60, 60, 60)" stroke-width="1px" opacity="0.25"></line><line x1="86.6484375" y1="0" x2="86.6484375" y2="178" fill="rgb(0, 0, 0)" stroke="rgb(60, 60, 60)" stroke-width="1px" opacity="0.25"></line><line x1="115.53125" y1="0" x2="115.53125" y2="178" fill="rgb(0, 0, 0)" stroke="rgb(60, 60, 60)" stroke-width="1px" opacity="0.25"></line><line x1="144.4140625" y1="0" x2="144.4140625" y2="178" fill="rgb(0, 0, 0)" stroke="rgb(60, 60, 60)" stroke-width="1px" opacity="0.25"></line><line x1="173.296875" y1="0" x2="173.296875" y2="178" fill="rgb(0, 0, 0)" stroke="rgb(60, 60, 60)" stroke-width="1px" opacity="0.25"></line><line x1="202.1796875" y1="0" x2="202.1796875" y2="178" fill="rgb(0, 0, 0)" stroke="rgb(60, 60, 60)" stroke-width="1px" opacity="0.25"></line><line x1="231.0625" y1="0" x2="231.0625" y2="178" fill="rgb(0, 0, 0)" stroke="rgb(60, 60, 60)" stroke-width="1px" opacity="0.25"></line><line x1="259.9453125" y1="0" x2="259.9453125" y2="178" fill="rgb(0, 0, 0)" stroke="rgb(60, 60, 60)" stroke-width="1px" opacity="0.25"></line><line x1="288.828125" y1="0" x2="288.828125" y2="178" fill="rgb(0, 0, 0)" stroke="rgb(60, 60, 60)" stroke-width="1px" opacity="0.25"></line></g><g><line x1="0" y1="178" x2="288.828125" y2="178" fill="rgb(0, 0, 0)" stroke="rgb(60, 60, 60)" stroke-width="1px" opacity="0.25"></line><line x1="0" y1="166.13333333333333" x2="288.828125" y2="166.13333333333333" fill="rgb(0, 0, 0)" stroke="rgb(60, 60, 60)" stroke-width="1px" opacity="0.25"></line><line x1="0" y1="154.26666666666668" x2="288.828125" y2="154.26666666666668" fill="rgb(0, 0, 0)" stroke="rgb(60, 60, 60)" stroke-width="1px" opacity="0.25"></line><line x1="0" y1="142.4" x2="288.828125" y2="142.4" fill="rgb(0, 0, 0)" stroke="rgb(60, 60, 60)" stroke-width="1px" opacity="0.25"></line><line x1="0" y1="130.53333333333333" x2="288.828125" y2="130.53333333333333" fill="rgb(0, 0, 0)" stroke="rgb(60, 60, 60)" stroke-width="1px" opacity="0.25"></line><line x1="0" y1="118.66666666666669" x2="288.828125" y2="118.66666666666669" fill="rgb(0, 0, 0)" stroke="rgb(60, 60, 60)" stroke-width="1px" opacity="0.25"></line><line x1="0" y1="106.8" x2="288.828125" y2="106.8" fill="rgb(0, 0, 0)" stroke="rgb(60, 60, 60)" stroke-width="1px" opacity="0.25"></line><line x1="0" y1="94.93333333333334" x2="288.828125" y2="94.93333333333334" fill="rgb(0, 0, 0)" stroke="rgb(60, 60, 60)" stroke-width="1px" opacity="0.25"></line><line x1="0" y1="83.06666666666666" x2="288.828125" y2="83.06666666666666" fill="rgb(0, 0, 0)" stroke="rgb(60, 60, 60)" stroke-width="1px" opacity="0.25"></line><line x1="0" y1="71.2" x2="288.828125" y2="71.2" fill="rgb(0, 0, 0)" stroke="rgb(60, 60, 60)" stroke-width="1px" opacity="0.25"></line><line x1="0" y1="59.33333333333334" x2="288.828125" y2="59.33333333333334" fill="rgb(0, 0, 0)" stroke="rgb(60, 60, 60)" stroke-width="1px" opacity="0.25"></line><line x1="0" y1="47.466666666666676" x2="288.828125" y2="47.466666666666676" fill="rgb(0, 0, 0)" stroke="rgb(60, 60, 60)" stroke-width="1px" opacity="0.25"></line><line x1="0" y1="35.599999999999994" x2="288.828125" y2="35.599999999999994" fill="rgb(0, 0, 0)" stroke="rgb(60, 60, 60)" stroke-width="1px" opacity="0.25"></line><line x1="0" y1="23.733333333333327" x2="288.828125" y2="23.733333333333327" fill="rgb(0, 0, 0)" stroke="rgb(60, 60, 60)" stroke-width="1px" opacity="0.25"></line><line x1="0" y1="11.866666666666664" x2="288.828125" y2="11.866666666666664" fill="rgb(0, 0, 0)" stroke="rgb(60, 60, 60)" stroke-width="1px" opacity="0.25"></line><line x1="0" y1="0" x2="288.828125" y2="0" fill="rgb(0, 0, 0)" stroke="rgb(60, 60, 60)" stroke-width="1px" opacity="0.25"></line></g></g></g><g><g><line x1="0" y1="11.866666666666664" x2="288.828125" y2="11.866666666666664" fill="rgb(0, 0, 0)" stroke="rgb(153, 153, 153)" stroke-width="1.5px"></line></g></g><g><g><line x1="28.8828125" y1="0" x2="28.8828125" y2="178" fill="rgb(0, 0, 0)" stroke="rgb(153, 153, 153)" stroke-width="1.5px"></line></g></g><g><g><g><g><g><path stroke="rgb(0, 119, 187)" stroke-width="2px" d="M34.6605303125,144.24707094828287L35.239341875,140.2863416671753L35.8181534375,139.28112933100485L36.396964999999994,138.2085492400562L36.9757765625,137.22523722978426L37.554588125,134.05811510477022L38.1333996875,129.36961512919055L38.71221125,127.38321438710014L39.291022812499996,126.10373522572495L39.869834374999996,126.88063360777414L40.448645937500004,127.68323191928893L41.027457500000004,127.53520979444438L41.606269062500004,127.57506862109567L42.185080625,125.94256889490156L42.7638921875,126.7939048791735L43.34270375,128.7301162861839L43.921515312500006,129.71989064810342L44.500326875,128.89692262629927L45.0791384375,127.9955344601744L45.65795,127.3895578386731L46.2367615625,127.02598604558123L46.815573125,126.80784807421347L47.39438468749999,127.79976988034555L47.97319625,129.1564064424062L48.5520078125,129.65434210726104L49.130819375,129.51280064058852L49.7096309375,129.16265647658614L50.288442499999995,129.4573375158068L50.867254062499995,129.18868412843318L51.446065625,128.90826595705897L52.0248771875,128.367737670262L52.60368875,128.04342074407052L53.1825003125,126.88155399822L53.761311875,126.1844339862178L54.3401234375,125.7661619917994L54.918935000000005,126.67876082347045L55.497746562500005,127.12856442940175L56.076558125,127.39844659117897L56.6553696875,127.56037588760395L57.23418125,128.2318045536422L57.8129928125,127.11456648576514L58.391804375,126.44843807229088L58.9706159375,126.04876102441143L59.5494275,125.62444801065085L60.1282390625,125.3698602024415L60.707050625,125.6956871277515L61.285862187499994,125.89118328292449L61.86467375,126.00848097602358L62.4434853125,125.88199018676804L63.022296875,125.80609571321583L63.6011084375,125.63261428624571L64.17992,125.45314106116747L64.7587315625,126.10595064622312L65.337543125,126.49763639725575L65.9163546875,126.68645664507555L66.49516625,124.8995222007491L67.07397781249999,123.82736153415365L67.652789375,123.01951689607803L68.2316009375,122.56723086925486L68.8104125,121.70376625592787L69.3892240625,120.5468510214603L69.968035625,119.45578074837422L70.54684718749999,117.8974632000011L71.12565875,116.9624726709772L71.7044703125,116.65909706694178L72.283281875,116.47692232097563L72.8620934375,116.56483091333735L73.440905,116.59276934674912L74.01971656250001,116.78873381263931L74.598528125,116.90631249217347L75.17733968750001,116.76296057066214L75.75615125,117.23798874474103L76.33496281250001,117.21120144996962L76.91377437499999,115.4770598694121L77.4925859375,112.91276770061862L78.0713975,111.31788838322923L78.6502090625,110.43348876724221L79.229020625,109.58713819239286L79.8078321875,109.18300455443313L80.38664375,109.0274655948018L80.96545531250001,108.93414221902302L81.544266875,109.32336547871196L82.1230784375,109.8554447124388L82.70188999999999,110.75263002733307L83.2807015625,111.29094121626963L83.85951312499999,111.63732682489524L84.4383246875,112.26134527299705L85.01713625000001,112.3839092654421L85.5959478125,112.24488393003347L86.17475937500001,112.14059124669198L86.7535709375,111.59840844878018L87.33238250000001,111.64637656137421L87.91119406249999,110.71157924289548L88.490005625,109.42968080175942L89.0688171875,108.13416844606216L89.64762875,106.60118626356014L90.2264403125,104.96556911388966L90.805251875,103.0981371175444L91.3840634375,102.1225709047633L91.96287500000001,101.8242965559195L92.5416865625,101.02677542805854L93.120498125,100.30424925748618L93.69930968749999,99.88356695968376L94.27812125,99.32523139793754L94.85693281249999,98.78461945501415L95.435744375,98.11822734622625L96.0145559375,97.71839208095354L96.5933675,97.35503221207308L97.1721790625,96.10676777593363L97.750990625,95.36550236681344L98.32980218750001,94.36895199381853L98.90861374999999,94.09974252400923L99.4874253125,93.93821684212364L100.066236875,93.3648561967862L100.6450484375,91.69657505433473L101.22386,90.90619868962395L101.8026715625,89.8732535155322L102.381483125,89.25348641107713L102.96029468750001,88.71447275179766L103.53910625,87.98111536799753L104.11791781250001,87.33267467835874L104.69672937499999,86.66653094938991L105.2755409375,86.26684471200863L105.85435249999999,85.83681792237932L106.4331640625,85.26287828496243L107.011975625,84.84052044835374L107.5907871875,84.58710574638854L108.16959875,84.71613338191517L108.7484103125,84.79354996323111L109.327221875,84.32046657665286L109.90603343749999,82.8229476706011L110.48484499999999,81.90908603603579L111.0636565625,81.3607690552966L111.642468125,80.38733599067307L112.2212796875,79.80327615189896L112.80009125,80.02459444988773L113.3789028125,80.51508885377052L113.95771437500001,80.8409755890771L114.5365259375,81.03650763026104L115.11533750000001,81.38576291555896L115.69414906249999,81.59531608673771L116.272960625,80.01781528782551L116.85177218749999,78.65552155489745L117.43058375,77.83814531514061L118.0093953125,75.62974769323476L118.588206875,74.28431600282238L119.1670184375,73.47705698857493L119.74583,72.69204456200075L120.3246415625,72.8941435157649L120.90345312500001,72.63084437565358L121.48226468749999,72.46314364423168L122.06107625,72.16324102967866L122.63988781249999,72.77173449410928L123.218699375,73.08074836858471L123.79751093750001,73.1168252062501L124.3763225,73.13847130884935L124.95513406250001,73.11918759793167L125.533945625,72.5273075671005L126.11275718750001,72.02978760625965L126.69156874999999,71.36315609748789L127.2703803125,70.55177490950999L127.849191875,69.59246641461876L128.4280034375,67.91695669610199L129.006815,66.8657742729916L129.5856265625,65.92592688984477L130.164438125,65.05540420723042L130.7432496875,64.14396683362375L131.32206125000002,63.517263431473076L131.9008728125,63.19688223389199L132.479684375,62.130051337405504L133.0584959375,61.892091039056254L133.6373075,61.51508598838329L134.21611906249998,61.35940104473083L134.794930625,60.97075839925875L135.3737421875,60.70066828621865L135.95255375,59.78233738835716L136.53136531250001,58.00576569137613L137.110176875,57.0561800060529L137.6889884375,56.0926445168967L138.2678,53.706597554050795L138.8466115625,52.36695003074183L139.425423125,51.15597026563747L140.0042346875,50.701613546711584L140.58304625,50.428999515356075L141.1618578125,49.05677109796688L141.740669375,47.31723534249595L142.3194809375,46.27351388921339L142.8982925,45.87916841500996L143.4771040625,45.59050209677617L144.05591562499998,45.69118232343436L144.6347271875,46.02172570316301L145.21353875,46.10250951501709L145.7923503125,46.15097980212956L146.371161875,46.18006197439705L146.9499734375,46.606771264634986L147.528785,47.603687163688214L148.1075965625,48.20092229475426L148.686408125,48.55842252510695L149.2652196875,48.53034302515531L149.84403125,49.194924209054776L150.42284281250002,49.91898614418694L151.00165437500002,49.90956065725598L151.58046593749998,49.945283475347246L152.15927749999997,50.095523127810885L152.7380890625,50.18283202701613L153.316900625,49.62316355896277L153.89571218749998,49.828267845664136L154.47452375,49.82605647155861L155.0533353125,49.61050572182272L155.632146875,49.32673305701534L156.2109584375,49.50501295585229L156.78977,49.45395121172345L157.3685815625,49.0653889282263L157.947393125,48.755669857485096L158.5262046875,49.00913241630177L159.10501625,49.71696200644204L159.6838278125,50.6005411132687L160.26263937500002,51.06858689533752L160.8414509375,52.40132915187129L161.4202625,52.92687041287571L161.9990740625,53.51229872579346L162.57788562500002,54.12556766117595L163.1566971875,54.415211303899575L163.73550874999998,54.56300135763677L164.3143203125,54.65167538987912L164.893131875,54.33204337835699L165.4719434375,53.99732109435631L166.05075499999998,53.850928972531754L166.6295665625,54.47457583648128L167.208378125,53.49523134173252L167.7871896875,52.537348104762835L168.36600125,51.675003912397905L168.9448128125,50.20341113548398L169.523624375,49.08420878812227L170.10243593750002,48.58977591374249L170.6812475,49.05191669570645L171.2600590625,48.33162577375116L171.838870625,48.14344321225689L172.41768218750002,48.27404243390524L172.99649375,48.348944643184126L173.5753053125,48.75107334159488L174.15411687499997,48.720623024121956L174.7329284375,49.49324477343721L175.31174,49.95681782302636L175.89055156249998,50.43104113581206L176.469363125,50.40901292865926L177.0481746875,50.234547784559645L177.62698625,49.86563297269707L178.2057978125,49.679873583463596L178.784609375,49.76353549346197L179.3634209375,50.22380178720675L179.9422325,50.500934819882644L180.5210440625,50.29031882395677L181.099855625,50.03644131726223L181.6786671875,50.30410325471281L182.25747875000002,49.59471554881564L182.8362903125,49.16908292527735L183.415101875,49.738509882424694L183.99391343750003,50.24751863137946L184.57272500000002,50.36745628787715L185.15153656249998,50.30519550327642L185.73034812499998,50.29617777000378L186.3091596875,50.48295245566274L186.88797125,50.8024646115202L187.46678281249999,49.647464535548195L188.04559437499998,49.057748499262665L188.6244059375,48.70978331332307L189.2032175,48.46527324218492L189.7820290625,48.31856719950204L190.360840625,48.31833583056549L190.9396521875,48.98193978671007L191.51846375,49.543964592240876L192.09727531250002,49.77708177861926L192.676086875,50.360837372327L193.2548984375,50.17920382669617L193.83371,49.70304007759323L194.41252156250002,48.73190335411209L194.991333125,48.15215240624574L195.5701446875,47.30592324916736L196.14895625,46.36347058564951L196.7277678125,45.46049968689996L197.30657937499998,44.766580192388986L197.88539093749998,44.331306579992315L198.4642025,44.11686890638976L199.0430140625,44.38727538893883L199.62182562499999,44.568480803431655L200.2006371875,44.70164636881842L200.77944875,44.22609694706417L201.3582603125,43.84393280609658L201.93707187500002,43.3637378676586L202.5158834375,42.359192135166296L203.094695,41.88597343895702L203.6735065625,41.89212243159933L204.25231812500002,41.88125259002241L204.8311296875,42.07418600988505L205.40994125,42.331733679803904L205.98875281250002,41.94663346451483L206.56756437500002,41.51420092170615L207.14637593749998,41.41753664087363L207.72518749999998,41.22389781358504L208.3039990625,41.18880375315345L208.882810625,41.35359402709961L209.46162218749998,41.50002987512207L210.04043375,42.29287420508219L210.6192453125,41.461176017902L211.198056875,40.84436365364893L211.77686843749999,39.77847144841495L212.35568,39.35746161762481L212.9344915625,38.969781307122744L213.513303125,38.507197153414275L214.09211468750001,38.36461582571962L214.67092625,38.280150059803525L215.2497378125,38.21820459124099L215.82854937500002,38.071132893701304L216.40736093750002,37.751740341587805L216.9861725,37.25535332513091L217.5649840625,37.03097821008507L218.14379562500002,36.73956832050091L218.7226071875,36.97472136949781L219.30141874999998,37.19331949314643L219.88023031249998,37.542774125900884L220.459041875,37.06416901248712L221.0378534375,36.43190109748456L221.61666499999998,35.49986536831943L222.1954765625,34.74536229172123L222.774288125,34.17946506459777L223.3530996875,33.96801066946545L223.93191125,33.963331508745114L224.5107228125,34.45309871044319L225.089534375,34.55341963454026L225.6683459375,34.60805217872425L226.24715750000001,34.29772825827418L226.8259690625,34.08753917410105L227.404780625,33.5422062678782L227.98359218750002,33.42294502359517L228.56240375000002,33.27189586064351L229.1412153125,33.28722399811626L229.72002687499997,33.42415229920951L230.2988384375,33.62512748029473L230.87765,34.2525596399306L231.45646156249998,34.48153607006064L232.035273125,35.06161610258733L232.6140846875,35.44090791686246L233.19289625,35.80263508723499L233.77170781249998,36.12640706399873L234.350519375,36.790017504492155L234.9293309375,36.902373438079415L235.5081425,37.08995926996029L236.0869540625,37.10079755039983L236.665765625,37.04177772711897L237.2445771875,36.60674334830752L237.82338875000002,36.32213256955172L238.4022003125,36.198736529747805L238.981011875,35.9778367741109L239.5598234375,36.23729518631304L240.13863500000002,36.29919131822908L240.7174465625,35.50514763649814L241.29625812499998,34.947592016398L241.8750696875,34.616209279103536L242.45388125,34.52323428786005L243.0326928125,34.39513464289629L243.61150437499998,33.882480051027095L244.1903159375,33.70627465043844L244.7691275,32.95203104214499L245.3479390625,32.54917584218559L245.926750625,31.898759528545412L246.5055621875,31.112867421635716L247.08437375,30.64378793243293L247.6631853125,30.6225658083184L248.241996875,30.21843859260617L248.8208084375,30.180683923792873L249.39962,30.17694737972738L249.97843156250002,29.975924051971766L250.557243125,31.055230550669542L251.1360546875,31.357211657784138L251.71486624999997,31.80428266153041L252.2936778125,32.259388234766135L252.872489375,32.413426278363765L253.45130093749998,32.820605892140335L254.0301125,32.93745780916928L254.6089240625,32.741120773148076L255.187735625,32.561702366029124L255.7665471875,32.602860532217164L256.34535875,32.79036312541145L256.9241703125,32.928943426852086L257.502981875,33.42991738286295L258.0817934375,33.696617154876456L258.66060500000003,33.83320983048286L259.2394165625,34.009178611811045L259.818228125,34.20236936877728L260.3970396875,34.16354001166759L260.97585125,34.282065663748995L261.5546628125,34.41073276321928L262.133474375,34.414736217583275L262.71228593750004,34.342264315083646L263.2910975,33.752015896992894L263.86990906249997,33.365623200152534L264.44872062499996,33.431472207038134L265.0275321875,33.57015927052211L265.60634375,34.141766296718785L266.1851553125,33.19176613662299L266.763966875,32.488336545071924L267.3427784375,31.82847263525443L267.92159,31.552568123999336L268.5004015625,31.997966204243742L269.079213125,32.69347918798003L269.6580246875,32.934195257640695L270.23683625,32.916348536064326L270.8156478125,33.13189319883791L271.394459375,33.482593395600766L271.9732709375,33.77765287217896L272.55208250000004,33.67089320773324L273.13089406250003,33.28199836385909L273.709705625,33.51804379446902L274.28851718749996,33.853718014301464L274.86732875,33.814130108202455L275.4461403125,33.61030115960734L276.024951875,33.923249723983L276.6037634375,34.152432621204156L277.182575,34.29532243054109L277.7613865625,34.70542174761096L278.340198125,34.94009027670583L278.9190096875,35.14965875103527L279.49782125,35.38898282182887L280.0766328125,35.96194970845782L280.655444375,35.94252751652162L281.2342559375,35.25423690786221L281.8130675,34.77484514739269L282.3918790625,34.46422822491022" style="fill: none;" fill="none"></path></g><g><path stroke="rgb(187, 187, 187)" stroke-width="2px" d="M34.6605303125,85.65895779927573L35.239341875,85.85886792341867L35.8181534375,88.35324061646755L36.396964999999994,88.3135387371568L36.9757765625,88.86220039065005L37.554588125,86.42138038230465L38.1333996875,84.26419551818755L38.71221125,82.27594291982581L39.291022812499996,81.10458174777311L39.869834374999996,81.77368762710806L40.448645937500004,80.99641449773407L41.027457500000004,80.53185930861032L41.606269062500004,79.14509538577809L42.185080625,78.76227789505434L42.7638921875,79.69226709806723L43.34270375,80.54987806905476L43.921515312500006,81.06428978288552L44.500326875,81.36216058916955L45.0791384375,81.54086371064254L45.65795,82.2488465049536L46.2367615625,82.2305337738297L46.815573125,81.3892209797359L47.39438468749999,81.25439618780294L47.97319625,81.17350199408777L48.5520078125,81.12510379017841L49.130819375,82.55408931903575L49.7096309375,83.16940505737283L50.288442499999995,83.81888759423722L50.867254062499995,84.20857686109593L51.446065625,84.22702447766945L52.0248771875,83.7603304541651L52.60368875,83.46746709379555L53.1825003125,83.29174909249096L53.761311875,83.4938198063362L54.3401234375,84.1977644453415L54.918935000000005,84.62013122099984L55.497746562500005,84.62062230661824L56.076558125,85.24550087856012L56.6553696875,85.23817816180399L57.23418125,85.71556230848715L57.8129928125,86.00199279608862L58.391804375,86.32055025646044L58.9706159375,86.51168473258542L59.5494275,86.73556705296895L60.1282390625,86.70936798242968L60.707050625,87.17987387176254L61.285862187499994,87.4621774053435L61.86467375,87.63155952548527L62.4434853125,87.73318879756793L63.022296875,88.30020311924359L63.6011084375,88.93933950257139L64.17992,89.41963318661097L64.7587315625,89.69641097987885L65.337543125,89.86247765583929L65.9163546875,90.20568074124954L66.49516625,89.97933414461943L67.07397781249999,89.84731283316648L67.652789375,89.76810004629473L68.2316009375,89.72057237417168L68.8104125,89.2260764363845L69.3892240625,89.05649521689254L69.968035625,88.95474648519735L70.54684718749999,87.55091119474798L71.12565875,86.9844784235952L71.7044703125,86.69074206209167L72.283281875,86.51450024518958L72.8620934375,86.937330721658L73.440905,87.82258642127606L74.01971656250001,88.46096553888218L74.598528125,88.5229768249569L75.17733968750001,88.51336090881692L75.75615125,87.92797641467493L76.33496281250001,87.63740901775027L76.91377437499999,86.90244118905186L77.4925859375,85.35884922982922L78.0713975,84.35713087782267L78.6502090625,82.59858562508225L79.229020625,81.13520456210176L79.8078321875,79.99844136112175L80.38664375,79.0324279555077L80.96545531250001,78.06548875064023L81.544266875,76.84736921880862L82.1230784375,76.00539461986752L82.70188999999999,74.36377454250972L83.2807015625,73.05518794327928L83.85951312499999,72.27003598374101L84.4383246875,72.12902585761927L85.01713625000001,71.89261893966109L85.5959478125,71.75077478888616L86.17475937500001,71.99388884387207L86.7535709375,72.2509620091227L87.33238250000001,72.20297227586751L87.91119406249999,70.94046500614549L88.490005625,69.70532486652094L89.0688171875,68.24070384630417L89.64762875,66.89411402938082L90.2264403125,65.64536551235504L90.805251875,63.685867505858674L91.3840634375,62.00186176633259L91.96287500000001,60.29348747453342L92.5416865625,59.00798892331868L93.120498125,58.02875695160676L93.69930968749999,57.46465174634248L94.27812125,57.22562713789339L94.85693281249999,56.55311962227459L95.435744375,55.77838342345021L96.0145559375,55.313541704155575L96.5933675,54.589297164522165L97.1721790625,53.67703883948479L97.750990625,52.36302485805284L98.32980218750001,50.82701180661639L98.90861374999999,49.22074637026539L99.4874253125,48.08770612802675L100.066236875,47.816373549659474L100.6450484375,47.490532048598595L101.22386,47.33567984266418L101.8026715625,47.42493835705522L102.381483125,47.59142289887667L102.96029468750001,47.66139391063136L103.53910625,47.86416753330916L104.11791781250001,48.141721357896465L104.69672937499999,48.24333744883212L105.2755409375,47.55435757183831L105.85435249999999,46.82185357457679L106.4331640625,45.34629594194661L107.011975625,43.69075904354117L107.5907871875,42.75716429351565L108.16959875,42.06649941483417L108.7484103125,41.99579354691077L109.327221875,41.96145597637236L109.90603343749999,41.904576998197285L110.48484499999999,41.77631308073398L111.0636565625,41.83114723106976L111.642468125,41.517912467365015L112.2212796875,41.61160259567374L112.80009125,41.45350560698511L113.3789028125,40.98729350141844L113.95771437500001,40.592648419373205L114.5365259375,40.3486445605554L115.11533750000001,40.03508658527123L115.69414906249999,40.14967755388489L116.272960625,40.43229391839864L116.85177218749999,40.91499314944007L117.43058375,41.30369132423436L118.0093953125,41.83625335095746L118.588206875,42.155790566991286L119.1670184375,43.181449931218545L119.74583,43.705788357270336L120.3246415625,44.02039141290143L120.90345312500001,44.365296396609686L121.48226468749999,45.32020392795198L122.06107625,45.93922648020462L122.63988781249999,46.6464711959434L123.218699375,47.13765584480401L123.79751093750001,47.423623169968344L124.3763225,47.51796661387472L124.95513406250001,47.58693530025437L125.533945625,47.766544953956306L126.11275718750001,47.890662585878836L126.69156874999999,47.77259248764383L127.2703803125,47.7262538568441L127.849191875,47.796466654316454L128.4280034375,47.837335889603196L129.006815,47.9459513130181L129.5856265625,48.00911860122637L130.164438125,48.04701897415135L130.7432496875,48.68197031088243L131.32206125000002,49.77076561650177L131.9008728125,50.56015950163526L132.479684375,51.50472519469454L133.0584959375,51.736920161677546L133.6373075,51.360407839397475L134.21611906249998,50.60361848802162L134.794930625,49.84243381101368L135.3737421875,49.404955004524055L135.95255375,49.13328176431111L136.53136531250001,48.991710963799065L137.110176875,48.462440709444L137.6889884375,48.49898206482657L138.2678,48.75659789775011L138.8466115625,48.91116739750424L139.425423125,49.39296382808994L140.0042346875,49.64475577996758L140.58304625,49.86231794551959L141.1618578125,49.95503178395401L141.740669375,50.01066008701466L142.3194809375,50.28089712795344L142.8982925,50.042339495440686L143.4771040625,49.215742378803306L144.05591562499998,48.01195281507901L144.6347271875,47.65161050893266L145.21353875,47.26859123669504L145.7923503125,46.863278905326744L146.371161875,46.756829508011336L146.9499734375,46.56983840457486L147.528785,46.382575116109166L148.1075965625,45.99953189624428L148.686408125,45.66074198524006L149.2652196875,46.15380698466211L149.84403125,46.51608771099991L150.42284281250002,47.01897789566324L151.00165437500002,48.15865636783009L151.58046593749998,49.00010835876363L152.15927749999997,49.81696256011903L152.7380890625,50.18548592891404L153.316900625,50.74829670210347L153.89571218749998,51.59103874615627L154.47452375,52.101501591911706L155.0533353125,53.066326471911346L155.632146875,53.16281213884343L156.2109584375,53.5757440892346L156.78977,53.930281938363365L157.3685815625,54.68090084229861L157.947393125,55.153868709216255L158.5262046875,55.533980313664514L159.10501625,54.71099597119837L159.6838278125,54.13283987703056L160.26263937500002,53.66966471113043L160.8414509375,53.36316963814068L161.4202625,53.2936098542752L161.9990740625,53.362003607368976L162.57788562500002,53.41981268891685L163.1566971875,53.68646475415821L163.73550874999998,53.90075125341451L164.3143203125,54.057149233290566L164.893131875,55.22576188596231L165.4719434375,55.918783547593L166.05075499999998,56.5796523281611L166.6295665625,57.28646019470752L167.208378125,57.71215531451739L167.7871896875,57.791116469044916L168.36600125,57.83849316176142L168.9448128125,57.78311953546425L169.523624375,57.74989535968594L170.10243593750002,57.84834618187602L170.6812475,57.57770003090294L171.2600590625,58.132692864000745L171.838870625,57.824185827449945L172.41768218750002,57.45613768919864L172.99649375,57.41226153706248L173.5753053125,57.087900961645836L174.15411687499997,56.607535397137255L174.7329284375,56.71641486672066L175.31174,56.33253717534246L175.89055156249998,56.09262398468952L176.469363125,55.92995559605462L177.0481746875,55.12674025674165L177.62698625,54.74601500975787L178.2057978125,54.51757986156762L178.784609375,53.845104382089495L179.3634209375,52.84178644517167L179.9422325,50.88100069502454L180.5210440625,49.70452924493628L181.099855625,48.832922307195346L181.6786671875,48.382022124653304L182.25747875000002,47.51817810582631L182.8362903125,47.15673573363332L183.415101875,46.638988085280914L183.99391343750003,46.42609518271151L184.57272500000002,46.267712048896925L185.15153656249998,46.20505199842181L185.73034812499998,45.81563395428175L186.3091596875,45.775774326528214L186.88797125,45.56150543606585L187.46678281249999,44.50288441449188L188.04559437499998,44.53427589100472L188.6244059375,44.30872721927485L189.2032175,44.158364599488905L189.7820290625,44.06814702761735L190.360840625,44.00580717968483L190.9396521875,44.12802524714194L191.51846375,44.148661042145044L192.09727531250002,43.210204938783924L192.676086875,42.724432734490236L193.2548984375,42.56954331785886L193.83371,42.64156078889239L194.41252156250002,42.455651996101544L194.991333125,41.61088361912902L195.5701446875,41.390114715341355L196.14895625,41.2771354770523L196.7277678125,40.95146440441579L197.30657937499998,41.0433240543316L197.88539093749998,40.61321040295621L198.4642025,40.049604199944305L199.0430140625,39.744179240039L199.62182562499999,39.31644338081542L200.2006371875,39.58307657943324L200.77944875,39.78834574166629L201.3582603125,39.90961052066301L201.93707187500002,39.59460252455603L202.5158834375,39.60793547510145L203.094695,39.52699771491113L203.6735065625,39.51991275807674L204.25231812500002,39.55645254528793L204.8311296875,40.394408929007874L205.40994125,40.96321368117587L205.98875281250002,41.338176863388966L206.56756437500002,41.64681521634068L207.14637593749998,42.46737963425998L207.72518749999998,43.09979365071386L208.3039990625,43.46970867435572L208.882810625,43.43690215977295L209.46162218749998,43.39784705300489L210.04043375,42.446436617728224L210.6192453125,41.92094410615532L211.198056875,41.8054853047373L211.77686843749999,41.92250148964578L212.35568,41.930714766061215L212.9344915625,42.525475737179846L213.513303125,42.038279076849754L214.09211468750001,42.05570333427309L214.67092625,42.06833639875722L215.2497378125,41.834970764730414L215.82854937500002,41.76423366173945L216.40736093750002,41.67336057566507L216.9861725,41.74797200844429L217.5649840625,41.965041470243975L218.14379562500002,42.19542783879107L218.7226071875,42.527870716946516L219.30141874999998,42.727336443839796L219.88023031249998,43.19793480240007L220.459041875,43.58461558979371L221.0378534375,43.53801243401538L221.61666499999998,44.08766465085926L222.1954765625,44.205184227018655L222.774288125,44.38965298361925L223.3530996875,44.34655179993717L223.93191125,44.27662068058892L224.5107228125,44.1518684425941L225.089534375,43.6184763868048L225.6683459375,43.703067986929085L226.24715750000001,43.84152693158209L226.8259690625,43.04509083393706L227.404780625,41.681320247432545L227.98359218750002,40.853440763978725L228.56240375000002,40.2655687410207L229.1412153125,39.80202330739724L229.72002687499997,39.313580991376L230.2988384375,38.60866290502662L230.87765,37.45541324798015L231.45646156249998,36.93231891741602L232.035273125,36.736561328273496L232.6140846875,36.68245218799603L233.19289625,36.5610423831508L233.77170781249998,36.46958806365921L234.350519375,36.36187330633518L234.9293309375,36.272685570816876L235.5081425,35.7920299215917L236.0869540625,35.15978673321827L236.665765625,34.6269650714963L237.2445771875,34.827459528686774L237.82338875000002,34.94035209813246L238.4022003125,35.510008428882735L238.981011875,35.55314491176078L239.5598234375,35.53234218031248L240.13863500000002,35.00068199199487L240.7174465625,34.90015931345255L241.29625812499998,35.21864220112897L241.8750696875,35.4689692994575L242.45388125,35.71946529193443L243.0326928125,35.57832747405999L243.61150437499998,35.82799288336178L244.1903159375,35.92140323581541L244.7691275,36.12879874385741L245.3479390625,36.06798121418961L245.926750625,35.90822890134498L246.5055621875,35.75362338104949L247.08437375,36.45703022725844L247.6631853125,36.90608559597013L248.241996875,37.15088411260731L248.8208084375,37.382018937006116L249.39962,37.23521203359038L249.97843156250002,36.930199218750424L250.557243125,36.69909002838161L251.1360546875,36.83324866170264L251.71486624999997,36.88076402907318L252.2936778125,37.14998332996018L252.872489375,37.16034442149906L253.45130093749998,37.16869545040514L254.0301125,37.53125105574518L254.6089240625,37.75535389984523L255.187735625,37.46438598238353L255.7665471875,36.71901862861467L256.34535875,36.25616669957889L256.9241703125,35.98447049322756L257.502981875,35.59855158406315L258.0817934375,35.22166928814542L258.66060500000003,35.03727903107817L259.2394165625,35.005160075863294L259.818228125,34.88582322981362L260.3970396875,34.92899804504557L260.97585125,34.542157897105874L261.5546628125,33.81212959493263L262.133474375,33.409700979819284L262.71228593750004,33.32667694292291L263.2910975,33.47089080930843L263.86990906249997,33.784017557230165L264.44872062499996,33.921464776790096L265.0275321875,33.607339601395076L265.60634375,33.299332197116364L266.1851553125,32.8762989121317L266.763966875,32.37774965113237L267.3427784375,32.086404448424794L267.92159,31.942972398007917L268.5004015625,31.83644931964379L269.079213125,31.71586422196409L269.6580246875,32.18300561152724" style="fill: none;" fill="none"></path></g><g><path stroke="rgb(0, 153, 136)" stroke-width="2px" d="M34.6605303125,148.48750394185382L35.239341875,148.48750394185384L35.8181534375,143.04824421162508L36.396964999999994,143.59949286498275L36.9757765625,145.44974519913598L37.554588125,146.46330985049815L38.1333996875,147.04031214023956L38.71221125,149.85764903190935L39.291022812499996,152.54623192052267L39.869834374999996,152.3699255057316L40.448645937500004,147.79181736518862L41.027457500000004,140.57238431798322L41.606269062500004,135.71450056082733L42.185080625,134.04101583661588L42.7638921875,131.66760834819002L43.34270375,130.09289644083344L43.921515312500006,129.14835366041603L44.500326875,127.97462826293138L45.0791384375,129.01385888983944L45.65795,128.93048869770396L46.2367615625,128.88046853327913L46.815573125,128.917015172371L47.39438468749999,128.1280554016588L47.97319625,128.3084569188859L48.5520078125,127.18464167569351L49.130819375,126.51035457460652L49.7096309375,125.37713011315853L50.288442499999995,125.22246525929327L50.867254062499995,125.12966640776055L51.446065625,124.26173428412685L52.0248771875,124.44232191563773L52.60368875,124.55067447921371L53.1825003125,123.24254334780002L53.761311875,122.6497538461067L54.3401234375,122.88295010016567L54.918935000000005,123.02286785003542L55.497746562500005,122.47476766300946L56.076558125,122.14311453334176L56.6553696875,120.98603544512902L57.23418125,119.85350119923864L57.8129928125,119.20715285322075L58.391804375,118.81934384594176L58.9706159375,116.93749579269877L59.5494275,116.36158138868683L60.1282390625,116.08457715959929L60.707050625,115.91837462216523L61.285862187499994,115.8186530997114L61.86467375,116.2896795103908L62.4434853125,116.97457166294943L63.022296875,116.95005392102793L63.6011084375,115.98430878083472L64.17992,115.23199324782803L64.7587315625,113.59029320821544L65.337543125,111.32805292891453L65.9163546875,109.08286124241405L66.49516625,107.6110336043753L67.07397781249999,106.72793702155236L67.652789375,106.19807907185876L68.2316009375,105.74913456266276L68.8104125,105.4265692080566L69.3892240625,105.23302999529295L69.968035625,103.94499934788377L70.54684718749999,102.80108280982074L71.12565875,102.0965963665972L71.7044703125,101.67390450066307L72.283281875,101.54494089579174L72.8620934375,102.04550277091415L73.440905,102.34583989598764L74.01971656250001,102.72455479513651L74.598528125,102.87962469226747L75.17733968750001,102.97266663054603L75.75615125,102.4833074927726L76.33496281250001,101.09255361797801L76.91377437499999,98.98787716692124L77.4925859375,98.10420673329891L78.0713975,95.6768855105197L78.6502090625,94.84500200333329L79.229020625,93.88942595073858L79.8078321875,93.44315139462121L80.38664375,93.07146777158718L80.96545531250001,93.04903216746891L81.544266875,93.41244285496539L82.1230784375,93.07202341154692L82.70188999999999,92.23886702137479L83.2807015625,91.73897318727148L83.85951312499999,91.16839464437787L84.4383246875,89.11989278434805L85.01713625000001,87.59535175744153L85.5959478125,85.90675021360391L86.17475937500001,84.9850708648567L86.7535709375,84.82268764525679L87.33238250000001,84.8343484422566L87.91119406249999,84.78139232442786L88.490005625,84.05772839494155L89.0688171875,82.2990593137797L89.64762875,81.2438578650826L90.2264403125,80.89397498719734L90.805251875,80.56668411544666L91.3840634375,80.32675523550334L91.96287500000001,80.81982140098624L92.5416865625,80.27947086386649L93.120498125,80.08564521566691L93.69930968749999,79.06443863289948L94.27812125,78.9220351941033L94.85693281249999,76.86007907748085L95.435744375,75.68547447895922L96.0145559375,74.40646100268314L96.5933675,73.5391017450425L97.1721790625,72.99594594082434L97.750990625,72.68270705525795L98.32980218750001,72.98927984228564L98.90861374999999,71.6912708472659L99.4874253125,70.48602296063005L100.066236875,69.79127520928006L100.6450484375,69.55352158512207L101.22386,67.63438445070703L101.8026715625,65.53259195887637L102.381483125,63.546682606559536L102.96029468750001,62.20887692436865L103.53910625,61.09206029056685L104.11791781250001,59.05010652549569L104.69672937499999,57.027908547764056L105.2755409375,54.89613332751098L105.85435249999999,52.352507063563884L106.4331640625,50.507942913065094L107.011975625,49.4012044227658L107.5907871875,48.659256678215975L108.16959875,48.27742891791996L108.7484103125,47.36357959399743L109.327221875,46.34839096878044L109.90603343749999,46.09428212968949L110.48484499999999,45.94181682623491L111.0636565625,46.34604883088906L111.642468125,47.27424831963127L112.2212796875,47.43263534889546L112.80009125,47.527667566453964L113.3789028125,47.32646725434991L113.95771437500001,46.31546753878751L114.5365259375,46.22574948689555L115.11533750000001,45.63067943863799L115.69414906249999,45.27363740968345L116.272960625,45.21949476779086L116.85177218749999,45.2021829294001L117.43058375,45.47284285903981L118.0093953125,45.8360453836978L118.588206875,46.22211052693093L119.1670184375,46.45943297773897L119.74583,46.74453186967153L120.3246415625,46.47825842844355L120.90345312500001,46.142532996417515L121.48226468749999,45.94752236132709L122.06107625,45.80452890192402L122.63988781249999,45.71873282628218L123.218699375,45.91854659579372L123.79751093750001,46.118766990475905L124.3763225,46.1260422224838L124.95513406250001,46.69438343336413L125.533945625,46.96409599477192L126.11275718750001,47.22704600628697L126.69156874999999,47.122970424511934L127.2703803125,46.97419496680432L127.849191875,46.99592958791136L128.4280034375,47.362648351806875L129.006815,47.582679610144204L129.5856265625,48.054324117913524L130.164438125,49.10821479138614L130.7432496875,49.91305323904879L131.32206125000002,50.51414132555005L131.9008728125,51.10221704427209L132.479684375,51.58204188376947L133.0584959375,50.889850588025354L133.6373075,50.72102318647408L134.21611906249998,50.662534184711596L134.794930625,50.264403686994754L135.3737421875,49.48093296333617L135.95255375,48.59774278428833L136.53136531250001,47.824386688232494L137.110176875,47.205085440572134L137.6889884375,46.68836160268151L138.2678,45.92287837365723L138.8466115625,44.65617037593995L139.425423125,43.29893958874349L140.0042346875,42.50464001362207L140.58304625,41.97511738219669L141.1618578125,41.35111547834958L141.740669375,40.91403775370489L142.3194809375,40.176576033570605L142.8982925,39.35023534894281L143.4771040625,38.14485570470666L144.05591562499998,37.57487393307792L144.6347271875,37.760355903832746L145.21353875,38.08851604270655L145.7923503125,38.32822975044081L146.371161875,38.35598582898356L146.9499734375,38.33216785237062L147.528785,38.472484508622905L148.1075965625,38.43459080028687L148.686408125,38.31885992349079L149.2652196875,37.08947401480411L149.84403125,36.20083664200625L150.42284281250002,36.10003866478952L151.00165437500002,36.081119059672865L151.58046593749998,36.320548317721034L152.15927749999997,35.9805981480423L152.7380890625,35.90938588162322L153.316900625,35.973207466880844L153.89571218749998,36.28831491693677L154.47452375,36.13287490342947L155.0533353125,35.9978457458907L155.632146875,35.94362901735862L156.2109584375,35.583967123956846L156.78977,35.36002915056429L157.3685815625,35.29915345123537L157.947393125,35.27602275616603L158.5262046875,35.211241896192305L159.10501625,35.47591961179579L159.6838278125,35.6962733933592L160.26263937500002,35.83519094641592L160.8414509375,36.2757050855294L161.4202625,36.44486077765635L161.9990740625,36.549714190999715L162.57788562500002,36.65127583617375L163.1566971875,36.11820726399265L163.73550874999998,35.56199099225585L164.3143203125,35.14812035244376L164.893131875,35.099174074818706L165.4719434375,34.79954601237577L166.05075499999998,34.49466328527174L166.6295665625,34.15211619956676L167.208378125,34.00740289463632L167.7871896875,34.0704292411051L168.36600125,33.76063859350137L168.9448128125,33.29607505571833L169.523624375,32.73907047135824L170.10243593750002,32.21933052871542L170.6812475,31.498318243427576L171.2600590625,31.188111448528453L171.838870625,31.257518676266322L172.41768218750002,31.246486640380954L172.99649375,31.26176568850308L173.5753053125,31.407057175146115L174.15411687499997,32.602227926913855L174.7329284375,33.286041613020856L175.31174,33.71591604447269L175.89055156249998,34.07793161012273L176.469363125,34.247601333881654L177.0481746875,34.4405757933608L177.62698625,34.28048923669764L178.2057978125,34.27770808771356L178.784609375,33.96261065305336L179.3634209375,33.79093896568453L179.9422325,33.53274003041172L180.5210440625,33.36155427240759L181.099855625,33.22074548687597L181.6786671875,33.04648127090567L182.25747875000002,33.05590578117947L182.8362903125,33.08357475558309L183.415101875,33.17680310860906L183.99391343750003,33.07878962629415L184.57272500000002,32.9797356860243L185.15153656249998,33.132215197269275L185.73034812499998,33.089403136204176L186.3091596875,33.039273017027284L186.88797125,33.061148731735344L187.46678281249999,32.86884236226102L188.04559437499998,32.24785522077253L188.6244059375,31.88053493015233L189.2032175,32.26326014545914L189.7820290625,31.473590236191097L190.360840625,30.843834698965654L190.9396521875,30.46129163867464L191.51846375,30.008370632924017L192.09727531250002,29.354824244378428L192.676086875,29.037572083909367L193.2548984375,29.15585624498469L193.83371,29.2701428770364L194.41252156250002,29.336534082850253L194.991333125,29.617128681318228L195.5701446875,29.768087915883218L196.14895625,29.742379117989003L196.7277678125,29.753555993030538L197.30657937499998,29.760262118055472L197.88539093749998,30.297853259806267L198.4642025,30.585894687512187L199.0430140625,31.523140040758452L199.62182562499999,32.17079770548535L200.2006371875,32.64960016081765L200.77944875,33.14388252538464L201.3582603125,33.3329127671839L201.93707187500002,33.60340318297474L202.5158834375,33.80716551233409L203.094695,33.86115236653334L203.6735065625,34.3114268388755L204.25231812500002,34.61319519557994L204.8311296875,34.73528196262384L205.40994125,33.877343207878255L205.98875281250002,33.550956566104716L206.56756437500002,33.46775411544409L207.14637593749998,33.46654922194182L207.72518749999998,33.42726156568665L208.3039990625,33.98371585283362L208.882810625,34.97734254880956L209.46162218749998,35.55966097921657L210.04043375,35.9163695677749L210.6192453125,35.9125324009636L211.198056875,36.01990704688106L211.77686843749999,35.71614892732704L212.35568,35.510750357220196L212.9344915625,35.5076546286998L213.513303125,35.69761811189597L214.09211468750001,35.87182719444879L214.67092625,35.33720779102433L215.2497378125,34.848249516177496L215.82854937500002,34.091216886016724L216.40736093750002,33.67113484301548L216.9861725,33.51713271473872L217.5649840625,33.28070872506516L218.14379562500002,33.15186314829797L218.7226071875,32.98699101596244L219.30141874999998,32.85491590652367L219.88023031249998,32.916460305175185L220.459041875,32.767775060566876L221.0378534375,32.61404832949197L221.61666499999998,32.57605888813709L222.1954765625,32.5762210605739L222.774288125,32.69069183815707L223.3530996875,32.82952006428952L223.93191125,32.979405280964656L224.5107228125,32.82512034397349L225.089534375,32.31966061962262L225.6683459375,31.662672842975148L226.24715750000001,31.274021514317816L226.8259690625,30.912789780335466L227.404780625,30.548670292558388L227.98359218750002,30.235302137133726L228.56240375000002,30.12649017103351L229.1412153125,30.514339867797514L229.72002687499997,30.578211763441765L230.2988384375,30.61154865916981L230.87765,30.631550796606618L231.45646156249998,30.76127310262827L232.035273125,30.873865886926907L232.6140846875,30.918039637645233L233.19289625,31.377392328882316L233.77170781249998,31.83171702371285L234.350519375,32.07023315357911L234.9293309375,32.6745509461229L235.5081425,33.06293970717974L236.0869540625,33.2419679830908L236.665765625,33.22044318380589L237.2445771875,33.19731646773798L237.82338875000002,33.09779274064847L238.4022003125,33.26834079026309L238.981011875,33.32199434995134L239.5598234375,33.52411762412078L240.13863500000002,33.713167016122846L240.7174465625,33.8392257851844L241.29625812499998,33.94916776989806L241.8750696875,34.38477688416783L242.45388125,34.7292544908421L243.0326928125,35.246434187119995" style="fill: none;" fill="none"></path></g></g></g></g><g opacity="0.2"><g><g><g><path stroke="rgb(0, 119, 187)" stroke-width="2px" d="M34.6605303125,144.24707094828287L35.239341875,137.90990409851074L35.8181534375,138.31612548828124L36.396964999999994,136.9471950531006L36.9757765625,135.94142506917316L37.554588125,129.6768450419108L38.1333996875,122.66498514811197L38.71221125,124.48702303568524L39.291022812499996,124.21675198872884L39.869834374999996,128.03423716227215L40.448645937500004,128.87984987894694L41.027457500000004,127.31398213704428L41.606269062500004,127.6347267150879L42.185080625,123.49701754252118L42.7638921875,128.06990814208984L43.34270375,131.63306783040363L43.921515312500006,131.20413335164386L44.500326875,127.66267954508463L45.0791384375,126.6435895284017L45.65795,126.48064829508463L46.2367615625,126.48064829508463L46.815573125,126.48064829508463L47.39438468749999,129.287633005778L47.97319625,131.19134521484375L48.5520078125,130.40124206542967L49.130819375,129.30048904418945L49.7096309375,128.63744112650554L50.288442499999995,129.89935862223308L50.867254062499995,128.7857042948405L51.446065625,128.48763885498047L52.0248771875,127.55694541931152L52.60368875,127.55694541931152L53.1825003125,125.1387540181478L53.761311875,125.1387540181478L54.3401234375,125.1387540181478L54.918935000000005,128.04765904744465L55.497746562500005,127.8032698313395L56.076558125,127.8032698313395L56.6553696875,127.8032698313395L57.23418125,129.23894755045575L57.8129928125,125.43870938618979L58.391804375,125.44924545288086L58.9706159375,125.44924545288086L59.5494275,124.9879784901937L60.1282390625,124.9879784901937L60.707050625,126.18442751566569L61.285862187499994,126.18442751566569L61.86467375,126.18442751566569L62.4434853125,125.692254002889L63.022296875,125.692254002889L63.6011084375,125.37239214579263L64.17992,125.18393122355143L64.7587315625,127.08516502380371L65.337543125,127.08516502380371L65.9163546875,126.96968701680503L66.49516625,122.21912053426108L67.07397781249999,122.21912053426108L67.652789375,121.80774993896485L68.2316009375,121.88880182902018L68.8104125,120.4085693359375L69.3892240625,118.81147816975913L69.968035625,117.81917533874511L70.54684718749999,115.5599868774414L71.12565875,115.5599868774414L71.7044703125,116.20403366088867L72.283281875,116.20366020202637L72.8620934375,116.69669380187989L73.440905,116.63467699686686L74.01971656250001,117.0826805114746L74.598528125,117.0826805114746L75.17733968750001,116.54793268839518L75.75615125,117.95053100585938L76.33496281250001,117.1710205078125L76.91377437499999,112.87584749857587L77.4925859375,109.06632944742837L78.0713975,108.92556940714518L78.6502090625,109.10688934326171L79.229020625,108.31761233011883L79.8078321875,108.5768040974935L80.38664375,108.79415715535482L80.96545531250001,108.79415715535482L81.544266875,109.90720036824546L82.1230784375,110.65356356302897L82.70188999999999,112.09840799967448L83.2807015625,112.09840799967448L83.85951312499999,112.15690523783366L84.4383246875,113.19737294514975L85.01713625000001,112.56775525410971L85.5959478125,112.03634592692056L86.17475937500001,111.9841522216797L86.7535709375,110.78513425191244L87.33238250000001,111.7183287302653L87.91119406249999,109.3093832651774L88.490005625,107.50683314005533L89.0688171875,106.19089991251627L89.64762875,104.30171298980713L90.2264403125,102.51214338938395L90.805251875,100.29698912302655L91.3840634375,100.65922158559164L91.96287500000001,101.3768850326538L92.5416865625,99.83049373626709L93.120498125,99.2204600016276L93.69930968749999,99.25254351298014L94.27812125,98.4877280553182L94.85693281249999,97.97370154062907L95.435744375,97.11863918304444L96.0145559375,97.11863918304444L96.5933675,96.80999240875244L97.1721790625,94.23437112172445L97.750990625,94.25360425313312L98.32980218750001,92.87412643432617L98.90861374999999,93.69592831929525L99.4874253125,93.69592831929525L100.066236875,92.50481522878012L100.6450484375,89.19415334065756L101.22386,89.7206341425578L101.8026715625,88.32383575439454L102.381483125,88.32383575439454L102.96029468750001,87.90595226287842L103.53910625,86.88107929229736L104.11791781250001,86.36001364390054L104.69672937499999,85.66731535593668L105.2755409375,85.66731535593668L105.85435249999999,85.19177773793537L106.4331640625,84.40196882883707L107.011975625,84.20698369344076L107.5907871875,84.20698369344076L108.16959875,84.90967483520508L108.7484103125,84.90967483520508L109.327221875,83.61084149678548L109.90603343749999,80.57666931152343L110.48484499999999,80.53829358418783L111.0636565625,80.53829358418783L111.642468125,78.9271863937378L112.2212796875,78.9271863937378L112.80009125,80.35657189687093L113.3789028125,81.25083045959472L113.95771437500001,81.32980569203696L114.5365259375,81.32980569203696L115.11533750000001,81.90964584350586L115.69414906249999,81.90964584350586L116.272960625,77.65156408945721L116.85177218749999,76.61208095550538L117.43058375,76.61208095550538L118.0093953125,72.31715126037598L118.588206875,72.26616846720377L119.1670184375,72.26616846720377L119.74583,71.51452592213947L120.3246415625,73.19729194641113L120.90345312500001,72.23589566548664L121.48226468749999,72.21159254709879L122.06107625,71.71338710784912L122.63988781249999,73.68447469075521L123.218699375,73.54426918029785L123.79751093750001,73.1709404627482L124.3763225,73.1709404627482L124.95513406250001,73.09026203155517L125.533945625,71.63948752085368L126.11275718750001,71.28350766499838L126.69156874999999,70.36320883433024L127.2703803125,69.33470312754312L127.849191875,68.1535036722819L128.4280034375,65.40369211832682L129.006815,65.28900063832602L129.5856265625,64.5161558151245L130.164438125,63.74962018330891L130.7432496875,62.776810773213704L131.32206125000002,62.57720832824707L131.9008728125,62.71631043752034L132.479684375,60.52980499267578L133.0584959375,61.53515059153239L133.6373075,60.94957841237386L134.21611906249998,61.12587362925212L134.794930625,60.387794431050615L135.3737421875,60.295533116658525L135.95255375,58.404841041564936L136.53136531250001,55.340908145904535L137.110176875,55.631801478068034L137.6889884375,54.647341283162426L138.2678,50.1275271097819L138.8466115625,50.3574787457784L139.425423125,49.33950061798096L140.0042346875,50.02007846832275L140.58304625,50.02007846832275L141.1618578125,46.99842847188314L141.740669375,44.707931709289554L142.3194809375,44.707931709289554L142.8982925,45.28765020370483L143.4771040625,45.157502619425465L144.05591562499998,45.84220266342163L144.6347271875,46.51754077275595L145.21353875,46.22368523279827L145.7923503125,46.22368523279827L146.371161875,46.22368523279827L146.9499734375,47.24683519999187L147.528785,49.099061012268066L148.1075965625,49.09677499135335L148.686408125,49.09467287063599L149.2652196875,48.48822377522786L149.84403125,50.19179598490396L150.42284281250002,51.00507904688518L151.00165437500002,49.89542242685955L151.58046593749998,49.998867702484134L152.15927749999997,50.320882606506345L152.7380890625,50.31379537582397L153.316900625,48.78366085688274L153.89571218749998,50.13592427571614L154.47452375,49.82273941040039L155.0533353125,49.28717959721883L155.632146875,48.90107405980428L156.2109584375,49.772432804107666L156.78977,49.37735859553018L157.3685815625,48.48254550298055L157.947393125,48.29109125137329L158.5262046875,49.389326254526765L159.10501625,50.778706391652435L159.6838278125,51.925909773508714L160.26263937500002,51.77065556844075L160.8414509375,54.40044253667195L161.4202625,53.715182304382324L161.9990740625,54.39044119517009L162.57788562500002,55.045471064249675L163.1566971875,54.84967676798502L163.73550874999998,54.784686438242595L164.3143203125,54.784686438242595L164.893131875,53.8525953610738L165.4719434375,53.495237668355315L166.05075499999998,53.63134078979492L166.6295665625,55.41004613240559L167.208378125,52.026214599609375L167.7871896875,51.100523249308274L168.36600125,50.38148762385051L168.9448128125,47.99602197011311L169.523624375,47.405405267079665L170.10243593750002,47.848126602172854L170.6812475,49.74512786865235L171.2600590625,47.25118939081827L171.838870625,47.86116937001545L172.41768218750002,48.46994126637777L172.99649375,48.46129795710247L173.5753053125,49.35426638921101L174.15411687499997,48.674947547912595L174.7329284375,50.65217739741008L175.31174,50.65217739741008L175.89055156249998,51.14237610499063L176.469363125,50.3759706179301L177.0481746875,49.97285006841023L177.62698625,49.31226075490316L178.2057978125,49.401234499613444L178.784609375,49.88902835845947L179.3634209375,50.9142012278239L179.9422325,50.91663436889648L180.5210440625,49.97439483006794L181.099855625,49.65562505722046L181.6786671875,50.705596160888675L182.25747875000002,48.53063398996989L182.8362903125,48.53063398996989L183.415101875,50.59265031814576L183.99391343750003,51.011031754811604L184.57272500000002,50.54736277262371L185.15153656249998,50.21180432637532L185.73034812499998,50.2826511700948L186.3091596875,50.763114484151195L186.88797125,51.281732845306394L187.46678281249999,47.91496442159016L188.04559437499998,48.173174444834395L188.6244059375,48.187835534413665L189.2032175,48.09850813547771L189.7820290625,48.09850813547771L190.360840625,48.31798877716065L190.9396521875,49.97734572092693L191.51846375,50.38700180053711L192.09727531250002,50.126757558186846L192.676086875,51.236470762888594L193.2548984375,49.90675350824993L193.83371,48.9887944539388L194.41252156250002,47.27519826889038L194.991333125,47.28252598444622L195.5701446875,46.03657951354981L196.14895625,44.94979159037271L196.7277678125,44.106043338775635L197.30657937499998,43.72570095062255L197.88539093749998,43.678396161397295L198.4642025,43.79521239598592L199.0430140625,44.79288511276245L199.62182562499999,44.840288925170896L200.2006371875,44.9013947168986L200.77944875,43.512772814432786L201.3582603125,43.27068659464519L201.93707187500002,42.64344546000164L202.5158834375,40.85237353642781L203.094695,41.17614539464316L203.6735065625,41.90134592056275L204.25231812500002,41.864947827657055L204.8311296875,42.36358613967896L205.40994125,42.71805518468221L205.98875281250002,41.36898314158122L206.56756437500002,40.86555210749307L207.14637593749998,41.27254021962484L207.72518749999998,40.93343957265219L208.3039990625,41.13616266250611L208.882810625,41.600779438018805L209.46162218749998,41.71968364715576L210.04043375,43.48214070002237L210.6192453125,40.213628737131764L211.198056875,39.91914510726929L211.77686843749999,38.179633140563965L212.35568,38.725946871439625L212.9344915625,38.38826084136963L213.513303125,37.81332092285156L214.09211468750001,38.15074383417765L214.67092625,38.15345141092937L215.2497378125,38.125286388397214L215.82854937500002,37.85052534739177L216.40736093750002,37.27265151341757L216.9861725,36.51077280044555L217.5649840625,36.694415537516285L218.14379562500002,36.30245348612468L218.7226071875,37.32745094299317L219.30141874999998,37.52121667861938L219.88023031249998,38.06695607503254L220.459041875,36.346261342366546L221.0378534375,35.48349922498067L221.61666499999998,34.101811774571736L222.1954765625,33.613607676823925L222.774288125,33.33061922391256L223.3530996875,33.65082907676697L223.93191125,33.95631276766459L224.5107228125,35.187749512990315L225.089534375,34.70390102068584L225.6683459375,34.6900009950002L226.24715750000001,33.83224237759908L226.8259690625,33.77225554784139L227.404780625,32.7242069085439L227.98359218750002,33.244053157170605L228.56240375000002,33.04532211621602L229.1412153125,33.310216204325364L229.72002687499997,33.62954475084941L230.2988384375,33.926590251922605L230.87765,35.193707879384355L231.45646156249998,34.82500071525574L232.035273125,35.93173615137735L232.6140846875,36.00984563827515L233.19289625,36.34522584279377L233.77170781249998,36.61206502914429L234.350519375,37.78543316523234L234.9293309375,37.07090733846028L235.5081425,37.371338017781575L236.0869540625,37.117054971059154L236.665765625,36.95324799219768L237.2445771875,35.954191780090326L237.82338875000002,35.89521640141805L238.4022003125,36.0136424700419L238.981011875,35.64648714065552L239.5598234375,36.6264828046163L240.13863500000002,36.3920355161031L240.7174465625,34.31408211390178L241.29625812499998,34.11125858624777L241.8750696875,34.119135173161816L242.45388125,34.38377180099488L243.0326928125,34.20298517545064L243.61150437499998,33.11349816322327L244.1903159375,33.44196654955547L244.7691275,31.820665629704784L245.3479390625,31.944893042246495L245.926750625,30.92313505808513L246.5055621875,29.934029261271153L247.08437375,29.94016869862875L247.6631853125,30.590732622146604L248.241996875,29.612247769037882L248.8208084375,30.124051920572914L249.39962,30.171342563629153L249.97843156250002,29.67438906033834L250.557243125,32.67419029871623L251.1360546875,31.810183318456005L251.71486624999997,32.47488916714986L252.2936778125,32.942046594619754L252.872489375,32.64448334376018L253.45130093749998,33.43137531280517L254.0301125,33.112735684712725L254.6089240625,32.44661521911621L255.187735625,32.29257475535075L255.7665471875,32.66459778149922L256.34535875,33.07161701520284L256.9241703125,33.13681387901306L257.502981875,34.181378316879275L258.0817934375,34.09666681289673L258.66060500000003,34.038098843892406L259.2394165625,34.2731317838033L259.818228125,34.49215550422669L260.3970396875,34.10529597600302L260.97585125,34.45985414187114L261.5546628125,34.603733412424724L262.133474375,34.42074139912924L262.71228593750004,34.23355646133423L263.2910975,32.86664326985678L263.86990906249997,32.786034154891965L264.44872062499996,33.53024571736653L265.0275321875,33.7781898657481L265.60634375,34.99917683601379L266.1851553125,31.76676589647929L266.763966875,31.43319215774537L267.3427784375,30.838676770528163L267.92159,31.13871135711671L268.5004015625,32.6660633246104L269.079213125,33.7367486635844L269.6580246875,33.295269362131755L270.23683625,32.88957845369975L270.8156478125,33.455210192998244L271.394459375,34.00864369074504L271.9732709375,34.22024208704631L272.55208250000004,33.510753711064666L273.13089406250003,32.6986560980479L273.709705625,33.87211194038392L274.28851718749996,34.35722934405009L274.86732875,33.75474824905396L275.4461403125,33.30455773671468L276.024951875,34.39267257054646L276.6037634375,34.49620696703594L277.182575,34.50965714454651L277.7613865625,35.320570723215745L278.340198125,35.292093070348095L278.9190096875,35.46401146252949L279.49782125,35.74796892801921L280.0766328125,36.821400038401286L280.655444375,35.913394228617356L281.2342559375,34.22180099487305L281.8130675,34.05575750668843L282.3918790625,33.99830284118653" style="fill: none;" fill="none"></path></g><g><path stroke="rgb(187, 187, 187)" stroke-width="2px" d="M34.6605303125,85.65895779927573L35.239341875,85.97881399790445L35.8181534375,90.74783840179444L36.396964999999994,88.2668493270874L36.9757765625,89.57853304545084L37.554588125,83.0448476155599L38.1333996875,81.1793866475423L38.71221125,79.37705154418946L39.291022812499996,79.37705154418946L39.869834374999996,82.76723187764486L40.448645937500004,79.83755461374918L41.027457500000004,79.83755461374918L41.606269062500004,77.06947752634686L42.185080625,78.18880163828531L42.7638921875,81.0861577351888L43.34270375,81.83568967183432L43.921515312500006,81.83568967183432L44.500326875,81.80889116923014L45.0791384375,81.80889116923014L45.65795,83.31075598398844L46.2367615625,82.20306568145752L46.815573125,80.12727947235108L47.39438468749999,81.05216166178387L47.97319625,81.05216166178387L48.5520078125,81.05250682830811L49.130819375,84.69756151835124L49.7096309375,84.09237709045411L50.288442499999995,84.79311040242511L50.867254062499995,84.79311040242511L51.446065625,84.25469589233398L52.0248771875,83.06028957366944L52.60368875,83.02817211151122L53.1825003125,83.02817211151122L53.761311875,83.79692586263022L54.3401234375,85.2536813735962L54.918935000000005,85.2536813735962L55.497746562500005,84.62135893503824L56.076558125,86.18281873067221L56.6553696875,85.22719408671061L57.23418125,86.4316385269165L57.8129928125,86.4316385269165L58.391804375,86.79838644663492L58.9706159375,86.79838644663492L59.5494275,87.07139053344727L60.1282390625,86.6700693766276L60.707050625,87.88563270568848L61.285862187499994,87.88563270568848L61.86467375,87.88563270568848L62.4434853125,87.88563270568848L63.022296875,89.15072460174561L63.6011084375,89.89804407755533L64.17992,90.14007371266683L64.7587315625,90.11157766977948L65.337543125,90.11157766977948L65.9163546875,90.72048536936444L66.49516625,89.63981424967447L67.07397781249999,89.64928086598712L67.652789375,89.64928086598712L68.2316009375,89.64928086598712L68.8104125,88.48433252970379L69.3892240625,88.80212338765463L69.968035625,88.80212338765463L70.54684718749999,85.44515825907389L71.12565875,86.13482926686605L71.7044703125,86.25013751983643L72.283281875,86.25013751983643L72.8620934375,87.57157643636069L73.440905,89.15046997070313L74.01971656250001,89.41853421529134L74.598528125,88.61599375406901L75.17733968750001,88.49893703460694L75.75615125,87.04989967346191L76.33496281250001,87.20155792236328L76.91377437499999,85.79998944600423L77.4925859375,83.0434612909953L78.0713975,82.85455334981283L78.6502090625,79.96076774597168L79.229020625,78.94013296763102L79.8078321875,78.2932965596517L80.38664375,77.5834078470866L80.96545531250001,76.61507994333903L81.544266875,75.02018992106119L82.1230784375,74.7424327214559L82.70188999999999,71.90134442647299L83.2807015625,71.0923080444336L83.85951312499999,71.0923080444336L84.4383246875,71.91751066843668L85.01713625000001,71.53800856272379L85.5959478125,71.53800856272379L86.17475937500001,72.35855992635092L86.7535709375,72.63657175699869L87.33238250000001,72.13098767598468L87.91119406249999,69.0467041015625L88.490005625,67.85261465708415L89.0688171875,66.043772315979L89.64762875,64.87422930399576L90.2264403125,63.77224273681641L90.805251875,60.746620496114105L91.3840634375,59.47585315704346L91.96287500000001,57.73092603683472L92.5416865625,57.079741096496576L93.120498125,56.5599089940389L93.69930968749999,56.61849393844605L94.27812125,56.86709022521973L94.85693281249999,55.54435834884643L95.435744375,54.61627912521362L96.0145559375,54.61627912521362L96.5933675,53.502930355072024L97.1721790625,52.30865135192872L97.750990625,50.39200388590495L98.32980218750001,48.522992229461664L98.90861374999999,46.81134821573894L99.4874253125,46.38814576466879L100.066236875,47.40937468210857L100.6450484375,47.00176979700725L101.22386,47.103401533762614L101.8026715625,47.558826128641755L102.381483125,47.84114971160889L102.96029468750001,47.76635042826334L103.53910625,48.16832796732584L104.11791781250001,48.558052094777416L104.69672937499999,48.39576158523559L105.2755409375,46.52088775634766L105.85435249999999,45.723097578684495L106.4331640625,43.1329594930013L107.011975625,41.20745369593303L107.5907871875,41.35677216847737L108.16959875,41.03050209681194L108.7484103125,41.889734745025635L109.327221875,41.90994962056479L109.90603343749999,41.81925853093466L110.48484499999999,41.583917204538984L111.0636565625,41.91339845657349L111.642468125,41.04806032180787L112.2212796875,41.7521377881368L112.80009125,41.21636012395222L113.3789028125,40.28797534306843L113.95771437500001,40.00068079630534L114.5365259375,39.98263877232869L115.11533750000001,39.564749622344976L115.69414906249999,40.32156400680542L116.272960625,40.85621846516927L116.85177218749999,41.63904199600219L117.43058375,41.88673858642578L118.0093953125,42.63509639104208L118.588206875,42.63509639104208L119.1670184375,44.7199389775594L119.74583,44.49229599634807L120.3246415625,44.49229599634807L120.90345312500001,44.88265387217203L121.48226468749999,46.75256522496542L122.06107625,46.86776030858358L122.63988781249999,47.70733826955159L123.218699375,47.874432818094895L123.79751093750001,47.85257415771484L124.3763225,47.6594817797343L124.95513406250001,47.69038832982381L125.533945625,48.03595943450928L126.11275718750001,48.07683903376262L126.69156874999999,47.595487340291335L127.2703803125,47.65674591064453L127.849191875,47.9017858505249L128.4280034375,47.89863974253337L129.006815,48.10887444814046L129.5856265625,48.10386953353881L130.164438125,48.10386953353881L130.7432496875,49.634397315979L131.32206125000002,51.40395857493083L131.9008728125,51.74425032933552L132.479684375,52.92157373428344L133.0584959375,52.085212612152105L133.6373075,50.795639355977386L134.21611906249998,49.468434460957845L134.794930625,48.700656795501715L135.3737421875,48.74873679478963L135.95255375,48.7257719039917L136.53136531250001,48.77935476303101L137.110176875,47.66853532791137L137.6889884375,48.55379409790039L138.2678,49.14302164713542L138.8466115625,49.14302164713542L139.425423125,50.11565847396851L140.0042346875,50.022443707784014L140.58304625,50.18866119384765L141.1618578125,50.09410254160562L141.740669375,50.09410254160562L142.3194809375,50.68625268936157L142.8982925,49.68450304667156L143.4771040625,47.975846703847246L144.05591562499998,46.206268469492585L144.6347271875,47.11109704971314L145.21353875,46.69406232833862L145.7923503125,46.25531040827433L146.371161875,46.59715541203818L146.9499734375,46.28935174942016L147.528785,46.10168018341065L148.1075965625,45.424967066446946L148.686408125,45.15255711873372L149.2652196875,46.893404483795166L149.84403125,47.05950880050659L150.42284281250002,47.773313172658284L151.00165437500002,49.86817407608032L151.58046593749998,50.26228634516397L152.15927749999997,51.042243862152105L152.7380890625,50.73827098210652L153.316900625,51.59251286188762L153.89571218749998,52.855151812235505L154.47452375,52.86719586054485L155.0533353125,54.5135637919108L155.632146875,53.30754063924153L156.2109584375,54.195142014821364L156.78977,54.46208871205648L157.3685815625,55.80682919820149L157.947393125,55.86332050959268L158.5262046875,56.10414772033691L159.10501625,53.47651945749919L159.6838278125,53.265605735778806L160.26263937500002,52.97490196228027L160.8414509375,52.90342702865601L161.4202625,53.18927017847696L161.9990740625,53.464594237009685L162.57788562500002,53.506526311238616L163.1566971875,54.08644285202027L163.73550874999998,54.22218100229898L164.3143203125,54.29174620310466L164.893131875,56.978680864969895L165.4719434375,56.958316040039065L166.05075499999998,57.57095549901326L166.6295665625,58.34667199452718L167.208378125,58.35069799423218L167.7871896875,57.90955820083619L168.36600125,57.90955820083619L168.9448128125,57.700059096018464L169.523624375,57.700059096018464L170.10243593750002,57.996022415161136L170.6812475,57.17173080444336L171.2600590625,58.96518211364746L171.838870625,57.3614252726237L172.41768218750002,56.904065481821696L172.99649375,57.346447308858245L173.5753053125,56.60136009852092L174.15411687499997,55.88698705037436L174.7329284375,56.879734071095776L175.31174,55.75672063827514L175.89055156249998,55.73275419871013L176.469363125,55.685953013102214L177.0481746875,53.921917247772214L177.62698625,54.17492713928223L178.2057978125,54.17492713928223L178.784609375,52.83639116287232L179.3634209375,51.33680953979493L179.9422325,47.939822069803874L180.5210440625,47.939822069803874L181.099855625,47.52551190058389L181.6786671875,47.705671850840254L182.25747875000002,46.222412077585865L182.8362903125,46.61457217534383L183.415101875,45.862366612752275L183.99391343750003,46.106755828857416L184.57272500000002,46.030137348175046L185.15153656249998,46.11106192270915L185.73034812499998,45.2315068880717L186.3091596875,45.71598488489787L186.88797125,45.24010210037231L187.46678281249999,42.91495288213094L188.04559437499998,44.58136310577393L188.6244059375,43.9704042116801L189.2032175,43.93282066980998L189.7820290625,43.93282066980998L190.360840625,43.91229740778604L190.9396521875,44.31135234832763L191.51846375,44.17961473464966L192.09727531250002,41.80252078374226L192.676086875,41.995774428049714L193.2548984375,42.33720919291179L193.83371,42.749586995442705L194.41252156250002,42.17678880691528L194.991333125,40.34373105367025L195.5701446875,41.05896135965984L196.14895625,41.10766661961873L196.7277678125,40.462957795461016L197.30657937499998,41.18111352920532L197.88539093749998,39.968039925893144L198.4642025,39.20419489542643L199.0430140625,39.286041800181074L199.62182562499999,38.674839591979975L200.2006371875,39.98302637736003L200.77944875,40.096249485015875L201.3582603125,40.09150768915813L201.93707187500002,39.12209053039551L202.5158834375,39.627934900919605L203.094695,39.405591074625654L203.6735065625,39.509285322825114L204.25231812500002,39.61126222610474L204.8311296875,41.6513435045878L205.40994125,41.8164208094279L205.98875281250002,41.90062163670857L206.56756437500002,42.10977274576823L207.14637593749998,43.69822626113891L207.72518749999998,44.0484146753947L208.3039990625,44.02458120981853L208.882810625,43.38769238789876L209.46162218749998,43.33926439285278L210.04043375,41.01932096481323L210.6192453125,41.13270533879598L211.198056875,41.63229710261027L211.77686843749999,42.09802576700847L212.35568,41.9430346806844L212.9344915625,43.41761719385783L213.513303125,41.30748408635457L214.09211468750001,42.08183972040811L214.67092625,42.0872859954834L215.2497378125,41.48492231369019L215.82854937500002,41.658128007253005L216.40736093750002,41.53705094655354L216.9861725,41.85988915761312L217.5649840625,42.290645662943525L218.14379562500002,42.541007391611735L218.7226071875,43.02653503417969L219.30141874999998,43.02653503417969L219.88023031249998,43.903832340240484L220.459041875,44.16463677088419L221.0378534375,43.4681077003479L221.61666499999998,44.912142976125075L222.1954765625,44.381463591257734L222.774288125,44.66635611852009L223.3530996875,44.28190002441406L223.93191125,44.17172400156656L224.5107228125,43.964740085601804L225.089534375,42.81838830312094L225.6683459375,43.829955387115476L226.24715750000001,44.049215348561596L226.8259690625,41.85043668746948L227.404780625,39.63566436767579L227.98359218750002,39.611621538798005L228.56240375000002,39.383760706583665L229.1412153125,39.106705156962086L229.72002687499997,38.58091751734415L230.2988384375,37.551285775502514L230.87765,35.72553876241047L231.45646156249998,36.147677421569824L232.035273125,36.44292494455974L232.6140846875,36.60128847757974L233.19289625,36.378927675882984L233.77170781249998,36.3324065844218L234.350519375,36.20030117034912L234.9293309375,36.13890396753947L235.5081425,35.0710464477539L236.0869540625,34.211421950658156L236.665765625,33.82773257891338L237.2445771875,35.12820121447246L237.82338875000002,35.10969095230102L238.4022003125,36.36449292500813L238.981011875,35.61784963607788L239.5598234375,35.501138083140056L240.13863500000002,34.203191709518435L240.7174465625,34.74937529563904L241.29625812499998,35.69636653264363L241.8750696875,35.84445994695027L242.45388125,36.09520928064981L243.0326928125,35.36662074724834L243.61150437499998,36.202490997314456L244.1903159375,36.061518764495844L244.7691275,36.43989200592041L245.3479390625,35.97675491968791L245.926750625,35.668600432078044L246.5055621875,35.52171510060628L247.08437375,37.51214049657185L247.6631853125,37.57966864903768L248.241996875,37.51808188756306L248.8208084375,37.72872117360432L249.39962,37.0150016784668L249.97843156250002,36.472679996490484L250.557243125,36.35242624282837L251.1360546875,37.03448661168417L251.71486624999997,36.95203708012898L252.2936778125,37.553812281290696L252.872489375,37.17588605880738L253.45130093749998,37.18122199376423L254.0301125,38.075084463755296L254.6089240625,38.091508165995286L255.187735625,37.02793410619099L255.7665471875,35.60096759796143L256.34535875,35.56188880602519L256.9241703125,35.576926183700564L257.502981875,35.01967322031657L258.0817934375,34.6563458442688L258.66060500000003,34.76069364547729L259.2394165625,34.95698164304097L259.818228125,34.70681796073913L260.3970396875,34.993760267893464L260.97585125,33.96189767519633L261.5546628125,32.71708714167277L262.133474375,32.80605805714925L262.71228593750004,33.20214088757834L263.2910975,33.68721160888671L263.86990906249997,34.25370767911274L264.44872062499996,34.127635606129964L265.0275321875,33.13615183830261L265.60634375,32.83732109069824L266.1851553125,32.24174898465474L266.763966875,31.629925759633373L267.3427784375,31.649386644363403L267.92159,31.727824322382606L268.5004015625,31.676664702097572L269.079213125,31.534986575444545L269.6580246875,32.88371769587198" style="fill: none;" fill="none"></path></g><g><path stroke="rgb(0, 153, 136)" stroke-width="2px" d="M34.6605303125,148.48750394185384L35.239341875,148.48750394185384L35.8181534375,137.82655487060546L36.396964999999994,144.24776128133138L36.9757765625,147.86543464660645L37.554588125,147.86543464660645L38.1333996875,147.86543464660645L38.71221125,153.96535326639813L39.291022812499996,156.51136945088703L39.869834374999996,152.10813102722167L40.448645937500004,140.9661782582601L41.027457500000004,129.78252258300782L41.606269062500004,128.44353675842285L42.185080625,131.53406728108723L42.7638921875,128.11028696695965L43.34270375,127.73193918863932L43.921515312500006,127.73193918863932L44.500326875,126.21433817545572L45.0791384375,130.57254651387532L45.65795,128.80544102986653L46.2367615625,128.80544102986653L46.815573125,128.9718339284261L47.39438468749999,126.94463132222494L47.97319625,128.57905705769855L48.5520078125,125.49892679850262L49.130819375,125.49892679850262L49.7096309375,123.67729632059735L50.288442499999995,124.99046821594239L50.867254062499995,124.99046821594239L51.446065625,122.95983657836913L52.0248771875,124.7132033030192L52.60368875,124.7132033030192L53.1825003125,121.28034680684408L53.761311875,121.76056963602701L54.3401234375,123.2327444712321L54.918935000000005,123.2327444712321L55.497746562500005,121.65261739095052L56.076558125,121.64563484191895L56.6553696875,119.25041681925455L57.23418125,118.15469983418784L57.8129928125,118.2376303354899L58.391804375,118.2376303354899L58.9706159375,114.11472371419272L59.5494275,115.4977097829183L60.1282390625,115.66907081604003L60.707050625,115.66907081604003L61.285862187499994,115.66907081604003L61.86467375,116.99621912638345L62.4434853125,118.00190989176434L63.022296875,116.91327730814618L63.6011084375,114.53569107055664L64.17992,114.10351994832358L64.7587315625,111.12774314880372L65.337543125,107.93469250996908L65.9163546875,105.71507371266684L66.49516625,105.40329214731851L67.07397781249999,105.40329214731851L67.652789375,105.40329214731851L68.2316009375,105.07571779886881L68.8104125,104.94272117614746L69.3892240625,104.94272117614746L69.968035625,102.01295337677001L70.54684718749999,101.08520800272623L71.12565875,101.03986670176188L71.7044703125,101.03986670176188L72.283281875,101.3514954884847L72.8620934375,102.79634558359781L73.440905,102.79634558359781L74.01971656250001,103.29262714385986L74.598528125,103.11222953796387L75.17733968750001,103.11222953796387L75.75615125,101.74926878611247L76.33496281250001,99.00642280578613L76.91377437499999,95.83086249033609L77.4925859375,96.7787010828654L78.0713975,92.03590367635091L78.6502090625,93.59717674255371L79.229020625,92.45606187184653L79.8078321875,92.77373956044515L80.38664375,92.51394233703613L80.96545531250001,93.0153787612915L81.544266875,93.95755888621012L82.1230784375,92.56139424641928L82.70188999999999,90.98913243611655L83.2807015625,90.98913243611655L83.85951312499999,90.31252683003744L84.4383246875,86.04713999430338L85.01713625000001,85.3085402170817L85.5959478125,83.3738478978475L86.17475937500001,83.60255184173585L86.7535709375,84.57911281585693L87.33238250000001,84.85183963775634L87.91119406249999,84.70195814768475L88.490005625,82.97223250071207L89.0688171875,79.66105569203695L89.64762875,79.66105569203695L90.2264403125,80.36915067036945L90.805251875,80.07574780782065L91.3840634375,79.96686191558838L91.96287500000001,81.55942064921061L92.5416865625,79.46894505818683L93.120498125,79.79490674336752L93.69930968749999,77.53262875874837L94.27812125,78.70843003590902L94.85693281249999,73.7671449025472L95.435744375,73.92356758117675L96.0145559375,72.48794078826904L96.5933675,72.23806285858154L97.1721790625,72.18121223449707L97.750990625,72.21284872690836L98.32980218750001,73.44913902282715L98.90861374999999,69.74425735473633L99.4874253125,68.67815113067627L100.066236875,68.74915358225506L100.6450484375,69.1968911488851L101.22386,64.75567874908447L101.8026715625,62.37990322113038L102.381483125,60.56781857808431L102.96029468750001,60.20216840108235L103.53910625,59.416835339864086L104.11791781250001,55.987175877888994L104.69672937499999,53.994611581166595L105.2755409375,51.69847049713135L105.85435249999999,48.537067667643235L106.4331640625,47.7410966873169L107.011975625,47.7410966873169L107.5907871875,47.546335061391204L108.16959875,47.70468727747598L108.7484103125,45.992805608113606L109.327221875,44.825608030955L109.90603343749999,45.71311887105307L110.48484499999999,45.71311887105307L111.0636565625,46.95239683787029L111.642468125,48.666547552744554L112.2212796875,47.670215892791745L112.80009125,47.670215892791745L113.3789028125,47.02466678619385L113.95771437500001,44.79896796544393L114.5365259375,46.09117240905762L115.11533750000001,44.73807436625163L115.69414906249999,44.73807436625163L116.272960625,45.13828080495198L116.85177218749999,45.176215171813965L117.43058375,45.878832753499346L118.0093953125,46.38084917068481L118.588206875,46.80120824178059L119.1670184375,46.81541665395102L119.74583,47.172180207570385L120.3246415625,46.07884826660157L120.90345312500001,45.63894484837849L121.48226468749999,45.655006408691406L122.06107625,45.590038712819414L122.63988781249999,45.590038712819414L123.218699375,46.21826725006103L123.79751093750001,46.41909758249918L124.3763225,46.1369550704956L124.95513406250001,47.546895249684646L125.533945625,47.36866483688354L126.11275718750001,47.621471023559565L126.69156874999999,46.96685705184936L127.2703803125,46.751031780242926L127.849191875,47.02853151957195L128.4280034375,47.91272649765014L129.006815,47.91272649765014L129.5856265625,48.761790879567464L130.164438125,50.68905080159505L130.7432496875,51.120310910542806L131.32206125000002,51.415773455301924L131.9008728125,51.98433062235515L132.479684375,52.301779143015544L133.0584959375,49.85156364440918L133.6373075,50.46778208414714L134.21611906249998,50.574800682067874L134.794930625,49.66720794041951L135.3737421875,48.30572687784831L135.95255375,47.272957515716556L136.53136531250001,46.66435254414876L137.110176875,46.276133569081615L137.6889884375,45.91327584584554L138.2678,44.774653530120844L138.8466115625,42.75610837936401L139.425423125,41.26309340794881L140.0042346875,41.313190650939944L140.58304625,41.18083343505859L141.1618578125,40.41511262257894L141.740669375,40.25842116673787L142.3194809375,39.070383453369146L142.8982925,38.11072432200114L143.4771040625,36.33678623835247L144.05591562499998,36.71990127563477L144.6347271875,38.03857885996501L145.21353875,38.580756251017256L145.7923503125,38.68780031204224L146.371161875,38.39761994679768L146.9499734375,38.29644088745117L147.528785,38.6829594930013L148.1075965625,38.377750237782806L148.686408125,38.14526360829671L149.2652196875,35.2453951517741L149.84403125,34.86788058280945L150.42284281250002,35.948841698964436L151.00165437500002,36.052739651997875L151.58046593749998,36.67969220479329L152.15927749999997,35.47067289352417L152.7380890625,35.80256748199463L153.316900625,36.06893984476724L153.89571218749998,36.76097609202068L154.47452375,35.899714883168535L155.0533353125,35.795302009582514L155.632146875,35.86230392456055L156.2109584375,35.04447428385416L156.78977,35.02412219047547L157.3685815625,35.20783990224202L157.947393125,35.24132671356202L158.5262046875,35.11407060623169L159.10501625,35.872936185201006L159.6838278125,36.02680406570434L160.26263937500002,36.04356727600097L160.8414509375,36.93647629419963L161.4202625,36.698594315846755L161.9990740625,36.70699431101482L162.57788562500002,36.80361830393473L163.1566971875,35.318604405721025L163.73550874999998,34.727666584650684L164.3143203125,34.527314392725636L164.893131875,35.02575465838115L165.4719434375,34.35010391871135L166.05075499999998,34.037339194615676L166.6295665625,33.63829557100931L167.208378125,33.790332937240606L167.7871896875,34.1649687608083L168.36600125,33.29595262209575L168.9448128125,32.59922974904378L169.523624375,31.903563594818106L170.10243593750002,31.439720614751174L170.6812475,30.4167998154958L171.2600590625,30.722801256179807L171.838870625,31.36162951787312L172.41768218750002,31.229938586552944L172.99649375,31.284684260686245L173.5753053125,31.62499440511068L174.15411687499997,34.39498405456543L174.7329284375,34.311762142181394L175.31174,34.360727691650396L175.89055156249998,34.62095495859783L176.469363125,34.50210591952007L177.0481746875,34.73003748257954L177.62698625,34.04035940170289L178.2057978125,34.27353636423746L178.784609375,33.489964501063035L179.3634209375,33.53343143463135L179.9422325,33.145441627502436L180.5210440625,33.10477563540142L181.099855625,33.009532308578486L181.6786671875,32.78508494695027L182.25747875000002,33.070042546590166L182.8362903125,33.12507821718852L183.415101875,33.316645638147996L183.99391343750003,32.93176940282185L184.57272500000002,32.83115477561951L185.15153656249998,33.36093446413677L185.73034812499998,33.02518504460652L186.3091596875,32.96407783826192L186.88797125,33.093962303797404L187.46678281249999,32.580382808049514L188.04559437499998,31.316374508539845L188.6244059375,31.329554494222005L189.2032175,32.83734796841939L189.7820290625,30.289085372289016L190.360840625,29.89920139312744L190.9396521875,29.88747704823812L191.51846375,29.328989124298086L192.09727531250002,28.37450466156005L192.676086875,28.56169384320577L193.2548984375,29.333282486597703L193.83371,29.441572825113926L194.41252156250002,29.436120891571054L194.991333125,30.03802057902019L195.5701446875,29.994526767730722L196.14895625,29.70381592114766L196.7277678125,29.770321305592855L197.30657937499998,29.770321305592855L197.88539093749998,31.104239972432445L198.4642025,31.017956829071036L199.0430140625,32.92900807062785L199.62182562499999,33.14228420257568L200.2006371875,33.36780384381611L200.77944875,33.88530607223511L201.3582603125,33.616458129882815L201.93707187500002,34.009138806660964L202.5158834375,34.11280900637309L203.094695,33.94213264783223L203.6735065625,34.98683854738872L204.25231812500002,35.06584773063659L204.8311296875,34.9184121131897L205.40994125,32.590435075759885L205.98875281250002,33.06137660344441L206.56756437500002,33.34295043945312L207.14637593749998,33.46474188168843L207.72518749999998,33.368330081303924L208.3039990625,34.81839728355408L208.882810625,36.46778259277343L209.46162218749998,36.43313862482707L210.04043375,36.45143245061238L210.6192453125,35.90677665074666L211.198056875,36.18096901575725L211.77686843749999,35.26051174799601L212.35568,35.202652502059934L212.9344915625,35.50301103591919L213.513303125,35.982563336690276L214.09211468750001,36.133140818278L214.67092625,34.535278685887654L215.2497378125,34.114812103907276L215.82854937500002,32.95566794077556L216.40736093750002,33.0410117785136L216.9861725,33.286129522323606L217.5649840625,32.926072740554815L218.14379562500002,32.95859478314717L218.7226071875,32.73968281745911L219.30141874999998,32.65680324236552L219.88023031249998,33.008776903152466L220.459041875,32.54474719365439L221.0378534375,32.38345823287963L221.61666499999998,32.51907472610473L222.1954765625,32.57646431922913L222.774288125,32.862398004531855L223.3530996875,33.03776240348816L223.93191125,33.20423310597737L224.5107228125,32.593692938486726L225.089534375,31.56147103309631L225.6683459375,30.67719117800394L226.24715750000001,30.69104452133179L226.8259690625,30.37094217936198L227.404780625,30.00249106089274L227.98359218750002,29.765249903996786L228.56240375000002,29.96327222188314L229.1412153125,31.09611441294353L229.72002687499997,30.674019606908153L230.2988384375,30.66155400276185L230.87765,30.66155400276185L231.45646156249998,30.955856561660767L232.035273125,31.042755063374837L232.6140846875,30.98430026372274L233.19289625,32.06642136573791L233.77170781249998,32.51320406595867L234.350519375,32.42800734837849L234.9293309375,33.58102763493856L235.5081425,33.64552284876506L236.0869540625,33.5105103969574L236.665765625,33.188155984878534L237.2445771875,33.16262639363607L237.82338875000002,32.94850715001425L238.4022003125,33.52416286468505L238.981011875,33.40247468948364L239.5598234375,33.82730253537497L240.13863500000002,33.996741104125974L240.7174465625,34.028313938776655L241.29625812499998,34.1140807469686L241.8750696875,35.03819055557251L242.45388125,35.24597090085347L243.0326928125,36.02220373153686" style="fill: none;" fill="none"></path></g></g></g></g></g></g><g transform="translate(41, 178)" clip-path="url(#clip_1)"><clipPath id="clip_1"><rect width="288" height="22"></rect></clipPath><g><g><line x1="0" y1="0" x2="0" y2="5" style="visibility: inherit;" fill="rgb(0, 0, 0)" stroke="rgb(204, 204, 204)" stroke-width="1px"></line><line x1="28.8828125" y1="0" x2="28.8828125" y2="5" style="visibility: inherit;" fill="rgb(0, 0, 0)" stroke="rgb(204, 204, 204)" stroke-width="1px"></line><line x1="57.765625" y1="0" x2="57.765625" y2="5" style="visibility: inherit;" fill="rgb(0, 0, 0)" stroke="rgb(204, 204, 204)" stroke-width="1px"></line><line x1="86.6484375" y1="0" x2="86.6484375" y2="5" style="visibility: inherit;" fill="rgb(0, 0, 0)" stroke="rgb(204, 204, 204)" stroke-width="1px"></line><line x1="115.53125" y1="0" x2="115.53125" y2="5" style="visibility: inherit;" fill="rgb(0, 0, 0)" stroke="rgb(204, 204, 204)" stroke-width="1px"></line><line x1="144.4140625" y1="0" x2="144.4140625" y2="5" style="visibility: inherit;" fill="rgb(0, 0, 0)" stroke="rgb(204, 204, 204)" stroke-width="1px"></line><line x1="173.296875" y1="0" x2="173.296875" y2="5" style="visibility: inherit;" fill="rgb(0, 0, 0)" stroke="rgb(204, 204, 204)" stroke-width="1px"></line><line x1="202.1796875" y1="0" x2="202.1796875" y2="5" style="visibility: inherit;" fill="rgb(0, 0, 0)" stroke="rgb(204, 204, 204)" stroke-width="1px"></line><line x1="231.0625" y1="0" x2="231.0625" y2="5" style="visibility: inherit;" fill="rgb(0, 0, 0)" stroke="rgb(204, 204, 204)" stroke-width="1px"></line><line x1="259.9453125" y1="0" x2="259.9453125" y2="5" style="visibility: inherit;" fill="rgb(0, 0, 0)" stroke="rgb(204, 204, 204)" stroke-width="1px"></line><line x1="288.828125" y1="0" x2="288.828125" y2="5" style="visibility: inherit;" fill="rgb(0, 0, 0)" stroke="rgb(204, 204, 204)" stroke-width="1px"></line></g><g transform="translate(0, 8)"><text x="0" y="0" dx="0em" dy="0.95em" style="text-anchor: middle; visibility: hidden; font-family: Roboto, sans-serif; font-size: 12px; font-weight: 200;" fill="rgb(50, 49, 63)" stroke="none" stroke-width="1px">-50k</text><text x="28.8828125" y="0" dx="0em" dy="0.95em" style="text-anchor: middle; visibility: inherit; font-family: Roboto, sans-serif; font-size: 12px; font-weight: 200;" fill="rgb(50, 49, 63)" stroke="none" stroke-width="1px">0</text><text x="57.765625" y="0" dx="0em" dy="0.95em" style="text-anchor: middle; visibility: hidden; font-family: Roboto, sans-serif; font-size: 12px; font-weight: 200;" fill="rgb(50, 49, 63)" stroke="none" stroke-width="1px">50k</text><text x="86.6484375" y="0" dx="0em" dy="0.95em" style="text-anchor: middle; visibility: inherit; font-family: Roboto, sans-serif; font-size: 12px; font-weight: 200;" fill="rgb(50, 49, 63)" stroke="none" stroke-width="1px">100k</text><text x="115.53125" y="0" dx="0em" dy="0.95em" style="text-anchor: middle; visibility: hidden; font-family: Roboto, sans-serif; font-size: 12px; font-weight: 200;" fill="rgb(50, 49, 63)" stroke="none" stroke-width="1px">150k</text><text x="144.4140625" y="0" dx="0em" dy="0.95em" style="text-anchor: middle; visibility: inherit; font-family: Roboto, sans-serif; font-size: 12px; font-weight: 200;" fill="rgb(50, 49, 63)" stroke="none" stroke-width="1px">200k</text><text x="173.296875" y="0" dx="0em" dy="0.95em" style="text-anchor: middle; visibility: hidden; font-family: Roboto, sans-serif; font-size: 12px; font-weight: 200;" fill="rgb(50, 49, 63)" stroke="none" stroke-width="1px">250k</text><text x="202.1796875" y="0" dx="0em" dy="0.95em" style="text-anchor: middle; visibility: inherit; font-family: Roboto, sans-serif; font-size: 12px; font-weight: 200;" fill="rgb(50, 49, 63)" stroke="none" stroke-width="1px">300k</text><text x="231.0625" y="0" dx="0em" dy="0.95em" style="text-anchor: middle; visibility: hidden; font-family: Roboto, sans-serif; font-size: 12px; font-weight: 200;" fill="rgb(50, 49, 63)" stroke="none" stroke-width="1px">350k</text><text x="259.9453125" y="0" dx="0em" dy="0.95em" style="text-anchor: middle; visibility: inherit; font-family: Roboto, sans-serif; font-size: 12px; font-weight: 200;" fill="rgb(50, 49, 63)" stroke="none" stroke-width="1px">400k</text><text x="288.828125" y="0" dx="0em" dy="0.95em" style="text-anchor: middle; visibility: hidden; font-family: Roboto, sans-serif; font-size: 12px; font-weight: 200;" fill="rgb(50, 49, 63)" stroke="none" stroke-width="1px">450k</text></g><line x1="0" y1="0" x2="288.828125" y2="0" fill="rgb(0, 0, 0)" stroke="rgb(204, 204, 204)" stroke-width="1px"></line></g></g></g></g></svg>