<svg viewBox="0 0 330 200" xmlns="http://www.w3.org/2000/svg"><g><g><g><g><g><line x1="50" y1="178" x2="45" y2="178" style="visibility: inherit;" fill="rgb(0, 0, 0)" stroke="rgb(204, 204, 204)" stroke-width="1px"></line><line x1="50" y1="158.2222222222222" x2="45" y2="158.2222222222222" style="visibility: inherit;" fill="rgb(0, 0, 0)" stroke="rgb(204, 204, 204)" stroke-width="1px"></line><line x1="50" y1="138.44444444444446" x2="45" y2="138.44444444444446" style="visibility: inherit;" fill="rgb(0, 0, 0)" stroke="rgb(204, 204, 204)" stroke-width="1px"></line><line x1="50" y1="118.66666666666666" x2="45" y2="118.66666666666666" style="visibility: inherit;" fill="rgb(0, 0, 0)" stroke="rgb(204, 204, 204)" stroke-width="1px"></line><line x1="50" y1="98.8888888888889" x2="45" y2="98.8888888888889" style="visibility: inherit;" fill="rgb(0, 0, 0)" stroke="rgb(204, 204, 204)" stroke-width="1px"></line><line x1="50" y1="79.1111111111111" x2="45" y2="79.1111111111111" style="visibility: inherit;" fill="rgb(0, 0, 0)" stroke="rgb(204, 204, 204)" stroke-width="1px"></line><line x1="50" y1="59.33333333333334" x2="45" y2="59.33333333333334" style="visibility: inherit;" fill="rgb(0, 0, 0)" stroke="rgb(204, 204, 204)" stroke-width="1px"></line><line x1="50" y1="39.55555555555557" x2="45" y2="39.55555555555557" style="visibility: inherit;" fill="rgb(0, 0, 0)" stroke="rgb(204, 204, 204)" stroke-width="1px"></line><line x1="50" y1="19.777777777777786" x2="45" y2="19.777777777777786" style="visibility: inherit;" fill="rgb(0, 0, 0)" stroke="rgb(204, 204, 204)" stroke-width="1px"></line><line x1="50" y1="0" x2="45" y2="0" style="visibility: inherit;" fill="rgb(0, 0, 0)" stroke="rgb(204, 204, 204)" stroke-width="1px"></line></g><g transform="translate(40, 0)"><text x="0" y="178" dx="0em" dy="0.3em" style="text-anchor: end; visibility: hidden; font-family: Roboto, sans-serif; font-size: 12px; font-weight: 200;" fill="rgb(50, 49, 63)" stroke="none" stroke-width="1px">-0.1</text><text x="0" y="158.2222222222222" dx="0em" dy="0.3em" style="text-anchor: end; visibility: inherit; font-family: Roboto, sans-serif; font-size: 12px; font-weight: 200;" fill="rgb(50, 49, 63)" stroke="none" stroke-width="1px">0</text><text x="0" y="138.44444444444446" dx="0em" dy="0.3em" style="text-anchor: end; visibility: hidden; font-family: Roboto, sans-serif; font-size: 12px; font-weight: 200;" fill="rgb(50, 49, 63)" stroke="none" stroke-width="1px">0.1</text><text x="0" y="118.66666666666666" dx="0em" dy="0.3em" style="text-anchor: end; visibility: inherit; font-family: Roboto, sans-serif; font-size: 12px; font-weight: 200;" fill="rgb(50, 49, 63)" stroke="none" stroke-width="1px">0.2</text><text x="0" y="98.8888888888889" dx="0em" dy="0.3em" style="text-anchor: end; visibility: hidden; font-family: Roboto, sans-serif; font-size: 12px; font-weight: 200;" fill="rgb(50, 49, 63)" stroke="none" stroke-width="1px">0.3</text><text x="0" y="79.1111111111111" dx="0em" dy="0.3em" style="text-anchor: end; visibility: inherit; font-family: Roboto, sans-serif; font-size: 12px; font-weight: 200;" fill="rgb(50, 49, 63)" stroke="none" stroke-width="1px">0.4</text><text x="0" y="59.33333333333334" dx="0em" dy="0.3em" style="text-anchor: end; visibility: hidden; font-family: Roboto, sans-serif; font-size: 12px; font-weight: 200;" fill="rgb(50, 49, 63)" stroke="none" stroke-width="1px">0.5</text><text x="0" y="39.55555555555557" dx="0em" dy="0.3em" style="text-anchor: end; visibility: inherit; font-family: Roboto, sans-serif; font-size: 12px; font-weight: 200;" fill="rgb(50, 49, 63)" stroke="none" stroke-width="1px">0.6</text><text x="0" y="19.777777777777786" dx="0em" dy="0.3em" style="text-anchor: end; visibility: hidden; font-family: Roboto, sans-serif; font-size: 12px; font-weight: 200;" fill="rgb(50, 49, 63)" stroke="none" stroke-width="1px">0.7</text><text x="0" y="0" dx="0em" dy="0.3em" style="text-anchor: end; visibility: hidden; font-family: Roboto, sans-serif; font-size: 12px; font-weight: 200;" fill="rgb(50, 49, 63)" stroke="none" stroke-width="1px">0.8</text></g><line x1="50" y1="0" x2="50" y2="178" fill="rgb(0, 0, 0)" stroke="rgb(204, 204, 204)" stroke-width="1px"></line></g></g><g transform="translate(50, 0)" clip-path="url(#clip_0)"><clipPath id="clip_0"><rect width="280" height="178"></rect></clipPath><g><g><g><line x1="0" y1="0" x2="0" y2="178" fill="rgb(0, 0, 0)" stroke="rgb(60, 60, 60)" stroke-width="1px" opacity="0.25"></line><line x1="28" y1="0" x2="28" y2="178" fill="rgb(0, 0, 0)" stroke="rgb(60, 60, 60)" stroke-width="1px" opacity="0.25"></line><line x1="56" y1="0" x2="56" y2="178" fill="rgb(0, 0, 0)" stroke="rgb(60, 60, 60)" stroke-width="1px" opacity="0.25"></line><line x1="84" y1="0" x2="84" y2="178" fill="rgb(0, 0, 0)" stroke="rgb(60, 60, 60)" stroke-width="1px" opacity="0.25"></line><line x1="112" y1="0" x2="112" y2="178" fill="rgb(0, 0, 0)" stroke="rgb(60, 60, 60)" stroke-width="1px" opacity="0.25"></line><line x1="140" y1="0" x2="140" y2="178" fill="rgb(0, 0, 0)" stroke="rgb(60, 60, 60)" stroke-width="1px" opacity="0.25"></line><line x1="168" y1="0" x2="168" y2="178" fill="rgb(0, 0, 0)" stroke="rgb(60, 60, 60)" stroke-width="1px" opacity="0.25"></line><line x1="196" y1="0" x2="196" y2="178" fill="rgb(0, 0, 0)" stroke="rgb(60, 60, 60)" stroke-width="1px" opacity="0.25"></line><line x1="224" y1="0" x2="224" y2="178" fill="rgb(0, 0, 0)" stroke="rgb(60, 60, 60)" stroke-width="1px" opacity="0.25"></line><line x1="252" y1="0" x2="252" y2="178" fill="rgb(0, 0, 0)" stroke="rgb(60, 60, 60)" stroke-width="1px" opacity="0.25"></line><line x1="280" y1="0" x2="280" y2="178" fill="rgb(0, 0, 0)" stroke="rgb(60, 60, 60)" stroke-width="1px" opacity="0.25"></line></g><g><line x1="0" y1="178" x2="280" y2="178" fill="rgb(0, 0, 0)" stroke="rgb(60, 60, 60)" stroke-width="1px" opacity="0.25"></line><line x1="0" y1="158.2222222222222" x2="280" y2="158.2222222222222" fill="rgb(0, 0, 0)" stroke="rgb(60, 60, 60)" stroke-width="1px" opacity="0.25"></line><line x1="0" y1="138.44444444444446" x2="280" y2="138.44444444444446" fill="rgb(0, 0, 0)" stroke="rgb(60, 60, 60)" stroke-width="1px" opacity="0.25"></line><line x1="0" y1="118.66666666666666" x2="280" y2="118.66666666666666" fill="rgb(0, 0, 0)" stroke="rgb(60, 60, 60)" stroke-width="1px" opacity="0.25"></line><line x1="0" y1="98.8888888888889" x2="280" y2="98.8888888888889" fill="rgb(0, 0, 0)" stroke="rgb(60, 60, 60)" stroke-width="1px" opacity="0.25"></line><line x1="0" y1="79.1111111111111" x2="280" y2="79.1111111111111" fill="rgb(0, 0, 0)" stroke="rgb(60, 60, 60)" stroke-width="1px" opacity="0.25"></line><line x1="0" y1="59.33333333333334" x2="280" y2="59.33333333333334" fill="rgb(0, 0, 0)" stroke="rgb(60, 60, 60)" stroke-width="1px" opacity="0.25"></line><line x1="0" y1="39.55555555555557" x2="280" y2="39.55555555555557" fill="rgb(0, 0, 0)" stroke="rgb(60, 60, 60)" stroke-width="1px" opacity="0.25"></line><line x1="0" y1="19.777777777777786" x2="280" y2="19.777777777777786" fill="rgb(0, 0, 0)" stroke="rgb(60, 60, 60)" stroke-width="1px" opacity="0.25"></line><line x1="0" y1="0" x2="280" y2="0" fill="rgb(0, 0, 0)" stroke="rgb(60, 60, 60)" stroke-width="1px" opacity="0.25"></line></g></g></g><g><g><line x1="0" y1="158.2222222222222" x2="280" y2="158.2222222222222" fill="rgb(0, 0, 0)" stroke="rgb(153, 153, 153)" stroke-width="1.5px"></line></g></g><g><g><line x1="28" y1="0" x2="28" y2="178" fill="rgb(0, 0, 0)" stroke="rgb(153, 153, 153)" stroke-width="1.5px"></line></g></g><g><g><g><g><g><path stroke="rgb(0, 119, 187)" stroke-width="2px" d="M33.60112,108.77777777777779L34.162240000000004,98.47685062388581L34.72336,98.68707302557367L35.284479999999995,92.99587593646416L35.8456,88.29339886202514L36.40672,84.44073332691444L36.96784,81.28996368523978L37.528960000000005,76.82741940313689L38.09008,71.86161154967874L38.651199999999996,64.92475561895968L39.21232,59.070988528063324L39.77344,54.00548088285296L40.33456,49.53819625849296L40.89568,48.708934389014686L41.4568,48.563561790605384L42.017920000000004,47.22029578591822L42.57904,45.2452518234742L43.140159999999995,43.46363682000865L43.70128,40.5041460981569L44.2624,37.86429415219872L44.82352,36.28044475696753L45.384640000000005,35.33015735681015L45.94576,37.447960733983365L46.506879999999995,39.95650787326698L47.068,40.607522873913986L47.62912,40.186733342624706L48.19024,39.162444311194854L48.75136,38.95173079083203L49.31248,37.435233665230705L49.8736,35.875630352787624L50.43472,33.14986870459091L50.99584,31.51441194706933L51.55696,31.0079918850326L52.11808,30.704139863287395L52.6792,30.521828655811966L53.240320000000004,32.34412491079997L53.80144000000001,35.22869530039794L54.362559999999995,36.95943752273172L54.92368,37.99788285201896L55.4848,40.28644926069462L56.04592,43.2121688789843L56.60704,45.83267660797226L57.16816,47.40498124455795L57.72928,47.78125825600947L58.2904,48.007024462838665L58.85152,49.49481079206058L59.412639999999996,50.38748258953434L59.97376,50.923085667997235L60.53488,51.960385129517825L61.096000000000004,52.58276480642122L61.657120000000006,54.152831196702834L62.218239999999994,54.5536716116318L62.77936,53.756252577539506L63.34048,53.27780115708504L63.9016,52.4928087320211L64.46272,53.7269076144471L65.02383999999999,54.46736694390241L65.58496,54.435977608052866L66.14608,54.46538244292417L66.7072,55.4707627345771L67.26832,57.015790974079636L67.82943999999999,58.39747050568872L68.39056,59.65082793003237L68.95168,60.40284238463857L69.5128,61.27906799041957L70.07392,61.360677304210625L70.63504,61.82572651976222L71.19616,61.67037670987505L71.75728,61.98468258817921L72.3184,62.17326611516168L72.87952,63.07623928661849L73.44064,64.00084445799813L74.00176,64.50717343577332L74.56287999999999,65.60208117908724L75.124,67.05013853941917L75.68512,67.12786024127475L76.24624,67.17449326238807L76.80736,67.20247307505606L77.36848,68.01037367700047L77.92960000000001,67.7040013238235L78.49072000000001,67.52017791191732L79.05184000000001,67.40988386477362L79.61295999999999,68.134820150831L80.17407999999999,68.56978192246544L80.73519999999999,68.8307589854461L81.29632,68.9873452232345L81.85744,69.87240732255627L82.41856,71.19455493879812L82.97968,71.98784350854322L83.5408,74.04603972138266L84.10192,76.07206780573509L84.66304000000001,77.28768465634654L85.22416,78.808167481057L85.78528,81.30267788918083L86.3464,84.38160720504744L86.90752,87.0200751512162L87.46864,88.60315591891745L88.02976,90.34411473618698L88.59088,91.38869002654867L89.152,92.01543520076571L89.71312,93.97370537628827L90.27423999999999,95.93977783825058L90.83536,97.91053402977158L91.39648,99.88409810133291L91.9576,101.85934690091851L92.51872,104.62671925166222L93.07984,106.28714266210845L93.64096,106.49228635172743L94.20208000000001,105.82425985115519L94.76320000000001,104.6323335941631L95.32432,103.91717783996783L95.88543999999999,101.90586131645833L96.44655999999999,100.69907140235263L97.00768,100.76611016823279L97.5688,100.01522071341729L98.12992,98.77357668387923L98.69104,98.0285902661564L99.25216,97.58159841552269L99.81328,98.10451366179126L100.37440000000001,98.41826280955239L100.93552000000001,100.18873536920141L101.49664,101.25101890499084L102.05776,101.88838902646448L102.61887999999999,101.47970074269992L103.17999999999999,102.02559812908993L103.74112,102.35313656092394L104.30224,102.54965962002434L104.86336,101.87646309883583L105.42448,101.47254518612273L105.9856,101.23019443849485L106.54672,102.66700470321567L107.10784,103.52909086204815L107.66896,104.04634255734764L108.23008,103.56558321787857L108.7912,103.27712761419713L109.35232,102.3129438953395L109.91344000000001,100.94332094968134L110.47456,100.1215471822864L111.03568,99.6284829218495L111.5968,100.12375707993093L112.15791999999999,100.42092157477978L112.71903999999999,101.39033062833785L113.28016,101.18086570382393L113.84128,101.05518674911556L114.4024,102.56200008958808L114.96352,103.4660880938716L115.52464,104.00854089644172L116.08576000000001,103.542902221335L116.64688000000001,103.26351901627099L117.20800000000001,103.09588909323257L117.76911999999999,102.99531113940952L118.33023999999999,102.93496436711571L118.89135999999999,101.31653323274705L119.45248,100.34547455212585L120.0136,99.76283934375311L120.57472,99.4132582187295L121.13584,99.99462225805893L121.69696,101.13455103830535L122.25808,101.02739794980442L122.8192,100.17199338236027L123.38032,99.65875064189377L123.94144,100.1419177119575L124.50256,102.01403866729325L125.06368,103.1373112404947L125.62480000000001,105.39349785540793L126.18592,107.53832135985203L126.74704,109.61632581916729L127.30816,110.86312849475644L127.86928,110.82009974346114L128.4304,111.58539284933275L128.99152,111.25345835620693L129.55264,111.84540801698023L130.11375999999998,112.20057781344417L130.67488,112.41367969132257L131.236,112.5415408180496L131.79712,112.61825749408582L132.35824,114.24651057069991L132.91936,115.22346241666837L133.48048,115.80963352424945L134.0416,118.5346684375918L134.60272,120.16968938559721L135.16384,121.15070195440045L135.72496,120.94819913903363L136.28608,120.82669744981355L136.84720000000002,121.54490679293026L137.40832,122.76694393429648L137.96944,123.50016621911618L138.53056,123.14898805451185L139.09168,123.72939269124541L139.65279999999998,124.07763547328557L140.21392,123.49546960701346L140.77504,122.35505973060145L141.33616,121.67081380475422L141.89728,121.2602662492459L142.4584,120.22282618044471L143.01952,120.39147367466019L143.58064000000002,119.70155063569331L144.14176,119.28759681231317L144.70288000000002,119.0392245182851L145.264,118.89020114186822L145.82512000000003,118.80078711601811L146.38624000000002,118.74713870050805L146.94735999999997,118.71494965120203L147.50848,118.69563622161839L148.06959999999998,119.47515969936438L148.63072,121.52509567815696L149.19183999999998,121.17283537328751L149.75296,120.96147919036589L150.31408,121.62577583726166L150.8752,122.81546536089529L151.43632,122.73816753957931L151.99744,123.4829003822859L152.55856,124.72085162340603L153.11968000000002,125.4636223680781L153.6808,125.11817327938518L154.24192,124.11979229067322L154.80304,122.72965334079731L155.36416,121.89556997087175L155.92528000000001,120.60400841342022L156.4864,120.6201830144455L157.04752000000002,120.62988777506065L157.60864,119.84459909593359L158.16976,119.37342588845733L158.73087999999998,119.0907219639716L159.292,118.92109960928013L159.85312,119.61043773196145L160.41424,120.02404060557025L160.97536,120.27220232973549L161.53647999999998,121.21220972088341L162.0976,123.35843722656455L162.65872,125.43728408662197L163.21984,127.47570373815262L163.78096,127.90764399357484L164.34208,128.95791968232433L164.9032,128.79697356007784L165.46432000000001,127.9092955300812L166.02544,128.16779906873197L166.58656000000002,128.32290119192243L167.14768,128.4159624658367L167.70880000000002,128.4717992301853L168.26992,128.5053012887944L168.83103999999997,128.5254025239599L169.39216,127.74635290841044L169.95327999999998,127.27892313908075L170.5144,126.99846527748294L171.07551999999998,127.62130091717303L171.63664,127.99500230098707L172.19776,129.01033466677166L172.75888,128.82842255074627L173.32,128.71927528113102L173.88112,127.8626765627131L174.44224,127.34871733166233L175.00336000000001,127.83145214968067L175.56448,128.12109304049164L176.12560000000002,127.5037672183295L176.68672,127.92448208168094L177.24784,128.1769109996918L177.80896,125.95503492285722L178.37008,124.62190927675645L178.93120000000002,124.61314542459219L179.49231999999998,125.39899864878981L180.05344,126.66162093995713L180.61455999999998,127.41919431465755L181.17568,127.08262798282901L181.7368,127.67179854038068L182.29792,128.02530087491166L182.85904,128.23740227563025L183.42016,128.3646631160614L183.98128,128.4410196203201L184.5424,128.48683352287532L185.10352,129.30543339990462L185.66464,129.7965933261222L186.22576,130.88240081734895L186.78688,130.7427737765888L187.348,131.4501090876289L187.90912,131.87451027425297L188.47024000000002,132.12915098622742L189.03136,132.28193541341207L189.59248000000002,133.16471701579533L190.15359999999998,133.69438597722527L190.71472,134.80329830015575L191.27584,135.468645693914L191.83695999999998,135.86785413016898L192.39808,136.10737919192195L192.95919999999998,135.45998328290125L193.52032,135.07154573748883L194.08144,134.8384832102414L194.64256,136.28086758603786L195.20368,137.14629821151576L195.7648,138.45666753287497L196.32592,140.03400066118667L196.88704,142.5626227250305L197.44816,144.0797959633368L198.00928000000002,144.99009990632055L198.5704,144.7451710313265L199.13152000000002,143.80710276025758L199.69264,143.24426179761625L200.25376,142.90655722003146L200.81488,142.70393447348056L201.37599999999998,142.58236082555004L201.93712,142.5094166367917L202.49823999999998,142.46565012353673L203.05936,142.4393902155837L203.62048,142.42363427081193L204.1816,143.20529165002134L204.74272,143.67428607754695L205.30384,144.74679397484667L205.86496,145.39029871322649L206.42608,145.7764015562544L206.9872,146.00806326207112L207.54832,146.14706028556114L208.10944,146.23045849965519L208.67056,146.2804974281116L209.23168,146.31052078518545L209.7928,147.11964574550223L210.35392000000002,148.39623196247663L210.91504,149.16218369266124L211.47616000000002,149.62175473077207L212.03727999999998,149.1063861128542L212.5984,148.79716494210348L213.15952,148.61163223965306L213.72064,148.5003126181828L214.28176,149.22463208608497L214.84287999999998,150.45033486025466L215.404,151.97686761818488L215.96511999999998,152.89278727294302L216.52624,153.4423390657979L217.08736,153.77207014151085L217.64848,154.76101988036697L218.2096,155.3543897236807L218.77072,155.7104116296689L219.33184,155.92402477326183L219.89296000000002,156.05219265941759L220.45408,155.33798229768263L221.01520000000002,154.90945608064166L221.57632,154.6523403504171L222.13744000000003,154.49807091228234L222.69856,153.61439815597308L223.25967999999997,153.08419450218756L223.8208,151.97496121648783L224.38191999999998,151.309421245068L224.94304,150.11898602143174L225.50415999999998,149.40472488725L226.06528,148.97616820674097L226.6264,148.71903419843554L227.18752,148.5647537934523L227.74864,148.47218555046234L228.30976,147.62553365859588L228.87088,147.11754252347603L229.43200000000002,146.81274784240412L229.99312,146.62987103376096L230.55424000000002,146.52014494857505L231.11536,146.45430929746354L231.67648,146.4148079067966L232.23760000000001,145.59999583161212L232.79872,145.11110858650144L233.35984,144.81777623943503L233.92095999999998,144.6417768311952L234.48208,144.53617718625125L235.04319999999998,144.4728173992849L235.60432,144.4348015271051L236.16544,145.20310324458157L236.72656,145.6640842750674L237.28768,146.73178383943142L237.8488,147.3724035780498L238.40992,148.5478866620052L238.97104,150.0442876058068L239.53216,150.94212817208776L240.09328,151.48083251185636L240.6544,151.80405511571752L241.21552,151.9979886780342L241.77664000000001,152.1143488154242L242.33776,152.9752759912866L242.89888000000002,152.70072120337565L243.46,153.32709942405748L244.02112,153.70292635646658L244.58223999999998,153.92842251591202L245.14336,154.06372021157932L245.70448,154.14489882897968L246.26559999999998,154.1936059994199L246.82672,155.01394139511243L247.38783999999998,155.50614263252794L247.94896,155.80146337497726L248.51008,155.97865582044685L249.0712,156.0849712877286L249.63232,155.35764947466924L250.19344,154.92125638683365L250.75456,154.65942053413227L251.31568000000001,154.50231902251144L251.8768,154.40805811553895L252.43792000000002,154.35150157135547L252.99904,154.31756764484538L253.56016000000002,154.2972072889393L254.12128,154.28499107539565L254.68240000000003,154.2776613472695L255.24352,154.27326351039378L255.80463999999998,154.27062480826837L256.36575999999997,153.4779304935647L256.92688,153.00231390474252L257.488,152.7169439514492L258.04912,153.3368330729016L258.61024,153.70876654577305L259.17136,153.9319266294959L259.73248,154.06582267972965L260.2936,154.14616030986988L260.85472,153.4032517945256L261.41584,152.95750668531903L261.97696,152.6900596197951L262.53808,152.52959138048075L263.0992,152.43331043689216L263.66032,152.37554187073897L264.22144000000003,152.34088073104706L264.78256,153.11119514066033L265.34368,152.7822726929999L265.90479999999997,152.58491922440362L266.46592,152.46650714324585L267.02704,152.3954598945512L267.58816,151.561720451906L268.14928,151.0614767863189L268.7104,150.76133058696664L269.27152,149.79013162657094L269.83263999999997,149.20741225033353L270.39376,148.85778062459107L270.95488,148.6480016491456L271.516,147.73102331780586L272.07712,147.97194726507448L272.63824,148.11650163343563L273.19936,148.20323425445235L273.76048000000003,148.25527382706238" style="fill: none;" fill="none"></path></g><g><path stroke="rgb(187, 187, 187)" stroke-width="2px" d="M33.60112,140.2424237065845L34.162240000000004,130.87794531302322L34.72336,124.64770080497205L35.284479999999995,118.69116290583233L35.8456,112.00864429540148L36.40672,108.76707876602599L36.96784,105.38025342650425L37.528960000000005,104.3486019562133L38.09008,103.74081375244805L38.651199999999996,102.0830237252511L39.21232,103.44735548293663L39.77344,104.26277978331038L40.33456,106.07114082612242L40.89568,105.35525416720095L41.4568,103.8981806815198L42.017920000000004,100.64442422970724L42.57904,98.69275792716745L43.140159999999995,96.13391261270147L43.70128,94.59877175493772L44.2624,93.67774711146264L44.82352,93.73843205038553L45.384640000000005,94.91961709638196L45.94576,95.51844165359438L46.506879999999995,95.87773336128441L47.068,94.98332734563063L47.62912,93.90851230656057L48.19024,92.76607017488155L48.75136,90.18085178122982L49.31248,88.62972176108245L49.8736,87.32052319796692L50.43472,86.67379468575814L50.99584,86.41133082808426L51.55696,86.25385252684862L52.11808,85.37453371313788L52.6792,83.34862498817277L53.240320000000004,82.13307977548286L53.80144000000001,81.1569727356951L54.362559999999995,79.67008437598962L54.92368,79.22674093476638L55.4848,77.07085855545856L56.04592,75.77732912971825L56.60704,73.82310672935398L57.16816,72.65057328973728L57.72928,72.831412771515L58.2904,73.36551338655325L58.85152,74.50602953176404L59.412639999999996,75.19033921884498L59.97376,75.60092503107717L60.53488,75.84727651841058L61.096000000000004,77.15280988396236L61.657120000000006,78.30408826353663L62.218239999999994,77.90770569770926L62.77936,77.51005509824455L63.34048,77.27146473856617L63.9016,76.11553677054614L64.46272,76.13551511313608L65.02383999999999,76.8313090678818L65.58496,77.24878544072914L66.14608,77.49927126443751L66.7072,78.93511944591165L67.26832,79.79662835479608L67.82943999999999,80.31353370012677L68.39056,81.41478726397389L68.95168,82.07553940228217L69.5128,82.47199068526714L70.07392,82.70986145505815L70.63504,82.85258391693273L71.19616,82.14710703740872L71.75728,81.72382090969431L72.3184,82.26095958971443L72.87952,81.79213244107773L73.44064,83.09305686519323L74.00176,83.87361151966255L74.56287999999999,85.92416738333651L75.124,87.94561125818963L75.68512,89.15847758310152L76.24624,91.46842044904099L76.80736,93.64549652525346L77.36848,96.5339652419733L77.92960000000001,98.26704647200519L78.49072000000001,100.09800556667311L79.05184000000001,101.19658102347384L79.61295999999999,102.64683665420306L80.17407999999999,105.89032463912913L80.73519999999999,108.62752778673355L81.29632,110.26984967529617L81.85744,111.25524280843378L82.41856,111.84647868831631L82.97968,112.20122021624583L83.5408,111.62295477635479L84.10192,112.06710586906894L84.66304000000001,113.12470806019361L85.22416,115.34149126701335L85.78528,118.25378308325013L86.3464,121.58338124398456L86.90752,125.16336203257019L87.46864,127.31135050572155L88.02976,127.80903205411619L88.59088,128.10764098315295L89.152,129.07791787607118L89.71312,130.45119554731835L90.27423999999999,132.0662730961391L90.83536,133.03531962543155L91.39648,134.40785848907947L91.9576,135.23138180726826L92.51872,135.72549579818153L93.07984,136.02196419272946L93.64096,136.19984522945825L94.20208000000001,136.3065738514955L94.76320000000001,136.37061102471787L95.32432,137.99125522079623L95.88543999999999,139.75475327393943L96.44655999999999,140.81285210582533L97.00768,141.4477114049569L97.5688,141.82862698443583L98.12992,142.05717633212316L98.69104,142.1943059407356L99.25216,142.27658370590305L99.81328,141.53483882950735L100.37440000000001,141.08979190366992L100.93552000000001,140.03165280209498L101.49664,139.39676934115002L102.05776,139.01583926458306L102.61887999999999,139.57839216471532L103.17999999999999,141.49814638636337L103.74112,143.4411101601365L104.30224,144.60688842440038L104.86336,145.3063553829587L105.42448,144.9349243173094L105.9856,144.7120656779198L106.54672,144.57835049428604L107.10784,144.49812138410581L107.66896,144.44998391799763L108.23008,145.21221267911707L108.7912,145.66954993578872L109.35232,145.94395228979172L109.91344000000001,146.10859370219353L110.47456,146.99848949570708L111.03568,147.5324269718152L111.5968,147.85278945748007L112.15791999999999,147.25389600280653L112.71903999999999,146.8945599300024L113.28016,145.8878470455356L113.84128,144.49270836878304L114.4024,142.86451362723534L114.96352,141.8875967823067L115.52464,140.51033572927705L116.08576000000001,139.6839790974593L116.64688000000001,139.1881651183686L117.20800000000001,138.09956578484173L117.76911999999999,137.4464061847256L118.33023999999999,137.05451042465592L118.89135999999999,136.81937296861412L119.45248,135.88717954891658L120.0136,135.327863497098L120.57472,134.9922738660069L121.13584,134.79092008735225L121.69696,134.67010782015944L122.25808,135.38873140591622L122.8192,135.8199055573703L123.38032,136.07861004824272L123.94144,137.02494368883868L124.50256,137.59274387319624L125.06368,137.93342398381077L125.62480000000001,138.1378320501795L126.18592,138.26047689000075L126.74704,137.542952847821L127.30816,137.11243842251318L127.86928,136.8541297673285L128.4304,136.69914457421763L128.99152,137.39726440442362L129.55264,137.0250253564747L130.11375999999998,137.59279287377788L130.67488,138.72456433023223L131.236,139.40362720410485L131.79712,139.81106492842844L132.35824,140.05552756302257L132.91936,140.20220514377905L133.48048,140.29021169223293L134.0416,139.55190467523278L134.60272,139.10892046503272L135.16384,138.0520189928402L135.72496,137.41787810952468L136.28608,137.03739357953538L136.84720000000002,136.8091028615418L137.40832,136.67212843074563L137.96944,137.38105471834044L138.53056,138.59752143696974L139.09168,140.909623949716L139.65279999999998,142.29688545736377L140.21392,142.33813141587996L140.77504,143.15398993706216L141.33616,142.85239410369897L141.89728,142.6714366036811L142.4584,142.56286210367034L143.01952,142.4977174036639L143.58064000000002,143.2497415297325L144.14176,143.70095600537365L144.70288000000002,143.97168469075837L145.264,144.13412190198918L145.82512000000003,143.4404732826552L146.38624000000002,142.23317257555863L146.94735999999997,141.5087921513007L147.50848,141.07416389674592L148.06959999999998,140.02227599794057L148.63072,138.60003231258491L149.19183999999998,136.95557515529904L149.75296,135.9689008609275L150.31408,134.58578533823214L150.8752,133.7559160246149L151.43632,132.46688290094838L151.99744,131.69346302674845L152.55856,130.43829956673233L153.11968000000002,129.68520149072268L153.6808,128.4422322884681L154.24192,128.4875611237641L154.80304,128.51475842494173L155.36416,128.5310768056483L155.92528000000001,128.54086783407223L156.4864,128.5467424511266L157.04752000000002,129.3413787568554L157.60864,129.81816054029267L158.16976,130.10422961035502L158.73087999999998,130.27587105239246L159.292,130.37885591761489L159.85312,130.44064683674839L160.41424,130.47772138822847L160.97536,130.49996611911652L161.53647999999998,130.51331295764936L162.0976,130.52132106076905L162.65872,130.52612592264086L163.21984,130.52900883976395L163.78096,131.32185012553398L164.34208,131.79755489699602L164.9032,131.29186622437703L165.46432000000001,130.98845302080565L166.02544,130.80640509866282L166.58656000000002,130.69717634537713L167.14768,130.6316390934057L167.70880000000002,130.59231674222286L168.26992,131.35983486700934L168.83103999999997,132.6114566879537L169.39216,133.3624297805203L169.95327999999998,134.60412458213275L170.5144,134.55803051702773L171.07551999999998,134.53037407796475L171.63664,134.51378021452692L172.19776,134.50382389646427L172.75888,134.4978501056266L173.32,134.49426583112407L173.88112,135.283226212495L174.44224,137.33882433346253L175.00336000000001,138.572183206043L175.56448,139.3121985295913L176.12560000000002,138.96509677764783L176.68672,139.5479466725542L177.24784,139.89765660949803L177.80896,140.8985941071605L178.37008,141.499156605758L178.93120000000002,141.85949410491648L179.49231999999998,142.07569660441158L180.05344,142.20541810410865L180.61455999999998,142.28325100392686L181.17568,142.32995074381782L181.7368,141.5668590522562L182.29792,141.10900403731924L182.85904,140.83429102835706L183.42016,140.66946322297972L183.98128,140.57056653975334L184.5424,140.51122852981752L185.10352,140.475625723856L185.66464,141.2453755757753L186.22576,141.70722548692686L186.78688,141.98433543361782L187.348,142.1506014016324L187.90912,142.25036098244112L188.47024000000002,142.31021673092636L189.03136,142.3461301800175L189.59248000000002,141.57656671397604L190.15359999999998,141.1148286343511L190.71472,141.62889732207236L191.27584,141.14622699920892L191.83695999999998,141.64773634098705L192.39808,142.73975289212638L192.95919999999998,143.39496282281L193.52032,143.78808878122015L194.08144,143.2328534101938L194.64256,142.89971218757796L195.20368,143.49093840008095L195.7648,144.63678536836704L196.32592,146.11540449541118L196.88704,147.00257597163767L197.44816,147.53487885737357L198.00928000000002,147.8542605888151L198.5704,148.04588962768003L199.13152000000002,148.16086705099897L199.69264,148.22985350499036L200.25376,148.27124537738518L200.81488,148.29608050082206L201.37599999999998,147.51987062881173L201.93712,147.05414470560552L202.49823999999998,147.56582009775428L203.05936,147.87282533304352L203.62048,148.05702847421708L204.1816,148.16755035892123L204.74272,148.2338634897437L205.30384,147.4825404221647L205.86496,147.0317465816173L206.42608,147.55238122336135L206.9872,147.86476200840778L207.54832,147.26107953336316L208.10944,146.8988700483364L208.67056,146.68154435732032L209.23168,146.55114894271068L209.7928,146.4729116939449L210.35392000000002,146.42596934468543L210.91504,146.39780393512976L211.47616000000002,146.38090468939635L212.03727999999998,145.57965390117198L212.5984,145.09890342823735L213.15952,144.81045314447655L213.72064,144.63738297422012L214.28176,145.32465211285057L214.84287999999998,144.9459023552445L215.404,144.71865250068086L215.96511999999998,144.58230258794268L216.52624,144.50049264029977L217.08736,144.45140667171404L217.64848,144.4219550905626L218.2096,144.4042841418717L218.77072,143.6025706265847L219.33184,143.1215425174125L219.89296000000002,142.83292565190922L220.45408,142.65975553260722L221.01520000000002,142.555853461026L221.57632,143.28462316414976L222.13744000000003,143.72188498602404L222.69856,143.98424207914857L223.25967999999997,144.93276757580765L223.8208,145.50188287380308L224.38191999999998,145.84335205260035L224.94304,146.0482335598787L225.50415999999998,146.1711624642457L226.06528,147.0360307529384L226.6264,147.554951726154L227.18752,147.86630431008336L227.74864,148.05311586044098L228.30976,148.9563140314399L228.87088,150.28934402746762L229.43200000000002,151.08916202508425L229.99312,150.77794173022585L230.55424000000002,150.5912095533108L231.11536,149.68805900637742L231.67648,149.93727991900175L232.23760000000001,150.08681246657633L232.79872,150.9676430885495L233.35984,151.4961414617334L233.92095999999998,151.0221293922153L234.48208,150.73772215050448L235.04319999999998,150.56707780547796L235.60432,151.2558022918905L236.16544,150.87792589030957L236.72656,150.65120004936105L237.28768,149.72405330400758L237.8488,149.16776525679552L238.40992,148.83399242846826L238.97104,148.63372873147193L239.53216,148.51357051327412L240.09328,148.44147558235545L240.6544,148.3982186238042L241.21552,148.3722644486735L241.77664000000001,148.35669194359505L242.33776,148.347348440548L242.89888000000002,148.34174233871977L243.46,148.3383786776228L244.02112,148.33636048096466L244.58223999999998,148.33514956296975L245.14336,148.33442301217283L245.70448,148.33398708169466L246.26559999999998,148.33372552340774L246.82672,148.3335685884356L247.38783999999998,148.33347442745233L247.94896,149.1245291716467L248.51008,149.5991620181633L249.0712,149.8839417260733L249.63232,150.05480955081924L250.19344,150.15733024566686L250.75456,150.2188426625754L251.31568000000001,150.25575011272053L251.8768,150.2778945828076L252.43792000000002,150.29118126485986L252.99904,151.0902643675196L253.56016000000002,152.36082532254383L254.12128,153.1231618955584L254.68240000000003,153.58056383936713L255.24352,153.85500500565237L255.80463999999998,154.01966970542352L256.36575999999997,154.1184685252862L256.92688,154.17774781720382L257.488,154.21331539235436L258.04912,154.2346559374447L258.61024,154.24746026449893L259.17136,154.25514286073144L259.73248,154.25975241847095L260.2936,154.26251815311466L260.85472,154.26417759390088L261.41584,154.2651732583726" style="fill: none;" fill="none"></path></g><g><path stroke="rgb(0, 153, 136)" stroke-width="2px" d="M33.60112,158.2222222222222L34.162240000000004,158.2222222222222L34.72336,148.13151912401324L35.284479999999995,136.24324066212608L35.8456,131.47919556096383L36.40672,128.8694608653755L36.96784,127.38379056999922L37.528960000000005,128.43523566411275L38.09008,129.81579444074058L38.651199999999996,126.3239181795419L39.21232,115.30994715758641L39.77344,110.88947656236701L40.33456,105.73855370266641L40.89568,98.24614861818007L41.4568,92.93366964986376L42.017920000000004,87.9683254949102L42.57904,84.99001565173268L43.140159999999995,81.54691535800613L43.70128,81.59338593409996L44.2624,82.57828979232774L44.82352,83.16920906058567L45.384640000000005,82.02541517665826L45.94576,82.25577324626752L46.506879999999995,83.25822999628039L47.068,84.09763081495606L47.62912,84.60126977883682L48.19024,85.65079076651436L48.75136,85.73627328034047L49.31248,85.78756275503981L49.8736,85.3247340427937L50.43472,85.71605174145084L50.99584,85.95084232742525L51.55696,85.62267919131973L52.11808,84.36462292360855L52.6792,84.2409959742621L53.240320000000004,84.1668198060144L53.80144000000001,84.72775599747573L54.362559999999995,86.74092638478967L54.92368,88.9630735684448L55.4848,90.77582505601654L56.04592,90.91311509177974L56.60704,90.99548911316715L57.16816,91.51581120067077L57.72928,92.6786631083908L58.2904,92.52571559763881L58.85152,92.43394709119781L59.412639999999996,92.37888598733684L59.97376,92.75788714796617L60.53488,93.77190443463688L61.096000000000004,94.75601112133931L61.657120000000006,95.27900262248772L62.218239999999994,95.18468526214356L62.77936,96.1389588653329L63.34048,97.64462791319546L63.9016,98.4353362440556L64.46272,98.23084886786273L65.02383999999999,98.10815644214703L65.58496,98.03454098671767L66.14608,98.56464016048835L66.7072,99.69459545908943L67.26832,100.37256863825003L67.82943999999999,100.54468882084709L68.39056,100.89229827722403L68.95168,100.75019456704752L69.5128,100.66493234094162L70.07392,100.03607375456598L70.63504,100.13657139626035L71.19616,100.19686998127699L71.75728,99.67367660124381L72.3184,99.35976057322391L72.87952,99.17141095641196L73.44064,97.47618047302727L74.00176,96.45904218299646L74.56287999999999,96.63986956562675L75.124,95.95725563855613L75.68512,95.54768728231376L76.24624,95.30194626856837L76.80736,95.15450166032112L77.36848,95.85714525202152L77.92960000000001,97.06984176369052L78.49072000000001,97.00634931404319L79.05184000000001,96.177143487606L79.61295999999999,97.26184070504122L80.17407999999999,99.49488210649471L80.73519999999999,100.83470694736681L81.29632,101.63860185189009L81.85744,102.9120491512528L82.41856,102.88500717422167L82.97968,103.65989234465175L83.5408,104.1248234469098L84.10192,104.40378210826462L84.66304000000001,103.78004694842876L85.22416,103.40580585252724L85.78528,103.18126119498632L86.3464,103.83764475711052L86.90752,104.23147489438509L87.46864,104.4677729767498L88.02976,103.81844146951985L88.59088,103.4288425651819L89.152,103.19508322257911L89.71312,104.63705068800982L90.27423999999999,105.50223116726825L90.83536,106.0213394548233L91.39648,105.54169171301272L91.9576,106.04501578226999L92.51872,107.13812058047309L93.07984,108.58509499489115L93.64096,109.453279643542L94.20208000000001,109.97419043273248L94.76320000000001,110.28673690624679L95.32432,110.47426479035535L95.88543999999999,110.58678152082051L96.44655999999999,111.44540191574838L97.00768,112.75168568820125L97.5688,113.53545595167299L98.12992,114.79682964525223L98.69104,116.3447642180485L99.25216,118.85574685387124L99.81328,120.36233643536487L100.37440000000001,122.05740171975722L100.93552000000001,123.07444089039264L101.49664,124.4757759282701L102.05776,127.68991037863766L102.61887999999999,130.40950199493068L103.17999999999999,132.83236791077897L103.74112,134.28608746028794L104.30224,135.9494301360658L104.86336,136.94743574153253L105.42448,138.33735005088502L105.9856,139.9624101719927L106.54672,140.9374462446573L107.10784,141.5224678882561L107.66896,141.87348087441532L108.23008,142.0840886661109L108.7912,142.21045334112821L109.35232,142.28627214613863L109.91344000000001,142.33176342914487L110.47456,142.35905819894862L111.03568,140.79321257926222L111.5968,140.6448161535228L112.15791999999999,140.55577829807922L112.71903999999999,139.71124463874057L113.28016,139.20452444313736L113.84128,138.90049232577545L114.4024,137.92696210928585L114.96352,136.55173303331958L115.52464,135.72659558773984L116.08576000000001,135.23151312039198L116.64688000000001,135.72557458605576L117.20800000000001,136.8131224115265L117.76911999999999,137.46565110680893L118.33023999999999,137.85716832397839L118.89135999999999,138.09207865428007L119.45248,137.4419139063886L120.0136,137.8429260037262L120.57472,138.08353326212875L121.13584,138.2278976171703L121.69696,138.3145162301952L122.25808,138.36648739801015L122.8192,139.1887810447716L123.38032,139.68215723282847L123.94144,139.97818294566258L124.50256,140.15579837336307L125.06368,140.26236762998334L125.62480000000001,139.53519823788304L126.18592,138.3077856565504L126.74704,137.57133810775082L127.30816,137.12946957847103L127.86928,136.0732375148307L128.4304,135.4394982766465L128.99152,135.059254733736L129.55264,134.03999766191723L130.11375999999998,133.42844341882596L130.67488,133.06151087297118L131.236,133.6324622915308L131.79712,133.97503314266658L132.35824,134.9716865994205L132.91936,135.56967867347288L133.48048,136.71958486397673L134.0416,138.20063952435154L134.60272,139.88038385607263L135.16384,142.47045264196208L135.72496,144.02449391349572L136.28608,144.95691867641594L136.84720000000002,145.51637353416805L137.40832,145.85204644881932L137.96944,146.84456114368254L138.53056,147.4400699606005L139.09168,147.79737525075126L139.65279999999998,148.0117584248417L140.21392,148.140388329296L140.77504,148.21756627196854L141.33616,148.2638730375721L141.89728,148.29165709693422L142.4584,148.3083275325515L143.01952,148.31832979392186L143.58064000000002,148.32433115074406L144.14176,148.3279319648374L144.70288000000002,149.91231478750612L145.264,150.86294448110738L145.82512000000003,150.6422112038397L146.38624000000002,150.5097712374791L146.94735999999997,150.43030725766275L147.50848,151.96485105662975L148.06959999999998,152.88557733600993L148.63072,153.43801310363804L149.19183999999998,152.97836347078652L149.75296,152.7025736910756L150.31408,152.53709982324904L150.8752,152.43781550255312L151.43632,152.37824491013555L151.99744,152.342502554685L152.55856,152.3210571414147L153.11968000000002,152.3081898934525L153.6808,152.3004695446752L154.24192,151.50472624198042L154.80304,151.02728026036354L155.36416,150.7408126713934L155.92528000000001,150.56893211801133L156.4864,150.46580378598208L157.04752000000002,150.40392678676454L157.60864,150.36680058723402L158.16976,150.3445248675157L158.73087999999998,150.3311594356847L159.292,150.32314017658612L159.85312,150.31832862112697L160.41424,150.31544168785146L160.97536,150.31370952788618L161.53647999999998,150.312670231907L162.0976,150.3120466543195L162.65872,150.31167250776699L163.21984,151.10255911326388L163.78096,152.3682021699904L164.34208,153.12758800402634L164.9032,153.5832195044479L165.46432000000001,154.64770949812922L166.02544,155.28640349433803L166.58656000000002,154.87850879863493L167.14768,154.63377198121302L167.70880000000002,154.4869298907599L168.26992,154.39882463648803L168.83103999999997,154.3459614839249L169.39216,154.31424359238704L169.95327999999998,154.2952128574643L170.5144,154.2837944165107L171.07551999999998,154.27694335193848L171.63664,154.27283271319519L172.19776,155.0614774233776L172.75888,154.74355315605865L173.32,154.55279859566727L173.88112,154.43834585943247L174.44224,154.36967421769157L175.00336000000001,154.32847123264702L175.56448,154.30374944162028L176.12560000000002,154.28891636700428L176.68672,154.28001652223466L177.24784,154.27467661537287L177.80896,154.27147267125582L178.37008,154.26955030478558L178.93120000000002,154.26839688490344L179.49231999999998,154.26770483297415L180.05344,154.2672896018166L180.61455999999998,154.26704046312202L181.17568,154.26689097990533L181.7368,154.26680128997526L182.29792,155.05785856944564L182.85904,155.53249293712787L183.42016,154.23505137088043L183.98128,153.45658643113194L184.5424,152.98950746728286L185.10352,152.70926008897342L185.66464,152.54111166198774L186.22576,153.23133369922473L186.78688,153.6454669215669L187.348,153.89394685497226L187.90912,154.04303481501543L188.47024000000002,154.13248759104135L189.03136,154.1861592566569L189.59248000000002,154.21836225602624L190.15359999999998,154.23768405564783L190.71472,154.24927713542078L191.27584,154.25623298328458L191.83695999999998,153.46929539857442L192.39808,152.99713284774833L192.95919999999998,151.9227242238243L193.52032,151.27807904946985L194.08144,150.89129194485722L194.64256,150.6592196820896L195.20368,150.51997632442905L195.7648,150.43643030983273L196.32592,150.38630270107492L196.88704,150.35622613582026L197.44816,149.5470689558831L198.00928000000002,149.06157464792082L198.5704,148.77027806314345L199.13152000000002,150.17772244648978L199.69264,151.02218907649754L200.25376,151.52886905450222L200.81488,151.832877041305L201.37599999999998,152.0152818333867L201.93712,151.3336136152073L202.49823999999998,150.9246126842997L203.05936,150.6792121257551L203.62048,150.53197179062835L204.1816,150.4436275895523L204.74272,150.39062106890665L205.30384,150.35881715651928L205.86496,150.33973480908688L206.42608,150.3282854006274L206.9872,150.32141575555173L207.54832,150.31729396850633L208.10944,151.10593198970747L208.67056,152.37022589585658L209.23168,153.12880223954605L209.7928,153.5839480457597L210.35392000000002,153.85703552948792L210.91504,154.02088801972485L211.47616000000002,154.119199513867L212.03727999999998,154.17818641035228L212.5984,154.21357854824348L213.15952,154.23481383097817L213.72064,155.0386660940474L214.28176,155.52097745188894L214.84287999999998,155.81036426659384L215.404,155.9839963554168L215.96511999999998,156.08817560871057L216.52624,156.15068316068684L217.08736,156.1881876918726L217.64848,156.21069041058405L218.2096,157.01530313523932L218.77072,157.49807077003248L219.33184,157.7877313509084L219.89296000000002,157.9615276994339L220.45408,158.06580550854926L221.01520000000002,158.12837219401843L221.57632,158.16591220529995L222.13744000000003,158.18843621206886L222.69856,158.2019506161302L223.25967999999997,158.21005925856701L223.8208,158.2149244440291L224.38191999999998,158.21784355530636L224.94304,158.2195950220727L225.50415999999998,158.2206459021325L226.06528,157.43016533673998L226.6264,156.95587699750448L227.18752,156.6713039939632L227.74864,156.50056019183842L228.30976,156.39811391056352L228.87088,156.3366461417986L229.43200000000002,156.29976548053966L229.99312,156.27763708378427L230.55424000000002,156.26436004573105L231.11536,156.25639382289913L231.67648,156.25161408919996L232.23760000000001,156.24874624898047L232.79872,156.24702554484878L233.35984,156.24599312236975L233.92095999999998,156.24537366888234L234.48208,156.24500199678988L235.04319999999998,155.453667900106L235.60432,154.9788674420957" style="fill: none;" fill="none"></path></g></g></g></g><g opacity="0.2"><g><g><g><path stroke="rgb(0, 119, 187)" stroke-width="2px" d="M33.60112,108.77777777777779L34.162240000000004,92.2962943315506L34.72336,98.88888653119406L35.284479999999995,86.30302815967137L35.8456,82.1538447936376L36.40672,79.1111099322637L36.96784,76.78431268533072L37.528960000000005,70.32098699940576L38.09008,64.5380095243454L38.651199999999996,54.624333010779495L39.21232,50.34343112839594L39.77344,46.4347856839498L40.33456,42.851855781343254L40.89568,47.466666195127694L41.4568,48.34567377302381L42.017920000000004,45.20634415414599L42.57904,42.28352165222168L43.140159999999995,40.79166666666668L43.70128,36.06536086400351L44.2624,33.90475752618578L44.82352,33.90475752618578L45.384640000000005,33.90475752618578L45.94576,40.62462398740982L46.506879999999995,43.71929886606005L47.068,41.58404074774849L47.62912,39.555550840165886L48.19024,37.626013384925L48.75136,38.63566083378264L49.31248,35.160489373736915L49.8736,33.53622624609207L50.43472,29.061227136188087L50.99584,29.061227136188087L51.55696,30.24836185243395L52.11808,30.24836185243395L52.6792,30.24836185243395L53.240320000000004,35.077569246292114L53.80144000000001,39.555550840165886L54.362559999999995,39.555550840165886L54.92368,39.555550840165886L55.4848,43.71929886606005L56.04592,47.60074830055237L56.60704,49.76343819830152L57.16816,49.76343819830152L57.72928,48.34567377302381L58.2904,48.34567377302381L58.85152,51.72649028566149L59.412639999999996,51.72649028566149L59.97376,51.72649028566149L60.53488,53.516334321763786L61.096000000000004,53.516334321763786L61.657120000000006,56.50793078210619L62.218239999999994,55.15493223402235L62.77936,52.560124026404495L63.34048,52.560124026404495L63.9016,51.31532009442648L64.46272,55.57805593808493L65.02383999999999,55.57805593808493L65.58496,54.388893604278564L66.14608,54.50948969523113L66.7072,56.978833172056405L67.26832,59.33333333333334L67.82943999999999,60.46998980310229L68.39056,61.530864066547835L68.95168,61.530864066547835L69.5128,62.593406399091094L70.07392,61.48309127489727L70.63504,62.52330034308964L71.19616,61.43735199504429L71.75728,62.456141405635414L72.3184,62.456141405635414L72.87952,64.43069904380376L73.44064,65.38775221506756L74.00176,65.26666690243616L74.56287999999999,67.24444279405806L75.124,69.22222457991707L75.68512,67.24444279405806L76.24624,67.24444279405806L76.80736,67.24444279405806L77.36848,69.22222457991707L77.92960000000001,67.24444279405806L78.49072000000001,67.24444279405806L79.05184000000001,67.24444279405806L79.61295999999999,69.22222457991707L80.17407999999999,69.22222457991707L80.73519999999999,69.22222457991707L81.29632,69.22222457991707L81.85744,71.20000047153898L82.41856,73.17777636316087L82.97968,73.17777636316087L83.5408,77.13333404064178L84.10192,79.1111099322637L84.66304000000001,79.1111099322637L85.22416,81.0888917181227L85.78528,85.04444350136652L86.3464,89.00000117884743L86.90752,90.97777707046932L87.46864,90.97777707046932L88.02976,92.95555296209123L88.59088,92.95555296209123L89.152,92.95555296209123L89.71312,96.91111063957214L90.27423999999999,98.88888653119406L90.83536,100.86666831705307L91.39648,102.84444420867497L91.9576,104.82222010029687L92.51872,108.77777777777779L93.07984,108.77777777777779L93.64096,106.80000188615587L94.20208000000001,104.82222010029687L94.76320000000001,102.84444420867497L95.32432,102.84444420867497L95.88543999999999,98.88888653119406L96.44655999999999,98.88888653119406L97.00768,100.86666831705307L97.5688,98.88888653119406L98.12992,96.91111063957214L98.69104,96.91111063957214L99.25216,96.91111063957214L99.81328,98.88888653119406L100.37440000000001,98.88888653119406L100.93552000000001,102.84444420867497L101.49664,102.84444420867497L102.05776,102.84444420867497L102.61887999999999,100.86666831705307L103.17999999999999,102.84444420867497L103.74112,102.84444420867497L104.30224,102.84444420867497L104.86336,100.86666831705307L105.42448,100.86666831705307L105.9856,100.86666831705307L106.54672,104.82222010029687L107.10784,104.82222010029687L107.66896,104.82222010029687L108.23008,102.84444420867497L108.7912,102.84444420867497L109.35232,100.86666831705307L109.91344000000001,98.88888653119406L110.47456,98.88888653119406L111.03568,98.88888653119406L111.5968,100.86666831705307L112.15791999999999,100.86666831705307L112.71903999999999,102.84444420867497L113.28016,100.86666831705307L113.84128,100.86666831705307L114.4024,104.82222010029687L114.96352,104.82222010029687L115.52464,104.82222010029687L116.08576000000001,102.84444420867497L116.64688000000001,102.84444420867497L117.20800000000001,102.84444420867497L117.76911999999999,102.84444420867497L118.33023999999999,102.84444420867497L118.89135999999999,98.88888653119406L119.45248,98.88888653119406L120.0136,98.88888653119406L120.57472,98.88888653119406L121.13584,100.86666831705307L121.69696,102.84444420867497L122.25808,100.86666831705307L122.8192,98.88888653119406L123.38032,98.88888653119406L123.94144,100.86666831705307L124.50256,104.82222010029687L125.06368,104.82222010029687L125.62480000000001,108.77777777777779L126.18592,110.75555661651825L126.74704,112.73333250814015L127.30816,112.73333250814015L127.86928,110.75555661651825L128.4304,112.73333250814015L128.99152,110.75555661651825L129.55264,112.73333250814015L130.11375999999998,112.73333250814015L130.67488,112.73333250814015L131.236,112.73333250814015L131.79712,112.73333250814015L132.35824,116.68889018562105L132.91936,116.68889018562105L133.48048,116.68889018562105L134.0416,122.62222080760533L134.60272,122.62222080760533L135.16384,122.62222080760533L135.72496,120.64444491598343L136.28608,120.64444491598343L136.84720000000002,122.62222080760533L137.40832,124.5999996463458L137.96944,124.5999996463458L138.53056,122.62222080760533L139.09168,124.5999996463458L139.65279999999998,124.5999996463458L140.21392,122.62222080760533L140.77504,120.64444491598343L141.33616,120.64444491598343L141.89728,120.64444491598343L142.4584,118.66666607724297L143.01952,120.64444491598343L143.58064000000002,118.66666607724297L144.14176,118.66666607724297L144.70288000000002,118.66666607724297L145.264,118.66666607724297L145.82512000000003,118.66666607724297L146.38624000000002,118.66666607724297L146.94735999999997,118.66666607724297L147.50848,118.66666607724297L148.06959999999998,120.64444491598343L148.63072,124.5999996463458L149.19183999999998,120.64444491598343L149.75296,120.64444491598343L150.31408,122.62222080760533L150.8752,124.5999996463458L151.43632,122.62222080760533L151.99744,124.5999996463458L152.55856,126.57777848508623L153.11968000000002,126.57777848508623L153.6808,124.5999996463458L154.24192,122.62222080760533L154.80304,120.64444491598343L155.36416,120.64444491598343L155.92528000000001,118.66666607724297L156.4864,120.64444491598343L157.04752000000002,120.64444491598343L157.60864,118.66666607724297L158.16976,118.66666607724297L158.73087999999998,118.66666607724297L159.292,118.66666607724297L159.85312,120.64444491598343L160.41424,120.64444491598343L160.97536,120.64444491598343L161.53647999999998,122.62222080760533L162.0976,126.57777848508623L162.65872,128.55555437670816L163.21984,130.53333321544858L163.78096,128.55555437670816L164.34208,130.53333321544858L164.9032,128.55555437670816L165.46432000000001,126.57777848508623L166.02544,128.55555437670816L166.58656000000002,128.55555437670816L167.14768,128.55555437670816L167.70880000000002,128.55555437670816L168.26992,128.55555437670816L168.83103999999997,128.55555437670816L169.39216,126.57777848508623L169.95327999999998,126.57777848508623L170.5144,126.57777848508623L171.07551999999998,128.55555437670816L171.63664,128.55555437670816L172.19776,130.53333321544858L172.75888,128.55555437670816L173.32,128.55555437670816L173.88112,126.57777848508623L174.44224,126.57777848508623L175.00336000000001,128.55555437670816L175.56448,128.55555437670816L176.12560000000002,126.57777848508623L176.68672,128.55555437670816L177.24784,128.55555437670816L177.80896,122.62222080760533L178.37008,122.62222080760533L178.93120000000002,124.5999996463458L179.49231999999998,126.57777848508623L180.05344,128.55555437670816L180.61455999999998,128.55555437670816L181.17568,126.57777848508623L181.7368,128.55555437670816L182.29792,128.55555437670816L182.85904,128.55555437670816L183.42016,128.55555437670816L183.98128,128.55555437670816L184.5424,128.55555437670816L185.10352,130.53333321544858L185.66464,130.53333321544858L186.22576,132.51111205418903L186.78688,130.53333321544858L187.348,132.51111205418903L187.90912,132.51111205418903L188.47024000000002,132.51111205418903L189.03136,132.51111205418903L189.59248000000002,134.48888941937022L190.15359999999998,134.48888941937022L190.71472,136.46666678455142L191.27584,136.46666678455142L191.83695999999998,136.46666678455142L192.39808,136.46666678455142L192.95919999999998,134.48888941937022L193.52032,134.48888941937022L194.08144,134.48888941937022L194.64256,138.4444441497326L195.20368,138.4444441497326L195.7648,140.42222151491376L196.32592,142.40000035365424L196.88704,146.3555558207962L197.44816,146.3555558207962L198.00928000000002,146.3555558207962L198.5704,144.3777777188354L199.13152000000002,142.40000035365424L199.69264,142.40000035365424L200.25376,142.40000035365424L200.81488,142.40000035365424L201.37599999999998,142.40000035365424L201.93712,142.40000035365424L202.49823999999998,142.40000035365424L203.05936,142.40000035365424L203.62048,142.40000035365424L204.1816,144.3777777188354L204.74272,144.3777777188354L205.30384,146.3555558207962L205.86496,146.3555558207962L206.42608,146.3555558207962L206.9872,146.3555558207962L207.54832,146.3555558207962L208.10944,146.3555558207962L208.67056,146.3555558207962L209.23168,146.3555558207962L209.7928,148.3333331859774L210.35392000000002,150.31111128793825L210.91504,150.31111128793825L211.47616000000002,150.31111128793825L212.03727999999998,148.3333331859774L212.5984,148.3333331859774L213.15952,148.3333331859774L213.72064,148.3333331859774L214.28176,150.31111128793825L214.84287999999998,152.28888902150922L215.404,154.26666675508022L215.96511999999998,154.26666675508022L216.52624,154.26666675508022L217.08736,154.26666675508022L217.64848,156.24444448865123L218.2096,156.24444448865123L218.77072,156.24444448865123L219.33184,156.24444448865123L219.89296000000002,156.24444448865123L220.45408,154.26666675508022L221.01520000000002,154.26666675508022L221.57632,154.26666675508022L222.13744000000003,154.26666675508022L222.69856,152.28888902150922L223.25967999999997,152.28888902150922L223.8208,150.31111128793825L224.38191999999998,150.31111128793825L224.94304,148.3333331859774L225.50415999999998,148.3333331859774L226.06528,148.3333331859774L226.6264,148.3333331859774L227.18752,148.3333331859774L227.74864,148.3333331859774L228.30976,146.3555558207962L228.87088,146.3555558207962L229.43200000000002,146.3555558207962L229.99312,146.3555558207962L230.55424000000002,146.3555558207962L231.11536,146.3555558207962L231.67648,146.3555558207962L232.23760000000001,144.3777777188354L232.79872,144.3777777188354L233.35984,144.3777777188354L233.92095999999998,144.3777777188354L234.48208,144.3777777188354L235.04319999999998,144.3777777188354L235.60432,144.3777777188354L236.16544,146.3555558207962L236.72656,146.3555558207962L237.28768,148.3333331859774L237.8488,148.3333331859774L238.40992,150.31111128793825L238.97104,152.28888902150922L239.53216,152.28888902150922L240.09328,152.28888902150922L240.6544,152.28888902150922L241.21552,152.28888902150922L241.77664000000001,152.28888902150922L242.33776,154.26666675508022L242.89888000000002,152.28888902150922L243.46,154.26666675508022L244.02112,154.26666675508022L244.58223999999998,154.26666675508022L245.14336,154.26666675508022L245.70448,154.26666675508022L246.26559999999998,154.26666675508022L246.82672,156.24444448865123L247.38783999999998,156.24444448865123L247.94896,156.24444448865123L248.51008,156.24444448865123L249.0712,156.24444448865123L249.63232,154.26666675508022L250.19344,154.26666675508022L250.75456,154.26666675508022L251.31568000000001,154.26666675508022L251.8768,154.26666675508022L252.43792000000002,154.26666675508022L252.99904,154.26666675508022L253.56016000000002,154.26666675508022L254.12128,154.26666675508022L254.68240000000003,154.26666675508022L255.24352,154.26666675508022L255.80463999999998,154.26666675508022L256.36575999999997,152.28888902150922L256.92688,152.28888902150922L257.488,152.28888902150922L258.04912,154.26666675508022L258.61024,154.26666675508022L259.17136,154.26666675508022L259.73248,154.26666675508022L260.2936,154.26666675508022L260.85472,152.28888902150922L261.41584,152.28888902150922L261.97696,152.28888902150922L262.53808,152.28888902150922L263.0992,152.28888902150922L263.66032,152.28888902150922L264.22144000000003,152.28888902150922L264.78256,154.26666675508022L265.34368,152.28888902150922L265.90479999999997,152.28888902150922L266.46592,152.28888902150922L267.02704,152.28888902150922L267.58816,150.31111128793825L268.14928,150.31111128793825L268.7104,150.31111128793825L269.27152,148.3333331859774L269.83263999999997,148.3333331859774L270.39376,148.3333331859774L270.95488,148.3333331859774L271.516,146.3555558207962L272.07712,148.3333331859774L272.63824,148.3333331859774L273.19936,148.3333331859774L273.76048000000003,148.3333331859774" style="fill: none;" fill="none"></path></g><g><path stroke="rgb(187, 187, 187)" stroke-width="2px" d="M33.60112,140.2424237065845L34.162240000000004,125.2592582768864L34.72336,118.66666607724297L35.284479999999995,111.68627433644401L35.8456,103.28394799762303L36.40672,104.28282667530908L36.96784,100.53703900178274L37.528960000000005,102.84444420867497L38.09008,102.84444420867497L38.651199999999996,99.62139874034459L39.21232,105.48147873083752L39.77344,105.48147873083752L40.33456,108.77777777777779L40.89568,104.28282667530908L41.4568,101.71428318818411L42.017920000000004,95.76608435312909L42.57904,95.76608435312909L43.140159999999995,92.2962943315506L43.70128,92.2962943315506L44.2624,92.2962943315506L44.82352,93.82945613066357L45.384640000000005,96.69135579797958L45.94576,96.41666666666669L46.506879999999995,96.41666666666669L47.068,93.64172467920517L47.62912,92.2962943315506L48.19024,91.05240990055933L48.75136,86.30302815967137L49.31248,86.30302815967137L49.8736,85.35672607686784L50.43472,85.70370213190716L50.99584,86.01763509379494L51.55696,86.01763509379494L52.11808,84.05555555555556L52.6792,80.30976198779213L53.240320000000004,80.30976198779213L53.80144000000001,79.6928121911155L54.362559999999995,77.43975185023415L54.92368,78.56172577540082L55.4848,73.83703499370152L56.04592,73.83703499370152L56.60704,70.89177313115862L57.16816,70.89177313115862L57.72928,73.10267199410333L58.2904,74.16666430897185L58.85152,76.21680374940237L59.412639999999996,76.21680374940237L59.97376,76.21680374940237L60.53488,76.21680374940237L61.096000000000004,79.1111099322637L61.657120000000006,80.03100583288405L62.218239999999994,77.31313184897107L62.77936,76.91357919904921L63.34048,76.91357919904921L63.9016,74.3816448185179L64.46272,76.16548262702095L65.02383999999999,77.875L65.58496,77.875L66.14608,77.875L66.7072,81.0888917181227L67.26832,81.0888917181227L67.82943999999999,81.0888917181227L68.39056,83.06666760974461L68.95168,83.06666760974461L69.5128,83.06666760974461L70.07392,83.06666760974461L70.63504,83.06666760974461L71.19616,81.0888917181227L71.75728,81.0888917181227L72.3184,83.06666760974461L72.87952,81.0888917181227L73.44064,85.04444350136652L74.00176,85.04444350136652L74.56287999999999,89.00000117884743L75.124,90.97777707046932L75.68512,90.97777707046932L76.24624,94.93333474795025L76.80736,96.91111063957214L77.36848,100.86666831705307L77.92960000000001,100.86666831705307L78.49072000000001,102.84444420867497L79.05184000000001,102.84444420867497L79.61295999999999,104.82222010029687L80.17407999999999,110.75555661651825L80.73519999999999,112.73333250814015L81.29632,112.73333250814015L81.85744,112.73333250814015L82.41856,112.73333250814015L82.97968,112.73333250814015L83.5408,110.75555661651825L84.10192,112.73333250814015L84.66304000000001,114.71111134688061L85.22416,118.66666607724297L85.78528,122.62222080760533L86.3464,126.57777848508623L86.90752,130.53333321544858L87.46864,130.53333321544858L88.02976,128.55555437670816L88.59088,128.55555437670816L89.152,130.53333321544858L89.71312,132.51111205418903L90.27423999999999,134.48888941937022L90.83536,134.48888941937022L91.39648,136.46666678455142L91.9576,136.46666678455142L92.51872,136.46666678455142L93.07984,136.46666678455142L93.64096,136.46666678455142L94.20208000000001,136.46666678455142L94.76320000000001,136.46666678455142L95.32432,140.42222151491376L95.88543999999999,142.40000035365424L96.44655999999999,142.40000035365424L97.00768,142.40000035365424L97.5688,142.40000035365424L98.12992,142.40000035365424L98.69104,142.40000035365424L99.25216,142.40000035365424L99.81328,140.42222151491376L100.37440000000001,140.42222151491376L100.93552000000001,138.4444441497326L101.49664,138.4444441497326L102.05776,138.4444441497326L102.61887999999999,140.42222151491376L103.17999999999999,144.3777777188354L103.74112,146.3555558207962L104.30224,146.3555558207962L104.86336,146.3555558207962L105.42448,144.3777777188354L105.9856,144.3777777188354L106.54672,144.3777777188354L107.10784,144.3777777188354L107.66896,144.3777777188354L108.23008,146.3555558207962L108.7912,146.3555558207962L109.35232,146.3555558207962L109.91344000000001,146.3555558207962L110.47456,148.3333331859774L111.03568,148.3333331859774L111.5968,148.3333331859774L112.15791999999999,146.3555558207962L112.71903999999999,146.3555558207962L113.28016,144.3777777188354L113.84128,142.40000035365424L114.4024,140.42222151491376L114.96352,140.42222151491376L115.52464,138.4444441497326L116.08576000000001,138.4444441497326L116.64688000000001,138.4444441497326L117.20800000000001,136.46666678455142L117.76911999999999,136.46666678455142L118.33023999999999,136.46666678455142L118.89135999999999,136.46666678455142L119.45248,134.48888941937022L120.0136,134.48888941937022L120.57472,134.48888941937022L121.13584,134.48888941937022L121.69696,134.48888941937022L122.25808,136.46666678455142L122.8192,136.46666678455142L123.38032,136.46666678455142L123.94144,138.4444441497326L124.50256,138.4444441497326L125.06368,138.4444441497326L125.62480000000001,138.4444441497326L126.18592,138.4444441497326L126.74704,136.46666678455142L127.30816,136.46666678455142L127.86928,136.46666678455142L128.4304,136.46666678455142L128.99152,138.4444441497326L129.55264,136.46666678455142L130.11375999999998,138.4444441497326L130.67488,140.42222151491376L131.236,140.42222151491376L131.79712,140.42222151491376L132.35824,140.42222151491376L132.91936,140.42222151491376L133.48048,140.42222151491376L134.0416,138.4444441497326L134.60272,138.4444441497326L135.16384,136.46666678455142L135.72496,136.46666678455142L136.28608,136.46666678455142L136.84720000000002,136.46666678455142L137.40832,136.46666678455142L137.96944,138.4444441497326L138.53056,140.42222151491376L139.09168,144.3777777188354L139.65279999999998,144.3777777188354L140.21392,142.40000035365424L140.77504,144.3777777188354L141.33616,142.40000035365424L141.89728,142.40000035365424L142.4584,142.40000035365424L143.01952,142.40000035365424L143.58064000000002,144.3777777188354L144.14176,144.3777777188354L144.70288000000002,144.3777777188354L145.264,144.3777777188354L145.82512000000003,142.40000035365424L146.38624000000002,140.42222151491376L146.94735999999997,140.42222151491376L147.50848,140.42222151491376L148.06959999999998,138.4444441497326L148.63072,136.46666678455142L149.19183999999998,134.48888941937022L149.75296,134.48888941937022L150.31408,132.51111205418903L150.8752,132.51111205418903L151.43632,130.53333321544858L151.99744,130.53333321544858L152.55856,128.55555437670816L153.11968000000002,128.55555437670816L153.6808,126.57777848508623L154.24192,128.55555437670816L154.80304,128.55555437670816L155.36416,128.55555437670816L155.92528000000001,128.55555437670816L156.4864,128.55555437670816L157.04752000000002,130.53333321544858L157.60864,130.53333321544858L158.16976,130.53333321544858L158.73087999999998,130.53333321544858L159.292,130.53333321544858L159.85312,130.53333321544858L160.41424,130.53333321544858L160.97536,130.53333321544858L161.53647999999998,130.53333321544858L162.0976,130.53333321544858L162.65872,130.53333321544858L163.21984,130.53333321544858L163.78096,132.51111205418903L164.34208,132.51111205418903L164.9032,130.53333321544858L165.46432000000001,130.53333321544858L166.02544,130.53333321544858L166.58656000000002,130.53333321544858L167.14768,130.53333321544858L167.70880000000002,130.53333321544858L168.26992,132.51111205418903L168.83103999999997,134.48888941937022L169.39216,134.48888941937022L169.95327999999998,136.46666678455142L170.5144,134.48888941937022L171.07551999999998,134.48888941937022L171.63664,134.48888941937022L172.19776,134.48888941937022L172.75888,134.48888941937022L173.32,134.48888941937022L173.88112,136.46666678455142L174.44224,140.42222151491376L175.00336000000001,140.42222151491376L175.56448,140.42222151491376L176.12560000000002,138.4444441497326L176.68672,140.42222151491376L177.24784,140.42222151491376L177.80896,142.40000035365424L178.37008,142.40000035365424L178.93120000000002,142.40000035365424L179.49231999999998,142.40000035365424L180.05344,142.40000035365424L180.61455999999998,142.40000035365424L181.17568,142.40000035365424L181.7368,140.42222151491376L182.29792,140.42222151491376L182.85904,140.42222151491376L183.42016,140.42222151491376L183.98128,140.42222151491376L184.5424,140.42222151491376L185.10352,140.42222151491376L185.66464,142.40000035365424L186.22576,142.40000035365424L186.78688,142.40000035365424L187.348,142.40000035365424L187.90912,142.40000035365424L188.47024000000002,142.40000035365424L189.03136,142.40000035365424L189.59248000000002,140.42222151491376L190.15359999999998,140.42222151491376L190.71472,142.40000035365424L191.27584,140.42222151491376L191.83695999999998,142.40000035365424L192.39808,144.3777777188354L192.95919999999998,144.3777777188354L193.52032,144.3777777188354L194.08144,142.40000035365424L194.64256,142.40000035365424L195.20368,144.3777777188354L195.7648,146.3555558207962L196.32592,148.3333331859774L196.88704,148.3333331859774L197.44816,148.3333331859774L198.00928000000002,148.3333331859774L198.5704,148.3333331859774L199.13152000000002,148.3333331859774L199.69264,148.3333331859774L200.25376,148.3333331859774L200.81488,148.3333331859774L201.37599999999998,146.3555558207962L201.93712,146.3555558207962L202.49823999999998,148.3333331859774L203.05936,148.3333331859774L203.62048,148.3333331859774L204.1816,148.3333331859774L204.74272,148.3333331859774L205.30384,146.3555558207962L205.86496,146.3555558207962L206.42608,148.3333331859774L206.9872,148.3333331859774L207.54832,146.3555558207962L208.10944,146.3555558207962L208.67056,146.3555558207962L209.23168,146.3555558207962L209.7928,146.3555558207962L210.35392000000002,146.3555558207962L210.91504,146.3555558207962L211.47616000000002,146.3555558207962L212.03727999999998,144.3777777188354L212.5984,144.3777777188354L213.15952,144.3777777188354L213.72064,144.3777777188354L214.28176,146.3555558207962L214.84287999999998,144.3777777188354L215.404,144.3777777188354L215.96511999999998,144.3777777188354L216.52624,144.3777777188354L217.08736,144.3777777188354L217.64848,144.3777777188354L218.2096,144.3777777188354L218.77072,142.40000035365424L219.33184,142.40000035365424L219.89296000000002,142.40000035365424L220.45408,142.40000035365424L221.01520000000002,142.40000035365424L221.57632,144.3777777188354L222.13744000000003,144.3777777188354L222.69856,144.3777777188354L223.25967999999997,146.3555558207962L223.8208,146.3555558207962L224.38191999999998,146.3555558207962L224.94304,146.3555558207962L225.50415999999998,146.3555558207962L226.06528,148.3333331859774L226.6264,148.3333331859774L227.18752,148.3333331859774L227.74864,148.3333331859774L228.30976,150.31111128793825L228.87088,152.28888902150922L229.43200000000002,152.28888902150922L229.99312,150.31111128793825L230.55424000000002,150.31111128793825L231.11536,148.3333331859774L231.67648,150.31111128793825L232.23760000000001,150.31111128793825L232.79872,152.28888902150922L233.35984,152.28888902150922L233.92095999999998,150.31111128793825L234.48208,150.31111128793825L235.04319999999998,150.31111128793825L235.60432,152.28888902150922L236.16544,150.31111128793825L236.72656,150.31111128793825L237.28768,148.3333331859774L237.8488,148.3333331859774L238.40992,148.3333331859774L238.97104,148.3333331859774L239.53216,148.3333331859774L240.09328,148.3333331859774L240.6544,148.3333331859774L241.21552,148.3333331859774L241.77664000000001,148.3333331859774L242.33776,148.3333331859774L242.89888000000002,148.3333331859774L243.46,148.3333331859774L244.02112,148.3333331859774L244.58223999999998,148.3333331859774L245.14336,148.3333331859774L245.70448,148.3333331859774L246.26559999999998,148.3333331859774L246.82672,148.3333331859774L247.38783999999998,148.3333331859774L247.94896,150.31111128793825L248.51008,150.31111128793825L249.0712,150.31111128793825L249.63232,150.31111128793825L250.19344,150.31111128793825L250.75456,150.31111128793825L251.31568000000001,150.31111128793825L251.8768,150.31111128793825L252.43792000000002,150.31111128793825L252.99904,152.28888902150922L253.56016000000002,154.26666675508022L254.12128,154.26666675508022L254.68240000000003,154.26666675508022L255.24352,154.26666675508022L255.80463999999998,154.26666675508022L256.36575999999997,154.26666675508022L256.92688,154.26666675508022L257.488,154.26666675508022L258.04912,154.26666675508022L258.61024,154.26666675508022L259.17136,154.26666675508022L259.73248,154.26666675508022L260.2936,154.26666675508022L260.85472,154.26666675508022L261.41584,154.26666675508022" style="fill: none;" fill="none"></path></g><g><path stroke="rgb(0, 153, 136)" stroke-width="2px" d="M33.60112,158.2222222222222L34.162240000000004,158.2222222222222L34.72336,138.4444441497326L35.284479999999995,122.2626251909468L35.8456,125.2592582768864L36.40672,125.2592582768864L36.96784,125.2592582768864L37.528960000000005,129.96825270520318L38.09008,131.85185047652988L38.651199999999996,121.1388888888889L39.21232,98.88888653119406L39.77344,104.28282667530908L40.33456,98.02898806995815L40.89568,87.02221939298842L41.4568,84.97119581699371L42.017920000000004,80.52381120787727L42.57904,80.52381120787727L43.140159999999995,76.3831391202079L43.70128,81.66308471891615L44.2624,84.05555555555556L44.82352,84.05555555555556L45.384640000000005,80.30976198779213L45.94576,82.60130580266318L46.506879999999995,84.7619032462438L47.068,85.35672607686784L47.62912,85.35672607686784L48.19024,87.22506956259411L48.75136,85.86449691984389L49.31248,85.86449691984389L49.8736,84.63049123022292L50.43472,86.30302815967137L50.99584,86.30302815967137L51.55696,85.13043452633752L52.11808,82.4775386121538L52.6792,84.05555555555556L53.240320000000004,84.05555555555556L53.80144000000001,85.56916027598912L54.362559999999995,89.76068194707236L54.92368,92.2962943315506L55.4848,93.49495228131613L56.04592,91.11905014514923L56.60704,91.11905014514923L57.16816,92.2962943315506L57.72928,94.42294096946716L58.2904,92.2962943315506L58.85152,92.2962943315506L59.412639999999996,92.2962943315506L59.97376,93.3263888888889L60.53488,95.29293036460876L61.096000000000004,96.23217115137314L61.657120000000006,96.06348987420401L62.218239999999994,95.04320922162798L62.77936,97.57036927011278L63.34048,99.90313148498535L63.9016,99.62139874034459L64.46272,97.92411780357361L65.02383999999999,97.92411780357361L65.58496,97.92411780357361L66.14608,99.35978892114427L66.7072,101.3895284069909L67.26832,101.3895284069909L67.82943999999999,100.80286909474268L68.39056,101.41371246178946L68.95168,100.53703900178274L69.5128,100.53703900178274L70.07392,99.09278587500256L70.63504,100.28731785880196L71.19616,100.28731785880196L71.75728,98.88888653119406L72.3184,98.88888653119406L72.87952,98.88888653119406L73.44064,94.93333474795025L74.00176,94.93333474795025L74.56287999999999,96.91111063957214L75.124,94.93333474795025L75.68512,94.93333474795025L76.24624,94.93333474795025L76.80736,94.93333474795025L77.36848,96.91111063957214L77.92960000000001,98.88888653119406L78.49072000000001,96.91111063957214L79.05184000000001,94.93333474795025L79.61295999999999,98.88888653119406L80.17407999999999,102.84444420867497L80.73519999999999,102.84444420867497L81.29632,102.84444420867497L81.85744,104.82222010029687L82.41856,102.84444420867497L82.97968,104.82222010029687L83.5408,104.82222010029687L84.10192,104.82222010029687L84.66304000000001,102.84444420867497L85.22416,102.84444420867497L85.78528,102.84444420867497L86.3464,104.82222010029687L86.90752,104.82222010029687L87.46864,104.82222010029687L88.02976,102.84444420867497L88.59088,102.84444420867497L89.152,102.84444420867497L89.71312,106.80000188615587L90.27423999999999,106.80000188615587L90.83536,106.80000188615587L91.39648,104.82222010029687L91.9576,106.80000188615587L92.51872,108.77777777777779L93.07984,110.75555661651825L93.64096,110.75555661651825L94.20208000000001,110.75555661651825L94.76320000000001,110.75555661651825L95.32432,110.75555661651825L95.88543999999999,110.75555661651825L96.44655999999999,112.73333250814015L97.00768,114.71111134688061L97.5688,114.71111134688061L98.12992,116.68889018562105L98.69104,118.66666607724297L99.25216,122.62222080760533L99.81328,122.62222080760533L100.37440000000001,124.5999996463458L100.93552000000001,124.5999996463458L101.49664,126.57777848508623L102.05776,132.51111205418903L102.61887999999999,134.48888941937022L103.17999999999999,136.46666678455142L103.74112,136.46666678455142L104.30224,138.4444441497326L104.86336,138.4444441497326L105.42448,140.42222151491376L105.9856,142.40000035365424L106.54672,142.40000035365424L107.10784,142.40000035365424L107.66896,142.40000035365424L108.23008,142.40000035365424L108.7912,142.40000035365424L109.35232,142.40000035365424L109.91344000000001,142.40000035365424L110.47456,142.40000035365424L111.03568,138.4444441497326L111.5968,140.42222151491376L112.15791999999999,140.42222151491376L112.71903999999999,138.4444441497326L113.28016,138.4444441497326L113.84128,138.4444441497326L114.4024,136.46666678455142L114.96352,134.48888941937022L115.52464,134.48888941937022L116.08576000000001,134.48888941937022L116.64688000000001,136.46666678455142L117.20800000000001,138.4444441497326L117.76911999999999,138.4444441497326L118.33023999999999,138.4444441497326L118.89135999999999,138.4444441497326L119.45248,136.46666678455142L120.0136,138.4444441497326L120.57472,138.4444441497326L121.13584,138.4444441497326L121.69696,138.4444441497326L122.25808,138.4444441497326L122.8192,140.42222151491376L123.38032,140.42222151491376L123.94144,140.42222151491376L124.50256,140.42222151491376L125.06368,140.42222151491376L125.62480000000001,138.4444441497326L126.18592,136.46666678455142L126.74704,136.46666678455142L127.30816,136.46666678455142L127.86928,134.48888941937022L128.4304,134.48888941937022L128.99152,134.48888941937022L129.55264,132.51111205418903L130.11375999999998,132.51111205418903L130.67488,132.51111205418903L131.236,134.48888941937022L131.79712,134.48888941937022L132.35824,136.46666678455142L132.91936,136.46666678455142L133.48048,138.4444441497326L134.0416,140.42222151491376L134.60272,142.40000035365424L135.16384,146.3555558207962L135.72496,146.3555558207962L136.28608,146.3555558207962L136.84720000000002,146.3555558207962L137.40832,146.3555558207962L137.96944,148.3333331859774L138.53056,148.3333331859774L139.09168,148.3333331859774L139.65279999999998,148.3333331859774L140.21392,148.3333331859774L140.77504,148.3333331859774L141.33616,148.3333331859774L141.89728,148.3333331859774L142.4584,148.3333331859774L143.01952,148.3333331859774L143.58064000000002,148.3333331859774L144.14176,148.3333331859774L144.70288000000002,152.28888902150922L145.264,152.28888902150922L145.82512000000003,150.31111128793825L146.38624000000002,150.31111128793825L146.94735999999997,150.31111128793825L147.50848,154.26666675508022L148.06959999999998,154.26666675508022L148.63072,154.26666675508022L149.19183999999998,152.28888902150922L149.75296,152.28888902150922L150.31408,152.28888902150922L150.8752,152.28888902150922L151.43632,152.28888902150922L151.99744,152.28888902150922L152.55856,152.28888902150922L153.11968000000002,152.28888902150922L153.6808,152.28888902150922L154.24192,150.31111128793825L154.80304,150.31111128793825L155.36416,150.31111128793825L155.92528000000001,150.31111128793825L156.4864,150.31111128793825L157.04752000000002,150.31111128793825L157.60864,150.31111128793825L158.16976,150.31111128793825L158.73087999999998,150.31111128793825L159.292,150.31111128793825L159.85312,150.31111128793825L160.41424,150.31111128793825L160.97536,150.31111128793825L161.53647999999998,150.31111128793825L162.0976,150.31111128793825L162.65872,150.31111128793825L163.21984,152.28888902150922L163.78096,154.26666675508022L164.34208,154.26666675508022L164.9032,154.26666675508022L165.46432000000001,156.24444448865123L166.02544,156.24444448865123L166.58656000000002,154.26666675508022L167.14768,154.26666675508022L167.70880000000002,154.26666675508022L168.26992,154.26666675508022L168.83103999999997,154.26666675508022L169.39216,154.26666675508022L169.95327999999998,154.26666675508022L170.5144,154.26666675508022L171.07551999999998,154.26666675508022L171.63664,154.26666675508022L172.19776,156.24444448865123L172.75888,154.26666675508022L173.32,154.26666675508022L173.88112,154.26666675508022L174.44224,154.26666675508022L175.00336000000001,154.26666675508022L175.56448,154.26666675508022L176.12560000000002,154.26666675508022L176.68672,154.26666675508022L177.24784,154.26666675508022L177.80896,154.26666675508022L178.37008,154.26666675508022L178.93120000000002,154.26666675508022L179.49231999999998,154.26666675508022L180.05344,154.26666675508022L180.61455999999998,154.26666675508022L181.17568,154.26666675508022L181.7368,154.26666675508022L182.29792,156.24444448865123L182.85904,156.24444448865123L183.42016,152.28888902150922L183.98128,152.28888902150922L184.5424,152.28888902150922L185.10352,152.28888902150922L185.66464,152.28888902150922L186.22576,154.26666675508022L186.78688,154.26666675508022L187.348,154.26666675508022L187.90912,154.26666675508022L188.47024000000002,154.26666675508022L189.03136,154.26666675508022L189.59248000000002,154.26666675508022L190.15359999999998,154.26666675508022L190.71472,154.26666675508022L191.27584,154.26666675508022L191.83695999999998,152.28888902150922L192.39808,152.28888902150922L192.95919999999998,150.31111128793825L193.52032,150.31111128793825L194.08144,150.31111128793825L194.64256,150.31111128793825L195.20368,150.31111128793825L195.7648,150.31111128793825L196.32592,150.31111128793825L196.88704,150.31111128793825L197.44816,148.3333331859774L198.00928000000002,148.3333331859774L198.5704,148.3333331859774L199.13152000000002,152.28888902150922L199.69264,152.28888902150922L200.25376,152.28888902150922L200.81488,152.28888902150922L201.37599999999998,152.28888902150922L201.93712,150.31111128793825L202.49823999999998,150.31111128793825L203.05936,150.31111128793825L203.62048,150.31111128793825L204.1816,150.31111128793825L204.74272,150.31111128793825L205.30384,150.31111128793825L205.86496,150.31111128793825L206.42608,150.31111128793825L206.9872,150.31111128793825L207.54832,150.31111128793825L208.10944,152.28888902150922L208.67056,154.26666675508022L209.23168,154.26666675508022L209.7928,154.26666675508022L210.35392000000002,154.26666675508022L210.91504,154.26666675508022L211.47616000000002,154.26666675508022L212.03727999999998,154.26666675508022L212.5984,154.26666675508022L213.15952,154.26666675508022L213.72064,156.24444448865123L214.28176,156.24444448865123L214.84287999999998,156.24444448865123L215.404,156.24444448865123L215.96511999999998,156.24444448865123L216.52624,156.24444448865123L217.08736,156.24444448865123L217.64848,156.24444448865123L218.2096,158.2222222222222L218.77072,158.2222222222222L219.33184,158.2222222222222L219.89296000000002,158.2222222222222L220.45408,158.2222222222222L221.01520000000002,158.2222222222222L221.57632,158.2222222222222L222.13744000000003,158.2222222222222L222.69856,158.2222222222222L223.25967999999997,158.2222222222222L223.8208,158.2222222222222L224.38191999999998,158.2222222222222L224.94304,158.2222222222222L225.50415999999998,158.2222222222222L226.06528,156.24444448865123L226.6264,156.24444448865123L227.18752,156.24444448865123L227.74864,156.24444448865123L228.30976,156.24444448865123L228.87088,156.24444448865123L229.43200000000002,156.24444448865123L229.99312,156.24444448865123L230.55424000000002,156.24444448865123L231.11536,156.24444448865123L231.67648,156.24444448865123L232.23760000000001,156.24444448865123L232.79872,156.24444448865123L233.35984,156.24444448865123L233.92095999999998,156.24444448865123L234.48208,156.24444448865123L235.04319999999998,154.26666675508022L235.60432,154.26666675508022" style="fill: none;" fill="none"></path></g></g></g></g></g></g><g transform="translate(50, 178)" clip-path="url(#clip_1)"><clipPath id="clip_1"><rect width="280" height="22"></rect></clipPath><g><g><line x1="0" y1="0" x2="0" y2="5" style="visibility: inherit;" fill="rgb(0, 0, 0)" stroke="rgb(204, 204, 204)" stroke-width="1px"></line><line x1="28" y1="0" x2="28" y2="5" style="visibility: inherit;" fill="rgb(0, 0, 0)" stroke="rgb(204, 204, 204)" stroke-width="1px"></line><line x1="56" y1="0" x2="56" y2="5" style="visibility: inherit;" fill="rgb(0, 0, 0)" stroke="rgb(204, 204, 204)" stroke-width="1px"></line><line x1="84" y1="0" x2="84" y2="5" style="visibility: inherit;" fill="rgb(0, 0, 0)" stroke="rgb(204, 204, 204)" stroke-width="1px"></line><line x1="112" y1="0" x2="112" y2="5" style="visibility: inherit;" fill="rgb(0, 0, 0)" stroke="rgb(204, 204, 204)" stroke-width="1px"></line><line x1="140" y1="0" x2="140" y2="5" style="visibility: inherit;" fill="rgb(0, 0, 0)" stroke="rgb(204, 204, 204)" stroke-width="1px"></line><line x1="168" y1="0" x2="168" y2="5" style="visibility: inherit;" fill="rgb(0, 0, 0)" stroke="rgb(204, 204, 204)" stroke-width="1px"></line><line x1="196" y1="0" x2="196" y2="5" style="visibility: inherit;" fill="rgb(0, 0, 0)" stroke="rgb(204, 204, 204)" stroke-width="1px"></line><line x1="224" y1="0" x2="224" y2="5" style="visibility: inherit;" fill="rgb(0, 0, 0)" stroke="rgb(204, 204, 204)" stroke-width="1px"></line><line x1="252" y1="0" x2="252" y2="5" style="visibility: inherit;" fill="rgb(0, 0, 0)" stroke="rgb(204, 204, 204)" stroke-width="1px"></line><line x1="280" y1="0" x2="280" y2="5" style="visibility: inherit;" fill="rgb(0, 0, 0)" stroke="rgb(204, 204, 204)" stroke-width="1px"></line></g><g transform="translate(0, 8)"><text x="0" y="0" dx="0em" dy="0.95em" style="text-anchor: middle; visibility: hidden; font-family: Roboto, sans-serif; font-size: 12px; font-weight: 200;" fill="rgb(50, 49, 63)" stroke="none" stroke-width="1px">-50k</text><text x="28" y="0" dx="0em" dy="0.95em" style="text-anchor: middle; visibility: inherit; font-family: Roboto, sans-serif; font-size: 12px; font-weight: 200;" fill="rgb(50, 49, 63)" stroke="none" stroke-width="1px">0</text><text x="56" y="0" dx="0em" dy="0.95em" style="text-anchor: middle; visibility: hidden; font-family: Roboto, sans-serif; font-size: 12px; font-weight: 200;" fill="rgb(50, 49, 63)" stroke="none" stroke-width="1px">50k</text><text x="84" y="0" dx="0em" dy="0.95em" style="text-anchor: middle; visibility: inherit; font-family: Roboto, sans-serif; font-size: 12px; font-weight: 200;" fill="rgb(50, 49, 63)" stroke="none" stroke-width="1px">100k</text><text x="112" y="0" dx="0em" dy="0.95em" style="text-anchor: middle; visibility: hidden; font-family: Roboto, sans-serif; font-size: 12px; font-weight: 200;" fill="rgb(50, 49, 63)" stroke="none" stroke-width="1px">150k</text><text x="140" y="0" dx="0em" dy="0.95em" style="text-anchor: middle; visibility: inherit; font-family: Roboto, sans-serif; font-size: 12px; font-weight: 200;" fill="rgb(50, 49, 63)" stroke="none" stroke-width="1px">200k</text><text x="168" y="0" dx="0em" dy="0.95em" style="text-anchor: middle; visibility: hidden; font-family: Roboto, sans-serif; font-size: 12px; font-weight: 200;" fill="rgb(50, 49, 63)" stroke="none" stroke-width="1px">250k</text><text x="196" y="0" dx="0em" dy="0.95em" style="text-anchor: middle; visibility: inherit; font-family: Roboto, sans-serif; font-size: 12px; font-weight: 200;" fill="rgb(50, 49, 63)" stroke="none" stroke-width="1px">300k</text><text x="224" y="0" dx="0em" dy="0.95em" style="text-anchor: middle; visibility: hidden; font-family: Roboto, sans-serif; font-size: 12px; font-weight: 200;" fill="rgb(50, 49, 63)" stroke="none" stroke-width="1px">350k</text><text x="252" y="0" dx="0em" dy="0.95em" style="text-anchor: middle; visibility: inherit; font-family: Roboto, sans-serif; font-size: 12px; font-weight: 200;" fill="rgb(50, 49, 63)" stroke="none" stroke-width="1px">400k</text><text x="280" y="0" dx="0em" dy="0.95em" style="text-anchor: middle; visibility: hidden; font-family: Roboto, sans-serif; font-size: 12px; font-weight: 200;" fill="rgb(50, 49, 63)" stroke="none" stroke-width="1px">450k</text></g><line x1="0" y1="0" x2="280" y2="0" fill="rgb(0, 0, 0)" stroke="rgb(204, 204, 204)" stroke-width="1px"></line></g></g></g></g></svg>