<svg viewBox="0 0 330 200" xmlns="http://www.w3.org/2000/svg"><g><g><g><g><g><line x1="72.34375" y1="178" x2="67.34375" y2="178" style="visibility: inherit;" fill="rgb(0, 0, 0)" stroke="rgb(204, 204, 204)" stroke-width="1px"></line><line x1="72.34375" y1="155.75" x2="67.34375" y2="155.75" style="visibility: inherit;" fill="rgb(0, 0, 0)" stroke="rgb(204, 204, 204)" stroke-width="1px"></line><line x1="72.34375" y1="133.5" x2="67.34375" y2="133.5" style="visibility: inherit;" fill="rgb(0, 0, 0)" stroke="rgb(204, 204, 204)" stroke-width="1px"></line><line x1="72.34375" y1="111.25" x2="67.34375" y2="111.25" style="visibility: inherit;" fill="rgb(0, 0, 0)" stroke="rgb(204, 204, 204)" stroke-width="1px"></line><line x1="72.34375" y1="89" x2="67.34375" y2="89" style="visibility: inherit;" fill="rgb(0, 0, 0)" stroke="rgb(204, 204, 204)" stroke-width="1px"></line><line x1="72.34375" y1="66.75" x2="67.34375" y2="66.75" style="visibility: inherit;" fill="rgb(0, 0, 0)" stroke="rgb(204, 204, 204)" stroke-width="1px"></line><line x1="72.34375" y1="44.5" x2="67.34375" y2="44.5" style="visibility: inherit;" fill="rgb(0, 0, 0)" stroke="rgb(204, 204, 204)" stroke-width="1px"></line><line x1="72.34375" y1="22.25" x2="67.34375" y2="22.25" style="visibility: inherit;" fill="rgb(0, 0, 0)" stroke="rgb(204, 204, 204)" stroke-width="1px"></line><line x1="72.34375" y1="0" x2="67.34375" y2="0" style="visibility: inherit;" fill="rgb(0, 0, 0)" stroke="rgb(204, 204, 204)" stroke-width="1px"></line></g><g transform="translate(62.34375, 0)"><text x="0" y="178" dx="0em" dy="0.3em" style="text-anchor: end; visibility: hidden; font-family: Roboto, sans-serif; font-size: 12px; font-weight: 200;" fill="rgb(50, 49, 63)" stroke="none" stroke-width="1px">-200</text><text x="0" y="155.75" dx="0em" dy="0.3em" style="text-anchor: end; visibility: inherit; font-family: Roboto, sans-serif; font-size: 12px; font-weight: 200;" fill="rgb(50, 49, 63)" stroke="none" stroke-width="1px">0</text><text x="0" y="133.5" dx="0em" dy="0.3em" style="text-anchor: end; visibility: hidden; font-family: Roboto, sans-serif; font-size: 12px; font-weight: 200;" fill="rgb(50, 49, 63)" stroke="none" stroke-width="1px">200</text><text x="0" y="111.25" dx="0em" dy="0.3em" style="text-anchor: end; visibility: inherit; font-family: Roboto, sans-serif; font-size: 12px; font-weight: 200;" fill="rgb(50, 49, 63)" stroke="none" stroke-width="1px">400</text><text x="0" y="89" dx="0em" dy="0.3em" style="text-anchor: end; visibility: hidden; font-family: Roboto, sans-serif; font-size: 12px; font-weight: 200;" fill="rgb(50, 49, 63)" stroke="none" stroke-width="1px">600</text><text x="0" y="66.75" dx="0em" dy="0.3em" style="text-anchor: end; visibility: inherit; font-family: Roboto, sans-serif; font-size: 12px; font-weight: 200;" fill="rgb(50, 49, 63)" stroke="none" stroke-width="1px">800</text><text x="0" y="44.5" dx="0em" dy="0.3em" style="text-anchor: end; visibility: hidden; font-family: Roboto, sans-serif; font-size: 12px; font-weight: 200;" fill="rgb(50, 49, 63)" stroke="none" stroke-width="1px">1e+3</text><text x="0" y="22.25" dx="0em" dy="0.3em" style="text-anchor: end; visibility: inherit; font-family: Roboto, sans-serif; font-size: 12px; font-weight: 200;" fill="rgb(50, 49, 63)" stroke="none" stroke-width="1px">1.2e+3</text><text x="0" y="0" dx="0em" dy="0.3em" style="text-anchor: end; visibility: hidden; font-family: Roboto, sans-serif; font-size: 12px; font-weight: 200;" fill="rgb(50, 49, 63)" stroke="none" stroke-width="1px">1.4e+3</text></g><line x1="72.34375" y1="0" x2="72.34375" y2="178" fill="rgb(0, 0, 0)" stroke="rgb(204, 204, 204)" stroke-width="1px"></line></g></g><g transform="translate(72, 0)" clip-path="url(#clip_0)"><clipPath id="clip_0"><rect width="257" height="178"></rect></clipPath><g><g><g><line x1="0" y1="0" x2="0" y2="178" fill="rgb(0, 0, 0)" stroke="rgb(60, 60, 60)" stroke-width="1px" opacity="0.25"></line><line x1="25.765625" y1="0" x2="25.765625" y2="178" fill="rgb(0, 0, 0)" stroke="rgb(60, 60, 60)" stroke-width="1px" opacity="0.25"></line><line x1="51.53125" y1="0" x2="51.53125" y2="178" fill="rgb(0, 0, 0)" stroke="rgb(60, 60, 60)" stroke-width="1px" opacity="0.25"></line><line x1="77.296875" y1="0" x2="77.296875" y2="178" fill="rgb(0, 0, 0)" stroke="rgb(60, 60, 60)" stroke-width="1px" opacity="0.25"></line><line x1="103.0625" y1="0" x2="103.0625" y2="178" fill="rgb(0, 0, 0)" stroke="rgb(60, 60, 60)" stroke-width="1px" opacity="0.25"></line><line x1="128.828125" y1="0" x2="128.828125" y2="178" fill="rgb(0, 0, 0)" stroke="rgb(60, 60, 60)" stroke-width="1px" opacity="0.25"></line><line x1="154.59375" y1="0" x2="154.59375" y2="178" fill="rgb(0, 0, 0)" stroke="rgb(60, 60, 60)" stroke-width="1px" opacity="0.25"></line><line x1="180.359375" y1="0" x2="180.359375" y2="178" fill="rgb(0, 0, 0)" stroke="rgb(60, 60, 60)" stroke-width="1px" opacity="0.25"></line><line x1="206.125" y1="0" x2="206.125" y2="178" fill="rgb(0, 0, 0)" stroke="rgb(60, 60, 60)" stroke-width="1px" opacity="0.25"></line><line x1="231.890625" y1="0" x2="231.890625" y2="178" fill="rgb(0, 0, 0)" stroke="rgb(60, 60, 60)" stroke-width="1px" opacity="0.25"></line><line x1="257.65625" y1="0" x2="257.65625" y2="178" fill="rgb(0, 0, 0)" stroke="rgb(60, 60, 60)" stroke-width="1px" opacity="0.25"></line></g><g><line x1="0" y1="178" x2="257.65625" y2="178" fill="rgb(0, 0, 0)" stroke="rgb(60, 60, 60)" stroke-width="1px" opacity="0.25"></line><line x1="0" y1="155.75" x2="257.65625" y2="155.75" fill="rgb(0, 0, 0)" stroke="rgb(60, 60, 60)" stroke-width="1px" opacity="0.25"></line><line x1="0" y1="133.5" x2="257.65625" y2="133.5" fill="rgb(0, 0, 0)" stroke="rgb(60, 60, 60)" stroke-width="1px" opacity="0.25"></line><line x1="0" y1="111.25" x2="257.65625" y2="111.25" fill="rgb(0, 0, 0)" stroke="rgb(60, 60, 60)" stroke-width="1px" opacity="0.25"></line><line x1="0" y1="89" x2="257.65625" y2="89" fill="rgb(0, 0, 0)" stroke="rgb(60, 60, 60)" stroke-width="1px" opacity="0.25"></line><line x1="0" y1="66.75" x2="257.65625" y2="66.75" fill="rgb(0, 0, 0)" stroke="rgb(60, 60, 60)" stroke-width="1px" opacity="0.25"></line><line x1="0" y1="44.5" x2="257.65625" y2="44.5" fill="rgb(0, 0, 0)" stroke="rgb(60, 60, 60)" stroke-width="1px" opacity="0.25"></line><line x1="0" y1="22.25" x2="257.65625" y2="22.25" fill="rgb(0, 0, 0)" stroke="rgb(60, 60, 60)" stroke-width="1px" opacity="0.25"></line><line x1="0" y1="0" x2="257.65625" y2="0" fill="rgb(0, 0, 0)" stroke="rgb(60, 60, 60)" stroke-width="1px" opacity="0.25"></line></g></g></g><g><g><line x1="0" y1="155.75" x2="257.65625" y2="155.75" fill="rgb(0, 0, 0)" stroke="rgb(153, 153, 153)" stroke-width="1.5px"></line></g></g><g><g><line x1="25.765625" y1="0" x2="25.765625" y2="178" fill="rgb(0, 0, 0)" stroke="rgb(153, 153, 153)" stroke-width="1.5px"></line></g></g><g><g><g><g><g><path stroke="rgb(0, 119, 187)" stroke-width="2px" d="M30.919780625,42.330625L31.43612375,46.88569595336914L31.952466875,41.084630432128904L32.46881,45.36977210998535L32.985153125,42.26644439697266L33.50149625,50.51491485595703L34.017839375,57.94815856933593L34.5341825,57.528608093261724L35.050525625,59.512896881103515L35.56686875,59.59291893005371L36.083211875,60.19636054992675L36.599555,61.3713028717041L37.115898125,60.78885643005371L37.63224125,63.63944755554199L38.148584375,61.90032432556153L38.6649275,59.804819488525396L39.181270625,60.965L39.697613749999995,65.0847265625L40.213956875,66.81217071533203L40.7303,67.54782356262207L41.246643125,67.54782356262207L41.762986250000004,67.54782356262207L42.279329374999996,64.99104949951172L42.795672499999995,62.987992706298826L43.312015625,63.45243293762206L43.82835875,63.8853125L44.344701875000005,63.83036651611329L44.861045,62.42935935974121L45.377388124999996,63.55341621398925L45.89373125,64.15013557434082L46.410074375,65.68063789367676L46.92641750000001,65.68063789367676L47.442760625,67.8930421447754L47.95910375,67.8930421447754L48.475446875,67.8930421447754L48.99179,64.91122436523438L49.508133125,65.0974309539795L50.02447625,65.0974309539795L50.540819375,65.0974309539795L51.057162500000004,62.4229630279541L51.573505625,65.42631240844726L52.089848749999994,64.86234199523926L52.606191875,64.86234199523926L53.122535,65.2719652557373L53.638878125,65.2719652557373L54.155221250000004,62.92128616333008L54.671564374999996,62.92128616333008L55.1879075,62.92128616333008L55.704250625,62.936414642333986L56.22059375,62.936414642333986L56.736936875000005,62.23643051147461L57.25328,62.66665512084961L57.769623124999995,62.16741531372071L58.28596625,62.16741531372071L58.802309375,62.50295791625976L59.318652500000006,65.24319534301758L59.834995625,65.24319534301758L60.35133875,65.52485801696777L60.867681875,64.96728393554687L61.384025,65.31169448852539L61.900368125,65.7590982055664L62.41671125,66.38044548034668L62.933054375,68.34087364196778L63.4493975,68.34087364196778L63.965740625,67.46762496948242L64.48208375,67.38606155395507L64.99842687499999,66.54185440063476L65.51477,66.81035774230958L66.031113125,65.98998405456543L66.54745625,65.98998405456543L67.063799375,65.41040985107422L67.58014250000001,64.6294394683838L68.09648562500001,65.24256385803223L68.61282874999999,68.0115779876709L69.129171875,70.58145027160644L69.645515,71.64834075927735L70.161858125,71.6550154876709L70.67820125,72.67628967285157L71.194544375,71.6828279876709L71.7108875,72.18011222839355L72.227230625,72.18011222839355L72.74357375000001,71.64388641357422L73.25991687499999,70.921875L73.77626,69.49120162963867L74.292603125,69.49120162963867L74.80894624999999,69.57463912963867L75.325289375,68.51108940124512L75.8416325,68.71133804321289L76.35797562500001,68.98612228393554L76.87431875,68.72246032714844L77.390661875,69.74930244445801L77.90700500000001,68.6312345123291L78.42334812499999,70.09640190124512L78.93969125,69.98626548767089L79.456034375,70.20319755554199L79.9723775,71.46810951232911L80.488720625,72.50384674072265L81.00506375,73.9156095123291L81.521406875,74.00683532714844L82.03775,74.1102970123291L82.55409312500001,74.98361358642578L83.07043624999999,75.31402282714843L83.58677937499999,74.82897445678711L84.1031225,75.08484809875489L84.619465625,74.32834945678711L85.13580875,73.59743614196778L85.652151875,73.59743614196778L86.16849500000001,73.99571304321289L86.684838125,75.07372581481934L87.20118125,75.25172309875488L87.71752437500001,76.7213380432129L88.23386749999999,76.20180244445801L88.750210625,76.20180244445801L89.26655375,76.77919021606445L89.78289687499999,80.29691467285156L90.29924,80.47379837036132L90.815583125,81.87555244445801L91.33192625000001,81.87555244445801L91.848269375,81.45836494445801L92.3646125,81.54180244445801L92.88095562500001,81.12127418518067L93.39729874999999,81.66862228393555L93.913641875,81.66862228393555L94.429985,82.29830108642578L94.946328125,83.3952244567871L95.46267125,84.01377418518067L95.979014375,84.01377418518067L96.4953575,83.23613777160645L97.011700625,83.23613777160645L97.52804375000001,83.92922309875489L98.04438687499999,87.29008804321289L98.56072999999999,87.29008804321289L99.077073125,87.29008804321289L99.59341625,88.34473587036133L100.109759375,88.34473587036133L100.6261025,87.16103424072266L101.14244562500001,86.23321304321288L101.65878875,85.85941467285156L102.175131875,85.85941467285156L102.69147500000001,84.97052825927734L103.20781812499999,84.97052825927734L103.72416125,88.2312654876709L104.240504375,89.32596168518066L104.75684749999999,89.32596168518066L105.273190625,91.82797309875488L105.78953375,90.81671440124512L106.305876875,90.81671440124512L106.82222,91.67L107.33856312500001,90.11027282714844L107.85490625000001,91.45640190124512L108.37124937499999,90.95021575927734L108.8875925,92.15393478393554L109.403935625,91.08037635803223L109.92027875,91.15268478393554L110.436621875,91.6844630432129L110.952965,91.6844630432129L111.469308125,90.66318885803223L111.98565125,91.18939918518066L112.50199437500001,90.86566467285157L113.01833749999999,93.43108940124512L113.534680625,94.87955978393555L114.05102375,96.29799728393554L114.567366875,98.96911087036133L115.08371,98.93796100616456L115.600053125,98.95576141357421L116.11639625000001,98.5574845123291L116.632739375,98.87010013580323L117.1490825,98.83561290740967L117.66542562500001,99.76343750000001L118.18176874999999,101.56568885803222L118.698111875,101.31092540740967L119.214455,101.54677486419678L119.73079812499999,101.09176277160645L120.24714125,102.30104972839356L120.763484375,101.80932662963866L121.2798275,103.75397445678712L121.796170625,106.56748790740967L122.31251375000001,106.13583736419677L122.828856875,107.23832527160644L123.34519999999999,111.71725135803223L123.861543125,111.28337364196777L124.37788625,111.87633804321288L124.894229375,112.30353763580322L125.4105725,112.30353763580322L125.926915625,114.57192337036133L126.44325875,116.01928695678711L126.959601875,116.01928695678711L127.47594500000001,115.81458736419677L127.99228812499999,115.29504837036133L128.50863125,114.67538845062256L129.024974375,114.22148654937743L129.5413175,115.83127418518066L130.057660625,115.83127418518066L130.57400375,115.83127418518066L131.090346875,115.07922649383545L131.60669000000001,113.07895027160644L132.123033125,114.10578899383545L132.63937625,114.00899864196776L133.15571937500002,115.12594959259033L133.6720625,113.67080108642578L134.188405625,112.90206317901611L134.70474875000002,113.68971168518067L135.22109187499998,113.65077350616454L135.73743499999998,113.99676277160646L136.253778125,113.77203899383545L136.77012125,114.43953899383544L137.28646437499998,113.76536087036132L137.8028075,114.06351345062257L138.319150625,114.0724119567871L138.83549374999998,113.66301277160645L139.351836875,113.17351345062255L139.86818,113.31146236419679L140.384523125,113.85770027160645L140.90086625,114.12024864196778L141.417209375,113.50169891357422L141.93355250000002,112.46373790740967L142.449895625,111.88189918518066L142.96623875,112.109963722229L143.48258187500002,110.32217540740967L143.998925,110.60919891357422L144.515268125,109.79151412963867L145.03161125000003,109.2475L145.547954375,109.32648654937745L146.06429749999998,109.4277244567871L146.580640625,109.4277244567871L147.09698375,109.75591331481934L147.61332687499998,110.31327350616455L148.12967,110.00622581481935L148.646013125,109.0639381790161L149.16235625,111.92751209259033L149.678699375,112.14445095062256L150.1950425,112.60057662963868L150.711385625,114.92681114196778L151.22772875,115.09925067901611L151.744071875,115.13373790740967L152.260415,113.68081317901611L152.77675812500001,115.21717540740967L153.29310125,114.73879837036134L153.809444375,114.45399864196777L154.32578750000002,114.57637432098389L154.842130625,113.44385013580322L155.35847374999997,114.05016399383544L155.874816875,113.26807662963867L156.39115999999999,113.26807662963867L156.907503125,112.99106182098389L157.42384625,113.16238777160645L157.940189375,113.75646236419678L158.4565325,113.93668682098388L158.972875625,114.89788845062256L159.48921875,114.50072513580322L160.005561875,113.9900880432129L160.521905,114.0724119567871L161.038248125,114.65202350616455L161.55459125000002,114.16475135803222L162.070934375,113.723088722229L162.5872775,114.92125L163.10362062500002,114.92125L163.61996375,114.59973587036133L164.136306875,113.94002418518066L164.65265000000002,114.11913845062256L165.168993125,114.58193885803223L165.68533624999998,115.02471168518066L166.201679375,114.311598777771L166.7180225,114.49071304321289L167.23436562499998,116.47207527160644L167.75070875,115.87466331481934L168.267051875,115.8946875L168.78339499999998,115.86353763580323L169.299738125,115.86353763580323L169.81608125,115.56538845062255L170.332424375,114.49182662963867L170.8487675,113.94113777160644L171.365110625,112.88426277160644L171.88145375000002,111.68498790740966L172.397796875,112.30131385803222L172.91414,112.837536277771L173.43048312500002,114.28601345062256L173.94682625000002,114.46623790740966L174.463169375,114.82001209259033L174.9795125,115.46526412963867L175.495855625,116.42868614196777L176.01219874999998,116.90261222839356L176.528541875,117.17517608642578L177.044885,116.92486358642577L177.56122812499999,116.49988777160644L178.07757125,116.45427486419678L178.593914375,116.32745162963867L179.1102575,115.24943885803222L179.626600625,115.30061290740966L180.14294375,116.12052486419677L180.659286875,117.58679904937745L181.17563,116.94600135803222L181.691973125,116.17837364196777L182.20831625,115.91916263580322L182.72465937500002,115.8535255432129L183.2410025,115.73782459259033L183.757345625,116.78802486419679L184.27368875000002,117.65577350616455L184.79003187499998,117.15403831481933L185.30637499999997,117.54786087036132L185.822718125,117.22301277160645L186.33906125,116.70792472839355L186.85540437499998,116.62782459259033L187.3717475,115.2271875L187.888090625,116.87591331481934L188.40443375,118.21425067901612L188.920776875,120.14666263580322L189.43712,120.180036277771L189.953463125,120.49153831481934L190.46980625,121.25137432098389L190.986149375,120.96768817901611L191.50249250000002,120.60167472839356L192.018835625,120.98882595062256L192.53517875,120.60056114196777L193.05152187500002,121.06336154937745L193.567865,121.24469959259034L194.084208125,121.18685081481934L194.60055125000002,122.70096168518066L195.116894375,122.2915625L195.63323749999998,121.67523654937744L196.149580625,120.63393817901611L196.66592375,121.66745162963866L197.18226687499998,121.92888641357422L197.69861,123.378473777771L198.214953125,123.207151222229L198.73129624999999,123.58985149383545L199.247639375,123.01802486419678L199.7639825,122.49070095062257L200.280325625,121.01886222839354L200.79666875,121.32479972839356L201.313011875,120.86756385803223L201.829355,121.73197513580322L202.345698125,121.92221168518066L202.86204125,123.26388641357423L203.37838437500002,122.61641399383545L203.89472750000002,122.88563709259033L204.411070625,122.61196304321288L204.92741375,122.71876209259034L205.443756875,122.15583736419677L205.96009999999998,121.4738743209839L206.476443125,121.80428695678711L206.99278625,121.27584945678711L207.509129375,121.41713912963867L208.0254725,121.093401222229L208.541815625,120.59833736419678L209.05815875,119.89635013580323L209.574501875,120.46594959259033L210.090845,120.14554904937745L210.607188125,120.65729972839355L211.12353125,120.86756385803223L211.639874375,123.00245162963867L212.1562175,123.1704368209839L212.67256062500002,123.072536277771L213.18890375,123.30060081481933L213.705246875,122.5975L214.22159000000002,123.05584945678712L214.73793312499998,125.13733600616456L215.25427624999998,126.22981182098388L215.770619375,126.131911277771L216.2869625,125.61682662963867L216.80330562499998,125.02719959259034L217.31964875,126.03067337036133L217.835991875,125.5623118209839L218.352335,127.1164744567871L218.868678125,127.09422649383545L219.38502125,127.44688709259033L219.901364375,128.0342869567871L220.4177075,127.95974966049195L220.934050625,127.61042472839355L221.45039375000002,128.46148824691772L221.966736875,128.22452520370484L222.48308,128.1032631111145L222.99942312500002,128.23231182098388L223.51576625,127.12648654937743L224.032109375,127.24552486419677L224.5484525,126.84836154937744L225.064795625,125.94389850616454L225.58113874999998,126.410036277771L226.097481875,125.75366195678711L226.613825,125.99396236419678L227.13016812499998,126.57023654937744L227.64651125,126.7004005432129L228.162854375,126.29100135803222L228.6791975,125.91719959259032L229.195540625,125.73363777160645L229.71188375,124.16723587036134L230.228226875,124.44647445678712L230.74457,124.10604972839356L231.260913125,124.41087364196778L231.77725625,124.28627418518067L232.293599375,124.935973777771L232.8099425,124.33300067901612L233.326285625,124.324098777771L233.84262875000002,124.34078899383545L234.358971875,124.597776222229L234.875315,125.7125L235.391658125,125.77257595062255L235.90800124999998,125.6457493209839L236.424344375,125.27528831481933L236.9406875,124.21173858642578L237.457030625,125.99618614196777L237.97337375,126.22202350616456L238.489716875,126.85614986419678L239.00606,126.37332527160645L239.522403125,124.95155040740967L240.03874625,124.19504837036132L240.555089375,124.6667506790161L241.07143250000001,125.33758804321289L241.587775625,124.61891399383545L242.10411875,123.85573722839356L242.62046187500002,123.49973587036132L243.136805,124.37304904937744L243.653148125,125.38542472839356L244.16949125000002,124.59888641357422L244.68583437499998,123.80011222839354L245.20217749999998,125.33425067901612L245.718520625,126.02733600616455L246.23486375,125.17961154937744L246.75120687499998,125.15291263580323L247.26755,125.09283668518066L247.783893125,124.75463912963866L248.30023624999998,125.12621372222901L248.816579375,124.78689918518066L249.3329225,124.53102554321289L249.84926562500002,123.98923858642578L250.36560875,124.25290054321289L250.881951875,126.03735149383544L251.39829500000002,126.21423858642578L251.914638125,126.28098587036132" style="fill: none;" fill="none"></path></g><g><path stroke="rgb(187, 187, 187)" stroke-width="2px" d="M30.919780625,71.35170578002929L31.43612375,73.3508310699463L31.952466875,72.72783378601075L32.46881,74.58985214233398L32.985153125,75.58201690673827L33.50149625,83.07341156005859L34.017839375,85.65786231994629L34.5341825,86.71270027160645L35.050525625,86.71270027160645L35.56686875,83.2479662322998L36.083211875,83.68966621398926L36.599555,83.68966621398926L37.115898125,85.9719140625L37.63224125,85.01522789001464L38.148584375,82.15335830688477L38.6649275,83.93519844055176L39.181270625,83.93519844055176L39.697613749999995,84.0707707977295L40.213956875,84.0707707977295L40.7303,81.86675918579101L41.246643125,82.51645538330078L41.762986250000004,83.67977973937988L42.279329374999996,83.2798935699463L42.795672499999995,83.2798935699463L43.312015625,83.41933631896973L43.82835875,80.95727821350097L44.344701875000005,82.24943229675293L44.861045,82.17734115600587L45.377388124999996,82.17734115600587L45.89373125,83.18182327270507L46.410074375,84.79475135803223L46.92641750000001,84.4705347442627L47.442760625,84.4705347442627L47.95910375,84.40572265625L48.475446875,83.33467658996582L48.99179,83.33467658996582L49.508133125,83.46858535766602L50.02447625,82.31873268127441L50.540819375,83.17946029663086L51.057162500000004,83.6970810699463L51.573505625,83.6970810699463L52.089848749999994,83.73368682861329L52.606191875,83.73368682861329L53.122535,82.67987419128418L53.638878125,82.86873573303222L54.155221250000004,81.96954185485839L54.671564374999996,81.96954185485839L55.1879075,81.96954185485839L55.704250625,81.96954185485839L56.22059375,80.55154571533203L56.736936875000005,79.4855379486084L57.25328,79.47927742004394L57.769623124999995,80.19641349792481L58.28596625,80.19641349792481L58.802309375,80.16771827697754L59.318652500000006,80.75329498291016L59.834995625,80.33756736755372L60.35133875,80.33756736755372L60.867681875,80.33756736755372L61.384025,80.71076141357422L61.900368125,79.90642608642578L62.41671125,79.90642608642578L62.933054375,82.77778831481933L63.4493975,82.59310951232911L63.965740625,82.25268478393555L64.48208375,82.25268478393555L64.99842687499999,81.2581095123291L65.51477,80.35365325927734L66.031113125,80.10556114196777L66.54745625,80.70075271606446L67.063799375,80.69296440124512L67.58014250000001,80.89432662963867L68.09648562500001,80.62621032714844L68.61282874999999,80.96774864196777L69.129171875,84.081635055542L69.645515,84.31080978393555L70.161858125,86.71603424072265L70.67820125,87.30455108642577L71.194544375,86.88513641357422L71.7108875,87.50924728393555L72.227230625,88.21680244445801L72.74357375000001,90.06689048767089L73.25991687499999,89.86997581481933L73.77626,91.8780369567871L74.292603125,92.41092201232911L74.80894624999999,92.41092201232911L75.325289375,91.62327690124512L75.8416325,91.82908668518067L76.35797562500001,91.82908668518067L76.87431875,91.43637771606446L77.390661875,90.39285217285156L77.90700500000001,90.24044021606446L78.42334812499999,93.65024864196778L78.93969125,94.01181114196777L79.456034375,94.63703559875489L79.9723775,95.1365470123291L80.488720625,96.43483940124511L81.00506375,99.35737567901612L81.521406875,100.29076141357422L82.03775,101.434411277771L82.55409312500001,102.00957527160645L83.07043624999999,101.69362567901612L83.58677937499999,101.517848777771L84.1031225,100.50324932098388L84.619465625,101.85938709259034L85.13580875,102.8650880432129L85.652151875,102.8650880432129L86.16849500000001,104.87426277160645L86.684838125,105.37377418518066L87.20118125,107.54203899383545L87.71752437500001,107.94921100616455L88.23386749999999,109.30757595062255L88.750210625,110.33997581481933L89.26655375,109.54787635803223L89.78289687499999,110.23762432098388L90.29924,110.08854972839356L90.815583125,109.70139850616455L91.33192625000001,109.3732130432129L91.848269375,110.02736358642578L92.3646125,109.45665054321289L92.88095562500001,110.12526412963868L93.39729874999999,110.18867404937744L93.913641875,111.530348777771L94.429985,112.02986358642579L94.946328125,113.92778831481934L95.46267125,115.84128627777099L95.979014375,116.59333736419677L96.4953575,116.80804904937744L97.011700625,116.36304904937745L97.52804375000001,116.36193885803223L98.04438687499999,116.12608600616454L98.56072999999999,116.43425067901612L99.077073125,115.90581317901612L99.59341625,116.01149864196778L100.109759375,115.14931114196777L100.6261025,116.17281249999999L101.14244562500001,117.15848587036132L101.65878875,117.17072513580322L102.175131875,117.09396236419678L102.69147500000001,117.37542472839355L103.20781812499999,117.27084945678712L103.72416125,116.64228763580323L104.240504375,115.99592540740966L104.75684749999999,116.03820095062255L105.273190625,115.79344959259033L105.78953375,115.79344959259033L106.305876875,113.85213912963867L106.82222,113.9478125L107.33856312500001,113.9478125L107.85490625000001,113.60738777160645L108.37124937499999,112.20452350616455L108.8875925,111.70501209259032L109.403935625,110.99412635803222L109.92027875,111.31897445678712L110.436621875,111.3467869567871L110.952965,111.192151222229L111.469308125,111.09425067901611L111.98565125,110.58695095062257L112.50199437500001,110.73602554321289L113.01833749999999,111.22552486419679L113.534680625,111.10760013580322L114.05102375,110.75382595062256L114.567366875,110.79832527160644L115.08371,110.34665054321289L115.600053125,110.22093749999999L116.11639625000001,110.22093749999999L116.632739375,109.06504837036132L117.1490825,107.40520027160645L117.66542562500001,106.78442337036134L118.18176874999999,104.850901222229L118.698111875,105.71531250000001L119.214455,106.77886222839356L119.73079812499999,107.69445095062255L120.24714125,108.41201141357422L120.763484375,107.39296100616454L121.2798275,107.43857391357422L121.796170625,107.13152622222901L122.31251375000001,108.70126209259033L122.828856875,107.46416263580322L123.34519999999999,107.56651412963868L123.861543125,107.56651412963868L124.37788625,107.06143817901611L124.894229375,106.49962364196777L125.4105725,106.18145027160645L125.926915625,106.71544891357422L126.44325875,106.71544891357422L126.959601875,105.37266399383546L127.47594500000001,105.45387432098389L127.99228812499999,106.94462364196778L128.50863125,108.45094959259033L129.024974375,108.08938709259033L129.5413175,108.2050880432129L130.057660625,108.72239986419677L130.57400375,108.68012432098388L131.090346875,108.90818885803222L131.60669000000001,108.54439918518067L132.123033125,108.07158668518066L132.63937625,108.244026222229L133.15571937500002,106.273786277771L133.6720625,106.15141399383545L134.188405625,106.00456317901612L134.70474875000002,104.91542472839356L135.22109187499998,104.27796100616456L135.73743499999998,103.69278831481934L136.253778125,104.14668682098389L136.77012125,103.826286277771L137.28646437499998,102.60587364196778L137.8028075,102.57806114196777L138.319150625,101.62798858642577L138.83549374999998,102.61143817901612L139.351836875,101.84826141357422L139.86818,101.20301277160644L140.384523125,100.4720994567871L140.90086625,100.14280040740967L141.417209375,99.76677486419678L141.93355250000002,101.49671100616456L142.449895625,101.79263641357423L142.96623875,101.90388641357421L143.48258187500002,102.73826141357422L143.998925,102.27212364196777L144.515268125,100.45318885803223L145.03161125000003,100.24514850616455L145.547954375,99.66219959259033L146.06429749999998,99.50311290740967L146.580640625,99.43302486419677L147.09698375,98.94797649383545L147.61332687499998,98.85341331481933L148.12967,98.5029730987549L148.646013125,97.92447174072265L149.16235625,97.80432662963867L149.678699375,98.28158668518066L150.1950425,98.28158668518066L150.711385625,96.78861358642578L151.22772875,96.78861358642578L151.744071875,96.86648994445801L152.260415,98.01792472839355L152.77675812500001,96.764135055542L153.29310125,99.0825880432129L153.809444375,99.85688709259034L154.32578750000002,99.12486358642579L154.842130625,99.31176277160645L155.35847374999997,99.02251209259033L155.874816875,98.83004837036133L156.39115999999999,99.71114986419678L156.907503125,101.05393817901611L157.42384625,101.15962364196778L157.940189375,102.75939918518065L158.4565325,102.31885013580322L158.972875625,102.31885013580322L159.48921875,103.27782459259033L160.005561875,104.35806114196777L160.521905,107.12485149383545L161.038248125,107.12485149383545L161.55459125000002,106.98245162963867L162.070934375,107.13263641357422L162.5872775,108.39643817901612L163.10362062500002,108.10051277160645L163.61996375,109.00942337036133L164.136306875,109.303125L164.65265000000002,109.30646236419678L165.168993125,109.30979972839356L165.68533624999998,110.89733600616455L166.201679375,110.32106182098389L166.7180225,110.74270027160645L167.23436562499998,112.5994630432129L167.75070875,113.07004837036132L168.267051875,113.70417472839355L168.78339499999998,113.40936290740967L169.299738125,113.40936290740967L169.81608125,113.45052486419678L170.332424375,114.02791263580323L170.8487675,114.95239986419678L171.365110625,116.34969959259033L171.88145375000002,116.02485149383546L172.397796875,115.340661277771L172.91414,114.48403831481934L173.43048312500002,115.41186290740967L173.94682625000002,116.76577350616455L174.463169375,116.21508804321289L174.9795125,115.90692337036133L175.495855625,116.52881385803224L176.01219874999998,116.20841331481934L176.528541875,117.04612567901611L177.044885,117.32981182098388L177.56122812499999,116.731286277771L178.07757125,117.47554904937743L178.593914375,116.32967540740967L179.1102575,116.07157459259034L179.626600625,116.04598587036133L180.14294375,117.13623790740967L180.659286875,116.45205108642578L181.17563,116.68011222839355L181.691973125,116.62226345062257L182.20831625,116.423125L182.72465937500002,115.646598777771L183.2410025,115.37292472839356L183.757345625,115.38182662963868L184.27368875000002,115.24053695678711L184.79003187499998,114.23817337036132L185.30637499999997,114.28267608642578L185.822718125,114.16475135803222L186.33906125,113.81987567901612L186.85540437499998,113.90219959259034L187.3717475,113.55287635803222L187.888090625,113.34483600616454L188.40443375,112.71850135803223L188.920776875,112.70181114196777L189.43712,113.2358131790161L189.953463125,111.335661277771L190.46980625,112.92542472839355L190.986149375,113.41047649383545L191.50249250000002,113.475L192.018835625,114.66092540740968L192.53517875,114.93682662963867L193.05152187500002,115.0736619567871L193.567865,114.66537635803223L194.084208125,114.68762432098389L194.60055125000002,113.67191127777099L195.116894375,114.06796100616455L195.63323749999998,114.06796100616455L196.149580625,110.918473777771L196.66592375,110.61810081481934L197.18226687499998,110.8183494567871L197.69861,109.801526222229L198.214953125,110.79276412963867L198.73129624999999,110.83169891357423L199.247639375,111.67274864196777L199.7639825,111.79401412963867L200.280325625,112.084375L200.79666875,113.727536277771L201.313011875,113.43495162963868L201.829355,113.23136222839355L202.345698125,114.12469959259033L202.86204125,116.21286087036133L203.37838437500002,116.119411277771L203.89472750000002,116.07379837036133L204.411070625,116.51323722839356L204.92741375,118.54243614196778L205.443756875,118.91067337036134L205.96009999999998,119.85852554321289L206.476443125,120.12663845062255L206.99278625,120.06544891357422L207.509129375,119.85518817901611L208.0254725,119.81958736419678L208.541815625,119.09201141357423L209.05815875,119.37125L209.574501875,119.4402244567871L210.090845,120.0109375L210.607188125,120.97213912963866L211.12353125,122.47067337036133L211.639874375,122.81777622222901L212.1562175,123.02247581481933L212.67256062500002,122.484026222229L213.18890375,122.59861358642578L213.705246875,122.77104972839356L214.22159000000002,123.51308872222901L214.73793312499998,122.94571304321289L215.25427624999998,122.766598777771L215.770619375,122.43729972839355L216.2869625,122.08352554321289L216.80330562499998,122.22258804321288L217.31964875,121.93556114196778L217.835991875,122.07239986419677L218.352335,121.36929904937745L218.868678125,122.04792472839355L219.38502125,122.58860149383545L219.901364375,122.82L220.4177075,120.71403831481933L220.934050625,120.43257595062255L221.45039375000002,120.86311290740966L221.966736875,120.21563709259033L222.48308,120.99995162963867L222.99942312500002,121.44050067901611L223.51576625,121.54729972839355L224.032109375,120.46038845062256L224.5484525,121.60292472839356L225.064795625,120.875348777771L225.58113874999998,121.49167472839355L226.097481875,120.95656249999999L226.613825,120.0832493209839L227.13016812499998,120.27682662963866L227.64651125,121.29587364196777L228.162854375,122.24038845062256L228.6791975,122.35942337036133L229.195540625,122.21479972839356L229.71188375,122.68983600616454L230.228226875,123.09367404937744L230.74457,122.34830108642578L231.260913125,122.08352554321289L231.77725625,122.2359375L232.293599375,121.92666263580323L232.8099425,122.20923858642578L233.326285625,123.67328899383546L233.84262875000002,123.34287635803223L234.358971875,122.67426277160644L234.875315,121.21466331481933L235.391658125,120.55495162963868L235.90800124999998,120.54827350616455L236.424344375,121.315901222229L236.9406875,121.78203899383544L237.457030625,123.10479972839354L237.97337375,123.70554904937744L238.489716875,123.74671100616456L239.00606,123.82236358642578L239.522403125,123.94807662963868L240.03874625,124.14832527160644L240.555089375,122.03791263580322" style="fill: none;" fill="none"></path></g><g><path stroke="rgb(0, 153, 136)" stroke-width="2px" d="M30.919780625,34.32062500000001L31.43612375,34.32062500000001L31.952466875,47.74850135803223L32.46881,44.419088439941405L32.985153125,39.79041213989258L33.50149625,39.79041213989258L34.017839375,39.79041213989258L34.5341825,32.51679153442383L35.050525625,29.607329711914062L35.56686875,33.388906250000005L36.083211875,44.700248641967775L36.599555,54.042213439941406L37.115898125,55.79913368225098L37.63224125,57.066802444458006L38.148584375,60.06675674438476L38.6649275,61.14777076721191L39.181270625,61.14777076721191L39.697613749999995,62.30383644104003L40.213956875,57.566490402221675L40.7303,57.9508203125L41.246643125,57.9508203125L41.762986250000004,58.456816329956055L42.279329374999996,59.51875L42.795672499999995,57.500354232788084L43.312015625,58.813191146850585L43.82835875,58.813191146850585L44.344701875000005,59.726983871459964L44.861045,56.95728393554687L45.377388124999996,56.95728393554687L45.89373125,58.111305770874026L46.410074375,56.53775382995606L46.92641750000001,56.53775382995606L47.442760625,59.35429229736329L47.95910375,58.567210769653315L48.475446875,57.115284194946284L48.99179,57.115284194946284L49.508133125,57.532145767211915L50.02447625,56.70754859924317L50.540819375,58.29912162780762L51.057162500000004,58.55390884399414L51.573505625,58.49167701721191L52.089848749999994,58.49167701721191L52.606191875,62.46131385803223L53.122535,61.921394195556644L53.638878125,62.39535423278808L54.155221250000004,62.39535423278808L54.671564374999996,62.39535423278808L55.1879075,61.246601562500004L55.704250625,59.05352210998535L56.22059375,59.757851943969726L56.736936875000005,62.09180686950684L57.25328,62.420518569946296L57.769623124999995,64.51609809875488L58.28596625,66.74572219848633L58.802309375,68.59867568969726L59.318652500000006,68.84475791931152L59.834995625,68.84475791931152L60.35133875,68.84475791931152L60.867681875,69.1392268371582L61.384025,68.23589096069335L61.900368125,68.23589096069335L62.41671125,71.6210782623291L62.933054375,72.43558525085449L63.4493975,72.263828125L63.965740625,72.263828125L64.48208375,72.41457649230956L64.99842687499999,71.30225982666016L65.51477,71.30225982666016L66.031113125,70.84399864196777L66.54745625,70.93077690124511L67.063799375,70.93077690124511L67.58014250000001,71.79963912963868L68.09648562500001,73.31152282714844L68.61282874999999,75.483125L69.129171875,74.95802825927734L69.645515,78.73830108642578L70.161858125,78.73830108642578L70.67820125,79.70395027160644L71.194544375,79.55153831481934L71.7108875,79.38577690124512L72.227230625,78.82952690124512L72.74357375000001,78.28884674072266L73.25991687499999,78.73607391357422L73.77626,78.0518904876709L74.292603125,78.0518904876709L74.80894624999999,79.15548858642578L75.325289375,82.59978424072266L75.8416325,83.60993614196778L76.35797562500001,85.09846168518067L76.87431875,84.71131385803223L77.390661875,83.65555244445801L77.90700500000001,84.91601005554199L78.42334812499999,85.31428695678711L78.93969125,86.65484809875488L79.456034375,90.09692337036134L79.9723775,90.09692337036134L80.488720625,89.34265190124512L81.00506375,89.65748451232909L81.521406875,89.77318885803223L82.03775,88.93325271606446L82.55409312500001,90.17479972839355L83.07043624999999,89.50841331481934L83.58677937499999,90.43846168518067L84.1031225,89.79988777160645L84.619465625,94.40118614196777L85.13580875,93.53788505554199L85.652151875,94.69933532714845L86.16849500000001,95.12653831481933L86.684838125,94.80279701232911L87.20118125,94.61256385803222L87.71752437500001,93.91947174072266L88.23386749999999,97.78207527160644L88.750210625,98.63202690124513L89.26655375,97.82879837036133L89.78289687499999,97.42607391357421L90.29924,100.72686290740967L90.815583125,102.70488777160645L91.33192625000001,104.37475135803223L91.848269375,104.67623790740967L92.3646125,105.25473587036133L92.88095562500001,106.90012432098388L93.39729874999999,108.55330108642579L93.913641875,109.67469959259033L94.429985,112.97659877777099L94.946328125,113.29254837036133L95.46267125,113.29254837036133L95.979014375,112.77635013580323L96.4953575,112.11552486419677L97.011700625,113.2947755432129L97.52804375000001,114.37723587036132L98.04438687499999,113.69416263580322L98.56072999999999,113.69416263580322L99.077073125,112.89427486419677L99.59341625,110.98745162963867L100.109759375,111.68943885803222L100.6261025,111.68943885803222L101.14244562500001,112.19006385803223L101.65878875,113.59737567901611L102.175131875,113.34928695678711L102.69147500000001,114.65758804321288L103.20781812499999,114.65758804321288L103.72416125,114.05906250000001L104.240504375,113.55287635803222L104.75684749999999,113.862151222229L105.273190625,113.532848777771L105.78953375,113.59737567901611L106.305876875,113.199098777771L106.82222,112.85422649383545L107.33856312500001,113.75757595062257L107.85490625000001,112.9042869567871L108.37124937499999,112.93988777160644L108.8875925,112.57943885803223L109.403935625,112.57943885803223L109.92027875,112.64841331481934L110.436621875,111.61823722839355L110.952965,111.96199932098389L111.469308125,110.89844959259034L111.98565125,110.85728763580323L112.50199437500001,111.00858600616455L113.01833749999999,111.15766399383546L113.534680625,111.22886222839355L114.05102375,110.83169891357423L114.567366875,109.79707527160645L115.08371,109.79707527160645L115.600053125,108.70348587036133L116.11639625000001,107.80013641357422L116.632739375,107.13708736419679L117.1490825,106.72879837036132L117.66542562500001,106.15141399383545L118.18176874999999,104.98106182098388L118.698111875,107.77677486419677L119.214455,107.76676277160644L119.73079812499999,107.22274864196777L120.24714125,107.910276222229L120.763484375,108.59668682098388L121.2798275,109.55232391357421L121.796170625,110.107463722229L122.31251375000001,111.085348777771L122.828856875,111.19103763580321L123.34519999999999,112.46262432098388L123.861543125,113.72419891357421L124.37788625,114.5596875L124.894229375,114.97798858642578L125.4105725,115.37403831481933L125.926915625,116.508786277771L126.44325875,116.397536277771L126.959601875,116.9927244567871L127.47594500000001,117.76925067901611L127.99228812499999,119.60153831481934L128.50863125,118.95739986419679L129.024974375,117.90719959259033L129.5413175,117.704723777771L130.057660625,117.47332527160646L130.57400375,117.593473777771L131.090346875,117.02387432098388L131.60669000000001,116.81138641357421L132.123033125,117.11064918518066L132.63937625,117.66689918518065L133.15571937500002,119.58151412963866L133.6720625,120.45705108642578L134.188405625,120.95544891357422L134.70474875000002,120.92541263580321L135.22109187499998,120.24122581481933L135.73743499999998,120.5783131790161L136.253778125,120.22564918518066L136.77012125,119.26333736419679L137.28646437499998,119.63157459259034L137.8028075,120.50043682098388L138.319150625,120.70291263580322L138.83549374999998,120.5783131790161L139.351836875,121.44495162963867L139.86818,121.27028831481934L140.384523125,121.065588722229L140.90086625,121.63518817901611L141.417209375,121.64186290740966L141.93355250000002,121.57844959259033L142.449895625,120.58610149383546L142.96623875,120.72627418518067L143.48258187500002,119.47360149383545L143.998925,120.09659877777099L144.515268125,120.10104972839355L145.03161125000003,119.84851345062256L145.547954375,119.65382595062256L146.06429749999998,119.81513641357421L146.580640625,120.13108600616455L147.09698375,120.52379837036133L147.61332687499998,120.91651412963867L148.12967,121.39155040740967L148.646013125,122.25151412963868L149.16235625,121.98451141357421L149.678699375,120.34023654937744L150.1950425,120.61168682098389L150.711385625,120.94877418518067L151.22772875,121.983401222229L151.744071875,122.49959945678711L152.260415,123.517536277771L152.77675812500001,123.12705108642578L153.29310125,123.34955108642578L153.809444375,123.30949932098389L154.32578750000002,123.14262432098388L154.842130625,122.71431114196778L155.35847374999997,120.39252418518066L155.874816875,120.44703899383545L156.39115999999999,120.11106182098388L156.907503125,119.83071304321288L157.42384625,119.79288845062256L157.940189375,119.47137432098388L158.4565325,119.65382595062256L158.972875625,120.97658668518066L159.48921875,122.26263641357423L160.005561875,121.52393817901611L160.521905,123.59318885803222L161.038248125,123.80011222839354L161.55459125000002,123.66327350616456L162.070934375,123.97032459259033L162.5872775,123.80901412963867L163.10362062500002,123.69887432098389L163.61996375,123.21827350616455L164.136306875,124.70346168518066L164.65265000000002,124.878125L165.168993125,124.15611358642579L165.68533624999998,124.55104972839356L166.201679375,124.74351345062256L166.7180225,124.33856182098388L167.23436562499998,124.58219959259034L167.75070875,125.03387432098388L168.267051875,125.045L168.78339499999998,124.82806114196777L169.299738125,126.86282459259033L169.81608125,127.68273824691772L170.332424375,127.74837533950806L170.8487675,128.00869993209838L171.365110625,128.3257631111145L171.88145375000002,128.23008804321287L172.397796875,128.06988777160646L172.91414,127.69719959259032L173.43048312500002,127.80511222839355L173.94682625000002,127.37123790740966L174.463169375,127.64713743209839L174.9795125,127.8373756790161L175.495855625,127.7316868209839L176.01219874999998,127.7316868209839L176.528541875,126.80497581481933L177.044885,126.63364986419677L177.56122812499999,125.61682662963867L178.07757125,125.32201141357422L178.593914375,125.06725135803222L179.1102575,124.210625L179.626600625,124.30296100616455L180.14294375,123.98701141357421L180.659286875,124.03485149383545L181.17563,124.49097377777099L181.691973125,124.12496372222901L182.20831625,123.6655006790161L182.72465937500002,124.152776222229L183.2410025,125.31533668518065L183.757345625,124.42645027160646L184.27368875000002,124.12830108642578L184.79003187499998,123.988125L185.30637499999997,124.04152622222901L185.822718125,123.71000000000001L186.33906125,122.46733600616454L186.85540437499998,122.50738777160645L187.3717475,122.06461154937745L187.888090625,122.18587364196777L188.40443375,122.05237567901611L188.920776875,122.73433872222901L189.43712,123.04027622222901L189.953463125,122.76548858642579L190.46980625,121.62628627777099L190.986149375,121.37263641357421L191.50249250000002,122.94793682098388L192.018835625,122.72877418518067L192.53517875,123.68997581481933L193.05152187500002,123.41963912963868L193.567865,123.01802486419678L194.084208125,123.53756385803223L194.60055125000002,123.58873790740967L195.116894375,123.80567337036132L195.63323749999998,123.86797649383544L196.149580625,123.46524864196778L196.66592375,123.60542472839356L197.18226687499998,124.25846168518066L197.69861,124.02594959259034L198.214953125,123.79010013580321L198.73129624999999,122.32271236419678L199.247639375,121.82431114196777L199.7639825,121.8632493209839L200.280325625,122.79552486419678L200.79666875,122.90232391357422L201.313011875,122.74101345062256L201.829355,122.05905040740967L202.345698125,122.372776222229L202.86204125,123.39071304321288L203.37838437500002,123.543125L203.89472750000002,123.25276412963868L204.411070625,122.48625L204.92741375,122.69985149383544L205.443756875,123.21716331481935L205.96009999999998,123.21716331481935L206.476443125,122.6253125L206.99278625,121.429375L207.509129375,121.30811290740967L208.0254725,120.72405040740966L208.541815625,120.42367404937744L209.05815875,120.485973777771L209.574501875,120.203401222229L210.090845,120.22453899383545L210.607188125,120.3302244567871L211.12353125,119.99091331481934L211.639874375,120.20006385803222L212.1562175,120.60723587036134L212.67256062500002,120.15889850616455L213.18890375,120.02985149383545L213.705246875,119.424651222229L214.22159000000002,118.97297649383545L214.73793312499998,118.93514850616455L215.25427624999998,118.79942337036132L215.770619375,118.0195631790161L216.2869625,119.19213912963866L216.80330562499998,118.69929904937744" style="fill: none;" fill="none"></path></g></g></g></g></g></g><g transform="translate(72, 178)" clip-path="url(#clip_1)"><clipPath id="clip_1"><rect width="257" height="22"></rect></clipPath><g><g><line x1="0" y1="0" x2="0" y2="5" style="visibility: inherit;" fill="rgb(0, 0, 0)" stroke="rgb(204, 204, 204)" stroke-width="1px"></line><line x1="25.765625" y1="0" x2="25.765625" y2="5" style="visibility: inherit;" fill="rgb(0, 0, 0)" stroke="rgb(204, 204, 204)" stroke-width="1px"></line><line x1="51.53125" y1="0" x2="51.53125" y2="5" style="visibility: inherit;" fill="rgb(0, 0, 0)" stroke="rgb(204, 204, 204)" stroke-width="1px"></line><line x1="77.296875" y1="0" x2="77.296875" y2="5" style="visibility: inherit;" fill="rgb(0, 0, 0)" stroke="rgb(204, 204, 204)" stroke-width="1px"></line><line x1="103.0625" y1="0" x2="103.0625" y2="5" style="visibility: inherit;" fill="rgb(0, 0, 0)" stroke="rgb(204, 204, 204)" stroke-width="1px"></line><line x1="128.828125" y1="0" x2="128.828125" y2="5" style="visibility: inherit;" fill="rgb(0, 0, 0)" stroke="rgb(204, 204, 204)" stroke-width="1px"></line><line x1="154.59375" y1="0" x2="154.59375" y2="5" style="visibility: inherit;" fill="rgb(0, 0, 0)" stroke="rgb(204, 204, 204)" stroke-width="1px"></line><line x1="180.359375" y1="0" x2="180.359375" y2="5" style="visibility: inherit;" fill="rgb(0, 0, 0)" stroke="rgb(204, 204, 204)" stroke-width="1px"></line><line x1="206.125" y1="0" x2="206.125" y2="5" style="visibility: inherit;" fill="rgb(0, 0, 0)" stroke="rgb(204, 204, 204)" stroke-width="1px"></line><line x1="231.890625" y1="0" x2="231.890625" y2="5" style="visibility: inherit;" fill="rgb(0, 0, 0)" stroke="rgb(204, 204, 204)" stroke-width="1px"></line><line x1="257.65625" y1="0" x2="257.65625" y2="5" style="visibility: inherit;" fill="rgb(0, 0, 0)" stroke="rgb(204, 204, 204)" stroke-width="1px"></line></g><g transform="translate(0, 8)"><text x="0" y="0" dx="0em" dy="0.95em" style="text-anchor: middle; visibility: hidden; font-family: Roboto, sans-serif; font-size: 12px; font-weight: 200;" fill="rgb(50, 49, 63)" stroke="none" stroke-width="1px">-50k</text><text x="25.765625" y="0" dx="0em" dy="0.95em" style="text-anchor: middle; visibility: inherit; font-family: Roboto, sans-serif; font-size: 12px; font-weight: 200;" fill="rgb(50, 49, 63)" stroke="none" stroke-width="1px">0</text><text x="51.53125" y="0" dx="0em" dy="0.95em" style="text-anchor: middle; visibility: hidden; font-family: Roboto, sans-serif; font-size: 12px; font-weight: 200;" fill="rgb(50, 49, 63)" stroke="none" stroke-width="1px">50k</text><text x="77.296875" y="0" dx="0em" dy="0.95em" style="text-anchor: middle; visibility: inherit; font-family: Roboto, sans-serif; font-size: 12px; font-weight: 200;" fill="rgb(50, 49, 63)" stroke="none" stroke-width="1px">100k</text><text x="103.0625" y="0" dx="0em" dy="0.95em" style="text-anchor: middle; visibility: hidden; font-family: Roboto, sans-serif; font-size: 12px; font-weight: 200;" fill="rgb(50, 49, 63)" stroke="none" stroke-width="1px">150k</text><text x="128.828125" y="0" dx="0em" dy="0.95em" style="text-anchor: middle; visibility: inherit; font-family: Roboto, sans-serif; font-size: 12px; font-weight: 200;" fill="rgb(50, 49, 63)" stroke="none" stroke-width="1px">200k</text><text x="154.59375" y="0" dx="0em" dy="0.95em" style="text-anchor: middle; visibility: hidden; font-family: Roboto, sans-serif; font-size: 12px; font-weight: 200;" fill="rgb(50, 49, 63)" stroke="none" stroke-width="1px">250k</text><text x="180.359375" y="0" dx="0em" dy="0.95em" style="text-anchor: middle; visibility: inherit; font-family: Roboto, sans-serif; font-size: 12px; font-weight: 200;" fill="rgb(50, 49, 63)" stroke="none" stroke-width="1px">300k</text><text x="206.125" y="0" dx="0em" dy="0.95em" style="text-anchor: middle; visibility: hidden; font-family: Roboto, sans-serif; font-size: 12px; font-weight: 200;" fill="rgb(50, 49, 63)" stroke="none" stroke-width="1px">350k</text><text x="231.890625" y="0" dx="0em" dy="0.95em" style="text-anchor: middle; visibility: inherit; font-family: Roboto, sans-serif; font-size: 12px; font-weight: 200;" fill="rgb(50, 49, 63)" stroke="none" stroke-width="1px">400k</text><text x="257.65625" y="0" dx="0em" dy="0.95em" style="text-anchor: middle; visibility: hidden; font-family: Roboto, sans-serif; font-size: 12px; font-weight: 200;" fill="rgb(50, 49, 63)" stroke="none" stroke-width="1px">450k</text></g><line x1="0" y1="0" x2="257.65625" y2="0" fill="rgb(0, 0, 0)" stroke="rgb(204, 204, 204)" stroke-width="1px"></line></g></g></g></g></svg>