<svg viewBox="0 0 330 200" xmlns="http://www.w3.org/2000/svg"><g><g><g><g><g><line x1="60" y1="178" x2="55" y2="178" style="visibility: inherit;" fill="rgb(0, 0, 0)" stroke="rgb(204, 204, 204)" stroke-width="1px"></line><line x1="60" y1="164.30769230769232" x2="55" y2="164.30769230769232" style="visibility: inherit;" fill="rgb(0, 0, 0)" stroke="rgb(204, 204, 204)" stroke-width="1px"></line><line x1="60" y1="150.6153846153846" x2="55" y2="150.6153846153846" style="visibility: inherit;" fill="rgb(0, 0, 0)" stroke="rgb(204, 204, 204)" stroke-width="1px"></line><line x1="60" y1="136.9230769230769" x2="55" y2="136.9230769230769" style="visibility: inherit;" fill="rgb(0, 0, 0)" stroke="rgb(204, 204, 204)" stroke-width="1px"></line><line x1="60" y1="123.23076923076923" x2="55" y2="123.23076923076923" style="visibility: inherit;" fill="rgb(0, 0, 0)" stroke="rgb(204, 204, 204)" stroke-width="1px"></line><line x1="60" y1="109.53846153846155" x2="55" y2="109.53846153846155" style="visibility: inherit;" fill="rgb(0, 0, 0)" stroke="rgb(204, 204, 204)" stroke-width="1px"></line><line x1="60" y1="95.84615384615387" x2="55" y2="95.84615384615387" style="visibility: inherit;" fill="rgb(0, 0, 0)" stroke="rgb(204, 204, 204)" stroke-width="1px"></line><line x1="60" y1="82.15384615384616" x2="55" y2="82.15384615384616" style="visibility: inherit;" fill="rgb(0, 0, 0)" stroke="rgb(204, 204, 204)" stroke-width="1px"></line><line x1="60" y1="68.46153846153848" x2="55" y2="68.46153846153848" style="visibility: inherit;" fill="rgb(0, 0, 0)" stroke="rgb(204, 204, 204)" stroke-width="1px"></line><line x1="60" y1="54.769230769230774" x2="55" y2="54.769230769230774" style="visibility: inherit;" fill="rgb(0, 0, 0)" stroke="rgb(204, 204, 204)" stroke-width="1px"></line><line x1="60" y1="41.07692307692309" x2="55" y2="41.07692307692309" style="visibility: inherit;" fill="rgb(0, 0, 0)" stroke="rgb(204, 204, 204)" stroke-width="1px"></line><line x1="60" y1="27.384615384615387" x2="55" y2="27.384615384615387" style="visibility: inherit;" fill="rgb(0, 0, 0)" stroke="rgb(204, 204, 204)" stroke-width="1px"></line><line x1="60" y1="13.692307692307683" x2="55" y2="13.692307692307683" style="visibility: inherit;" fill="rgb(0, 0, 0)" stroke="rgb(204, 204, 204)" stroke-width="1px"></line><line x1="60" y1="0" x2="55" y2="0" style="visibility: inherit;" fill="rgb(0, 0, 0)" stroke="rgb(204, 204, 204)" stroke-width="1px"></line></g><g transform="translate(50, 0)"><text x="0" y="178" dx="0em" dy="0.3em" style="text-anchor: end; visibility: hidden; font-family: Roboto, sans-serif; font-size: 12px; font-weight: 200;" fill="rgb(50, 49, 63)" stroke="none" stroke-width="1px">-0.05</text><text x="0" y="164.30769230769232" dx="0em" dy="0.3em" style="text-anchor: end; visibility: inherit; font-family: Roboto, sans-serif; font-size: 12px; font-weight: 200;" fill="rgb(50, 49, 63)" stroke="none" stroke-width="1px">0</text><text x="0" y="150.6153846153846" dx="0em" dy="0.3em" style="text-anchor: end; visibility: hidden; font-family: Roboto, sans-serif; font-size: 12px; font-weight: 200;" fill="rgb(50, 49, 63)" stroke="none" stroke-width="1px">0.05</text><text x="0" y="136.9230769230769" dx="0em" dy="0.3em" style="text-anchor: end; visibility: inherit; font-family: Roboto, sans-serif; font-size: 12px; font-weight: 200;" fill="rgb(50, 49, 63)" stroke="none" stroke-width="1px">0.1</text><text x="0" y="123.23076923076923" dx="0em" dy="0.3em" style="text-anchor: end; visibility: hidden; font-family: Roboto, sans-serif; font-size: 12px; font-weight: 200;" fill="rgb(50, 49, 63)" stroke="none" stroke-width="1px">0.15</text><text x="0" y="109.53846153846155" dx="0em" dy="0.3em" style="text-anchor: end; visibility: inherit; font-family: Roboto, sans-serif; font-size: 12px; font-weight: 200;" fill="rgb(50, 49, 63)" stroke="none" stroke-width="1px">0.2</text><text x="0" y="95.84615384615387" dx="0em" dy="0.3em" style="text-anchor: end; visibility: hidden; font-family: Roboto, sans-serif; font-size: 12px; font-weight: 200;" fill="rgb(50, 49, 63)" stroke="none" stroke-width="1px">0.25</text><text x="0" y="82.15384615384616" dx="0em" dy="0.3em" style="text-anchor: end; visibility: inherit; font-family: Roboto, sans-serif; font-size: 12px; font-weight: 200;" fill="rgb(50, 49, 63)" stroke="none" stroke-width="1px">0.3</text><text x="0" y="68.46153846153848" dx="0em" dy="0.3em" style="text-anchor: end; visibility: hidden; font-family: Roboto, sans-serif; font-size: 12px; font-weight: 200;" fill="rgb(50, 49, 63)" stroke="none" stroke-width="1px">0.35</text><text x="0" y="54.769230769230774" dx="0em" dy="0.3em" style="text-anchor: end; visibility: inherit; font-family: Roboto, sans-serif; font-size: 12px; font-weight: 200;" fill="rgb(50, 49, 63)" stroke="none" stroke-width="1px">0.4</text><text x="0" y="41.07692307692309" dx="0em" dy="0.3em" style="text-anchor: end; visibility: hidden; font-family: Roboto, sans-serif; font-size: 12px; font-weight: 200;" fill="rgb(50, 49, 63)" stroke="none" stroke-width="1px">0.45</text><text x="0" y="27.384615384615387" dx="0em" dy="0.3em" style="text-anchor: end; visibility: inherit; font-family: Roboto, sans-serif; font-size: 12px; font-weight: 200;" fill="rgb(50, 49, 63)" stroke="none" stroke-width="1px">0.5</text><text x="0" y="13.692307692307683" dx="0em" dy="0.3em" style="text-anchor: end; visibility: hidden; font-family: Roboto, sans-serif; font-size: 12px; font-weight: 200;" fill="rgb(50, 49, 63)" stroke="none" stroke-width="1px">0.55</text><text x="0" y="0" dx="0em" dy="0.3em" style="text-anchor: end; visibility: hidden; font-family: Roboto, sans-serif; font-size: 12px; font-weight: 200;" fill="rgb(50, 49, 63)" stroke="none" stroke-width="1px">0.6</text></g><line x1="60" y1="0" x2="60" y2="178" fill="rgb(0, 0, 0)" stroke="rgb(204, 204, 204)" stroke-width="1px"></line></g></g><g transform="translate(60, 0)" clip-path="url(#clip_0)"><clipPath id="clip_0"><rect width="270" height="178"></rect></clipPath><g><g><g><line x1="0" y1="0" x2="0" y2="178" fill="rgb(0, 0, 0)" stroke="rgb(60, 60, 60)" stroke-width="1px" opacity="0.25"></line><line x1="27" y1="0" x2="27" y2="178" fill="rgb(0, 0, 0)" stroke="rgb(60, 60, 60)" stroke-width="1px" opacity="0.25"></line><line x1="54" y1="0" x2="54" y2="178" fill="rgb(0, 0, 0)" stroke="rgb(60, 60, 60)" stroke-width="1px" opacity="0.25"></line><line x1="81" y1="0" x2="81" y2="178" fill="rgb(0, 0, 0)" stroke="rgb(60, 60, 60)" stroke-width="1px" opacity="0.25"></line><line x1="108" y1="0" x2="108" y2="178" fill="rgb(0, 0, 0)" stroke="rgb(60, 60, 60)" stroke-width="1px" opacity="0.25"></line><line x1="135" y1="0" x2="135" y2="178" fill="rgb(0, 0, 0)" stroke="rgb(60, 60, 60)" stroke-width="1px" opacity="0.25"></line><line x1="162" y1="0" x2="162" y2="178" fill="rgb(0, 0, 0)" stroke="rgb(60, 60, 60)" stroke-width="1px" opacity="0.25"></line><line x1="189" y1="0" x2="189" y2="178" fill="rgb(0, 0, 0)" stroke="rgb(60, 60, 60)" stroke-width="1px" opacity="0.25"></line><line x1="216" y1="0" x2="216" y2="178" fill="rgb(0, 0, 0)" stroke="rgb(60, 60, 60)" stroke-width="1px" opacity="0.25"></line><line x1="243" y1="0" x2="243" y2="178" fill="rgb(0, 0, 0)" stroke="rgb(60, 60, 60)" stroke-width="1px" opacity="0.25"></line><line x1="270" y1="0" x2="270" y2="178" fill="rgb(0, 0, 0)" stroke="rgb(60, 60, 60)" stroke-width="1px" opacity="0.25"></line></g><g><line x1="0" y1="178" x2="270" y2="178" fill="rgb(0, 0, 0)" stroke="rgb(60, 60, 60)" stroke-width="1px" opacity="0.25"></line><line x1="0" y1="164.30769230769232" x2="270" y2="164.30769230769232" fill="rgb(0, 0, 0)" stroke="rgb(60, 60, 60)" stroke-width="1px" opacity="0.25"></line><line x1="0" y1="150.6153846153846" x2="270" y2="150.6153846153846" fill="rgb(0, 0, 0)" stroke="rgb(60, 60, 60)" stroke-width="1px" opacity="0.25"></line><line x1="0" y1="136.9230769230769" x2="270" y2="136.9230769230769" fill="rgb(0, 0, 0)" stroke="rgb(60, 60, 60)" stroke-width="1px" opacity="0.25"></line><line x1="0" y1="123.23076923076923" x2="270" y2="123.23076923076923" fill="rgb(0, 0, 0)" stroke="rgb(60, 60, 60)" stroke-width="1px" opacity="0.25"></line><line x1="0" y1="109.53846153846155" x2="270" y2="109.53846153846155" fill="rgb(0, 0, 0)" stroke="rgb(60, 60, 60)" stroke-width="1px" opacity="0.25"></line><line x1="0" y1="95.84615384615387" x2="270" y2="95.84615384615387" fill="rgb(0, 0, 0)" stroke="rgb(60, 60, 60)" stroke-width="1px" opacity="0.25"></line><line x1="0" y1="82.15384615384616" x2="270" y2="82.15384615384616" fill="rgb(0, 0, 0)" stroke="rgb(60, 60, 60)" stroke-width="1px" opacity="0.25"></line><line x1="0" y1="68.46153846153848" x2="270" y2="68.46153846153848" fill="rgb(0, 0, 0)" stroke="rgb(60, 60, 60)" stroke-width="1px" opacity="0.25"></line><line x1="0" y1="54.769230769230774" x2="270" y2="54.769230769230774" fill="rgb(0, 0, 0)" stroke="rgb(60, 60, 60)" stroke-width="1px" opacity="0.25"></line><line x1="0" y1="41.07692307692309" x2="270" y2="41.07692307692309" fill="rgb(0, 0, 0)" stroke="rgb(60, 60, 60)" stroke-width="1px" opacity="0.25"></line><line x1="0" y1="27.384615384615387" x2="270" y2="27.384615384615387" fill="rgb(0, 0, 0)" stroke="rgb(60, 60, 60)" stroke-width="1px" opacity="0.25"></line><line x1="0" y1="13.692307692307683" x2="270" y2="13.692307692307683" fill="rgb(0, 0, 0)" stroke="rgb(60, 60, 60)" stroke-width="1px" opacity="0.25"></line><line x1="0" y1="0" x2="270" y2="0" fill="rgb(0, 0, 0)" stroke="rgb(60, 60, 60)" stroke-width="1px" opacity="0.25"></line></g></g></g><g><g><line x1="0" y1="164.30769230769232" x2="270" y2="164.30769230769232" fill="rgb(0, 0, 0)" stroke="rgb(153, 153, 153)" stroke-width="1.5px"></line></g></g><g><g><line x1="27" y1="0" x2="27" y2="178" fill="rgb(0, 0, 0)" stroke="rgb(153, 153, 153)" stroke-width="1.5px"></line></g></g><g><g><g><g><g><path stroke="rgb(0, 119, 187)" stroke-width="2px" d="M32.40108,61.61538461538461L32.94216,68.74679317153416L33.48324,61.61538294982311L34.024319999999996,63.045477991055584L34.5654,61.283146557280745L35.10648,66.21001104604582L35.64756,73.4341163506166L36.18864000000001,79.4573622571732L36.72972,84.6236465579446L37.2708,90.45192004054893L37.81188,95.11604461702106L38.35296,98.98842477255151L38.894040000000004,102.2999445848781L39.43512,105.19762178037388L39.9762,104.49944119403155L40.51728,104.95034113761959L41.05836,106.03033370713976L41.599439999999994,108.80309721064049L42.140519999999995,111.67479301688715L42.6816,113.95001342785739L43.222680000000004,115.31509243444721L43.763760000000005,116.13412067291958L44.30484,114.6800444142183L44.84592,111.47035944614146L45.387,110.1358604958853L45.92808,109.89690017884311L46.46916,110.28785987777782L47.010239999999996,108.96913779278677L47.55132,109.19686704851496L48.0924,109.80975937349234L48.63348,111.489623307963L49.17456000000001,112.49754152603774L49.71564,113.89128468309849L50.25672,114.7275305347404L50.7978,115.22927803039151L51.33888,112.126245692743L51.879960000000004,109.09952356133613L52.42104,107.28349029448005L52.96212,106.1938703386821L53.5032,102.53521538518122L54.04428,101.25202919859363L54.585359999999994,99.97305453662705L55.126439999999995,99.20566973984101L55.667519999999996,99.16589260866236L56.208600000000004,99.14202632995956L56.749680000000005,96.55977045391681L57.29076,95.0104169283942L57.83184,94.08080481311778L58.37292,93.17608316157767L58.914,92.63325017066143L59.45508,91.57115740125738L59.996159999999996,91.35266207598187L60.53724,92.02466465980069L61.07832,92.42786621009124L61.6194,93.05505696554066L62.16048,95.21141705652833L62.70156,96.50523311112045L63.24264,97.61083250081478L63.78372,98.9087131054894L64.3248,100.29174785436145L64.86588,101.69776774006279L65.40696,102.8195444983902L65.94804,104.29001704341913L66.48912,105.17230057043649L67.03020000000001,104.75206991672361L67.57128,104.7616106236522L68.11236,103.84555271927704L68.65344,103.55904977855062L69.19452,102.49170530822674L69.7356,101.85129862603245L70.27668,100.86081891082664L70.81776,99.41382232019453L71.35884,99.08214013357298L71.89992,101.0738995953392L72.441,103.36434047539365L72.98208,104.73860500342631L73.52316,105.56316372024591L74.06424,107.1532825210821L74.60532,107.01197023083938L75.1464,108.02256642743819L75.68748000000001,108.62892414539748L76.22856,108.99273877617304L76.76964,108.11564398389396L77.31071999999999,106.49400190553179L77.8518,105.52101665851447L78.39287999999999,104.9372255103041L78.93396,103.49156561838315L79.47504,102.62416968323059L80.01612,102.10373212213906L80.55720000000001,100.69608601473968L81.09828,99.85149835030006L81.63936000000001,99.34474575163628L82.18043999999999,99.04069419243802L82.72152,98.85826325691905L83.26259999999999,98.74880469560767L83.80368,98.68312955882087L84.34476,99.73910804749322L84.88584,101.46808034369134L85.42692000000001,102.50546372141022L85.968,103.12789374804152L86.50908000000001,103.50135176402031L87.05015999999999,103.72542657360759L87.59124,103.85987145935998L88.13231999999999,103.94053839081138L88.6734,103.98893854968225L89.21448,102.92259344201005L89.75556,102.28278637740672L90.29664,102.99428734163943L90.83772,104.51657312317377L91.3788,106.52532816283883L91.91988,108.82596638963257L92.46096,111.30173289645325L93.00204,112.78719280054568L93.54312,113.6784687430011L94.0842,117.49938828520824L94.62528,119.79194001053254L95.16636,122.26285624872182L95.70744,123.74540599163538L96.24852,124.63493583738354L96.78960000000001,125.16865374483243L97.33068,124.39349928630703L97.87176,123.9284066111918L98.41283999999999,123.64935100612266L98.95392,123.4819176430812L99.495,123.3814576252563L100.03608,122.22579804381691L100.57716,121.5324022949533L101.11824,121.11636484563512L101.65932000000001,120.86674237604421L102.2004,121.81235246503411L102.74148,123.47510372142276L103.28255999999999,124.47275447525595L103.82364,125.07134492755587L104.36471999999999,126.52588440193053L104.9058,127.39860808655531L105.44688000000001,126.8268570943355L105.98796,126.4838064990036L106.52904000000001,126.27797614180447L107.07012,126.15447792748496L107.61120000000001,124.98499379589857L108.15227999999999,124.28330331694671L108.69336,124.95767423257034L109.23443999999999,127.55306637180878L109.77552,129.11030165535186L110.3166,131.1400272123473L110.85768,132.35786254654454L111.39876,133.0885637470629L111.93984,134.62236885424346L112.48092000000001,134.44726753168226L113.022,134.3422067381455L113.56308,134.27917026202348L114.10416,134.24134837635026L114.64524,134.21865524494632L115.18632,134.20503936610396L115.7274,134.19686983879856L116.26848,134.1919681224153L116.80956,134.18902709258535L117.35064,134.18726247468737L117.89172,134.1862037039486L118.43279999999999,134.18556844150532L118.97388,135.28057167090893L119.51496,137.03295799542067L120.05604,138.08438979012772L120.59712,138.71524886695195L121.1382,137.99837992617694L121.67928,137.56825856171187L122.22036,137.31018574303286L122.76144000000001,137.15534205182547L123.30252,137.06243583710102L123.8436,138.10207649513595L124.38467999999999,138.7258608899569L124.92576,139.10013152684945L125.46684,139.32469390898498L126.00792,140.55481654126103L126.549,141.29289012062665L127.09008,142.8311186551156L127.63116000000001,144.8494405707411L128.17224000000002,146.06043372011644L128.71331999999998,147.8824139966112L129.2544,150.0709869574402L129.79548,151.38413073393758L130.33656,152.17201699983602L130.87763999999999,152.6447487593751L131.41872,152.92838781509855L131.9598,154.19395583943344L132.50088,156.0486812449353L133.04196000000002,157.16151648823637L133.58304,157.829217634217L134.12412,157.13445373090454L134.6652,156.71759538891706L135.20628,156.46748038372456L135.74736,156.3174113806091L136.28844,156.2273699787398L136.82952,156.1733451376182L137.3706,156.14093023294527L137.91168000000002,155.02609669924064L138.45276,155.45258116991872L138.99384,155.70847185232557L139.53492,155.86200626176966L140.07600000000002,154.85874231653528L140.61708000000002,154.25678394939465L141.15816,154.99099352001113L141.69923999999997,155.43151926238102L142.24032,155.69583470780293L142.7814,155.8544239750561L143.32247999999998,155.949577535408L143.86355999999998,156.00666967161916L144.40464,156.0409249533458L144.94572,156.06147812238183L145.4868,156.07381002380342L146.02788,156.0812091646564L146.56896,156.08564864916818L147.11004,156.08831233987524L147.65112,156.08991055429948L148.1922,156.09086948295402L148.73328,156.09144484014675L149.27436,156.0917900544624L149.81544,156.09199718305177L150.35652000000002,154.99673686930456L150.8976,154.3395806810562L151.43868,153.9452869681072L151.97976000000003,153.7087107403378L152.52084,153.56676500367615L153.06192,153.48159756167917L153.60299999999998,153.43049709648096L154.14408,153.39983681736206L154.68516,153.38144064989072L155.22624,153.37040294940792L155.76731999999998,152.26839553418608L156.3084,152.70257587998512L156.84948,152.96308408746455L157.39056,153.1193890119522L157.93164000000002,154.30855655754567L158.47272,155.02205708490175L159.0138,155.45015740131538L159.55488,155.70701759116355L160.09596000000002,156.95651829597335L160.63704,157.70621871885922L161.17812,158.15603897259072L161.7192,158.42593112482965L162.26028000000002,158.58786641617297L162.80136,158.685027590979L163.34243999999998,158.7433242958626L163.88351999999998,158.77830231879275L164.4246,158.79928913255085L164.96568,158.81188122080573L165.50675999999999,158.81943647375863L166.04784,158.8239696255304L166.58892,158.82668951659343L167.13,158.82832145123126L167.67108,158.82930061201395L168.21216,158.82988810848357L168.75324,158.83024060636535L169.29432,158.8304521050944L169.8354,158.83057900433184L170.37648000000002,159.92603973477517L170.91756,160.58331617304114L171.45864,160.97768203600074L171.99972000000002,161.21430155377652L172.54080000000002,161.35627326444197L173.08187999999998,161.44145629084124L173.62295999999998,161.4925661066808L174.16404,161.52323199618456L174.70512,161.54163152988679L175.2462,162.64805584100898L175.78727999999998,163.3119104276823L176.32836,163.71022317968632L176.86944,163.94921083088872L177.41052,164.09260342161016L177.9516,164.178638976043L178.49268,163.13487571780186L179.03376,162.5086177628572L179.57484,161.0374783989895L180.11592000000002,160.1547947806689L180.657,159.62518460967655L181.19808,159.30741850708114L181.73916,159.11675884552386L182.28024000000002,159.00236304858953L182.82132000000001,158.93372557042892L183.36239999999998,158.89254308353253L183.90347999999997,158.86783359139474L184.44456,158.85300789611205L184.98564,158.8441124789424L185.52671999999998,158.83877522864066L186.0678,158.8355728784596L186.60888,158.83365146835095L187.14996,158.83249862228578L187.69104,157.7364223237458L188.23212,157.0787765446218L188.7732,156.68418907714744L189.31428,156.44743659666278L189.85536,155.21000051747114L190.39644,154.46753886995617L190.93752,154.02206188144717L191.4786,153.7547756883418L192.01968000000002,153.59440397247855L192.56076000000002,153.4981809429606L193.10184,153.44044712524985L193.64291999999998,153.40580683462338L194.184,153.3850226602475L194.72508,153.37255215562197L195.26615999999999,153.36506985284666L195.80723999999998,153.3605804711815L196.34832,152.26250204725022L196.8894,152.6990397878236L197.43048,154.05634702306853L197.97156,154.87073136421543L198.51264,155.35936196890358L199.05372,155.6525403317165L199.5948,155.82844734940426L200.13588000000001,155.93399156001686L200.67696,155.99731808638447L201.21804,156.035314002205L201.75912,156.05811155169735L202.30020000000002,156.07179008139275L202.84128,156.07999719921L203.38236,156.08492146990034L203.92344000000003,157.1832606232154L204.46452,157.84226411520444L205.0056,158.23766621039786L205.54667999999998,158.47490746751393L206.08776,159.71263681268442L206.62884,160.45527441978672L207.16992,160.9008569840481L207.71099999999998,161.16820652260492L208.25208,161.328616245739L208.79316,161.4248620796195L209.33424,161.48260957994773L209.87532,160.42187348924386L210.4164,159.7854318348215L210.95748,159.4035668421681L211.49856,159.17444784657607L212.03964000000002,159.03697644922084L212.58072,160.04987820170857L213.1218,160.6576192532012L213.66288,161.0222638840968L214.20396000000002,161.24105066263414L214.74504,161.37232272975655L215.28611999999998,161.45108597003L215.82719999999998,161.49834391419404L216.36828,161.5266986806925L216.90936,161.54371154059157L217.45044,161.553919256531L217.99152,161.56004388609466L218.5326,161.56371866383284L219.07368,161.56592353047577L219.61476,161.5672464504615L220.15584,161.56804020245298L220.69692,161.56851645364785L221.238,161.56880220436477L221.77908,161.56897365479492L222.32016000000002,161.56907652505302L222.86124,161.56913824720786L223.40232,161.5691752805008L223.94340000000003,161.56919750047655L224.48448000000002,161.56921083246198L225.02555999999998,162.6646034225541L225.56663999999998,163.32183897660937L226.10772,163.71618030904256L226.6488,163.95278510850247L227.18988,164.0947479881784L227.73095999999998,164.17992571598396L228.27204,164.2310323526673L228.81312,164.26169633467728L229.3542,164.2800947238833L229.89528,164.2911337574069L230.43636,164.29775717752105L230.97744,164.30173122958956L231.51852,164.30411566083066L232.05960000000002,164.3055463195753L232.60068,164.30640471482212L233.14176,164.30691975197018L233.68284,164.30722877425904L234.22392000000002,164.30741418763233L234.76500000000001,164.30752543565632L235.30607999999998,164.3075921844707L235.84715999999997,164.30763223375936L236.38824,164.30765626333255L236.92932,164.30767068107644L237.47039999999998,164.3076793317228L238.01148,164.3076845221106L238.55256,164.30768763634327L239.09364,164.3076895048829L239.63472,164.30769062600666L240.1758,164.3076912986809L240.71688,164.30769170228547L241.25796,164.3076919444482L241.79904,164.30769208974584L242.34012,164.30769217692443L242.8812,164.30769222923158L243.42228,164.30769226061585L243.96336000000002,164.30769227944646L244.50444000000002,164.3076922907448L245.04552,164.3076922975238L245.5866,164.3076923015912L246.12768,164.30769230403166L246.66876,164.30769230549592L247.20983999999999,164.30769230637446L247.75091999999998,164.3076923069016L248.292,164.30769230721788L248.83308,164.30769230740765L249.37416,164.3076923075215L249.91524,164.30769230758983L250.45632,164.30769230763082L250.9974,164.30769230765543L251.53848,164.30769230767015L252.07956000000001,164.30769230767905L252.62064,164.30769230768433L253.16172,164.30769230768755L253.7028,164.30769230768942L254.24388000000002,164.3076923076906L254.78496,164.30769230769127L255.32604,164.3076923076917L255.86712000000003,164.30769230769195L256.40819999999997,164.3076923076921L256.94928,164.30769230769218L257.49036,164.30769230769224L258.03144,164.30769230769226L258.57252,164.30769230769226L259.1136,164.3076923076923L259.65468,164.3076923076923L260.19576,164.3076923076923L260.73684,164.3076923076923L261.27792,164.3076923076923L261.819,164.3076923076923L262.36008,164.30769230769232L262.90116,164.30769230769232L263.44224,164.30769230769232L263.98332,164.30769230769232" style="fill: none;" fill="none"></path></g><g><path stroke="rgb(187, 187, 187)" stroke-width="2px" d="M32.40108,64.72726975954498L32.94216,69.91375010059431L33.48324,71.50144816418083L34.024319999999996,77.13713490942754L34.5654,81.95244446124308L35.10648,90.39325229298362L35.64756,97.33277833875255L36.18864000000001,102.29845560200808L36.72972,105.22393979044328L37.2708,104.511250917016L37.81188,102.86488002035155L38.35296,101.88088853220665L38.894040000000004,102.89139136769612L39.43512,104.22352373018406L39.9762,103.21935623944141L40.51728,104.5943496507402L41.05836,105.41909739900856L41.599439999999994,106.50521736792152L42.140519999999995,107.1568187489371L42.6816,106.54461808370681L43.222680000000004,106.7231974436504L43.763760000000005,107.84931757730988L44.30484,107.61215332007563L44.84592,107.46985596443379L45.387,107.85020274784196L45.92808,106.80725388390134L46.46916,107.07303150887573L47.010239999999996,108.05920379986273L47.55132,108.65090678686903L48.0924,109.77462055272179L48.63348,111.50579776702286L49.17456000000001,111.76208635058791L49.71564,111.91585948767275L50.25672,112.334131089203L50.7978,113.20747108198258L51.33888,113.73147506804182L51.879960000000004,114.6316447473178L52.42104,114.44572652424922L52.96212,114.61273542294303L53.5032,115.5040516637109L54.04428,116.03884140740908L54.585359999999994,116.8528751896154L55.126439999999995,117.34129545868848L55.667519999999996,116.71597506216952L56.208600000000004,116.58343151758415L56.749680000000005,115.63561190367892L57.29076,115.06692013537362L57.83184,114.72570507440403L58.37292,114.5209760378272L58.914,112.52796991161479L59.45508,110.31320462289784L59.996159999999996,109.50540543960524L60.53724,109.51862755269774L61.07832,109.52656082055321L61.6194,110.00757550122108L62.16048,110.75217137794473L62.70156,110.49489202627309L63.24264,110.34052441527017L63.78372,110.2479038486684L64.3248,111.05951180113037L64.86588,110.45109136961275L65.40696,110.08603911070222L65.94804,112.05777652909507L66.48912,113.24081898013075L67.03020000000001,113.95064445075218L67.57128,114.37653973312503L68.11236,114.63207690254875L68.65344,114.78539920420296L69.19452,114.87739258519548L69.7356,114.93258861379101L70.27668,116.06109143394303L70.81776,115.64280792303953L71.35884,115.39183781649743L71.89992,115.24125575257217L72.441,117.34167692020647L72.98208,118.60192962078702L73.52316,120.4534648118798L74.06424,121.56438592653546L74.60532,122.23093859532887L75.1464,123.72625539959962L75.68748000000001,124.62344548216207L76.22856,126.25714473469425L76.76964,127.23736428621356L77.31071999999999,127.82549601712513L77.8518,128.1783750556721L78.39287999999999,128.3901024788003L78.93396,128.51713893267717L79.47504,128.59336080500333L80.01612,128.63909392839898L80.55720000000001,128.66653380243642L81.09828,127.58761252386414L81.63936000000001,126.94025975672079L82.18043999999999,127.64723329942949L82.72152,128.0714174250547L83.26259999999999,128.32592790042983L83.80368,128.47863418565493L84.34476,129.66564234365956L84.88584,132.56861601220146L85.42692000000001,135.4057846001962L85.968,138.20347095598774L86.50908000000001,139.8820827694627L87.05015999999999,140.88924985754764L87.59124,141.49355011039862L88.13231999999999,140.76074505911447L88.6734,141.4164472313387L89.21448,141.80986853467329L89.75556,142.045921316674L90.29664,143.28293737274402L90.83772,145.12053180131815L91.3788,147.31847284533225L91.91988,148.6372374717407L92.46096,149.42849624758574L93.00204,150.9986363080249L93.54312,151.94072034428842L94.0842,152.50597076604652L94.62528,152.8451210191014L95.16636,153.04861117093432L95.70744,153.1707052620341L96.24852,153.24396171669392L96.78960000000001,153.2879155894898L97.33068,153.3142879131674L97.87176,153.3301113073739L98.41283999999999,154.4349899347987L98.95392,155.09791711125357L99.495,155.49567341712645L100.03608,156.8297117915511L100.57716,157.63013481620587L101.11824,158.1103886309987L101.65932000000001,158.39854091987442L102.2004,158.57143229319988L102.74148,158.67516711719512L103.28255999999999,158.73740801159227L103.82364,158.77475254823057L104.36471999999999,158.79715927021354L104.9058,158.81060330340333L105.44688000000001,158.81866972331719L105.98796,158.82350957526552L106.52904000000001,158.82641348643452L107.07012,158.82815583313592L107.61120000000001,158.82920124115677L108.15227999999999,158.82982848596924L108.69336,158.83020483285674L109.23443999999999,158.83043064098925L109.77552,158.83056612586876L110.3166,158.83064741679647L110.85768,158.83069619135307L111.39876,157.73534086518617L111.93984,157.07812766948607L112.48092000000001,156.68379975206597L113.022,156.4472030016139L113.56308,156.3052449513427L114.10416,156.22007012117996L114.64524,156.1689652230823L115.18632,156.13830228422373L115.7274,156.11990452090856L116.26848,156.1088658629195L116.80956,156.10224266812602L117.35064,156.09826875124998L117.89172,156.09588440112432L118.43279999999999,156.09445379104892L118.97388,156.0935954250037L119.51496,156.09308040537655L120.05604,156.09277139360026L120.59712,156.09258598653452L121.1382,156.09247474229505L121.67928,156.09240799575136L122.22036,156.09236794782515L122.76144000000001,154.99695932816857L123.30252,154.33971415637464L123.8436,153.94536705329827L124.38467999999999,153.70875879145242L124.92576,154.6621784252458L125.46684,155.2342302055218L126.00792,155.57746127368742L126.549,155.7833999145868L127.09008,155.90696309912641L127.63116000000001,155.9811010098502L128.17224000000002,156.02558375628445L128.71331999999998,156.052273404145L129.2544,156.06828719286136L129.79548,156.07789546609115L130.33656,156.08366043002903L130.87763999999999,156.08711940839174L131.41872,156.08919479540938L131.9598,156.09044002762L132.50088,156.09118716694633L133.04196000000002,156.09163545054213L133.58304,156.09190442069962L134.12412,156.0920658027941L134.6652,157.18754722295168L135.20628,157.8448360750462L135.74736,158.23920938630292L136.28844,158.47583337305696L136.82952,158.61780776510938L137.3706,158.7029924003408L137.91168000000002,158.75410318147968L138.45276,158.784769650163L138.99384,158.80316953137302L139.53492,157.71882486919816L140.07600000000002,157.06821807189323L140.61708000000002,156.67785399351027L141.15816,156.44363554648052L141.69923999999997,156.30310447826264L142.24032,156.21878583733192L142.7814,156.1681946527735L143.32247999999998,156.13783994203843L143.86355999999998,156.1196271155974L144.40464,156.10869941973277L144.94572,156.10214280221402L145.4868,156.09820883170275L146.02788,156.095848449396L146.56896,156.09443222001192L147.11004,156.0935824823815L147.65112,156.09307263980324L148.1922,156.0927667342563L148.73328,157.18796778182895L149.27436,157.8450884103726L149.81544,158.23936078749875L150.35652000000002,158.47592421377445L150.8976,158.61786226953987L151.43868,157.60764051209827L151.97976000000003,157.0015074576333L152.52084,156.63782762495433L153.06192,156.41961972534693L153.60299999999998,156.28869498558248L154.14408,155.114755550823L154.68516,154.41039188996726L155.22624,153.98777369345382L155.76731999999998,153.73420277554578L156.3084,153.58206022480095L156.84948,153.49077469435403L157.39056,153.4360033760859L157.93164000000002,152.30775579019286L158.47272,151.63080723865707L159.0138,151.22463810773556L159.55488,152.0763214241148L160.09596000000002,152.58733141394237L160.63704,152.89393740783888L161.17812,153.07790100417682L161.7192,153.18827916197955L162.26028000000002,153.2545060566612L162.80136,153.2942421934702L163.34243999999998,152.22269908062344L163.88351999999998,151.5797732129154L164.4246,151.19401769229057L164.96568,150.96256437991568L165.50675999999999,151.9190771874229L166.04784,152.4929848719272L166.58892,152.8373294826298L167.13,153.04393624905134L167.67108,153.16790030890428L168.21216,153.24227874481605L168.75324,153.2869058063631L169.29432,153.31368204329135L169.8354,153.3297477854483L170.37648000000002,153.33938723074243L170.91756,153.34517089791896L171.45864,153.34864109822485L171.99972000000002,153.35072321840838L172.54080000000002,153.3519724905185L173.08187999999998,153.3527220537846L173.62295999999998,154.44855638264508L174.16404,155.1060569799614L174.70512,155.50055733835117L175.2462,156.8326421442859L175.78727999999998,156.5365084369459L176.32836,156.35882821254188L176.86944,156.25222007789947L177.41052,156.18825519711402L177.9516,156.14987626864274L178.49268,157.22223350246085L179.03376,157.8656478427517L179.57484,158.25169644692622L180.11592000000002,158.48332560943095L180.657,158.62230310693377L181.19808,158.70568960543545L181.73916,158.75572150453647L182.28024000000002,159.88112523489795L182.82132000000001,160.55636747311482L183.36239999999998,160.96151281604494L183.90347999999997,161.20460002180303L184.44456,161.35045234525788L184.98564,161.4379637393308L185.52671999999998,161.49047057577454L186.0678,161.5219746776408L186.60888,161.54087713876052L187.14996,161.5522186154324L187.69104,161.5590235014355L188.23212,161.56310643303735L188.7732,161.56555619199847L189.31428,161.56702604737515L189.85536,161.56790796060116L190.39644,161.56843710853676L190.93752,161.56875459729812L191.4786,160.47356049965407L192.01968000000002,159.81644404106765L192.56076000000002,159.4221741659158L193.10184,159.18561224082467L193.64291999999998,159.04367508577002L194.184,158.9585127927372L194.72508,158.90741541691753L195.26615999999999,158.8767569914257L195.80723999999998,158.85836193613062L196.34832,158.84732490295357L196.8894,158.84070268304734L197.43048,158.8367293511036L197.97156,158.83434535193737L198.51264,158.83291495243762L199.05372,157.7366721218369L199.5948,157.07892642347647L200.13588000000001,156.68427900446022L200.67696,156.44749055305047L201.21804,156.30541748220463L201.75912,156.22017363969712L202.30020000000002,156.1690273341926L202.84128,156.1383395508899L203.38236,156.11992688090828L203.92344000000003,156.10887927891932L204.46452,156.10225071772592L205.0056,156.0982735810099L205.54667999999998,153.90511791314728L206.08776,152.5892245124297L206.62884,151.79968847199916L207.16992,151.3259668477408L207.71099999999998,151.04173387318582L208.25208,150.87119408845282L208.79316,150.76887021761303L209.33424,150.70747589510916L209.87532,150.67063930160683L210.4164,150.64853734550542L210.95748,150.6352761718446L211.49856,150.62731946764808L212.03964000000002,151.71793024006232L212.58072,152.37229670351087L213.1218,152.76491658158L213.66288,153.00048850842148L214.20396000000002,153.14183166452636L214.74504,154.32202214909017L215.28611999999998,155.03013643982842L215.82719999999998,156.55038960517226L216.36828,157.46254150437855L216.90936,158.00983264390234L217.45044,158.3382073276166L217.99152,158.53523213784516L218.5326,157.55806243308143L219.07368,156.9717606102232L219.61476,156.61997951650827L220.15584,156.4089108602793L220.69692,156.2822696665419L221.238,157.30166954120034L221.77908,159.00869405689627L222.32016000000002,160.03290876631382L222.86124,160.64743759196438L223.40232,161.01615488735467L223.94340000000003,161.23738526458885L224.48448000000002,161.3701234909294L225.02555999999998,161.44976642673367L225.56663999999998,161.49755218821628L226.10772,161.52622364510583L226.6488,161.54342651923957L227.18988,161.5537482437198L227.73095999999998,161.55994127840793L228.27204,161.56365709922082L228.81312,161.56588659170856L229.3542,161.56722428720119L229.89528,161.56802690449678L230.43636,161.56850847487414L230.97744,161.56879741710054L231.51852,161.5689707824364L232.05960000000002,161.5690748016379L232.60068,161.5691372131588L233.14176,161.56917466007135L233.68284,161.56919712821886L234.22392000000002,161.5692106091074L234.76500000000001,161.56921869764048L235.30607999999998,162.6646081416612L235.84715999999997,163.32184180807366L236.38824,163.7161820079211L236.92932,163.9527861278296L237.47039999999998,164.09474859977468L238.01148,164.17992608294173L238.55256,164.23103257284197L239.09364,164.2616964667821L239.63472,164.28009480314617L240.1758,164.29113380496463L240.71688,164.2977572060557L241.25796,164.30173124671035L241.79904,164.30411567110312L242.34012,164.30554632573882L242.8812,164.3064047185202L243.42228,164.30691975418904L243.96336000000002,164.30722877559035L244.50444000000002,164.30741418843115L245.04552,164.30752543613562L245.5866,164.30759218475828L246.12768,164.30763223393188L246.66876,164.30765626343606L247.20983999999999,164.30767068113855L247.75091999999998,164.30767933176006L248.292,164.30768452213294L248.83308,164.3076876363567L249.37416,164.30768950489096L249.91524,164.3076906260115L250.45632,164.30769129868384L250.9974,164.30769170228723L251.53848,164.30769194444926L252.07956000000001,163.2123074988456" style="fill: none;" fill="none"></path></g><g><path stroke="rgb(0, 153, 136)" stroke-width="2px" d="M32.40108,27.384615384615387L32.94216,27.384615384615387L33.48324,41.35635709500574L34.024319999999996,52.096666223930036L34.5654,51.276257090348906L35.10648,50.826838553156215L35.64756,50.570993477399135L36.18864000000001,41.138004243840506L36.72972,31.892187067223695L37.2708,30.07818984666014L37.81188,39.99056737664671L38.35296,49.906833883577356L38.894040000000004,57.57685968139279L39.43512,65.2228775610831L39.9762,72.40433937758492L40.51728,77.87051792289792L41.05836,81.14923795881532L41.599439999999994,84.19542255001046L42.140519999999995,80.90514341673207L42.6816,80.03536194175813L43.222680000000004,79.5135134095971L43.763760000000005,80.23772031825412L44.30484,81.6485243412333L44.84592,80.28581023185542L45.387,79.30346852648205L45.92808,78.71406529066957L46.46916,79.2473733759029L47.010239999999996,78.53979367475667L47.55132,78.11524613216224L48.0924,79.47594636485249L48.63348,78.55549836029488L49.17456000000001,78.00322963569936L49.71564,79.18722353824218L50.25672,80.60693380674208L50.7978,79.8564679634519L51.33888,79.40618846573447L51.879960000000004,79.83460756844596L52.42104,77.81319107129548L52.96212,77.92666204903595L53.5032,78.62173113995766L54.04428,79.64336788876646L54.585359999999994,80.2563499375273L55.126439999999995,82.84098966807552L55.667519999999996,83.6261828380696L56.208600000000004,84.60208193024516L56.749680000000005,85.18762138548558L57.29076,85.53894505860646L57.83184,84.52721318898733L58.37292,81.58625857682841L58.914,80.34188070684748L59.45508,81.06666557985024L59.996159999999996,82.4143594104399L60.53724,84.50092320799524L61.07832,86.93250508082902L61.6194,89.48372017725268L62.16048,91.36077683338434L62.70156,92.48701082706286L63.24264,93.16275122326982L63.78372,94.23611227242351L64.3248,93.30630013135143L64.86588,92.74841284670823L65.40696,94.28196719561134L65.94804,95.49029317753293L66.48912,96.77366363009037L67.03020000000001,97.54368590162483L67.57128,98.2762512761821L68.11236,98.13404834261355L68.65344,98.04872658247243L69.19452,98.26308269093971L69.7356,98.39169635602006L70.27668,98.46886455506828L70.81776,99.61054904524167L71.35884,101.3909449423404L71.89992,103.55456768359437L72.441,104.85274132834675L72.98208,107.82241428893732L73.52316,109.60421806529168L74.06424,111.76868390184872L74.60532,113.06736340378292L75.1464,113.8465711049435L75.68748000000001,114.3140957256398L76.22856,114.59461049805758L76.76964,114.76291936150827L77.31071999999999,113.76852110883424L77.8518,113.17188215722982L78.39287999999999,113.9092823570116L78.93396,115.4471076798754L79.47504,117.46518807658836L80.01612,119.77141988536063L80.55720000000001,121.15515897062397L81.09828,120.89001885103752L81.63936000000001,121.82631835003009L82.18043999999999,122.38809804942565L82.72152,123.82055107205768L83.26259999999999,125.77540808863162L83.80368,126.94832229857597L84.34476,127.65207082454259L84.88584,129.16970432699216L85.42692000000001,130.08028442846188L85.968,129.53124810247414L86.50908000000001,129.20182630688151L87.05015999999999,129.00417322952592L87.59124,129.98096576998213L88.13231999999999,130.56704129425586L88.6734,134.20483976942884L89.21448,135.29213446766306L89.75556,135.94451128660359L90.29664,136.3359373779679L90.83772,136.57079303278647L91.3788,136.71170642567762L91.91988,136.7962544614123L92.46096,139.03775287271742L93.00204,140.3826519195005L93.54312,141.1895913475703L94.0842,141.67375500441221L94.62528,143.05963758538695L95.16636,144.9865519289039L95.70744,146.14270053501411L96.24852,146.83638969868022L96.78960000000001,147.25260319687987L97.33068,148.59771568266927L97.87176,149.4047831741429L98.41283999999999,149.88902366902707L98.95392,151.27495276088973L99.495,152.1065102160073L100.03608,152.60544468907787L100.57716,152.90480537292018L101.11824,153.0844217832256L101.65932000000001,154.2875762203097L102.2004,155.00946888256016L102.74148,155.44260447991044L103.28255999999999,155.7024858383206L103.82364,155.8584146533667L104.36471999999999,154.8565873514935L104.9058,155.3508755612704L105.44688000000001,155.64744848713661L105.98796,155.8253922426563L106.52904000000001,157.02754308686897L107.07012,157.7488335933966L107.61120000000001,158.18160789731317L108.15227999999999,158.4412724796631L108.69336,158.59707122907304L109.23443999999999,158.69055047871905L109.77552,158.74663802850662L110.3166,158.78029055837916L110.85768,158.8004820763027L111.39876,158.81259698705682L111.93984,158.8198659335093L112.48092000000001,158.82422730138077L113.022,157.7314595312028L113.56308,157.07579886909602L114.10416,156.68240247183195L114.64524,156.4463646334735L115.18632,156.30474193045845L115.7274,156.2197683086494L116.26848,156.16878413556398L116.80956,155.04280904081187L117.35064,154.3672239839606L117.89172,153.96187294984983L118.43279999999999,153.7186623293834L118.97388,153.5727359571035L119.51496,153.48518013373558L120.05604,153.43264663971482L120.59712,153.40112654330238L121.1382,153.3822144854549L121.67928,153.37086725074641L122.22036,153.36405890992134L122.76144000000001,153.35997390542627L123.30252,153.35752290272924L123.8436,153.35605230111102L124.38467999999999,153.3551699401401L124.92576,153.35464052355752L125.46684,153.354322873608L126.00792,153.35413228363828L126.549,153.35401792965644L127.09008,154.4493339081682L127.63116000000001,155.10652349527527L128.17224000000002,155.5008372475395L128.71331999999998,155.73742549889803L129.2544,155.87937844971316L129.79548,157.0599348111031L130.33656,157.76826862793706L130.87763999999999,158.19326891803743L131.41872,158.44826909209766L131.9598,159.69665378743466L132.50088,160.44568460463685L133.04196000000002,160.8951030949582L133.58304,161.16475418915095L134.12412,162.4219294365675L134.6652,163.17623458501743L135.20628,162.5334330831865L135.74736,162.14775218208797L136.28844,161.91634364142885L136.82952,161.77749851703337L137.3706,161.6941914423961L137.91168000000002,161.64420719761372L138.45276,161.61421665074428L138.99384,161.59622232262262L139.53492,161.58542572574964L140.07600000000002,161.57894776762586L140.61708000000002,161.57506099275156L141.15816,161.572728927827L141.69923999999997,161.57132968887225L142.24032,161.57049014549943L142.7814,161.56998641947573L143.32247999999998,161.56968418386148L143.86355999999998,161.56950284249297L144.40464,161.56939403767183L144.94572,161.56932875477918L145.4868,161.56928958504355L146.02788,161.5692660832022L146.56896,161.56925198209737L147.11004,161.5692435214345L147.65112,161.56923844503675L148.1922,161.5692353991981L148.73328,161.56923357169495L149.27436,161.56923247519302L149.81544,161.5692318172919L150.35652000000002,161.56923142255118L150.8976,161.56923118570677L151.43868,161.56923104360013L151.97976000000003,161.56923095833614L152.52084,161.56923090717774L153.06192,161.56923087648272L153.60299999999998,161.56923085806568L154.14408,161.5692308470155L154.68516,161.56923084038533L155.22624,161.56923083640729L155.76731999999998,161.56923083402043L156.3084,161.56923083258832L156.84948,161.56923083172904L157.39056,161.5692308312135L157.93164000000002,161.56923083090416L158.47272,161.56923083071857L159.0138,161.5692308306072L159.55488,161.5692308305404L160.09596000000002,161.5692308305003L160.63704,161.56923083047624L161.17812,161.5692308304618L161.7192,161.56923083045314L162.26028000000002,161.56923083044796L162.80136,160.47384623954397L163.34243999999998,159.8166154850016L163.88351999999998,159.42227703227616L164.4246,159.18567396064088L164.96568,159.04371211765974L165.50675999999999,158.95853501187105L166.04784,158.90742874839782L166.58892,158.8767649903139L167.13,158.85836673546353L167.67108,158.84732778255332L168.21216,159.93608900170807L168.75324,160.5893457332009L169.29432,160.9812997720966L169.8354,161.21647219543402L170.37648000000002,161.35757564943648L170.91756,161.44223772183796L171.45864,161.49303496527884L171.99972000000002,161.52351331134335L172.54080000000002,161.54180031898207L173.08187999999998,161.5527725235653L173.62295999999998,161.55935584631524L174.16404,161.5633058399652L174.70512,161.56567583615518L175.2462,161.56709783386918L175.78727999999998,161.56795103249758L176.32836,161.5684629516746L176.86944,161.56877010318084L177.41052,162.66433898498542L177.9516,163.32168031406817L178.49268,163.71608511151783L179.03376,163.9527279899876L179.57484,164.0947137170695L180.11592000000002,164.17990515331863L180.657,164.2310200150681L181.19808,164.26168893211778L181.73916,164.2800902823476L182.28024000000002,164.29113109248547L182.82132000000001,164.2977555785682L183.36239999999998,164.30173027021786L183.90347999999997,164.30411508520763L184.44456,164.3055459742015L184.98564,164.30640450759782L185.52671999999998,164.3069196276356L186.0678,164.3072286996583L186.60888,164.3074141428719L187.14996,164.30752540880007L187.69104,164.30759216835696L188.23212,164.3076322240911L188.7732,164.3076562575316L189.31428,164.3076706775959L189.85536,164.30767932963445L190.39644,164.30768452085758L190.93752,164.3076876355915L191.4786,164.3076895044318L192.01968000000002,164.307690625736L192.56076000000002,164.30769129851853L193.10184,164.30769170218804L193.64291999999998,164.30769194438975L194.184,164.30769208971077L194.72508,164.3076921769034L195.26615999999999,164.30769222921896L195.80723999999998,164.3076922606083L196.34832,164.3076922794419L196.8894,164.30769229074207L197.43048,164.30769229752215L197.97156,164.3076923015902L198.51264,164.30769230403106L199.05372,164.30769230549555L199.5948,164.30769230637426L200.13588000000001,164.3076923069015L200.67696,164.30769230721782L201.21804,164.3076923074076L201.75912,164.3076923075215L202.30020000000002,164.3076923075898L202.84128,164.30769230763082L203.38236,164.3076923076554L203.92344000000003,164.30769230767015L204.46452,164.30769230767902L205.0056,164.30769230768433L205.54667999999998,164.30769230768755L206.08776,164.30769230768942L206.62884,164.3076923076906L207.16992,164.30769230769127L207.71099999999998,164.3076923076917L208.25208,163.2123077167911L208.79316,162.55507696225072L209.33424,162.16073850952648L209.87532,161.92413543789195L210.4164,161.78217359491123L210.95748,161.69699648912282L211.49856,161.64589022564974L212.03964000000002,161.61522646756592L212.58072,161.5968282127156L213.1218,161.58578925980544L213.66288,161.57916588805932L214.20396000000002,161.57519186501165L214.74504,161.57280745118305L215.28611999999998,161.5713768028859L215.82719999999998,161.5705184139076L216.36828,161.57000338052063L216.90936,160.47430976958756L217.45044,159.81689360302772L217.99152,159.42244390309185L218.5326,159.18577408313033L219.07368,159.04377219115338L219.61476,158.9585710559672L220.15584,158.90745037485553L220.69692,158.8767779661885L221.238,158.85837452098832L221.77908,158.84733245386818L222.32016000000002,158.84070721359612L222.86124,158.83673206943288L223.40232,158.8343469829349L223.94340000000003,158.83291593103615L224.48448000000002,158.8320572998969L225.02555999999998,158.83154212121335L225.56663999999998,158.8312330140032L226.10772,158.83104754967712L226.6488,159.92632086198233L227.18988,159.4881002584646" style="fill: none;" fill="none"></path></g></g></g></g><g opacity="0.2"><g><g><g><path stroke="rgb(0, 119, 187)" stroke-width="2px" d="M32.40108,61.61538461538461L32.94216,73.02563830522391L33.48324,54.7692291369805L34.024319999999996,64.72726975954498L34.5654,58.98224663734436L35.10648,73.02563830522391L35.64756,83.76470252183768L36.18864000000001,88.23931261209341L36.72972,92.24291240251983L37.2708,99.10622691191162L37.81188,102.06992821510022L38.35296,104.77592168404504L38.894040000000004,107.25641161661883L39.43512,109.53846072233642L39.9762,103.45299099958862L40.51728,105.62637304342712L41.05836,107.64986554475932L41.599439999999994,112.96153846153845L42.140519999999995,115.98189925230469L42.6816,117.36263608015503L43.222680000000004,117.36263608015503L43.763760000000005,117.36263608015503L44.30484,112.4989587343656L44.84592,106.6558700158046L45.387,108.13412155554846L45.92808,109.53846072233642L46.46916,110.87429842582117L47.010239999999996,106.99105668984927L47.55132,109.53846072233642L48.0924,110.72909752222209L48.63348,114.00941865260785L49.17456000000001,114.00941865260785L49.71564,115.98189925230469L50.25672,115.98189925230469L50.7978,115.98189925230469L51.33888,107.47169726628525L51.879960000000004,104.55944041105418L52.42104,104.55944041105418L52.96212,104.55944041105418L53.5032,97.04723296715665L54.04428,99.3272499212852L54.585359999999994,98.05459254521591L55.126439999999995,98.05459254521591L55.667519999999996,99.10622691191162L56.208600000000004,99.10622691191162L56.749680000000005,92.68638664025528L57.29076,92.68638664025528L57.83184,92.68638664025528L58.37292,91.819000684298L58.914,91.819000684298L59.45508,89.97801824716421L59.996159999999996,91.02491908807022L60.53724,93.032668535526L61.07832,93.032668535526L61.6194,93.9958430987138L62.16048,98.44595719300784L62.70156,98.44595719300784L63.24264,99.2692315853559L63.78372,100.85553401250107L64.3248,102.36629997766937L64.86588,103.80679756861468L65.40696,104.50220963588129L65.94804,106.49572586096252L66.48912,106.49572586096252L67.03020000000001,104.1217239361543L67.57128,104.77592168404504L68.11236,102.47146586271434L68.65344,103.129295367461L69.19452,100.89068860274097L69.7356,100.89068860274097L70.27668,99.37509933801799L70.81776,97.24332743424637L71.35884,98.58461685364063L71.89992,104.06153878798852L72.441,106.80000179547531L72.98208,106.80000179547531L73.52316,106.80000179547531L74.06424,109.53846072233642L74.60532,106.80000179547531L75.1464,109.53846072233642L75.68748000000001,109.53846072233642L76.22856,109.53846072233642L76.76964,106.80000179547531L77.31071999999999,104.06153878798852L77.8518,104.06153878798852L78.39287999999999,104.06153878798852L78.93396,101.32307578050174L79.47504,101.32307578050174L80.01612,101.32307578050174L80.55720000000001,98.58461685364063L81.09828,98.58461685364063L81.63936000000001,98.58461685364063L82.18043999999999,98.58461685364063L82.72152,98.58461685364063L83.26259999999999,98.58461685364063L83.80368,98.58461685364063L84.34476,101.32307578050174L84.88584,104.06153878798852L85.42692000000001,104.06153878798852L85.968,104.06153878798852L86.50908000000001,104.06153878798852L87.05015999999999,104.06153878798852L87.59124,104.06153878798852L88.13231999999999,104.06153878798852L88.6734,104.06153878798852L89.21448,101.32307578050174L89.75556,101.32307578050174L90.29664,104.06153878798852L90.83772,106.80000179547531L91.3788,109.53846072233642L91.91988,112.27692372982318L92.46096,115.0153826566843L93.00204,115.0153826566843L93.54312,115.0153826566843L94.0842,123.23076759851898L94.62528,123.23076759851898L95.16636,125.96923060600574L95.70744,125.96923060600574L96.24852,125.96923060600574L96.78960000000001,125.96923060600574L97.33068,123.23076759851898L97.87176,123.23076759851898L98.41283999999999,123.23076759851898L98.95392,123.23076759851898L99.495,123.23076759851898L100.03608,120.49230867165787L100.57716,120.49230867165787L101.11824,120.49230867165787L101.65932000000001,120.49230867165787L102.2004,123.23076759851898L102.74148,125.96923060600574L103.28255999999999,125.96923060600574L103.82364,125.96923060600574L104.36471999999999,128.70769361349255L104.9058,128.70769361349255L105.44688000000001,125.96923060600574L105.98796,125.96923060600574L106.52904000000001,125.96923060600574L107.07012,125.96923060600574L107.61120000000001,123.23076759851898L108.15227999999999,123.23076759851898L108.69336,125.96923060600574L109.23443999999999,131.44615458066647L109.77552,131.44615458066647L110.3166,134.18461554784042L110.85768,134.18461554784042L111.39876,134.18461554784042L111.93984,136.92307651501437L112.48092000000001,134.18461554784042L113.022,134.18461554784042L113.56308,134.18461554784042L114.10416,134.18461554784042L114.64524,134.18461554784042L115.18632,134.18461554784042L115.7274,134.18461554784042L116.26848,134.18461554784042L116.80956,134.18461554784042L117.35064,134.18461554784042L117.89172,134.18461554784042L118.43279999999999,134.18461554784042L118.97388,136.92307651501437L119.51496,139.6615374821883L120.05604,139.6615374821883L120.59712,139.6615374821883L121.1382,136.92307651501437L121.67928,136.92307651501437L122.22036,136.92307651501437L122.76144000000001,136.92307651501437L123.30252,136.92307651501437L123.8436,139.6615374821883L124.38467999999999,139.6615374821883L124.92576,139.6615374821883L125.46684,139.6615374821883L126.00792,142.40000048967508L126.549,142.40000048967508L127.09008,145.13846145684903L127.63116000000001,147.8769234441794L128.17224000000002,147.8769234441794L128.71331999999998,150.61538441135332L129.2544,153.3538463986837L129.79548,153.3538463986837L130.33656,153.3538463986837L130.87763999999999,153.3538463986837L131.41872,153.3538463986837L131.9598,156.09230787593586L132.50088,158.830769353188L133.04196000000002,158.830769353188L133.58304,158.830769353188L134.12412,156.09230787593586L134.6652,156.09230787593586L135.20628,156.09230787593586L135.74736,156.09230787593586L136.28844,156.09230787593586L136.82952,156.09230787593586L137.3706,156.09230787593586L137.91168000000002,153.3538463986837L138.45276,156.09230787593586L138.99384,156.09230787593586L139.53492,156.09230787593586L140.07600000000002,153.3538463986837L140.61708000000002,153.3538463986837L141.15816,156.09230787593586L141.69923999999997,156.09230787593586L142.24032,156.09230787593586L142.7814,156.09230787593586L143.32247999999998,156.09230787593586L143.86355999999998,156.09230787593586L144.40464,156.09230787593586L144.94572,156.09230787593586L145.4868,156.09230787593586L146.02788,156.09230787593586L146.56896,156.09230787593586L147.11004,156.09230787593586L147.65112,156.09230787593586L148.1922,156.09230787593586L148.73328,156.09230787593586L149.27436,156.09230787593586L149.81544,156.09230787593586L150.35652000000002,153.3538463986837L150.8976,153.3538463986837L151.43868,153.3538463986837L151.97976000000003,153.3538463986837L152.52084,153.3538463986837L153.06192,153.3538463986837L153.60299999999998,153.3538463986837L154.14408,153.3538463986837L154.68516,153.3538463986837L155.22624,153.3538463986837L155.76731999999998,150.61538441135332L156.3084,153.3538463986837L156.84948,153.3538463986837L157.39056,153.3538463986837L157.93164000000002,156.09230787593586L158.47272,156.09230787593586L159.0138,156.09230787593586L159.55488,156.09230787593586L160.09596000000002,158.830769353188L160.63704,158.830769353188L161.17812,158.830769353188L161.7192,158.830769353188L162.26028000000002,158.830769353188L162.80136,158.830769353188L163.34243999999998,158.830769353188L163.88351999999998,158.830769353188L164.4246,158.830769353188L164.96568,158.830769353188L165.50675999999999,158.830769353188L166.04784,158.830769353188L166.58892,158.830769353188L167.13,158.830769353188L167.67108,158.830769353188L168.21216,158.830769353188L168.75324,158.830769353188L169.29432,158.830769353188L169.8354,158.830769353188L170.37648000000002,161.56923083044015L170.91756,161.56923083044015L171.45864,161.56923083044015L171.99972000000002,161.56923083044015L172.54080000000002,161.56923083044015L173.08187999999998,161.56923083044015L173.62295999999998,161.56923083044015L174.16404,161.56923083044015L174.70512,161.56923083044015L175.2462,164.30769230769232L175.78727999999998,164.30769230769232L176.32836,164.30769230769232L176.86944,164.30769230769232L177.41052,164.30769230769232L177.9516,164.30769230769232L178.49268,161.56923083044015L179.03376,161.56923083044015L179.57484,158.830769353188L180.11592000000002,158.830769353188L180.657,158.830769353188L181.19808,158.830769353188L181.73916,158.830769353188L182.28024000000002,158.830769353188L182.82132000000001,158.830769353188L183.36239999999998,158.830769353188L183.90347999999997,158.830769353188L184.44456,158.830769353188L184.98564,158.830769353188L185.52671999999998,158.830769353188L186.0678,158.830769353188L186.60888,158.830769353188L187.14996,158.830769353188L187.69104,156.09230787593586L188.23212,156.09230787593586L188.7732,156.09230787593586L189.31428,156.09230787593586L189.85536,153.3538463986837L190.39644,153.3538463986837L190.93752,153.3538463986837L191.4786,153.3538463986837L192.01968000000002,153.3538463986837L192.56076000000002,153.3538463986837L193.10184,153.3538463986837L193.64291999999998,153.3538463986837L194.184,153.3538463986837L194.72508,153.3538463986837L195.26615999999999,153.3538463986837L195.80723999999998,153.3538463986837L196.34832,150.61538441135332L196.8894,153.3538463986837L197.43048,156.09230787593586L197.97156,156.09230787593586L198.51264,156.09230787593586L199.05372,156.09230787593586L199.5948,156.09230787593586L200.13588000000001,156.09230787593586L200.67696,156.09230787593586L201.21804,156.09230787593586L201.75912,156.09230787593586L202.30020000000002,156.09230787593586L202.84128,156.09230787593586L203.38236,156.09230787593586L203.92344000000003,158.830769353188L204.46452,158.830769353188L205.0056,158.830769353188L205.54667999999998,158.830769353188L206.08776,161.56923083044015L206.62884,161.56923083044015L207.16992,161.56923083044015L207.71099999999998,161.56923083044015L208.25208,161.56923083044015L208.79316,161.56923083044015L209.33424,161.56923083044015L209.87532,158.830769353188L210.4164,158.830769353188L210.95748,158.830769353188L211.49856,158.830769353188L212.03964000000002,158.830769353188L212.58072,161.56923083044015L213.1218,161.56923083044015L213.66288,161.56923083044015L214.20396000000002,161.56923083044015L214.74504,161.56923083044015L215.28611999999998,161.56923083044015L215.82719999999998,161.56923083044015L216.36828,161.56923083044015L216.90936,161.56923083044015L217.45044,161.56923083044015L217.99152,161.56923083044015L218.5326,161.56923083044015L219.07368,161.56923083044015L219.61476,161.56923083044015L220.15584,161.56923083044015L220.69692,161.56923083044015L221.238,161.56923083044015L221.77908,161.56923083044015L222.32016000000002,161.56923083044015L222.86124,161.56923083044015L223.40232,161.56923083044015L223.94340000000003,161.56923083044015L224.48448000000002,161.56923083044015L225.02555999999998,164.30769230769232L225.56663999999998,164.30769230769232L226.10772,164.30769230769232L226.6488,164.30769230769232L227.18988,164.30769230769232L227.73095999999998,164.30769230769232L228.27204,164.30769230769232L228.81312,164.30769230769232L229.3542,164.30769230769232L229.89528,164.30769230769232L230.43636,164.30769230769232L230.97744,164.30769230769232L231.51852,164.30769230769232L232.05960000000002,164.30769230769232L232.60068,164.30769230769232L233.14176,164.30769230769232L233.68284,164.30769230769232L234.22392000000002,164.30769230769232L234.76500000000001,164.30769230769232L235.30607999999998,164.30769230769232L235.84715999999997,164.30769230769232L236.38824,164.30769230769232L236.92932,164.30769230769232L237.47039999999998,164.30769230769232L238.01148,164.30769230769232L238.55256,164.30769230769232L239.09364,164.30769230769232L239.63472,164.30769230769232L240.1758,164.30769230769232L240.71688,164.30769230769232L241.25796,164.30769230769232L241.79904,164.30769230769232L242.34012,164.30769230769232L242.8812,164.30769230769232L243.42228,164.30769230769232L243.96336000000002,164.30769230769232L244.50444000000002,164.30769230769232L245.04552,164.30769230769232L245.5866,164.30769230769232L246.12768,164.30769230769232L246.66876,164.30769230769232L247.20983999999999,164.30769230769232L247.75091999999998,164.30769230769232L248.292,164.30769230769232L248.83308,164.30769230769232L249.37416,164.30769230769232L249.91524,164.30769230769232L250.45632,164.30769230769232L250.9974,164.30769230769232L251.53848,164.30769230769232L252.07956000000001,164.30769230769232L252.62064,164.30769230769232L253.16172,164.30769230769232L253.7028,164.30769230769232L254.24388000000002,164.30769230769232L254.78496,164.30769230769232L255.32604,164.30769230769232L255.86712000000003,164.30769230769232L256.40819999999997,164.30769230769232L256.94928,164.30769230769232L257.49036,164.30769230769232L258.03144,164.30769230769232L258.57252,164.30769230769232L259.1136,164.30769230769232L259.65468,164.30769230769232L260.19576,164.30769230769232L260.73684,164.30769230769232L261.27792,164.30769230769232L261.819,164.30769230769232L262.36008,164.30769230769232L262.90116,164.30769230769232L263.44224,164.30769230769232L263.98332,164.30769230769232" style="fill: none;" fill="none"></path></g><g><path stroke="rgb(187, 187, 187)" stroke-width="2px" d="M32.40108,64.72726975954498L32.94216,73.02563830522391L33.48324,73.02563830522391L34.024319999999996,83.76470252183768L34.5654,88.23931261209341L35.10648,102.06992821510022L35.64756,107.25641161661883L36.18864000000001,109.53846072233642L36.72972,109.53846072233642L37.2708,103.45299099958862L37.81188,100.41025613821472L38.35296,100.41025613821472L38.894040000000004,104.40384615384616L39.43512,106.2191124879397L39.9762,101.71428536451782L40.51728,106.6558700158046L41.05836,106.6558700158046L41.599439999999994,108.13412155554846L42.140519999999995,108.13412155554846L42.6816,105.62637304342712L43.222680000000004,106.99105668984927L43.763760000000005,109.53846072233642L44.30484,107.25641161661883L44.84592,107.25641161661883L45.387,108.42072021961212L45.92808,105.24283503569092L46.46916,107.47169726628525L47.010239999999996,109.53846072233642L47.55132,109.53846072233642L48.0924,111.4601905804414L48.63348,114.10256301439728L49.17456000000001,112.14651917494263L49.71564,112.14651917494263L50.25672,112.96153846153845L50.7978,114.51748103361865L51.33888,114.51748103361865L51.879960000000004,115.98189925230469L52.42104,114.16684919137222L52.96212,114.86324877005359L53.5032,116.84102602188403L54.04428,116.84102602188403L54.585359999999994,118.07392586194553L55.126439999999995,118.07392586194553L55.667519999999996,115.77799446766193L56.208600000000004,116.38461620074054L56.749680000000005,114.21388248296886L57.29076,114.21388248296886L57.83184,114.21388248296886L58.37292,114.21388248296886L58.914,109.53846072233642L59.45508,106.99105668984927L59.996159999999996,108.29370666467227L60.53724,109.53846072233642L61.07832,109.53846072233642L61.6194,110.72909752222209L62.16048,111.86906519302954L62.70156,110.10897299876581L63.24264,110.10897299876581L63.78372,110.10897299876581L64.3248,112.27692372982318L64.86588,109.53846072233642L65.40696,109.53846072233642L65.94804,115.0153826566843L66.48912,115.0153826566843L67.03020000000001,115.0153826566843L67.57128,115.0153826566843L68.11236,115.0153826566843L68.65344,115.0153826566843L69.19452,115.0153826566843L69.7356,115.0153826566843L70.27668,117.75384566417108L70.81776,115.0153826566843L71.35884,115.0153826566843L71.89992,115.0153826566843L72.441,120.49230867165787L72.98208,120.49230867165787L73.52316,123.23076759851898L74.06424,123.23076759851898L74.60532,123.23076759851898L75.1464,125.96923060600574L75.68748000000001,125.96923060600574L76.22856,128.70769361349255L76.76964,128.70769361349255L77.31071999999999,128.70769361349255L77.8518,128.70769361349255L78.39287999999999,128.70769361349255L78.93396,128.70769361349255L79.47504,128.70769361349255L80.01612,128.70769361349255L80.55720000000001,128.70769361349255L81.09828,125.96923060600574L81.63936000000001,125.96923060600574L82.18043999999999,128.70769361349255L82.72152,128.70769361349255L83.26259999999999,128.70769361349255L83.80368,128.70769361349255L84.34476,131.44615458066647L84.88584,136.92307651501437L85.42692000000001,139.6615374821883L85.968,142.40000048967508L86.50908000000001,142.40000048967508L87.05015999999999,142.40000048967508L87.59124,142.40000048967508L88.13231999999999,139.6615374821883L88.6734,142.40000048967508L89.21448,142.40000048967508L89.75556,142.40000048967508L90.29664,145.13846145684903L90.83772,147.8769234441794L91.3788,150.61538441135332L91.91988,150.61538441135332L92.46096,150.61538441135332L93.00204,153.3538463986837L93.54312,153.3538463986837L94.0842,153.3538463986837L94.62528,153.3538463986837L95.16636,153.3538463986837L95.70744,153.3538463986837L96.24852,153.3538463986837L96.78960000000001,153.3538463986837L97.33068,153.3538463986837L97.87176,153.3538463986837L98.41283999999999,156.09230787593586L98.95392,156.09230787593586L99.495,156.09230787593586L100.03608,158.830769353188L100.57716,158.830769353188L101.11824,158.830769353188L101.65932000000001,158.830769353188L102.2004,158.830769353188L102.74148,158.830769353188L103.28255999999999,158.830769353188L103.82364,158.830769353188L104.36471999999999,158.830769353188L104.9058,158.830769353188L105.44688000000001,158.830769353188L105.98796,158.830769353188L106.52904000000001,158.830769353188L107.07012,158.830769353188L107.61120000000001,158.830769353188L108.15227999999999,158.830769353188L108.69336,158.830769353188L109.23443999999999,158.830769353188L109.77552,158.830769353188L110.3166,158.830769353188L110.85768,158.830769353188L111.39876,156.09230787593586L111.93984,156.09230787593586L112.48092000000001,156.09230787593586L113.022,156.09230787593586L113.56308,156.09230787593586L114.10416,156.09230787593586L114.64524,156.09230787593586L115.18632,156.09230787593586L115.7274,156.09230787593586L116.26848,156.09230787593586L116.80956,156.09230787593586L117.35064,156.09230787593586L117.89172,156.09230787593586L118.43279999999999,156.09230787593586L118.97388,156.09230787593586L119.51496,156.09230787593586L120.05604,156.09230787593586L120.59712,156.09230787593586L121.1382,156.09230787593586L121.67928,156.09230787593586L122.22036,156.09230787593586L122.76144000000001,153.3538463986837L123.30252,153.3538463986837L123.8436,153.3538463986837L124.38467999999999,153.3538463986837L124.92576,156.09230787593586L125.46684,156.09230787593586L126.00792,156.09230787593586L126.549,156.09230787593586L127.09008,156.09230787593586L127.63116000000001,156.09230787593586L128.17224000000002,156.09230787593586L128.71331999999998,156.09230787593586L129.2544,156.09230787593586L129.79548,156.09230787593586L130.33656,156.09230787593586L130.87763999999999,156.09230787593586L131.41872,156.09230787593586L131.9598,156.09230787593586L132.50088,156.09230787593586L133.04196000000002,156.09230787593586L133.58304,156.09230787593586L134.12412,156.09230787593586L134.6652,158.830769353188L135.20628,158.830769353188L135.74736,158.830769353188L136.28844,158.830769353188L136.82952,158.830769353188L137.3706,158.830769353188L137.91168000000002,158.830769353188L138.45276,158.830769353188L138.99384,158.830769353188L139.53492,156.09230787593586L140.07600000000002,156.09230787593586L140.61708000000002,156.09230787593586L141.15816,156.09230787593586L141.69923999999997,156.09230787593586L142.24032,156.09230787593586L142.7814,156.09230787593586L143.32247999999998,156.09230787593586L143.86355999999998,156.09230787593586L144.40464,156.09230787593586L144.94572,156.09230787593586L145.4868,156.09230787593586L146.02788,156.09230787593586L146.56896,156.09230787593586L147.11004,156.09230787593586L147.65112,156.09230787593586L148.1922,156.09230787593586L148.73328,158.830769353188L149.27436,158.830769353188L149.81544,158.830769353188L150.35652000000002,158.830769353188L150.8976,158.830769353188L151.43868,156.09230787593586L151.97976000000003,156.09230787593586L152.52084,156.09230787593586L153.06192,156.09230787593586L153.60299999999998,156.09230787593586L154.14408,153.3538463986837L154.68516,153.3538463986837L155.22624,153.3538463986837L155.76731999999998,153.3538463986837L156.3084,153.3538463986837L156.84948,153.3538463986837L157.39056,153.3538463986837L157.93164000000002,150.61538441135332L158.47272,150.61538441135332L159.0138,150.61538441135332L159.55488,153.3538463986837L160.09596000000002,153.3538463986837L160.63704,153.3538463986837L161.17812,153.3538463986837L161.7192,153.3538463986837L162.26028000000002,153.3538463986837L162.80136,153.3538463986837L163.34243999999998,150.61538441135332L163.88351999999998,150.61538441135332L164.4246,150.61538441135332L164.96568,150.61538441135332L165.50675999999999,153.3538463986837L166.04784,153.3538463986837L166.58892,153.3538463986837L167.13,153.3538463986837L167.67108,153.3538463986837L168.21216,153.3538463986837L168.75324,153.3538463986837L169.29432,153.3538463986837L169.8354,153.3538463986837L170.37648000000002,153.3538463986837L170.91756,153.3538463986837L171.45864,153.3538463986837L171.99972000000002,153.3538463986837L172.54080000000002,153.3538463986837L173.08187999999998,153.3538463986837L173.62295999999998,156.09230787593586L174.16404,156.09230787593586L174.70512,156.09230787593586L175.2462,158.830769353188L175.78727999999998,156.09230787593586L176.32836,156.09230787593586L176.86944,156.09230787593586L177.41052,156.09230787593586L177.9516,156.09230787593586L178.49268,158.830769353188L179.03376,158.830769353188L179.57484,158.830769353188L180.11592000000002,158.830769353188L180.657,158.830769353188L181.19808,158.830769353188L181.73916,158.830769353188L182.28024000000002,161.56923083044015L182.82132000000001,161.56923083044015L183.36239999999998,161.56923083044015L183.90347999999997,161.56923083044015L184.44456,161.56923083044015L184.98564,161.56923083044015L185.52671999999998,161.56923083044015L186.0678,161.56923083044015L186.60888,161.56923083044015L187.14996,161.56923083044015L187.69104,161.56923083044015L188.23212,161.56923083044015L188.7732,161.56923083044015L189.31428,161.56923083044015L189.85536,161.56923083044015L190.39644,161.56923083044015L190.93752,161.56923083044015L191.4786,158.830769353188L192.01968000000002,158.830769353188L192.56076000000002,158.830769353188L193.10184,158.830769353188L193.64291999999998,158.830769353188L194.184,158.830769353188L194.72508,158.830769353188L195.26615999999999,158.830769353188L195.80723999999998,158.830769353188L196.34832,158.830769353188L196.8894,158.830769353188L197.43048,158.830769353188L197.97156,158.830769353188L198.51264,158.830769353188L199.05372,156.09230787593586L199.5948,156.09230787593586L200.13588000000001,156.09230787593586L200.67696,156.09230787593586L201.21804,156.09230787593586L201.75912,156.09230787593586L202.30020000000002,156.09230787593586L202.84128,156.09230787593586L203.38236,156.09230787593586L203.92344000000003,156.09230787593586L204.46452,156.09230787593586L205.0056,156.09230787593586L205.54667999999998,150.61538441135332L206.08776,150.61538441135332L206.62884,150.61538441135332L207.16992,150.61538441135332L207.71099999999998,150.61538441135332L208.25208,150.61538441135332L208.79316,150.61538441135332L209.33424,150.61538441135332L209.87532,150.61538441135332L210.4164,150.61538441135332L210.95748,150.61538441135332L211.49856,150.61538441135332L212.03964000000002,153.3538463986837L212.58072,153.3538463986837L213.1218,153.3538463986837L213.66288,153.3538463986837L214.20396000000002,153.3538463986837L214.74504,156.09230787593586L215.28611999999998,156.09230787593586L215.82719999999998,158.830769353188L216.36828,158.830769353188L216.90936,158.830769353188L217.45044,158.830769353188L217.99152,158.830769353188L218.5326,156.09230787593586L219.07368,156.09230787593586L219.61476,156.09230787593586L220.15584,156.09230787593586L220.69692,156.09230787593586L221.238,158.830769353188L221.77908,161.56923083044015L222.32016000000002,161.56923083044015L222.86124,161.56923083044015L223.40232,161.56923083044015L223.94340000000003,161.56923083044015L224.48448000000002,161.56923083044015L225.02555999999998,161.56923083044015L225.56663999999998,161.56923083044015L226.10772,161.56923083044015L226.6488,161.56923083044015L227.18988,161.56923083044015L227.73095999999998,161.56923083044015L228.27204,161.56923083044015L228.81312,161.56923083044015L229.3542,161.56923083044015L229.89528,161.56923083044015L230.43636,161.56923083044015L230.97744,161.56923083044015L231.51852,161.56923083044015L232.05960000000002,161.56923083044015L232.60068,161.56923083044015L233.14176,161.56923083044015L233.68284,161.56923083044015L234.22392000000002,161.56923083044015L234.76500000000001,161.56923083044015L235.30607999999998,164.30769230769232L235.84715999999997,164.30769230769232L236.38824,164.30769230769232L236.92932,164.30769230769232L237.47039999999998,164.30769230769232L238.01148,164.30769230769232L238.55256,164.30769230769232L239.09364,164.30769230769232L239.63472,164.30769230769232L240.1758,164.30769230769232L240.71688,164.30769230769232L241.25796,164.30769230769232L241.79904,164.30769230769232L242.34012,164.30769230769232L242.8812,164.30769230769232L243.42228,164.30769230769232L243.96336000000002,164.30769230769232L244.50444000000002,164.30769230769232L245.04552,164.30769230769232L245.5866,164.30769230769232L246.12768,164.30769230769232L246.66876,164.30769230769232L247.20983999999999,164.30769230769232L247.75091999999998,164.30769230769232L248.292,164.30769230769232L248.83308,164.30769230769232L249.37416,164.30769230769232L249.91524,164.30769230769232L250.45632,164.30769230769232L250.9974,164.30769230769232L251.53848,164.30769230769232L252.07956000000001,161.56923083044015" style="fill: none;" fill="none"></path></g><g><path stroke="rgb(0, 153, 136)" stroke-width="2px" d="M32.40108,27.384615384615387L32.94216,27.384615384615387L33.48324,54.7692291369805L34.024319999999996,64.72726975954498L34.5654,50.20513092554534L35.10648,50.20513092554534L35.64756,50.20513092554534L36.18864000000001,27.384615384615387L36.72972,18.256402639242314L37.2708,27.384615384615387L37.81188,54.7692291369805L38.35296,64.72726975954498L38.894040000000004,69.0568544131059L39.43512,76.67692503562341L39.9762,83.16809056355405L40.51728,86.06593056825491L41.05836,86.06593056825491L41.599439999999994,88.76392601086545L42.140519999999995,75.97022595772378L42.6816,78.73076923076923L43.222680000000004,78.73076923076923L43.763760000000005,81.32400685090286L44.30484,83.76470252183768L44.84592,78.24175521043631L45.387,77.82996295048642L45.92808,77.82996295048642L46.46916,80.0473341391637L47.010239999999996,77.47842520933887L47.55132,77.47842520933887L48.0924,81.51699596184952L48.63348,77.17482665868906L49.17456000000001,77.17482665868906L49.71564,80.9632142507113L50.25672,82.736499107801L50.7978,78.73076923076923L51.33888,78.73076923076923L51.879960000000004,80.47723621588489L52.42104,74.78106634433453L52.96212,78.09686851501465L53.5032,79.66433477401733L54.04428,81.17582300993112L54.585359999999994,81.17582300993112L55.126439999999995,86.71794926203216L55.667519999999996,84.80397259272064L56.208600000000004,86.06593056825491L56.749680000000005,86.06593056825491L57.29076,86.06593056825491L57.83184,83.00961538461539L58.37292,77.17482665868906L58.914,78.47531390190125L59.45508,82.15384288934561L59.996159999999996,84.43590015631457L60.53724,87.63076890431918L61.07832,90.57987789007335L61.6194,93.31054282188416L62.16048,94.17636181758002L62.70156,94.17636181758002L63.24264,94.17636181758002L63.78372,95.84615384615387L64.3248,91.91158191974347L64.86588,91.91158191974347L65.40696,96.58229871896597L65.94804,97.30278215041528L66.48912,98.69871930892651L67.03020000000001,98.69871930892651L67.57128,99.37509933801799L68.11236,97.92074394226074L68.65344,97.92074394226074L69.19452,98.58461685364063L69.7356,98.58461685364063L70.27668,98.58461685364063L70.81776,101.32307578050174L71.35884,104.06153878798852L71.89992,106.80000179547531L72.441,106.80000179547531L72.98208,112.27692372982318L73.52316,112.27692372982318L74.06424,115.0153826566843L74.60532,115.0153826566843L75.1464,115.0153826566843L75.68748000000001,115.0153826566843L76.22856,115.0153826566843L76.76964,115.0153826566843L77.31071999999999,112.27692372982318L77.8518,112.27692372982318L78.39287999999999,115.0153826566843L78.93396,117.75384566417108L79.47504,120.49230867165787L80.01612,123.23076759851898L80.55720000000001,123.23076759851898L81.09828,120.49230867165787L81.63936000000001,123.23076759851898L82.18043999999999,123.23076759851898L82.72152,125.96923060600574L83.26259999999999,128.70769361349255L83.80368,128.70769361349255L84.34476,128.70769361349255L84.88584,131.44615458066647L85.42692000000001,131.44615458066647L85.968,128.70769361349255L86.50908000000001,128.70769361349255L87.05015999999999,128.70769361349255L87.59124,131.44615458066647L88.13231999999999,131.44615458066647L88.6734,139.6615374821883L89.21448,136.92307651501437L89.75556,136.92307651501437L90.29664,136.92307651501437L90.83772,136.92307651501437L91.3788,136.92307651501437L91.91988,136.92307651501437L92.46096,142.40000048967508L93.00204,142.40000048967508L93.54312,142.40000048967508L94.0842,142.40000048967508L94.62528,145.13846145684903L95.16636,147.8769234441794L95.70744,147.8769234441794L96.24852,147.8769234441794L96.78960000000001,147.8769234441794L97.33068,150.61538441135332L97.87176,150.61538441135332L98.41283999999999,150.61538441135332L98.95392,153.3538463986837L99.495,153.3538463986837L100.03608,153.3538463986837L100.57716,153.3538463986837L101.11824,153.3538463986837L101.65932000000001,156.09230787593586L102.2004,156.09230787593586L102.74148,156.09230787593586L103.28255999999999,156.09230787593586L103.82364,156.09230787593586L104.36471999999999,153.3538463986837L104.9058,156.09230787593586L105.44688000000001,156.09230787593586L105.98796,156.09230787593586L106.52904000000001,158.830769353188L107.07012,158.830769353188L107.61120000000001,158.830769353188L108.15227999999999,158.830769353188L108.69336,158.830769353188L109.23443999999999,158.830769353188L109.77552,158.830769353188L110.3166,158.830769353188L110.85768,158.830769353188L111.39876,158.830769353188L111.93984,158.830769353188L112.48092000000001,158.830769353188L113.022,156.09230787593586L113.56308,156.09230787593586L114.10416,156.09230787593586L114.64524,156.09230787593586L115.18632,156.09230787593586L115.7274,156.09230787593586L116.26848,156.09230787593586L116.80956,153.3538463986837L117.35064,153.3538463986837L117.89172,153.3538463986837L118.43279999999999,153.3538463986837L118.97388,153.3538463986837L119.51496,153.3538463986837L120.05604,153.3538463986837L120.59712,153.3538463986837L121.1382,153.3538463986837L121.67928,153.3538463986837L122.22036,153.3538463986837L122.76144000000001,153.3538463986837L123.30252,153.3538463986837L123.8436,153.3538463986837L124.38467999999999,153.3538463986837L124.92576,153.3538463986837L125.46684,153.3538463986837L126.00792,153.3538463986837L126.549,153.3538463986837L127.09008,156.09230787593586L127.63116000000001,156.09230787593586L128.17224000000002,156.09230787593586L128.71331999999998,156.09230787593586L129.2544,156.09230787593586L129.79548,158.830769353188L130.33656,158.830769353188L130.87763999999999,158.830769353188L131.41872,158.830769353188L131.9598,161.56923083044015L132.50088,161.56923083044015L133.04196000000002,161.56923083044015L133.58304,161.56923083044015L134.12412,164.30769230769232L134.6652,164.30769230769232L135.20628,161.56923083044015L135.74736,161.56923083044015L136.28844,161.56923083044015L136.82952,161.56923083044015L137.3706,161.56923083044015L137.91168000000002,161.56923083044015L138.45276,161.56923083044015L138.99384,161.56923083044015L139.53492,161.56923083044015L140.07600000000002,161.56923083044015L140.61708000000002,161.56923083044015L141.15816,161.56923083044015L141.69923999999997,161.56923083044015L142.24032,161.56923083044015L142.7814,161.56923083044015L143.32247999999998,161.56923083044015L143.86355999999998,161.56923083044015L144.40464,161.56923083044015L144.94572,161.56923083044015L145.4868,161.56923083044015L146.02788,161.56923083044015L146.56896,161.56923083044015L147.11004,161.56923083044015L147.65112,161.56923083044015L148.1922,161.56923083044015L148.73328,161.56923083044015L149.27436,161.56923083044015L149.81544,161.56923083044015L150.35652000000002,161.56923083044015L150.8976,161.56923083044015L151.43868,161.56923083044015L151.97976000000003,161.56923083044015L152.52084,161.56923083044015L153.06192,161.56923083044015L153.60299999999998,161.56923083044015L154.14408,161.56923083044015L154.68516,161.56923083044015L155.22624,161.56923083044015L155.76731999999998,161.56923083044015L156.3084,161.56923083044015L156.84948,161.56923083044015L157.39056,161.56923083044015L157.93164000000002,161.56923083044015L158.47272,161.56923083044015L159.0138,161.56923083044015L159.55488,161.56923083044015L160.09596000000002,161.56923083044015L160.63704,161.56923083044015L161.17812,161.56923083044015L161.7192,161.56923083044015L162.26028000000002,161.56923083044015L162.80136,158.830769353188L163.34243999999998,158.830769353188L163.88351999999998,158.830769353188L164.4246,158.830769353188L164.96568,158.830769353188L165.50675999999999,158.830769353188L166.04784,158.830769353188L166.58892,158.830769353188L167.13,158.830769353188L167.67108,158.830769353188L168.21216,161.56923083044015L168.75324,161.56923083044015L169.29432,161.56923083044015L169.8354,161.56923083044015L170.37648000000002,161.56923083044015L170.91756,161.56923083044015L171.45864,161.56923083044015L171.99972000000002,161.56923083044015L172.54080000000002,161.56923083044015L173.08187999999998,161.56923083044015L173.62295999999998,161.56923083044015L174.16404,161.56923083044015L174.70512,161.56923083044015L175.2462,161.56923083044015L175.78727999999998,161.56923083044015L176.32836,161.56923083044015L176.86944,161.56923083044015L177.41052,164.30769230769232L177.9516,164.30769230769232L178.49268,164.30769230769232L179.03376,164.30769230769232L179.57484,164.30769230769232L180.11592000000002,164.30769230769232L180.657,164.30769230769232L181.19808,164.30769230769232L181.73916,164.30769230769232L182.28024000000002,164.30769230769232L182.82132000000001,164.30769230769232L183.36239999999998,164.30769230769232L183.90347999999997,164.30769230769232L184.44456,164.30769230769232L184.98564,164.30769230769232L185.52671999999998,164.30769230769232L186.0678,164.30769230769232L186.60888,164.30769230769232L187.14996,164.30769230769232L187.69104,164.30769230769232L188.23212,164.30769230769232L188.7732,164.30769230769232L189.31428,164.30769230769232L189.85536,164.30769230769232L190.39644,164.30769230769232L190.93752,164.30769230769232L191.4786,164.30769230769232L192.01968000000002,164.30769230769232L192.56076000000002,164.30769230769232L193.10184,164.30769230769232L193.64291999999998,164.30769230769232L194.184,164.30769230769232L194.72508,164.30769230769232L195.26615999999999,164.30769230769232L195.80723999999998,164.30769230769232L196.34832,164.30769230769232L196.8894,164.30769230769232L197.43048,164.30769230769232L197.97156,164.30769230769232L198.51264,164.30769230769232L199.05372,164.30769230769232L199.5948,164.30769230769232L200.13588000000001,164.30769230769232L200.67696,164.30769230769232L201.21804,164.30769230769232L201.75912,164.30769230769232L202.30020000000002,164.30769230769232L202.84128,164.30769230769232L203.38236,164.30769230769232L203.92344000000003,164.30769230769232L204.46452,164.30769230769232L205.0056,164.30769230769232L205.54667999999998,164.30769230769232L206.08776,164.30769230769232L206.62884,164.30769230769232L207.16992,164.30769230769232L207.71099999999998,164.30769230769232L208.25208,161.56923083044015L208.79316,161.56923083044015L209.33424,161.56923083044015L209.87532,161.56923083044015L210.4164,161.56923083044015L210.95748,161.56923083044015L211.49856,161.56923083044015L212.03964000000002,161.56923083044015L212.58072,161.56923083044015L213.1218,161.56923083044015L213.66288,161.56923083044015L214.20396000000002,161.56923083044015L214.74504,161.56923083044015L215.28611999999998,161.56923083044015L215.82719999999998,161.56923083044015L216.36828,161.56923083044015L216.90936,158.830769353188L217.45044,158.830769353188L217.99152,158.830769353188L218.5326,158.830769353188L219.07368,158.830769353188L219.61476,158.830769353188L220.15584,158.830769353188L220.69692,158.830769353188L221.238,158.830769353188L221.77908,158.830769353188L222.32016000000002,158.830769353188L222.86124,158.830769353188L223.40232,158.830769353188L223.94340000000003,158.830769353188L224.48448000000002,158.830769353188L225.02555999999998,158.830769353188L225.56663999999998,158.830769353188L226.10772,158.830769353188L226.6488,161.56923083044015L227.18988,158.830769353188" style="fill: none;" fill="none"></path></g></g></g></g></g></g><g transform="translate(60, 178)" clip-path="url(#clip_1)"><clipPath id="clip_1"><rect width="270" height="22"></rect></clipPath><g><g><line x1="0" y1="0" x2="0" y2="5" style="visibility: inherit;" fill="rgb(0, 0, 0)" stroke="rgb(204, 204, 204)" stroke-width="1px"></line><line x1="27" y1="0" x2="27" y2="5" style="visibility: inherit;" fill="rgb(0, 0, 0)" stroke="rgb(204, 204, 204)" stroke-width="1px"></line><line x1="54" y1="0" x2="54" y2="5" style="visibility: inherit;" fill="rgb(0, 0, 0)" stroke="rgb(204, 204, 204)" stroke-width="1px"></line><line x1="81" y1="0" x2="81" y2="5" style="visibility: inherit;" fill="rgb(0, 0, 0)" stroke="rgb(204, 204, 204)" stroke-width="1px"></line><line x1="108" y1="0" x2="108" y2="5" style="visibility: inherit;" fill="rgb(0, 0, 0)" stroke="rgb(204, 204, 204)" stroke-width="1px"></line><line x1="135" y1="0" x2="135" y2="5" style="visibility: inherit;" fill="rgb(0, 0, 0)" stroke="rgb(204, 204, 204)" stroke-width="1px"></line><line x1="162" y1="0" x2="162" y2="5" style="visibility: inherit;" fill="rgb(0, 0, 0)" stroke="rgb(204, 204, 204)" stroke-width="1px"></line><line x1="189" y1="0" x2="189" y2="5" style="visibility: inherit;" fill="rgb(0, 0, 0)" stroke="rgb(204, 204, 204)" stroke-width="1px"></line><line x1="216" y1="0" x2="216" y2="5" style="visibility: inherit;" fill="rgb(0, 0, 0)" stroke="rgb(204, 204, 204)" stroke-width="1px"></line><line x1="243" y1="0" x2="243" y2="5" style="visibility: inherit;" fill="rgb(0, 0, 0)" stroke="rgb(204, 204, 204)" stroke-width="1px"></line><line x1="270" y1="0" x2="270" y2="5" style="visibility: inherit;" fill="rgb(0, 0, 0)" stroke="rgb(204, 204, 204)" stroke-width="1px"></line></g><g transform="translate(0, 8)"><text x="0" y="0" dx="0em" dy="0.95em" style="text-anchor: middle; visibility: hidden; font-family: Roboto, sans-serif; font-size: 12px; font-weight: 200;" fill="rgb(50, 49, 63)" stroke="none" stroke-width="1px">-50k</text><text x="27" y="0" dx="0em" dy="0.95em" style="text-anchor: middle; visibility: inherit; font-family: Roboto, sans-serif; font-size: 12px; font-weight: 200;" fill="rgb(50, 49, 63)" stroke="none" stroke-width="1px">0</text><text x="54" y="0" dx="0em" dy="0.95em" style="text-anchor: middle; visibility: hidden; font-family: Roboto, sans-serif; font-size: 12px; font-weight: 200;" fill="rgb(50, 49, 63)" stroke="none" stroke-width="1px">50k</text><text x="81" y="0" dx="0em" dy="0.95em" style="text-anchor: middle; visibility: inherit; font-family: Roboto, sans-serif; font-size: 12px; font-weight: 200;" fill="rgb(50, 49, 63)" stroke="none" stroke-width="1px">100k</text><text x="108" y="0" dx="0em" dy="0.95em" style="text-anchor: middle; visibility: hidden; font-family: Roboto, sans-serif; font-size: 12px; font-weight: 200;" fill="rgb(50, 49, 63)" stroke="none" stroke-width="1px">150k</text><text x="135" y="0" dx="0em" dy="0.95em" style="text-anchor: middle; visibility: inherit; font-family: Roboto, sans-serif; font-size: 12px; font-weight: 200;" fill="rgb(50, 49, 63)" stroke="none" stroke-width="1px">200k</text><text x="162" y="0" dx="0em" dy="0.95em" style="text-anchor: middle; visibility: hidden; font-family: Roboto, sans-serif; font-size: 12px; font-weight: 200;" fill="rgb(50, 49, 63)" stroke="none" stroke-width="1px">250k</text><text x="189" y="0" dx="0em" dy="0.95em" style="text-anchor: middle; visibility: inherit; font-family: Roboto, sans-serif; font-size: 12px; font-weight: 200;" fill="rgb(50, 49, 63)" stroke="none" stroke-width="1px">300k</text><text x="216" y="0" dx="0em" dy="0.95em" style="text-anchor: middle; visibility: hidden; font-family: Roboto, sans-serif; font-size: 12px; font-weight: 200;" fill="rgb(50, 49, 63)" stroke="none" stroke-width="1px">350k</text><text x="243" y="0" dx="0em" dy="0.95em" style="text-anchor: middle; visibility: inherit; font-family: Roboto, sans-serif; font-size: 12px; font-weight: 200;" fill="rgb(50, 49, 63)" stroke="none" stroke-width="1px">400k</text><text x="270" y="0" dx="0em" dy="0.95em" style="text-anchor: middle; visibility: hidden; font-family: Roboto, sans-serif; font-size: 12px; font-weight: 200;" fill="rgb(50, 49, 63)" stroke="none" stroke-width="1px">450k</text></g><line x1="0" y1="0" x2="270" y2="0" fill="rgb(0, 0, 0)" stroke="rgb(204, 204, 204)" stroke-width="1px"></line></g></g></g></g></svg>