<svg viewBox="0 0 330 200" xmlns="http://www.w3.org/2000/svg"><g><g><g><g><g><line x1="41.171875" y1="178" x2="36.171875" y2="178" style="visibility: inherit;" fill="rgb(0, 0, 0)" stroke="rgb(204, 204, 204)" stroke-width="1px"></line><line x1="41.171875" y1="152.57142857142858" x2="36.171875" y2="152.57142857142858" style="visibility: inherit;" fill="rgb(0, 0, 0)" stroke="rgb(204, 204, 204)" stroke-width="1px"></line><line x1="41.171875" y1="127.14285714285714" x2="36.171875" y2="127.14285714285714" style="visibility: inherit;" fill="rgb(0, 0, 0)" stroke="rgb(204, 204, 204)" stroke-width="1px"></line><line x1="41.171875" y1="101.71428571428571" x2="36.171875" y2="101.71428571428571" style="visibility: inherit;" fill="rgb(0, 0, 0)" stroke="rgb(204, 204, 204)" stroke-width="1px"></line><line x1="41.171875" y1="76.28571428571429" x2="36.171875" y2="76.28571428571429" style="visibility: inherit;" fill="rgb(0, 0, 0)" stroke="rgb(204, 204, 204)" stroke-width="1px"></line><line x1="41.171875" y1="50.857142857142854" x2="36.171875" y2="50.857142857142854" style="visibility: inherit;" fill="rgb(0, 0, 0)" stroke="rgb(204, 204, 204)" stroke-width="1px"></line><line x1="41.171875" y1="25.428571428571438" x2="36.171875" y2="25.428571428571438" style="visibility: inherit;" fill="rgb(0, 0, 0)" stroke="rgb(204, 204, 204)" stroke-width="1px"></line><line x1="41.171875" y1="0" x2="36.171875" y2="0" style="visibility: inherit;" fill="rgb(0, 0, 0)" stroke="rgb(204, 204, 204)" stroke-width="1px"></line></g><g transform="translate(31.171875, 0)"><text x="0" y="178" dx="0em" dy="0.3em" style="text-anchor: end; visibility: hidden; font-family: Roboto, sans-serif; font-size: 12px; font-weight: 200;" fill="rgb(50, 49, 63)" stroke="none" stroke-width="1px">150</text><text x="0" y="152.57142857142858" dx="0em" dy="0.3em" style="text-anchor: end; visibility: inherit; font-family: Roboto, sans-serif; font-size: 12px; font-weight: 200;" fill="rgb(50, 49, 63)" stroke="none" stroke-width="1px">200</text><text x="0" y="127.14285714285714" dx="0em" dy="0.3em" style="text-anchor: end; visibility: inherit; font-family: Roboto, sans-serif; font-size: 12px; font-weight: 200;" fill="rgb(50, 49, 63)" stroke="none" stroke-width="1px">250</text><text x="0" y="101.71428571428571" dx="0em" dy="0.3em" style="text-anchor: end; visibility: inherit; font-family: Roboto, sans-serif; font-size: 12px; font-weight: 200;" fill="rgb(50, 49, 63)" stroke="none" stroke-width="1px">300</text><text x="0" y="76.28571428571429" dx="0em" dy="0.3em" style="text-anchor: end; visibility: inherit; font-family: Roboto, sans-serif; font-size: 12px; font-weight: 200;" fill="rgb(50, 49, 63)" stroke="none" stroke-width="1px">350</text><text x="0" y="50.857142857142854" dx="0em" dy="0.3em" style="text-anchor: end; visibility: inherit; font-family: Roboto, sans-serif; font-size: 12px; font-weight: 200;" fill="rgb(50, 49, 63)" stroke="none" stroke-width="1px">400</text><text x="0" y="25.428571428571438" dx="0em" dy="0.3em" style="text-anchor: end; visibility: inherit; font-family: Roboto, sans-serif; font-size: 12px; font-weight: 200;" fill="rgb(50, 49, 63)" stroke="none" stroke-width="1px">450</text><text x="0" y="0" dx="0em" dy="0.3em" style="text-anchor: end; visibility: hidden; font-family: Roboto, sans-serif; font-size: 12px; font-weight: 200;" fill="rgb(50, 49, 63)" stroke="none" stroke-width="1px">500</text></g><line x1="41.171875" y1="0" x2="41.171875" y2="178" fill="rgb(0, 0, 0)" stroke="rgb(204, 204, 204)" stroke-width="1px"></line></g></g><g transform="translate(41, 0)" clip-path="url(#clip_0)"><clipPath id="clip_0"><rect width="288" height="178"></rect></clipPath><g><g><g><line x1="0" y1="0" x2="0" y2="178" fill="rgb(0, 0, 0)" stroke="rgb(60, 60, 60)" stroke-width="1px" opacity="0.25"></line><line x1="24.069010416666664" y1="0" x2="24.069010416666664" y2="178" fill="rgb(0, 0, 0)" stroke="rgb(60, 60, 60)" stroke-width="1px" opacity="0.25"></line><line x1="48.13802083333333" y1="0" x2="48.13802083333333" y2="178" fill="rgb(0, 0, 0)" stroke="rgb(60, 60, 60)" stroke-width="1px" opacity="0.25"></line><line x1="72.20703125" y1="0" x2="72.20703125" y2="178" fill="rgb(0, 0, 0)" stroke="rgb(60, 60, 60)" stroke-width="1px" opacity="0.25"></line><line x1="96.27604166666666" y1="0" x2="96.27604166666666" y2="178" fill="rgb(0, 0, 0)" stroke="rgb(60, 60, 60)" stroke-width="1px" opacity="0.25"></line><line x1="120.34505208333334" y1="0" x2="120.34505208333334" y2="178" fill="rgb(0, 0, 0)" stroke="rgb(60, 60, 60)" stroke-width="1px" opacity="0.25"></line><line x1="144.4140625" y1="0" x2="144.4140625" y2="178" fill="rgb(0, 0, 0)" stroke="rgb(60, 60, 60)" stroke-width="1px" opacity="0.25"></line><line x1="168.48307291666669" y1="0" x2="168.48307291666669" y2="178" fill="rgb(0, 0, 0)" stroke="rgb(60, 60, 60)" stroke-width="1px" opacity="0.25"></line><line x1="192.55208333333331" y1="0" x2="192.55208333333331" y2="178" fill="rgb(0, 0, 0)" stroke="rgb(60, 60, 60)" stroke-width="1px" opacity="0.25"></line><line x1="216.62109375" y1="0" x2="216.62109375" y2="178" fill="rgb(0, 0, 0)" stroke="rgb(60, 60, 60)" stroke-width="1px" opacity="0.25"></line><line x1="240.69010416666669" y1="0" x2="240.69010416666669" y2="178" fill="rgb(0, 0, 0)" stroke="rgb(60, 60, 60)" stroke-width="1px" opacity="0.25"></line><line x1="264.7591145833333" y1="0" x2="264.7591145833333" y2="178" fill="rgb(0, 0, 0)" stroke="rgb(60, 60, 60)" stroke-width="1px" opacity="0.25"></line><line x1="288.828125" y1="0" x2="288.828125" y2="178" fill="rgb(0, 0, 0)" stroke="rgb(60, 60, 60)" stroke-width="1px" opacity="0.25"></line></g><g><line x1="0" y1="178" x2="288.828125" y2="178" fill="rgb(0, 0, 0)" stroke="rgb(60, 60, 60)" stroke-width="1px" opacity="0.25"></line><line x1="0" y1="152.57142857142858" x2="288.828125" y2="152.57142857142858" fill="rgb(0, 0, 0)" stroke="rgb(60, 60, 60)" stroke-width="1px" opacity="0.25"></line><line x1="0" y1="127.14285714285714" x2="288.828125" y2="127.14285714285714" fill="rgb(0, 0, 0)" stroke="rgb(60, 60, 60)" stroke-width="1px" opacity="0.25"></line><line x1="0" y1="101.71428571428571" x2="288.828125" y2="101.71428571428571" fill="rgb(0, 0, 0)" stroke="rgb(60, 60, 60)" stroke-width="1px" opacity="0.25"></line><line x1="0" y1="76.28571428571429" x2="288.828125" y2="76.28571428571429" fill="rgb(0, 0, 0)" stroke="rgb(60, 60, 60)" stroke-width="1px" opacity="0.25"></line><line x1="0" y1="50.857142857142854" x2="288.828125" y2="50.857142857142854" fill="rgb(0, 0, 0)" stroke="rgb(60, 60, 60)" stroke-width="1px" opacity="0.25"></line><line x1="0" y1="25.428571428571438" x2="288.828125" y2="25.428571428571438" fill="rgb(0, 0, 0)" stroke="rgb(60, 60, 60)" stroke-width="1px" opacity="0.25"></line><line x1="0" y1="0" x2="288.828125" y2="0" fill="rgb(0, 0, 0)" stroke="rgb(60, 60, 60)" stroke-width="1px" opacity="0.25"></line></g></g></g><g><g><line x1="0" y1="254.28571428571428" x2="288.828125" y2="254.28571428571428" fill="rgb(0, 0, 0)" stroke="rgb(153, 153, 153)" stroke-width="1.5px"></line></g></g><g><g><line x1="24.069010416666664" y1="0" x2="24.069010416666664" y2="178" fill="rgb(0, 0, 0)" stroke="rgb(153, 153, 153)" stroke-width="1.5px"></line></g></g><g><g><g><g><g><path stroke="rgb(238, 51, 119)" stroke-width="2px" d="M33.71500330729167,178.68592810487655L34.10087768229167,176.5072602909111L34.48675205729167,174.46064387657475L34.53498635416667,172.53442726771328L34.776157838541664,170.2867901918414L35.30673510416666,168.16403423732672L35.596140885416666,166.1560339077572L35.83731236979167,164.2537295484461L35.98201526041667,162.44899070005692L36.56082682291667,160.7344999491845L36.85023260416666,159.10365377641241L37.091404088541665,157.55047756893305L37.429044166666664,156.06955249187232L37.62198135416667,155.07961258808774L37.71844994791667,154.13367695696633L38.63490158854167,151.95181530303435L38.87607307291666,149.86281485706132L38.92430736979166,147.86087179340348L39.165478854166665,145.94065606809954L39.40665033854167,144.0972640407019L39.50311893229166,142.32617667001094L39.88899330729166,140.62322253337788L39.937227604166665,138.9845450325016L40.274867682291664,137.40657324302714L40.46780486979167,135.8859959441858L40.901913541666666,134.05469214052133L41.28778791666667,132.28766111868018L42.059536666666666,130.58157842424595L42.25247385416667,128.9333449895401L42.54187963541666,127.34006835139246L42.73481682291666,125.79904571634633L42.83128541666667,124.30774866471229L44.857125885416664,123.57413723360227L44.905360182291666,122.86345862885344L45.00182877604166,122.1746544122321L45.291234557291666,121.6400749308707L45.72534322916667,121.09394197863033L45.821811822916665,120.5638776848445L45.87004611979167,120.04918341211017L46.014749010416665,119.5492004451605L46.30415479166667,119.06330717944674L46.73826346354167,118.23985795604867L46.88296635416667,117.43897860474347L46.93120065104167,116.65975413057917L47.41354361979166,115.90131833833226L48.23352666666666,115.16285062199985L48.329995260416666,114.44357300446049L49.00527541666667,113.74274740485336L49.24644690104167,113.05967311349895L49.34291549479167,112.3936844561998L49.48761838541667,111.74414863155664L49.87349276041666,111.13448263231871L50.162898541666664,110.49619127940002L50.25936713541667,109.87310596668816L50.404070026041666,109.26469001026886L50.69347580729166,108.67043168826814L50.934647291666664,108.08984280625342L51.41699026041667,107.23894524220283L51.706396041666665,106.23251848509292L51.99580182291667,105.24847137651666L52.18873901041667,104.28606612560384L52.47814479166667,103.34459701934583L52.57461338541667,102.42338869797872L52.62284768229167,101.52179454044919L52.71931627604166,100.63919515185057L52.81578486979166,99.77499694539503L52.864019166666665,98.92863081209705L53.10519065104167,98.09955087190704L53.15342494791666,97.28723330053234L53.587533619791664,96.49117522664952L53.87693940104167,95.71089369462791L53.973407994791664,94.94592468827139L54.214579479166666,94.19582221142726L54.45575096354167,93.47990921347034L54.55221955729167,92.77764483624325L55.13103111979167,92.0886427977749L55.46867119791666,91.4125312565391L55.516905494791665,90.74895214291618L55.61337408854166,90.09756052745304L55.709842682291665,89.45802402358376L55.75807697916667,88.83002222263423L55.85454557291666,88.2132461590954L56.433357135416664,87.6073978042875L56.57806002604167,87.01218958667567L56.77099721354167,86.42734393721089L56.91570010416667,85.85259285818844L57.060402994791666,85.28767751421591L57.253340182291666,84.73234784398016L57.30157447916667,84.18636219158812L57.49451166666667,83.70924636557515L57.73568315104167,83.23761355083857L57.78391744791667,82.77372178391136L58.26626041666666,82.31738225852393L58.45919760416666,81.86841225892906L58.60390049479167,81.42663491628205L58.98977486979167,80.99187897662016L59.18271205729167,80.56397857980444L59.327414947916665,80.14277304882367L59.37564924479167,79.72810668889746L59.42388354166667,79.31982859585248L59.76152361979167,78.91779247327493L60.05092940104167,78.52185645797331L60.14739799479167,78.13188295331734L60.19563229166667,77.74773847003661L60.38856947916667,77.36929347409658L60.58150666666667,77.1074520660238L60.72620955729167,76.84943901266887L60.77444385416667,76.59517108877063L60.82267815104167,76.34456746403791L61.015615338541664,76.09754961761561L61.449724010416666,75.9033125323751L61.64266119791667,75.69148551349596L61.69089549479166,75.4826260566147L61.73912979166666,75.27667233738337L61.83559838541667,75.07356423695163L61.88383268229167,74.74359102359215L62.173238463541665,74.41811516682525L62.366175651041665,74.09704550378636L62.41440994791667,73.78029331893465L62.51087854166667,73.46777226247579L62.60734713541667,73.1593982720255L62.752050026041665,72.85508949736573L62.80028432291667,72.5547662281524L62.84851861979167,72.25835082443797L62.89675291666667,71.9657676498853L63.04145580729167,71.67694300754897L63.23439299479167,71.39180507811119L63.47556447916667,71.11028386046335L63.52379877604167,70.8323111145294L63.57203307291667,70.55782030623386L63.861438854166664,70.2867465545203L64.68142190104166,70.01902658033242L64.87435908854167,69.7577544437271L64.97082768229167,69.49967556783687L65.21199916666667,69.24473189314782L66.36962229166667,68.9928667591692L66.46609088541668,68.74402486254627L66.70726236979166,68.45575141746646L66.80373096354167,68.17089747269522L66.99666815104166,67.88940268384205L67.09313674479166,67.61120811807945L67.47901111979166,67.33625621310932L67.76841690104166,67.06449073755216L67.96135408854167,66.79585675270235L68.29899416666667,66.53030057559458L68.39546276041666,66.26776974332924L68.68486854166667,66.00821297860786L68.78133713541666,65.75158015642894L68.92604002604168,65.4978222719013L68.97427432291667,65.24689140913003L69.07074291666667,64.9987407111336L69.45661729166666,64.88719898357498L69.50485158854167,64.77687963919429L69.64955447916667,64.66776274770918L69.98719455729166,64.55982880976225L70.13189744791667,64.45305874533587L70.56600611979167,64.34743388254103L70.75894330729167,64.24293594676182L70.90364619791667,64.13954705014628L70.95188049479167,64.03724968142811L71.38598916666668,63.936794923549L71.43422346354167,63.83738973508787L71.62716065104166,63.73901780137348L71.67539494791667,63.64166314411886L71.72362924479167,63.54531011279626L71.77186354166668,63.44994337627614L71.96480072916667,63.254276664181276L72.01303502604166,63.0605927451622L72.15773791666666,62.8688617276158L72.20597221354166,62.67905431776996L72.59184658854167,62.491141804812074L72.78478377604166,62.30509604645892L72.88125236979167,62.12088945495391L72.97772096354167,61.938494983475685L73.02595526041668,61.757886112944725L73.46006393229166,61.57903683921355L73.60476682291666,61.40192166062912L73.99064119791666,61.226515565953775L74.08710979166666,61.05279402263243L74.28004697916666,60.88073296539592L74.32828127604166,60.7103087851871L74.56945276041667,60.5414983184019L74.90709283854167,60.384898964485984L75.43767010416667,60.22976866450114L75.53413869791666,60.076086919786476L75.82354447916667,59.92383361128444L75.96824736979167,59.77298899079504L76.06471596354167,59.623533672469314L76.25765315104168,59.47544862453635L76.45059033854166,59.390869288807714L76.54705893229166,59.30705845064704L76.78823041666666,59.12960786688669L76.83646471354166,58.95375527601229L76.88469901041667,58.77947927604512L77.27057338541667,58.60675884548464L77.55997916666666,58.43557333489124L77.75291635416667,58.26590245869066L77.80115065104167,58.09772628719479L77.84938494791668,57.9310252388309L78.28349361979167,57.765780072574316L78.52466510416667,57.60197188057692L79.19994526041665,57.43958208098667L79.29641385416666,57.278592410952264L80.26109979166667,57.157537486328884L80.30933408854168,57.03751749766438L80.50227127604167,56.91851928877442L80.55050557291666,56.800529925519356L80.59873986979167,56.683536691138954L81.46695721354168,56.5675270817049L81.70812869791666,56.4524888016868L82.04576877604165,56.33840975962836L82.09400307291666,56.225278063931654L82.38340885416667,56.11308201874382L82.47987744791666,56.00181011994659L82.72104893229167,55.95848498825956L82.81751752604166,55.91551384810617L83.10692330729167,55.7592543634196L83.97514065104167,55.604261416436806L84.07160924479166,55.450519747352985L84.16807783854166,55.298014340518506L84.55395221354166,55.14673041957654L84.69865510416666,54.99665344271343L85.08452947916666,54.83682150803047L85.22923236979167,54.6782547784454L85.37393526041666,54.520938368854914L86.00098111979167,54.364857626734015L86.33862119791667,54.20999812761127L86.62802697916666,54.056345670649165L86.82096416666667,53.90388627432681L86.91743276041666,53.75260617222248L86.96566705729167,53.60249180889277L87.25507283854168,53.45352983584626L87.73741580729165,53.30570710760906L87.97858729166667,53.26879897376524L88.02682158854167,53.232171003281316L88.17152447916666,53.19582003633549L88.46093026041667,53.15974296044347L88.55739885416666,53.12393670957587L88.70210174479166,53.08839826329415L88.84680463541667,53.05312464590695L88.99150752604166,53.01811292564452L89.03974182291667,52.98336021385036L89.90795916666667,53.04057449670458L90.63147361979166,53.128959233478916L91.35498807291667,52.952215621552696L91.49969096354167,52.77676080021204L91.54792526041666,52.602580810995015L91.64439385416667,52.429661896279235L91.69262815104167,52.25799049568274L92.70554838541666,52.08755324254164L92.75378268229167,51.91833696046342L92.99495416666667,51.75032865995311L93.13965705729166,51.58351553511126L93.33259424479166,51.417884960401885L93.42906283854165,51.25342448748776L93.62200002604166,51.09012184213285L93.81493721354165,51.12072921756863L94.00787440104166,51.15112258847596L95.21373182291667,51.112843946723515L95.26196611979167,51.07483112588264L95.79254338541666,51.0370813854261L96.17841776041666,50.999592022367565L96.22665205729167,50.962360370621276L96.37135494791666,50.918228245062316L96.46782354166666,50.874397467171015L96.51605783854167,50.830864982622316L96.95016651041666,50.78762777822608L97.28780658854167,50.642129046011675L98.01132104166666,50.49761072394751L98.05955533854167,50.354063007505644L98.20425822916667,50.21147622244905L98.54189830729166,50.06984082267548L99.12070986979165,49.92914738810199L99.36188135416667,49.78938662259297L99.41011565104166,49.65054935192776L99.50658424479167,49.51262652180898L99.84422432291667,49.37560919590919L100.18186440104166,49.306609053620186L100.23009869791667,49.23805903114514L100.66420736979167,49.16995477226977L100.85714455729166,49.10229197680757L100.95361315104167,49.03506639970187L101.14655033854167,48.96827385014532L101.58065901041665,48.917766950435464L101.91829908854167,48.86758335411188L101.96653338541667,48.81771999167428L102.20770486979167,48.768173832353504L102.59357924479167,48.71894188350311L103.02768791666666,48.647579117919875L103.07592221354167,48.57666613731054L103.26885940104167,48.506198737837146L103.51003088541667,48.43617276788316L103.65473377604167,48.36658412724408L103.75120236979167,48.29742876633478L103.89590526041667,48.22870268541027L104.04060815104168,48.16040193380167L104.23354533854166,48.09252260916524L104.61941971354166,47.99445492527017L105.00529408854166,47.896988721590674L105.19823127604167,47.80011852977632L105.34293416666667,47.703838947558744L105.39116846354166,47.60814463775581L105.68057424479166,47.51303032729472L105.72880854166667,47.418490806252315L106.11468291666667,47.32452092691255L106.30762010416667,47.231115602840525L106.35585440104167,47.13826980797344L106.40408869791668,47.04597857572761L106.50055729166667,46.95423699812096L106.64526018229166,46.86304022491169L106.98290026041666,46.772383462751016L107.03113455729167,46.68226197435184L107.41700893229167,46.61455705049255L107.46524322916666,46.5472496040762L107.89935190104167,46.480336178514165L108.09228908854168,46.413813357177624L108.18875768229167,46.347677762821945L108.33346057291666,46.28192605702048L108.57463205729167,46.21655493960875L108.62286635416666,46.15156114813766L108.71933494791666,46.086941457336245L108.76756924479167,46.022692678583695L108.81580354166667,45.95881165939012L109.05697502604167,45.90443121905668L109.73225518229165,45.850360334213796L110.16636385416666,45.79659639602297L110.45576963541667,45.74313682487539L110.79340971354166,45.68997906998441L110.84164401041667,45.63712060898364L111.27575268229167,45.617024582003154L111.61339276041667,45.597041088010805L112.04750143229167,45.532249609520036L112.19220432291668,45.46781899171327L112.52984440104167,45.4037462601836L112.62631299479166,45.34002847311984L112.81925018229167,45.27666272086083L113.30159315104167,45.213646125457686L113.34982744791667,45.150975840242594L113.49453033854167,45.08864904940549L113.73570182291667,45.026662967576584L113.92863901041666,44.96501483941645L114.55568486979168,44.96879194824268L114.65215346354168,44.97562435897373L114.70038776041666,44.98241981084095L114.98979354166667,44.989178599546364L115.03802783854168,44.99590101764678L115.08626213541666,45.002587354594674L115.18273072916666,44.951493283909976L115.85801088541668,44.90067203635793L116.72622822916667,44.836858494271304L117.01563401041668,44.77338394595255L117.35327408854167,44.710245728842686L117.64267986979166,44.64744120818949L117.83561705729167,44.584967776685396L117.93208565104166,44.522822854110814L118.02855424479166,44.46100388698338L118.31796002604166,44.39950834821279L118.46266291666666,44.33833373676015L118.55913151041666,44.277477577303685L118.70383440104168,44.216937419908724L118.84853729166666,44.159511294775875L118.99324018229167,44.10238187738777L119.42734885416667,44.04554690250993L119.52381744791666,43.98900412790465L120.10262901041666,43.93275133403955L120.15086330729167,43.876786323801305L120.19909760416667,43.8211069222127L120.87437776041666,43.79862228291625L121.06731494791667,43.77625183010897L121.26025213541666,43.75399470727473L121.45318932291667,43.73185006644071L121.50142361979167,43.709817068071494L121.64612651041666,43.68789488096438L121.74259510416667,43.666082682145756L121.83906369791667,43.64437965677021L122.22493807291667,43.622784998019924L122.32140666666668,43.60129790700624L122.46610955729166,43.57991759267243L122.61081244791667,43.558643271697974L122.75551533854167,43.537474168404295L122.85198393229166,43.53648116433848L122.99668682291667,43.446979064770325L123.14138971354167,43.357916494106995L123.91313846354167,43.269290266855215L124.25077854166666,43.181097228223905L124.49195002604166,43.09333425375564L124.54018432291666,43.00599824896235L124.58841861979167,42.919086148967374L124.68488721354167,42.83259491815171L124.73312151041667,42.746521549805955L124.82959010416666,42.66086306578687L124.92605869791666,42.57561651617882L125.11899588541667,42.49077897896034L125.31193307291666,42.406347559675105L125.55310455729168,42.322319391107335L125.64957315104168,42.31615575713407L125.98721322916667,42.31002142731522L126.08368182291666,42.30391619621093L126.13191611979167,42.34921493829879L126.37308760416667,42.39429977152058L126.56602479166666,42.4391721850761L126.80719627604167,42.41624657249L126.90366486979165,42.39342849138631L126.95189916666666,42.370717198318815L127.43424213541667,42.34811195667718L127.48247643229166,42.32561203660869L127.67541361979167,42.30321671494072L127.82011651041667,42.28092527510488L127.96481940104167,42.25873700706157L128.01305369791666,42.236651207225655L128.15775658854167,42.21466717839343L128.20599088541667,42.19278422967049L128.30245947916669,42.17100167640048L128.54363096354166,42.14931884009459L128.59186526041668,42.127735048362844L128.92950533854167,42.102608444224934L128.97773963541667,42.07759611840385L129.17067682291665,42.05269730547831L129.26714541666666,42.02791124684534L129.36361401041665,42.003237190644846L129.55655119791666,41.97867439168499L130.03889416666667,41.95422211136783L130.13536276041665,41.929879617617146L130.23183135416667,41.905646184806336L130.28006565104167,41.88152109368753L130.47300283854167,41.85750363132194L130.61770572916666,41.833593091010115L131.00358010416667,41.80978877222478L131.19651729166665,41.786089980542954L131.87179744791666,41.773971312897295L132.06473463541667,41.76190614352133L132.16120322916666,41.74455618362403L132.40237471354166,41.727282496296844L132.45060901041666,41.71008458827614L132.54707760416667,41.69296197054101L132.64354619791666,41.67591415826811L132.69178049479166,41.658940670786315L132.78824908854165,41.642041031532564L132.88471768229167,41.62521476800828L132.93295197916666,41.608461411735625L133.27059205729165,41.59178049821526L133.41529494791666,41.57517156688396L133.65646643229167,41.55863416107311L134.23527799479166,41.54216782796761L134.42821518229167,41.52577211856521L134.57291807291668,41.50944658763667L135.05526104166665,41.47669650386264L135.34466682291665,41.44408603515956L135.39290111979167,41.41161430686607L135.48936971354166,41.379280451608956L135.63407260416668,41.34708360922788L135.77877549479166,41.293261901527806L135.82700979166665,41.23966735133967L135.87524408854168,41.186298550250285L136.35758705729168,41.131923338627495L136.40582135416668,41.07777625765574L136.45405565104167,41.0238559015912L136.55052424479166,40.97016087621188L137.12933580729168,40.91668979869965L137.17757010416668,40.8634412975238L137.22580440104167,40.81041401232614L137.27403869791667,40.75760659380773L137.65991307291668,40.70501770361614L138.09402174479166,40.6526460142353L138.91400479166668,40.600490208875605L139.58928494791667,40.53599634703902L139.78222213541667,40.47176731129118L139.83045643229167,40.4078015057716L139.92692502604166,40.34409734741119L140.31279940104167,40.280653265804474L140.40926799479166,40.217467703083216L140.60220518229167,40.154539113791394L141.08454815104167,40.09186596476203L141.47042252604166,40.029446734995055L141.51865682291665,39.96727991553695L142.04923408854168,39.905364009361875L142.43510846354167,39.89156314148541L142.72451424479166,39.83534656959462L142.77274854166666,39.77935561317299L142.86921713541668,39.72358894459308L142.96568572916667,39.668045246618746L143.20685721354167,39.61272321230407L144.12330885416668,39.55762154489281L144.41271463541668,39.50273895771929L144.46094893229167,39.448074174110516L144.94329190104168,39.39362592728926L145.0397604947917,39.3393929602785L145.18446338541668,39.28537402580674L145.23269768229167,39.231567886214386L145.28093197916667,39.17797331336154L145.76327494791667,39.13382076797777L145.81150924479164,39.08984119511435L145.95621213541668,39.046033602182575L146.24561791666665,39.00239700417005L146.48678940104168,38.95893042356859L146.58325799479167,38.91563289030269L146.67972658854166,38.87250344165925L146.77619518229164,38.82954112221779L147.21030385416665,38.78674498378138L147.40324104166666,38.74411408530865L147.59617822916667,38.70164749284639L147.69264682291669,38.65934427946277L147.83734971354167,38.61720352518184L148.27145838541668,38.54180392542058L148.31969268229165,38.46669285357417L148.51262986979165,38.39186869404007L148.80203565104168,38.3173298432488L148.89850424479167,38.24307470955212L149.47731580729166,38.1691017131124L149.52555010416668,38.09540928579333L149.57378440104168,38.02199587105173L149.62201869791664,37.94885992383046L149.76672158854169,37.87599991045304L149.9596587760417,37.80341430851862L150.24906455729166,37.731101606798816L150.29729885416668,37.659060305135284L150.44200174479167,37.58728891433859L150.82787611979165,37.51578595608804L151.06904760416668,37.48366222566097L151.21375049479167,37.45165822559447L151.35845338541665,37.419773303680515L151.40668768229168,37.38800681243698L151.69609346354164,37.356358109064395L151.79256205729166,37.324826555403924L152.08196783854166,37.29341151789576L152.22667072916667,37.30073062077289L152.37137361979168,37.30802277022525L152.41960791666668,37.315288111238196L152.61254510416668,37.322526787759585L153.52899674479167,37.292681654180015L153.72193393229168,37.262945684200005L153.81840252604167,37.23331829478793L154.05957401041667,37.20379890705412L154.30074549479167,37.1743869462139L154.92779135416666,37.14508184155138L155.12072854166667,37.11588302638348L155.26543143229168,37.08678993802432L155.98894588541668,37.06010979073351L156.51952315104165,37.03352592830622L156.56775744791668,37.00703784369711L156.71246033854166,36.98064503341236L157.00186611979166,36.96622944711902L157.33950619791668,36.9518655403783L157.38774049479164,36.93755304293295L157.43597479166667,36.92329168640572L157.48420908854166,36.909081204282586L157.53244338541668,36.894921331896946L157.58067768229165,36.8808118064136L157.96655205729166,36.8667523668128L159.07594088541668,36.85274275387486L159.12417518229165,36.83878271016427L159.17240947916667,36.82487198001479L159.51004955729167,36.811010309513875L160.04062682291666,36.77853619794948L160.13709541666668,36.74617624420023L160.71590697916668,36.713929863476615L160.76414127604167,36.681796474973495L160.90884416666668,36.649775501836224L161.00531276041664,36.61786637112697L161.05354705729167,36.586068513791844L161.15001565104168,36.554381364627766L162.06646729166667,36.486396281886215L162.30763877604167,36.418647143960136L162.45234166666668,36.351132758426495L162.59704455729167,36.28385194087738L163.03115322916668,36.21680351485269L163.07938752604164,36.149986311773574L163.36879330729167,36.0833991708766L163.46526190104166,36.01704093914848L163.51349619791665,35.9509104712614L163.80290197916668,35.88500662950935L163.94760486979166,35.81932828374435L164.23701065104166,35.75387431131436L164.33347924479168,35.68864359700082L164.42994783854166,35.68129164629531L164.57465072916668,35.67396469455387L165.00875940104166,35.666662618134815L165.24993088541666,35.64974719410751L165.34639947916665,35.632889021191325L165.39463377604167,35.61608781761806L165.44286807291667,35.59934330346398L165.97344533854167,35.58265520063464L166.45578830729167,35.56602323284976L166.84166268229168,35.54944712562886L167.66164572916665,35.53292660627614L167.99928580729167,35.52526646667786L168.04752010416667,35.517631937067364L168.19222299479165,35.47297007548755L168.67456596354168,35.428457077858404L168.96397174479165,35.38409222331078L169.15690893229166,35.339874795618044L169.39808041666666,35.29580408315851L169.49454901041668,35.251879378878954L169.59101760416667,35.208099980257515L169.68748619791668,35.16446518926773L169.78395479166667,35.12097431234265L169.97689197916665,35.07762666033899L170.02512627604168,35.03442154850229L170.16982916666666,34.99135829643165L170.45923494791668,34.948436228045544L170.55570354166667,34.90565467154739L170.70040643229166,34.86301295939152L171.08628080729167,34.867178244505766L171.18274940104166,34.87132995435589L171.23098369791666,34.875468153131784L171.27921799479165,34.879592904619614L171.66509236979167,34.88370427220514L172.38860682291664,34.88780231887678L172.48507541666666,34.891887107228754L172.58154401041665,34.89595869946404L172.67801260416667,34.90001715739772L172.77448119791666,34.90406254245966L173.20858986979167,34.94190205376501L173.40152705729167,34.97700509276484L174.0285729166667,34.98640343093888L174.22151010416667,34.995771670871626L175.13796174479168,35.0051099522503L175.86147619791666,35.01441841390012L175.90971049479168,35.023697193790774L176.19911627604165,35.03294642904304L176.24735057291667,35.04216625593545L176.3438191666667,35.05135680991067L176.48852205729168,35.067452220921204L176.72969354166665,35.08349667478799L176.8743964322917,35.099490405127206L176.92263072916666,35.115433644131166L177.01909932291667,35.1313266225787L177.79084807291667,35.135696483254144L178.12848815104167,35.140052607026675L178.32142533854167,35.14439505639887L178.65906541666666,35.14872389349506L178.70729971354166,35.153039180064155L179.04493979166665,35.15734097748276L179.18964268229166,35.16162934675782L180.34726580729165,35.192633981438874L180.4919686979167,35.223542104877616L180.82960877604168,35.21652272105195L180.97431166666667,35.20952512634713L181.02254596354166,35.20254922295184L181.11901455729165,35.195594913638594L181.16724885416667,35.18866210175932L181.50488893229166,35.18175069124109L181.60135752604168,35.17486058658193L182.13193479166668,35.12210338319226L182.37310627604168,35.06950836751468L182.80721494791666,35.01707481899655L182.90368354166668,34.9648020213415L183.00015213541664,34.912689262478146L183.19308932291665,34.86073583452886L183.3377922135417,34.80894103377903L183.96483807291665,34.75730416064637L184.01307236979167,34.70582451965064L184.06130666666667,34.65450141938377L184.35071244791666,34.60333417247993L184.73658682291665,34.61337332453603L185.02599260416667,34.61984076310862L185.07422690104164,34.626288641363985L185.12246119791666,34.632717044693635L185.31539838541667,34.63912605799384L185.55656986979167,34.64551576566853L185.89420994791666,34.65188625163322L186.28008432291665,34.65823759931863L186.47302151041666,34.66456989167396L186.66595869791666,34.67088321117051L186.76242729166668,34.67717763980488L187.05183307291668,34.67363853569712L187.19653596354166,34.670109993308394L187.29300455729168,34.66659196718844L187.38947315104167,34.663084412146986L187.4859417447917,34.659587283251994L187.63064463541667,34.656100535827534L187.87181611979167,34.65262412545245L188.45062768229167,34.64915800795802L188.69179916666664,34.64570213942657L188.93297065104167,34.64225647618946L189.8011879947917,34.674086638608394L189.99412518229167,34.70582305058238L190.13882807291668,34.737466109877744L190.37999955729165,34.76901621201744L190.66940533854168,34.80047375029674L190.71763963541667,34.83183911579883L190.91057682291668,34.86311269741057L191.00704541666667,34.89429488183777L191.29645119791667,34.92538605362025L191.34468549479166,34.95638659514749L191.63409127604166,34.98729688667315L191.97173135416665,35.02277677816528L192.26113713541667,35.05815364371625L192.40584002604166,35.09342791379369L192.69524580729166,35.12860001647476L193.22582307291665,35.111141816779735L193.32229166666667,35.09373405386119L193.65993174479166,35.07637651814131L193.80463463541665,35.05906900119997L193.9493375260417,35.04181129576648L194.04580611979165,35.02460319571172L194.28697760416668,35.00744449604057L195.05872635416668,34.99033499288359L195.15519494791667,34.97327448348996L195.20342924479166,34.95626276621917L195.39636643229167,34.939299640533804L195.44460072916667,34.922384906991994L195.63753791666667,34.9055183672399L195.73400651041666,34.888699824004135L196.0234122916667,34.87848496321057L196.07164658854165,34.86829909816945L196.40928666666667,34.85814211067167L196.98809822916667,34.84801388314876L197.22926971354164,34.83791429866828L197.37397260416668,34.827843240929774L197.80808127604166,34.81780059426021L197.85631557291666,34.8077862436101L198.14572135416668,34.79780007454903L198.19395565104165,34.78784197326155L198.8692358072917,34.79844174136497L199.06217299479167,34.805993193237384L199.15864158854166,34.8135234983579L199.25511018229167,34.821032741676795L199.39981307291666,34.82852100769091L199.54451596354167,34.835988380446594L199.97862463541668,34.84343494354256L200.26803041666665,34.85086078013321L200.36449901041667,34.85826597293123L200.89507627604166,34.86565060421072L200.9433105729167,34.87301475581013L201.23271635416666,34.88035850913493L201.57035643229165,34.88768194516065L202.72797955729166,34.89509080819718L202.87268244791667,34.902479222977945L203.01738533854166,34.90984727035862L203.11385393229165,34.9171950307701L204.12677416666668,34.92452258422103L204.27147705729166,34.93183001030087L204.46441424479167,34.90568545003485L204.51264854166666,34.8796125331242L204.5608828385417,34.853610978483694L204.85028861979166,34.827680506493685L204.99499151041664,34.80182083899007L205.09146010416666,34.77603169925524L205.52556877604167,34.75031281200847L205.71850596354167,34.72466390339667L205.86320885416666,34.69908470098503L206.1043803385417,34.67357493374816L206.49025471354167,34.648134332060444L206.68319190104168,34.62276262768764L206.77966049479167,34.59745955377749L206.8761290885417,34.572224844850794L207.50317494791665,34.52397294706351L207.59964354166667,34.47585111517674L207.74434643229168,34.42785884798542L208.32315799479167,34.379995646850425L208.51609518229168,34.33226101568217L208.75726666666668,34.284654460924436L208.85373526041667,34.23717549153799L209.33607822916667,34.189823618984676L209.43254682291666,34.14259835721157L209.52901541666668,34.09549922263503L210.15606127604167,34.04852573412521L210.44546705729167,34.00583132870454L210.92781002604167,33.96325055836195L211.16898151041667,33.92078299125197L211.50662158854166,33.87842819770903L211.65132447916665,33.870259284916806L211.74779307291666,33.86211201553469L212.71247901041667,33.85398630772223L212.76071330729164,33.869977346019475L212.80894760416666,33.885926160165276L213.05011908854166,33.84931976842065L213.14658768229165,33.81280981732548L213.43599346354168,33.776395944468625L213.62893065104166,33.740077789247906L214.01480502604167,33.70385499285884L214.06303932291667,33.667727198283494L214.30421080729167,33.63169405027928L214.35244510416666,33.59575519536798L214.54538229166667,33.559910281824926L215.07595955729167,33.52415895966796L215.36536533854166,33.488500880646704L215.65477111979166,33.452935698231826L215.79947401041665,33.438631551479546L216.33005127604167,33.42436458737498L216.52298846354168,33.41013466823861L216.7159256510417,33.39594165706781L216.81239424479168,33.43319786650508L217.05356572916668,33.47035765785323L217.24650291666669,33.45140230733037L217.4876744010417,33.43249590500428L217.72884588541666,33.41363827094799L217.92178307291667,33.39482922611273L217.97001736979166,33.3760685923228L218.06648596354168,33.35735619227024L218.50059463541666,33.338691849509324L218.54882893229166,33.32007538845157L219.07940619791665,33.301506634360535L219.17587479166667,33.282985413346324L219.22410908854167,33.26451155236097L219.5617491666667,33.24608487919292L219.65821776041668,33.22770522246212L219.70645205729167,33.20937241161522L219.75468635416667,33.19108627692013L219.80292065104166,33.17284664946162L219.99585783854167,33.154653361135914L220.09232643229169,33.164003829343244L221.15348096354165,33.1163534660941L221.29818385416664,33.06882377365L221.97346401041668,33.021414317905176L222.21463549479168,32.974124666827194L222.26286979166665,32.92695439044477L222.35933838541666,32.879903060835545L222.74521276041668,32.83297025211373L222.98638424479168,32.78615554041814L223.32402432291667,32.73945850390007L224.67458463541666,32.7140435656695L225.01222471354168,32.68869237649517L225.54280197916665,32.66340470946243L225.78397346354168,32.63818033872932L226.2180821354167,32.613019039519514L226.26631643229166,32.58792058811671L226.74865940104166,32.56288476185769L226.79689369791666,32.53791133912682L226.84512799479165,32.513000099349355L226.94159658854167,32.55284070116563L227.03806518229166,32.57062828179772L227.13453377604168,32.5883717102375L227.18276807291664,32.60607114182484L227.23100236979167,32.55052455550145L227.32747096354169,32.495115417912345L228.19568830729168,32.43984324714693L228.43685979166668,32.38470756353742L228.67803127604168,32.329707889645846L228.82273416666666,32.27484375025089L228.96743705729168,32.220114672335306L229.20860854166668,32.165520185072964L229.73918580729168,32.111059819816184L230.17329447916669,32.12553447126017L230.31799736979167,32.12922241744849L230.36623166666666,32.132901331238614L230.80034033854164,32.136571243938164L231.08974611979167,32.14023218671086L231.81326057291668,32.143884190577026L231.86149486979167,32.14752728641477L232.15090065104167,32.15116150496058L232.34383783854165,32.154786876810235L232.48854072916666,32.15840343241952L232.77794651041665,32.162011202105084L232.87441510416664,32.165610216045316L233.30852377604165,32.17436689850592L233.50146096354166,32.18310237198279L233.79086674479169,32.19181670907976L234.03203822916666,32.21154180448901L234.32144401041668,32.207978944392785L234.51438119791666,32.20442467914689L234.7555526822917,32.20087897946067L235.09319276041668,32.19734181617592L235.28612994791666,32.19381316026614L235.72023861979164,32.183386130493574L235.86494151041668,32.17298412940831L236.44375307291668,32.16077527794645L236.78139315104167,32.14396911918115L236.92609604166665,32.127203181702725L237.02256463541667,32.11047732965572L237.07079893229167,32.09379142779372L237.26373611979164,32.07714534147547L237.31197041666667,32.0605389366621L237.36020471354166,32.043972079913054L237.93901627604168,32.027444638383294L238.22842205729165,32.01095647981975L238.27665635416668,31.9945074725581L238.37312494791666,31.97809748551941L238.61429643229167,31.961726388206888L238.66253072916666,31.9453940507028L238.80723361979167,31.929100343665084L239.09663940104167,31.9128451383243L239.28957658854168,31.89662830648039L239.62721666666667,31.931227462458736L240.10955963541664,31.965745098454995L240.39896541666667,32.00018148502208L240.59190260416668,32.022099780723536L240.73660549479166,32.043966583304915L241.12247986979168,32.065782063108394L241.21894846354166,32.08754638972849L241.84599432291665,32.09978775867395L242.03893151041666,32.112000478870286L242.08716580729168,32.12418464467982L243.00361744791667,32.13634035005275L243.05185174479166,32.14846768852924L243.19655463541667,32.16056675324166L243.53419471354167,32.17263763691699L243.63066330729168,32.18468043187876L244.01653768229167,32.19669523004947L244.11300627604166,32.19950948350616L244.16124057291668,32.2023172068268L244.78828643229167,32.20511842131318L244.88475502604166,32.20791314817506L244.93298932291668,32.21070140853056L245.3670979947917,32.20483259613706L245.51180088541668,32.19897733764297L245.60826947916667,32.193135589069286L246.04237815104167,32.18730730662612L246.18708104166666,32.18149244671169L246.28354963541668,32.17569096591166L246.38001822916667,32.16990282099769L246.95882979166666,32.16412796892673L247.77881283854168,32.15836636683984L248.01998432291668,32.164576005484854L248.50232729166666,32.17077142298686L248.79173307291666,32.14923988278865L249.12937315104168,32.1277575623114L249.41877893229167,32.106324303693185L249.5152475260417,32.08493994974336L249.70818471354167,32.06360434393887L250.04582479166666,32.0423173304209L250.09405908854168,32.02107875399118L250.14229338541665,31.97010023110184L250.62463635416668,31.919237493674682L251.39638510416668,31.868490173059214L251.63755658854166,31.817857902160863L251.87872807291666,31.76734031543257L252.11989955729166,31.71693704886697L252.16813385416668,31.66664773998808L252.26460244791667,31.61647202784334L252.40930533854166,31.566409552995484L252.89164830729166,31.516459957514805L253.08458549479167,31.508752437359032L253.1328197916667,31.501062264472367L253.42222557291666,31.493389384191566L253.61516276041667,31.48573374208149L253.66339705729166,31.478095283934383L254.04927143229168,31.494728089220892L254.14574002604166,31.511323627314926L254.19397432291666,31.52788201504859L254.24220861979168,31.544403368768506L254.33867721354167,31.560887804338396L254.48338010416666,31.574818046608762L254.53161440104165,31.588717216274446L254.57984869791667,31.602585410251447L254.62808299479167,31.616422725055305L254.82102018229168,31.63022925680307L254.91748877604167,31.644005101215214L255.06219166666665,31.657750353617974L255.11042596354167,31.671465108945263L255.15866026041667,31.685149461740494L255.2068945572917,31.698803506158843L255.30336315104165,31.70816603772704L255.44806604166666,31.717507869469244L255.49630033854166,31.726829065298016L255.78570611979168,31.73612968886461L256.0751119010417,31.745409803560086L256.17158049479167,31.754669472516728L256.3162833854167,31.763908758609432L256.8950949479167,31.773127724456884L257.2809693229167,31.782326432423027L257.32920361979166,31.791504944618087L257.3774379166667,31.80066332290019L257.6668436979167,31.789538829617296L258.0044837760417,31.778438696611122L258.2456552604167,31.76736284949077L258.5832953385417,31.756311214166384L258.77623252604167,31.74528371684738L259.01740401041667,31.734280284041127L259.2103411979167,31.723300842551303L259.4997469791667,31.71234531947642L259.59621557291666,31.70141364220853L259.7409184635417,31.69050573843156L260.07855854166667,31.679621536119765L260.36796432291663,31.681773044394053L260.5126672135417,31.683919885710655L260.60913580729164,31.686062074167083L260.65737010416666,31.68819962380462L260.89854158854166,31.69033254860827" style="fill: none;" fill="none"></path></g></g></g></g><g opacity="0.2"><g><g><g><path stroke="rgb(238, 51, 119)" stroke-width="2px" d="M32.171505807291666,186.05446585518973L32.60561447916667,151.5669192940848L32.65384877604166,151.5669192940848L33.13619174479167,137.07328543526785L33.37736322916667,110.03844900948661L33.473831822916665,110.03844900948661L33.52206611979167,110.03844900948661L33.71500330729167,110.03844900948661L34.10087768229167,110.03844900948661L34.48675205729167,110.03844900948661L34.53498635416667,110.03844900948661L34.776157838541664,95.18987984793526L35.30673510416666,95.18987984793526L35.596140885416666,95.18987984793526L35.83731236979167,95.18987984793526L35.98201526041667,95.18987984793526L36.56082682291667,95.18987984793526L36.85023260416666,95.18987984793526L37.091404088541665,95.18987984793526L37.429044166666664,95.18987984793526L37.62198135416667,113.43570242745534L37.71844994791667,113.43570242745534L38.63490158854167,55.99350010463171L38.87607307291666,55.99350010463171L38.92430736979166,55.99350010463171L39.165478854166665,55.99350010463171L39.40665033854167,55.99350010463171L39.50311893229166,55.99350010463171L39.88899330729166,55.99350010463171L39.937227604166665,55.99350010463171L40.274867682291664,55.99350010463171L40.46780486979167,55.99350010463171L40.901913541666666,36.10309273856027L41.28778791666667,36.10309273856027L42.059536666666666,36.10309273856027L42.25247385416667,36.10309273856027L42.54187963541666,36.10309273856027L42.73481682291666,36.10309273856027L42.83128541666667,36.10309273856027L44.857125885416664,79.49427106584821L44.905360182291666,79.49427106584821L45.00182877604166,79.49427106584821L45.291234557291666,88.01499982561384L45.72534322916667,86.23091796875L45.821811822916665,86.23091796875L45.87004611979167,86.23091796875L46.014749010416665,86.23091796875L46.30415479166667,86.23091796875L46.73826346354167,61.83142456054688L46.88296635416667,61.83142456054688L46.93120065104167,61.83142456054688L47.41354361979166,61.83142456054688L48.23352666666666,61.83142456054688L48.329995260416666,61.83142456054688L49.00527541666667,61.83142456054688L49.24644690104167,61.83142456054688L49.34291549479167,61.83142456054688L49.48761838541667,61.83142456054688L49.87349276041666,63.723295375279015L50.162898541666664,60.27091360909598L50.25936713541667,60.27091360909598L50.404070026041666,60.27091360909598L50.69347580729166,60.27091360909598L50.934647291666664,60.27091360909598L51.41699026041667,36.37667027064732L51.706396041666665,21.496253313337053L51.99580182291667,21.496253313337053L52.18873901041667,21.496253313337053L52.47814479166667,21.496253313337053L52.57461338541667,21.496253313337053L52.62284768229167,21.496253313337053L52.71931627604166,21.496253313337053L52.81578486979166,21.496253313337053L52.864019166666665,21.496253313337053L53.10519065104167,21.496253313337053L53.15342494791666,21.496253313337053L53.587533619791664,21.496253313337053L53.87693940104167,21.496253313337053L53.973407994791664,21.496253313337053L54.214579479166666,21.496253313337053L54.45575096354167,23.448156912667415L54.55221955729167,23.448156912667415L55.13103111979167,23.448156912667415L55.46867119791666,23.448156912667415L55.516905494791665,23.448156912667415L55.61337408854166,23.448156912667415L55.709842682291665,23.448156912667415L55.75807697916667,23.448156912667415L55.85454557291666,23.448156912667415L56.433357135416664,23.448156912667415L56.57806002604167,23.448156912667415L56.77099721354167,23.448156912667415L56.91570010416667,23.448156912667415L57.060402994791666,23.448156912667415L57.253340182291666,23.448156912667415L57.30157447916667,23.448156912667415L57.49451166666667,30.208906947544637L57.73568315104167,29.933823939732143L57.78391744791667,29.933823939732143L58.26626041666666,29.933823939732143L58.45919760416666,29.933823939732143L58.60390049479167,29.933823939732143L58.98977486979167,29.933823939732143L59.18271205729167,29.933823939732143L59.327414947916665,29.933823939732143L59.37564924479167,29.933823939732143L59.42388354166667,29.933823939732143L59.76152361979167,29.933823939732143L60.05092940104167,29.933823939732143L60.14739799479167,29.933823939732143L60.19563229166667,29.933823939732143L60.38856947916667,29.933823939732143L60.58150666666667,44.05867832728794L60.72620955729167,44.05867832728794L60.77444385416667,44.05867832728794L60.82267815104167,44.05867832728794L61.015615338541664,44.05867832728794L61.449724010416666,50.541396484375L61.64266119791667,47.848860909598216L61.69089549479166,47.848860909598216L61.73912979166666,47.848860909598216L61.83559838541667,47.848860909598216L61.88383268229167,30.228416050502226L62.173238463541665,30.228416050502226L62.366175651041665,30.228416050502226L62.41440994791667,30.228416050502226L62.51087854166667,30.228416050502226L62.60734713541667,30.228416050502226L62.752050026041665,30.228416050502226L62.80028432291667,30.228416050502226L62.84851861979167,30.228416050502226L62.89675291666667,30.228416050502226L63.04145580729167,30.228416050502226L63.23439299479167,30.228416050502226L63.47556447916667,30.228416050502226L63.52379877604167,30.228416050502226L63.57203307291667,30.228416050502226L63.861438854166664,30.228416050502226L64.68142190104166,30.228416050502226L64.87435908854167,30.703292759486608L64.97082768229167,30.703292759486608L65.21199916666667,30.703292759486608L66.36962229166667,30.703292759486608L66.46609088541668,30.703292759486608L66.70726236979166,24.143159005301346L66.80373096354167,24.143159005301346L66.99666815104166,24.143159005301346L67.09313674479166,24.143159005301346L67.47901111979166,24.143159005301346L67.76841690104166,24.143159005301346L67.96135408854167,24.143159005301346L68.29899416666667,24.143159005301346L68.39546276041666,24.143159005301346L68.68486854166667,24.143159005301346L68.78133713541666,24.143159005301346L68.92604002604168,24.143159005301346L68.97427432291667,24.143159005301346L69.07074291666667,24.143159005301346L69.45661729166666,46.429880196707586L69.50485158854167,46.429880196707586L69.64955447916667,46.429880196707586L69.98719455729166,46.429880196707586L70.13189744791667,46.429880196707586L70.56600611979167,46.429880196707586L70.75894330729167,46.429880196707586L70.90364619791667,46.429880196707586L70.95188049479167,46.429880196707586L71.38598916666668,46.56351056780133L71.43422346354167,46.56351056780133L71.62716065104166,46.56351056780133L71.67539494791667,46.56351056780133L71.72362924479167,46.56351056780133L71.77186354166668,46.56351056780133L71.96480072916667,28.447065778459827L72.01303502604166,28.447065778459827L72.15773791666666,28.447065778459827L72.20597221354166,28.447065778459827L72.59184658854167,28.447065778459827L72.78478377604166,28.447065778459827L72.88125236979167,28.447065778459827L72.97772096354167,28.447065778459827L73.02595526041668,28.447065778459827L73.46006393229166,28.447065778459827L73.60476682291666,28.447065778459827L73.99064119791666,28.447065778459827L74.08710979166666,28.447065778459827L74.28004697916666,28.447065778459827L74.32828127604166,28.447065778459827L74.56945276041667,28.447065778459827L74.90709283854167,30.485386788504456L75.43767010416667,30.485386788504456L75.53413869791666,30.485386788504456L75.82354447916667,30.485386788504456L75.96824736979167,30.485386788504456L76.06471596354167,30.485386788504456L76.25765315104168,30.485386788504456L76.45059033854166,42.76514875139509L76.54705893229166,42.76514875139509L76.78823041666666,23.96358834402901L76.83646471354166,23.96358834402901L76.88469901041667,23.96358834402901L77.27057338541667,23.96358834402901L77.55997916666666,23.96358834402901L77.75291635416667,23.96358834402901L77.80115065104167,23.96358834402901L77.84938494791668,23.96358834402901L78.28349361979167,23.96358834402901L78.52466510416667,23.96358834402901L79.19994526041665,23.96358834402901L79.29641385416666,23.96358834402901L80.26109979166667,32.01069754464286L80.30933408854168,32.01069754464286L80.50227127604167,32.01069754464286L80.55050557291666,32.01069754464286L80.59873986979167,32.01069754464286L81.46695721354168,32.01069754464286L81.70812869791666,32.01069754464286L82.04576877604165,32.01069754464286L82.09400307291666,32.01069754464286L82.38340885416667,32.01069754464286L82.47987744791666,32.01069754464286L82.72104893229167,46.58329903738839L82.81751752604166,46.58329903738839L83.10692330729167,21.7015877859933L83.97514065104167,21.7015877859933L84.07160924479166,21.7015877859933L84.16807783854166,21.7015877859933L84.55395221354166,21.7015877859933L84.69865510416666,21.7015877859933L85.08452947916666,19.253373849051346L85.22923236979167,19.253373849051346L85.37393526041666,19.253373849051346L86.00098111979167,19.253373849051346L86.33862119791667,19.253373849051346L86.62802697916666,19.253373849051346L86.82096416666667,19.253373849051346L86.91743276041666,19.253373849051346L86.96566705729167,19.253373849051346L87.25507283854168,19.253373849051346L87.73741580729165,19.253373849051346L87.97858729166667,44.73829973493304L88.02682158854167,44.73829973493304L88.17152447916666,44.73829973493304L88.46093026041667,44.73829973493304L88.55739885416666,44.73829973493304L88.70210174479166,44.73829973493304L88.84680463541667,44.73829973493304L88.99150752604166,44.73829973493304L89.03974182291667,44.73829973493304L89.90795916666667,66.65821254185268L90.63147361979166,74.23277308872767L91.35498807291667,10.616397530691955L91.49969096354167,10.616397530691955L91.54792526041666,10.616397530691955L91.64439385416667,10.616397530691955L91.69262815104167,10.616397530691955L92.70554838541666,10.616397530691955L92.75378268229167,10.616397530691955L92.99495416666667,10.616397530691955L93.13965705729166,10.616397530691955L93.33259424479166,10.616397530691955L93.42906283854165,10.616397530691955L93.62200002604166,10.616397530691955L93.81493721354165,58.72960135323661L94.00787440104166,58.72960135323661L95.21373182291667,41.539505266462044L95.26196611979167,41.539505266462044L95.79254338541666,41.539505266462044L96.17841776041666,41.539505266462044L96.22665205729167,41.539505266462044L96.37135494791666,39.71603271484375L96.46782354166666,39.71603271484375L96.51605783854167,39.71603271484375L96.95016651041666,39.71603271484375L97.28780658854167,13.276697300502228L98.01132104166666,13.276697300502228L98.05955533854167,13.276697300502228L98.20425822916667,13.276697300502228L98.54189830729166,13.276697300502228L99.12070986979165,13.276697300502228L99.36188135416667,13.276697300502228L99.41011565104166,13.276697300502228L99.50658424479167,13.276697300502228L99.84422432291667,13.276697300502228L100.18186440104166,31.07691458565848L100.23009869791667,31.07691458565848L100.66420736979167,31.07691458565848L100.85714455729166,31.07691458565848L100.95361315104167,31.07691458565848L101.14655033854167,31.07691458565848L101.58065901041665,35.3518293108259L101.91829908854167,35.3518293108259L101.96653338541667,35.3518293108259L102.20770486979167,35.3518293108259L102.59357924479167,35.3518293108259L103.02768791666666,29.219747314453134L103.07592221354167,29.219747314453134L103.26885940104167,29.219747314453134L103.51003088541667,29.219747314453134L103.65473377604167,29.219747314453134L103.75120236979167,29.219747314453134L103.89590526041667,29.219747314453134L104.04060815104168,29.219747314453134L104.23354533854166,29.219747314453134L104.61941971354166,20.65757917131697L105.00529408854166,20.65757917131697L105.19823127604167,20.65757917131697L105.34293416666667,20.65757917131697L105.39116846354166,20.65757917131697L105.68057424479166,20.65757917131697L105.72880854166667,20.65757917131697L106.11468291666667,20.65757917131697L106.30762010416667,20.65757917131697L106.35585440104167,20.65757917131697L106.40408869791668,20.65757917131697L106.50055729166667,20.65757917131697L106.64526018229166,20.65757917131697L106.98290026041666,20.65757917131697L107.03113455729167,20.65757917131697L107.41700893229167,27.015094517299115L107.46524322916666,27.015094517299115L107.89935190104167,27.015094517299115L108.09228908854168,27.015094517299115L108.18875768229167,27.015094517299115L108.33346057291666,27.015094517299115L108.57463205729167,27.015094517299115L108.62286635416666,27.015094517299115L108.71933494791666,27.015094517299115L108.76756924479167,27.015094517299115L108.81580354166667,27.015094517299115L109.05697502604167,29.739881417410718L109.73225518229165,29.739881417410718L110.16636385416666,29.739881417410718L110.45576963541667,29.739881417410718L110.79340971354166,29.739881417410718L110.84164401041667,29.739881417410718L111.27575268229167,39.55909075055804L111.61339276041667,39.55909075055804L112.04750143229167,25.91055646623883L112.19220432291668,25.91055646623883L112.52984440104167,25.91055646623883L112.62631299479166,25.91055646623883L112.81925018229167,25.91055646623883L113.30159315104167,25.91055646623883L113.34982744791667,25.91055646623883L113.49453033854167,25.91055646623883L113.73570182291667,25.91055646623883L113.92863901041666,25.91055646623883L114.55568486979168,46.13884225027902L114.65215346354168,47.09683698381696L114.70038776041666,47.09683698381696L114.98979354166667,47.09683698381696L115.03802783854168,47.09683698381696L115.08626213541666,47.09683698381696L115.18273072916666,28.91311139787946L115.85801088541668,28.91311139787946L116.72622822916667,24.71845249720982L117.01563401041668,24.71845249720982L117.35327408854167,24.71845249720982L117.64267986979166,24.71845249720982L117.83561705729167,24.71845249720982L117.93208565104166,24.71845249720982L118.02855424479166,24.71845249720982L118.31796002604166,24.71845249720982L118.46266291666666,24.71845249720982L118.55913151041666,24.71845249720982L118.70383440104168,24.71845249720982L118.84853729166666,25.625105852399543L118.99324018229167,25.625105852399543L119.42734885416667,25.625105852399543L119.52381744791666,25.625105852399543L120.10262901041666,25.625105852399543L120.15086330729167,25.625105852399543L120.19909760416667,25.625105852399543L120.87437776041666,36.435539027622774L121.06731494791667,36.435539027622774L121.26025213541666,36.435539027622774L121.45318932291667,36.435539027622774L121.50142361979167,36.435539027622774L121.64612651041666,36.435539027622774L121.74259510416667,36.435539027622774L121.83906369791667,36.435539027622774L122.22493807291667,36.435539027622774L122.32140666666668,36.435539027622774L122.46610955729166,36.435539027622774L122.61081244791667,36.435539027622774L122.75551533854167,36.435539027622774L122.85198393229166,43.20268345424108L122.99668682291667,13.301576450892862L123.14138971354167,13.301576450892862L123.91313846354167,13.301576450892862L124.25077854166666,13.301576450892862L124.49195002604166,13.301576450892862L124.54018432291666,13.301576450892862L124.58841861979167,13.301576450892862L124.68488721354167,13.301576450892862L124.73312151041667,13.301576450892862L124.82959010416666,13.301576450892862L124.92605869791666,13.301576450892862L125.11899588541667,13.301576450892862L125.31193307291666,13.301576450892862L125.55310455729168,13.301576450892862L125.64957315104168,40.18339756556919L125.98721322916667,40.18339756556919L126.08368182291666,40.18339756556919L126.13191611979167,58.112263183593754L126.37308760416667,58.112263183593754L126.56602479166666,58.112263183593754L126.80719627604167,34.393865618024556L126.90366486979165,34.393865618024556L126.95189916666666,34.393865618024556L127.43424213541667,34.393865618024556L127.48247643229166,34.393865618024556L127.67541361979167,34.393865618024556L127.82011651041667,34.393865618024556L127.96481940104167,34.393865618024556L128.01305369791666,34.393865618024556L128.15775658854167,34.393865618024556L128.20599088541667,34.393865618024556L128.30245947916669,34.393865618024556L128.54363096354166,34.393865618024556L128.59186526041668,34.393865618024556L128.92950533854167,33.083186035156245L128.97773963541667,33.083186035156245L129.17067682291665,33.083186035156245L129.26714541666666,33.083186035156245L129.36361401041665,33.083186035156245L129.55655119791666,33.083186035156245L130.03889416666667,33.083186035156245L130.13536276041665,33.083186035156245L130.23183135416667,33.083186035156245L130.28006565104167,33.083186035156245L130.47300283854167,33.083186035156245L130.61770572916666,33.083186035156245L131.00358010416667,33.083186035156245L131.19651729166665,33.083186035156245L131.87179744791666,37.315978480747766L132.06473463541667,37.315978480747766L132.16120322916666,35.340282156808044L132.40237471354166,35.340282156808044L132.45060901041666,35.340282156808044L132.54707760416667,35.340282156808044L132.64354619791666,35.340282156808044L132.69178049479166,35.340282156808044L132.78824908854165,35.340282156808044L132.88471768229167,35.340282156808044L132.93295197916666,35.340282156808044L133.27059205729165,35.340282156808044L133.41529494791666,35.340282156808044L133.65646643229167,35.340282156808044L134.23527799479166,35.340282156808044L134.42821518229167,35.340282156808044L134.57291807291668,35.340282156808044L135.05526104166665,29.080607212611604L135.34466682291665,29.080607212611604L135.39290111979167,29.080607212611604L135.48936971354166,29.080607212611604L135.63407260416668,29.080607212611604L135.77877549479166,20.75479875837054L135.82700979166665,20.75479875837054L135.87524408854168,20.75479875837054L136.35758705729168,20.281629289899563L136.40582135416668,20.281629289899563L136.45405565104167,20.281629289899563L136.55052424479166,20.281629289899563L137.12933580729168,20.281629289899563L137.17757010416668,20.281629289899563L137.22580440104167,20.281629289899563L137.27403869791667,20.281629289899563L137.65991307291668,20.281629289899563L138.09402174479166,20.281629289899563L138.91400479166668,20.281629289899563L139.58928494791667,15.371171003069206L139.78222213541667,15.371171003069206L139.83045643229167,15.371171003069206L139.92692502604166,15.371171003069206L140.31279940104167,15.371171003069206L140.40926799479166,15.371171003069206L140.60220518229167,15.371171003069206L141.08454815104167,15.371171003069206L141.47042252604166,15.371171003069206L141.51865682291665,15.371171003069206L142.04923408854168,15.371171003069206L142.43510846354167,34.41464739118304L142.72451424479166,17.491781005859384L142.77274854166666,17.491781005859384L142.86921713541668,17.491781005859384L142.96568572916667,17.491781005859384L143.20685721354167,17.491781005859384L144.12330885416668,17.491781005859384L144.41271463541668,17.491781005859384L144.46094893229167,17.491781005859384L144.94329190104168,17.491781005859384L145.0397604947917,17.491781005859384L145.18446338541668,17.491781005859384L145.23269768229167,17.491781005859384L145.28093197916667,17.491781005859384L145.76327494791667,21.241952078683042L145.81150924479164,21.241952078683042L145.95621213541668,21.241952078683042L146.24561791666665,21.241952078683042L146.48678940104168,21.241952078683042L146.58325799479167,21.241952078683042L146.67972658854166,21.241952078683042L146.77619518229164,21.241952078683042L147.21030385416665,21.241952078683042L147.40324104166666,21.241952078683042L147.59617822916667,21.241952078683042L147.69264682291669,21.241952078683042L147.83734971354167,21.241952078683042L148.27145838541668,7.409206542968745L148.31969268229165,7.409206542968745L148.51262986979165,7.409206542968745L148.80203565104168,7.409206542968745L148.89850424479167,7.409206542968745L149.47731580729166,7.409206542968745L149.52555010416668,7.409206542968745L149.57378440104168,7.409206542968745L149.62201869791664,7.409206542968745L149.76672158854169,7.409206542968745L149.9596587760417,7.409206542968745L150.24906455729166,7.409206542968745L150.29729885416668,7.409206542968745L150.44200174479167,7.409206542968745L150.82787611979165,7.409206542968745L151.06904760416668,23.939283447265623L151.21375049479167,23.939283447265623L151.35845338541665,23.939283447265623L151.40668768229168,23.939283447265623L151.69609346354164,23.939283447265623L151.79256205729166,23.939283447265623L152.08196783854166,23.939283447265623L152.22667072916667,40.416187569754456L152.37137361979168,40.416187569754456L152.41960791666668,40.416187569754456L152.61254510416668,40.416187569754456L153.52899674479167,24.52042811802456L153.72193393229168,24.52042811802456L153.81840252604167,24.52042811802456L154.05957401041667,24.52042811802456L154.30074549479167,24.52042811802456L154.92779135416666,24.52042811802456L155.12072854166667,24.52042811802456L155.26543143229168,24.52042811802456L155.98894588541668,25.520855538504467L156.51952315104165,25.520855538504467L156.56775744791668,25.520855538504467L156.71246033854166,25.520855538504467L157.00186611979166,30.698822893415173L157.33950619791668,30.698822893415173L157.38774049479164,30.698822893415173L157.43597479166667,30.698822893415173L157.48420908854166,30.698822893415173L157.53244338541668,30.698822893415173L157.58067768229165,30.698822893415173L157.96655205729166,30.698822893415173L159.07594088541668,30.698822893415173L159.12417518229165,30.698822893415173L159.17240947916667,30.698822893415173L159.51004955729167,30.698822893415173L160.04062682291666,22.4412264578683L160.13709541666668,22.4412264578683L160.71590697916668,22.4412264578683L160.76414127604167,22.4412264578683L160.90884416666668,22.4412264578683L161.00531276041664,22.4412264578683L161.05354705729167,22.4412264578683L161.15001565104168,22.4412264578683L162.06646729166667,6.168849748883934L162.30763877604167,6.168849748883934L162.45234166666668,6.168849748883934L162.59704455729167,6.168849748883934L163.03115322916668,6.168849748883934L163.07938752604164,6.168849748883934L163.36879330729167,6.168849748883934L163.46526190104166,6.168849748883934L163.51349619791665,6.168849748883934L163.80290197916668,6.168849748883934L163.94760486979166,6.168849748883934L164.23701065104166,6.168849748883934L164.33347924479168,6.168849748883934L164.42994783854166,32.35019008091517L164.57465072916668,32.35019008091517L165.00875940104166,32.35019008091517L165.24993088541666,27.957848249162947L165.34639947916665,27.957848249162947L165.39463377604167,27.957848249162947L165.44286807291667,27.957848249162947L165.97344533854167,27.957848249162947L166.45578830729167,27.957848249162947L166.84166268229168,27.957848249162947L167.66164572916665,27.957848249162947L167.99928580729167,32.0087574986049L168.04752010416667,32.0087574986049L168.19222299479165,14.92202706473214L168.67456596354168,14.92202706473214L168.96397174479165,14.92202706473214L169.15690893229166,14.92202706473214L169.39808041666666,14.92202706473214L169.49454901041668,14.92202706473214L169.59101760416667,14.92202706473214L169.68748619791668,14.92202706473214L169.78395479166667,14.92202706473214L169.97689197916665,14.92202706473214L170.02512627604168,14.92202706473214L170.16982916666666,14.92202706473214L170.45923494791668,14.92202706473214L170.55570354166667,14.92202706473214L170.70040643229166,14.92202706473214L171.08628080729167,36.817246965680795L171.18274940104166,36.817246965680795L171.23098369791666,36.817246965680795L171.27921799479165,36.817246965680795L171.66509236979167,36.817246965680795L172.38860682291664,36.817246965680795L172.48507541666666,36.817246965680795L172.58154401041665,36.817246965680795L172.67801260416667,36.817246965680795L172.77448119791666,36.817246965680795L173.20858986979167,52.85725272042411L173.40152705729167,51.61520420619421L174.0285729166667,39.4459783063616L174.22151010416667,39.4459783063616L175.13796174479168,39.4459783063616L175.86147619791666,39.4459783063616L175.90971049479168,39.4459783063616L176.19911627604165,39.4459783063616L176.24735057291667,39.4459783063616L176.3438191666667,39.4459783063616L176.48852205729168,42.77213291713169L176.72969354166665,42.77213291713169L176.8743964322917,42.77213291713169L176.92263072916666,42.77213291713169L177.01909932291667,42.77213291713169L177.79084807291667,37.23884225027901L178.12848815104167,37.23884225027901L178.32142533854167,37.23884225027901L178.65906541666666,37.23884225027901L178.70729971354166,37.23884225027901L179.04493979166665,37.23884225027901L179.18964268229166,37.23884225027901L180.34726580729165,50.22670549665179L180.4919686979167,50.22670549665179L180.82960877604168,31.805626918247775L180.97431166666667,31.805626918247775L181.02254596354166,31.805626918247775L181.11901455729165,31.805626918247775L181.16724885416667,31.805626918247775L181.50488893229166,31.805626918247775L181.60135752604168,31.805626918247775L182.13193479166668,9.29713518415178L182.37310627604168,9.29713518415178L182.80721494791666,9.29713518415178L182.90368354166668,9.29713518415178L183.00015213541664,9.29713518415178L183.19308932291665,9.29713518415178L183.3377922135417,9.29713518415178L183.96483807291665,9.29713518415178L184.01307236979167,9.29713518415178L184.06130666666667,9.29713518415178L184.35071244791666,9.29713518415178L184.73658682291665,39.58358189174107L185.02599260416667,37.8250155203683L185.07422690104164,37.8250155203683L185.12246119791666,37.8250155203683L185.31539838541667,37.8250155203683L185.55656986979167,37.8250155203683L185.89420994791666,37.8250155203683L186.28008432291665,37.8250155203683L186.47302151041666,37.8250155203683L186.66595869791666,37.8250155203683L186.76242729166668,37.8250155203683L187.05183307291668,32.90197021484374L187.19653596354166,32.90197021484374L187.29300455729168,32.90197021484374L187.38947315104167,32.90197021484374L187.4859417447917,32.90197021484374L187.63064463541667,32.90197021484374L187.87181611979167,32.90197021484374L188.45062768229167,32.90197021484374L188.69179916666664,32.90197021484374L188.93297065104167,32.90197021484374L189.8011879947917,50.766131417410726L189.99412518229167,50.766131417410726L190.13882807291668,50.766131417410726L190.37999955729165,50.766131417410726L190.66940533854168,50.766131417410726L190.71763963541667,50.766131417410726L190.91057682291668,50.766131417410726L191.00704541666667,50.766131417410726L191.29645119791667,50.766131417410726L191.34468549479166,50.766131417410726L191.63409127604166,50.766131417410726L191.97173135416665,53.15159650530135L192.26113713541667,53.15159650530135L192.40584002604166,53.15159650530135L192.69524580729166,53.15159650530135L193.22582307291665,26.156662946428582L193.32229166666667,26.156662946428582L193.65993174479166,26.156662946428582L193.80463463541665,26.156662946428582L193.9493375260417,26.156662946428582L194.04580611979165,26.156662946428582L194.28697760416668,26.156662946428582L195.05872635416668,26.156662946428582L195.15519494791667,26.156662946428582L195.20342924479166,26.156662946428582L195.39636643229167,26.156662946428582L195.44460072916667,26.156662946428582L195.63753791666667,26.156662946428582L195.73400651041666,26.156662946428582L196.0234122916667,29.57011962890626L196.07164658854165,29.57011962890626L196.40928666666667,29.57011962890626L196.98809822916667,29.57011962890626L197.22926971354164,29.57011962890626L197.37397260416668,29.57011962890626L197.80808127604166,29.57011962890626L197.85631557291666,29.57011962890626L198.14572135416668,29.57011962890626L198.19395565104165,29.57011962890626L198.8692358072917,40.35741193498883L199.06217299479167,38.76988002232144L199.15864158854166,38.76988002232144L199.25511018229167,38.76988002232144L199.39981307291666,38.76988002232144L199.54451596354167,38.76988002232144L199.97862463541668,38.76988002232144L200.26803041666665,38.76988002232144L200.36449901041667,38.76988002232144L200.89507627604166,38.76988002232144L200.9433105729167,38.76988002232144L201.23271635416666,38.76988002232144L201.57035643229165,38.76988002232144L202.72797955729166,38.82604823521206L202.87268244791667,38.82604823521206L203.01738533854166,38.82604823521206L203.11385393229165,38.82604823521206L204.12677416666668,38.82604823521206L204.27147705729166,38.82604823521206L204.46441424479167,20.960738525390624L204.51264854166666,20.960738525390624L204.5608828385417,20.960738525390624L204.85028861979166,20.960738525390624L204.99499151041664,20.960738525390624L205.09146010416666,20.960738525390624L205.52556877604167,20.960738525390624L205.71850596354167,20.960738525390624L205.86320885416666,20.960738525390624L206.1043803385417,20.960738525390624L206.49025471354167,20.960738525390624L206.68319190104168,20.960738525390624L206.77966049479167,20.960738525390624L206.8761290885417,20.960738525390624L207.50317494791665,8.474943673270094L207.59964354166667,8.474943673270094L207.74434643229168,8.474943673270094L208.32315799479167,8.474943673270094L208.51609518229168,8.474943673270094L208.75726666666668,8.474943673270094L208.85373526041667,8.474943673270094L209.33607822916667,8.474943673270094L209.43254682291666,8.474943673270094L209.52901541666668,8.474943673270094L210.15606127604167,8.474943673270094L210.44546705729167,10.742485002790179L210.92781002604167,10.742485002790179L211.16898151041667,10.742485002790179L211.50662158854166,10.742485002790179L211.65132447916665,29.404362095424116L211.74779307291666,29.404362095424116L212.71247901041667,29.404362095424116L212.76071330729164,42.63386195591519L212.80894760416666,42.63386195591519L213.05011908854166,13.754196951729906L213.14658768229165,13.754196951729906L213.43599346354168,13.754196951729906L213.62893065104166,13.754196951729906L214.01480502604167,13.754196951729906L214.06303932291667,13.754196951729906L214.30421080729167,13.754196951729906L214.35244510416666,13.754196951729906L214.54538229166667,13.754196951729906L215.07595955729167,13.754196951729906L215.36536533854166,13.754196951729906L215.65477111979166,13.754196951729906L215.79947401041665,25.509525669642866L216.33005127604167,25.509525669642866L216.52298846354168,25.509525669642866L216.7159256510417,25.509525669642866L216.81239424479168,54.15130998883929L217.05356572916668,54.15130998883929L217.24650291666669,22.8935831124442L217.4876744010417,22.8935831124442L217.72884588541666,22.8935831124442L217.92178307291667,22.8935831124442L217.97001736979166,22.8935831124442L218.06648596354168,22.8935831124442L218.50059463541666,22.8935831124442L218.54882893229166,22.8935831124442L219.07940619791665,22.8935831124442L219.17587479166667,22.8935831124442L219.22410908854167,22.8935831124442L219.5617491666667,22.8935831124442L219.65821776041668,22.8935831124442L219.70645205729167,22.8935831124442L219.75468635416667,22.8935831124442L219.80292065104166,22.8935831124442L219.99585783854167,22.8935831124442L220.09232643229169,38.44176391601563L221.15348096354165,6.199968087332597L221.29818385416664,6.199968087332597L221.97346401041668,6.199968087332597L222.21463549479168,6.199968087332597L222.26286979166665,6.199968087332597L222.35933838541666,6.199968087332597L222.74521276041668,6.199968087332597L222.98638424479168,6.199968087332597L223.32402432291667,6.199968087332597L224.67458463541666,18.258937290736604L225.01222471354168,18.258937290736604L225.54280197916665,18.258937290736604L225.78397346354168,18.258937290736604L226.2180821354167,18.258937290736604L226.26631643229166,18.258937290736604L226.74865940104166,18.258937290736604L226.79689369791666,18.258937290736604L226.84512799479165,18.258937290736604L226.94159658854167,55.3663996233259L227.03806518229166,42.76375191824777L227.13453377604168,42.76375191824777L227.18276807291664,42.76375191824777L227.23100236979167,0.6487979561941974L227.32747096354169,0.6487979561941974L228.19568830729168,0.6487979561941974L228.43685979166668,0.6487979561941974L228.67803127604168,0.6487979561941974L228.82273416666666,0.6487979561941974L228.96743705729168,0.6487979561941974L229.20860854166668,0.6487979561941974L229.73918580729168,0.6487979561941974L230.17329447916669,40.493773890904016L230.31799736979167,34.26288922991071L230.36623166666666,34.26288922991071L230.80034033854164,34.26288922991071L231.08974611979167,34.26288922991071L231.81326057291668,34.26288922991071L231.86149486979167,34.26288922991071L232.15090065104167,34.26288922991071L232.34383783854165,34.26288922991071L232.48854072916666,34.26288922991071L232.77794651041665,34.26288922991071L232.87441510416664,34.26288922991071L233.30852377604165,37.280855887276786L233.50146096354166,37.280855887276786L233.79086674479169,37.280855887276786L234.03203822916666,43.73888113839287L234.32144401041668,30.124367501395085L234.51438119791666,30.124367501395085L234.7555526822917,30.124367501395085L235.09319276041668,30.124367501395085L235.28612994791666,30.124367501395085L235.72023861979164,26.063959786551337L235.86494151041668,26.063959786551337L236.44375307291668,24.985573556082585L236.78139315104167,22.2599951171875L236.92609604166665,22.2599951171875L237.02256463541667,22.2599951171875L237.07079893229167,22.2599951171875L237.26373611979164,22.2599951171875L237.31197041666667,22.2599951171875L237.36020471354166,22.2599951171875L237.93901627604168,22.2599951171875L238.22842205729165,22.2599951171875L238.27665635416668,22.2599951171875L238.37312494791666,22.2599951171875L238.61429643229167,22.2599951171875L238.66253072916666,22.2599951171875L238.80723361979167,22.2599951171875L239.09663940104167,22.2599951171875L239.28957658854168,22.2599951171875L239.62721666666667,52.50531284877231L240.10955963541664,52.50531284877231L240.39896541666667,52.50531284877231L240.59190260416668,45.08218453543527L240.73660549479166,45.08218453543527L241.12247986979168,45.08218453543527L241.21894846354166,45.08218453543527L241.84599432291665,39.413556256975454L242.03893151041666,39.413556256975454L242.08716580729168,39.413556256975454L243.00361744791667,39.413556256975454L243.05185174479166,39.413556256975454L243.19655463541667,39.413556256975454L243.53419471354167,39.413556256975454L243.63066330729168,39.413556256975454L244.01653768229167,39.413556256975454L244.11300627604166,33.89105224609375L244.16124057291668,33.89105224609375L244.78828643229167,33.89105224609375L244.88475502604166,33.89105224609375L244.93298932291668,33.89105224609375L245.3670979947917,28.665654645647315L245.51180088541668,28.665654645647315L245.60826947916667,28.665654645647315L246.04237815104167,28.665654645647315L246.18708104166666,28.665654645647315L246.28354963541668,28.665654645647315L246.38001822916667,28.665654645647315L246.95882979166666,28.665654645647315L247.77881283854168,28.665654645647315L248.01998432291668,35.93132882254465L248.50232729166666,35.93132882254465L248.79173307291666,19.071366489955363L249.12937315104168,19.071366489955363L249.41877893229167,19.071366489955363L249.5152475260417,19.071366489955363L249.70818471354167,19.071366489955363L250.04582479166666,19.071366489955363L250.09405908854168,19.071366489955363L250.14229338541665,0.8673247419084849L250.62463635416668,0.8673247419084849L251.39638510416668,0.8673247419084849L251.63755658854166,0.8673247419084849L251.87872807291666,0.8673247419084849L252.11989955729166,0.8673247419084849L252.16813385416668,0.8673247419084849L252.26460244791667,0.8673247419084849L252.40930533854166,0.8673247419084849L252.89164830729166,0.8673247419084849L253.08458549479167,26.776437813895086L253.1328197916667,26.776437813895086L253.42222557291666,26.776437813895086L253.61516276041667,26.776437813895086L253.66339705729166,26.776437813895086L254.04927143229168,41.739004080636164L254.14574002604166,41.739004080636164L254.19397432291666,41.739004080636164L254.24220861979168,41.739004080636164L254.33867721354167,41.739004080636164L254.48338010416666,40.18119367327009L254.53161440104165,40.18119367327009L254.57984869791667,40.18119367327009L254.62808299479167,40.18119367327009L254.82102018229168,40.18119367327009L254.91748877604167,40.18119367327009L255.06219166666665,40.18119367327009L255.11042596354167,40.18119367327009L255.15866026041667,40.18119367327009L255.2068945572917,40.18119367327009L255.30336315104165,37.52804879324777L255.44806604166666,37.52804879324777L255.49630033854166,37.52804879324777L255.78570611979168,37.52804879324777L256.0751119010417,37.52804879324777L256.17158049479167,37.52804879324777L256.3162833854167,37.52804879324777L256.8950949479167,37.52804879324777L257.2809693229167,37.52804879324777L257.32920361979166,37.52804879324777L257.3774379166667,37.52804879324777L257.6668436979167,24.828445347377233L258.0044837760417,24.828445347377233L258.2456552604167,24.828445347377233L258.5832953385417,24.828445347377233L258.77623252604167,24.828445347377233L259.01740401041667,24.828445347377233L259.2103411979167,24.828445347377233L259.4997469791667,24.828445347377233L259.59621557291666,24.828445347377233L259.7409184635417,24.828445347377233L260.07855854166667,24.828445347377233L260.36796432291663,33.036857735770084L260.5126672135417,33.036857735770084L260.60913580729164,33.036857735770084L260.65737010416666,33.036857735770084L260.89854158854166,33.036857735770084" style="fill: none;" fill="none"></path></g></g></g></g></g></g><g transform="translate(41, 178)" clip-path="url(#clip_1)"><clipPath id="clip_1"><rect width="288" height="22"></rect></clipPath><g><g><line x1="0" y1="0" x2="0" y2="5" style="visibility: inherit;" fill="rgb(0, 0, 0)" stroke="rgb(204, 204, 204)" stroke-width="1px"></line><line x1="24.069010416666664" y1="0" x2="24.069010416666664" y2="5" style="visibility: inherit;" fill="rgb(0, 0, 0)" stroke="rgb(204, 204, 204)" stroke-width="1px"></line><line x1="48.13802083333333" y1="0" x2="48.13802083333333" y2="5" style="visibility: inherit;" fill="rgb(0, 0, 0)" stroke="rgb(204, 204, 204)" stroke-width="1px"></line><line x1="72.20703125" y1="0" x2="72.20703125" y2="5" style="visibility: inherit;" fill="rgb(0, 0, 0)" stroke="rgb(204, 204, 204)" stroke-width="1px"></line><line x1="96.27604166666666" y1="0" x2="96.27604166666666" y2="5" style="visibility: inherit;" fill="rgb(0, 0, 0)" stroke="rgb(204, 204, 204)" stroke-width="1px"></line><line x1="120.34505208333334" y1="0" x2="120.34505208333334" y2="5" style="visibility: inherit;" fill="rgb(0, 0, 0)" stroke="rgb(204, 204, 204)" stroke-width="1px"></line><line x1="144.4140625" y1="0" x2="144.4140625" y2="5" style="visibility: inherit;" fill="rgb(0, 0, 0)" stroke="rgb(204, 204, 204)" stroke-width="1px"></line><line x1="168.48307291666669" y1="0" x2="168.48307291666669" y2="5" style="visibility: inherit;" fill="rgb(0, 0, 0)" stroke="rgb(204, 204, 204)" stroke-width="1px"></line><line x1="192.55208333333331" y1="0" x2="192.55208333333331" y2="5" style="visibility: inherit;" fill="rgb(0, 0, 0)" stroke="rgb(204, 204, 204)" stroke-width="1px"></line><line x1="216.62109375" y1="0" x2="216.62109375" y2="5" style="visibility: inherit;" fill="rgb(0, 0, 0)" stroke="rgb(204, 204, 204)" stroke-width="1px"></line><line x1="240.69010416666669" y1="0" x2="240.69010416666669" y2="5" style="visibility: inherit;" fill="rgb(0, 0, 0)" stroke="rgb(204, 204, 204)" stroke-width="1px"></line><line x1="264.7591145833333" y1="0" x2="264.7591145833333" y2="5" style="visibility: inherit;" fill="rgb(0, 0, 0)" stroke="rgb(204, 204, 204)" stroke-width="1px"></line><line x1="288.828125" y1="0" x2="288.828125" y2="5" style="visibility: inherit;" fill="rgb(0, 0, 0)" stroke="rgb(204, 204, 204)" stroke-width="1px"></line></g><g transform="translate(0, 8)"><text x="0" y="0" dx="0em" dy="0.95em" style="text-anchor: middle; visibility: hidden; font-family: Roboto, sans-serif; font-size: 12px; font-weight: 200;" fill="rgb(50, 49, 63)" stroke="none" stroke-width="1px">-500k</text><text x="24.069010416666664" y="0" dx="0em" dy="0.95em" style="text-anchor: middle; visibility: inherit; font-family: Roboto, sans-serif; font-size: 12px; font-weight: 200;" fill="rgb(50, 49, 63)" stroke="none" stroke-width="1px">0</text><text x="48.13802083333333" y="0" dx="0em" dy="0.95em" style="text-anchor: middle; visibility: hidden; font-family: Roboto, sans-serif; font-size: 12px; font-weight: 200;" fill="rgb(50, 49, 63)" stroke="none" stroke-width="1px">500k</text><text x="72.20703125" y="0" dx="0em" dy="0.95em" style="text-anchor: middle; visibility: inherit; font-family: Roboto, sans-serif; font-size: 12px; font-weight: 200;" fill="rgb(50, 49, 63)" stroke="none" stroke-width="1px">1M</text><text x="96.27604166666666" y="0" dx="0em" dy="0.95em" style="text-anchor: middle; visibility: hidden; font-family: Roboto, sans-serif; font-size: 12px; font-weight: 200;" fill="rgb(50, 49, 63)" stroke="none" stroke-width="1px">1.5M</text><text x="120.34505208333334" y="0" dx="0em" dy="0.95em" style="text-anchor: middle; visibility: inherit; font-family: Roboto, sans-serif; font-size: 12px; font-weight: 200;" fill="rgb(50, 49, 63)" stroke="none" stroke-width="1px">2M</text><text x="144.4140625" y="0" dx="0em" dy="0.95em" style="text-anchor: middle; visibility: hidden; font-family: Roboto, sans-serif; font-size: 12px; font-weight: 200;" fill="rgb(50, 49, 63)" stroke="none" stroke-width="1px">2.5M</text><text x="168.48307291666669" y="0" dx="0em" dy="0.95em" style="text-anchor: middle; visibility: inherit; font-family: Roboto, sans-serif; font-size: 12px; font-weight: 200;" fill="rgb(50, 49, 63)" stroke="none" stroke-width="1px">3M</text><text x="192.55208333333331" y="0" dx="0em" dy="0.95em" style="text-anchor: middle; visibility: hidden; font-family: Roboto, sans-serif; font-size: 12px; font-weight: 200;" fill="rgb(50, 49, 63)" stroke="none" stroke-width="1px">3.5M</text><text x="216.62109375" y="0" dx="0em" dy="0.95em" style="text-anchor: middle; visibility: inherit; font-family: Roboto, sans-serif; font-size: 12px; font-weight: 200;" fill="rgb(50, 49, 63)" stroke="none" stroke-width="1px">4M</text><text x="240.69010416666669" y="0" dx="0em" dy="0.95em" style="text-anchor: middle; visibility: hidden; font-family: Roboto, sans-serif; font-size: 12px; font-weight: 200;" fill="rgb(50, 49, 63)" stroke="none" stroke-width="1px">4.5M</text><text x="264.7591145833333" y="0" dx="0em" dy="0.95em" style="text-anchor: middle; visibility: inherit; font-family: Roboto, sans-serif; font-size: 12px; font-weight: 200;" fill="rgb(50, 49, 63)" stroke="none" stroke-width="1px">5M</text><text x="288.828125" y="0" dx="0em" dy="0.95em" style="text-anchor: middle; visibility: hidden; font-family: Roboto, sans-serif; font-size: 12px; font-weight: 200;" fill="rgb(50, 49, 63)" stroke="none" stroke-width="1px">5.5M</text></g><line x1="0" y1="0" x2="288.828125" y2="0" fill="rgb(0, 0, 0)" stroke="rgb(204, 204, 204)" stroke-width="1px"></line></g></g></g></g></svg>