<svg viewBox="0 0 330 200" xmlns="http://www.w3.org/2000/svg"><g><g><g><g><g><line x1="51.5625" y1="178" x2="46.5625" y2="178" style="visibility: inherit;" fill="rgb(0, 0, 0)" stroke="rgb(204, 204, 204)" stroke-width="1px"></line><line x1="51.5625" y1="160.20000000000002" x2="46.5625" y2="160.20000000000002" style="visibility: inherit;" fill="rgb(0, 0, 0)" stroke="rgb(204, 204, 204)" stroke-width="1px"></line><line x1="51.5625" y1="142.4" x2="46.5625" y2="142.4" style="visibility: inherit;" fill="rgb(0, 0, 0)" stroke="rgb(204, 204, 204)" stroke-width="1px"></line><line x1="51.5625" y1="124.6" x2="46.5625" y2="124.6" style="visibility: inherit;" fill="rgb(0, 0, 0)" stroke="rgb(204, 204, 204)" stroke-width="1px"></line><line x1="51.5625" y1="106.8" x2="46.5625" y2="106.8" style="visibility: inherit;" fill="rgb(0, 0, 0)" stroke="rgb(204, 204, 204)" stroke-width="1px"></line><line x1="51.5625" y1="89" x2="46.5625" y2="89" style="visibility: inherit;" fill="rgb(0, 0, 0)" stroke="rgb(204, 204, 204)" stroke-width="1px"></line><line x1="51.5625" y1="71.2" x2="46.5625" y2="71.2" style="visibility: inherit;" fill="rgb(0, 0, 0)" stroke="rgb(204, 204, 204)" stroke-width="1px"></line><line x1="51.5625" y1="53.400000000000006" x2="46.5625" y2="53.400000000000006" style="visibility: inherit;" fill="rgb(0, 0, 0)" stroke="rgb(204, 204, 204)" stroke-width="1px"></line><line x1="51.5625" y1="35.60000000000001" x2="46.5625" y2="35.60000000000001" style="visibility: inherit;" fill="rgb(0, 0, 0)" stroke="rgb(204, 204, 204)" stroke-width="1px"></line><line x1="51.5625" y1="17.799999999999997" x2="46.5625" y2="17.799999999999997" style="visibility: inherit;" fill="rgb(0, 0, 0)" stroke="rgb(204, 204, 204)" stroke-width="1px"></line><line x1="51.5625" y1="0" x2="46.5625" y2="0" style="visibility: inherit;" fill="rgb(0, 0, 0)" stroke="rgb(204, 204, 204)" stroke-width="1px"></line></g><g transform="translate(41.5625, 0)"><text x="0" y="178" dx="0em" dy="0.3em" style="text-anchor: end; visibility: hidden; font-family: Roboto, sans-serif; font-size: 12px; font-weight: 200;" fill="rgb(50, 49, 63)" stroke="none" stroke-width="1px">-0.1</text><text x="0" y="160.20000000000002" dx="0em" dy="0.3em" style="text-anchor: end; visibility: inherit; font-family: Roboto, sans-serif; font-size: 12px; font-weight: 200;" fill="rgb(50, 49, 63)" stroke="none" stroke-width="1px">0</text><text x="0" y="142.4" dx="0em" dy="0.3em" style="text-anchor: end; visibility: hidden; font-family: Roboto, sans-serif; font-size: 12px; font-weight: 200;" fill="rgb(50, 49, 63)" stroke="none" stroke-width="1px">0.1</text><text x="0" y="124.6" dx="0em" dy="0.3em" style="text-anchor: end; visibility: inherit; font-family: Roboto, sans-serif; font-size: 12px; font-weight: 200;" fill="rgb(50, 49, 63)" stroke="none" stroke-width="1px">0.2</text><text x="0" y="106.8" dx="0em" dy="0.3em" style="text-anchor: end; visibility: hidden; font-family: Roboto, sans-serif; font-size: 12px; font-weight: 200;" fill="rgb(50, 49, 63)" stroke="none" stroke-width="1px">0.3</text><text x="0" y="89" dx="0em" dy="0.3em" style="text-anchor: end; visibility: inherit; font-family: Roboto, sans-serif; font-size: 12px; font-weight: 200;" fill="rgb(50, 49, 63)" stroke="none" stroke-width="1px">0.4</text><text x="0" y="71.2" dx="0em" dy="0.3em" style="text-anchor: end; visibility: hidden; font-family: Roboto, sans-serif; font-size: 12px; font-weight: 200;" fill="rgb(50, 49, 63)" stroke="none" stroke-width="1px">0.5</text><text x="0" y="53.400000000000006" dx="0em" dy="0.3em" style="text-anchor: end; visibility: inherit; font-family: Roboto, sans-serif; font-size: 12px; font-weight: 200;" fill="rgb(50, 49, 63)" stroke="none" stroke-width="1px">0.6</text><text x="0" y="35.60000000000001" dx="0em" dy="0.3em" style="text-anchor: end; visibility: hidden; font-family: Roboto, sans-serif; font-size: 12px; font-weight: 200;" fill="rgb(50, 49, 63)" stroke="none" stroke-width="1px">0.7</text><text x="0" y="17.799999999999997" dx="0em" dy="0.3em" style="text-anchor: end; visibility: inherit; font-family: Roboto, sans-serif; font-size: 12px; font-weight: 200;" fill="rgb(50, 49, 63)" stroke="none" stroke-width="1px">0.8</text><text x="0" y="0" dx="0em" dy="0.3em" style="text-anchor: end; visibility: hidden; font-family: Roboto, sans-serif; font-size: 12px; font-weight: 200;" fill="rgb(50, 49, 63)" stroke="none" stroke-width="1px">0.9</text></g><line x1="51.5625" y1="0" x2="51.5625" y2="178" fill="rgb(0, 0, 0)" stroke="rgb(204, 204, 204)" stroke-width="1px"></line></g></g><g transform="translate(51, 0)" clip-path="url(#clip_0)"><clipPath id="clip_0"><rect width="278" height="178"></rect></clipPath><g><g><g><line x1="0" y1="0" x2="0" y2="178" fill="rgb(0, 0, 0)" stroke="rgb(60, 60, 60)" stroke-width="1px" opacity="0.25"></line><line x1="23.203125" y1="0" x2="23.203125" y2="178" fill="rgb(0, 0, 0)" stroke="rgb(60, 60, 60)" stroke-width="1px" opacity="0.25"></line><line x1="46.40625" y1="0" x2="46.40625" y2="178" fill="rgb(0, 0, 0)" stroke="rgb(60, 60, 60)" stroke-width="1px" opacity="0.25"></line><line x1="69.609375" y1="0" x2="69.609375" y2="178" fill="rgb(0, 0, 0)" stroke="rgb(60, 60, 60)" stroke-width="1px" opacity="0.25"></line><line x1="92.8125" y1="0" x2="92.8125" y2="178" fill="rgb(0, 0, 0)" stroke="rgb(60, 60, 60)" stroke-width="1px" opacity="0.25"></line><line x1="116.015625" y1="0" x2="116.015625" y2="178" fill="rgb(0, 0, 0)" stroke="rgb(60, 60, 60)" stroke-width="1px" opacity="0.25"></line><line x1="139.21875" y1="0" x2="139.21875" y2="178" fill="rgb(0, 0, 0)" stroke="rgb(60, 60, 60)" stroke-width="1px" opacity="0.25"></line><line x1="162.421875" y1="0" x2="162.421875" y2="178" fill="rgb(0, 0, 0)" stroke="rgb(60, 60, 60)" stroke-width="1px" opacity="0.25"></line><line x1="185.625" y1="0" x2="185.625" y2="178" fill="rgb(0, 0, 0)" stroke="rgb(60, 60, 60)" stroke-width="1px" opacity="0.25"></line><line x1="208.828125" y1="0" x2="208.828125" y2="178" fill="rgb(0, 0, 0)" stroke="rgb(60, 60, 60)" stroke-width="1px" opacity="0.25"></line><line x1="232.03125" y1="0" x2="232.03125" y2="178" fill="rgb(0, 0, 0)" stroke="rgb(60, 60, 60)" stroke-width="1px" opacity="0.25"></line><line x1="255.234375" y1="0" x2="255.234375" y2="178" fill="rgb(0, 0, 0)" stroke="rgb(60, 60, 60)" stroke-width="1px" opacity="0.25"></line><line x1="278.4375" y1="0" x2="278.4375" y2="178" fill="rgb(0, 0, 0)" stroke="rgb(60, 60, 60)" stroke-width="1px" opacity="0.25"></line></g><g><line x1="0" y1="178" x2="278.4375" y2="178" fill="rgb(0, 0, 0)" stroke="rgb(60, 60, 60)" stroke-width="1px" opacity="0.25"></line><line x1="0" y1="160.20000000000002" x2="278.4375" y2="160.20000000000002" fill="rgb(0, 0, 0)" stroke="rgb(60, 60, 60)" stroke-width="1px" opacity="0.25"></line><line x1="0" y1="142.4" x2="278.4375" y2="142.4" fill="rgb(0, 0, 0)" stroke="rgb(60, 60, 60)" stroke-width="1px" opacity="0.25"></line><line x1="0" y1="124.6" x2="278.4375" y2="124.6" fill="rgb(0, 0, 0)" stroke="rgb(60, 60, 60)" stroke-width="1px" opacity="0.25"></line><line x1="0" y1="106.8" x2="278.4375" y2="106.8" fill="rgb(0, 0, 0)" stroke="rgb(60, 60, 60)" stroke-width="1px" opacity="0.25"></line><line x1="0" y1="89" x2="278.4375" y2="89" fill="rgb(0, 0, 0)" stroke="rgb(60, 60, 60)" stroke-width="1px" opacity="0.25"></line><line x1="0" y1="71.2" x2="278.4375" y2="71.2" fill="rgb(0, 0, 0)" stroke="rgb(60, 60, 60)" stroke-width="1px" opacity="0.25"></line><line x1="0" y1="53.400000000000006" x2="278.4375" y2="53.400000000000006" fill="rgb(0, 0, 0)" stroke="rgb(60, 60, 60)" stroke-width="1px" opacity="0.25"></line><line x1="0" y1="35.60000000000001" x2="278.4375" y2="35.60000000000001" fill="rgb(0, 0, 0)" stroke="rgb(60, 60, 60)" stroke-width="1px" opacity="0.25"></line><line x1="0" y1="17.799999999999997" x2="278.4375" y2="17.799999999999997" fill="rgb(0, 0, 0)" stroke="rgb(60, 60, 60)" stroke-width="1px" opacity="0.25"></line><line x1="0" y1="0" x2="278.4375" y2="0" fill="rgb(0, 0, 0)" stroke="rgb(60, 60, 60)" stroke-width="1px" opacity="0.25"></line></g></g></g><g><g><line x1="0" y1="160.20000000000002" x2="278.4375" y2="160.20000000000002" fill="rgb(0, 0, 0)" stroke="rgb(153, 153, 153)" stroke-width="1.5px"></line></g></g><g><g><line x1="23.203125" y1="0" x2="23.203125" y2="178" fill="rgb(0, 0, 0)" stroke="rgb(153, 153, 153)" stroke-width="1.5px"></line></g></g><g><g><g><g><g><path stroke="rgb(238, 51, 119)" stroke-width="2px" d="M23.899775625,160.20000000000002L24.5042634375,160.20000000000002L24.783257812499997,159.10013506139782L25.5272428125,158.80414477858898L25.6202409375,158.64885923691347L25.759738125000002,158.5700647514975L25.852736250000003,158.52333783891402L26.131730625,158.51037533588666L26.271227812499998,158.50029340254358L26.968713750000003,158.49222786797952L27.1082109375,158.48562880525475L27.340706249999997,158.4801295964094L27.712698749999998,158.33772989882723L28.0381921875,158.21567327990564L28.410184687500003,157.99039157703848L28.549681875,157.68118384259435L28.5961809375,157.4083542169448L28.921674375,156.96637547137144L29.154169687499998,156.4763917959914L29.5261621875,155.67601405117978L30.13065,154.86625255907055L30.6421396875,154.04834644963066L30.874635,153.14507323637554L31.0141321875,152.24205290068718L31.432623749999998,151.41127751825613L31.479122812499998,150.6444111329217L31.9441134375,149.86756574474202L32.17660875,149.2750801211109L32.269606875,148.8479440571972L32.3161059375,148.4492856596328L32.5021021875,148.07634902521167L32.8740946875,147.6137388143733L33.2460871875,147.1791679060079L33.29258625,146.77016224400023L33.5250815625,146.12589601590284L34.03657125,145.5677409965796L34.315565625,145.08873918412735L34.5480609375,144.58723652033822L34.687558125,144.25099693086398L35.245546874999995,143.4324608274873L35.52454125,142.65385851027537L35.7570365625,141.91233756588954L36.08253,140.95168473745238L36.26852625,140.07603545305074L36.361524375,139.19887752204187L37.2450065625,137.80583946091744L37.477501874999994,136.3558387178804L37.5240009375,134.92830369233542L37.75649625,133.52184076665716L37.9889915625,132.20812697753493L38.0819896875,131.0175059870151L38.453982187499996,129.87268785182798L38.50048125,128.73661401465247L38.8259746875,127.50724861705149L39.0119709375,126.2561069234921L39.430462500000004,125.04965993150412L39.802455,124.01399900638928L40.54644,123.04563292025666L40.73243625,122.14115498538646L41.011430624999996,121.23628421499775L41.197426875,120.42121961673607L41.290425,119.66205003238109L43.243385624999995,118.6355968102009L43.2898846875,117.61253264037452L43.3828828125,116.56441670700423L43.6618771875,115.4366489732444L44.08036875,114.17783506198782L44.173366875,112.92899513856902L44.2198659375,111.71636722968874L44.359363125,110.56471576614277L44.638357500000005,109.4974350513307L45.0568490625,108.51103435098462L45.196346250000005,107.55166985032967L45.2428453125,106.64318846944086L45.7078359375,105.78356689186428L46.49832,105.04381978609403L46.591318125,104.34730275191464L47.242305,103.64494319344328L47.4748003125,102.89010756155906L47.5677984375,102.13101179688691L47.707295625,101.34493624726089L48.079288125,100.51024781004293L48.358282499999994,99.65100864929953L48.451280624999995,98.85640395455607L48.5907778125,98.10234000953153L48.8697721875,97.34423281383232L49.102267499999996,96.60356399540248L49.567258125,95.90085925936596L49.8462525,95.27663527923525L50.125246875,94.62494955966197L50.311243125000004,94.04895871799538L50.5902375,93.52598153527052L50.683235625,93.03429302115927L50.729734687500006,92.55307343014515L50.82273281249999,92.08199216451835L50.915730937499994,91.6012957807865L50.96223,91.13051820158037L51.1947253125,90.66935578988259L51.241224374999994,90.19864169831045L51.659715937499996,89.73734950632658L51.9387103125,89.30371927335284L52.0317084375,88.86025138527359L52.26420375,88.38904546018122L52.4966990625,87.87287240768136L52.5896971875,87.38438947280524L53.1476859375,86.88744182442935L53.473179374999994,86.38225848465325L53.5196784375,85.8690599935692L53.6126765625,85.38251532938219L53.7056746875,84.92190564806067L53.75217375,84.48653800956632L53.845171875,84.02536968679237L54.403160625,83.57237209794462L54.542657812499996,83.11081709770666L54.7286540625,82.673675332589L54.86815125,82.26032308470691L55.0076484375,81.83793113664784L55.193644687500004,81.42270647736278L55.24014375,80.99861027455208L55.426140000000004,80.58159061908317L55.6586353125,80.17147205917286L55.705134375,79.76808489555353L56.170125,79.3405197708061L56.356121249999994,78.93511553118708L56.4956184375,78.58163033145001L56.8676109375,78.15862017336646L57.0536071875,77.75719790968922L57.193104375,77.33243969378361L57.2396034375,76.91427580398805L57.2861025,76.50255406331839L57.6115959375,76.09712694141417L57.8905903125,75.69785137853006L57.9835884375,75.31887510202631L58.0300875,74.95975027518207L58.21608375,74.60595372322774L58.402080000000005,74.25736791047662L58.5415771875,73.91387873293927L58.58807625,73.58917795493532L58.634575312500004,73.25544653579877L58.8205715625,72.91287164965138L59.239063124999994,72.49399155041245L59.425059375,72.06758088571351L59.4715584375,71.64714396360336L59.5180575,71.23255633082958L59.611055625,70.83687818942482L59.657554687499996,70.45972706500574L59.9365490625,70.07470172287029L60.1225453125,69.70782169386058L60.169044375,69.33302273593883L60.2620425,68.96323028653794L60.355040625,68.58565030496689L60.4945378125,68.18781344954283L60.541036875,67.78264617417405L60.5875359375,67.38275101515134L60.634035000000004,66.97563474713193L60.7735321875,66.57374830687506L60.959528437500005,66.17699176104503L61.192023750000004,65.77309409030462L61.2385228125,65.37428740159363L61.285021875000005,64.9925093988372L61.564016249999995,64.63941259844579L62.3545003125,64.36206153011746L62.540496562499996,64.0999498958407L62.6334946875,63.85280433010461L62.865990000000004,63.6203580941424L63.9819675,63.40235087632886L64.074965625,63.1753923719306L64.3074609375,62.92813230083963L64.40045906249999,62.69524756456421L64.5864553125,62.453728576095386L64.6794534375,62.21504113753129L65.0514459375,62.001654190542084L65.3304403125,61.790740194028764L65.5164365625,61.571115942189245L65.84193,61.33184340213915L65.934928125,61.08427209655417L66.2139225,60.86144081434596L66.306920625,60.61929697438221L66.4464178125,60.39072146035997L66.492916875,60.16469242071552L66.585915,59.94116764845035L66.95790749999999,59.73079817810803L67.0044065625,59.5227341418603L67.14390374999999,59.29576523735405L67.4693971875,59.0817911784579L67.60889437499999,58.88060712980759L68.0273859375,58.650285845020214L68.2133821875,58.41204066694615L68.352879375,58.207317958720786L68.3993784375,58.015038516459825L68.81787,57.86571061934061L68.8643690625,57.71794292700777L69.0503653125,57.581848048779676L69.096864375,57.46733941013298L69.1433634375,57.364051436658876L69.1898625,57.261820745866956L69.37585875,57.17058145923723L69.42235781250001,57.08026674799304L69.561855,56.98100291897891L69.6083540625,56.882734988637445L69.9803465625,56.75613481276115L70.16634281249999,56.62106482323638L70.2593409375,56.48733007644501L70.3523390625,56.34526956461307L70.39883812500001,56.185401837861974L70.8173296875,56.0366486324176L70.95682687499999,55.90836856111897L71.328819375,55.74342933542966L71.42181749999999,55.58007414019543L71.60781374999999,55.41828034617475L71.6543128125,55.267378835198706L71.886808125,55.06202538044757L72.2123015625,54.840058903571695L72.72379124999999,54.647880658504654L72.816789375,54.45749691012666L73.09578375,54.2963587153391L73.23528093750001,54.11846969276734L73.3282790625,53.95130248253065L73.5142753125,53.767575367127364L73.70027156249999,53.56750618912257L73.79326968749999,53.36925486266977L74.025765,53.18173374112428L74.0722640625,52.99590130051659L74.118763125,52.82060058601532L74.490755625,52.62920356740651L74.76975,52.439507442574644L74.95574625,52.26025087199368L75.0022453125,52.09130036335092L75.048744375,51.923831769781145L75.46723593749999,51.76648511728353L75.69973125,51.61050675345984L76.35071812499999,51.447286016222215L76.44371625,51.31115323627974L77.37369749999999,51.21030011049593L77.42019656250001,51.11880472505155L77.6061928125,51.0534790821158L77.652691875,50.98870725835375L77.6991909375,50.92448227273148L78.53617406250001,50.87753606493544L78.768669375,50.839321463424895L79.09416281249999,50.80973348322703L79.140661875,50.7803912104342L79.41965625,50.71830172476386L79.512654375,50.656723663306195L79.74514968749999,50.60383875214819L79.8381478125,50.55138594148419L80.1171421875,50.49123049747657L80.9541253125,50.326254871901845L81.0471234375,50.170683042766434L81.1401215625,50.00027520251306L81.5121140625,49.82321694635378L81.65161124999999,49.66354588458539L82.02360374999999,49.52902235999578L82.1631009375,49.37969966913588L82.30259812499999,49.23155440778163L82.9070859375,49.068817595206575L83.232579375,48.915204803311404L83.51157375,48.786261377754435L83.69757,48.66611673901358L83.790568125,48.53913012381146L83.83706718750001,48.41312204589967L84.11606156250001,48.303519999533705L84.58105218749999,48.17936882147622L84.8135475,48.033159044636854L84.86004656249999,47.89570201811382L84.99954375,47.77452013832888L85.278538125,47.65425131906325L85.37153625,47.5348853392074L85.51103343749999,47.43904314738626L85.650530625,47.358953781780116L85.7900278125,47.286954201287884L85.836526875,47.215487256750926L86.67351000000001,47.15944182679195L87.3709959375,47.111231725742826L88.06848187499999,47.05597418460681L88.2079790625,46.9789886750169L88.25447812499999,46.9025625322197L88.34747625,46.81935884675426L88.3939753125,46.729447346874785L89.370455625,46.56004211145495L89.41695468750001,46.39185045397384L89.64945,46.21037808601553L89.7889471875,46.01575954385787L89.97494343749999,45.82971726489639L90.0679415625,45.644989286781765L90.2539378125,45.44725569251918L90.4399340625,45.25090938871589L90.62593031249999,45.05593592389584L91.788406875,44.92612134656725L91.8349059375,44.79720824922069L92.34639562499999,44.6903280335272L92.71838812499999,44.598237279417994L92.76488718750001,44.499774076708455L92.90438437499999,44.41595541958897L92.9973825,44.339673692934234L93.0438815625,44.270855470952206L93.462373125,44.20250404187878L93.7878665625,44.12771038548874L94.4853525,44.0534207091594L94.53185156250001,43.993359603236684L94.67134874999999,43.93370055596835L94.9968421875,43.90174296088453L95.5548309375,43.856384779605804L95.78732625,43.81811469718087L95.8338253125,43.78009749133152L95.92682343749999,43.72883180258597L96.252316875,43.69809461633265L96.57781031249999,43.66755858377486L96.62430937500001,43.63052833614213L97.0428009375,43.57371387587452L97.22879718749999,43.50395432752244L97.3217953125,43.43464554616688L97.5077915625,43.35916278459738L97.926283125,43.27095973134162L98.2517765625,43.18332128106015L98.29827562499999,43.08967516626243L98.53077093750001,42.98352618785936L98.9027634375,42.884582175138775L99.321255,42.76672050104798L99.36775406250001,42.656098806650746L99.5537503125,42.559132101251905L99.78624562499999,42.46277282519595L99.9257428125,42.367015336394246L100.01874093750001,42.25899591500932L100.158238125,42.15805934690297L100.29773531250001,42.05135176975172L100.4837315625,41.95168173580231L100.85572406249999,41.82717400312007L101.22771656249999,41.697083555045005L101.4137128125,41.567788618107905L101.55321,41.45822396407729L101.5997090625,41.34932534087222L101.8787034375,41.259932732112055L101.9252025,41.171080335706655L102.297195,41.076512920197004L102.48319125,41.001217855210136L102.5296903125,40.92637383290491L102.57618937500001,40.851976849663274L102.6691875,40.7718346293869L102.8086846875,40.69834136276585L103.13417812499999,40.625283277945385L103.1806771875,40.552656557260775L103.5526696875,40.498840586592564L103.59916874999999,40.44534055504943L104.0176603125,40.410447515791724L104.2036565625,40.36359180927593L104.29665468750001,40.304871835750205L104.436151875,40.25860054758089L104.6686471875,40.194478831467066L104.71514625,40.12470219170988L104.808144375,40.04931651483391L104.8546434375,39.968367130515944L104.90114249999999,39.89386334473043L105.13363781250001,39.82575299313616L105.7846246875,39.76398453434713L106.20311625000001,39.678805821440704L106.482110625,39.59410932010349L106.80760406249999,39.49215317906313L106.85410312500001,39.39077108126719L107.2725946875,39.295843555423154L107.598088125,39.20144760122491L108.0165796875,39.07828743327457L108.15607687500001,38.94412342492894L108.4815703125,38.8223677990335L108.5745684375,38.70128666421358L108.76056468750001,38.59248478432508L109.2255553125,38.48428242264531L109.272054375,38.37667469131628L109.41155156250001,38.269656755463906L109.644046875,38.16322383248158L109.830043125,38.06311156337651L110.4345309375,37.96354368113808L110.52752906250001,37.86451580686466L110.574028125,37.766023608486854L110.8530225,37.6851322646913L110.89952156250001,37.604676215924194L110.946020625,37.52465199792374L111.03901875,37.44505618308621L111.690005625,37.35460469037002L112.52698875,37.28714745561192L112.80598312500001,37.225664551964606L113.1314765625,37.181319173146825L113.4104709375,37.14839195051826L113.5964671875,37.10447842757976L113.6894653125,37.07193192925254L113.7824634375,37.033999909097844L114.0614578125,37.01844421813673L114.200955,37.01403527561041L114.29395312499999,37.01517041160728L114.4334503125,37.01079010580744L114.5729475,37.00093446076858L114.7124446875,36.98564313743676L115.13093624999999,36.94852995975874L115.223934375,36.922535235993216L115.78192312499999,36.86941109753698L115.82842218750001,36.811117424156905L115.87492125,36.75312124339352L116.525908125,36.67916322018617L116.711904375,36.60558078703858L116.897900625,36.5323711266387L117.08389687500001,36.443373327161204L117.1303959375,36.360199352001096L117.269893125,36.27744368636923L117.36289125,36.19510322356314L117.455889375,36.11851771936541L117.827881875,36.063643127855705L117.92088000000001,36.014363386539834L118.0603771875,35.965328533057274L118.19987437500001,35.91653677089541L118.33937156249999,35.86269635665965L118.4323696875,35.809121594068216L118.57186687500001,35.76634896832184L118.7113640625,35.72904527696831L119.4553490625,35.69192434723761L119.78084249999999,35.675938536102215L120.0133378125,35.66003067810912L120.059836875,35.644200212353425L120.1063359375,35.63365467627138L120.1993340625,35.62835831960687L120.24583312499999,35.623087551070284L120.33883125,35.61784218829275L120.43182937499999,35.61779038852925L120.617825625,35.617738837300685L120.803821875,35.607390010622375L121.0363171875,35.60736868110376L121.12931531250001,35.612476793567026L121.45480875,35.6226803270311L121.547806875,35.62261522116742L121.59430593750001,35.61744984688534L121.82680125,35.61230886443639L122.0127975,35.61227373054371L122.2452928125,35.60716654347899L122.33829093749999,35.60714616569423L122.38479,35.60712588327705L122.84978062500001,35.61214995286122L122.8962796875,35.617150614471306L123.0822759375,35.62715386204249L123.221773125,35.637110709043945L123.3612703125,35.642013892974994L123.407769375,35.64689443338712L123.5472665625,35.66173147295132L123.593765625,35.66653926548593L123.68676375000001,35.676296575518656L123.9192590625,35.681046541494716L123.96575812500001,35.685774810200655L124.2912515625,35.69542652958574L124.33775062500001,35.70997057688511L124.52374687499999,35.719521131585054L124.616745,35.72902843659105L124.70974312499999,35.72867251704467L124.89573937499999,35.72341669006765L125.36072999999999,35.7181845113265L125.453728125,35.71297582417513L125.54672624999999,35.70779047334759L125.59322531250001,35.69776085567483L125.7792215625,35.68291699062797L125.91871875,35.653587402638074L126.29071125,35.629230358737814L126.4767075,35.59531342714405L127.127694375,35.54224389573804L127.313690625,35.494226051974614L127.40668875,35.45603817810783L127.6391840625,35.41801818285893L127.685683125,35.37537205304084L127.77868125,35.323343022687595L127.871679375,35.266764560877725L127.91817843749999,35.21043276898001L128.0111765625,35.1495853508759L128.1041746875,35.084249367529054L128.15067375,35.01919648131624L128.47616718749998,34.95442488859735L128.615664375,34.89466188642286L128.8481596875,34.84932004035111L129.4061484375,34.79945958492662L129.5921446875,34.75451869937661L129.731641875,34.70977017407668L130.1966325,34.651141872762565L130.475626875,34.597446159051664L130.5221259375,34.54865392132448L130.6151240625,34.50006885255081L130.75462124999999,34.456349538892326L130.8941184375,34.412815113405756L130.9406175,34.369464427384145L130.9871165625,34.326296341613215L131.4521071875,34.26941984600156L131.49860625,34.21278197515261L131.5451053125,34.147150853770825L131.6381034375,34.08179400182331L132.1960921875,34.01670973616265L132.24259125,33.95189638738043L132.2890903125,33.88735229966731L132.335589375,33.8322334497668L132.707581875,33.80020075907841L133.1260734375,33.768300368698355L133.9165575,33.75020343700164L134.567544375,33.741281400089996L134.753540625,33.723309699171125L134.8000396875,33.70994776015733L134.8930378125,33.705698668372534L135.2650303125,33.69242270079488L135.3580284375,33.67468567364696L135.5440246875,33.657020782355715L136.0090153125,33.625923608900685L136.3810078125,33.59495242514727L136.427506875,33.56410648238266L136.9389965625,33.54234663480961L137.3109890625,33.529622466848025L137.5899834375,33.51248221253352L137.6364825,33.49095023274736L137.729480625,33.46059688972506L137.82247875,33.4348120354495L138.05497406249998,33.40024910862704L138.93845625,33.39242696672046L139.217450625,33.402344936875L139.2639496875,33.407802875358634L139.7289403125,33.41323919399146L139.82193843750002,33.41424641747394L139.961435625,33.406447431740965L140.0079346875,33.39428453554932L140.05443375,33.38216946409125L140.519424375,33.37448370831206L140.56592343749998,33.362452691246496L140.70542062500002,33.354837721631235L140.98441499999998,33.329801854508055L141.2169103125,33.29615083736911L141.30990843749998,33.26698075783357L141.4029065625,33.23792391897099L141.4959046875,33.20897967710293L141.91439625,33.158490887687655L142.1003925,33.095221724239984L142.28638875,33.03219640983616L142.37938687500002,32.96510079895046L142.5188840625,32.90687614243105L142.93737562500002,32.86177632731829L142.9838746875,32.82543800612595L143.16987093749998,32.78923849152363L143.4488653125,32.76602412435283L143.54186343749998,32.73862176608217L144.0998521875,32.71986425076266L144.14635125,32.70117788004773L144.1928503125,32.67830380619231L144.239349375,32.65551618537242L144.3788465625,32.63281453972676L144.56484281250002,32.618679907659086L144.8438371875,32.617303123104016L144.89033625000002,32.6201606002998L145.0298334375,32.62723063019291L145.4018259375,32.61740431398315L145.63432125,32.60340298331005L145.7738184375,32.58104192519091L145.913315625,32.55456383462066L145.9598146875,32.52818409204151L146.2388090625,32.49352444561668L146.3318071875,32.458993094103484L146.6108015625,32.424589343667385L146.75029875,32.39031250546481L146.8897959375,32.36032822299729L146.936295,32.334614947174L147.12229125000002,32.30484082497461L148.0057734375,32.26687648217833L148.1917696875,32.233195137953615L148.28476781249998,32.20377542156923L148.517263125,32.18272930246802L148.74975843750002,32.17001518867099L149.35424625,32.18620318184822L149.54024249999998,32.19409875557678L149.67973968750002,32.20196574000096L150.377225625,32.20569820923269L150.8887153125,32.21761864492448L150.93521437500002,32.23359151175485L151.0747115625,32.2454168676886L151.3537059375,32.23269119134708L151.679199375,32.220011136269L151.72569843749997,32.20737646387888L151.7721975,32.190717969730294L151.8186965625,32.17818264307879L151.865195625,32.1656919602041L151.9116946875,32.14919234315953L152.2836871875,32.14489582406999L153.353165625,32.144657555904644L153.39966468749998,32.140382240357496L153.44616375,32.13612202727271L153.77165718749998,32.12382148392421L154.28314687499997,32.103519055307096L154.376145,32.0832879967993L154.93413375,32.05109044154508L154.9806328125,32.0230131736611L155.12013000000002,31.987029216001886L155.213128125,31.951170942630235L155.2596271875,31.919430206815207L155.3526253125,31.891787516635606L156.2361075,31.864240914414943L156.46860281250002,31.832812238606436L156.6081,31.801492463915547L156.7475971875,31.770281040898055L157.16608875,31.755029491358925L157.21258781249998,31.735872381603944L157.4915821875,31.72073455183476L157.58458031249998,31.70564876196374L157.63107937499998,31.69455844521395L157.91007375,31.679567228857206L158.0495709375,31.660693172282173L158.3285653125,31.634024813223366L158.4215634375,31.607447417743877L158.51456156249998,31.580960534466218L158.65405875000002,31.558478948178955L159.0725503125,31.536073687862615L159.305045625,31.51765022059935L159.39804374999997,31.50319029328643L159.4445428125,31.49267577221537L159.491041875,31.48219672848918L160.0025315625,31.46786568663352L160.4675221875,31.457465555980047L160.8395146875,31.454856602614896L161.62999875,31.467750652309515L161.95549218750003,31.480601527852198L162.00199125,31.48954496752448L162.1414884375,31.494598600632543L162.6064790625,31.480358134090086L162.8854734375,31.466165061044137L163.07146968749998,31.45201915236153L163.303965,31.43023613900838L163.396963125,31.400850120680524L163.48996125,31.36389502475714L163.582959375,31.323233267200255L163.6759575,31.282705618199316L163.86195375,31.238491496534156L163.9084528125,31.19442276424977L164.04795,31.146687496785987L164.326944375,31.099108730297374L164.4199425,31.047883186292424L164.5594396875,30.996825088334266L164.93143218749998,30.953521497570815L165.02443031250002,30.906569388110935L165.070929375,30.85977007676572L165.1174284375,30.81312284217039L165.4894209375,30.766626967489174L166.18690687499998,30.724054379909237L166.279905,30.689156323499766L166.372903125,30.65437100703731L166.46590125,30.61969790241055L166.55889937499998,30.588892309223432L166.9773909375,30.565689121077398L167.1633871875,30.546307988143024L167.767875,30.523245619682996L167.95387125000002,30.50399637772222L168.8373534375,30.481073534812204L169.534839375,30.447030778701325L169.5813384375,30.40936962191521L169.8603328125,30.37182838232402L169.906831875,30.330687685658482L169.99983,30.300821935260625L170.13932718750002,30.267340131600704L170.37182249999998,30.233964329402074L170.51131968750002,30.20069404269396L170.55781875,30.171227506128908L170.650816875,30.14554859687071L171.394801875,30.149476665695065L171.72029531249999,30.15707921557206L171.9062915625,30.172023624016994L172.231785,30.18692118622476L172.2782840625,30.201772114702678L172.60377749999998,30.212905520459824L172.7432746875,30.216669742990973L173.85925218749998,30.194778968942146L173.99874937500002,30.16563743993163L174.32424281250002,30.129275319331548L174.46374,30.08937433109006L174.5102390625,30.04594910245282L174.60323718749999,29.995370136428082L174.64973625,29.94494752208883L174.9752296875,29.89831702863448L175.0682278125,29.851830283365413L175.5797175,29.8054866457634L175.8122128125,29.76291061575195L176.230704375,29.7349508470618L176.3237025,29.707076797478486L176.41670062499998,29.675674177901378L176.602696875,29.6479777593746L176.7421940625,29.62397238682819L177.346681875,29.607245800193812L177.3931809375,29.59416924451365L177.43968,29.581132452388868L177.71867437499998,29.568135249218884L178.09066687499998,29.562353680207192L178.36966125,29.55300515242934L178.41616031249998,29.543684898622306L178.462659375,29.534392795354428L178.648655625,29.53227594181457L178.8811509375,29.51945542389246L179.206644375,29.49954059750721L179.578636875,29.472559896621963L179.764633125,29.452778716142657L179.950629375,29.433056804175276L180.0436275,29.41339390457373L180.322621875,29.400887094490706L180.4621190625,29.38132732166126L180.5551171875,29.358284222929687L180.64811531249998,29.335309709844655L180.74111343750002,29.30886886013248L180.880610625,29.278975354776648L181.1131059375,29.2597535036827L181.67109468750002,29.2370643478107L181.90358999999998,29.221483835339406L182.1360853125,29.212983985873826L182.97306843750002,29.2150508948421L183.1590646875,29.227643169183963L183.29856187500002,29.240198403341818L183.53105718749998,29.25622042265745L183.8100515625,29.27219543547043L183.856550625,29.28812364038371L184.042546875,29.310992294131267L184.135545,29.330303944354217L184.414539375,29.360019708931535L184.46103843749998,29.393132332014908L184.7400328125,29.42962870524617L185.06552625,29.4625421369796L185.344520625,29.49883351205746L185.4840178125,29.535019639517905L185.76301218749998,29.55029939883004L186.274501875,29.57246223993631L186.3675,29.587640317372223L186.6929934375,29.599317497012922L186.832490625,29.607507177033764L186.9719878125,29.615673286931187L187.06498593749998,29.627263293682226L187.29748125,29.631931721297097L188.04146625,29.622823058839998L188.134464375,29.617178197904614L188.1809634375,29.60811496105228L188.36695968749999,29.595646281602377L188.41345875000002,29.586641322723825L188.599455,29.574237042122267L188.692453125,29.55844624337816L188.9714475,29.549537650558946L189.0179465625,29.533823307605562L189.34344000000002,29.518153515764716L189.90142875,29.499118816310055L190.1339240625,29.473325669093366L190.27342125,29.444202345357525L190.6919128125,29.42196104097522L190.738411875,29.399782403378076L191.01740625000002,29.381059935420694L191.0639053125,29.362390090044507L191.7148921875,29.336997421244188L191.90088843750002,29.308291387871584L191.9938865625,29.283047253467387L192.0868846875,29.254495253201625L192.22638187500002,29.222647572892505L192.3658790625,29.19426117003736L192.784370625,29.176062084403227L193.06336499999998,29.16801286728223L193.156363125,29.159986026948935L193.6678528125,29.14862106315538L193.714351875,29.137287617634676L193.99334625,29.139403394623184L194.31883968749997,29.154919309615952L195.4348171875,29.17374088628311L195.574314375,29.189164927472053L195.7138115625,29.191175836038113L195.8068096875,29.196520924346842L196.78329,29.191840935215065L196.9227871875,29.18717380110764L197.1087834375,29.17918850243948L197.1552825,29.16456894738092L197.2017815625,29.14998940643515L197.4807759375,29.148738895742436L197.62027312499998,29.14749179963344L197.71327125,29.146248104763295L198.1317628125,29.14500779785645L198.31775906250002,29.140460030082142L198.45725625,29.13261663112484L198.68975156250002,29.12809967666446L199.06174406250003,29.113687997395477L199.2477403125,29.109213853505484L199.3407384375,29.10145512434398L199.4337365625,29.093717358065934L200.038224375,29.07283612548067L200.1312225,29.052011179517162L200.2707196875,29.031242303276606L200.8287084375,29.023660221082693L201.0147046875,29.019378466939635L201.24720000000002,29.01183100166853L201.340198125,29.0043037635734L201.80518875,29.009883468824366L201.898186875,29.012179295996145L201.991185,29.021001464481724L202.5956728125,29.026536576846034L202.87466718750002,29.041839312144766L203.3396578125,29.05384324401939L203.572153125,29.052793761025075L203.8976465625,29.061505108074865L204.03714374999998,29.07019334828111L204.130141875,29.0756112458024L205.06012312500002,29.058302380365134L205.1066221875,29.04103927055492L205.15312125,29.023821743786208L205.3856165625,29.009886295336305L205.4786146875,28.995987560248057L205.7576090625,28.978894019671767L205.9436053125,28.961845411237235L206.31559781250002,28.951293792338124L206.36209687500002,28.943993331730052L206.59459218749998,28.927049359913774L206.64109125,28.910149727812396L206.8270875,28.896509958276006L207.3385771875,28.895758112475715L207.61757156250002,28.90142921311057L207.8965659375,28.92312513215279L208.036063125,28.947969934995317L208.54755281250002,28.953533463840664L208.7335490625,28.955882325901626L208.91954531250002,28.95822509574802L209.0125434375,28.960561795883134L209.24503875,28.962892448699833L209.431035,28.968407131408505L209.6635303125,28.970720043741586L209.896025625,28.96665696736246L210.08202187499998,28.972151857858446L210.1285209375,28.97763260551011L210.22151906250002,28.979921767581075L210.640010625,28.956805017236793L210.6865096875,28.933747570849405L211.197999375,28.920259337423968L211.2909975,28.90680563174515L211.33749656249998,28.893386328111866L211.66299,28.867350748098197L211.755988125,28.84138159897005L211.8024871875,28.81863637020965L211.84898625000002,28.79910434005858L211.8954853125,28.776469133597974L212.0814815625,28.747590588720808L212.1744796875,28.71563733448508L213.1974590625,28.68376508597607L213.33695625,28.65197355143493L213.98794312500002,28.613980892580265L214.2204384375,28.57922260734672L214.26693749999998,28.544552063503183L214.359935625,28.509968946523152L214.731928125,28.47860416606845L214.96442343750002,28.444189461243198L215.28991687500002,28.419240660453337L216.59189062500002,28.388106312430793L216.9173840625,28.350806562376793L217.42887375,28.316719661784184L217.6613690625,28.288952185986588L218.079860625,28.258139437653146L218.12635968749998,28.230516022424595L218.5913503125,28.20918161495473L218.63784937499997,28.18479266591924L218.6843484375,28.16046444451799L218.77734656250001,28.139299828452952L218.8703446875,28.12438937623614L218.9633428125,28.10951593462631L219.00984187499998,28.09777558655535L219.05634093749998,28.08606431982136L219.14933906250002,28.077473657198457L219.9863221875,28.07508292680091L220.2188175,28.069611022406868L220.45131281250002,28.06106780384874L220.59081,28.05562819087462L220.7303071875,28.05328226747446L220.9628025,28.04170796290075L221.4742921875,28.03323789995428L221.89278375,28.018641466576923L222.0322809375,28.00408081884573L222.07878000000002,27.98955583258072L222.49727156249998,27.978133292354897L222.7762659375,27.957544629937733L223.473751875,27.94006870271367L223.5202509375,27.91957514398378L223.7992453125,27.8960734632369L223.9852415625,27.866517261254312L224.12473874999998,27.837032934541774L224.403733125,27.804568724639005L224.49673124999998,27.772183302569253L224.9152228125,27.74597070017171L225.1012190625,27.735046475462372L225.3802134375,27.721105852970517L225.61270875,27.716320909831495L225.891703125,27.705470515616366L226.077699375,27.69768265230223L226.31019468750003,27.686879342866796L226.635688125,27.6791341207321L226.82168437500002,27.67746742019612L227.2401759375,27.681860365191042L227.379673125,27.68321706616644L227.937661875,27.6543346623545L228.2631553125,27.628542922047583L228.4026525,27.60281290774233L228.49565062500002,27.577144410946975L228.5421496875,27.551537224104123L228.7281459375,27.52900421960936L228.774645,27.50652493005446L228.8211440625,27.48409917480759L229.37913281250002,27.464733610422165L229.65812718749999,27.436399778581606L229.70462625,27.408133225715773L229.797624375,27.382934364716544L230.0301196875,27.360793803889038L230.07661875,27.341702192945952L230.2161159375,27.325650222777845L230.4951103125,27.31562108519896L230.68110656250002,27.302625200251786L231.0066,27.292648355800495L231.471590625,27.276722308655398L231.750585,27.263818072331084L231.93658125000002,27.244979570484347L232.0760784375,27.22618532633217L232.4480709375,27.20445690938319L232.5410690625,27.179803161003807L233.14555687499998,27.152232884067857L233.331553125,27.12472713046675L233.3780521875,27.100255985392444L234.261534375,27.07287368856669L234.3080334375,27.03962260920134L234.447530625,27.012377782896202L234.77302406249999,26.988158800714125L234.86602218750002,26.961035756425375L235.2380146875,26.936934224402442L235.3310128125,26.90993217007462L235.377511875,26.882992770760545L235.9819996875,26.85611582207412L236.0749978125,26.83225177551362L236.121496875,26.808442946159634L236.5399884375,26.784689154464292L236.679485625,26.760990221653934L236.77248375,26.73440304504719L237.1909753125,26.701995131985136L237.33047249999998,26.66966185431548L237.42347062500002,26.637402970633964L237.51646875,26.605218240571585L238.0744575,26.58190752694395L238.8649415625,26.561581760171666L239.097436875,26.53251386769459L239.5624275,26.512295591802573L239.84142187499998,26.49504936614583L240.1669153125,26.47199474896734L240.4459096875,26.45191481431078L240.5389078125,26.43188069641793L240.7249040625,26.408973961659363L241.0503975,26.371537270229275L241.0968965625,26.33418576333322L241.14339562499998,26.29691916918523L241.60838625,26.268469774117456L242.35237125,26.23426692751084L242.5848665625,26.20014162249221L242.817361875,26.160282971679635L243.0498571875,26.1234180050071L243.09635625,26.083734733561467L243.189354375,26.044141101248623L243.32885156249998,26.004636824436794L243.7938421875,25.968117804583464L243.9798384375,25.93457542113494L244.0263375,25.89821597329241L244.305331875,25.86482903680404L244.491328125,25.82573921170302L244.5378271875,25.786737128178075L244.9098196875,25.74782251059634L245.00281781249998,25.708995084472495L245.049316875,25.673136354221846L245.09581593750002,25.64023781968192L245.1888140625,25.61029101571368L245.32831124999998,25.580411070281862L245.3748103125,25.5505977746408L245.421309375,25.520850920908543L245.4678084375,25.49117030206231L245.6538046875,25.46155571193403L245.7468028125,25.434874572583922L245.88629999999998,25.41111857735272L245.93279906249998,25.387415290384702L245.979298125,25.363764548279843L246.02579718750002,25.343026834426553L246.1187953125,25.3194760999566L246.25829249999998,25.29312023866019L246.3047915625,25.266822596917024L246.5837859375,25.237729268703177L246.8627803125,25.202996082267223L246.95577843750002,25.17403999814312L247.095275625,25.14229907699812L247.65326437500002,25.11347483224348L248.025256875,25.08186876396029L248.07175593749997,25.05033208682644L248.118255,25.01886458830231L248.397249375,24.987466056710574L248.7227428125,24.950459524280205L248.95523812500002,24.916370649914672L249.2807315625,24.888026311391933L249.4667278125,24.862577209536642L249.699223125,24.82868868199485L249.88521937500002,24.792044061443537L250.16421375,24.75830758364427L250.25721187500002,24.727471185420764L250.3967090625,24.70235182336226L250.7222025,24.674463712332816L251.00119687499998,24.652279515922714L251.14069406250002,24.632963466381895L251.2336921875,24.610870901472488L251.28019125,24.5888261770826L251.51268656250002,24.56682914898297" style="fill: none;" fill="none"></path></g></g></g></g><g opacity="0.2"><g><g><g><path stroke="rgb(238, 51, 119)" stroke-width="2px" d="M23.899775625,160.20000000000002L24.5042634375,160.20000000000002L24.783257812499997,156.9037036791444L25.5272428125,157.91794868819417L25.6202409375,158.029268373549L25.759738125000002,158.17727266699077L25.852736250000003,158.24395599476995L26.131730625,158.42000003978612L26.271227812499998,158.42000003978612L26.968713750000003,158.42000003978612L27.1082109375,158.42000003978612L27.340706249999997,158.42000003978612L27.712698749999998,156.64000007957222L28.0381921875,156.64000007957222L28.410184687500003,154.86000011935832L28.549681875,153.08000015914442L28.5961809375,153.08000015914442L28.921674375,149.52000023871662L29.154169687499998,147.73999994695188L29.5261621875,140.62000010609628L30.13065,138.84000047743322L30.6421396875,137.06000084877016L30.874635,133.49999893903734L31.0141321875,131.72000063657762L31.432623749999998,131.72000063657762L31.479122812499998,131.72000063657762L31.9441134375,129.9399996817112L32.17660875,133.49999893903734L32.269606875,137.06000084877016L32.3161059375,137.06000084877016L32.5021021875,137.06000084877016L32.8740946875,133.49999893903734L33.2460871875,133.49999893903734L33.29258625,133.49999893903734L33.5250815625,124.59999946951866L34.03657125,126.38000042438507L34.315565625,128.1599987268448L34.5480609375,126.38000042438507L34.687558125,131.72000063657762L35.245546874999995,112.13999809026718L35.52454125,112.13999809026718L35.7570365625,112.13999809026718L36.08253,101.45999766588211L36.26852625,103.24000127315522L36.361524375,101.45999766588211L37.2450065625,76.54000021219254L37.477501874999994,71.2L37.5240009375,69.42000169754029L37.75649625,67.64000339508057L37.9889915625,69.42000169754029L38.0819896875,72.97999830245972L38.453982187499996,72.97999830245972L38.50048125,71.2L38.8259746875,64.07999618053437L39.0119709375,60.51999957561493L39.430462500000004,60.51999957561493L39.802455,67.64000339508057L40.54644,69.42000169754029L40.73243625,71.2L41.011430624999996,69.42000169754029L41.197426875,72.97999830245972L41.290425,74.76000190973282L43.243385624999995,56.9600029706955L43.2898846875,55.18000466823578L43.3828828125,51.61999745368958L43.6618771875,44.50000424385071L44.08036875,33.82000381946564L44.173366875,32.03999490737915L44.2198659375,32.03999490737915L44.359363125,33.82000381946564L44.638357500000005,37.380000424385074L45.0568490625,40.93999702930451L45.196346250000005,40.93999702930451L45.2428453125,42.719995331764224L45.7078359375,44.50000424385071L46.49832,51.61999745368958L46.591318125,53.399995756149295L47.242305,51.61999745368958L47.4748003125,46.28000254631043L47.5677984375,44.50000424385071L47.707295625,40.93999702930451L48.079288125,35.60000212192536L48.358282499999994,32.03999490737915L48.451280624999995,35.60000212192536L48.5907778125,37.380000424385074L48.8697721875,35.60000212192536L49.102267499999996,35.60000212192536L49.567258125,37.380000424385074L49.8462525,42.719995331764224L50.125246875,39.15999872684479L50.311243125000004,44.50000424385071L50.5902375,48.060000848770144L50.683235625,49.83999915122986L50.729734687500006,49.83999915122986L50.82273281249999,49.83999915122986L50.915730937499994,48.060000848770144L50.96223,48.060000848770144L51.1947253125,48.060000848770144L51.241224374999994,46.28000254631043L51.659715937499996,46.28000254631043L51.9387103125,48.060000848770144L52.0317084375,46.28000254631043L52.26420375,42.719995331764224L52.4966990625,37.380000424385074L52.5896971875,39.15999872684479L53.1476859375,37.380000424385074L53.473179374999994,35.60000212192536L53.5196784375,33.82000381946564L53.6126765625,35.60000212192536L53.7056746875,37.380000424385074L53.75217375,39.15999872684479L53.845171875,35.60000212192536L54.403160625,35.60000212192536L54.542657812499996,33.82000381946564L54.7286540625,35.60000212192536L54.86815125,37.380000424385074L55.0076484375,35.60000212192536L55.193644687500004,35.60000212192536L55.24014375,33.82000381946564L55.426140000000004,33.82000381946564L55.6586353125,33.82000381946564L55.705134375,33.82000381946564L56.170125,30.259996604919436L56.356121249999994,32.03999490737915L56.4956184375,37.380000424385074L56.8676109375,28.47999830245972L57.0536071875,30.259996604919436L57.193104375,26.700000000000003L57.2396034375,26.700000000000003L57.2861025,26.700000000000003L57.6115959375,26.700000000000003L57.8905903125,26.700000000000003L57.9835884375,28.47999830245972L58.0300875,30.259996604919436L58.21608375,30.259996604919436L58.402080000000005,30.259996604919436L58.5415771875,30.259996604919436L58.58807625,32.03999490737915L58.634575312500004,30.259996604919436L58.8205715625,28.47999830245972L59.239063124999994,17.79999787807465L59.425059375,16.019999575614932L59.4715584375,16.019999575614932L59.5180575,16.019999575614932L59.611055625,17.79999787807465L59.657554687499996,19.579996180534366L59.9365490625,17.79999787807465L60.1225453125,19.579996180534366L60.169044375,17.79999787807465L60.2620425,17.79999787807465L60.355040625,16.019999575614932L60.4945378125,12.4600029706955L60.541036875,10.680004668235783L60.5875359375,10.680004668235783L60.634035000000004,8.899995756149297L60.7735321875,8.899995756149297L60.959528437500005,8.899995756149297L61.192023750000004,7.119997453689579L61.2385228125,7.119997453689579L61.285021875000005,8.899995756149297L61.564016249999995,12.4600029706955L62.3545003125,23.14000339508057L62.540496562499996,24.920001697540286L62.6334946875,26.700000000000003L62.865990000000004,28.47999830245972L63.9819675,30.259996604919436L64.074965625,28.47999830245972L64.3074609375,24.920001697540286L64.40045906249999,26.700000000000003L64.5864553125,24.920001697540286L64.6794534375,24.920001697540286L65.0514459375,28.47999830245972L65.3304403125,28.47999830245972L65.5164365625,26.700000000000003L65.84193,23.14000339508057L65.934928125,21.360005092620852L66.2139225,24.920001697540286L66.306920625,21.360005092620852L66.4464178125,23.14000339508057L66.492916875,23.14000339508057L66.585915,23.14000339508057L66.95790749999999,24.920001697540286L67.0044065625,24.920001697540286L67.14390374999999,21.360005092620852L67.4693971875,23.14000339508057L67.60889437499999,24.920001697540286L68.0273859375,19.579996180534366L68.2133821875,17.79999787807465L68.352879375,23.14000339508057L68.3993784375,24.920001697540286L68.81787,32.03999490737915L68.8643690625,32.03999490737915L69.0503653125,33.82000381946564L69.096864375,37.380000424385074L69.1433634375,39.15999872684479L69.1898625,39.15999872684479L69.37585875,40.93999702930451L69.42235781250001,40.93999702930451L69.561855,39.15999872684479L69.6083540625,39.15999872684479L69.9803465625,33.82000381946564L70.16634281249999,32.03999490737915L70.2593409375,32.03999490737915L70.3523390625,30.259996604919436L70.39883812500001,26.700000000000003L70.8173296875,28.47999830245972L70.95682687499999,32.03999490737915L71.328819375,24.920001697540286L71.42181749999999,24.920001697540286L71.60781374999999,24.920001697540286L71.6543128125,26.700000000000003L71.886808125,16.019999575614932L72.2123015625,12.4600029706955L72.72379124999999,17.79999787807465L72.816789375,17.79999787807465L73.09578375,23.14000339508057L73.23528093750001,19.579996180534366L73.3282790625,21.360005092620852L73.5142753125,17.79999787807465L73.70027156249999,14.240001273155217L73.79326968749999,14.240001273155217L74.025765,16.019999575614932L74.0722640625,16.019999575614932L74.118763125,17.79999787807465L74.490755625,14.240001273155217L74.76975,14.240001273155217L74.95574625,16.019999575614932L75.0022453125,17.79999787807465L75.048744375,17.79999787807465L75.46723593749999,19.579996180534366L75.69973125,19.579996180534366L76.35071812499999,17.79999787807465L76.44371625,23.14000339508057L77.37369749999999,30.259996604919436L77.42019656250001,32.03999490737915L77.6061928125,37.380000424385074L77.652691875,37.380000424385074L77.6991909375,37.380000424385074L78.53617406250001,40.93999702930451L78.768669375,42.719995331764224L79.09416281249999,44.50000424385071L79.140661875,44.50000424385071L79.41965625,37.380000424385074L79.512654375,37.380000424385074L79.74514968749999,39.15999872684479L79.8381478125,39.15999872684479L80.1171421875,37.380000424385074L80.9541253125,14.240001273155217L81.0471234375,16.019999575614932L81.1401215625,12.4600029706955L81.5121140625,10.680004668235783L81.65161124999999,14.240001273155217L82.02360374999999,19.579996180534366L82.1631009375,16.019999575614932L82.30259812499999,16.019999575614932L82.9070859375,12.4600029706955L83.232579375,14.240001273155217L83.51157375,19.579996180534366L83.69757,21.360005092620852L83.790568125,19.579996180534366L83.83706718750001,19.579996180534366L84.11606156250001,23.14000339508057L84.58105218749999,19.579996180534366L84.8135475,14.240001273155217L84.86004656249999,16.019999575614932L84.99954375,19.579996180534366L85.278538125,19.579996180534366L85.37153625,19.579996180534366L85.51103343749999,24.920001697540286L85.650530625,28.47999830245972L85.7900278125,30.259996604919436L85.836526875,30.259996604919436L86.67351000000001,33.82000381946564L87.3709959375,35.60000212192536L88.06848187499999,33.82000381946564L88.2079790625,28.47999830245972L88.25447812499999,28.47999830245972L88.34747625,26.700000000000003L88.3939753125,24.920001697540286L89.370455625,5.339999151229862L89.41695468750001,5.339999151229862L89.64945,1.7800025463104288L89.7889471875,-1.7800046682357946L89.97494343749999,0.0000042438507119602065L90.0679415625,0.0000042438507119602065L90.2539378125,-3.5600029706955114L90.62593031249999,-3.5600029706955114L91.788406875,12.4600029706955L91.8349059375,12.4600029706955L92.34639562499999,17.79999787807465L92.71838812499999,21.360005092620852L92.76488718750001,19.579996180534366L92.90438437499999,23.14000339508057L92.9973825,24.920001697540286L93.0438815625,26.700000000000003L93.462373125,26.700000000000003L93.7878665625,24.920001697540286L94.4853525,24.920001697540286L94.53185156250001,28.47999830245972L94.67134874999999,28.47999830245972L94.9968421875,35.60000212192536L95.5548309375,32.03999490737915L95.78732625,33.82000381946564L95.8338253125,33.82000381946564L95.92682343749999,30.259996604919436L96.252316875,35.60000212192536L96.57781031249999,35.60000212192536L96.62430937500001,33.82000381946564L97.0428009375,28.47999830245972L97.22879718749999,24.920001697540286L97.3217953125,24.920001697540286L97.5077915625,23.14000339508057L97.926283125,19.579996180534366L98.2517765625,19.579996180534366L98.29827562499999,17.79999787807465L98.53077093750001,14.240001273155217L98.9027634375,16.019999575614932L99.321255,10.680004668235783L99.36775406250001,12.4600029706955L99.5537503125,16.019999575614932L99.78624562499999,16.019999575614932L99.9257428125,16.019999575614932L100.01874093750001,12.4600029706955L100.158238125,14.240001273155217L100.29773531250001,12.4600029706955L100.4837315625,14.240001273155217L100.85572406249999,7.119997453689579L101.22771656249999,5.339999151229862L101.4137128125,5.339999151229862L101.55321,10.680004668235783L101.5997090625,10.680004668235783L101.8787034375,16.019999575614932L101.9252025,16.019999575614932L102.297195,14.240001273155217L102.48319125,19.579996180534366L102.5296903125,19.579996180534366L102.57618937500001,19.579996180534366L102.6691875,17.79999787807465L102.8086846875,19.579996180534366L103.13417812499999,19.579996180534366L103.1806771875,19.579996180534366L103.5526696875,24.920001697540286L103.59916874999999,24.920001697540286L104.0176603125,30.259996604919436L104.2036565625,26.700000000000003L104.29665468750001,23.14000339508057L104.436151875,26.700000000000003L104.6686471875,21.360005092620852L104.71514625,19.579996180534366L104.808144375,17.79999787807465L104.8546434375,16.019999575614932L104.90114249999999,17.79999787807465L105.13363781250001,19.579996180534366L105.7846246875,21.360005092620852L106.20311625000001,14.240001273155217L106.482110625,14.240001273155217L106.80760406249999,8.899995756149297L106.85410312500001,8.899995756149297L107.2725946875,10.680004668235783L107.598088125,10.680004668235783L108.0165796875,1.7800025463104288L108.15607687500001,-1.7800046682357946L108.4815703125,1.7800025463104288L108.5745684375,1.7800025463104288L108.76056468750001,5.339999151229862L109.2255553125,5.339999151229862L109.272054375,5.339999151229862L109.41155156250001,5.339999151229862L109.644046875,5.339999151229862L109.830043125,7.119997453689579L110.4345309375,7.119997453689579L110.52752906250001,7.119997453689579L110.574028125,7.119997453689579L110.8530225,12.4600029706955L110.89952156250001,12.4600029706955L110.946020625,12.4600029706955L111.03901875,12.4600029706955L111.690005625,8.899995756149297L112.52698875,16.019999575614932L112.80598312500001,17.79999787807465L113.1314765625,23.14000339508057L113.4104709375,26.700000000000003L113.5964671875,23.14000339508057L113.6894653125,26.700000000000003L113.7824634375,24.920001697540286L114.0614578125,32.03999490737915L114.200955,35.60000212192536L114.29395312499999,37.380000424385074L114.4334503125,35.60000212192536L114.5729475,33.82000381946564L114.7124446875,32.03999490737915L115.13093624999999,24.920001697540286L115.223934375,28.47999830245972L115.78192312499999,19.579996180534366L115.82842218750001,17.79999787807465L115.87492125,17.79999787807465L116.525908125,12.4600029706955L116.711904375,12.4600029706955L116.897900625,12.4600029706955L117.08389687500001,7.119997453689579L117.1303959375,8.899995756149297L117.269893125,8.899995756149297L117.36289125,8.899995756149297L117.455889375,10.680004668235783L117.827881875,17.79999787807465L117.92088000000001,19.579996180534366L118.0603771875,19.579996180534366L118.19987437500001,19.579996180534366L118.33937156249999,17.79999787807465L118.4323696875,17.79999787807465L118.57186687500001,21.360005092620852L118.7113640625,23.14000339508057L119.4553490625,23.14000339508057L119.78084249999999,30.259996604919436L120.0133378125,30.259996604919436L120.059836875,30.259996604919436L120.1063359375,32.03999490737915L120.1993340625,33.82000381946564L120.24583312499999,33.82000381946564L120.33883125,33.82000381946564L120.43182937499999,35.60000212192536L120.617825625,35.60000212192536L120.803821875,32.03999490737915L121.0363171875,35.60000212192536L121.12931531250001,37.380000424385074L121.45480875,39.15999872684479L121.547806875,35.60000212192536L121.59430593750001,33.82000381946564L121.82680125,33.82000381946564L122.0127975,35.60000212192536L122.2452928125,33.82000381946564L122.33829093749999,35.60000212192536L122.38479,35.60000212192536L122.84978062500001,37.380000424385074L122.8962796875,37.380000424385074L123.0822759375,39.15999872684479L123.221773125,39.15999872684479L123.3612703125,37.380000424385074L123.407769375,37.380000424385074L123.5472665625,40.93999702930451L123.593765625,37.380000424385074L123.68676375000001,39.15999872684479L123.9192590625,37.380000424385074L123.96575812500001,37.380000424385074L124.2912515625,39.15999872684479L124.33775062500001,40.93999702930451L124.52374687499999,39.15999872684479L124.616745,39.15999872684479L124.70974312499999,35.60000212192536L124.89573937499999,33.82000381946564L125.36072999999999,33.82000381946564L125.453728125,33.82000381946564L125.54672624999999,33.82000381946564L125.59322531250001,32.03999490737915L125.7792215625,30.259996604919436L125.91871875,24.920001697540286L126.29071125,26.700000000000003L126.4767075,23.14000339508057L127.127694375,16.019999575614932L127.313690625,17.79999787807465L127.40668875,21.360005092620852L127.6391840625,21.360005092620852L127.685683125,19.579996180534366L127.77868125,16.019999575614932L127.871679375,14.240001273155217L127.91817843749999,14.240001273155217L128.0111765625,12.4600029706955L128.1041746875,10.680004668235783L128.15067375,10.680004668235783L128.47616718749998,10.680004668235783L128.615664375,12.4600029706955L128.8481596875,17.79999787807465L129.4061484375,16.019999575614932L129.5921446875,17.79999787807465L129.731641875,17.79999787807465L130.1966325,12.4600029706955L130.475626875,14.240001273155217L130.5221259375,16.019999575614932L130.6151240625,16.019999575614932L130.75462124999999,17.79999787807465L130.8941184375,17.79999787807465L130.9406175,17.79999787807465L130.9871165625,17.79999787807465L131.4521071875,12.4600029706955L131.49860625,12.4600029706955L131.5451053125,8.899995756149297L131.6381034375,8.899995756149297L132.1960921875,8.899995756149297L132.24259125,8.899995756149297L132.2890903125,8.899995756149297L132.335589375,12.4600029706955L132.707581875,21.360005092620852L133.1260734375,21.360005092620852L133.9165575,26.700000000000003L134.567544375,30.259996604919436L134.753540625,26.700000000000003L134.8000396875,28.47999830245972L134.8930378125,32.03999490737915L135.2650303125,28.47999830245972L135.3580284375,26.700000000000003L135.5440246875,26.700000000000003L136.0090153125,21.360005092620852L136.3810078125,21.360005092620852L136.427506875,21.360005092620852L136.9389965625,24.920001697540286L137.3109890625,28.47999830245972L137.5899834375,26.700000000000003L137.6364825,24.920001697540286L137.729480625,21.360005092620852L137.82247875,23.14000339508057L138.05497406249998,19.579996180534366L138.93845625,30.259996604919436L139.217450625,37.380000424385074L139.2639496875,35.60000212192536L139.7289403125,35.60000212192536L139.82193843750002,33.82000381946564L139.961435625,30.259996604919436L140.0079346875,28.47999830245972L140.05443375,28.47999830245972L140.519424375,30.259996604919436L140.56592343749998,28.47999830245972L140.70542062500002,30.259996604919436L140.98441499999998,23.14000339508057L141.2169103125,19.579996180534366L141.30990843749998,21.360005092620852L141.4029065625,21.360005092620852L141.4959046875,21.360005092620852L141.91439625,12.4600029706955L142.1003925,7.119997453689579L142.28638875,7.119997453689579L142.37938687500002,5.339999151229862L142.5188840625,8.899995756149297L142.93737562500002,14.240001273155217L142.9838746875,17.79999787807465L143.16987093749998,17.79999787807465L143.4488653125,23.14000339508057L143.54186343749998,21.360005092620852L144.0998521875,24.920001697540286L144.14635125,24.920001697540286L144.1928503125,23.14000339508057L144.239349375,23.14000339508057L144.3788465625,23.14000339508057L144.56484281250002,26.700000000000003L144.8438371875,32.03999490737915L144.89033625000002,33.82000381946564L145.0298334375,35.60000212192536L145.4018259375,28.47999830245972L145.63432125,26.700000000000003L145.7738184375,23.14000339508057L145.913315625,21.360005092620852L145.9598146875,21.360005092620852L146.2388090625,17.79999787807465L146.3318071875,17.79999787807465L146.6108015625,17.79999787807465L146.75029875,17.79999787807465L146.8897959375,19.579996180534366L146.936295,21.360005092620852L147.12229125000002,19.579996180534366L148.0057734375,16.019999575614932L148.1917696875,17.79999787807465L148.28476781249998,19.579996180534366L148.517263125,23.14000339508057L148.74975843750002,26.700000000000003L149.35424625,39.15999872684479L149.54024249999998,35.60000212192536L149.67973968750002,35.60000212192536L150.377225625,33.82000381946564L150.8887153125,37.380000424385074L150.93521437500002,39.15999872684479L151.0747115625,37.380000424385074L151.3537059375,26.700000000000003L151.679199375,26.700000000000003L151.72569843749997,26.700000000000003L151.7721975,24.920001697540286L151.8186965625,26.700000000000003L151.865195625,26.700000000000003L151.9116946875,24.920001697540286L152.2836871875,30.259996604919436L153.353165625,32.03999490737915L153.39966468749998,30.259996604919436L153.44616375,30.259996604919436L153.77165718749998,26.700000000000003L154.28314687499997,23.14000339508057L154.376145,23.14000339508057L154.93413375,17.79999787807465L154.9806328125,19.579996180534366L155.12013000000002,16.019999575614932L155.213128125,16.019999575614932L155.2596271875,17.79999787807465L155.3526253125,19.579996180534366L156.2361075,19.579996180534366L156.46860281250002,17.79999787807465L156.6081,17.79999787807465L156.7475971875,17.79999787807465L157.16608875,24.920001697540286L157.21258781249998,23.14000339508057L157.4915821875,24.920001697540286L157.58458031249998,24.920001697540286L157.63107937499998,26.700000000000003L157.91007375,24.920001697540286L158.0495709375,23.14000339508057L158.3285653125,19.579996180534366L158.4215634375,19.579996180534366L158.51456156249998,19.579996180534366L158.65405875000002,21.360005092620852L159.0725503125,21.360005092620852L159.305045625,23.14000339508057L159.39804374999997,24.920001697540286L159.4445428125,26.700000000000003L159.491041875,26.700000000000003L160.0025315625,24.920001697540286L160.4675221875,26.700000000000003L160.8395146875,30.259996604919436L161.62999875,37.380000424385074L161.95549218750003,37.380000424385074L162.00199125,35.60000212192536L162.1414884375,33.82000381946564L162.6064790625,24.920001697540286L162.8854734375,24.920001697540286L163.07146968749998,24.920001697540286L163.303965,21.360005092620852L163.396963125,17.79999787807465L163.48996125,14.240001273155217L163.582959375,12.4600029706955L163.6759575,12.4600029706955L163.86195375,10.680004668235783L163.9084528125,10.680004668235783L164.04795,8.899995756149297L164.326944375,8.899995756149297L164.4199425,7.119997453689579L164.5594396875,7.119997453689579L164.93143218749998,10.680004668235783L165.02443031250002,8.899995756149297L165.070929375,8.899995756149297L165.1174284375,8.899995756149297L165.4894209375,8.899995756149297L166.18690687499998,10.680004668235783L166.279905,14.240001273155217L166.372903125,14.240001273155217L166.46590125,14.240001273155217L166.55889937499998,16.019999575614932L166.9773909375,19.579996180534366L167.1633871875,21.360005092620852L167.767875,19.579996180534366L167.95387125000002,21.360005092620852L168.8373534375,19.579996180534366L169.534839375,14.240001273155217L169.5813384375,12.4600029706955L169.8603328125,12.4600029706955L169.906831875,10.680004668235783L169.99983,16.019999575614932L170.13932718750002,14.240001273155217L170.37182249999998,14.240001273155217L170.51131968750002,14.240001273155217L170.55781875,16.019999575614932L170.650816875,17.79999787807465L171.394801875,32.03999490737915L171.72029531249999,33.82000381946564L171.9062915625,37.380000424385074L172.231785,37.380000424385074L172.2782840625,37.380000424385074L172.60377749999998,35.60000212192536L172.7432746875,32.03999490737915L173.85925218749998,19.579996180534366L173.99874937500002,16.019999575614932L174.32424281250002,12.4600029706955L174.46374,10.680004668235783L174.5102390625,8.899995756149297L174.60323718749999,5.339999151229862L174.64973625,5.339999151229862L174.9752296875,7.119997453689579L175.0682278125,7.119997453689579L175.5797175,7.119997453689579L175.8122128125,8.899995756149297L176.230704375,16.019999575614932L176.3237025,16.019999575614932L176.41670062499998,14.240001273155217L176.602696875,16.019999575614932L176.7421940625,17.79999787807465L177.346681875,21.360005092620852L177.3931809375,23.14000339508057L177.43968,23.14000339508057L177.71867437499998,23.14000339508057L178.09066687499998,26.700000000000003L178.36966125,24.920001697540286L178.41616031249998,24.920001697540286L178.462659375,24.920001697540286L178.648655625,28.47999830245972L178.8811509375,23.14000339508057L179.206644375,19.579996180534366L179.578636875,16.019999575614932L179.764633125,19.579996180534366L179.950629375,19.579996180534366L180.0436275,19.579996180534366L180.322621875,23.14000339508057L180.4621190625,19.579996180534366L180.5551171875,17.79999787807465L180.64811531249998,17.79999787807465L180.74111343750002,16.019999575614932L180.880610625,14.240001273155217L181.1131059375,19.579996180534366L181.67109468750002,17.79999787807465L181.90358999999998,21.360005092620852L182.1360853125,24.920001697540286L182.97306843750002,30.259996604919436L183.1590646875,35.60000212192536L183.29856187500002,35.60000212192536L183.53105718749998,37.380000424385074L183.8100515625,37.380000424385074L183.856550625,37.380000424385074L184.042546875,40.93999702930451L184.135545,39.15999872684479L184.414539375,44.50000424385071L184.46103843749998,46.28000254631043L184.7400328125,48.060000848770144L185.06552625,46.28000254631043L185.344520625,48.060000848770144L185.4840178125,48.060000848770144L185.76301218749998,37.380000424385074L186.274501875,40.93999702930451L186.3675,37.380000424385074L186.6929934375,35.60000212192536L186.832490625,33.82000381946564L186.9719878125,33.82000381946564L187.06498593749998,35.60000212192536L187.29748125,32.03999490737915L188.04146625,24.920001697540286L188.134464375,26.700000000000003L188.1809634375,24.920001697540286L188.36695968749999,23.14000339508057L188.41345875000002,24.920001697540286L188.599455,23.14000339508057L188.692453125,21.360005092620852L188.9714475,24.920001697540286L189.0179465625,21.360005092620852L189.34344000000002,21.360005092620852L189.90142875,19.579996180534366L190.1339240625,16.019999575614932L190.27342125,14.240001273155217L190.6919128125,17.79999787807465L190.738411875,17.79999787807465L191.01740625000002,19.579996180534366L191.0639053125,19.579996180534366L191.7148921875,16.019999575614932L191.90088843750002,14.240001273155217L191.9938865625,16.019999575614932L192.0868846875,14.240001273155217L192.22638187500002,12.4600029706955L192.3658790625,14.240001273155217L192.784370625,19.579996180534366L193.06336499999998,24.920001697540286L193.156363125,24.920001697540286L193.6678528125,23.14000339508057L193.714351875,23.14000339508057L193.99334625,30.259996604919436L194.31883968749997,37.380000424385074L195.4348171875,39.15999872684479L195.574314375,37.380000424385074L195.7138115625,30.259996604919436L195.8068096875,32.03999490737915L196.78329,26.700000000000003L196.9227871875,26.700000000000003L197.1087834375,24.920001697540286L197.1552825,21.360005092620852L197.2017815625,21.360005092620852L197.4807759375,28.47999830245972L197.62027312499998,28.47999830245972L197.71327125,28.47999830245972L198.1317628125,28.47999830245972L198.31775906250002,26.700000000000003L198.45725625,24.920001697540286L198.68975156250002,26.700000000000003L199.06174406250003,21.360005092620852L199.2477403125,26.700000000000003L199.3407384375,24.920001697540286L199.4337365625,24.920001697540286L200.038224375,17.79999787807465L200.1312225,17.79999787807465L200.2707196875,17.79999787807465L200.8287084375,24.920001697540286L201.0147046875,26.700000000000003L201.24720000000002,24.920001697540286L201.340198125,24.920001697540286L201.80518875,32.03999490737915L201.898186875,30.259996604919436L201.991185,33.82000381946564L202.5956728125,32.03999490737915L202.87466718750002,37.380000424385074L203.3396578125,35.60000212192536L203.572153125,28.47999830245972L203.8976465625,33.82000381946564L204.03714374999998,33.82000381946564L204.130141875,32.03999490737915L205.06012312500002,19.579996180534366L205.1066221875,19.579996180534366L205.15312125,19.579996180534366L205.3856165625,21.360005092620852L205.4786146875,21.360005092620852L205.7576090625,19.579996180534366L205.9436053125,19.579996180534366L206.31559781250002,23.14000339508057L206.36209687500002,24.920001697540286L206.59459218749998,19.579996180534366L206.64109125,19.579996180534366L206.8270875,21.360005092620852L207.3385771875,28.47999830245972L207.61757156250002,32.03999490737915L207.8965659375,40.93999702930451L208.036063125,42.719995331764224L208.54755281250002,32.03999490737915L208.7335490625,30.259996604919436L208.91954531250002,30.259996604919436L209.0125434375,30.259996604919436L209.24503875,30.259996604919436L209.431035,32.03999490737915L209.6635303125,30.259996604919436L209.896025625,26.700000000000003L210.08202187499998,32.03999490737915L210.1285209375,32.03999490737915L210.22151906250002,30.259996604919436L210.640010625,16.019999575614932L210.6865096875,16.019999575614932L211.197999375,21.360005092620852L211.2909975,21.360005092620852L211.33749656249998,21.360005092620852L211.66299,14.240001273155217L211.755988125,14.240001273155217L211.8024871875,16.019999575614932L211.84898625000002,17.79999787807465L211.8954853125,16.019999575614932L212.0814815625,12.4600029706955L212.1744796875,10.680004668235783L213.1974590625,10.680004668235783L213.33695625,10.680004668235783L213.98794312500002,7.119997453689579L214.2204384375,8.899995756149297L214.26693749999998,8.899995756149297L214.359935625,8.899995756149297L214.731928125,10.680004668235783L214.96442343750002,8.899995756149297L215.28991687500002,14.240001273155217L216.59189062500002,10.680004668235783L216.9173840625,7.119997453689579L217.42887375,8.899995756149297L217.6613690625,12.4600029706955L218.079860625,10.680004668235783L218.12635968749998,12.4600029706955L218.5913503125,16.019999575614932L218.63784937499997,14.240001273155217L218.6843484375,14.240001273155217L218.77734656250001,16.019999575614932L218.8703446875,19.579996180534366L218.9633428125,19.579996180534366L219.00984187499998,21.360005092620852L219.05634093749998,21.360005092620852L219.14933906250002,23.14000339508057L219.9863221875,26.700000000000003L220.2188175,24.920001697540286L220.45131281250002,23.14000339508057L220.59081,24.920001697540286L220.7303071875,26.700000000000003L220.9628025,21.360005092620852L221.4742921875,23.14000339508057L221.89278375,19.579996180534366L222.0322809375,19.579996180534366L222.07878000000002,19.579996180534366L222.49727156249998,21.360005092620852L222.7762659375,16.019999575614932L223.473751875,17.79999787807465L223.5202509375,16.019999575614932L223.7992453125,14.240001273155217L223.9852415625,10.680004668235783L224.12473874999998,10.680004668235783L224.403733125,8.899995756149297L224.49673124999998,8.899995756149297L224.9152228125,12.4600029706955L225.1012190625,21.360005092620852L225.3802134375,19.579996180534366L225.61270875,24.920001697540286L225.891703125,21.360005092620852L226.077699375,23.14000339508057L226.31019468750003,21.360005092620852L226.635688125,23.14000339508057L226.82168437500002,26.700000000000003L227.2401759375,30.259996604919436L227.379673125,28.47999830245972L227.937661875,10.680004668235783L228.2631553125,12.4600029706955L228.4026525,12.4600029706955L228.49565062500002,12.4600029706955L228.5421496875,12.4600029706955L228.7281459375,14.240001273155217L228.774645,14.240001273155217L228.8211440625,14.240001273155217L229.37913281250002,16.019999575614932L229.65812718749999,10.680004668235783L229.70462625,10.680004668235783L229.797624375,12.4600029706955L230.0301196875,14.240001273155217L230.07661875,16.019999575614932L230.2161159375,17.79999787807465L230.4951103125,21.360005092620852L230.68110656250002,19.579996180534366L231.0066,21.360005092620852L231.471590625,17.79999787807465L231.750585,19.579996180534366L231.93658125000002,16.019999575614932L232.0760784375,16.019999575614932L232.4480709375,14.240001273155217L232.5410690625,12.4600029706955L233.14555687499998,10.680004668235783L233.331553125,10.680004668235783L233.3780521875,12.4600029706955L234.261534375,10.680004668235783L234.3080334375,7.119997453689579L234.447530625,10.680004668235783L234.77302406249999,12.4600029706955L234.86602218750002,10.680004668235783L235.2380146875,12.4600029706955L235.3310128125,10.680004668235783L235.377511875,10.680004668235783L235.9819996875,10.680004668235783L236.0749978125,12.4600029706955L236.121496875,12.4600029706955L236.5399884375,12.4600029706955L236.679485625,12.4600029706955L236.77248375,10.680004668235783L237.1909753125,7.119997453689579L237.33047249999998,7.119997453689579L237.42347062500002,7.119997453689579L237.51646875,7.119997453689579L238.0744575,12.4600029706955L238.8649415625,14.240001273155217L239.097436875,8.899995756149297L239.5624275,14.240001273155217L239.84142187499998,16.019999575614932L240.1669153125,12.4600029706955L240.4459096875,14.240001273155217L240.5389078125,14.240001273155217L240.7249040625,12.4600029706955L241.0503975,3.5600008487701453L241.0968965625,3.5600008487701453L241.14339562499998,3.5600008487701453L241.60838625,8.899995756149297L242.35237125,5.339999151229862L242.5848665625,5.339999151229862L242.817361875,1.7800025463104288L243.0498571875,3.5600008487701453L243.09635625,1.7800025463104288L243.189354375,1.7800025463104288L243.32885156249998,1.7800025463104288L243.7938421875,3.5600008487701453L243.9798384375,5.339999151229862L244.0263375,3.5600008487701453L244.305331875,5.339999151229862L244.491328125,1.7800025463104288L244.5378271875,1.7800025463104288L244.9098196875,1.7800025463104288L245.00281781249998,1.7800025463104288L245.049316875,3.5600008487701453L245.09581593750002,5.339999151229862L245.1888140625,7.119997453689579L245.32831124999998,7.119997453689579L245.3748103125,7.119997453689579L245.421309375,7.119997453689579L245.4678084375,7.119997453689579L245.6538046875,7.119997453689579L245.7468028125,8.899995756149297L245.88629999999998,10.680004668235783L245.93279906249998,10.680004668235783L245.979298125,10.680004668235783L246.02579718750002,12.4600029706955L246.1187953125,10.680004668235783L246.25829249999998,8.899995756149297L246.3047915625,8.899995756149297L246.5837859375,7.119997453689579L246.8627803125,3.5600008487701453L246.95577843750002,7.119997453689579L247.095275625,5.339999151229862L247.65326437500002,7.119997453689579L248.025256875,5.339999151229862L248.07175593749997,5.339999151229862L248.118255,5.339999151229862L248.397249375,5.339999151229862L248.7227428125,1.7800025463104288L248.95523812500002,3.5600008487701453L249.2807315625,7.119997453689579L249.4667278125,8.899995756149297L249.699223125,3.5600008487701453L249.88521937500002,1.7800025463104288L250.16421375,3.5600008487701453L250.25721187500002,5.339999151229862L250.3967090625,8.899995756149297L250.7222025,7.119997453689579L251.00119687499998,10.680004668235783L251.14069406250002,12.4600029706955L251.2336921875,10.680004668235783L251.28019125,10.680004668235783L251.51268656250002,10.680004668235783" style="fill: none;" fill="none"></path></g></g></g></g></g></g><g transform="translate(51, 178)" clip-path="url(#clip_1)"><clipPath id="clip_1"><rect width="278" height="22"></rect></clipPath><g><g><line x1="0" y1="0" x2="0" y2="5" style="visibility: inherit;" fill="rgb(0, 0, 0)" stroke="rgb(204, 204, 204)" stroke-width="1px"></line><line x1="23.203125" y1="0" x2="23.203125" y2="5" style="visibility: inherit;" fill="rgb(0, 0, 0)" stroke="rgb(204, 204, 204)" stroke-width="1px"></line><line x1="46.40625" y1="0" x2="46.40625" y2="5" style="visibility: inherit;" fill="rgb(0, 0, 0)" stroke="rgb(204, 204, 204)" stroke-width="1px"></line><line x1="69.609375" y1="0" x2="69.609375" y2="5" style="visibility: inherit;" fill="rgb(0, 0, 0)" stroke="rgb(204, 204, 204)" stroke-width="1px"></line><line x1="92.8125" y1="0" x2="92.8125" y2="5" style="visibility: inherit;" fill="rgb(0, 0, 0)" stroke="rgb(204, 204, 204)" stroke-width="1px"></line><line x1="116.015625" y1="0" x2="116.015625" y2="5" style="visibility: inherit;" fill="rgb(0, 0, 0)" stroke="rgb(204, 204, 204)" stroke-width="1px"></line><line x1="139.21875" y1="0" x2="139.21875" y2="5" style="visibility: inherit;" fill="rgb(0, 0, 0)" stroke="rgb(204, 204, 204)" stroke-width="1px"></line><line x1="162.421875" y1="0" x2="162.421875" y2="5" style="visibility: inherit;" fill="rgb(0, 0, 0)" stroke="rgb(204, 204, 204)" stroke-width="1px"></line><line x1="185.625" y1="0" x2="185.625" y2="5" style="visibility: inherit;" fill="rgb(0, 0, 0)" stroke="rgb(204, 204, 204)" stroke-width="1px"></line><line x1="208.828125" y1="0" x2="208.828125" y2="5" style="visibility: inherit;" fill="rgb(0, 0, 0)" stroke="rgb(204, 204, 204)" stroke-width="1px"></line><line x1="232.03125" y1="0" x2="232.03125" y2="5" style="visibility: inherit;" fill="rgb(0, 0, 0)" stroke="rgb(204, 204, 204)" stroke-width="1px"></line><line x1="255.234375" y1="0" x2="255.234375" y2="5" style="visibility: inherit;" fill="rgb(0, 0, 0)" stroke="rgb(204, 204, 204)" stroke-width="1px"></line><line x1="278.4375" y1="0" x2="278.4375" y2="5" style="visibility: inherit;" fill="rgb(0, 0, 0)" stroke="rgb(204, 204, 204)" stroke-width="1px"></line></g><g transform="translate(0, 8)"><text x="0" y="0" dx="0em" dy="0.95em" style="text-anchor: middle; visibility: hidden; font-family: Roboto, sans-serif; font-size: 12px; font-weight: 200;" fill="rgb(50, 49, 63)" stroke="none" stroke-width="1px">-500k</text><text x="23.203125" y="0" dx="0em" dy="0.95em" style="text-anchor: middle; visibility: inherit; font-family: Roboto, sans-serif; font-size: 12px; font-weight: 200;" fill="rgb(50, 49, 63)" stroke="none" stroke-width="1px">0</text><text x="46.40625" y="0" dx="0em" dy="0.95em" style="text-anchor: middle; visibility: hidden; font-family: Roboto, sans-serif; font-size: 12px; font-weight: 200;" fill="rgb(50, 49, 63)" stroke="none" stroke-width="1px">500k</text><text x="69.609375" y="0" dx="0em" dy="0.95em" style="text-anchor: middle; visibility: inherit; font-family: Roboto, sans-serif; font-size: 12px; font-weight: 200;" fill="rgb(50, 49, 63)" stroke="none" stroke-width="1px">1M</text><text x="92.8125" y="0" dx="0em" dy="0.95em" style="text-anchor: middle; visibility: hidden; font-family: Roboto, sans-serif; font-size: 12px; font-weight: 200;" fill="rgb(50, 49, 63)" stroke="none" stroke-width="1px">1.5M</text><text x="116.015625" y="0" dx="0em" dy="0.95em" style="text-anchor: middle; visibility: inherit; font-family: Roboto, sans-serif; font-size: 12px; font-weight: 200;" fill="rgb(50, 49, 63)" stroke="none" stroke-width="1px">2M</text><text x="139.21875" y="0" dx="0em" dy="0.95em" style="text-anchor: middle; visibility: hidden; font-family: Roboto, sans-serif; font-size: 12px; font-weight: 200;" fill="rgb(50, 49, 63)" stroke="none" stroke-width="1px">2.5M</text><text x="162.421875" y="0" dx="0em" dy="0.95em" style="text-anchor: middle; visibility: inherit; font-family: Roboto, sans-serif; font-size: 12px; font-weight: 200;" fill="rgb(50, 49, 63)" stroke="none" stroke-width="1px">3M</text><text x="185.625" y="0" dx="0em" dy="0.95em" style="text-anchor: middle; visibility: hidden; font-family: Roboto, sans-serif; font-size: 12px; font-weight: 200;" fill="rgb(50, 49, 63)" stroke="none" stroke-width="1px">3.5M</text><text x="208.828125" y="0" dx="0em" dy="0.95em" style="text-anchor: middle; visibility: inherit; font-family: Roboto, sans-serif; font-size: 12px; font-weight: 200;" fill="rgb(50, 49, 63)" stroke="none" stroke-width="1px">4M</text><text x="232.03125" y="0" dx="0em" dy="0.95em" style="text-anchor: middle; visibility: hidden; font-family: Roboto, sans-serif; font-size: 12px; font-weight: 200;" fill="rgb(50, 49, 63)" stroke="none" stroke-width="1px">4.5M</text><text x="255.234375" y="0" dx="0em" dy="0.95em" style="text-anchor: middle; visibility: inherit; font-family: Roboto, sans-serif; font-size: 12px; font-weight: 200;" fill="rgb(50, 49, 63)" stroke="none" stroke-width="1px">5M</text><text x="278.4375" y="0" dx="0em" dy="0.95em" style="text-anchor: middle; visibility: hidden; font-family: Roboto, sans-serif; font-size: 12px; font-weight: 200;" fill="rgb(50, 49, 63)" stroke="none" stroke-width="1px">5.5M</text></g><line x1="0" y1="0" x2="278.4375" y2="0" fill="rgb(0, 0, 0)" stroke="rgb(204, 204, 204)" stroke-width="1px"></line></g></g></g></g></svg>