<svg viewBox="0 0 330 200" xmlns="http://www.w3.org/2000/svg"><g><g><g><g><g><line x1="50" y1="178" x2="45" y2="178" style="visibility: inherit;" fill="rgb(0, 0, 0)" stroke="rgb(204, 204, 204)" stroke-width="1px"></line><line x1="50" y1="164.30769230769232" x2="45" y2="164.30769230769232" style="visibility: inherit;" fill="rgb(0, 0, 0)" stroke="rgb(204, 204, 204)" stroke-width="1px"></line><line x1="50" y1="150.6153846153846" x2="45" y2="150.6153846153846" style="visibility: inherit;" fill="rgb(0, 0, 0)" stroke="rgb(204, 204, 204)" stroke-width="1px"></line><line x1="50" y1="136.9230769230769" x2="45" y2="136.9230769230769" style="visibility: inherit;" fill="rgb(0, 0, 0)" stroke="rgb(204, 204, 204)" stroke-width="1px"></line><line x1="50" y1="123.23076923076923" x2="45" y2="123.23076923076923" style="visibility: inherit;" fill="rgb(0, 0, 0)" stroke="rgb(204, 204, 204)" stroke-width="1px"></line><line x1="50" y1="109.53846153846155" x2="45" y2="109.53846153846155" style="visibility: inherit;" fill="rgb(0, 0, 0)" stroke="rgb(204, 204, 204)" stroke-width="1px"></line><line x1="50" y1="95.84615384615387" x2="45" y2="95.84615384615387" style="visibility: inherit;" fill="rgb(0, 0, 0)" stroke="rgb(204, 204, 204)" stroke-width="1px"></line><line x1="50" y1="82.15384615384616" x2="45" y2="82.15384615384616" style="visibility: inherit;" fill="rgb(0, 0, 0)" stroke="rgb(204, 204, 204)" stroke-width="1px"></line><line x1="50" y1="68.46153846153848" x2="45" y2="68.46153846153848" style="visibility: inherit;" fill="rgb(0, 0, 0)" stroke="rgb(204, 204, 204)" stroke-width="1px"></line><line x1="50" y1="54.769230769230774" x2="45" y2="54.769230769230774" style="visibility: inherit;" fill="rgb(0, 0, 0)" stroke="rgb(204, 204, 204)" stroke-width="1px"></line><line x1="50" y1="41.07692307692309" x2="45" y2="41.07692307692309" style="visibility: inherit;" fill="rgb(0, 0, 0)" stroke="rgb(204, 204, 204)" stroke-width="1px"></line><line x1="50" y1="27.384615384615387" x2="45" y2="27.384615384615387" style="visibility: inherit;" fill="rgb(0, 0, 0)" stroke="rgb(204, 204, 204)" stroke-width="1px"></line><line x1="50" y1="13.692307692307683" x2="45" y2="13.692307692307683" style="visibility: inherit;" fill="rgb(0, 0, 0)" stroke="rgb(204, 204, 204)" stroke-width="1px"></line><line x1="50" y1="0" x2="45" y2="0" style="visibility: inherit;" fill="rgb(0, 0, 0)" stroke="rgb(204, 204, 204)" stroke-width="1px"></line></g><g transform="translate(40, 0)"><text x="0" y="178" dx="0em" dy="0.3em" style="text-anchor: end; visibility: hidden; font-family: Roboto, sans-serif; font-size: 12px; font-weight: 200;" fill="rgb(50, 49, 63)" stroke="none" stroke-width="1px">-0.1</text><text x="0" y="164.30769230769232" dx="0em" dy="0.3em" style="text-anchor: end; visibility: inherit; font-family: Roboto, sans-serif; font-size: 12px; font-weight: 200;" fill="rgb(50, 49, 63)" stroke="none" stroke-width="1px">0</text><text x="0" y="150.6153846153846" dx="0em" dy="0.3em" style="text-anchor: end; visibility: hidden; font-family: Roboto, sans-serif; font-size: 12px; font-weight: 200;" fill="rgb(50, 49, 63)" stroke="none" stroke-width="1px">0.1</text><text x="0" y="136.9230769230769" dx="0em" dy="0.3em" style="text-anchor: end; visibility: inherit; font-family: Roboto, sans-serif; font-size: 12px; font-weight: 200;" fill="rgb(50, 49, 63)" stroke="none" stroke-width="1px">0.2</text><text x="0" y="123.23076923076923" dx="0em" dy="0.3em" style="text-anchor: end; visibility: hidden; font-family: Roboto, sans-serif; font-size: 12px; font-weight: 200;" fill="rgb(50, 49, 63)" stroke="none" stroke-width="1px">0.3</text><text x="0" y="109.53846153846155" dx="0em" dy="0.3em" style="text-anchor: end; visibility: inherit; font-family: Roboto, sans-serif; font-size: 12px; font-weight: 200;" fill="rgb(50, 49, 63)" stroke="none" stroke-width="1px">0.4</text><text x="0" y="95.84615384615387" dx="0em" dy="0.3em" style="text-anchor: end; visibility: hidden; font-family: Roboto, sans-serif; font-size: 12px; font-weight: 200;" fill="rgb(50, 49, 63)" stroke="none" stroke-width="1px">0.5</text><text x="0" y="82.15384615384616" dx="0em" dy="0.3em" style="text-anchor: end; visibility: inherit; font-family: Roboto, sans-serif; font-size: 12px; font-weight: 200;" fill="rgb(50, 49, 63)" stroke="none" stroke-width="1px">0.6</text><text x="0" y="68.46153846153848" dx="0em" dy="0.3em" style="text-anchor: end; visibility: hidden; font-family: Roboto, sans-serif; font-size: 12px; font-weight: 200;" fill="rgb(50, 49, 63)" stroke="none" stroke-width="1px">0.7</text><text x="0" y="54.769230769230774" dx="0em" dy="0.3em" style="text-anchor: end; visibility: inherit; font-family: Roboto, sans-serif; font-size: 12px; font-weight: 200;" fill="rgb(50, 49, 63)" stroke="none" stroke-width="1px">0.8</text><text x="0" y="41.07692307692309" dx="0em" dy="0.3em" style="text-anchor: end; visibility: hidden; font-family: Roboto, sans-serif; font-size: 12px; font-weight: 200;" fill="rgb(50, 49, 63)" stroke="none" stroke-width="1px">0.9</text><text x="0" y="27.384615384615387" dx="0em" dy="0.3em" style="text-anchor: end; visibility: inherit; font-family: Roboto, sans-serif; font-size: 12px; font-weight: 200;" fill="rgb(50, 49, 63)" stroke="none" stroke-width="1px">1</text><text x="0" y="13.692307692307683" dx="0em" dy="0.3em" style="text-anchor: end; visibility: hidden; font-family: Roboto, sans-serif; font-size: 12px; font-weight: 200;" fill="rgb(50, 49, 63)" stroke="none" stroke-width="1px">1.1</text><text x="0" y="0" dx="0em" dy="0.3em" style="text-anchor: end; visibility: hidden; font-family: Roboto, sans-serif; font-size: 12px; font-weight: 200;" fill="rgb(50, 49, 63)" stroke="none" stroke-width="1px">1.2</text></g><line x1="50" y1="0" x2="50" y2="178" fill="rgb(0, 0, 0)" stroke="rgb(204, 204, 204)" stroke-width="1px"></line></g></g><g transform="translate(50, 0)" clip-path="url(#clip_0)"><clipPath id="clip_0"><rect width="280" height="178"></rect></clipPath><g><g><g><line x1="0" y1="0" x2="0" y2="178" fill="rgb(0, 0, 0)" stroke="rgb(60, 60, 60)" stroke-width="1px" opacity="0.25"></line><line x1="23.333333333333332" y1="0" x2="23.333333333333332" y2="178" fill="rgb(0, 0, 0)" stroke="rgb(60, 60, 60)" stroke-width="1px" opacity="0.25"></line><line x1="46.666666666666664" y1="0" x2="46.666666666666664" y2="178" fill="rgb(0, 0, 0)" stroke="rgb(60, 60, 60)" stroke-width="1px" opacity="0.25"></line><line x1="70" y1="0" x2="70" y2="178" fill="rgb(0, 0, 0)" stroke="rgb(60, 60, 60)" stroke-width="1px" opacity="0.25"></line><line x1="93.33333333333333" y1="0" x2="93.33333333333333" y2="178" fill="rgb(0, 0, 0)" stroke="rgb(60, 60, 60)" stroke-width="1px" opacity="0.25"></line><line x1="116.66666666666667" y1="0" x2="116.66666666666667" y2="178" fill="rgb(0, 0, 0)" stroke="rgb(60, 60, 60)" stroke-width="1px" opacity="0.25"></line><line x1="140" y1="0" x2="140" y2="178" fill="rgb(0, 0, 0)" stroke="rgb(60, 60, 60)" stroke-width="1px" opacity="0.25"></line><line x1="163.33333333333334" y1="0" x2="163.33333333333334" y2="178" fill="rgb(0, 0, 0)" stroke="rgb(60, 60, 60)" stroke-width="1px" opacity="0.25"></line><line x1="186.66666666666666" y1="0" x2="186.66666666666666" y2="178" fill="rgb(0, 0, 0)" stroke="rgb(60, 60, 60)" stroke-width="1px" opacity="0.25"></line><line x1="210" y1="0" x2="210" y2="178" fill="rgb(0, 0, 0)" stroke="rgb(60, 60, 60)" stroke-width="1px" opacity="0.25"></line><line x1="233.33333333333334" y1="0" x2="233.33333333333334" y2="178" fill="rgb(0, 0, 0)" stroke="rgb(60, 60, 60)" stroke-width="1px" opacity="0.25"></line><line x1="256.66666666666663" y1="0" x2="256.66666666666663" y2="178" fill="rgb(0, 0, 0)" stroke="rgb(60, 60, 60)" stroke-width="1px" opacity="0.25"></line><line x1="280" y1="0" x2="280" y2="178" fill="rgb(0, 0, 0)" stroke="rgb(60, 60, 60)" stroke-width="1px" opacity="0.25"></line></g><g><line x1="0" y1="178" x2="280" y2="178" fill="rgb(0, 0, 0)" stroke="rgb(60, 60, 60)" stroke-width="1px" opacity="0.25"></line><line x1="0" y1="164.30769230769232" x2="280" y2="164.30769230769232" fill="rgb(0, 0, 0)" stroke="rgb(60, 60, 60)" stroke-width="1px" opacity="0.25"></line><line x1="0" y1="150.6153846153846" x2="280" y2="150.6153846153846" fill="rgb(0, 0, 0)" stroke="rgb(60, 60, 60)" stroke-width="1px" opacity="0.25"></line><line x1="0" y1="136.9230769230769" x2="280" y2="136.9230769230769" fill="rgb(0, 0, 0)" stroke="rgb(60, 60, 60)" stroke-width="1px" opacity="0.25"></line><line x1="0" y1="123.23076923076923" x2="280" y2="123.23076923076923" fill="rgb(0, 0, 0)" stroke="rgb(60, 60, 60)" stroke-width="1px" opacity="0.25"></line><line x1="0" y1="109.53846153846155" x2="280" y2="109.53846153846155" fill="rgb(0, 0, 0)" stroke="rgb(60, 60, 60)" stroke-width="1px" opacity="0.25"></line><line x1="0" y1="95.84615384615387" x2="280" y2="95.84615384615387" fill="rgb(0, 0, 0)" stroke="rgb(60, 60, 60)" stroke-width="1px" opacity="0.25"></line><line x1="0" y1="82.15384615384616" x2="280" y2="82.15384615384616" fill="rgb(0, 0, 0)" stroke="rgb(60, 60, 60)" stroke-width="1px" opacity="0.25"></line><line x1="0" y1="68.46153846153848" x2="280" y2="68.46153846153848" fill="rgb(0, 0, 0)" stroke="rgb(60, 60, 60)" stroke-width="1px" opacity="0.25"></line><line x1="0" y1="54.769230769230774" x2="280" y2="54.769230769230774" fill="rgb(0, 0, 0)" stroke="rgb(60, 60, 60)" stroke-width="1px" opacity="0.25"></line><line x1="0" y1="41.07692307692309" x2="280" y2="41.07692307692309" fill="rgb(0, 0, 0)" stroke="rgb(60, 60, 60)" stroke-width="1px" opacity="0.25"></line><line x1="0" y1="27.384615384615387" x2="280" y2="27.384615384615387" fill="rgb(0, 0, 0)" stroke="rgb(60, 60, 60)" stroke-width="1px" opacity="0.25"></line><line x1="0" y1="13.692307692307683" x2="280" y2="13.692307692307683" fill="rgb(0, 0, 0)" stroke="rgb(60, 60, 60)" stroke-width="1px" opacity="0.25"></line><line x1="0" y1="0" x2="280" y2="0" fill="rgb(0, 0, 0)" stroke="rgb(60, 60, 60)" stroke-width="1px" opacity="0.25"></line></g></g></g><g><g><line x1="0" y1="164.30769230769232" x2="280" y2="164.30769230769232" fill="rgb(0, 0, 0)" stroke="rgb(153, 153, 153)" stroke-width="1.5px"></line></g></g><g><g><line x1="23.333333333333332" y1="0" x2="23.333333333333332" y2="178" fill="rgb(0, 0, 0)" stroke="rgb(153, 153, 153)" stroke-width="1.5px"></line></g></g><g><g><g><g><g><path stroke="rgb(238, 51, 119)" stroke-width="2px" d="M24.03389333333333,164.30769230769232L24.641773333333337,164.30769230769232L24.92233333333333,164.30769230769232L25.670493333333333,164.30769230769232L25.764013333333335,164.30769230769232L25.904293333333335,164.30769230769232L25.997813333333333,164.30769230769232L26.27837333333333,164.30769230769232L26.41865333333333,164.30769230769232L27.120053333333335,164.30769230769232L27.260333333333335,164.30769230769232L27.49413333333333,164.30769230769232L27.868213333333333,153.71180513374196L28.195533333333334,144.62963582519396L28.569613333333336,136.75844080891812L28.709893333333333,129.87116240506313L28.756653333333336,123.79416827021059L29.083973333333333,118.392411026143L29.31777333333333,113.5592743216324L29.691853333333334,109.20946507569418L30.299733333333332,105.27393650848148L30.814093333333332,101.6961958001167L31.047893333333334,98.42957496895859L31.188173333333335,95.43518403030562L31.609013333333333,92.68035539700446L31.655773333333332,90.13744726453946L32.12337333333333,87.78291291054391L32.357173333333336,85.59656943012902L32.450693333333334,83.56101776735531L32.49745333333333,81.66117874040557L32.684493333333336,79.88391886834165L33.058573333333335,78.21774635533988L33.432653333333334,76.65256235052432L33.47941333333333,75.17945610311949L33.713213333333336,73.79053523386594L34.22757333333333,72.47878429453155L34.50813333333333,71.23794626371857L34.741933333333336,70.0624227538591L34.88221333333333,68.94718957098057L35.44333333333333,67.88772494050625L35.72389333333333,66.87994823659744L35.95769333333333,65.92016746444614L36.28501333333333,65.00503407062074L36.472053333333335,64.13150391563612L36.56557333333333,63.296803450183724L37.454013333333336,62.49840030315292L37.68781333333333,61.73397762437871L37.73457333333333,61.00141163454131L37.96837333333333,60.298751924060696L38.202173333333334,59.624204116121845L38.29569333333333,58.97611456934529L38.66977333333333,58.352956845533406L38.71653333333333,57.75331970937012L39.04385333333333,57.17589646148837L39.230893333333334,56.61947543520081L39.65173333333333,56.08293151143942L40.02581333333334,55.56521852686028L40.77397333333333,55.06536246731337L40.961013333333334,54.58245535350625L41.241573333333335,54.115649738098035L41.42861333333333,53.66415374406482L41.522133333333336,53.22722658322102L43.48605333333333,52.80417450155199L43.53281333333333,52.394347104667375L43.626333333333335,51.99713402244589L43.90689333333333,51.61196187689492L44.327733333333335,51.23829152154212L44.42125333333333,50.8756155244131L44.46801333333333,50.52345586987893L44.608293333333336,50.181361857488696L44.88885333333334,49.8489081783654L45.309693333333335,49.52569315190235L45.44997333333334,49.211337107387955L45.49673333333334,48.9054808968515L45.96433333333333,48.60778452687978L46.759253333333334,48.31792589844902L46.85277333333333,48.0355996449517L47.50741333333333,47.76051605960534L47.741213333333334,47.49240010432482L47.83473333333333,47.23099049292851L47.97501333333334,46.97603884225546L48.34909333333333,46.72730888539587L48.62965333333333,46.484575741796235L48.72317333333333,46.24762523950013L48.86345333333333,46.01625328523111L49.14401333333333,45.79026527842212L49.377813333333336,45.56947556565844L49.84541333333333,45.35370693231614L50.125973333333334,45.14279012847275L50.406533333333336,44.936563426424236L50.59357333333334,44.73487220737564L50.87413333333334,44.53756857508798L50.96765333333334,44.344510994450275L51.01441333333334,44.15556395312154L51.10793333333333,43.97059764454295L51.20145333333333,43.7894876707619L51.24821333333333,43.6121147636374L51.48201333333333,43.43836452311544L51.52877333333333,43.26812717136598L51.94961333333333,43.101297321671666L52.23017333333333,42.93777376104554L52.32369333333333,42.77745924563727L52.55749333333333,42.62026030805601L52.791293333333336,42.46608707581035L52.884813333333334,42.31485310012184L53.445933333333336,42.1664751944298L53.77325333333333,42.02087328195095L53.82001333333333,41.87797025170857L53.91353333333333,41.7376918224856L54.00705333333333,41.599966414199926L54.05381333333333,41.46472502623122L54.14733333333333,41.33190112226682L54.70845333333333,41.20143052126074L54.848733333333335,41.07325129413353L55.03577333333333,40.947303665860055L55.176053333333336,40.82352992262248L55.31633333333333,40.70187432372425L55.503373333333336,40.58228301798385L55.550133333333335,40.464703964342874L55.73717333333334,40.3490868564443L55.97097333333333,40.235383050950986L56.01773333333334,40.12354549938847L56.48533333333333,40.013528683314014L56.67237333333333,39.90528855262077L56.81265333333333,39.79878246680533L57.18673333333333,39.693969139030436L57.37377333333333,39.59080858283113L57.51405333333333,39.48926206131928L57.560813333333336,39.38929203874985L57.607573333333335,39.29086213432367L57.934893333333335,39.19393707810512L58.215453333333336,39.09848266894398L58.308973333333334,39.004465734295955L58.35573333333333,38.9118540918413L58.542773333333336,38.82061651280993L58.72981333333334,38.73072268692496L58.87009333333334,38.64214318888051L58.916853333333336,38.55484944627784L58.963613333333335,38.4688137089448L59.15065333333333,38.38400901957113L59.57149333333333,38.30040918559266L59.75853333333333,38.217988752263594L59.80529333333333,38.13672297685809L59.85205333333333,38.05658780394855L59.94557333333333,37.97755984170455L59.992333333333335,37.899616339167466L60.272893333333336,37.82273516445219L60.45993333333333,37.74689478383206L60.50669333333333,37.67207424166666L60.600213333333336,37.59825314113258L60.693733333333334,37.52541162571895L60.83401333333333,37.453530361454305L60.88077333333334,37.382590519830416L60.927533333333336,37.31257376139047L60.974293333333335,37.243462219953926L61.11457333333333,37.17523848744691L61.301613333333336,37.107885599313164L61.53541333333334,37.041387020478425L61.58217333333334,36.975726631844616L61.628933333333336,36.91088871729098L61.90949333333333,36.846857951159045L62.704413333333335,36.783619386201366L62.89145333333333,36.7211584419736L62.984973333333336,36.659460893651875L63.21877333333333,36.59851286125601L64.34101333333334,36.5383007992629L64.43453333333333,36.478811486592804L64.66833333333334,36.42003201695336L64.76185333333333,36.36194978952614L64.94889333333333,36.30455249998228L65.04241333333333,36.247828131813144L65.41649333333334,36.191764947963456L65.69705333333333,36.13635148275463L65.88409333333334,36.08157653408662L66.21141333333334,36.02742915590704L66.30493333333334,35.973898650936995L66.58549333333333,35.92097456364407L66.67901333333333,35.86864667345088L66.81929333333333,35.81690498817275L66.86605333333334,35.76573973767322L66.95957333333334,35.715141367730325L67.33365333333333,35.66510053410422L67.38041333333334,35.61560809680094L67.52069333333333,35.56665511452143L67.84801333333333,35.51823283929198L67.98829333333333,35.47033271126678L68.40913333333333,35.42294635369834L68.59617333333334,35.37606556806728L68.73645333333333,35.32968232936763L68.78321333333334,35.28378878154063L69.20405333333333,35.23837723305216L69.25081333333334,35.193440152608076L69.43785333333334,35.14897016500281L69.48461333333334,35.104960047096654L69.53137333333333,35.061402723916544L69.57813333333334,35.0182912648767L69.76517333333334,34.97561888011306L69.81193333333334,34.93337891693065L69.95221333333333,34.89156485635654L69.99897333333332,34.850170309797136L70.37305333333333,34.809189015794786L70.56009333333333,34.76861483688058L70.65361333333333,34.72844175652091L70.74713333333334,34.68866387615301L70.79389333333334,34.64927541230799L71.21473333333333,34.61027069381685L71.35501333333333,34.57164415909811L71.72909333333332,34.53339035352365L71.82261333333332,34.495503926859755L72.00965333333333,34.45797963078189L72.05641333333334,34.42081231645928L72.29021333333333,34.38399693220889L72.61753333333334,34.34752852121457L73.13189333333334,34.31140221931065L73.22541333333334,34.27561325282747L73.50597333333333,34.24015693649626L73.64625333333333,34.20502867141256L73.73977333333335,34.170223943055184L73.92681333333334,34.13573831935944L74.11385333333332,34.10156744884381L74.20737333333332,34.067707058786034L74.44117333333334,34.03415295344979L74.48793333333333,34.00090101235828L74.53469333333334,33.96794718861448L74.90877333333333,33.93528750726587L75.18933333333334,33.902918063712775L75.37637333333333,33.87083502215896L75.42313333333333,33.83903461410262L75.46989333333333,33.80751313686693L75.89073333333333,33.77626695216929L76.12453333333335,33.74529248472749L76.77917333333333,33.71458622090174L76.87269333333333,33.68414470737212L77.80789333333333,33.65396454984953L77.85465333333333,33.62404241181989L78.04169333333334,33.594375013319784L78.08845333333333,33.56495912974374L78.13521333333334,33.53579159068108L78.97689333333334,33.506869278782226L79.21069333333334,33.4781891286531L79.53801333333332,33.44974812577723L79.58477333333333,33.42154330546492L79.86533333333334,33.393571751827515L79.95885333333334,33.36583059677756L80.19265333333333,33.33831701905342L80.28617333333332,33.31102824326749L80.56673333333333,33.283961538977195L81.40841333333333,33.25711421977938L81.50193333333333,33.23048364242577L81.59545333333334,33.20406720595954L81.96953333333333,33.17786235087369L82.10981333333332,33.151866558287466L82.48389333333333,33.12607734914469L82.62417333333333,33.100492283428814L82.76445333333332,33.07510895939805L83.37233333333333,33.04992501283752L83.69965333333333,33.02493811632934L83.98021333333332,33.00014597853936L84.16725333333333,32.97554634352058L84.26077333333333,32.951136990032765L84.30753333333334,32.92691573087751L84.58809333333335,32.90288041224837L85.05569333333332,32.879028913096256L85.28949333333334,32.85535914450917L85.33625333333333,32.831869049105315L85.47653333333334,32.80855660044115L85.75709333333333,32.78541980243137L85.85061333333334,32.762456688782926L85.99089333333333,32.73966532244098L86.13117333333334,32.717043795047665L86.27145333333333,32.694590226412835L86.31821333333333,32.67230276399539L87.15989333333334,32.65017958239816L87.86129333333334,32.62821888287145L88.56269333333333,32.606418892829225L88.70297333333333,32.58477786537483L88.74973333333332,32.56329407883734L88.84325333333334,32.54196583631792L88.89001333333334,32.52079146524586L89.87197333333333,32.49976931694408L89.91873333333334,32.478897766204064L90.15253333333334,32.45817521086972L90.29281333333333,32.43760007142994L90.47985333333332,32.41717079062032L90.57337333333332,32.396885833032314L90.76041333333333,32.37674368473169L90.94745333333333,32.35674285288399L91.13449333333332,32.33688186538845L92.30349333333334,32.31715927051923L92.35025333333333,32.29757363657408L92.86461333333332,32.2781235515304L93.23869333333333,32.25880762270794L93.28545333333334,32.23962447643928L93.42573333333333,32.22057275774601L93.51925333333332,32.20165113002209L93.56601333333333,32.182858274723664L93.98685333333333,32.16419289106478L94.31417333333334,32.14565369571953L95.01557333333334,32.12723942253003L95.06233333333334,32.1089488222205L95.20261333333333,32.09078066211636L95.52993333333333,32.07273372586998L96.09105333333332,32.05480681319071L96.32485333333334,32.03699873958115L96.37161333333333,32.01930833607802L96.46513333333333,32.00173444899855L96.79245333333334,31.984275939691436L97.11977333333333,31.96693168429284L97.16653333333333,31.949700573487174L97.58737333333333,31.932581512272503L97.77441333333333,31.915573419730258L97.86793333333333,31.898675228799615L98.05497333333334,31.88188588605623L98.47581333333332,31.865204351494935L98.80313333333334,31.84862959831688L98.84989333333333,31.8321606127204L99.08369333333333,31.81579639369612L99.45777333333334,31.799535952825973L99.87861333333333,31.783378314085418L99.92537333333334,31.767322513650406L100.11241333333334,31.751367599706537L100.34621333333334,31.735512632263436L100.48649333333334,31.7197566829711L100.58001333333334,31.704098834940535L100.72029333333333,31.68853818256733L100.86057333333333,31.673073831358757L101.04761333333333,31.657704897763402L101.42169333333332,31.642430509005113L101.79577333333333,31.62724980291865L101.98281333333333,31.61216192778902L102.12309333333334,31.59716604219386L102.16985333333334,31.582261314848118L102.45041333333333,31.567446924452078L102.49717333333334,31.552722059541725L102.87125333333334,31.538085918342173L103.05829333333334,31.52353770862314L103.10505333333333,31.50907664755753L103.15181333333334,31.494701961582383L103.24533333333333,31.480412886262076L103.38561333333334,31.466208666154387L103.71293333333332,31.452088554678216L103.75969333333333,31.43805181398436L104.13377333333334,31.424097714828065L104.18053333333333,31.410225536444088L104.60137333333334,31.396434566423657L104.78841333333334,31.382724100593833L104.88193333333334,31.369093442898695L105.02221333333333,31.35554190528297L105.25601333333334,31.34206880757718L105.30277333333333,31.328673477385056L105.39629333333333,31.315355249972733L105.44305333333334,31.30211346816012L105.48981333333333,31.28894748221376L105.72361333333333,31.275856649741623L106.37825333333332,31.262840335589683L106.79909333333333,31.249897911740504L107.07965333333334,31.23702875721298L107.40697333333333,31.224232257964246L107.45373333333333,31.2115078067929L107.87457333333333,31.198854803244256L108.20189333333335,31.186272653516593L108.62273333333333,31.173760770369377L108.76301333333333,31.161318573032965L109.09033333333333,31.14894548711953L109.18385333333333,31.136640944535937L109.37089333333333,31.12440438339753L109.83849333333333,31.112235247943527L109.88525333333332,31.100132988453872L110.02553333333334,31.08809706116745L110.25933333333333,31.07612692820146L110.44637333333333,31.064222057472264L111.05425333333334,31.052381922617457L111.14777333333333,31.040606002918977L111.19453333333333,31.02889378322806L111.47509333333333,31.01724475389034L111.52185333333334,31.00565841067364L111.56861333333333,30.994134254695137L111.66213333333333,30.982671792351297L112.31677333333333,30.97127053524798L113.15845333333334,30.959930000131866L113.43901333333334,30.948649708822977L113.76633333333334,30.937429188148364L114.04689333333333,30.926267969876648L114.23393333333334,30.915165590653835L114.32745333333334,30.90412159193975L114.42097333333334,30.89313551994582L114.70153333333333,30.88220692557372L114.84181333333332,30.871335364354746L114.93533333333333,30.860520396390562L115.07561333333334,30.84976158629439L115.21589333333333,30.839058503133444L115.35617333333333,30.8284107203721L115.77701333333333,30.817817815815857L115.87053333333333,30.80727937155636L116.43165333333333,30.79679497391714L116.47841333333334,30.786364213400088L116.52517333333333,30.7759866846329L117.17981333333333,30.765661986317273L117.36685333333334,30.755389721177778L117.55389333333333,30.745169495911647L117.74093333333333,30.73500092113913L117.78769333333332,30.724883611354798L117.92797333333334,30.71481718487957L118.02149333333334,30.70480126381308L118.11501333333334,30.694835473987215L118.48909333333334,30.68491944492013L118.58261333333334,30.67505280977107L118.72289333333333,30.665235205295453L118.86317333333334,30.655466271801096L119.00345333333333,30.64574565310503L119.09697333333334,30.63607299649057L119.23725333333334,30.626447952665277L119.37753333333333,30.616870175719697L120.12569333333333,30.6073393230863L120.45301333333333,30.597855055499178L120.68681333333333,30.58841703695475L120.73357333333333,30.579024934672052L120.78033333333333,30.56967841905471L120.87385333333333,30.560377163652646L120.92061333333334,30.5511208451248L121.01413333333333,30.54190914320195L121.10765333333333,30.532741740650607L121.29469333333333,30.523618323236995L121.48173333333332,30.51453857969167L121.71553333333334,30.505502201674584L121.80905333333334,30.49650888374088L122.13637333333334,30.487558323306835L122.22989333333334,30.478650220616487L122.27665333333334,30.469784278708772L122.51045333333333,30.460960203384833L122.69749333333334,30.45217770317611L122.93129333333333,30.443436489312752L123.02481333333333,30.434736275692263L123.07157333333333,30.42607677884911L123.53917333333334,30.4174577179241L123.58593333333333,30.40887881463465L123.77297333333333,30.400339793245177L123.91325333333334,30.39184038053828L124.05353333333333,30.383380305785828L124.10029333333334,30.374959300720636L124.24057333333333,30.366577099508802L124.28733333333334,30.358233438722003L124.38085333333333,30.349928057310326L124.61465333333334,30.341660696575573L124.66141333333334,30.333431100144843L124.98873333333333,30.325239013944497L125.03549333333333,30.317084186174114L125.22253333333333,30.308966367281695L125.31605333333333,30.300885309938064L125.40957333333333,30.292840769012503L125.59661333333332,30.28483250154838L126.06421333333333,30.27686026673881L126.15773333333333,30.268923825903315L126.25125333333332,30.261022942464074L126.29801333333333,30.253157381923046L126.48505333333334,30.245326911839076L126.62533333333333,30.237531301805276L126.99941333333334,30.22977032342713L127.18645333333333,30.222043750300227L127.84109333333333,30.21435135798882L128.02813333333333,30.2066929240044L128.12165333333334,30.199068227784746L128.35545333333332,30.191477050672965L128.40221333333332,30.183919175897046L128.49573333333333,30.176394388549525L128.58925333333335,30.168902475567606L128.63601333333332,30.16144322571329L128.72953333333334,30.154016429553874L128.82305333333332,30.1466218794429L128.86981333333333,30.139259369500852L129.19713333333334,30.131928695596606L129.33741333333333,30.124629655328874L129.57121333333333,30.117362048007895L130.13233333333332,30.110125674637352L130.31937333333335,30.10292033789661L130.45965333333334,30.095745842123048L130.92725333333334,30.08860199329484L131.20781333333332,30.08148859901342L131.25457333333333,30.07440546848708L131.34809333333334,30.067352412513678L131.48837333333333,30.060329243464576L131.62865333333335,30.05333577526796L131.67541333333332,30.04637182339296L131.72217333333333,30.039437204833696L132.18977333333333,30.032531738093354L132.23653333333334,30.02565524316894L132.28329333333335,30.018807541535786L132.37681333333333,30.011988456132464L132.93793333333335,30.005197811345816L132.98469333333333,29.998435432996008L133.03145333333333,29.991701148322264L133.07821333333334,29.984994785968205L133.45229333333333,29.978316175967574L133.87313333333333,29.971665149730413L134.66805333333335,29.965041540028892L135.32269333333335,29.95844518098373L135.50973333333334,29.95187590805056L135.55649333333332,29.945333558006634L135.65001333333333,29.938817968937393L136.02409333333333,29.932328980223573L136.11761333333334,29.925866432528125L136.30465333333333,29.91943016778363L136.77225333333334,29.913020029179492L137.14633333333333,29.90663586114952L137.19309333333334,29.90027750935969L137.70745333333335,29.89394482069588L138.08153333333334,29.88763764325181L138.36209333333335,29.881355826317414L138.40885333333333,29.875099220366668L138.50237333333334,29.868867677046264L138.59589333333332,29.862661049164114L138.82969333333332,29.856479190677994L139.71813333333333,29.85032195668423L139.99869333333334,29.84418920340676L140.04545333333334,29.838080788186105L140.51305333333332,29.831996569468632L140.60657333333336,29.82593640679571L140.74685333333335,29.819900160793296L140.79361333333335,29.81388769316146L140.84037333333333,29.8078988666639L141.30797333333334,29.801933545118015L141.35473333333331,29.795991593384525L141.49501333333333,29.79007287735768L141.77557333333334,29.78417726395528L142.00937333333334,29.7783046211091L142.10289333333333,29.772454817755055L142.19641333333334,29.766627723823788L142.28993333333332,29.76082321023124L142.71077333333332,29.755041148869278L142.89781333333332,29.74928141259652L143.08485333333334,29.74354387522937L143.17837333333335,29.73782841153265L143.31865333333334,29.73213489721117L143.73949333333334,29.72646320890053L143.78625333333332,29.72081322415874L143.97329333333332,29.71518482145735L144.25385333333335,29.70957788017307L144.34737333333334,29.7039922805794L144.90849333333333,29.698427903838176L144.95525333333333,29.692884631991515L145.00201333333334,29.687362347953552L145.04877333333332,29.681860935502367L145.18905333333333,29.676380279272184L145.37609333333336,29.670920264745412L145.65665333333334,29.665480778244795L145.70341333333334,29.660061706925852L145.84369333333333,29.654662938769164L146.21777333333333,29.649284362572914L146.45157333333333,29.64392586794536L146.59185333333335,29.638587345297584L146.73213333333334,29.63326868583603L146.77889333333334,29.6279697815556L147.05945333333332,29.622690525232102L147.15297333333334,29.617430810415602L147.43353333333332,29.612190531423323L147.57381333333333,29.606969583332518L147.71409333333332,29.601767861973915L147.76085333333333,29.596585263925043L147.94789333333335,29.59142168650318L148.83633333333333,29.586277027759067L149.02337333333335,29.581151186470297L149.11689333333334,29.57604406213465L149.35069333333334,29.57095555496417L149.58449333333334,29.565885565878155L150.1923733333333,29.560833996497625L150.37941333333333,29.55580074913857L150.51969333333335,29.550785726805998L151.22109333333333,29.545788833188077L151.73545333333334,29.540809972649697L151.78221333333335,29.53584905022702L151.92249333333334,29.530905971621287L152.20305333333332,29.52598064319299L152.53037333333333,29.52107297195635L152.5771333333333,29.516182865573366L152.6238933333333,29.511310232348457L152.67065333333335,29.506454981222596L152.71741333333335,29.501617021767977L152.76417333333333,29.49679626418249L153.13825333333332,29.491992619284357L154.21373333333335,29.487205998506774L154.26049333333333,29.482436313892592L154.30725333333334,29.477683478089084L154.63457333333332,29.472947404342783L155.14893333333333,29.468228006494346L155.24245333333334,29.463525198973414L155.80357333333333,29.458838896793754L155.85033333333334,29.454169015548064L155.99061333333333,29.44951547140322L156.0841333333333,29.444878181095305L156.13089333333332,29.440257061924882L156.22441333333336,29.43565203175209L157.11285333333333,29.431063008992016L157.34665333333334,29.426489912609963L157.48693333333335,29.421932662116877L157.62721333333334,29.417391177564678L158.04805333333334,29.41286537954183L158.09481333333332,29.408355189168763L158.37537333333333,29.403860528093375L158.4688933333333,29.39938131848683L158.51565333333332,29.394917483038935L158.79621333333336,29.390468944954144L158.93649333333335,29.38603562794686L159.21705333333333,29.38161745623764L159.31057333333334,29.377214354548695L159.40409333333332,29.372826248099962L159.54437333333334,29.36845306260483L159.96521333333334,29.364094724266174L160.19901333333334,29.359751159772205L160.29253333333332,29.355422296292776L160.33929333333333,29.35110806147496L160.38605333333334,29.34680838343966L160.90041333333332,29.342523190777406L161.36801333333335,29.33825241254457L161.74209333333334,29.333995978259704L162.53701333333333,29.32975381789965L162.86433333333335,29.325525861895912L162.91109333333333,29.321312041130863L163.05137333333332,29.317112286934208L163.51897333333335,29.312926531079263L163.79953333333333,29.30875470577957L163.98657333333333,29.30459674368511L164.22037333333333,29.30045257787887L164.31389333333334,29.296322141873514L164.40741333333332,29.29220536960779L164.50093333333334,29.28810219544312L164.59445333333332,29.28401255416034L164.78149333333334,29.2799363809562L164.82825333333335,29.275873611440232L164.96853333333334,29.271824181631278L165.24909333333335,29.26778802795435L165.34261333333333,29.263765087237427L165.48289333333332,29.259755296708217L165.85697333333331,29.25575859399104L165.95049333333336,29.251774917103624L165.99725333333333,29.24780420445416L166.04401333333334,29.24384639483802L166.41809333333333,29.239901427434884L167.1194933333333,29.23596924180573L167.21301333333335,29.2320497778897L167.30653333333333,29.22814297600126L167.40005333333335,29.224248776827324L167.49357333333333,29.220367121424225L167.91441333333333,29.216497951214897L168.10145333333332,29.212641207986085L168.70933333333335,29.208796833885433L168.89637333333334,29.204964771418698L169.78481333333335,29.20114496344706L170.48621333333332,29.197337353184384L170.53297333333333,29.1935418841944L170.81353333333334,29.18975850038797L170.86029333333335,29.185987146020707L170.95381333333336,29.18222776568999L171.09409333333335,29.178480304332528L171.32789333333332,29.174744707221855L171.46817333333334,29.17102091996548L171.51493333333332,29.167308888502614L171.60845333333333,29.163608559101412L172.35661333333334,29.159919878356753L172.68393333333333,29.15624279318747L172.87097333333332,29.15257725083409L173.1982933333333,29.148923198856338L173.24505333333335,29.14528058513076L173.57237333333333,29.141649357848127L173.71265333333332,29.138029465511558L174.83489333333333,29.134420856933556L174.97517333333334,29.13082348123408L175.30249333333333,29.127237287838327L175.44277333333332,29.12366222647395L175.48953333333333,29.12009824716933L175.5830533333333,29.116545300251065L175.62981333333335,29.113003336341833L175.95713333333333,29.109472306358057L176.05065333333334,29.10595216150795L176.56501333333333,29.102442853289034L176.79881333333333,29.098944333486436L177.21965333333333,29.0954565541703L177.31317333333334,29.091979467693985L177.40669333333332,29.08851302669188L177.59373333333332,29.085057184077264L177.73401333333334,29.08161189304043L178.34189333333333,29.07817710704652L178.38865333333334,29.07475277983348L178.43541333333334,29.071338865410148L178.71597333333332,29.067935318054335L179.09005333333332,29.06454209231067L179.37061333333335,29.0611591429888L179.41737333333333,29.05778642516145L179.46413333333334,29.05442389416232L179.65117333333333,29.051071505584684L179.88497333333333,29.047729215278835L180.21229333333332,29.044396979350733L180.58637333333334,29.04107475415998L180.77341333333334,29.037762496318027L180.96045333333333,29.03446016268629L181.05397333333335,29.031167710374437L181.33453333333333,29.02788509673851L181.47481333333332,29.024612279379237L181.56833333333333,29.021349216140255L181.6618533333333,29.018095865106478L181.75537333333335,29.01485218460207L181.89565333333334,29.01161813318908L182.12945333333334,29.008393669665583L182.69057333333333,29.00517875306397L182.92437333333334,29.00197334264942L183.15817333333334,28.998777397918087L183.99985333333333,28.995590878595596L184.18689333333336,28.992413744635336L184.32717333333335,28.98924595621687L184.56097333333332,28.986087473744426L184.84153333333333,28.982938257845184L184.88829333333334,28.979798269367738L185.07533333333333,28.97666746938063L185.16885333333332,28.973545819170795L185.44941333333335,28.9704332802418L185.49617333333333,28.96732981431273L185.77673333333334,28.96423538331628L186.10405333333333,28.961149949397544L186.38461333333333,28.958073474912545L186.52489333333335,28.95500592242638L186.80545333333333,28.95194725471236L187.31981333333331,28.9488974347501L187.41333333333333,28.94585642572425L187.74065333333334,28.942824191023107L187.88093333333333,28.939800694237253L188.02121333333335,28.936785899157965L188.11473333333333,28.93377976977596L188.34853333333334,28.930782270280147L189.09669333333335,28.927793365055994L189.19021333333333,28.92481301868442L189.23697333333334,28.921841195940267L189.42401333333333,28.91887786179123L189.47077333333334,28.915922981396132L189.65781333333334,28.912976520104056L189.75133333333332,28.910038443452834L190.03189333333333,28.90710871716764L190.0786533333333,28.90418730716009L190.40597333333335,28.9012741795266L190.96709333333334,28.898369300547245L191.2008933333333,28.895472636684698L191.34117333333336,28.892584154582806L191.76201333333333,28.88970382106528L191.80877333333333,28.88683160313482L192.08933333333334,28.8839674679716L192.13609333333332,28.881111382932165L192.79073333333335,28.878263315548352L192.97777333333335,28.875423233525957L193.07129333333333,28.872591104743698L193.16481333333334,28.869766897251942L193.30509333333333,28.866950579271663L193.44537333333332,28.864142119193236L193.86621333333335,28.86134148557537L194.14677333333333,28.85854864714395L194.24029333333334,28.855763572790913L194.75465333333332,28.852986231573166L194.80141333333333,28.850216592711536L195.08197333333334,28.847454625589613L195.40929333333332,28.844700299752663L196.53153333333333,28.841953584906673L196.67181333333335,28.839214450917144L196.81209333333334,28.83648286780822L196.90561333333332,28.833758805761526L197.88757333333334,28.83104223511505L198.02785333333333,28.828333126362388L198.21489333333332,28.8256314501514L198.26165333333333,28.82293717728346L198.30841333333333,28.820250278712386L198.5889733333333,28.81757072554329L198.72925333333333,28.814898489031844L198.82277333333334,28.812233540583097L199.24361333333334,28.809575851750687L199.43065333333334,28.806925394235694L199.57093333333333,28.804282139885704L199.80473333333336,28.801646060694114L200.17881333333335,28.79901712879874L200.36585333333335,28.79639531648143L200.45937333333333,28.793780596166698L200.55289333333334,28.7911729404209L201.16077333333334,28.788572321951573L201.25429333333335,28.785978713606145L201.39457333333334,28.783392088371347L201.95569333333333,28.780812419372143L202.14273333333333,28.778239679870985L202.37653333333336,28.77567384326676L202.47005333333334,28.773114883094138L202.93765333333334,28.770562773022466L203.03117333333333,28.768017486855086L203.12469333333334,28.76547899852846L203.73257333333333,28.762947282111316L204.01313333333334,28.760422311803627L204.48073333333332,28.757904061936117L204.71453333333335,28.755392506969304L205.04185333333334,28.7528876214924L205.18213333333333,28.750389380222902L205.27565333333334,28.74789775800565L206.21085333333335,28.745412729811925L206.25761333333332,28.742934270738704L206.30437333333333,28.740462356007974L206.53817333333333,28.737996960965805L206.63169333333332,28.73553806108167L206.91225333333333,28.733085631947635L207.09929333333335,28.73063964927752L207.47337333333334,28.728200088906394L207.52013333333335,28.725766926789515L207.75393333333332,28.72334013900167L207.80069333333333,28.72091970173657L207.98773333333332,28.71850559130601L208.50209333333333,28.716097784139144L208.78265333333334,28.713696256781727L209.06321333333332,28.711300985895395L209.2034933333333,28.708911948257082L209.71785333333335,28.70652912075813L209.90489333333335,28.704152480403728L210.09193333333334,28.70178200431206L210.18545333333333,28.69941766971373L210.41925333333333,28.697059453951137L210.60629333333333,28.694707334477556L210.84009333333336,28.692361288856667L211.07389333333333,28.690021294761817L211.26093333333333,28.687687329975287L211.30769333333333,28.68535937238775L211.40121333333335,28.683037399997545L211.82205333333332,28.68072139090996L211.86881333333332,28.67841132333666L212.38317333333333,28.67610717559512L212.47669333333334,28.673808926107732L212.52345333333332,28.671516553401496L212.85077333333334,28.669230036107106L212.94429333333332,28.666949352958465L212.99105333333333,28.664674482792066L213.03781333333333,28.662405404546256L213.0845733333333,28.660142097260852L213.27161333333333,28.657884540076253L213.36513333333335,28.655632712233075L214.39385333333334,28.65338659307133L214.53413333333333,28.651146162030145L215.18877333333333,28.64891139864674L215.42257333333333,28.646682282556277L215.4693333333333,28.644458793490905L215.56285333333335,28.642240911279444L215.93693333333334,28.640028615846735L216.17073333333335,28.63782188721303L216.49805333333333,28.63562070549338L217.80733333333333,28.633425050897223L218.13465333333335,28.63123490372778L218.64901333333333,28.629050244381258L218.88281333333333,28.626871053346743L219.30365333333336,28.624697311205235L219.35041333333334,28.62252899862945L219.81801333333334,28.62036609638294L219.86477333333332,28.61820858531984L219.91153333333332,28.616056446384203L220.00505333333334,28.613909660609508L220.09857333333332,28.61176820911802L220.19209333333333,28.609632073120604L220.2388533333333,28.607501233915748L220.28561333333332,28.60537567288937L220.37913333333336,28.603255371514305L221.22081333333333,28.60114031134954L221.45461333333333,28.59903047404001L221.68841333333336,28.596925841315958L221.82869333333335,28.594826394992417L221.96897333333334,28.592732116968747L222.20277333333334,28.590642989228257L222.71713333333332,28.588558993837456L223.13797333333335,28.586480112945942L223.27825333333334,28.584406328785477L223.32501333333335,28.582337623669947L223.74585333333332,28.5802739799946L224.02641333333335,28.578215380235683L224.72781333333333,28.576161806949962L224.77457333333334,28.574113242774267L225.05513333333332,28.572069670425066L225.2421733333333,28.570031072697894L225.38245333333333,28.567997432467013L225.66301333333334,28.56596873268496L225.75653333333332,28.56394495638205L226.17737333333332,28.561926086665885L226.36441333333332,28.55991210672105L226.64497333333335,28.557902999808586L226.87877333333333,28.555898749265666L227.15933333333334,28.55389933850485L227.34637333333333,28.55190475101404L227.58017333333333,28.549914970355903L227.90749333333335,28.547929980167293L228.09453333333335,28.545949764159186L228.51537333333332,28.543974306115878L228.65565333333333,28.542003589894804L229.21677333333335,28.540037599426103L229.54409333333334,28.53807631871207L229.68437333333333,28.53611973182696L229.77789333333334,28.53416782291644L229.82465333333332,28.532220576197282L230.0116933333333,28.530277975956718L230.05845333333332,28.528340006552497L230.10521333333335,28.52640665241209L230.66633333333334,28.524477898032348L230.94689333333332,28.52255372797947L230.99365333333333,28.520634126888133L231.0871733333333,28.51871907946142L231.32097333333334,28.516808570470346L231.36773333333335,28.514902584753507L231.50801333333334,28.513001107216628L231.78857333333335,28.51110412283238L231.97561333333334,28.509211616639714L232.30293333333333,28.50732357374377L232.77053333333333,28.50543997931545L233.05109333333334,28.503560818590813L233.23813333333334,28.501686076871117L233.37841333333333,28.499815739522194L233.75249333333335,28.497949791974094L233.84601333333333,28.49608821972086L234.45389333333333,28.494231008320128L234.64093333333332,28.49237814339271L234.68769333333333,28.49052961062233L235.57613333333333,28.488685395755265L235.62289333333334,28.486845484599936L235.76317333333333,28.485009863026672L236.0904933333333,28.48317851696738L236.18401333333335,28.481351432415035L236.55809333333335,28.479528595423492L236.65161333333333,28.477709992107304L236.69837333333334,28.475895608640972L237.30625333333336,28.474085431258963L237.39977333333334,28.472279446255406L237.44653333333335,28.470477639983468L237.86737333333335,28.468679998855375L238.00765333333334,28.466886509341826L238.10117333333332,28.46509715797192L238.52201333333335,28.463311931332644L238.66229333333334,28.461530816068514L238.75581333333335,28.459753798881614L238.84933333333333,28.457980866530914L239.41045333333332,28.45621200583214L240.20537333333334,28.45444720365745L240.43917333333334,28.45268644693507L240.90677333333332,28.450929722649118L241.18733333333333,28.4491770178392L241.51465333333334,28.4474283196001L241.79521333333332,28.44568361508167L241.88873333333333,28.443942891488277L242.07577333333333,28.442206136078664L242.40309333333335,28.440473336165688L242.44985333333335,28.438744479115897L242.49661333333333,28.437019552349433L242.96421333333333,28.435298543339478L243.71237333333335,28.433581439612322L243.94617333333332,28.43186822874685L244.17997333333332,28.430158898374202L244.41377333333332,28.428453436177776L244.46053333333333,28.426751829892677L244.55405333333331,28.425054067305634L244.69433333333333,28.423360136254495L245.16193333333334,28.421670024628337L245.34897333333333,28.419983720366805L245.39573333333334,28.418301211460115L245.67629333333332,28.41662248594862L245.86333333333334,28.414947531922707L245.91009333333335,28.413276337522312L246.28417333333334,28.41160889093699L246.37769333333333,28.40994518040528L246.42445333333333,28.408285194214766L246.47121333333334,28.406628920701632L246.56473333333332,28.404976348250443L246.7050133333333,28.403327465293987L246.75177333333332,28.401682260312935L246.79853333333332,28.400040721835573L246.84529333333333,28.398402838437676L247.03233333333336,28.396768598742188L247.12585333333334,28.39513799141881L247.26613333333333,28.393511005184184L247.31289333333334,28.39188762880118L247.35965333333334,28.390267851079027L247.40641333333335,28.388651660872792L247.49993333333333,28.387039047083334L247.64021333333332,28.385429998657017L247.68697333333333,28.38382450458539L247.96753333333334,28.382222553905194L248.24809333333334,28.380624135697836L248.34161333333336,28.379029239089295L248.48189333333335,28.377437853249987L249.04301333333333,28.375849967394327L249.41709333333336,28.374265570780775L249.4638533333333,28.372684652711246L249.51061333333334,28.37110720253133L249.79117333333335,28.3695332096297L250.11849333333333,28.367962663438114L250.35229333333334,28.366395553431083L250.67961333333335,28.364831869125677L250.86665333333335,28.363271600081408L251.10045333333335,28.36171473589984L251.28749333333334,28.360161266224466L251.56805333333332,28.358611180740578L251.66157333333334,28.357064469174976L251.80185333333333,28.35552112129568L252.12917333333334,28.353981126911822L252.40973333333332,28.352444475873554L252.55001333333334,28.350911158071543L252.64353333333332,28.349381163437005L252.69029333333333,28.34785448194149L252.92409333333333,28.34633110359653" style="fill: none;" fill="none"></path></g></g></g></g><g opacity="0.2"><g><g><g><path stroke="rgb(238, 51, 119)" stroke-width="2px" d="M24.03389333333333,164.30769230769232L24.641773333333337,164.30769230769232L24.92233333333333,164.30769230769232L25.670493333333333,164.30769230769232L25.764013333333335,164.30769230769232L25.904293333333335,164.30769230769232L25.997813333333333,164.30769230769232L26.27837333333333,164.30769230769232L26.41865333333333,164.30769230769232L27.120053333333335,164.30769230769232L27.260333333333335,164.30769230769232L27.49413333333333,164.30769230769232L27.868213333333333,27.384615384615387L28.195533333333334,27.384615384615387L28.569613333333336,27.384615384615387L28.709893333333333,27.384615384615387L28.756653333333336,27.384615384615387L29.083973333333333,27.384615384615387L29.31777333333333,27.384615384615387L29.691853333333334,27.384615384615387L30.299733333333332,27.384615384615387L30.814093333333332,27.384615384615387L31.047893333333334,27.384615384615387L31.188173333333335,27.384615384615387L31.609013333333333,27.384615384615387L31.655773333333332,27.384615384615387L32.12337333333333,27.384615384615387L32.357173333333336,27.384615384615387L32.450693333333334,27.384615384615387L32.49745333333333,27.384615384615387L32.684493333333336,27.384615384615387L33.058573333333335,27.384615384615387L33.432653333333334,27.384615384615387L33.47941333333333,27.384615384615387L33.713213333333336,27.384615384615387L34.22757333333333,27.384615384615387L34.50813333333333,27.384615384615387L34.741933333333336,27.384615384615387L34.88221333333333,27.384615384615387L35.44333333333333,27.384615384615387L35.72389333333333,27.384615384615387L35.95769333333333,27.384615384615387L36.28501333333333,27.384615384615387L36.472053333333335,27.384615384615387L36.56557333333333,27.384615384615387L37.454013333333336,27.384615384615387L37.68781333333333,27.384615384615387L37.73457333333333,27.384615384615387L37.96837333333333,27.384615384615387L38.202173333333334,27.384615384615387L38.29569333333333,27.384615384615387L38.66977333333333,27.384615384615387L38.71653333333333,27.384615384615387L39.04385333333333,27.384615384615387L39.230893333333334,27.384615384615387L39.65173333333333,27.384615384615387L40.02581333333334,27.384615384615387L40.77397333333333,27.384615384615387L40.961013333333334,27.384615384615387L41.241573333333335,27.384615384615387L41.42861333333333,27.384615384615387L41.522133333333336,27.384615384615387L43.48605333333333,27.384615384615387L43.53281333333333,27.384615384615387L43.626333333333335,27.384615384615387L43.90689333333333,27.384615384615387L44.327733333333335,27.384615384615387L44.42125333333333,27.384615384615387L44.46801333333333,27.384615384615387L44.608293333333336,27.384615384615387L44.88885333333334,27.384615384615387L45.309693333333335,27.384615384615387L45.44997333333334,27.384615384615387L45.49673333333334,27.384615384615387L45.96433333333333,27.384615384615387L46.759253333333334,27.384615384615387L46.85277333333333,27.384615384615387L47.50741333333333,27.384615384615387L47.741213333333334,27.384615384615387L47.83473333333333,27.384615384615387L47.97501333333334,27.384615384615387L48.34909333333333,27.384615384615387L48.62965333333333,27.384615384615387L48.72317333333333,27.384615384615387L48.86345333333333,27.384615384615387L49.14401333333333,27.384615384615387L49.377813333333336,27.384615384615387L49.84541333333333,27.384615384615387L50.125973333333334,27.384615384615387L50.406533333333336,27.384615384615387L50.59357333333334,27.384615384615387L50.87413333333334,27.384615384615387L50.96765333333334,27.384615384615387L51.01441333333334,27.384615384615387L51.10793333333333,27.384615384615387L51.20145333333333,27.384615384615387L51.24821333333333,27.384615384615387L51.48201333333333,27.384615384615387L51.52877333333333,27.384615384615387L51.94961333333333,27.384615384615387L52.23017333333333,27.384615384615387L52.32369333333333,27.384615384615387L52.55749333333333,27.384615384615387L52.791293333333336,27.384615384615387L52.884813333333334,27.384615384615387L53.445933333333336,27.384615384615387L53.77325333333333,27.384615384615387L53.82001333333333,27.384615384615387L53.91353333333333,27.384615384615387L54.00705333333333,27.384615384615387L54.05381333333333,27.384615384615387L54.14733333333333,27.384615384615387L54.70845333333333,27.384615384615387L54.848733333333335,27.384615384615387L55.03577333333333,27.384615384615387L55.176053333333336,27.384615384615387L55.31633333333333,27.384615384615387L55.503373333333336,27.384615384615387L55.550133333333335,27.384615384615387L55.73717333333334,27.384615384615387L55.97097333333333,27.384615384615387L56.01773333333334,27.384615384615387L56.48533333333333,27.384615384615387L56.67237333333333,27.384615384615387L56.81265333333333,27.384615384615387L57.18673333333333,27.384615384615387L57.37377333333333,27.384615384615387L57.51405333333333,27.384615384615387L57.560813333333336,27.384615384615387L57.607573333333335,27.384615384615387L57.934893333333335,27.384615384615387L58.215453333333336,27.384615384615387L58.308973333333334,27.384615384615387L58.35573333333333,27.384615384615387L58.542773333333336,27.384615384615387L58.72981333333334,27.384615384615387L58.87009333333334,27.384615384615387L58.916853333333336,27.384615384615387L58.963613333333335,27.384615384615387L59.15065333333333,27.384615384615387L59.57149333333333,27.384615384615387L59.75853333333333,27.384615384615387L59.80529333333333,27.384615384615387L59.85205333333333,27.384615384615387L59.94557333333333,27.384615384615387L59.992333333333335,27.384615384615387L60.272893333333336,27.384615384615387L60.45993333333333,27.384615384615387L60.50669333333333,27.384615384615387L60.600213333333336,27.384615384615387L60.693733333333334,27.384615384615387L60.83401333333333,27.384615384615387L60.88077333333334,27.384615384615387L60.927533333333336,27.384615384615387L60.974293333333335,27.384615384615387L61.11457333333333,27.384615384615387L61.301613333333336,27.384615384615387L61.53541333333334,27.384615384615387L61.58217333333334,27.384615384615387L61.628933333333336,27.384615384615387L61.90949333333333,27.384615384615387L62.704413333333335,27.384615384615387L62.89145333333333,27.384615384615387L62.984973333333336,27.384615384615387L63.21877333333333,27.384615384615387L64.34101333333334,27.384615384615387L64.43453333333333,27.384615384615387L64.66833333333334,27.384615384615387L64.76185333333333,27.384615384615387L64.94889333333333,27.384615384615387L65.04241333333333,27.384615384615387L65.41649333333334,27.384615384615387L65.69705333333333,27.384615384615387L65.88409333333334,27.384615384615387L66.21141333333334,27.384615384615387L66.30493333333334,27.384615384615387L66.58549333333333,27.384615384615387L66.67901333333333,27.384615384615387L66.81929333333333,27.384615384615387L66.86605333333334,27.384615384615387L66.95957333333334,27.384615384615387L67.33365333333333,27.384615384615387L67.38041333333334,27.384615384615387L67.52069333333333,27.384615384615387L67.84801333333333,27.384615384615387L67.98829333333333,27.384615384615387L68.40913333333333,27.384615384615387L68.59617333333334,27.384615384615387L68.73645333333333,27.384615384615387L68.78321333333334,27.384615384615387L69.20405333333333,27.384615384615387L69.25081333333334,27.384615384615387L69.43785333333334,27.384615384615387L69.48461333333334,27.384615384615387L69.53137333333333,27.384615384615387L69.57813333333334,27.384615384615387L69.76517333333334,27.384615384615387L69.81193333333334,27.384615384615387L69.95221333333333,27.384615384615387L69.99897333333332,27.384615384615387L70.37305333333333,27.384615384615387L70.56009333333333,27.384615384615387L70.65361333333333,27.384615384615387L70.74713333333334,27.384615384615387L70.79389333333334,27.384615384615387L71.21473333333333,27.384615384615387L71.35501333333333,27.384615384615387L71.72909333333332,27.384615384615387L71.82261333333332,27.384615384615387L72.00965333333333,27.384615384615387L72.05641333333334,27.384615384615387L72.29021333333333,27.384615384615387L72.61753333333334,27.384615384615387L73.13189333333334,27.384615384615387L73.22541333333334,27.384615384615387L73.50597333333333,27.384615384615387L73.64625333333333,27.384615384615387L73.73977333333335,27.384615384615387L73.92681333333334,27.384615384615387L74.11385333333332,27.384615384615387L74.20737333333332,27.384615384615387L74.44117333333334,27.384615384615387L74.48793333333333,27.384615384615387L74.53469333333334,27.384615384615387L74.90877333333333,27.384615384615387L75.18933333333334,27.384615384615387L75.37637333333333,27.384615384615387L75.42313333333333,27.384615384615387L75.46989333333333,27.384615384615387L75.89073333333333,27.384615384615387L76.12453333333335,27.384615384615387L76.77917333333333,27.384615384615387L76.87269333333333,27.384615384615387L77.80789333333333,27.384615384615387L77.85465333333333,27.384615384615387L78.04169333333334,27.384615384615387L78.08845333333333,27.384615384615387L78.13521333333334,27.384615384615387L78.97689333333334,27.384615384615387L79.21069333333334,27.384615384615387L79.53801333333332,27.384615384615387L79.58477333333333,27.384615384615387L79.86533333333334,27.384615384615387L79.95885333333334,27.384615384615387L80.19265333333333,27.384615384615387L80.28617333333332,27.384615384615387L80.56673333333333,27.384615384615387L81.40841333333333,27.384615384615387L81.50193333333333,27.384615384615387L81.59545333333334,27.384615384615387L81.96953333333333,27.384615384615387L82.10981333333332,27.384615384615387L82.48389333333333,27.384615384615387L82.62417333333333,27.384615384615387L82.76445333333332,27.384615384615387L83.37233333333333,27.384615384615387L83.69965333333333,27.384615384615387L83.98021333333332,27.384615384615387L84.16725333333333,27.384615384615387L84.26077333333333,27.384615384615387L84.30753333333334,27.384615384615387L84.58809333333335,27.384615384615387L85.05569333333332,27.384615384615387L85.28949333333334,27.384615384615387L85.33625333333333,27.384615384615387L85.47653333333334,27.384615384615387L85.75709333333333,27.384615384615387L85.85061333333334,27.384615384615387L85.99089333333333,27.384615384615387L86.13117333333334,27.384615384615387L86.27145333333333,27.384615384615387L86.31821333333333,27.384615384615387L87.15989333333334,27.384615384615387L87.86129333333334,27.384615384615387L88.56269333333333,27.384615384615387L88.70297333333333,27.384615384615387L88.74973333333332,27.384615384615387L88.84325333333334,27.384615384615387L88.89001333333334,27.384615384615387L89.87197333333333,27.384615384615387L89.91873333333334,27.384615384615387L90.15253333333334,27.384615384615387L90.29281333333333,27.384615384615387L90.47985333333332,27.384615384615387L90.57337333333332,27.384615384615387L90.76041333333333,27.384615384615387L90.94745333333333,27.384615384615387L91.13449333333332,27.384615384615387L92.30349333333334,27.384615384615387L92.35025333333333,27.384615384615387L92.86461333333332,27.384615384615387L93.23869333333333,27.384615384615387L93.28545333333334,27.384615384615387L93.42573333333333,27.384615384615387L93.51925333333332,27.384615384615387L93.56601333333333,27.384615384615387L93.98685333333333,27.384615384615387L94.31417333333334,27.384615384615387L95.01557333333334,27.384615384615387L95.06233333333334,27.384615384615387L95.20261333333333,27.384615384615387L95.52993333333333,27.384615384615387L96.09105333333332,27.384615384615387L96.32485333333334,27.384615384615387L96.37161333333333,27.384615384615387L96.46513333333333,27.384615384615387L96.79245333333334,27.384615384615387L97.11977333333333,27.384615384615387L97.16653333333333,27.384615384615387L97.58737333333333,27.384615384615387L97.77441333333333,27.384615384615387L97.86793333333333,27.384615384615387L98.05497333333334,27.384615384615387L98.47581333333332,27.384615384615387L98.80313333333334,27.384615384615387L98.84989333333333,27.384615384615387L99.08369333333333,27.384615384615387L99.45777333333334,27.384615384615387L99.87861333333333,27.384615384615387L99.92537333333334,27.384615384615387L100.11241333333334,27.384615384615387L100.34621333333334,27.384615384615387L100.48649333333334,27.384615384615387L100.58001333333334,27.384615384615387L100.72029333333333,27.384615384615387L100.86057333333333,27.384615384615387L101.04761333333333,27.384615384615387L101.42169333333332,27.384615384615387L101.79577333333333,27.384615384615387L101.98281333333333,27.384615384615387L102.12309333333334,27.384615384615387L102.16985333333334,27.384615384615387L102.45041333333333,27.384615384615387L102.49717333333334,27.384615384615387L102.87125333333334,27.384615384615387L103.05829333333334,27.384615384615387L103.10505333333333,27.384615384615387L103.15181333333334,27.384615384615387L103.24533333333333,27.384615384615387L103.38561333333334,27.384615384615387L103.71293333333332,27.384615384615387L103.75969333333333,27.384615384615387L104.13377333333334,27.384615384615387L104.18053333333333,27.384615384615387L104.60137333333334,27.384615384615387L104.78841333333334,27.384615384615387L104.88193333333334,27.384615384615387L105.02221333333333,27.384615384615387L105.25601333333334,27.384615384615387L105.30277333333333,27.384615384615387L105.39629333333333,27.384615384615387L105.44305333333334,27.384615384615387L105.48981333333333,27.384615384615387L105.72361333333333,27.384615384615387L106.37825333333332,27.384615384615387L106.79909333333333,27.384615384615387L107.07965333333334,27.384615384615387L107.40697333333333,27.384615384615387L107.45373333333333,27.384615384615387L107.87457333333333,27.384615384615387L108.20189333333335,27.384615384615387L108.62273333333333,27.384615384615387L108.76301333333333,27.384615384615387L109.09033333333333,27.384615384615387L109.18385333333333,27.384615384615387L109.37089333333333,27.384615384615387L109.83849333333333,27.384615384615387L109.88525333333332,27.384615384615387L110.02553333333334,27.384615384615387L110.25933333333333,27.384615384615387L110.44637333333333,27.384615384615387L111.05425333333334,27.384615384615387L111.14777333333333,27.384615384615387L111.19453333333333,27.384615384615387L111.47509333333333,27.384615384615387L111.52185333333334,27.384615384615387L111.56861333333333,27.384615384615387L111.66213333333333,27.384615384615387L112.31677333333333,27.384615384615387L113.15845333333334,27.384615384615387L113.43901333333334,27.384615384615387L113.76633333333334,27.384615384615387L114.04689333333333,27.384615384615387L114.23393333333334,27.384615384615387L114.32745333333334,27.384615384615387L114.42097333333334,27.384615384615387L114.70153333333333,27.384615384615387L114.84181333333332,27.384615384615387L114.93533333333333,27.384615384615387L115.07561333333334,27.384615384615387L115.21589333333333,27.384615384615387L115.35617333333333,27.384615384615387L115.77701333333333,27.384615384615387L115.87053333333333,27.384615384615387L116.43165333333333,27.384615384615387L116.47841333333334,27.384615384615387L116.52517333333333,27.384615384615387L117.17981333333333,27.384615384615387L117.36685333333334,27.384615384615387L117.55389333333333,27.384615384615387L117.74093333333333,27.384615384615387L117.78769333333332,27.384615384615387L117.92797333333334,27.384615384615387L118.02149333333334,27.384615384615387L118.11501333333334,27.384615384615387L118.48909333333334,27.384615384615387L118.58261333333334,27.384615384615387L118.72289333333333,27.384615384615387L118.86317333333334,27.384615384615387L119.00345333333333,27.384615384615387L119.09697333333334,27.384615384615387L119.23725333333334,27.384615384615387L119.37753333333333,27.384615384615387L120.12569333333333,27.384615384615387L120.45301333333333,27.384615384615387L120.68681333333333,27.384615384615387L120.73357333333333,27.384615384615387L120.78033333333333,27.384615384615387L120.87385333333333,27.384615384615387L120.92061333333334,27.384615384615387L121.01413333333333,27.384615384615387L121.10765333333333,27.384615384615387L121.29469333333333,27.384615384615387L121.48173333333332,27.384615384615387L121.71553333333334,27.384615384615387L121.80905333333334,27.384615384615387L122.13637333333334,27.384615384615387L122.22989333333334,27.384615384615387L122.27665333333334,27.384615384615387L122.51045333333333,27.384615384615387L122.69749333333334,27.384615384615387L122.93129333333333,27.384615384615387L123.02481333333333,27.384615384615387L123.07157333333333,27.384615384615387L123.53917333333334,27.384615384615387L123.58593333333333,27.384615384615387L123.77297333333333,27.384615384615387L123.91325333333334,27.384615384615387L124.05353333333333,27.384615384615387L124.10029333333334,27.384615384615387L124.24057333333333,27.384615384615387L124.28733333333334,27.384615384615387L124.38085333333333,27.384615384615387L124.61465333333334,27.384615384615387L124.66141333333334,27.384615384615387L124.98873333333333,27.384615384615387L125.03549333333333,27.384615384615387L125.22253333333333,27.384615384615387L125.31605333333333,27.384615384615387L125.40957333333333,27.384615384615387L125.59661333333332,27.384615384615387L126.06421333333333,27.384615384615387L126.15773333333333,27.384615384615387L126.25125333333332,27.384615384615387L126.29801333333333,27.384615384615387L126.48505333333334,27.384615384615387L126.62533333333333,27.384615384615387L126.99941333333334,27.384615384615387L127.18645333333333,27.384615384615387L127.84109333333333,27.384615384615387L128.02813333333333,27.384615384615387L128.12165333333334,27.384615384615387L128.35545333333332,27.384615384615387L128.40221333333332,27.384615384615387L128.49573333333333,27.384615384615387L128.58925333333335,27.384615384615387L128.63601333333332,27.384615384615387L128.72953333333334,27.384615384615387L128.82305333333332,27.384615384615387L128.86981333333333,27.384615384615387L129.19713333333334,27.384615384615387L129.33741333333333,27.384615384615387L129.57121333333333,27.384615384615387L130.13233333333332,27.384615384615387L130.31937333333335,27.384615384615387L130.45965333333334,27.384615384615387L130.92725333333334,27.384615384615387L131.20781333333332,27.384615384615387L131.25457333333333,27.384615384615387L131.34809333333334,27.384615384615387L131.48837333333333,27.384615384615387L131.62865333333335,27.384615384615387L131.67541333333332,27.384615384615387L131.72217333333333,27.384615384615387L132.18977333333333,27.384615384615387L132.23653333333334,27.384615384615387L132.28329333333335,27.384615384615387L132.37681333333333,27.384615384615387L132.93793333333335,27.384615384615387L132.98469333333333,27.384615384615387L133.03145333333333,27.384615384615387L133.07821333333334,27.384615384615387L133.45229333333333,27.384615384615387L133.87313333333333,27.384615384615387L134.66805333333335,27.384615384615387L135.32269333333335,27.384615384615387L135.50973333333334,27.384615384615387L135.55649333333332,27.384615384615387L135.65001333333333,27.384615384615387L136.02409333333333,27.384615384615387L136.11761333333334,27.384615384615387L136.30465333333333,27.384615384615387L136.77225333333334,27.384615384615387L137.14633333333333,27.384615384615387L137.19309333333334,27.384615384615387L137.70745333333335,27.384615384615387L138.08153333333334,27.384615384615387L138.36209333333335,27.384615384615387L138.40885333333333,27.384615384615387L138.50237333333334,27.384615384615387L138.59589333333332,27.384615384615387L138.82969333333332,27.384615384615387L139.71813333333333,27.384615384615387L139.99869333333334,27.384615384615387L140.04545333333334,27.384615384615387L140.51305333333332,27.384615384615387L140.60657333333336,27.384615384615387L140.74685333333335,27.384615384615387L140.79361333333335,27.384615384615387L140.84037333333333,27.384615384615387L141.30797333333334,27.384615384615387L141.35473333333331,27.384615384615387L141.49501333333333,27.384615384615387L141.77557333333334,27.384615384615387L142.00937333333334,27.384615384615387L142.10289333333333,27.384615384615387L142.19641333333334,27.384615384615387L142.28993333333332,27.384615384615387L142.71077333333332,27.384615384615387L142.89781333333332,27.384615384615387L143.08485333333334,27.384615384615387L143.17837333333335,27.384615384615387L143.31865333333334,27.384615384615387L143.73949333333334,27.384615384615387L143.78625333333332,27.384615384615387L143.97329333333332,27.384615384615387L144.25385333333335,27.384615384615387L144.34737333333334,27.384615384615387L144.90849333333333,27.384615384615387L144.95525333333333,27.384615384615387L145.00201333333334,27.384615384615387L145.04877333333332,27.384615384615387L145.18905333333333,27.384615384615387L145.37609333333336,27.384615384615387L145.65665333333334,27.384615384615387L145.70341333333334,27.384615384615387L145.84369333333333,27.384615384615387L146.21777333333333,27.384615384615387L146.45157333333333,27.384615384615387L146.59185333333335,27.384615384615387L146.73213333333334,27.384615384615387L146.77889333333334,27.384615384615387L147.05945333333332,27.384615384615387L147.15297333333334,27.384615384615387L147.43353333333332,27.384615384615387L147.57381333333333,27.384615384615387L147.71409333333332,27.384615384615387L147.76085333333333,27.384615384615387L147.94789333333335,27.384615384615387L148.83633333333333,27.384615384615387L149.02337333333335,27.384615384615387L149.11689333333334,27.384615384615387L149.35069333333334,27.384615384615387L149.58449333333334,27.384615384615387L150.1923733333333,27.384615384615387L150.37941333333333,27.384615384615387L150.51969333333335,27.384615384615387L151.22109333333333,27.384615384615387L151.73545333333334,27.384615384615387L151.78221333333335,27.384615384615387L151.92249333333334,27.384615384615387L152.20305333333332,27.384615384615387L152.53037333333333,27.384615384615387L152.5771333333333,27.384615384615387L152.6238933333333,27.384615384615387L152.67065333333335,27.384615384615387L152.71741333333335,27.384615384615387L152.76417333333333,27.384615384615387L153.13825333333332,27.384615384615387L154.21373333333335,27.384615384615387L154.26049333333333,27.384615384615387L154.30725333333334,27.384615384615387L154.63457333333332,27.384615384615387L155.14893333333333,27.384615384615387L155.24245333333334,27.384615384615387L155.80357333333333,27.384615384615387L155.85033333333334,27.384615384615387L155.99061333333333,27.384615384615387L156.0841333333333,27.384615384615387L156.13089333333332,27.384615384615387L156.22441333333336,27.384615384615387L157.11285333333333,27.384615384615387L157.34665333333334,27.384615384615387L157.48693333333335,27.384615384615387L157.62721333333334,27.384615384615387L158.04805333333334,27.384615384615387L158.09481333333332,27.384615384615387L158.37537333333333,27.384615384615387L158.4688933333333,27.384615384615387L158.51565333333332,27.384615384615387L158.79621333333336,27.384615384615387L158.93649333333335,27.384615384615387L159.21705333333333,27.384615384615387L159.31057333333334,27.384615384615387L159.40409333333332,27.384615384615387L159.54437333333334,27.384615384615387L159.96521333333334,27.384615384615387L160.19901333333334,27.384615384615387L160.29253333333332,27.384615384615387L160.33929333333333,27.384615384615387L160.38605333333334,27.384615384615387L160.90041333333332,27.384615384615387L161.36801333333335,27.384615384615387L161.74209333333334,27.384615384615387L162.53701333333333,27.384615384615387L162.86433333333335,27.384615384615387L162.91109333333333,27.384615384615387L163.05137333333332,27.384615384615387L163.51897333333335,27.384615384615387L163.79953333333333,27.384615384615387L163.98657333333333,27.384615384615387L164.22037333333333,27.384615384615387L164.31389333333334,27.384615384615387L164.40741333333332,27.384615384615387L164.50093333333334,27.384615384615387L164.59445333333332,27.384615384615387L164.78149333333334,27.384615384615387L164.82825333333335,27.384615384615387L164.96853333333334,27.384615384615387L165.24909333333335,27.384615384615387L165.34261333333333,27.384615384615387L165.48289333333332,27.384615384615387L165.85697333333331,27.384615384615387L165.95049333333336,27.384615384615387L165.99725333333333,27.384615384615387L166.04401333333334,27.384615384615387L166.41809333333333,27.384615384615387L167.1194933333333,27.384615384615387L167.21301333333335,27.384615384615387L167.30653333333333,27.384615384615387L167.40005333333335,27.384615384615387L167.49357333333333,27.384615384615387L167.91441333333333,27.384615384615387L168.10145333333332,27.384615384615387L168.70933333333335,27.384615384615387L168.89637333333334,27.384615384615387L169.78481333333335,27.384615384615387L170.48621333333332,27.384615384615387L170.53297333333333,27.384615384615387L170.81353333333334,27.384615384615387L170.86029333333335,27.384615384615387L170.95381333333336,27.384615384615387L171.09409333333335,27.384615384615387L171.32789333333332,27.384615384615387L171.46817333333334,27.384615384615387L171.51493333333332,27.384615384615387L171.60845333333333,27.384615384615387L172.35661333333334,27.384615384615387L172.68393333333333,27.384615384615387L172.87097333333332,27.384615384615387L173.1982933333333,27.384615384615387L173.24505333333335,27.384615384615387L173.57237333333333,27.384615384615387L173.71265333333332,27.384615384615387L174.83489333333333,27.384615384615387L174.97517333333334,27.384615384615387L175.30249333333333,27.384615384615387L175.44277333333332,27.384615384615387L175.48953333333333,27.384615384615387L175.5830533333333,27.384615384615387L175.62981333333335,27.384615384615387L175.95713333333333,27.384615384615387L176.05065333333334,27.384615384615387L176.56501333333333,27.384615384615387L176.79881333333333,27.384615384615387L177.21965333333333,27.384615384615387L177.31317333333334,27.384615384615387L177.40669333333332,27.384615384615387L177.59373333333332,27.384615384615387L177.73401333333334,27.384615384615387L178.34189333333333,27.384615384615387L178.38865333333334,27.384615384615387L178.43541333333334,27.384615384615387L178.71597333333332,27.384615384615387L179.09005333333332,27.384615384615387L179.37061333333335,27.384615384615387L179.41737333333333,27.384615384615387L179.46413333333334,27.384615384615387L179.65117333333333,27.384615384615387L179.88497333333333,27.384615384615387L180.21229333333332,27.384615384615387L180.58637333333334,27.384615384615387L180.77341333333334,27.384615384615387L180.96045333333333,27.384615384615387L181.05397333333335,27.384615384615387L181.33453333333333,27.384615384615387L181.47481333333332,27.384615384615387L181.56833333333333,27.384615384615387L181.6618533333333,27.384615384615387L181.75537333333335,27.384615384615387L181.89565333333334,27.384615384615387L182.12945333333334,27.384615384615387L182.69057333333333,27.384615384615387L182.92437333333334,27.384615384615387L183.15817333333334,27.384615384615387L183.99985333333333,27.384615384615387L184.18689333333336,27.384615384615387L184.32717333333335,27.384615384615387L184.56097333333332,27.384615384615387L184.84153333333333,27.384615384615387L184.88829333333334,27.384615384615387L185.07533333333333,27.384615384615387L185.16885333333332,27.384615384615387L185.44941333333335,27.384615384615387L185.49617333333333,27.384615384615387L185.77673333333334,27.384615384615387L186.10405333333333,27.384615384615387L186.38461333333333,27.384615384615387L186.52489333333335,27.384615384615387L186.80545333333333,27.384615384615387L187.31981333333331,27.384615384615387L187.41333333333333,27.384615384615387L187.74065333333334,27.384615384615387L187.88093333333333,27.384615384615387L188.02121333333335,27.384615384615387L188.11473333333333,27.384615384615387L188.34853333333334,27.384615384615387L189.09669333333335,27.384615384615387L189.19021333333333,27.384615384615387L189.23697333333334,27.384615384615387L189.42401333333333,27.384615384615387L189.47077333333334,27.384615384615387L189.65781333333334,27.384615384615387L189.75133333333332,27.384615384615387L190.03189333333333,27.384615384615387L190.0786533333333,27.384615384615387L190.40597333333335,27.384615384615387L190.96709333333334,27.384615384615387L191.2008933333333,27.384615384615387L191.34117333333336,27.384615384615387L191.76201333333333,27.384615384615387L191.80877333333333,27.384615384615387L192.08933333333334,27.384615384615387L192.13609333333332,27.384615384615387L192.79073333333335,27.384615384615387L192.97777333333335,27.384615384615387L193.07129333333333,27.384615384615387L193.16481333333334,27.384615384615387L193.30509333333333,27.384615384615387L193.44537333333332,27.384615384615387L193.86621333333335,27.384615384615387L194.14677333333333,27.384615384615387L194.24029333333334,27.384615384615387L194.75465333333332,27.384615384615387L194.80141333333333,27.384615384615387L195.08197333333334,27.384615384615387L195.40929333333332,27.384615384615387L196.53153333333333,27.384615384615387L196.67181333333335,27.384615384615387L196.81209333333334,27.384615384615387L196.90561333333332,27.384615384615387L197.88757333333334,27.384615384615387L198.02785333333333,27.384615384615387L198.21489333333332,27.384615384615387L198.26165333333333,27.384615384615387L198.30841333333333,27.384615384615387L198.5889733333333,27.384615384615387L198.72925333333333,27.384615384615387L198.82277333333334,27.384615384615387L199.24361333333334,27.384615384615387L199.43065333333334,27.384615384615387L199.57093333333333,27.384615384615387L199.80473333333336,27.384615384615387L200.17881333333335,27.384615384615387L200.36585333333335,27.384615384615387L200.45937333333333,27.384615384615387L200.55289333333334,27.384615384615387L201.16077333333334,27.384615384615387L201.25429333333335,27.384615384615387L201.39457333333334,27.384615384615387L201.95569333333333,27.384615384615387L202.14273333333333,27.384615384615387L202.37653333333336,27.384615384615387L202.47005333333334,27.384615384615387L202.93765333333334,27.384615384615387L203.03117333333333,27.384615384615387L203.12469333333334,27.384615384615387L203.73257333333333,27.384615384615387L204.01313333333334,27.384615384615387L204.48073333333332,27.384615384615387L204.71453333333335,27.384615384615387L205.04185333333334,27.384615384615387L205.18213333333333,27.384615384615387L205.27565333333334,27.384615384615387L206.21085333333335,27.384615384615387L206.25761333333332,27.384615384615387L206.30437333333333,27.384615384615387L206.53817333333333,27.384615384615387L206.63169333333332,27.384615384615387L206.91225333333333,27.384615384615387L207.09929333333335,27.384615384615387L207.47337333333334,27.384615384615387L207.52013333333335,27.384615384615387L207.75393333333332,27.384615384615387L207.80069333333333,27.384615384615387L207.98773333333332,27.384615384615387L208.50209333333333,27.384615384615387L208.78265333333334,27.384615384615387L209.06321333333332,27.384615384615387L209.2034933333333,27.384615384615387L209.71785333333335,27.384615384615387L209.90489333333335,27.384615384615387L210.09193333333334,27.384615384615387L210.18545333333333,27.384615384615387L210.41925333333333,27.384615384615387L210.60629333333333,27.384615384615387L210.84009333333336,27.384615384615387L211.07389333333333,27.384615384615387L211.26093333333333,27.384615384615387L211.30769333333333,27.384615384615387L211.40121333333335,27.384615384615387L211.82205333333332,27.384615384615387L211.86881333333332,27.384615384615387L212.38317333333333,27.384615384615387L212.47669333333334,27.384615384615387L212.52345333333332,27.384615384615387L212.85077333333334,27.384615384615387L212.94429333333332,27.384615384615387L212.99105333333333,27.384615384615387L213.03781333333333,27.384615384615387L213.0845733333333,27.384615384615387L213.27161333333333,27.384615384615387L213.36513333333335,27.384615384615387L214.39385333333334,27.384615384615387L214.53413333333333,27.384615384615387L215.18877333333333,27.384615384615387L215.42257333333333,27.384615384615387L215.4693333333333,27.384615384615387L215.56285333333335,27.384615384615387L215.93693333333334,27.384615384615387L216.17073333333335,27.384615384615387L216.49805333333333,27.384615384615387L217.80733333333333,27.384615384615387L218.13465333333335,27.384615384615387L218.64901333333333,27.384615384615387L218.88281333333333,27.384615384615387L219.30365333333336,27.384615384615387L219.35041333333334,27.384615384615387L219.81801333333334,27.384615384615387L219.86477333333332,27.384615384615387L219.91153333333332,27.384615384615387L220.00505333333334,27.384615384615387L220.09857333333332,27.384615384615387L220.19209333333333,27.384615384615387L220.2388533333333,27.384615384615387L220.28561333333332,27.384615384615387L220.37913333333336,27.384615384615387L221.22081333333333,27.384615384615387L221.45461333333333,27.384615384615387L221.68841333333336,27.384615384615387L221.82869333333335,27.384615384615387L221.96897333333334,27.384615384615387L222.20277333333334,27.384615384615387L222.71713333333332,27.384615384615387L223.13797333333335,27.384615384615387L223.27825333333334,27.384615384615387L223.32501333333335,27.384615384615387L223.74585333333332,27.384615384615387L224.02641333333335,27.384615384615387L224.72781333333333,27.384615384615387L224.77457333333334,27.384615384615387L225.05513333333332,27.384615384615387L225.2421733333333,27.384615384615387L225.38245333333333,27.384615384615387L225.66301333333334,27.384615384615387L225.75653333333332,27.384615384615387L226.17737333333332,27.384615384615387L226.36441333333332,27.384615384615387L226.64497333333335,27.384615384615387L226.87877333333333,27.384615384615387L227.15933333333334,27.384615384615387L227.34637333333333,27.384615384615387L227.58017333333333,27.384615384615387L227.90749333333335,27.384615384615387L228.09453333333335,27.384615384615387L228.51537333333332,27.384615384615387L228.65565333333333,27.384615384615387L229.21677333333335,27.384615384615387L229.54409333333334,27.384615384615387L229.68437333333333,27.384615384615387L229.77789333333334,27.384615384615387L229.82465333333332,27.384615384615387L230.0116933333333,27.384615384615387L230.05845333333332,27.384615384615387L230.10521333333335,27.384615384615387L230.66633333333334,27.384615384615387L230.94689333333332,27.384615384615387L230.99365333333333,27.384615384615387L231.0871733333333,27.384615384615387L231.32097333333334,27.384615384615387L231.36773333333335,27.384615384615387L231.50801333333334,27.384615384615387L231.78857333333335,27.384615384615387L231.97561333333334,27.384615384615387L232.30293333333333,27.384615384615387L232.77053333333333,27.384615384615387L233.05109333333334,27.384615384615387L233.23813333333334,27.384615384615387L233.37841333333333,27.384615384615387L233.75249333333335,27.384615384615387L233.84601333333333,27.384615384615387L234.45389333333333,27.384615384615387L234.64093333333332,27.384615384615387L234.68769333333333,27.384615384615387L235.57613333333333,27.384615384615387L235.62289333333334,27.384615384615387L235.76317333333333,27.384615384615387L236.0904933333333,27.384615384615387L236.18401333333335,27.384615384615387L236.55809333333335,27.384615384615387L236.65161333333333,27.384615384615387L236.69837333333334,27.384615384615387L237.30625333333336,27.384615384615387L237.39977333333334,27.384615384615387L237.44653333333335,27.384615384615387L237.86737333333335,27.384615384615387L238.00765333333334,27.384615384615387L238.10117333333332,27.384615384615387L238.52201333333335,27.384615384615387L238.66229333333334,27.384615384615387L238.75581333333335,27.384615384615387L238.84933333333333,27.384615384615387L239.41045333333332,27.384615384615387L240.20537333333334,27.384615384615387L240.43917333333334,27.384615384615387L240.90677333333332,27.384615384615387L241.18733333333333,27.384615384615387L241.51465333333334,27.384615384615387L241.79521333333332,27.384615384615387L241.88873333333333,27.384615384615387L242.07577333333333,27.384615384615387L242.40309333333335,27.384615384615387L242.44985333333335,27.384615384615387L242.49661333333333,27.384615384615387L242.96421333333333,27.384615384615387L243.71237333333335,27.384615384615387L243.94617333333332,27.384615384615387L244.17997333333332,27.384615384615387L244.41377333333332,27.384615384615387L244.46053333333333,27.384615384615387L244.55405333333331,27.384615384615387L244.69433333333333,27.384615384615387L245.16193333333334,27.384615384615387L245.34897333333333,27.384615384615387L245.39573333333334,27.384615384615387L245.67629333333332,27.384615384615387L245.86333333333334,27.384615384615387L245.91009333333335,27.384615384615387L246.28417333333334,27.384615384615387L246.37769333333333,27.384615384615387L246.42445333333333,27.384615384615387L246.47121333333334,27.384615384615387L246.56473333333332,27.384615384615387L246.7050133333333,27.384615384615387L246.75177333333332,27.384615384615387L246.79853333333332,27.384615384615387L246.84529333333333,27.384615384615387L247.03233333333336,27.384615384615387L247.12585333333334,27.384615384615387L247.26613333333333,27.384615384615387L247.31289333333334,27.384615384615387L247.35965333333334,27.384615384615387L247.40641333333335,27.384615384615387L247.49993333333333,27.384615384615387L247.64021333333332,27.384615384615387L247.68697333333333,27.384615384615387L247.96753333333334,27.384615384615387L248.24809333333334,27.384615384615387L248.34161333333336,27.384615384615387L248.48189333333335,27.384615384615387L249.04301333333333,27.384615384615387L249.41709333333336,27.384615384615387L249.4638533333333,27.384615384615387L249.51061333333334,27.384615384615387L249.79117333333335,27.384615384615387L250.11849333333333,27.384615384615387L250.35229333333334,27.384615384615387L250.67961333333335,27.384615384615387L250.86665333333335,27.384615384615387L251.10045333333335,27.384615384615387L251.28749333333334,27.384615384615387L251.56805333333332,27.384615384615387L251.66157333333334,27.384615384615387L251.80185333333333,27.384615384615387L252.12917333333334,27.384615384615387L252.40973333333332,27.384615384615387L252.55001333333334,27.384615384615387L252.64353333333332,27.384615384615387L252.69029333333333,27.384615384615387L252.92409333333333,27.384615384615387" style="fill: none;" fill="none"></path></g></g></g></g></g></g><g transform="translate(50, 178)" clip-path="url(#clip_1)"><clipPath id="clip_1"><rect width="280" height="22"></rect></clipPath><g><g><line x1="0" y1="0" x2="0" y2="5" style="visibility: inherit;" fill="rgb(0, 0, 0)" stroke="rgb(204, 204, 204)" stroke-width="1px"></line><line x1="23.333333333333332" y1="0" x2="23.333333333333332" y2="5" style="visibility: inherit;" fill="rgb(0, 0, 0)" stroke="rgb(204, 204, 204)" stroke-width="1px"></line><line x1="46.666666666666664" y1="0" x2="46.666666666666664" y2="5" style="visibility: inherit;" fill="rgb(0, 0, 0)" stroke="rgb(204, 204, 204)" stroke-width="1px"></line><line x1="70" y1="0" x2="70" y2="5" style="visibility: inherit;" fill="rgb(0, 0, 0)" stroke="rgb(204, 204, 204)" stroke-width="1px"></line><line x1="93.33333333333333" y1="0" x2="93.33333333333333" y2="5" style="visibility: inherit;" fill="rgb(0, 0, 0)" stroke="rgb(204, 204, 204)" stroke-width="1px"></line><line x1="116.66666666666667" y1="0" x2="116.66666666666667" y2="5" style="visibility: inherit;" fill="rgb(0, 0, 0)" stroke="rgb(204, 204, 204)" stroke-width="1px"></line><line x1="140" y1="0" x2="140" y2="5" style="visibility: inherit;" fill="rgb(0, 0, 0)" stroke="rgb(204, 204, 204)" stroke-width="1px"></line><line x1="163.33333333333334" y1="0" x2="163.33333333333334" y2="5" style="visibility: inherit;" fill="rgb(0, 0, 0)" stroke="rgb(204, 204, 204)" stroke-width="1px"></line><line x1="186.66666666666666" y1="0" x2="186.66666666666666" y2="5" style="visibility: inherit;" fill="rgb(0, 0, 0)" stroke="rgb(204, 204, 204)" stroke-width="1px"></line><line x1="210" y1="0" x2="210" y2="5" style="visibility: inherit;" fill="rgb(0, 0, 0)" stroke="rgb(204, 204, 204)" stroke-width="1px"></line><line x1="233.33333333333334" y1="0" x2="233.33333333333334" y2="5" style="visibility: inherit;" fill="rgb(0, 0, 0)" stroke="rgb(204, 204, 204)" stroke-width="1px"></line><line x1="256.66666666666663" y1="0" x2="256.66666666666663" y2="5" style="visibility: inherit;" fill="rgb(0, 0, 0)" stroke="rgb(204, 204, 204)" stroke-width="1px"></line><line x1="280" y1="0" x2="280" y2="5" style="visibility: inherit;" fill="rgb(0, 0, 0)" stroke="rgb(204, 204, 204)" stroke-width="1px"></line></g><g transform="translate(0, 8)"><text x="0" y="0" dx="0em" dy="0.95em" style="text-anchor: middle; visibility: hidden; font-family: Roboto, sans-serif; font-size: 12px; font-weight: 200;" fill="rgb(50, 49, 63)" stroke="none" stroke-width="1px">-500k</text><text x="23.333333333333332" y="0" dx="0em" dy="0.95em" style="text-anchor: middle; visibility: inherit; font-family: Roboto, sans-serif; font-size: 12px; font-weight: 200;" fill="rgb(50, 49, 63)" stroke="none" stroke-width="1px">0</text><text x="46.666666666666664" y="0" dx="0em" dy="0.95em" style="text-anchor: middle; visibility: hidden; font-family: Roboto, sans-serif; font-size: 12px; font-weight: 200;" fill="rgb(50, 49, 63)" stroke="none" stroke-width="1px">500k</text><text x="70" y="0" dx="0em" dy="0.95em" style="text-anchor: middle; visibility: inherit; font-family: Roboto, sans-serif; font-size: 12px; font-weight: 200;" fill="rgb(50, 49, 63)" stroke="none" stroke-width="1px">1M</text><text x="93.33333333333333" y="0" dx="0em" dy="0.95em" style="text-anchor: middle; visibility: hidden; font-family: Roboto, sans-serif; font-size: 12px; font-weight: 200;" fill="rgb(50, 49, 63)" stroke="none" stroke-width="1px">1.5M</text><text x="116.66666666666667" y="0" dx="0em" dy="0.95em" style="text-anchor: middle; visibility: inherit; font-family: Roboto, sans-serif; font-size: 12px; font-weight: 200;" fill="rgb(50, 49, 63)" stroke="none" stroke-width="1px">2M</text><text x="140" y="0" dx="0em" dy="0.95em" style="text-anchor: middle; visibility: hidden; font-family: Roboto, sans-serif; font-size: 12px; font-weight: 200;" fill="rgb(50, 49, 63)" stroke="none" stroke-width="1px">2.5M</text><text x="163.33333333333334" y="0" dx="0em" dy="0.95em" style="text-anchor: middle; visibility: inherit; font-family: Roboto, sans-serif; font-size: 12px; font-weight: 200;" fill="rgb(50, 49, 63)" stroke="none" stroke-width="1px">3M</text><text x="186.66666666666666" y="0" dx="0em" dy="0.95em" style="text-anchor: middle; visibility: hidden; font-family: Roboto, sans-serif; font-size: 12px; font-weight: 200;" fill="rgb(50, 49, 63)" stroke="none" stroke-width="1px">3.5M</text><text x="210" y="0" dx="0em" dy="0.95em" style="text-anchor: middle; visibility: inherit; font-family: Roboto, sans-serif; font-size: 12px; font-weight: 200;" fill="rgb(50, 49, 63)" stroke="none" stroke-width="1px">4M</text><text x="233.33333333333334" y="0" dx="0em" dy="0.95em" style="text-anchor: middle; visibility: hidden; font-family: Roboto, sans-serif; font-size: 12px; font-weight: 200;" fill="rgb(50, 49, 63)" stroke="none" stroke-width="1px">4.5M</text><text x="256.66666666666663" y="0" dx="0em" dy="0.95em" style="text-anchor: middle; visibility: inherit; font-family: Roboto, sans-serif; font-size: 12px; font-weight: 200;" fill="rgb(50, 49, 63)" stroke="none" stroke-width="1px">5M</text><text x="280" y="0" dx="0em" dy="0.95em" style="text-anchor: middle; visibility: hidden; font-family: Roboto, sans-serif; font-size: 12px; font-weight: 200;" fill="rgb(50, 49, 63)" stroke="none" stroke-width="1px">5.5M</text></g><line x1="0" y1="0" x2="280" y2="0" fill="rgb(0, 0, 0)" stroke="rgb(204, 204, 204)" stroke-width="1px"></line></g></g></g></g></svg>