<svg viewBox="0 0 330 200" xmlns="http://www.w3.org/2000/svg"><g><g><g><g><g><line x1="51.5625" y1="178" x2="46.5625" y2="178" style="visibility: inherit;" fill="rgb(0, 0, 0)" stroke="rgb(204, 204, 204)" stroke-width="1px"></line><line x1="51.5625" y1="155.75" x2="46.5625" y2="155.75" style="visibility: inherit;" fill="rgb(0, 0, 0)" stroke="rgb(204, 204, 204)" stroke-width="1px"></line><line x1="51.5625" y1="133.5" x2="46.5625" y2="133.5" style="visibility: inherit;" fill="rgb(0, 0, 0)" stroke="rgb(204, 204, 204)" stroke-width="1px"></line><line x1="51.5625" y1="111.25" x2="46.5625" y2="111.25" style="visibility: inherit;" fill="rgb(0, 0, 0)" stroke="rgb(204, 204, 204)" stroke-width="1px"></line><line x1="51.5625" y1="89" x2="46.5625" y2="89" style="visibility: inherit;" fill="rgb(0, 0, 0)" stroke="rgb(204, 204, 204)" stroke-width="1px"></line><line x1="51.5625" y1="66.75" x2="46.5625" y2="66.75" style="visibility: inherit;" fill="rgb(0, 0, 0)" stroke="rgb(204, 204, 204)" stroke-width="1px"></line><line x1="51.5625" y1="44.5" x2="46.5625" y2="44.5" style="visibility: inherit;" fill="rgb(0, 0, 0)" stroke="rgb(204, 204, 204)" stroke-width="1px"></line><line x1="51.5625" y1="22.25" x2="46.5625" y2="22.25" style="visibility: inherit;" fill="rgb(0, 0, 0)" stroke="rgb(204, 204, 204)" stroke-width="1px"></line><line x1="51.5625" y1="0" x2="46.5625" y2="0" style="visibility: inherit;" fill="rgb(0, 0, 0)" stroke="rgb(204, 204, 204)" stroke-width="1px"></line></g><g transform="translate(41.5625, 0)"><text x="0" y="178" dx="0em" dy="0.3em" style="text-anchor: end; visibility: hidden; font-family: Roboto, sans-serif; font-size: 12px; font-weight: 200;" fill="rgb(50, 49, 63)" stroke="none" stroke-width="1px">-100</text><text x="0" y="155.75" dx="0em" dy="0.3em" style="text-anchor: end; visibility: inherit; font-family: Roboto, sans-serif; font-size: 12px; font-weight: 200;" fill="rgb(50, 49, 63)" stroke="none" stroke-width="1px">-50</text><text x="0" y="133.5" dx="0em" dy="0.3em" style="text-anchor: end; visibility: hidden; font-family: Roboto, sans-serif; font-size: 12px; font-weight: 200;" fill="rgb(50, 49, 63)" stroke="none" stroke-width="1px">0</text><text x="0" y="111.25" dx="0em" dy="0.3em" style="text-anchor: end; visibility: inherit; font-family: Roboto, sans-serif; font-size: 12px; font-weight: 200;" fill="rgb(50, 49, 63)" stroke="none" stroke-width="1px">50</text><text x="0" y="89" dx="0em" dy="0.3em" style="text-anchor: end; visibility: hidden; font-family: Roboto, sans-serif; font-size: 12px; font-weight: 200;" fill="rgb(50, 49, 63)" stroke="none" stroke-width="1px">100</text><text x="0" y="66.75" dx="0em" dy="0.3em" style="text-anchor: end; visibility: inherit; font-family: Roboto, sans-serif; font-size: 12px; font-weight: 200;" fill="rgb(50, 49, 63)" stroke="none" stroke-width="1px">150</text><text x="0" y="44.5" dx="0em" dy="0.3em" style="text-anchor: end; visibility: hidden; font-family: Roboto, sans-serif; font-size: 12px; font-weight: 200;" fill="rgb(50, 49, 63)" stroke="none" stroke-width="1px">200</text><text x="0" y="22.25" dx="0em" dy="0.3em" style="text-anchor: end; visibility: inherit; font-family: Roboto, sans-serif; font-size: 12px; font-weight: 200;" fill="rgb(50, 49, 63)" stroke="none" stroke-width="1px">250</text><text x="0" y="0" dx="0em" dy="0.3em" style="text-anchor: end; visibility: hidden; font-family: Roboto, sans-serif; font-size: 12px; font-weight: 200;" fill="rgb(50, 49, 63)" stroke="none" stroke-width="1px">300</text></g><line x1="51.5625" y1="0" x2="51.5625" y2="178" fill="rgb(0, 0, 0)" stroke="rgb(204, 204, 204)" stroke-width="1px"></line></g></g><g transform="translate(51, 0)" clip-path="url(#clip_0)"><clipPath id="clip_0"><rect width="278" height="178"></rect></clipPath><g><g><g><line x1="0" y1="0" x2="0" y2="178" fill="rgb(0, 0, 0)" stroke="rgb(60, 60, 60)" stroke-width="1px" opacity="0.25"></line><line x1="23.203125" y1="0" x2="23.203125" y2="178" fill="rgb(0, 0, 0)" stroke="rgb(60, 60, 60)" stroke-width="1px" opacity="0.25"></line><line x1="46.40625" y1="0" x2="46.40625" y2="178" fill="rgb(0, 0, 0)" stroke="rgb(60, 60, 60)" stroke-width="1px" opacity="0.25"></line><line x1="69.609375" y1="0" x2="69.609375" y2="178" fill="rgb(0, 0, 0)" stroke="rgb(60, 60, 60)" stroke-width="1px" opacity="0.25"></line><line x1="92.8125" y1="0" x2="92.8125" y2="178" fill="rgb(0, 0, 0)" stroke="rgb(60, 60, 60)" stroke-width="1px" opacity="0.25"></line><line x1="116.015625" y1="0" x2="116.015625" y2="178" fill="rgb(0, 0, 0)" stroke="rgb(60, 60, 60)" stroke-width="1px" opacity="0.25"></line><line x1="139.21875" y1="0" x2="139.21875" y2="178" fill="rgb(0, 0, 0)" stroke="rgb(60, 60, 60)" stroke-width="1px" opacity="0.25"></line><line x1="162.421875" y1="0" x2="162.421875" y2="178" fill="rgb(0, 0, 0)" stroke="rgb(60, 60, 60)" stroke-width="1px" opacity="0.25"></line><line x1="185.625" y1="0" x2="185.625" y2="178" fill="rgb(0, 0, 0)" stroke="rgb(60, 60, 60)" stroke-width="1px" opacity="0.25"></line><line x1="208.828125" y1="0" x2="208.828125" y2="178" fill="rgb(0, 0, 0)" stroke="rgb(60, 60, 60)" stroke-width="1px" opacity="0.25"></line><line x1="232.03125" y1="0" x2="232.03125" y2="178" fill="rgb(0, 0, 0)" stroke="rgb(60, 60, 60)" stroke-width="1px" opacity="0.25"></line><line x1="255.234375" y1="0" x2="255.234375" y2="178" fill="rgb(0, 0, 0)" stroke="rgb(60, 60, 60)" stroke-width="1px" opacity="0.25"></line><line x1="278.4375" y1="0" x2="278.4375" y2="178" fill="rgb(0, 0, 0)" stroke="rgb(60, 60, 60)" stroke-width="1px" opacity="0.25"></line></g><g><line x1="0" y1="178" x2="278.4375" y2="178" fill="rgb(0, 0, 0)" stroke="rgb(60, 60, 60)" stroke-width="1px" opacity="0.25"></line><line x1="0" y1="155.75" x2="278.4375" y2="155.75" fill="rgb(0, 0, 0)" stroke="rgb(60, 60, 60)" stroke-width="1px" opacity="0.25"></line><line x1="0" y1="133.5" x2="278.4375" y2="133.5" fill="rgb(0, 0, 0)" stroke="rgb(60, 60, 60)" stroke-width="1px" opacity="0.25"></line><line x1="0" y1="111.25" x2="278.4375" y2="111.25" fill="rgb(0, 0, 0)" stroke="rgb(60, 60, 60)" stroke-width="1px" opacity="0.25"></line><line x1="0" y1="89" x2="278.4375" y2="89" fill="rgb(0, 0, 0)" stroke="rgb(60, 60, 60)" stroke-width="1px" opacity="0.25"></line><line x1="0" y1="66.75" x2="278.4375" y2="66.75" fill="rgb(0, 0, 0)" stroke="rgb(60, 60, 60)" stroke-width="1px" opacity="0.25"></line><line x1="0" y1="44.5" x2="278.4375" y2="44.5" fill="rgb(0, 0, 0)" stroke="rgb(60, 60, 60)" stroke-width="1px" opacity="0.25"></line><line x1="0" y1="22.25" x2="278.4375" y2="22.25" fill="rgb(0, 0, 0)" stroke="rgb(60, 60, 60)" stroke-width="1px" opacity="0.25"></line><line x1="0" y1="0" x2="278.4375" y2="0" fill="rgb(0, 0, 0)" stroke="rgb(60, 60, 60)" stroke-width="1px" opacity="0.25"></line></g></g></g><g><g><line x1="0" y1="133.5" x2="278.4375" y2="133.5" fill="rgb(0, 0, 0)" stroke="rgb(153, 153, 153)" stroke-width="1.5px"></line></g></g><g><g><line x1="23.203125" y1="0" x2="23.203125" y2="178" fill="rgb(0, 0, 0)" stroke="rgb(153, 153, 153)" stroke-width="1.5px"></line></g></g><g><g><g><g><g><path stroke="rgb(238, 51, 119)" stroke-width="2px" d="M32.3161059375,178.10229658874584L32.5021021875,177.0217364076864L32.8740946875,175.92590703151902L33.2460871875,174.757932022268L33.29258625,173.658667477239L33.5250815625,172.43900906804606L34.03657125,171.22599022871384L34.315565625,170.07152178980252L34.5480609375,168.95428543498565L34.687558125,167.93270681463622L35.245546874999995,166.75199586467573L35.52454125,165.62218608477187L35.7570365625,164.52312293272843L36.08253,163.38180953116108L36.26852625,162.3024819035774L36.361524375,161.24723535881532L37.2450065625,159.9640177229064L37.477501874999994,158.65616696900636L37.5240009375,157.40358863719408L37.75649625,156.1778291493399L37.9889915625,155.04259899028983L38.0819896875,153.92776702176002L38.453982187499996,152.80826378394414L38.50048125,151.7114533861279L38.8259746875,150.65854571803533L39.0119709375,149.62037242782537L39.430462500000004,148.50664978428432L39.802455,147.47467092517462L40.54644,146.39501469600492L40.73243625,145.3187420400408L41.011430624999996,144.2952426365257L41.197426875,143.32806191570427L41.290425,142.37521423037074L43.243385624999995,141.32101089441264L43.2898846875,140.2567488402226L43.3828828125,139.21072910731837L43.6618771875,138.12233776361592L44.08036875,137.03152965750147L44.173366875,135.97358159610647L44.2198659375,134.9694885272248L44.359363125,133.9717333202182L44.638357500000005,133.03002707758597L45.0568490625,132.08020409782796L45.196346250000005,131.1333937322266L45.2428453125,130.20934924983587L45.7078359375,129.3066374620165L46.49832,128.441596770949L46.591318125,127.60580529054144L47.242305,126.66877886769468L47.4748003125,125.75342641432151L47.5677984375,124.85683332323899L47.707295625,123.96891787524427L48.079288125,123.09620758662535L48.358282499999994,122.22980959240499L48.451280624999995,121.42068476457983L48.5907778125,120.6362977748528L48.8697721875,119.7986774275961L49.102267499999996,118.97769979651804L49.567258125,118.11884023972434L49.8462525,117.29051340464525L50.125246875,116.47213380478973L50.311243125000004,115.65170322616414L50.5902375,114.80518657013496L50.683235625,113.96765033495977L50.729734687500006,113.14688395841559L50.82273281249999,112.3555057613186L50.915730937499994,111.57142491487272L50.96223,110.80352298075377L51.1947253125,110.03076456047593L51.241224374999994,109.25573485654418L51.659715937499996,108.48660380054311L51.9387103125,107.75458852511069L52.0317084375,107.04504584159312L52.26420375,106.34106135416214L52.4966990625,105.63867772098673L52.5896971875,104.93732855194749L53.1476859375,104.24174900896851L53.473179374999994,103.59619914860704L53.5196784375,102.95154706705956L53.6126765625,102.3053710237369L53.7056746875,101.6648957357614L53.75217375,101.03300281103093L53.845171875,100.38505373896255L54.403160625,99.8377038743575L54.542657812499996,99.28722909648576L54.7286540625,98.71169096472157L54.86815125,98.14610069615374L55.0076484375,97.57982210365397L55.193644687500004,97.02996428255148L55.24014375,96.48565121153938L55.426140000000004,95.97140672459584L55.6586353125,95.47995255039842L55.705134375,94.99406617249866L56.170125,94.47364809934591L56.356121249999994,93.96390545951388L56.4956184375,93.47654137398338L56.8676109375,92.95058089117967L57.0536071875,92.4296201794774L57.193104375,91.90313324957884L57.2396034375,91.39057796348969L57.2861025,90.88591900147067L57.6115959375,90.43718965475742L57.8905903125,89.999757032804L57.9835884375,89.55491559215409L58.0300875,89.13402463130039L58.21608375,88.74320401645795L58.402080000000005,88.35101065031927L58.5415771875,87.95703782043853L58.58807625,87.56855683812239L58.634575312500004,87.18714299434355L58.8205715625,86.80851135595914L59.239063124999994,86.42586360587447L59.425059375,86.055374332161L59.4715584375,85.69294347697537L59.5180575,85.33277547548293L59.611055625,84.97867893959881L59.657554687499996,84.63501559194424L59.9365490625,84.31465873347327L60.1225453125,83.99119840485545L60.169044375,83.67288470394975L60.2620425,83.35329824898615L60.355040625,83.03023268815322L60.4945378125,82.68882448277104L60.541036875,82.34878823825277L60.5875359375,82.00614060805766L60.634035000000004,81.66971652254517L60.7735321875,81.34823566092089L60.959528437500005,81.01779509086602L61.192023750000004,80.67564343154862L61.2385228125,80.33853015460905L61.285021875000005,80.01431660105665L61.564016249999995,79.72819187621431L62.3545003125,79.44157237400155L62.540496562499996,79.15837926919767L62.6334946875,78.86734560490842L62.865990000000004,78.57346123948763L63.9819675,78.28662228640708L64.074965625,77.99675862390549L64.3074609375,77.67972627929643L64.40045906249999,77.37643362731414L64.5864553125,77.085205373094L64.6794534375,76.79320087241523L65.0514459375,76.52003609892893L65.3304403125,76.2594389288447L65.5164365625,76.02350937037367L65.84193,75.77244928473405L65.934928125,75.51920055231984L66.2139225,75.26344979661043L66.306920625,75.01359453780562L66.4464178125,74.78593275496415L66.492916875,74.5619693874912L66.585915,74.33785340873968L66.95790749999999,74.09807019021063L67.0044065625,73.86779561480894L67.14390374999999,73.62570644164784L67.4693971875,73.37270271448531L67.60889437499999,73.10754428987791L68.0273859375,72.83949396904109L68.2133821875,72.55948179155328L68.352879375,72.28729629180205L68.3993784375,72.02416430985501L68.81787,71.79529645171897L68.8643690625,71.56544804563515L69.0503653125,71.34022576371162L69.096864375,71.11505303330642L69.1433634375,70.8861718751755L69.1898625,70.65399390970241L69.37585875,70.4130036229107L69.42235781250001,70.17845689882473L69.561855,69.94871193788491L69.6083540625,69.72395656826467L69.9803465625,69.51112663564L70.16634281249999,69.29521772611393L70.2593409375,69.0807359007948L70.3523390625,68.86755327093414L70.39883812500001,68.65846398239411L70.8173296875,68.45426788437567L70.95682687499999,68.25246424539132L71.328819375,68.03195790220083L71.42181749999999,67.82454745232148L71.60781374999999,67.60645610576066L71.6543128125,67.39614121905501L71.886808125,67.17140611105317L72.2123015625,66.96692872925976L72.72379124999999,66.76297926238448L72.816789375,66.5530012975452L73.09578375,66.34414313290293L73.23528093750001,66.12339499487975L73.3282790625,65.91127030466305L73.5142753125,65.70388256831639L73.70027156249999,65.51254951161133L73.79326968749999,65.31971658447011L74.025765,65.11270319853226L74.0722640625,64.90582530236826L74.118763125,64.70431951738647L74.490755625,64.47921996292439L74.76975,64.25992449320748L74.95574625,64.03577254282533L75.0022453125,63.81285499574849L75.048744375,63.59235817444424L75.46723593749999,63.38906974201474L75.69973125,63.19425870787228L76.35071812499999,63.0018548472528L76.44371625,62.81232608689949L77.37369749999999,62.66090455879666L77.42019656250001,62.50549121134323L77.6061928125,62.36535560365612L77.652691875,62.22701953463904L77.6991909375,62.08775165400044L78.53617406250001,61.94482179107285L78.768669375,61.8043426948692L79.09416281249999,61.66950567025239L79.140661875,61.53736801524789L79.41965625,61.40760318203125L79.512654375,61.28757641155838L79.74514968749999,61.17449553405007L79.8381478125,61.057540906613426L80.1171421875,60.92151362666778L80.9541253125,60.764753430707664L81.0471234375,60.61120233933873L81.1401215625,60.45205751209777L81.5121140625,60.30020233884561L81.65161124999999,60.14718621306978L82.02360374999999,59.9912834150431L82.1631009375,59.82378717905635L82.30259812499999,59.66737513392873L82.9070859375,59.51738587833398L83.232579375,59.38155613295288L83.51157375,59.26232175990761L83.69757,59.14902361505084L83.790568125,59.03135704405577L83.83706718750001,58.914293817393805L84.11606156250001,58.811741066014605L84.58105218749999,58.70058461763038L84.8135475,58.59147962920337L84.86004656249999,58.48430523168487L84.99954375,58.38566799492298L85.278538125,58.303843051405536L85.37153625,58.230869707836135L85.51103343749999,58.17220442470446L85.650530625,58.12301418177414L85.7900278125,58.07795812491303L85.836526875,58.038832597730334L86.67351000000001,58.02615971652512L87.3709959375,58.04189955845773L88.06848187499999,58.03409897008647L88.2079790625,58.020537645412354L88.25447812499999,58.00547776173039L88.34747625,57.98158029379695L88.3939753125,57.947716730142375L89.370455625,57.863186744704436L89.41695468750001,57.77926231154022L89.64945,57.68493151431372L89.7889471875,57.591393863731795L89.97494343749999,57.49517287813366L90.0679415625,57.40337857691555L90.2539378125,57.29938941770134L90.4399340625,57.19713464402096L90.62593031249999,57.09977660718221L91.788406875,57.01435555967122L91.8349059375,56.92758414841232L92.34639562499999,56.84267886322503L92.71838812499999,56.74513930306368L92.76488718750001,56.64286802327412L92.90438437499999,56.53466202398445L92.9973825,56.43172552728498L93.0438815625,56.33156757973175L93.462373125,56.226135700754995L93.7878665625,56.113856879451966L94.4853525,56.02652662654773L94.53185156250001,55.95353945997094L94.67134874999999,55.87790397185232L94.9968421875,55.807156916300286L95.5548309375,55.74518873302772L95.78732625,55.69663834978921L95.8338253125,55.648408772095905L95.92682343749999,55.59301994623229L96.252316875,55.555704534015646L96.57781031249999,55.526910857772734L96.62430937500001,55.50348936432873L97.0428009375,55.47443877994556L97.22879718749999,55.42110629085734L97.3217953125,55.36875179720312L97.5077915625,55.32024952387904L97.926283125,55.26396127410419L98.2517765625,55.21375611140603L98.29827562499999,55.162622538519486L98.53077093750001,55.10252184952493L98.9027634375,55.05005607001044L99.321255,54.98108741922103L99.36775406250001,54.91817693526827L99.5537503125,54.853795236706254L99.78624562499999,54.78134840305389L99.9257428125,54.703711785801474L100.01874093750001,54.62254065227219L100.158238125,54.54109476487916L100.29773531250001,54.45679491258963L100.4837315625,54.37297434673617L100.85572406249999,54.27450840472599L101.22771656249999,54.164558864338396L101.4137128125,54.06299702244708L101.55321,53.970058734387116L101.5997090625,53.87816220270322L101.8787034375,53.79870950489135L101.9252025,53.71896087703311L102.297195,53.625413421229865L102.48319125,53.54031437946279L102.5296903125,53.458069732215186L102.57618937500001,53.38161935655929L102.6691875,53.30515674078464L102.8086846875,53.22530782625783L103.13417812499999,53.15710148070226L103.1806771875,53.09144276155057L103.5526696875,53.036692892324396L103.59916874999999,52.9854142964272L104.0176603125,52.93536314934229L104.2036565625,52.869963480654064L104.29665468750001,52.79978565014217L104.436151875,52.72526429522478L104.6686471875,52.64389114985792L104.71514625,52.56464180040489L104.808144375,52.4837426093697L104.8546434375,52.40511250535928L104.90114249999999,52.32818406844966L105.13363781250001,52.25643735603926L105.7846246875,52.18058319972197L106.20311625000001,52.092714061509454L106.482110625,52.006034149460675L106.80760406249999,51.9210474211309L106.85410312500001,51.83747716597027L107.2725946875,51.75453679053099L107.598088125,51.66661962753942L108.0165796875,51.573613714125386L108.15607687500001,51.47575788657103L108.4815703125,51.385637874843454L108.5745684375,51.2978054974614L108.76056468750001,51.22145620623492L109.2255553125,51.14425275794399L109.272054375,51.066998619454466L109.41155156250001,50.989167296898486L109.644046875,50.923031147349334L109.830043125,50.862925422713L110.4345309375,50.81375711700738L110.52752906250001,50.76008146298325L110.574028125,50.71917179765987L110.8530225,50.67711819651197L110.89952156250001,50.6376280921053L110.946020625,50.59834994245311L111.03901875,50.550740215964254L111.690005625,50.505496454497774L112.52698875,50.45823466826031L112.80598312500001,50.40388077383115L113.1314765625,50.35916354737161L113.4104709375,50.30630750604688L113.5964671875,50.24559160634355L113.6894653125,50.1862081440203L113.7824634375,50.13448155322402L114.0614578125,50.07601652828598L114.200955,50.01371957265304L114.29395312499999,49.95639534180927L114.4334503125,49.899022597564056L114.5729475,49.8438539616258L114.7124446875,49.79001050851956L115.13093624999999,49.73068327171504L115.223934375,49.677550446726414L115.78192312499999,49.60962335849959L115.82842218750001,49.53461962925565L115.87492125,49.46285621746732L116.525908125,49.39350442062523L116.711904375,49.329819740292265L116.897900625,49.26578440587022L117.08389687500001,49.19579727612373L117.1303959375,49.12899983346616L117.269893125,49.06396800048185L117.36289125,48.996353399457476L117.455889375,48.92547533492093L117.827881875,48.850375769879626L117.92088000000001,48.77352399318421L118.0603771875,48.698454770188334L118.19987437500001,48.62982633733436L118.33937156249999,48.55843938747599L118.4323696875,48.49452620037085L118.57186687500001,48.432612636756495L118.7113640625,48.36876458444992L119.4553490625,48.33957864942426L119.78084249999999,48.35112586658076L120.0133378125,48.36272983890943L120.059836875,48.377524214722186L120.1063359375,48.3969809060884L120.1993340625,48.421034990390034L120.24583312499999,48.447158198803095L120.33883125,48.468876193903995L120.43182937499999,48.492275453232864L120.617825625,48.51875729796447L120.803821875,48.544260586263505L121.0363171875,48.57467527230986L121.12931531250001,48.615262085042644L121.45480875,48.6584449950231L121.547806875,48.69393275425817L121.59430593750001,48.73370056223882L121.82680125,48.77246379277105L122.0127975,48.81122747845699L122.2452928125,48.822875173335824L122.33829093749999,48.83256487341028L122.38479,48.83060184036432L122.84978062500001,48.80078684612096L122.8962796875,48.77269782915981L123.0822759375,48.750742430799335L123.221773125,48.730580311002726L123.3612703125,48.706689171176784L123.407769375,48.68290836363392L123.5472665625,48.663886794857596L123.593765625,48.644666595609905L123.68676375000001,48.62720041050548L123.9192590625,48.60290916766182L123.96575812500001,48.576320437400526L124.2912515625,48.53770044717926L124.33775062500001,48.49945487636796L124.52374687499999,48.45185969260331L124.616745,48.4062206031748L124.70974312499999,48.35999380868987L124.89573937499999,48.30081627694904L125.36072999999999,48.251587329513626L125.453728125,48.2101196619592L125.54672624999999,48.1651674893328L125.59322531250001,48.12016850010994L125.7792215625,48.068428958891545L125.91871875,48.020338885504074L126.29071125,47.97863448333061L126.4767075,47.930408736446005L127.127694375,47.895147256587016L127.313690625,47.86610310488702L127.40668875,47.83782667034341L127.6391840625,47.809176845781565L127.685683125,47.778804485677675L127.77868125,47.74290671890693L127.871679375,47.70680415240278L127.91817843749999,47.667970096266544L128.0111765625,47.62874140007065L128.1041746875,47.5908974355965L128.15067375,47.54917978234628L128.47616718749998,47.512939003224886L128.615664375,47.48046359529564L128.8481596875,47.44390306257584L129.4061484375,47.39226853925787L129.5921446875,47.33695468795864L129.731641875,47.28094507122709L130.1966325,47.211926341068015L130.475626875,47.15207826461433L130.5221259375,47.093093942819635L130.6151240625,47.03334557857791L130.75462124999999,46.96906977666298L130.8941184375,46.899364004845864L130.9406175,46.82956887261209L130.9871165625,46.760765645349196L131.4521071875,46.69136453121897L131.49860625,46.62066418956571L131.5451053125,46.549376860018036L131.6381034375,46.480550303803156L132.1960921875,46.4110861998969L132.24259125,46.33990628084059L132.2890903125,46.267758985766065L132.335589375,46.20153449500576L132.707581875,46.147491149359794L133.1260734375,46.09642865590115L133.9165575,46.066243176877336L134.567544375,46.02722974088161L134.753540625,45.98772909489779L134.8000396875,45.947874176703976L134.8930378125,45.91042772340832L135.2650303125,45.88320571600336L135.3580284375,45.85039627081747L135.5440246875,45.819723344320295L136.0090153125,45.768002771330046L136.3810078125,45.712992326317796L136.427506875,45.653761804565086L136.9389965625,45.593785776336766L137.3109890625,45.54788043549243L137.5899834375,45.49376188210345L137.6364825,45.441342593851644L137.729480625,45.38597716596734L137.82247875,45.3274156135636L138.05497406249998,45.259108244648104L138.93845625,45.21042264289438L139.217450625,45.171753539997596L139.2639496875,45.12846534615578L139.7289403125,45.085555688213375L139.82193843750002,45.032713155805475L139.961435625,44.97761118413618L140.0079346875,44.922597524587985L140.05443375,44.861225476142536L140.519424375,44.803766631188495L140.56592343749998,44.747641719760765L140.70542062500002,44.689561579406806L140.98441499999998,44.621806269967735L141.2169103125,44.552933352834074L141.30990843749998,44.48664462824924L141.4029065625,44.42046023304722L141.4959046875,44.35442359690447L141.91439625,44.29183846010448L142.1003925,44.22539151649272L142.28638875,44.161406098696425L142.37938687500002,44.09906137916116L142.5188840625,44.04941556371473L142.93737562500002,44.00679989518204L142.9838746875,43.9660154058395L143.16987093749998,43.92710712922771L143.4488653125,43.898061474841356L143.54186343749998,43.869570775717975L144.0998521875,43.84700658665017L144.14635125,43.82498924243143L144.1928503125,43.80403340338408L144.239349375,43.78210995285542L144.3788465625,43.75231163248715L144.56484281250002,43.718761483290756L144.8438371875,43.68919383728621L144.89033625000002,43.6648653079632L145.0298334375,43.63876747523827L145.4018259375,43.599104849806864L145.63432125,43.5564797612288L145.7738184375,43.51585740533703L145.913315625,43.47303623538002L145.9598146875,43.42913310513275L146.2388090625,43.38875656121243L146.3318071875,43.353335025557335L146.6108015625,43.309075630865806L146.75029875,43.264901952872755L146.8897959375,43.226336357139544L146.936295,43.18669661847567L147.12229125000002,43.14553956349586L148.0057734375,43.10788892801211L148.1917696875,43.07149329788997L148.28476781249998,43.03695263842637L148.517263125,43.00894445597194L148.74975843750002,42.98831663293093L149.35424625,42.97199435769936L149.54024249999998,42.961541782858944L149.67973968750002,42.95270933352077L150.377225625,42.95658758086269L150.8887153125,42.96347903683642L150.93521437500002,42.97124598129844L151.0747115625,42.977020684394205L151.3537059375,42.96793060211641L151.679199375,42.969709099422104L151.72569843749997,42.9696452045566L151.7721975,42.96613123824277L151.8186965625,42.960735343796614L151.865195625,42.95687894638397L151.9116946875,42.94986817406817L152.2836871875,42.95138605424158L153.353165625,42.95885694090684L153.39966468749998,42.964181308361084L153.44616375,42.969516819916606L153.77165718749998,42.97271929827559L154.28314687499997,42.982120287789016L154.376145,42.985474057262536L154.93413375,42.97712528916769L154.9806328125,42.97149921157179L155.12013000000002,42.96250911301355L155.213128125,42.94474801721407L155.2596271875,42.92773621043461L155.3526253125,42.916168037583674L156.2361075,42.909922981258504L156.46860281250002,42.896515668716646L156.6081,42.881802417208036L156.7475971875,42.86216581463903L157.16608875,42.854411945025625L157.21258781249998,42.84825689709227L157.4915821875,42.84825764150391L157.58458031249998,42.84671877130815L157.63107937499998,42.84613590438744L157.91007375,42.84174247705117L158.0495709375,42.837180029698644L158.3285653125,42.82618517660484L158.4215634375,42.816817017382824L158.51456156249998,42.81043203739958L158.65405875000002,42.80224580380242L159.0725503125,42.7995974400161L159.305045625,42.80470825823711L159.39804374999997,42.802696110449546L159.4445428125,42.80411647096086L159.491041875,42.80996328461988L160.0025315625,42.81742771800812L160.4675221875,42.82767112890404L160.8395146875,42.846852935799916L161.62999875,42.86834661982546L161.95549218750003,42.88259970470473L162.00199125,42.90001019738622L162.1414884375,42.91322558723495L162.6064790625,42.913056442107404L162.8854734375,42.91047107932194L163.07146968749998,42.90521808216019L163.303965,42.897498574041016L163.396963125,42.884568096264324L163.48996125,42.86875338931459L163.582959375,42.8526875500463L163.6759575,42.8362479508143L163.86195375,42.817538676756286L163.9084528125,42.79889092443994L164.04795,42.77732738554414L164.326944375,42.75737793169286L164.4199425,42.73694095067107L164.5594396875,42.719073963022524L164.93143218749998,42.69989610693021L165.02443031250002,42.67643724318519L165.070929375,42.65293120281483L165.1174284375,42.63178385935539L165.4894209375,42.607418253428676L166.18690687499998,42.582093079942524L166.279905,42.55759042781513L166.372903125,42.53569575863511L166.46590125,42.51471094368512L166.55889937499998,42.49455278665148L166.9773909375,42.47433827809596L167.1633871875,42.456644983140315L167.767875,42.43791184122398L167.95387125000002,42.420640112425986L168.8373534375,42.396814128506186L169.534839375,42.370425339890964L169.5813384375,42.34015002956241L169.8603328125,42.31266073165837L169.906831875,42.28339684298679L169.99983,42.2593694118907L170.13932718750002,42.23868039102639L170.37182249999998,42.221459951769376L170.51131968750002,42.20639886532591L170.55781875,42.19413844241191L170.650816875,42.184106319637465L171.394801875,42.19315642153302L171.72029531249999,42.21020512592462L171.9062915625,42.2297129228251L172.231785,42.2402883736228L172.2782840625,42.25083072016436L172.60377749999998,42.26310593759344L172.7432746875,42.272035854220135L173.85925218749998,42.26443483964658L173.99874937500002,42.254709366773206L174.32424281250002,42.23417115283762L174.46374,42.20657153981394L174.5102390625,42.17338096079663L174.60323718749999,42.140316589059225L174.64973625,42.10833559423412L174.9752296875,42.08240635600171L175.0682278125,42.05610455832348L175.5797175,42.02560135701452L175.8122128125,41.992513413091025L176.230704375,41.962340412185185L176.3237025,41.93645570574786L176.41670062499998,41.91114094641732L176.602696875,41.88457617690891L176.7421940625,41.86144844730211L177.346681875,41.83108931774898L177.3931809375,41.80487759326503L177.43968,41.78006009221636L177.71867437499998,41.753166655432324L178.09066687499998,41.73438692587585L178.36966125,41.71491591583782L178.41616031249998,41.69464819759611L178.462659375,41.675384990051185L178.648655625,41.663551379207675L178.8811509375,41.64585665706754L179.206644375,41.624236153416845L179.578636875,41.59864200069187L179.764633125,41.58660911987795L179.950629375,41.575823643514795L180.0436275,41.56952466362715L180.322621875,41.56255792059495L180.4621190625,41.55240672135596L180.5551171875,41.54221402337985L180.64811531249998,41.531115682337855L180.74111343750002,41.51641558423523L180.880610625,41.50395848276617L181.1131059375,41.495554509629585L181.67109468750002,41.48700626850629L181.90358999999998,41.486267277296676L182.1360853125,41.4934797757794L182.97306843750002,41.499962148357355L183.1590646875,41.515455973308306L183.29856187500002,41.53097660038759L183.53105718749998,41.5454697001811L183.8100515625,41.555529864690435L183.856550625,41.5659018732016L184.042546875,41.57954138627763L184.135545,41.590901018341384L184.414539375,41.61298798510484L184.46103843749998,41.63511582639495L184.7400328125,41.655786478417745L185.06552625,41.676018250682525L185.344520625,41.69989144297227L185.4840178125,41.72305377673968L185.76301218749998,41.7275392765234L186.274501875,41.73112011211842L186.3675,41.73126277044334L186.6929934375,41.72852099967745L186.832490625,41.722669315404275L186.9719878125,41.716205845815146L187.06498593749998,41.70930565180163L187.29748125,41.69794100741304L188.04146625,41.68270166023202L188.134464375,41.667682057677276L188.1809634375,41.65140643256605L188.36695968749999,41.63543572248321L188.41345875000002,41.62366887543085L188.599455,41.60621739565018L188.692453125,41.583441245381955L188.9714475,41.565258898351914L189.0179465625,41.54666428544992L189.34344000000002,41.53114662866685L189.90142875,41.51792463475829L190.1339240625,41.50038954308359L190.27342125,41.48089463189743L190.6919128125,41.456497924535L190.738411875,41.43461987293118L191.01740625000002,41.41898461303049L191.0639053125,41.40306189241542L191.7148921875,41.38915845290208L191.90088843750002,41.370779725311415L191.9938865625,41.35435537959884L192.0868846875,41.33685894985028L192.22638187500002,41.31881486380631L192.3658790625,41.30375485602313L192.784370625,41.29023097047101L193.06336499999998,41.28275259656547L193.156363125,41.27880162859135L193.6678528125,41.27721089829247L193.714351875,41.27562457954059L193.99334625,41.27403649980301L194.31883968749997,41.282120340050255L195.4348171875,41.28362371469876L195.574314375,41.2849885518L195.7138115625,41.2821074921913L195.8068096875,41.28260590948349L196.78329,41.28255784239981L196.9227871875,41.279747893357225L197.1087834375,41.27552513893329L197.1552825,41.270097071181205L197.2017815625,41.26484968540453L197.4807759375,41.269908522022384L197.62027312499998,41.27405418524165L197.71327125,41.27519907281105L198.1317628125,41.27502280532039L198.31775906250002,41.27637810860729L198.45725625,41.277938396279765L198.68975156250002,41.279959059659184L199.06174406250003,41.27635320606066L199.2477403125,41.27077491487632L199.3407384375,41.26213193073957L199.4337365625,41.25234856267349L200.038224375,41.231689964839774L200.1312225,41.21443417790989L200.2707196875,41.19321265228509L200.8287084375,41.18131033845688L201.0147046875,41.16765919112163L201.24720000000002,41.14350016321201L201.340198125,41.1188489688586L201.80518875,41.1037210381879L201.898186875,41.08949162462203L201.991185,41.07640334441497L202.5956728125,41.05519669507109L202.87466718750002,41.0420798796529L203.3396578125,41.032861399012454L203.572153125,41.01485358733905L203.8976465625,41.00020818931175L204.03714374999998,40.990701292954995L204.130141875,40.98344296661332L205.06012312500002,40.974121568197084L205.1066221875,40.966790378034474L205.15312125,40.960260840553104L205.3856165625,40.95110852280723L205.4786146875,40.946110215972155L205.7576090625,40.93902131764999L205.9436053125,40.929901294125614L206.31559781250002,40.92316903509747L206.36209687500002,40.9177703073998L206.59459218749998,40.910730500446604L206.64109125,40.904330182932135L206.8270875,40.898104641003094L207.3385771875,40.89088287033198L207.61757156250002,40.88394527979533L207.8965659375,40.88438028029246L208.036063125,40.89196389180758L208.54755281250002,40.891449240326224L208.7335490625,40.88841006491397L208.91954531250002,40.887608899390386L209.0125434375,40.88939023742654L209.24503875,40.89395606038662L209.431035,40.89637421957435L209.6635303125,40.900481128444035L209.896025625,40.90106403063463L210.08202187499998,40.89863876844983L210.1285209375,40.894859251271285L210.22151906250002,40.89031113744823L210.640010625,40.87660130386135L210.6865096875,40.86292664162718L211.197999375,40.85111064346039L211.2909975,40.83857883311451L211.33749656249998,40.82706347580367L211.66299,40.80898973536932L211.755988125,40.78994008835959L211.8024871875,40.772657942211225L211.84898625000002,40.75647679278412L211.8954853125,40.73824113157596L212.0814815625,40.71391512536472L212.1744796875,40.68931302689704L213.1974590625,40.676522285147435L213.33695625,40.665586933012165L213.98794312500002,40.6529833346831L214.2204384375,40.641119318241564L214.26693749999998,40.63043485128L214.359935625,40.620876839131704L214.731928125,40.612039978639544L214.96442343750002,40.611302604142885L215.28991687500002,40.61372964744037L216.59189062500002,40.6161852168007L216.9173840625,40.61116843675502L217.42887375,40.60870044586259L217.6613690625,40.60043017691122L218.079860625,40.59106157237426L218.12635968749998,40.583424609156616L218.5913503125,40.57647550386798L218.63784937499997,40.56730430667734L218.6843484375,40.5588394109463L218.77734656250001,40.55256326490995L218.8703446875,40.54631586707144L218.9633428125,40.54034702624462L219.00984187499998,40.533842661463396L219.05634093749998,40.52526768557916L219.14933906250002,40.51523308544702L219.9863221875,40.506444363024734L220.2188175,40.49410666979717L220.45131281250002,40.47843943347365L220.59081,40.45970148640036L220.7303071875,40.44560392804208L220.9628025,40.42285171266026L221.4742921875,40.394875813624765L221.89278375,40.37245264779189L222.0322809375,40.34257539281327L222.07878000000002,40.31270800848556L222.49727156249998,40.28388553457907L222.7762659375,40.249494828912276L223.473751875,40.220604585485916L223.5202509375,40.19376785775179L223.7992453125,40.16588898217368L223.9852415625,40.13631085465634L224.12473874999998,40.11034656239198L224.403733125,40.07839555199256L224.49673124999998,40.044582422155386L224.9152228125,40.01566871827533L225.1012190625,39.98973944991505L225.3802134375,39.96095971368223L225.61270875,39.936546729338104L225.891703125,39.906122094924186L226.077699375,39.884617952387295L226.31019468750003,39.86300454951371L226.635688125,39.84261693555183L226.82168437500002,39.82183143032981L227.2401759375,39.79363666007908L227.379673125,39.76611913098826L227.937661875,39.72416929055582L228.2631553125,39.68580502036275L228.4026525,39.65350539826838L228.49565062500002,39.62079559983664L228.5421496875,39.589559371856254L228.7281459375,39.55436963144193L228.774645,39.51932123068768L228.8211440625,39.48306067248586L229.37913281250002,39.44964992921772L229.65812718749999,39.421506712749434L229.70462625,39.3937434515648L229.797624375,39.37004221942222L230.0301196875,39.35076248189181L230.07661875,39.33369734052239L230.2161159375,39.31605457533861L230.4951103125,39.309605763514355L230.68110656250002,39.30900260639831L231.0066,39.30921564607712L231.471590625,39.31538159442003L231.750585,39.330872117264L231.93658125000002,39.34206272834676L232.0760784375,39.352991519086345L232.4480709375,39.36583676491469L232.5410690625,39.378237313639026L233.14555687499998,39.386192623190716L233.331553125,39.39025073600483L233.3780521875,39.394395842343016L234.261534375,39.38296995007349L234.3080334375,39.36624345069639L234.447530625,39.34840191854619L234.77302406249999,39.335534085046824L234.86602218750002,39.31840143484773L235.2380146875,39.29817801439281L235.3310128125,39.27716875096165L235.377511875,39.25845882940993L235.9819996875,39.241283246592715L236.0749978125,39.22346367113155L236.121496875,39.2067387236103L236.5399884375,39.19068805436557L236.679485625,39.176253937882066L236.77248375,39.161000560657826L237.1909753125,39.147817704449395L237.33047249999998,39.132847528260925L237.42347062500002,39.114694665676566L237.51646875,39.09414450987269L238.0744575,39.077448004875166L238.8649415625,39.058402648281316L239.097436875,39.03620466692216L239.5624275,39.015346434612L239.84142187499998,38.99990944131894L240.1669153125,38.98309949764723L240.4459096875,38.97265545235662L240.5389078125,38.9613388957425L240.7249040625,38.94451894461099L241.0503975,38.92759978171292L241.0968965625,38.9108968190277L241.14339562499998,38.89171988661974L241.60838625,38.87236571745251L242.35237125,38.84195840779747L242.5848665625,38.808097923153596L242.817361875,38.77677044339594L243.0498571875,38.74396557540571L243.09635625,38.70743648120941L243.189354375,38.67099306501021L243.32885156249998,38.63963811398016L243.7938421875,38.60927100607978L243.9798384375,38.583030460308976L244.0263375,38.553828140100016L244.305331875,38.53255254293875L244.491328125,38.5096315365942L244.5378271875,38.48768700138598L244.9098196875,38.46989442914747L245.00281781249998,38.45401364772306L245.049316875,38.4396385815553L245.09581593750002,38.42622379055506L245.1888140625,38.41800568145479L245.32831124999998,38.40824740325124L245.3748103125,38.399295312358475L245.421309375,38.38956853732665L245.4678084375,38.37801272468904L245.6538046875,38.36918874758867L245.7468028125,38.359290053497L245.88629999999998,38.34919227614134L245.93279906249998,38.33969507432553L245.979298125,38.33021892567298L246.02579718750002,38.322208242930365L246.1187953125,38.31112500517508L246.25829249999998,38.29813072261577L246.3047915625,38.28462298229363L246.5837859375,38.2708493872843L246.8627803125,38.254789190259075L246.95577843750002,38.23888093527619L247.095275625,38.226960452150095L247.65326437500002,38.21935561596344L248.025256875,38.21264693440179L248.07175593749997,38.20610456791543L248.118255,38.19866943254641L248.397249375,38.19186388449469L248.7227428125,38.18574527362017L248.95523812500002,38.17964548180959L249.2807315625,38.17394478486757L249.4667278125,38.17036558495404L249.699223125,38.16669557421083L249.88521937500002,38.15768649412486L250.16421375,38.14312867399558L250.25721187500002,38.12523721172359L250.3967090625,38.10891314105474L250.7222025,38.08932252793515L251.00119687499998,38.07642086575685L251.14069406250002,38.059589904260264L251.2336921875,38.040929762860635L251.28019125,38.02259851111269L251.51268656250002,38.001367993562084" style="fill: none;" fill="none"></path></g></g></g></g><g opacity="0.2"><g><g><g><path stroke="rgb(238, 51, 119)" stroke-width="2px" d="M27.340706249999997,180.1976220703125L27.712698749999998,176.4202350616455L28.0381921875,177.56985008239747L28.410184687500003,176.67243522644043L28.549681875,177.3460395812988L28.5961809375,176.59116039276122L28.921674375,170.28195655822753L29.154169687499998,168.52388877868654L29.5261621875,162.48624046325682L30.13065,162.4636054611206L30.6421396875,164.30298542022703L30.874635,158.1212651634216L31.0141321875,154.68567789077758L31.432623749999998,153.57420490264894L31.479122812499998,153.91655294418337L31.9441134375,147.53765065193176L32.17660875,146.34198645591735L32.269606875,148.24322902679444L32.3161059375,147.39865180969238L32.5021021875,145.1025681591034L32.8740946875,142.49333161354065L33.2460871875,137.99309757709503L33.29258625,137.99309757709503L33.5250815625,131.68840071201325L34.03657125,129.52594276428223L34.315565625,129.2706394958496L34.5480609375,128.3926143693924L34.687558125,129.8604562330246L35.245546874999995,121.61366506576539L35.52454125,121.34430871009826L35.7570365625,120.39533191680908L36.08253,116.4633074760437L36.26852625,116.89828859329224L36.361524375,115.84626346588135L37.2450065625,103.52808277130127L37.477501874999994,99.88784343719482L37.5240009375,99.92389240264893L37.75649625,98.7605408859253L37.9889915625,100.78498668670655L38.0819896875,99.58463897705079L38.453982187499996,97.17361911773682L38.50048125,96.16334159851074L38.8259746875,96.33536354064941L39.0119709375,95.07381610870361L39.430462500000004,88.93656970977783L39.802455,91.301100730896L40.54644,86.60642066955566L40.73243625,84.70192646026611L41.011430624999996,85.68584117889404L41.197426875,87.03284957885742L41.290425,86.01782913208008L43.243385624999995,77.97802032470703L43.2898846875,75.31011848449707L43.3828828125,74.39619674682618L43.6618771875,69.6624698638916L44.08036875,67.39854187011719L44.173366875,67.44889770507812L44.2198659375,68.9950106048584L44.359363125,67.48248863220215L44.638357500000005,69.39780975341797L45.0568490625,67.01483665466309L45.196346250000005,65.3933937072754L45.2428453125,65.19109443664551L45.7078359375,64.95111656188965L46.49832,65.96919258117676L46.591318125,66.47115524291992L47.242305,57.261666488647464L47.4748003125,57.1051057434082L47.5677984375,56.78694595336914L47.707295625,55.73822593688965L48.079288125,55.22916076660157L48.358282499999994,54.05548820495605L48.451280624999995,57.00837310791016L48.5907778125,57.47214111328125L48.8697721875,51.578478164672845L49.102267499999996,51.35967880249024L49.567258125,46.59349494934082L49.8462525,47.5494002532959L50.125246875,46.81987213134765L50.311243125000004,45.07509948730468L50.5902375,41.21170829772949L50.683235625,40.39101547241211L50.729734687500006,40.29562049865723L50.82273281249999,41.39239448547363L50.915730937499994,40.54968116760254L50.96223,40.54968116760254L51.1947253125,38.63132484436035L51.241224374999994,36.943793258666986L51.659715937499996,36.02841842651367L51.9387103125,38.13067947387695L52.0317084375,38.91721778869629L52.26420375,38.11122566223145L52.4966990625,36.93038948059082L52.5896971875,35.6981925201416L53.1476859375,34.9459920501709L53.473179374999994,38.703959197998046L53.5196784375,37.570348587036136L53.6126765625,36.18961685180665L53.7056746875,35.558131866455085L53.75217375,35.246028900146484L53.845171875,32.346616516113286L54.403160625,41.87344345092774L54.542657812499996,40.50041175842286L54.7286540625,36.734785308837886L54.86815125,36.73631309509277L55.0076484375,35.59107093811035L55.193644687500004,36.34962699890137L55.24014375,35.93351234436035L55.426140000000004,38.3077261352539L55.6586353125,39.93595924377442L55.705134375,39.64885765075684L56.170125,34.73446495056152L56.356121249999994,34.9994441986084L56.4956184375,36.67021766662597L56.8676109375,31.181397705078126L57.0536071875,30.78835601806641L57.193104375,29.14432899475098L57.2396034375,29.841522369384762L57.2861025,29.841522369384762L57.6115959375,35.76413177490234L57.8905903125,36.31939041137696L57.9835884375,34.575554809570306L58.0300875,36.74632858276367L58.21608375,39.75653602600097L58.402080000000005,38.84963531494141L58.5415771875,37.88721145629883L58.58807625,37.8579662322998L58.634575312500004,38.048647537231446L58.8205715625,37.69898139953614L59.239063124999994,36.46279861450195L59.425059375,37.35812210083007L59.4715584375,37.74046249389649L59.5180575,37.36753326416016L59.611055625,37.515416183471686L59.657554687499996,38.27296730041503L59.9365490625,40.81996353149414L60.1225453125,39.79592575073242L60.169044375,39.90630661010742L60.2620425,39.13639739990235L60.355040625,38.05393028259277L60.4945378125,34.86537246704101L60.541036875,34.425451507568354L60.5875359375,33.42075210571289L60.634035000000004,33.678404769897455L60.7735321875,35.2132935333252L60.959528437500005,33.31437744140625L61.192023750000004,30.98916145324706L61.2385228125,31.09588920593262L61.285021875000005,32.379426574707026L61.564016249999995,37.445681228637696L62.3545003125,36.841968002319334L62.540496562499996,36.82721298217774L62.6334946875,35.116947937011716L62.865990000000004,34.145112915039064L63.9819675,34.68018440246583L64.074965625,33.68498443603515L64.3074609375,28.946395797729494L64.40045906249999,30.498762435913076L64.5864553125,31.82631362915039L64.6794534375,31.1673420715332L65.0514459375,33.607685241699215L65.3304403125,35.10197563171387L65.5164365625,38.56349792480469L65.84193,35.699122772216796L65.934928125,34.88395713806152L66.2139225,34.01228378295899L66.306920625,34.5040340423584L66.4464178125,37.68412452697754L66.492916875,37.87564781188965L66.585915,37.43935279846191L66.95790749999999,34.42004653930664L67.0044065625,35.571270828247066L67.14390374999999,33.162732772827155L67.4693971875,30.874998474121103L67.60889437499999,28.347829513549815L68.0273859375,27.369082107543946L68.2133821875,24.82770133972169L68.352879375,25.664160919189456L68.3993784375,26.73402549743652L68.81787,32.213434295654295L68.8643690625,31.6241365814209L69.0503653125,32.0169474029541L69.096864375,31.614793319702144L69.1433634375,30.54687072753906L69.1898625,29.542619476318368L69.37585875,27.543168258666995L69.42235781250001,28.262280273437497L69.561855,28.702208023071293L69.6083540625,29.18906257629395L69.9803465625,30.952766189575204L70.16634281249999,30.002462768554697L70.2593409375,29.872458343505855L70.3523390625,29.72277603149413L70.39883812500001,30.094822540283204L70.8173296875,30.62677734375001L70.95682687499999,30.70396110534668L71.328819375,26.82428710937501L71.42181749999999,28.895761566162108L71.60781374999999,26.49603713989258L71.6543128125,27.58113204956055L71.886808125,24.444518966674806L72.2123015625,27.92606544494629L72.72379124999999,27.658105316162107L72.816789375,26.122727661132814L73.09578375,25.961047134399404L73.23528093750001,23.263506240844716L73.3282790625,24.5549609375L73.5142753125,25.10435287475586L73.70027156249999,27.902299880981445L73.79326968749999,27.25990310668945L74.025765,24.08811698913574L74.0722640625,23.742416305541994L74.118763125,24.44861343383789L74.490755625,19.330176391601572L74.76975,20.099936218261718L74.95574625,18.71903472900391L75.0022453125,18.56804870605468L75.048744375,18.663355407714846L75.46723593749999,21.80483024597169L75.69973125,23.189371261596676L76.35071812499999,23.33858505249023L76.44371625,23.5914778137207L77.37369749999999,31.205984878540036L77.42019656250001,30.098373794555673L77.6061928125,33.03321044921876L77.652691875,33.16229820251465L77.6991909375,32.71738647460937L78.53617406250001,31.689532623291015L78.768669375,31.957227935791007L79.09416281249999,32.91508880615234L79.140661875,33.25477340698242L79.41965625,33.531024322509765L79.512654375,35.40884338378906L79.74514968749999,36.704766006469725L79.8381478125,35.65803550720214L80.1171421875,31.273574142456056L80.9541253125,26.47551727294922L81.0471234375,26.904105453491212L81.1401215625,25.39298904418945L81.5121140625,26.728769912719727L81.65161124999999,26.200060806274404L82.02360374999999,25.282581024169932L82.1631009375,22.40399406433106L82.30259812499999,24.60255317687988L82.9070859375,25.7762257385254L83.232579375,28.720541458129887L83.51157375,32.25520057678223L83.69757,33.3989624786377L83.790568125,32.197647171020506L83.83706718750001,32.12792579650879L84.11606156250001,35.26667098999023L84.58105218749999,33.09466819763183L84.8135475,33.374273452758786L84.86004656249999,33.63101623535157L84.99954375,35.43644538879394L85.278538125,39.20351135253907L85.37153625,41.140893707275396L85.51103343749999,44.3882339477539L85.650530625,46.52771186828613L85.7900278125,47.42279090881348L85.836526875,48.75632423400879L86.67351000000001,55.00987251281738L87.3709959375,61.80013549804687L88.06848187499999,56.16560546875L88.2079790625,54.761861877441405L88.25447812499999,54.37528442382812L88.34747625,52.202969284057616L88.3939753125,49.73357780456543L89.370455625,37.29517051696777L89.41695468750001,37.29517051696777L89.64945,34.58966476440429L89.7889471875,34.61977233886719L89.97494343749999,33.79206527709961L90.0679415625,34.7216519165039L90.2539378125,31.526208877563477L90.4399340625,31.77700347900391L90.62593031249999,32.823896942138674L91.788406875,35.65088546752929L91.8349059375,35.16140991210938L92.34639562499999,35.481090698242184L92.71838812499999,32.131952362060545L92.76488718750001,30.759314498901357L92.90438437499999,29.068394622802725L92.9973825,30.226327590942393L93.0438815625,30.758968200683597L93.462373125,29.22857452392579L93.7878665625,27.279608154296884L94.4853525,33.5344873046875L94.53185156250001,37.101467590332035L94.67134874999999,36.28576553344726L94.9968421875,37.42893669128418L95.5548309375,39.60167961120605L95.78732625,43.01278495788574L95.8338253125,43.01278495788574L95.92682343749999,41.04092895507813L96.252316875,45.72449691772461L96.57781031249999,47.919681320190435L96.62430937500001,49.29836921691894L97.0428009375,47.756663131713864L97.22879718749999,41.2133243560791L97.3217953125,41.38315307617188L97.5077915625,42.32820770263672L97.926283125,40.145177688598636L98.2517765625,41.69219367980958L98.29827562499999,41.353704147338874L98.53077093750001,38.82817161560058L98.9027634375,40.804916534423825L99.321255,36.20503051757812L99.36775406250001,37.745677337646484L99.5537503125,37.23295906066895L99.78624562499999,34.90059303283691L99.9257428125,33.34252944946289L100.01874093750001,32.23010414123536L100.158238125,32.01396652221679L100.29773531250001,31.07938911437988L100.4837315625,31.0679884338379L100.85572406249999,26.826616134643558L101.22771656249999,23.43636337280273L101.4137128125,25.605880966186515L101.55321,27.86241447448731L101.5997090625,27.997172012329102L101.8787034375,31.365302429199218L101.9252025,31.144846267700185L102.297195,27.078347778320303L102.48319125,29.329890518188478L102.5296903125,30.00094856262207L102.57618937500001,31.522521820068363L102.6691875,31.38803588867188L102.8086846875,30.28066246032715L103.13417812499999,33.50941802978515L103.1806771875,34.13095542907715L103.5526696875,37.1875057220459L103.59916874999999,38.104720687866205L104.0176603125,38.37539009094239L104.2036565625,33.798767166137694L104.29665468750001,32.285586547851565L104.436151875,30.888714599609372L104.6686471875,28.742154541015623L104.71514625,29.230835647583007L104.808144375,28.607166137695316L104.8546434375,29.142889480590824L104.90114249999999,29.515295867919917L105.13363781250001,30.92977470397949L105.7846246875,29.57975486755372L106.20311625000001,25.850408248901378L106.482110625,26.05818717956544L106.80760406249999,26.42059844970703L106.85410312500001,26.703632736206064L107.2725946875,26.752216339111328L107.598088125,25.10272323608399L108.0165796875,23.407355804443355L108.15607687500001,21.772610931396486L108.4815703125,23.967944717407217L108.5745684375,24.515068740844725L108.76056468750001,27.887266464233388L109.2255553125,27.495480957031248L109.272054375,27.349186935424814L109.41155156250001,27.040295715332036L109.644046875,30.527070617675772L109.830043125,32.28519950866699L110.4345309375,35.58269187927246L110.52752906250001,34.095762023925786L110.574028125,37.9900552368164L110.8530225,37.56313743591309L110.89952156250001,38.29591125488281L110.946020625,38.29591125488281L111.03901875,35.60609077453613L111.690005625,36.27252471923828L112.52698875,35.558077545166014L112.80598312500001,33.2306411743164L113.1314765625,36.200107650756834L113.4104709375,33.53414779663086L113.5964671875,30.937970428466798L113.6894653125,31.261861114501954L113.7824634375,33.61503898620606L114.0614578125,31.36484748840331L114.200955,30.03388084411621L114.29395312499999,31.532523727416983L114.4334503125,31.420682983398436L114.5729475,32.038058013916014L114.7124446875,32.3755086517334L115.13093624999999,30.502490234375003L115.223934375,32.421131744384766L115.78192312499999,27.502542724609366L115.82842218750001,25.07390579223633L115.87492125,26.010608520507816L116.525908125,26.682752990722665L116.711904375,28.43212257385254L116.897900625,28.210063934326172L117.08389687500001,26.13613822937012L117.1303959375,27.075570602416988L117.269893125,27.549965209960927L117.36289125,26.582733917236325L117.455889375,25.382735900878917L117.827881875,23.85535026550294L117.92088000000001,23.14412162780762L118.0603771875,23.61355941772462L118.19987437500001,25.65153800964356L118.33937156249999,24.609126052856436L118.4323696875,27.010147399902333L118.57186687500001,27.579366607666017L118.7113640625,26.82167968749999L119.4553490625,38.47076469421387L119.78084249999999,52.2632862854004L120.0133378125,52.3017797088623L120.059836875,53.40933647155762L120.1063359375,55.02734359741211L120.1993340625,56.63390930175781L120.24583312499999,57.38367889404297L120.33883125,55.91267875671387L120.43182937499999,56.52768402099609L120.617825625,57.63010063171387L120.803821875,57.33562492370605L121.0363171875,59.07897163391114L121.12931531250001,62.659226684570314L121.45480875,63.628916015624995L121.547806875,61.019830551147464L121.59430593750001,62.57209533691406L121.82680125,62.28652153015136L122.0127975,62.35065460205078L122.2452928125,52.89876388549804L122.33829093749999,52.22957992553711L122.38479,48.14112884521484L122.84978062500001,38.30960021972656L122.8962796875,38.87066444396973L123.0822759375,40.996758956909176L123.221773125,41.59690734863281L123.3612703125,40.23821647644043L123.407769375,40.23821647644043L123.5472665625,41.89697814941407L123.593765625,41.79473190307617L123.68676375000001,42.39115928649902L123.9192590625,39.914488754272455L123.96575812500001,39.04908950805664L124.2912515625,34.67470474243164L124.33775062500001,34.74638168334961L124.52374687499999,31.306241607666006L124.616745,31.93611053466798L124.70974312499999,31.648295974731436L124.89573937499999,26.869502792358407L125.36072999999999,30.391830978393557L125.453728125,33.13969375610351L125.54672624999999,31.799811630249025L125.59322531250001,31.709196929931636L125.7792215625,29.166383438110362L125.91871875,30.421082992553707L126.29071125,32.68990669250488L126.4767075,30.22047447204589L127.127694375,34.92380180358887L127.313690625,37.1635432434082L127.40668875,37.400336532592775L127.6391840625,37.215813903808595L127.685683125,36.52941688537598L127.77868125,34.42443977355957L127.871679375,34.28968223571778L127.91817843749999,33.21135711669922L128.0111765625,33.00063125610352L128.1041746875,33.45544982910157L128.15067375,31.940741424560542L128.47616718749998,33.93099876403808L128.615664375,35.289397659301756L128.8481596875,33.696507339477535L129.4061484375,27.944622955322256L129.5921446875,26.4691005706787L129.731641875,26.11578132629394L130.1966325,21.08795219421387L130.475626875,24.462112274169925L130.5221259375,24.694037017822268L130.6151240625,24.307147216796878L130.75462124999999,22.481028442382808L130.8941184375,20.299512634277352L130.9406175,20.152526016235356L130.9871165625,20.42041145324707L131.4521071875,20.079355239868164L131.49860625,19.46694381713867L131.5451053125,19.126376495361328L131.6381034375,19.961885452270508L132.1960921875,19.60414581298828L132.24259125,18.82717483520509L132.2890903125,18.336925201416026L132.335589375,20.52311264038086L132.707581875,25.159251327514653L133.1260734375,26.234649887084952L133.9165575,34.30658294677734L134.567544375,30.804598083496085L134.753540625,30.550944824218746L134.8000396875,30.348401107788096L134.8930378125,31.230891189575186L135.2650303125,35.19527244567871L135.3580284375,32.94882232666015L135.5440246875,33.739706344604485L136.0090153125,25.367424087524412L136.3810078125,23.981504669189444L136.427506875,22.21938995361329L136.9389965625,21.82826988220215L137.3109890625,27.330208435058594L137.5899834375,23.984064559936527L137.6364825,24.575494384765616L137.729480625,23.314126892089845L137.82247875,21.946248931884767L138.05497406249998,17.94587982177734L138.93845625,25.713939590454103L139.217450625,29.663301010131832L139.2639496875,27.74161750793456L139.7289403125,27.825116119384756L139.82193843750002,23.74523422241211L139.961435625,22.74707374572753L140.0079346875,22.69492530822754L140.05443375,20.0280012512207L140.519424375,21.519806442260744L140.56592343749998,21.97090400695801L140.70542062500002,21.084896621704104L140.98441499999998,17.044852600097656L141.2169103125,16.480332183837888L141.30990843749998,17.42815719604492L141.4029065625,17.365456848144532L141.4959046875,17.32084548950195L141.91439625,18.634307098388675L142.1003925,16.945526123046875L142.28638875,17.85447067260742L142.37938687500002,18.430031890869145L142.5188840625,23.579717254638663L142.93737562500002,26.410732345581053L142.9838746875,27.102140502929686L143.16987093749998,27.816241378784184L143.4488653125,31.854051437377933L143.54186343749998,32.039029006958L144.0998521875,34.464230117797854L144.14635125,34.65676513671875L144.1928503125,35.06562110900879L144.239349375,34.6274520111084L144.3788465625,31.29198905944824L144.56484281250002,29.670104751586923L144.8438371875,31.290997695922854L144.89033625000002,33.44941337585449L145.0298334375,32.66527877807617L145.4018259375,26.899012832641603L145.63432125,25.584396896362307L145.7738184375,26.364735794067386L145.913315625,25.368856811523447L145.9598146875,24.842218704223622L146.2388090625,26.271622314453126L146.3318071875,28.316445388793955L146.6108015625,24.494976654052735L146.75029875,24.461888198852535L146.8897959375,26.788353576660157L146.936295,26.268172912597667L147.12229125000002,25.555864639282216L148.0057734375,26.99526336669922L148.1917696875,27.475164794921884L148.28476781249998,28.215815200805665L148.517263125,30.974881744384756L148.74975843750002,34.113572616577144L149.35424625,35.9403500366211L149.54024249999998,38.45262817382813L149.67973968750002,39.13765357971191L150.377225625,44.633942718505864L150.8887153125,45.94796112060547L150.93521437500002,46.339271316528325L151.0747115625,45.48440361022949L151.3537059375,39.01587203979493L151.679199375,43.74394271850586L151.72569843749997,42.94179382324219L151.7721975,41.432436065673826L151.8186965625,40.60262405395508L151.865195625,41.269390716552735L151.9116946875,39.87814781188965L152.2836871875,43.61728584289551L153.353165625,46.24054916381836L153.39966468749998,45.30596496582031L153.44616375,45.319185409545895L153.77165718749998,44.38482528686524L154.28314687499997,47.13265411376953L154.376145,44.468031921386725L154.93413375,39.281842651367185L154.9806328125,40.478187561035156L155.12013000000002,38.97336563110352L155.213128125,35.05381980895996L155.2596271875,35.36026657104492L155.3526253125,37.76381385803222L156.2361075,40.12497695922852L156.46860281250002,36.9101887512207L156.6081,36.30424835205078L156.7475971875,34.072790908813474L157.16608875,39.37949195861816L157.21258781249998,40.086463165283206L157.4915821875,42.848592071533204L157.58458031249998,42.15452896118164L157.63107937499998,42.583639984130855L157.91007375,40.86073844909669L158.0495709375,40.77746391296387L158.3285653125,37.85654029846191L158.4215634375,38.57730911254883L158.51456156249998,39.917456054687506L158.65405875000002,39.08866935729981L159.0725503125,41.59675796508789L159.305045625,45.12873497009278L159.39804374999997,41.88662315368653L159.4445428125,43.451538009643556L159.491041875,45.47820419311523L160.0025315625,46.2279330444336L160.4675221875,47.51344635009765L160.8395146875,51.63182167053223L161.62999875,52.7237474822998L161.95549218750003,49.425705108642575L162.00199125,50.90197441101074L162.1414884375,48.99422431945801L162.6064790625,42.83513397216797L162.8854734375,41.71804382324218L163.07146968749998,40.47959312438965L163.303965,39.32878982543946L163.396963125,36.89990165710449L163.48996125,35.54068794250489L163.582959375,35.39964950561523L163.6759575,35.201023712158204L163.86195375,34.11818313598633L163.9084528125,34.11818313598633L164.04795,32.72778900146484L164.326944375,33.449440536499026L164.4199425,33.19065391540528L164.5594396875,34.36374931335449L164.93143218749998,33.72136611938477L165.02443031250002,31.68120788574218L165.070929375,31.623124847412118L165.1174284375,32.69755241394043L165.4894209375,31.148472213745126L166.18690687499998,30.65848060607909L166.279905,31.00829612731934L166.372903125,32.204118194580076L166.46590125,32.60141052246094L166.55889937499998,32.96115325927734L166.9773909375,32.903654174804686L167.1633871875,34.07034645080566L167.767875,33.54890960693359L167.95387125000002,34.21602935791016L168.8373534375,31.06624336242676L169.534839375,29.80728637695313L169.5813384375,27.91088943481445L169.8603328125,29.196857681274405L169.906831875,28.30562187194825L169.99983,30.770239868164072L170.13932718750002,32.3350936126709L170.37182249999998,33.96928169250488L170.51131968750002,34.981171875L170.55781875,36.30610206604004L170.650816875,37.361001129150395L171.394801875,46.54882926940918L171.72029531249999,50.42430694580078L171.9062915625,51.63870010375976L172.231785,47.346496658325194L172.2782840625,47.346496658325194L172.60377749999998,48.20268844604492L172.7432746875,46.59753509521484L173.85925218749998,38.57872146606445L173.99874937500002,37.53385147094727L174.32424281250002,32.254134521484374L174.46374,28.78106216430665L174.5102390625,26.01119926452637L174.60323718749999,26.022661056518558L174.64973625,26.502426681518557L174.9752296875,29.41634963989257L175.0682278125,29.194630508422847L175.5797175,27.094100952148438L175.8122128125,25.77890785217285L176.230704375,27.161744537353513L176.3237025,29.226211547851562L176.41670062499998,29.46790054321289L176.602696875,28.813424072265615L176.7421940625,30.46976165771484L177.346681875,26.862162628173838L177.3931809375,28.867616348266612L177.43968,29.518398971557616L177.71867437499998,28.452262191772462L178.09066687499998,32.43687133789062L178.36966125,32.06534767150879L178.41616031249998,31.640039138793956L178.462659375,32.10941581726074L178.648655625,35.781120758056645L178.8811509375,32.84101493835449L179.206644375,30.85509651184083L179.578636875,28.837413711547853L179.764633125,35.581001129150394L179.950629375,36.187403259277346L180.0436275,38.419410705566406L180.322621875,38.07502052307129L180.4621190625,36.46567764282227L180.5551171875,36.4296150970459L180.64811531249998,35.95873100280761L180.74111343750002,34.12831405639649L180.880610625,35.23697761535645L181.1131059375,37.26347404479981L181.67109468750002,37.17804023742676L181.90358999999998,41.113393554687505L182.1360853125,45.13626525878907L182.97306843750002,44.77718795776367L183.1590646875,49.35615348815918L183.29856187500002,49.3928882598877L183.53105718749998,48.89402870178223L183.8100515625,46.66136940002441L183.856550625,46.83510925292968L184.042546875,48.515409317016605L184.135545,47.37299186706542L184.414539375,52.866150741577144L184.46103843749998,52.91993560791016L184.7400328125,52.20757301330566L185.06552625,52.01365280151367L185.344520625,53.909798507690425L185.4840178125,53.580686187744135L185.76301218749998,44.02601280212403L186.274501875,43.5677651977539L186.3675,41.80450294494629L186.6929934375,40.31957618713379L186.832490625,38.71275924682617L186.9719878125,38.38848152160645L187.06498593749998,38.153392562866216L187.29748125,35.83584266662598L188.04146625,33.81459503173828L188.134464375,33.90578010559082L188.1809634375,33.232562789917L188.36695968749999,33.36662094116211L188.41345875000002,35.525736007690426L188.599455,32.55394729614258L188.692453125,29.758268203735355L188.9714475,32.116423263549805L189.0179465625,31.874673156738282L189.34344000000002,33.452204132080084L189.90142875,34.6278458404541L190.1339240625,32.354343719482415L190.27342125,31.303328628540044L190.6919128125,28.708251266479493L190.738411875,29.992046661376943L191.01740625000002,33.234049835205084L191.0639053125,33.06007232666016L191.7148921875,34.097602157592775L191.90088843750002,31.723469848632817L191.9938865625,32.725147628784185L192.0868846875,32.1361011505127L192.22638187500002,31.821526565551768L192.3658790625,33.369982070922845L192.784370625,34.1593179321289L193.06336499999998,37.33600654602051L193.156363125,39.191798324584965L193.6678528125,40.436197204589845L193.714351875,40.436197204589845L193.99334625,40.432931137084964L194.31883968749997,45.567413330078125L195.4348171875,42.08127670288086L195.574314375,42.00977630615235L195.7138115625,39.75079154968262L195.8068096875,41.54775337219239L196.78329,41.256964721679694L196.9227871875,39.78229110717774L197.1087834375,39.02319862365722L197.1552825,38.37235488891602L197.2017815625,38.46112266540527L197.4807759375,43.97524276733398L197.62027312499998,43.49297157287597L197.71327125,41.88851760864257L198.1317628125,41.180514297485345L198.31775906250002,42.00367195129394L198.45725625,42.11595405578613L198.68975156250002,42.366171493530274L199.06174406250003,39.3363540649414L199.2477403125,38.267005538940424L199.3407384375,36.60412223815918L199.4337365625,35.975244674682614L200.038224375,30.079042205810556L200.1312225,31.89088806152344L200.2707196875,29.71718772888184L200.8287084375,34.73940818786622L201.0147046875,33.772984924316404L201.24720000000002,28.045775985717764L201.340198125,27.743036651611337L201.80518875,32.88835594177246L201.898186875,33.35558692932129L201.991185,33.95676063537597L202.5956728125,29.509748306274417L202.87466718750002,33.89498374938965L203.3396578125,36.00570533752442L203.572153125,31.186402053833007L203.8976465625,33.00028495788574L204.03714374999998,35.79333625793457L204.130141875,37.01207511901856L205.06012312500002,35.86973915100097L205.1066221875,36.94893341064453L205.15312125,37.37880493164063L205.3856165625,35.926932678222656L205.4786146875,38.200034179687506L205.7576090625,37.041184539794926L205.9436053125,35.911152343750004L206.31559781250002,37.215386123657225L206.36209687500002,37.94200805664063L206.59459218749998,37.02725791931152L206.64109125,37.37076538085938L206.8270875,37.458249816894536L207.3385771875,36.89734855651855L207.61757156250002,37.04446418762207L207.8965659375,41.12531707763672L208.036063125,45.09572799682617L208.54755281250002,40.6059376525879L208.7335490625,39.201026153564456L208.91954531250002,40.4424373626709L209.0125434375,41.87998916625976L209.24503875,43.43502433776855L209.431035,42.24324920654297L209.6635303125,43.189777297973635L209.896025625,41.22624603271484L210.08202187499998,39.544594726562494L210.1285209375,38.783057785034174L210.22151906250002,38.34705474853516L210.640010625,33.20417991638183L210.6865096875,33.20417991638183L211.197999375,34.228156585693355L211.2909975,33.80891166687012L211.33749656249998,34.36252708435059L211.66299,30.654773178100584L211.755988125,30.079110107421865L211.8024871875,31.04807289123535L211.84898625000002,31.644357681274414L211.8954853125,30.46121284484863L212.0814815625,26.99397323608399L212.1744796875,26.802952423095704L213.1974590625,33.451382522583L213.33695625,34.48375862121583L213.98794312500002,33.52261810302734L214.2204384375,33.924025268554686L214.26693749999998,34.57654617309571L214.359935625,35.20111198425293L214.731928125,35.597378997802736L214.96442343750002,40.19254585266113L215.28991687500002,41.99309967041016L216.59189062500002,42.012825088500975L216.9173840625,37.75564529418945L217.42887375,39.20287307739258L217.6613690625,35.88593368530273L218.079860625,35.246436309814456L218.12635968749998,36.22339790344239L218.5913503125,36.60617965698242L218.63784937499997,35.32351821899414L218.6843484375,35.71527656555176L218.77734656250001,36.958711242675776L218.8703446875,36.966261901855475L218.9633428125,37.11737693786621L219.00984187499998,36.800996170043945L219.05634093749998,35.6004549407959L219.14933906250002,34.74786193847656L219.9863221875,35.451410903930665L220.2188175,33.39257293701172L220.45131281250002,31.453798599243154L220.59081,29.658344192504885L220.7303071875,32.31320892333984L220.9628025,27.288279190063477L221.4742921875,24.232937545776366L221.89278375,27.408933563232424L222.0322809375,23.05704460144042L222.07878000000002,23.02033020019532L222.49727156249998,23.584375305175783L222.7762659375,20.30936515808105L223.473751875,23.45759620666505L223.5202509375,24.611034088134776L223.7992453125,23.966369400024423L223.9852415625,22.937048873901357L224.12473874999998,25.001638107299815L224.403733125,21.472669143676754L224.49673124999998,20.340416564941407L224.9152228125,23.154544525146495L225.1012190625,24.85821632385255L225.3802134375,23.154035263061534L225.61270875,25.669606628417966L225.891703125,22.113361587524405L226.077699375,27.299781723022463L226.31019468750003,27.205283050537105L226.635688125,27.89434181213379L226.82168437500002,27.631786651611318L227.2401759375,23.24665985107421L227.379673125,23.605261840820322L227.937661875,15.070042877197267L228.2631553125,17.123156738281253L228.4026525,20.6443034362793L228.49565062500002,20.35676727294921L228.5421496875,21.180563201904288L228.7281459375,18.800964813232426L228.774645,18.83492919921875L228.8211440625,18.06846939086914L229.37913281250002,19.704443283081044L229.65812718749999,22.777839965820302L229.70462625,22.963462600708016L229.797624375,25.334016494750987L230.0301196875,27.925332107543955L230.07661875,29.21373123168945L230.2161159375,28.846383514404295L230.4951103125,35.4800993347168L230.68110656250002,38.950584640502925L231.0066,39.43589782714844L231.471590625,42.98440208435059L231.750585,48.55469718933105L231.93658125000002,46.01002319335937L232.0760784375,45.869351425170905L232.4480709375,47.030068359374994L232.5410690625,46.78212562561035L233.14555687499998,44.13919799804688L233.331553125,41.816453628540046L233.3780521875,41.87427185058594L234.261534375,32.54266883850097L234.3080334375,29.345949249267576L234.447530625,28.652992935180663L234.77302406249999,31.616551971435538L234.86602218750002,29.034260482788085L235.2380146875,27.150690155029295L235.3310128125,26.649284286499025L235.377511875,28.005177612304692L235.9819996875,28.90401840209961L236.0749978125,28.491529693603507L236.121496875,29.12741470336914L236.5399884375,29.51135757446289L236.679485625,30.46606781005859L236.77248375,29.950402603149413L237.1909753125,31.182273635864266L237.33047249999998,30.081432342529297L237.42347062500002,28.131773376464853L237.51646875,26.65270652770997L238.0744575,28.962508850097667L238.8649415625,27.513013153076173L239.097436875,25.570959167480467L239.5624275,26.354604873657223L239.84142187499998,29.623755111694337L240.1669153125,28.766456527709963L240.4459096875,32.62095260620117L240.5389078125,32.07458229064942L240.7249040625,28.70207221984863L241.0503975,28.618139038085946L241.0968965625,28.72666618347168L241.14339562499998,27.191580505371093L241.60838625,27.05656494140625L242.35237125,20.266356277465817L242.5848665625,18.109835052490244L242.817361875,19.61473846435547L243.0498571875,18.665555419921873L243.09635625,16.335457305908207L243.189354375,16.337399291992185L243.32885156249998,19.412296600341787L243.7938421875,19.975975036621094L243.9798384375,22.47168518066407L244.0263375,20.61274955749512L244.305331875,25.45324493408204L244.491328125,24.409990997314452L244.5378271875,24.98028984069825L244.9098196875,27.511308822631833L245.00281781249998,28.666831283569337L245.049316875,29.57491348266602L245.09581593750002,30.148546295166014L245.1888140625,33.34383316040039L245.32831124999998,32.37939262390137L245.3748103125,32.865106430053714L245.421309375,32.37276542663574L245.4678084375,31.225404739379883L245.6538046875,32.90412948608399L245.7468028125,32.22485534667969L245.88629999999998,32.08755149841309L245.93279906249998,32.44687324523926L245.979298125,32.44687324523926L246.02579718750002,33.34568008422852L246.1187953125,31.421626815795907L246.25829249999998,30.215796051025393L246.3047915625,29.87782936096191L246.5837859375,29.693408584594717L246.8627803125,28.24733512878419L246.95577843750002,28.320125656127928L247.095275625,30.790094299316408L247.65326437500002,33.472051773071286L248.025256875,34.022251739501954L248.07175593749997,34.11714424133301L248.118255,33.54895034790039L248.397249375,33.933327789306645L248.7227428125,34.35477272033691L248.95523812500002,34.35818138122559L249.2807315625,34.600386428833005L249.4667278125,35.92536415100098L249.699223125,35.863369979858405L249.88521937500002,32.50017601013184L250.16421375,28.995726318359374L250.25721187500002,26.87651023864745L250.3967090625,27.83959274291992L250.7222025,25.757804031372075L251.00119687499998,29.950565567016593L251.14069406250002,27.452730102539064L251.2336921875,26.27444023132324L251.28019125,26.456742477416995L251.51268656250002,24.598445129394534" style="fill: none;" fill="none"></path></g></g></g></g></g></g><g transform="translate(51, 178)" clip-path="url(#clip_1)"><clipPath id="clip_1"><rect width="278" height="22"></rect></clipPath><g><g><line x1="0" y1="0" x2="0" y2="5" style="visibility: inherit;" fill="rgb(0, 0, 0)" stroke="rgb(204, 204, 204)" stroke-width="1px"></line><line x1="23.203125" y1="0" x2="23.203125" y2="5" style="visibility: inherit;" fill="rgb(0, 0, 0)" stroke="rgb(204, 204, 204)" stroke-width="1px"></line><line x1="46.40625" y1="0" x2="46.40625" y2="5" style="visibility: inherit;" fill="rgb(0, 0, 0)" stroke="rgb(204, 204, 204)" stroke-width="1px"></line><line x1="69.609375" y1="0" x2="69.609375" y2="5" style="visibility: inherit;" fill="rgb(0, 0, 0)" stroke="rgb(204, 204, 204)" stroke-width="1px"></line><line x1="92.8125" y1="0" x2="92.8125" y2="5" style="visibility: inherit;" fill="rgb(0, 0, 0)" stroke="rgb(204, 204, 204)" stroke-width="1px"></line><line x1="116.015625" y1="0" x2="116.015625" y2="5" style="visibility: inherit;" fill="rgb(0, 0, 0)" stroke="rgb(204, 204, 204)" stroke-width="1px"></line><line x1="139.21875" y1="0" x2="139.21875" y2="5" style="visibility: inherit;" fill="rgb(0, 0, 0)" stroke="rgb(204, 204, 204)" stroke-width="1px"></line><line x1="162.421875" y1="0" x2="162.421875" y2="5" style="visibility: inherit;" fill="rgb(0, 0, 0)" stroke="rgb(204, 204, 204)" stroke-width="1px"></line><line x1="185.625" y1="0" x2="185.625" y2="5" style="visibility: inherit;" fill="rgb(0, 0, 0)" stroke="rgb(204, 204, 204)" stroke-width="1px"></line><line x1="208.828125" y1="0" x2="208.828125" y2="5" style="visibility: inherit;" fill="rgb(0, 0, 0)" stroke="rgb(204, 204, 204)" stroke-width="1px"></line><line x1="232.03125" y1="0" x2="232.03125" y2="5" style="visibility: inherit;" fill="rgb(0, 0, 0)" stroke="rgb(204, 204, 204)" stroke-width="1px"></line><line x1="255.234375" y1="0" x2="255.234375" y2="5" style="visibility: inherit;" fill="rgb(0, 0, 0)" stroke="rgb(204, 204, 204)" stroke-width="1px"></line><line x1="278.4375" y1="0" x2="278.4375" y2="5" style="visibility: inherit;" fill="rgb(0, 0, 0)" stroke="rgb(204, 204, 204)" stroke-width="1px"></line></g><g transform="translate(0, 8)"><text x="0" y="0" dx="0em" dy="0.95em" style="text-anchor: middle; visibility: hidden; font-family: Roboto, sans-serif; font-size: 12px; font-weight: 200;" fill="rgb(50, 49, 63)" stroke="none" stroke-width="1px">-500k</text><text x="23.203125" y="0" dx="0em" dy="0.95em" style="text-anchor: middle; visibility: inherit; font-family: Roboto, sans-serif; font-size: 12px; font-weight: 200;" fill="rgb(50, 49, 63)" stroke="none" stroke-width="1px">0</text><text x="46.40625" y="0" dx="0em" dy="0.95em" style="text-anchor: middle; visibility: hidden; font-family: Roboto, sans-serif; font-size: 12px; font-weight: 200;" fill="rgb(50, 49, 63)" stroke="none" stroke-width="1px">500k</text><text x="69.609375" y="0" dx="0em" dy="0.95em" style="text-anchor: middle; visibility: inherit; font-family: Roboto, sans-serif; font-size: 12px; font-weight: 200;" fill="rgb(50, 49, 63)" stroke="none" stroke-width="1px">1M</text><text x="92.8125" y="0" dx="0em" dy="0.95em" style="text-anchor: middle; visibility: hidden; font-family: Roboto, sans-serif; font-size: 12px; font-weight: 200;" fill="rgb(50, 49, 63)" stroke="none" stroke-width="1px">1.5M</text><text x="116.015625" y="0" dx="0em" dy="0.95em" style="text-anchor: middle; visibility: inherit; font-family: Roboto, sans-serif; font-size: 12px; font-weight: 200;" fill="rgb(50, 49, 63)" stroke="none" stroke-width="1px">2M</text><text x="139.21875" y="0" dx="0em" dy="0.95em" style="text-anchor: middle; visibility: hidden; font-family: Roboto, sans-serif; font-size: 12px; font-weight: 200;" fill="rgb(50, 49, 63)" stroke="none" stroke-width="1px">2.5M</text><text x="162.421875" y="0" dx="0em" dy="0.95em" style="text-anchor: middle; visibility: inherit; font-family: Roboto, sans-serif; font-size: 12px; font-weight: 200;" fill="rgb(50, 49, 63)" stroke="none" stroke-width="1px">3M</text><text x="185.625" y="0" dx="0em" dy="0.95em" style="text-anchor: middle; visibility: hidden; font-family: Roboto, sans-serif; font-size: 12px; font-weight: 200;" fill="rgb(50, 49, 63)" stroke="none" stroke-width="1px">3.5M</text><text x="208.828125" y="0" dx="0em" dy="0.95em" style="text-anchor: middle; visibility: inherit; font-family: Roboto, sans-serif; font-size: 12px; font-weight: 200;" fill="rgb(50, 49, 63)" stroke="none" stroke-width="1px">4M</text><text x="232.03125" y="0" dx="0em" dy="0.95em" style="text-anchor: middle; visibility: hidden; font-family: Roboto, sans-serif; font-size: 12px; font-weight: 200;" fill="rgb(50, 49, 63)" stroke="none" stroke-width="1px">4.5M</text><text x="255.234375" y="0" dx="0em" dy="0.95em" style="text-anchor: middle; visibility: inherit; font-family: Roboto, sans-serif; font-size: 12px; font-weight: 200;" fill="rgb(50, 49, 63)" stroke="none" stroke-width="1px">5M</text><text x="278.4375" y="0" dx="0em" dy="0.95em" style="text-anchor: middle; visibility: hidden; font-family: Roboto, sans-serif; font-size: 12px; font-weight: 200;" fill="rgb(50, 49, 63)" stroke="none" stroke-width="1px">5.5M</text></g><line x1="0" y1="0" x2="278.4375" y2="0" fill="rgb(0, 0, 0)" stroke="rgb(204, 204, 204)" stroke-width="1px"></line></g></g></g></g></svg>