<svg viewBox="0 0 330 200" xmlns="http://www.w3.org/2000/svg"><g><g><g><g><g><line x1="72.34375" y1="178" x2="67.34375" y2="178" style="visibility: inherit;" fill="rgb(0, 0, 0)" stroke="rgb(204, 204, 204)" stroke-width="1px"></line><line x1="72.34375" y1="163.16666666666666" x2="67.34375" y2="163.16666666666666" style="visibility: inherit;" fill="rgb(0, 0, 0)" stroke="rgb(204, 204, 204)" stroke-width="1px"></line><line x1="72.34375" y1="148.33333333333334" x2="67.34375" y2="148.33333333333334" style="visibility: inherit;" fill="rgb(0, 0, 0)" stroke="rgb(204, 204, 204)" stroke-width="1px"></line><line x1="72.34375" y1="133.5" x2="67.34375" y2="133.5" style="visibility: inherit;" fill="rgb(0, 0, 0)" stroke="rgb(204, 204, 204)" stroke-width="1px"></line><line x1="72.34375" y1="118.66666666666669" x2="67.34375" y2="118.66666666666669" style="visibility: inherit;" fill="rgb(0, 0, 0)" stroke="rgb(204, 204, 204)" stroke-width="1px"></line><line x1="72.34375" y1="103.83333333333331" x2="67.34375" y2="103.83333333333331" style="visibility: inherit;" fill="rgb(0, 0, 0)" stroke="rgb(204, 204, 204)" stroke-width="1px"></line><line x1="72.34375" y1="89" x2="67.34375" y2="89" style="visibility: inherit;" fill="rgb(0, 0, 0)" stroke="rgb(204, 204, 204)" stroke-width="1px"></line><line x1="72.34375" y1="74.16666666666666" x2="67.34375" y2="74.16666666666666" style="visibility: inherit;" fill="rgb(0, 0, 0)" stroke="rgb(204, 204, 204)" stroke-width="1px"></line><line x1="72.34375" y1="59.33333333333334" x2="67.34375" y2="59.33333333333334" style="visibility: inherit;" fill="rgb(0, 0, 0)" stroke="rgb(204, 204, 204)" stroke-width="1px"></line><line x1="72.34375" y1="44.5" x2="67.34375" y2="44.5" style="visibility: inherit;" fill="rgb(0, 0, 0)" stroke="rgb(204, 204, 204)" stroke-width="1px"></line><line x1="72.34375" y1="29.66666666666666" x2="67.34375" y2="29.66666666666666" style="visibility: inherit;" fill="rgb(0, 0, 0)" stroke="rgb(204, 204, 204)" stroke-width="1px"></line><line x1="72.34375" y1="14.83333333333334" x2="67.34375" y2="14.83333333333334" style="visibility: inherit;" fill="rgb(0, 0, 0)" stroke="rgb(204, 204, 204)" stroke-width="1px"></line><line x1="72.34375" y1="0" x2="67.34375" y2="0" style="visibility: inherit;" fill="rgb(0, 0, 0)" stroke="rgb(204, 204, 204)" stroke-width="1px"></line></g><g transform="translate(62.34375, 0)"><text x="0" y="178" dx="0em" dy="0.3em" style="text-anchor: end; visibility: hidden; font-family: Roboto, sans-serif; font-size: 12px; font-weight: 200;" fill="rgb(50, 49, 63)" stroke="none" stroke-width="1px">-500</text><text x="0" y="163.16666666666666" dx="0em" dy="0.3em" style="text-anchor: end; visibility: inherit; font-family: Roboto, sans-serif; font-size: 12px; font-weight: 200;" fill="rgb(50, 49, 63)" stroke="none" stroke-width="1px">0</text><text x="0" y="148.33333333333334" dx="0em" dy="0.3em" style="text-anchor: end; visibility: hidden; font-family: Roboto, sans-serif; font-size: 12px; font-weight: 200;" fill="rgb(50, 49, 63)" stroke="none" stroke-width="1px">500</text><text x="0" y="133.5" dx="0em" dy="0.3em" style="text-anchor: end; visibility: inherit; font-family: Roboto, sans-serif; font-size: 12px; font-weight: 200;" fill="rgb(50, 49, 63)" stroke="none" stroke-width="1px">1e+3</text><text x="0" y="118.66666666666669" dx="0em" dy="0.3em" style="text-anchor: end; visibility: hidden; font-family: Roboto, sans-serif; font-size: 12px; font-weight: 200;" fill="rgb(50, 49, 63)" stroke="none" stroke-width="1px">1.5e+3</text><text x="0" y="103.83333333333331" dx="0em" dy="0.3em" style="text-anchor: end; visibility: inherit; font-family: Roboto, sans-serif; font-size: 12px; font-weight: 200;" fill="rgb(50, 49, 63)" stroke="none" stroke-width="1px">2e+3</text><text x="0" y="89" dx="0em" dy="0.3em" style="text-anchor: end; visibility: hidden; font-family: Roboto, sans-serif; font-size: 12px; font-weight: 200;" fill="rgb(50, 49, 63)" stroke="none" stroke-width="1px">2.5e+3</text><text x="0" y="74.16666666666666" dx="0em" dy="0.3em" style="text-anchor: end; visibility: inherit; font-family: Roboto, sans-serif; font-size: 12px; font-weight: 200;" fill="rgb(50, 49, 63)" stroke="none" stroke-width="1px">3e+3</text><text x="0" y="59.33333333333334" dx="0em" dy="0.3em" style="text-anchor: end; visibility: hidden; font-family: Roboto, sans-serif; font-size: 12px; font-weight: 200;" fill="rgb(50, 49, 63)" stroke="none" stroke-width="1px">3.5e+3</text><text x="0" y="44.5" dx="0em" dy="0.3em" style="text-anchor: end; visibility: inherit; font-family: Roboto, sans-serif; font-size: 12px; font-weight: 200;" fill="rgb(50, 49, 63)" stroke="none" stroke-width="1px">4e+3</text><text x="0" y="29.66666666666666" dx="0em" dy="0.3em" style="text-anchor: end; visibility: hidden; font-family: Roboto, sans-serif; font-size: 12px; font-weight: 200;" fill="rgb(50, 49, 63)" stroke="none" stroke-width="1px">4.5e+3</text><text x="0" y="14.83333333333334" dx="0em" dy="0.3em" style="text-anchor: end; visibility: inherit; font-family: Roboto, sans-serif; font-size: 12px; font-weight: 200;" fill="rgb(50, 49, 63)" stroke="none" stroke-width="1px">5e+3</text><text x="0" y="0" dx="0em" dy="0.3em" style="text-anchor: end; visibility: hidden; font-family: Roboto, sans-serif; font-size: 12px; font-weight: 200;" fill="rgb(50, 49, 63)" stroke="none" stroke-width="1px">5.5e+3</text></g><line x1="72.34375" y1="0" x2="72.34375" y2="178" fill="rgb(0, 0, 0)" stroke="rgb(204, 204, 204)" stroke-width="1px"></line></g></g><g transform="translate(72, 0)" clip-path="url(#clip_0)"><clipPath id="clip_0"><rect width="257" height="178"></rect></clipPath><g><g><g><line x1="0" y1="0" x2="0" y2="178" fill="rgb(0, 0, 0)" stroke="rgb(60, 60, 60)" stroke-width="1px" opacity="0.25"></line><line x1="21.471354166666664" y1="0" x2="21.471354166666664" y2="178" fill="rgb(0, 0, 0)" stroke="rgb(60, 60, 60)" stroke-width="1px" opacity="0.25"></line><line x1="42.94270833333333" y1="0" x2="42.94270833333333" y2="178" fill="rgb(0, 0, 0)" stroke="rgb(60, 60, 60)" stroke-width="1px" opacity="0.25"></line><line x1="64.4140625" y1="0" x2="64.4140625" y2="178" fill="rgb(0, 0, 0)" stroke="rgb(60, 60, 60)" stroke-width="1px" opacity="0.25"></line><line x1="85.88541666666666" y1="0" x2="85.88541666666666" y2="178" fill="rgb(0, 0, 0)" stroke="rgb(60, 60, 60)" stroke-width="1px" opacity="0.25"></line><line x1="107.35677083333334" y1="0" x2="107.35677083333334" y2="178" fill="rgb(0, 0, 0)" stroke="rgb(60, 60, 60)" stroke-width="1px" opacity="0.25"></line><line x1="128.828125" y1="0" x2="128.828125" y2="178" fill="rgb(0, 0, 0)" stroke="rgb(60, 60, 60)" stroke-width="1px" opacity="0.25"></line><line x1="150.29947916666669" y1="0" x2="150.29947916666669" y2="178" fill="rgb(0, 0, 0)" stroke="rgb(60, 60, 60)" stroke-width="1px" opacity="0.25"></line><line x1="171.77083333333331" y1="0" x2="171.77083333333331" y2="178" fill="rgb(0, 0, 0)" stroke="rgb(60, 60, 60)" stroke-width="1px" opacity="0.25"></line><line x1="193.2421875" y1="0" x2="193.2421875" y2="178" fill="rgb(0, 0, 0)" stroke="rgb(60, 60, 60)" stroke-width="1px" opacity="0.25"></line><line x1="214.71354166666669" y1="0" x2="214.71354166666669" y2="178" fill="rgb(0, 0, 0)" stroke="rgb(60, 60, 60)" stroke-width="1px" opacity="0.25"></line><line x1="236.18489583333331" y1="0" x2="236.18489583333331" y2="178" fill="rgb(0, 0, 0)" stroke="rgb(60, 60, 60)" stroke-width="1px" opacity="0.25"></line><line x1="257.65625" y1="0" x2="257.65625" y2="178" fill="rgb(0, 0, 0)" stroke="rgb(60, 60, 60)" stroke-width="1px" opacity="0.25"></line></g><g><line x1="0" y1="178" x2="257.65625" y2="178" fill="rgb(0, 0, 0)" stroke="rgb(60, 60, 60)" stroke-width="1px" opacity="0.25"></line><line x1="0" y1="163.16666666666666" x2="257.65625" y2="163.16666666666666" fill="rgb(0, 0, 0)" stroke="rgb(60, 60, 60)" stroke-width="1px" opacity="0.25"></line><line x1="0" y1="148.33333333333334" x2="257.65625" y2="148.33333333333334" fill="rgb(0, 0, 0)" stroke="rgb(60, 60, 60)" stroke-width="1px" opacity="0.25"></line><line x1="0" y1="133.5" x2="257.65625" y2="133.5" fill="rgb(0, 0, 0)" stroke="rgb(60, 60, 60)" stroke-width="1px" opacity="0.25"></line><line x1="0" y1="118.66666666666669" x2="257.65625" y2="118.66666666666669" fill="rgb(0, 0, 0)" stroke="rgb(60, 60, 60)" stroke-width="1px" opacity="0.25"></line><line x1="0" y1="103.83333333333331" x2="257.65625" y2="103.83333333333331" fill="rgb(0, 0, 0)" stroke="rgb(60, 60, 60)" stroke-width="1px" opacity="0.25"></line><line x1="0" y1="89" x2="257.65625" y2="89" fill="rgb(0, 0, 0)" stroke="rgb(60, 60, 60)" stroke-width="1px" opacity="0.25"></line><line x1="0" y1="74.16666666666666" x2="257.65625" y2="74.16666666666666" fill="rgb(0, 0, 0)" stroke="rgb(60, 60, 60)" stroke-width="1px" opacity="0.25"></line><line x1="0" y1="59.33333333333334" x2="257.65625" y2="59.33333333333334" fill="rgb(0, 0, 0)" stroke="rgb(60, 60, 60)" stroke-width="1px" opacity="0.25"></line><line x1="0" y1="44.5" x2="257.65625" y2="44.5" fill="rgb(0, 0, 0)" stroke="rgb(60, 60, 60)" stroke-width="1px" opacity="0.25"></line><line x1="0" y1="29.66666666666666" x2="257.65625" y2="29.66666666666666" fill="rgb(0, 0, 0)" stroke="rgb(60, 60, 60)" stroke-width="1px" opacity="0.25"></line><line x1="0" y1="14.83333333333334" x2="257.65625" y2="14.83333333333334" fill="rgb(0, 0, 0)" stroke="rgb(60, 60, 60)" stroke-width="1px" opacity="0.25"></line><line x1="0" y1="0" x2="257.65625" y2="0" fill="rgb(0, 0, 0)" stroke="rgb(60, 60, 60)" stroke-width="1px" opacity="0.25"></line></g></g></g><g><g><line x1="0" y1="163.16666666666666" x2="257.65625" y2="163.16666666666666" fill="rgb(0, 0, 0)" stroke="rgb(153, 153, 153)" stroke-width="1.5px"></line></g></g><g><g><line x1="21.471354166666664" y1="0" x2="21.471354166666664" y2="178" fill="rgb(0, 0, 0)" stroke="rgb(153, 153, 153)" stroke-width="1.5px"></line></g></g><g><g><g><g><g><path stroke="rgb(238, 51, 119)" stroke-width="2px" d="M22.116010104166666,162.514L22.67538182291667,162.18750341837585L22.933553385416666,161.97968341707818L23.622010885416667,161.69750624582502L23.708068072916667,161.50441920856653L23.83715385416667,161.34595370453437L23.92321104166667,161.22001169264593L24.181382604166664,161.08834197425438L24.310468385416666,160.96938481262714L24.955897291666666,160.79971819736974L25.084983072916668,160.6500583630939L25.300126041666665,160.50545527204775L25.644354791666665,160.348662422035L25.945554947916666,160.19080742739024L26.28978369791667,160.03010017499184L26.41886947916667,159.8801411193542L26.461898072916668,159.74254735657237L26.763098229166665,159.60029571502818L26.978241197916667,159.4604142886566L27.322469947916666,159.31205928880252L27.881841666666666,159.1478693627702L28.355156197916667,158.97544044646588L28.57029916666667,158.80496492420693L28.699384947916666,158.64369475250163L29.086642291666664,158.47731226254066L29.129670885416665,158.3202630081919L29.559956822916668,158.1581509215958L29.775099791666666,157.99795387888463L29.86115697916667,157.84673084082135L29.904185572916667,157.70358341768846L30.076299947916667,157.56384345830259L30.420528697916666,157.420598005347L30.764757447916665,157.27233298409678L30.807786041666667,157.13279020292643L31.022929010416668,156.99346300562215L31.496243541666665,156.84762104265553L31.754415104166664,156.70150000076544L31.969558072916666,156.55750372388766L32.09864385416667,156.41701657176006L32.614986979166666,156.26767385673875L32.87315854166666,156.11823559888572L33.08830151041666,155.97014695651964L33.38950166666667,155.82119745868965L33.56161604166667,155.6748863280609L33.64767322916667,155.53238344376038L34.46521651041667,155.37563124438518L34.68035947916666,155.2210296259013L34.72338807291666,155.07160550615885L34.938531041666664,154.9239408202467L35.153674010416665,154.77671193800484L35.23973119791666,154.6328724456485L35.58395994791667,154.4869589551603L35.62698854166667,154.34597841921834L35.92818869791667,154.20288761160836L36.10030307291667,154.0611226933077L36.48756041666667,153.9162550297977L36.83178916666667,153.76951438375437L37.520246666666665,153.61310108024966L37.692361041666665,153.45836851609707L37.95053260416667,153.30472174497757L38.12264697916667,153.15210542205082L38.208704166666664,153.0029339832216L40.01590510416666,152.82353261395417L40.058933697916665,152.6483044595773L40.14499088541667,152.47705622565869L40.403162447916664,152.3058921987196L40.790419791666665,152.1329759187697L40.87647697916667,151.96379411403638L40.91950557291667,151.79818377125366L41.04859135416667,151.6359911922135L41.30676291666667,151.47361021493813L41.69402026041667,151.30891221194088L41.82310604166667,151.1466223902549L41.86613463541667,150.98788926932744L42.29642057291667,150.82600416058594L43.02790666666667,150.65744138025403L43.11396385416666,150.49205859804522L43.716364166666665,150.32182937765006L43.931507135416666,150.1527889698728L44.01756432291667,149.98681970705368L44.14665010416667,149.82266397703737L44.49087885416667,149.65761783951834L44.74905041666666,149.49282802476958L44.835107604166666,149.33049184804747L44.964193385416664,149.17015812414223L45.22236494791667,149.00995696444397L45.43750791666667,148.85023796815585L45.86779385416667,148.68816715322825L46.125965416666666,148.5269549440678L46.38413697916667,148.36519332020913L46.55625135416667,148.20494385591448L46.81442291666667,148.04446945821675L46.90048010416667,147.88644683190893L46.94350869791667,147.73145827759765L47.029565885416666,147.57875344082822L47.11562307291666,147.42761260433895L47.158651666666664,147.27959044413623L47.373794635416665,147.1317326819272L47.41682322916667,146.98592053858258L47.80408057291667,146.83866461258953L48.062252135416664,146.69154906283353L48.14830932291667,146.54609740235767L48.36345229166667,146.40104871335834L48.57859526041667,146.25639023205343L48.664652447916666,146.11359713787834L49.18099557291667,145.967898941978L49.48219572916666,145.82112777261585L49.525224322916664,145.67678750447286L49.61128151041667,145.53394968197296L49.69733869791666,145.39285745814706L49.740367291666665,145.2540277371997L49.82642447916666,145.11684006650322L50.34276760416667,144.97653264650197L50.471853385416665,144.83758848219887L50.643967760416665,144.69887965637352L50.77305354166667,144.56148201910221L50.90213932291667,144.42482432965647L51.07425369791667,144.28888702287574L51.11728229166667,144.15470840189985L51.28939666666667,144.0209331094304L51.50453963541667,143.88755028906192L51.54756822916667,143.75584035444237L51.97785416666666,143.62191912339696L52.14996854166667,143.4886350095145L52.279054322916664,143.35597201141678L52.623283072916664,143.22241177434913L52.79539744791666,143.08921722617018L52.92448322916667,142.95687259614996L52.96751182291666,142.82584756800517L53.010540416666664,142.69684108519903L53.31174057291667,142.5669088360193L53.569912135416665,142.43678989976252L53.65596932291667,142.3076780275674L53.69899791666667,142.1800231254677L53.87111229166667,142.05285335572148L54.04322666666667,141.92569096851702L54.17231244791667,141.79946137347912L54.21534104166667,141.67460394944982L54.25836963541667,141.55131736786282L54.43048401041666,141.42820599229594L54.817741354166664,141.3034615313797L54.98985572916666,141.17913292586726L55.032884322916665,141.0561010003981L55.07591291666667,140.9345596401989L55.16197010416666,140.81381884218385L55.204998697916665,140.69429832934648L55.46317026041667,140.57445462709123L55.63528463541667,140.45494003575692L55.67831322916667,140.33638995543697L55.764370416666665,140.21878480013368L55.85042760416667,140.10210550269795L55.979513385416666,139.98591292378418L56.02254197916667,139.87103309448838L56.06557057291667,139.7572325872427L56.10859916666667,139.64449032113626L56.23768494791667,139.5323751660533L56.40979932291667,139.42005841566856L56.62494229166667,139.30734025559192L56.66797088541667,139.19584115063918L56.71099947916667,139.08533759821964L56.96917104166666,138.97421563001683L57.70065713541666,138.85871865887043L57.87277151041667,138.74345901391388L57.958828697916665,138.62882389851887L58.17397166666667,138.51382685270823L59.20665791666667,138.39246367041451L59.29271510416667,138.2719788524101L59.50785807291666,138.15139771139965L59.593915260416665,138.0316747868699L59.766029635416665,137.91222564463794L59.85208682291667,137.7936109390681L60.19631557291667,137.6735640232784L60.45448713541666,137.5528550885023L60.62660151041667,137.43242299694387L60.92780166666667,137.3113389714104L61.01385885416667,137.190899414861L61.27203041666667,137.0699962981181L61.35808760416667,136.94990960147447L61.48717338541667,136.83008260881473L61.53020197916667,136.71141055318895L61.61625916666667,136.59351600422124L61.960487916666665,136.47460384847082L62.00351651041667,136.35681753066171L62.132602291666664,136.23943285662816L62.43380244791666,136.12103834769812L62.56288822916667,136.0030469528605L62.95014557291667,135.88388705659048L63.12225994791667,135.764787350556L63.251345729166665,135.64591852143587L63.29437432291667,135.527961918993L63.68163166666667,135.40868590184613L63.72466026041667,135.29014686833244L63.89677463541667,135.17216418653922L63.93980322916667,135.05489710628538L63.98283182291667,134.93850176735555L64.02586041666667,134.82313127885283L64.19797479166667,134.70777493575198L64.24100338541668,134.59325739981725L64.37008916666666,134.4790728892156L64.41311776041667,134.3658703873319L64.75734651041667,134.25151809161008L64.92946088541666,134.13732904764032L65.01551807291666,134.02378461682653L65.10157526041667,133.9108751027154L65.14460385416668,133.79859099806697L65.53186119791667,133.6850115790773L65.66094697916665,133.57205763712608L66.00517572916667,133.4579829907545L66.09123291666666,133.34453221146697L66.26334729166666,133.2309134184404L66.30637588541667,133.1180637510378L66.52151885416666,133.0048856152268L66.82271901041668,132.89091930418942L67.29603354166666,132.77525150803808L67.38209072916666,132.66020393876013L67.64026229166666,132.54485191236637L67.76934807291667,132.42980708335782L67.85540526041667,132.31506488645942L68.02751963541667,132.20047006872838L68.19963401041666,132.08602021888174L68.28569119791666,131.97216162141856L68.50083416666666,131.8581413434249L68.54386276041666,131.74499949809646L68.58689135416667,131.63257649367247L68.93112010416667,131.51924368627311L69.18929166666668,131.40545209051436L69.36140604166667,131.29164517889657L69.40443463541666,131.17854994460293L69.44746322916667,131.06615693571126L69.83472057291667,130.95272499191512L70.04986354166667,130.83898554998962L70.65226385416666,130.72308020401704L70.73832104166667,130.60774618668077L71.59889291666666,130.48871211995717L71.64192151041667,130.37041252812358L71.81403588541667,130.25213265046156L71.85706447916667,130.1345744641402L71.90009307291668,130.0178687574831L72.67460776041668,129.89782006324526L72.88975072916666,129.77794266288274L73.19095088541665,129.65740326508447L73.23397947916666,129.53758894326083L73.49215104166667,129.41739096242017L73.57820822916666,129.29763519840446L73.79335119791666,129.17790659647383L73.87940838541667,129.05874831561619L74.13757994791666,128.93906931782413L74.91209463541666,128.81631006140782L74.99815182291667,128.69427279168758L75.08420901041667,128.57268061037442L75.42843776041667,128.450325668767L75.55752354166665,128.3281481437715L75.90175229166665,128.20508430840968L76.03083807291667,128.08246582587353L76.15992385416666,127.9601554812085L76.71929557291666,127.83565480366417L77.02049572916667,127.71068897712732L77.27866729166666,127.58552358529319L77.45078166666667,127.46042034789754L77.53683885416666,127.33589623746494L77.57986744791667,127.21207351523707L77.83803901041668,127.08791479330736L78.26832494791665,126.96239752490848L78.48346791666667,126.83681417923755L78.52649651041666,126.71205673362715L78.65558229166668,126.58760796383247L78.91375385416667,126.4627048357617L78.99981104166667,126.33836092637739L79.12889682291666,126.21431837982092L79.25798260416667,126.09044825401773L79.38706838541667,125.96687323473711L79.43009697916668,125.84408787500334L80.20461166666668,125.71835976784278L80.85004057291667,125.59009066137521L81.49546947916666,125.45955345911452L81.62455526041667,125.32947631928346L81.66758385416666,125.19997661140873L81.75364104166667,125.07104794588304L81.79666963541668,124.94268402472017L82.70027010416666,124.8107502105348L82.74329869791667,124.67976153813248L82.95844166666667,124.54862184811813L83.08752744791666,124.41757289400768L83.25964182291666,124.28661335632198L83.34569901041667,124.15610067061723L83.51781338541666,124.02579150966122L83.68992776041667,123.89568343985968L83.86204213541666,123.76565555899533L84.93775697916668,123.63145332831718L84.98078557291666,123.49806524976863L85.45410010416666,123.36348625625382L85.79832885416666,123.22819608928792L85.84135744791666,123.09348566753603L85.97044322916666,122.95934892569717L86.05650041666667,122.82577988072548L86.09952901041667,122.69277263044077L86.48678635416667,122.55893649593244L86.78798651041667,122.42473937434339L87.43341541666666,122.28869270637445L87.47644401041667,122.15321650610645L87.60552979166667,122.01819085405256L87.90672994791666,121.88281473235261L88.42307307291667,121.74595665573244L88.63821604166667,121.608987716025L88.68124463541666,121.47292382366132L88.76730182291666,121.33730614344981L89.06850197916667,121.20112052905633L89.36970213541666,121.06448376202393L89.41273072916667,120.92851522569407L89.79998807291666,120.79176210945042L89.97210244791667,120.6550078914269L90.05815963541667,120.51880541634662L90.23027401041666,120.38281823405653L90.61753135416666,120.24605363673274L90.91873151041666,120.10884756542096L90.96176010416666,119.97240759128225L91.17690307291667,119.83585317768757L91.52113182291667,119.69874953794799L91.90838916666667,119.56088409578777L91.95141776041667,119.42367102049856L92.12353213541667,119.28656412765116L92.33867510416667,119.14945439590528L92.46776088541667,119.01277121914977L92.55381807291667,118.87640331615881L92.68290385416667,118.7404544243548L92.81198963541668,118.60470731905484L92.98410401041666,118.46905356224288L93.32833276041666,118.33274967321698L93.67256151041666,118.1959067330278L93.84467588541666,118.05916208098313L93.97376166666668,117.92261975108366L94.01679026041667,117.78680248041346L94.27496182291667,117.65065669258995L94.31799041666667,117.51522921741535L94.66221916666667,117.3791593251178L94.83433354166667,117.2431795314442L94.87736213541666,117.10791064937871L94.92039072916667,116.97313953535647L95.00644791666667,116.83886165516695L95.13553369791667,116.70507252795686L95.43673385416666,116.5707414187789L95.47976244791667,116.43699869642477L95.82399119791667,116.3027157152844L95.86701979166666,116.16891543436569L96.25427713541667,116.03437394153771L96.42639151041666,115.90000951057748L96.51244869791667,115.76602264273238L96.64153447916667,115.63230901690429L96.85667744791667,115.49846344737608L96.89970604166666,115.36529002556318L96.98576322916666,115.23258260893547L97.02879182291667,115.10033710160246L97.07182041666667,114.96874886245043L97.28696338541667,114.83701652509973L97.88936369791666,114.70365240105002L98.27662104166667,114.569461292178L98.53479260416667,114.43504213424691L98.83599276041666,114.30019934599129L98.87902135416667,114.16601744750471L99.26627869791666,114.0311176577368L99.56747885416667,113.89579892659063L99.95473619791666,113.7598689690062L100.08382197916667,113.6242090092757L100.38502213541666,113.48813627314097L100.47107932291667,113.3524294525924L100.64319369791667,113.21679513177713L101.07347963541667,113.08036363299107L101.11650822916666,112.94448926460583L101.24559401041667,112.80887911428682L101.46073697916667,112.6730514108656L101.63285135416666,112.53739021449375L102.19222307291668,112.4003665792138L102.27828026041668,112.26380034578794L102.32130885416666,112.12768772850042L102.57948041666667,111.99145600046602L102.62250901041668,111.85576812202584L102.66553760416667,111.72080851947638L102.75159479166666,111.58619457191031L103.35399510416667,111.45013728443273L104.12850979166667,111.31199056109114L104.38668135416667,111.17354811076372L104.68788151041666,111.03481183897806L104.94605307291667,110.89587682969595L105.11816744791666,110.75702325590052L105.20422463541667,110.61862142367569L105.29028182291667,110.48066770911247L105.54845338541666,110.3423268547009L105.67753916666666,110.2043391094303L105.76359635416667,110.0667016009123L105.89268213541666,109.92941148623723L106.02176791666666,109.79228268383197L106.15085369791667,109.65549662328755L106.53811104166667,109.51804675921923L106.62416822916666,109.38093929785445L107.14051135416666,109.24271747997967L107.18353994791667,109.10502141373951L107.22656854166667,108.96793755529654L107.82896885416666,108.82938395595538L108.00108322916667,108.69090305929124L108.17319760416667,108.55249406700129L108.34531197916667,108.41424595603438L108.38834057291666,108.27642606723012L108.51742635416667,108.13894169962792L108.60348354166666,108.00179021833743L108.68954072916667,107.86514710801188L109.03376947916666,107.72785324516956L109.11982666666667,107.59097719755842L109.24891244791667,107.45433875484126L109.37799822916668,107.3179359974367L109.50708401041666,107.1816788583568L109.59314119791667,107.04591803440486L109.72222697916668,106.91029856107143L109.85131276041666,106.7749944981599L110.53977026041667,106.63781649010322L110.84097041666666,106.50026129788253L111.05611338541667,106.36276691480974L111.09914197916666,106.22576750771591L111.14217057291667,106.08925945456684L111.22822776041667,105.95306589834908L111.27125635416667,105.8174438612051L111.35731354166666,105.68213032514308L111.44337072916666,105.54720909909693L111.61548510416667,105.41233339650196L111.78759947916666,105.27741684482623L112.00274244791667,105.1424594612984L112.08879963541668,105.00771773028538L112.38999979166667,104.87276332511323L112.47605697916667,104.73810841270098L112.51908557291668,104.60392078345004L112.73422854166667,104.46960314988887L112.90634291666667,104.33532550423605L113.12148588541666,104.20100279849555L113.20754307291666,104.06705698398693L113.25057166666667,103.93356958117104L113.68085760416668,103.79919222528137L113.72388619791666,103.66535703865519L113.89600057291666,103.53155768187099L114.02508635416667,103.39796090266613L114.15417213541666,103.26448169291837L114.19720072916667,103.13161890691845L114.32628651041667,102.9989525588709L114.36931510416667,102.86664716993788L114.45537229166668,102.73470019789123L114.67051526041666,102.60286098934782L114.71354385416667,102.47137631517178L115.01474401041666,102.33950194248554L115.05777260416667,102.2080628066918L115.22988697916666,102.07672742903925L115.31594416666665,101.94574086400655L115.40200135416666,101.81510068997211L115.57411572916666,101.68455943095657L116.00440166666667,101.55305610358766L116.09045885416666,101.4218989840013L116.17651604166666,101.29100442432254L116.21954463541667,101.16061393813865L116.39165901041667,101.03023827726746L116.52074479166666,100.90003881160935L116.86497354166666,100.7693685964845L117.03708791666666,100.63871369713219L117.63948822916667,100.50670652582707L117.81160260416667,100.37472007291275L117.89765979166667,100.24307460062388L118.11280276041666,100.11136771970767L118.15583135416666,99.98015875240925L118.24188854166667,99.8492052145541L118.32794572916667,99.71858495076607L118.37097432291667,99.58837520612124L118.45703151041666,99.45849394191883L118.54308869791666,99.32885975223607L118.58611729166667,99.1996290989939L118.88731744791666,99.070009859478L119.01640322916667,98.94063468576859L119.23154619791666,98.81110846951981L119.74788932291666,98.68056775754047L119.92000369791667,98.55011635909952L120.04908947916667,98.419831830956L120.47937541666666,98.28885308272532L120.73754697916667,98.1575742156361L120.78057557291667,98.02677595392417L120.86663276041666,97.89629968178207L120.99571854166666,97.76598797184487L121.12480432291667,97.63583965139581L121.16783291666667,97.50608580048596L121.21086151041666,97.37680120428216L121.64114744791667,97.246671106607L121.68417604166666,97.11700992572013L121.72720463541667,96.98773782295834L121.81326182291667,96.85877554967777L122.32960494791668,96.72881762925473L122.37263354166667,96.59917100258417L122.41566213541667,96.46998654720616L122.45869072916666,96.3411851017989L122.80291947916666,96.21177376114927L123.19017682291665,96.0818318715771L123.92166291666668,95.95014695986985L124.52406322916667,95.8172595694344L124.69617760416668,95.68446352864567L124.73920619791667,95.55206052288118L124.82526338541666,95.41997264633054L125.16949213541666,95.28729349896825L125.25554932291666,95.1548539755233L125.42766369791667,95.02257739283148L125.85794963541667,94.88956237053726L126.20217838541667,94.75611245633898L126.24520697916667,94.62305259839074L126.71852151041666,94.48911086627359L127.06275026041668,94.35473934830456L127.32092182291667,94.22023803636509L127.36395041666667,94.08605349617434L127.45000760416667,93.9521837800551L127.53606479166666,93.81862695558908L127.75120776041666,93.68501106560598L128.56875104166667,93.54956269349911L128.82692260416667,93.41384119170203L128.8699511979167,93.27858462773978L129.30023713541667,93.14261316924787L129.38629432291668,93.00688548019909L129.51538010416667,92.87132668680371L129.5584086979167,92.73622865142359L129.60143729166666,92.6014424144701L130.0317232291667,92.46601671449704L130.07475182291665,92.33104863688493L130.20383760416667,92.19617144473321L130.46200916666666,92.06109361110148L130.67715213541666,91.92603382975184L130.76320932291665,91.79120931108997L130.84926651041667,91.65676340005456L130.93532369791666,91.5225493067685L131.32258104166667,91.3876993488335L131.49469541666667,91.25286546431765L131.66680979166665,91.11811935768425L131.75286697916667,90.98367601266409L131.88195276041668,90.84931831240665L132.2692101041667,90.71447221089936L132.31223869791665,90.57992739526948L132.48435307291666,90.44546767911538L132.7425246354167,90.3108783102786L132.82858182291665,90.1764448657174L133.34492494791667,90.04102758140101L133.38795354166666,89.90605284235883L133.43098213541668,89.77144719300628L133.47401072916665,89.63720853729416L133.6030965104167,89.5030516854843L133.77521088541667,89.36897603032712L134.03338244791667,89.23469864199927L134.07641104166666,89.10078424707245L134.20549682291667,88.9670196389902L134.54972557291666,88.83284153865685L134.7648685416667,88.69853265265415L134.89395432291667,88.56430376164768L135.02304010416665,88.43029428399954L135.06606869791668,88.29664274212236L135.32424026041664,88.1627188146452L135.41029744791666,88.02908145573005L135.66846901041666,87.89531128438304L135.79755479166667,87.76168691791459L135.92664057291668,87.6282768828747L135.96966916666668,87.4951492711599L136.14178354166668,87.3620947308495L136.95932682291667,87.22731453390368L137.13144119791667,87.09261290405922L137.21749838541666,86.95819620350122L137.43264135416666,86.82364952128563L137.64778432291666,86.68904211959317L138.20715604166665,86.55341225765174L138.37927041666666,86.41779402470911L138.50835619791667,86.28232423404111L139.15378510416667,86.14563328366174L139.62709963541667,86.00813706951152L139.67012822916666,85.87106797799183L139.79921401041668,85.73415106830198L140.05738557291664,85.59697694276808L140.35858572916666,85.45954667888876L140.40161432291666,85.32254038268098L140.44464291666665,85.18588800022482L140.48767151041667,85.04958763834847L140.53070010416667,84.91363741701186L140.57372869791666,84.77803546919328L140.91795744791665,84.64197030482167L141.90761510416667,84.50375938733445L141.95064369791666,84.36590289533257L141.99367229166666,84.22846616551219L142.29487244791665,84.09077573224909L142.76818697916664,83.95222924502703L142.85424416666666,83.81396891996512L143.37058729166668,83.67478947046297L143.41361588541668,83.53603091847926L143.54270166666666,83.39742426061387L143.62875885416665,83.25903522821586L143.67178744791667,83.12106224380693L143.7578446354167,82.9833037933893L144.57538791666667,82.8439665239915L144.79053088541667,82.70451617805006L144.91961666666668,82.56521796641792L145.04870244791667,82.42613713528209L145.43595979166668,82.28647989280148L145.47898838541664,82.14717233307233L145.73715994791667,82.00768554413749L145.82321713541666,81.86841504083444L145.86624572916665,81.72955683260027L146.12441729166667,81.59051800029503L146.25350307291666,81.45162705718226L146.51167463541665,81.31262119221817L146.59773182291667,81.1738278219328L146.68378901041666,81.03524579948723L146.81287479166667,80.89680873206996L147.20013213541665,80.75786403389368L147.41527510416665,80.61886954915171L147.50133229166664,80.48015043887169L147.54436088541667,80.34177022151759L147.58738947916666,80.20372718621644L148.06070401041666,80.06485344174149L148.4909899479167,79.92541144854502L148.83521869791667,79.78553289252784L149.56670479166667,79.64418663763774L149.86790494791668,79.50253986126528L149.91093354166665,79.36123783380899L150.04001932291666,79.22008583757004L150.47030526041667,79.07818342725061L150.72847682291666,78.93611145368617L150.90059119791667,78.79406283656128L151.11573416666667,78.65197327264337L151.2017913541667,78.5100986190245L151.28784854166668,78.36850163820603L151.37390572916667,78.2271171172799L151.45996291666665,78.08594394831735L151.63207729166666,77.94485369905246L151.67510588541668,77.80422739712382L151.80419166666667,77.66368170677896L152.0623632291667,77.52289887245183L152.14842041666665,77.38232340954718L152.27750619791667,77.24189094121094L152.62173494791665,77.10103159139618L152.70779213541667,76.96044184087187L152.75082072916666,76.8201834385344L152.79384932291666,76.68025477640269L153.13807807291667,76.53989888602625L153.78350697916665,76.39855158031952L153.86956416666666,76.25741034561531L153.95562135416665,76.11653686499191L154.04167854166667,75.97592981926513L154.12773572916666,75.8355253003488L154.51499307291667,75.69457194348523L154.68710744791667,75.55357163152797L155.2464791666667,75.41177573615651L155.41859354166667,75.26987305553675L156.23613682291668,75.12655659381684L156.88156572916665,74.9820809969906L156.92459432291668,74.83787973964976L157.18276588541667,74.69357920213142L157.22579447916667,74.54961351384529L157.31185166666668,74.40585726420585L157.44093744791667,74.262309405322L157.65608041666664,74.11859822328955L157.78516619791668,73.97503281537651L157.82819479166665,73.83179734492792L157.91425197916666,73.68876710386648L158.60270947916666,73.54464930260869L158.90390963541665,73.40018573478038L159.07602401041666,73.25586875014164L159.37722416666665,73.11120705389483L159.42025276041667,72.96699819109574L159.72145291666666,72.82238351978641L159.85053869791665,72.67797578545438L160.88322494791666,72.53157597637224L161.01231072916667,72.385265935511L161.31351088541666,72.23874050191334L161.44259666666667,72.0924264535593L161.48562526041667,71.9464443560139L161.57168244791666,71.8006712107328L161.61471104166665,71.65528801392341L161.91591119791667,71.50968692381075L162.00196838541666,71.36435304517926L162.47528291666666,71.21825693614137L162.6904258854167,71.0720661889482L163.07768322916667,70.92541890208332L163.16374041666666,70.77898003046991L163.24979760416664,70.63280880156873L163.42191197916665,70.48672346108167L163.55099776041666,70.34072350826072L164.11036947916665,70.19390774826505L164.15339807291667,70.04741906608166L164.19642666666667,69.90119605936013L164.45459822916666,69.75481846198726L164.79882697916665,69.60816714737429L165.05699854166667,69.46130281474332L165.10002713541667,69.3147633016636L165.14305572916666,69.1686067705654L165.31517010416667,69.02247417056843L165.53031307291667,68.87630575793861L165.83151322916666,68.7298637673965L166.17574197916667,68.58303038659555L166.34785635416665,68.43616296371607L166.51997072916666,68.28938001249114L166.60602791666668,68.14279945585523L166.86419947916667,67.99606547568393L166.99328526041666,67.84941487889643L167.07934244791667,67.70296524300377L167.16539963541666,67.5567745947454L167.25145682291668,67.41084176408141L167.38054260416666,67.26498903013436L167.59568557291666,67.11909834381926L168.11202869791668,66.97252360456439L168.32717166666666,66.82585415669506L168.54231463541666,66.67914885123824L169.31682932291667,66.53111925563867L169.48894369791668,66.38311610048508L169.61802947916667,66.23525604078192L169.83317244791667,66.08730479573161L170.09134401041666,65.93914590181423L170.13437260416669,65.79130456034888L170.30648697916666,65.6435464909778L170.39254416666665,65.49604573658159L170.65071572916668,65.34833624743162L170.69374432291664,65.20094121292429L170.95191588541667,65.05339525529217L171.25311604166666,64.9055829221918L171.51128760416668,64.75767877615645L171.64037338541667,64.60991437798377L171.89854494791666,64.462000139348L172.37185947916666,64.3133592215256L172.45791666666668,64.16497470909007L172.75911682291667,64.0163269139795L172.88820260416665,63.867819652429304L173.01728838541666,63.719509758296475L173.10334557291665,63.57145379602854L173.31848854166668,63.423306245420044L174.00694604166668,63.273920339675904L174.09300322916667,63.124790320504495L174.13603182291666,62.97597232091729L174.30814619791667,62.82723626570923L174.35117479166666,62.678810250648056L174.52328916666667,62.53046463568284L174.60934635416666,62.38231304127187L174.86751791666669,62.234069711471825L174.91054651041665,62.086076406878554L175.21174666666667,61.93787706800476L175.7280897916667,61.7888473002384L175.94323276041666,61.63984161146058L176.07231854166668,61.490916492749754L176.45957588541665,61.341561517499386L176.50260447916668,61.19251413464465L176.76077604166667,61.043377125151174L176.80380463541667,60.89454626694691L177.40620494791668,60.74494754248554L177.57831932291668,60.59537339458573L177.66437651041667,60.44604903176151L177.75043369791666,60.29691708833018L177.87951947916667,60.14797672001076L178.00860526041666,59.99917088001806L178.39586260416667,59.84993737210803L178.65403416666666,59.70061427539717L178.74009135416668,59.55148206932686L179.21340588541668,59.401755824698064L179.25643447916667,59.25244481347515L179.51460604166667,59.10293240069026L179.81580619791666,58.953219189445655L180.84849244791667,58.801687318816164L180.97757822916668,58.65023911276647L181.10666401041667,58.49892984470414L181.19272119791665,58.34787020123377L182.09632166666665,58.19516829374407L182.22540744791667,58.04266357017047L182.39752182291667,57.89018863561632L182.44055041666667,57.738020588979694L182.48357901041666,57.58621361067881L182.74175057291666,57.43421255228847L182.87083635416664,57.282405245916024L182.95689354166666,57.13079086424115L183.34415088541667,56.97876107415275L183.51626526041667,56.82675867807337L183.64535104166666,56.674893713708684L183.8604940104167,56.52294521584962L184.20472276041667,56.37069319721637L184.37683713541668,56.218468559703936L184.46289432291667,56.06654580015048L184.54895151041669,55.914813920054506L185.10832322916667,55.76222993584926L185.1943804166667,55.60989283628694L185.32346619791667,55.45769210132036L185.83980932291666,55.30480643680202L186.01192369791667,55.151948790739716L186.22706666666667,54.9990643154699L186.31312385416666,54.846425847547394L186.7434097916667,54.693323525021164L186.82946697916665,54.540412641026805L186.91552416666667,54.387746833348366L187.47489588541666,54.23429167281289L187.73306744791668,54.08070195028546L188.16335338541666,53.92659789911197L188.37849635416666,53.77241523566331L188.67969651041668,53.61799147216391L188.80878229166666,53.463706485216655L188.89483947916668,53.30961378685632L189.75541135416668,53.15403618919616L189.79843994791665,52.99876179219654L189.84146854166667,52.84384340703855L190.05661151041667,52.68884812234627L190.14266869791666,52.53409947721983L190.40084026041666,52.37921950212562L190.57295463541666,52.22442377187816L190.91718338541668,52.069281723172985L190.96021197916667,51.91449284194966L191.17535494791665,51.75962634090718L191.21838354166667,51.60505782550978L191.39049791666667,51.45051817842568L191.86381244791667,51.295364560199964L192.12198401041667,51.14008051597472L192.38015557291666,50.98455943496217L192.50924135416665,50.82922937893969L192.98255588541667,50.673288878496244L193.15467026041668,50.51737992681481L193.3267846354167,50.36144899792779L193.41284182291668,50.20576230270946L193.62798479166668,50.04999963212449L193.80009916666668,49.89426745451306L194.01524213541668,49.738459292484265L194.23038510416666,49.58252219533016L194.40249947916666,49.42666864077171L194.44552807291666,49.27111022490075L194.53158526041668,49.1157928760646L194.91884260416666,48.96002774616662L194.96187119791668,48.80466221778749L195.43518572916668,48.64869098711062L195.52124291666667,48.49290784714869L195.56427151041666,48.33747030370272L195.86547166666668,48.1817972673343L195.95152885416667,48.02636342821754L195.99455744791666,47.87122049952088L196.03758604166669,47.716419983434065L196.08061463541665,47.56185552966998L196.25272901041666,47.40736871587664L196.33878619791668,47.253116566348L197.28541526041667,47.097210836652025L197.41450104166665,46.941437994907034L198.01690135416666,46.78490759967601L198.23204432291666,46.628302004705624L198.27507291666666,46.472039467718254L198.36113010416668,46.315962063771664L198.70535885416666,46.15959938593584L198.9205018229167,46.003160838719765L199.22170197916668,45.84643812091298L200.42650260416667,45.6876096510784L200.72770276041666,45.528555227025L201.20101729166666,45.36891153642068L201.41616026041666,45.2092518359225L201.80341760416667,45.04916076351773L201.84644619791666,44.88941769317654L202.27673213541667,44.729243865377484L202.31976072916666,44.569313895819036L202.36278932291665,44.40973038955759L202.44884651041667,44.25033695315444L202.53490369791666,44.091132854501254L202.62096088541668,43.932169006452455L202.66398947916664,43.77354772408227L202.70701807291667,43.615216222983186L202.79307526041669,43.4571219281061L203.56758994791667,43.29782226443655L203.78273291666667,43.138504359021L203.99787588541668,42.97911673964825L204.12696166666666,42.81991639199873L204.25604744791667,42.66079992473117L204.47119041666667,42.50161305135484L204.94450494791667,42.34184324507171L205.33176229166668,42.1816971494779L205.46084807291666,42.021636545304546L205.50387666666668,41.86186565257428L205.89113401041666,41.70166782851792L206.14930557291666,41.54140185519421L206.79473447916666,41.38025117466771L206.8377630729167,41.21939156682188L207.09593463541665,41.058414255578846L207.26804901041666,40.897523220937174L207.39713479166664,40.73676897053142L207.65530635416667,40.575896667763494L207.74136354166666,40.415262322286274L208.12862088541667,40.25420485813251L208.30073526041667,40.093232982927944L208.55890682291667,39.93219417356735L208.77404979166667,39.77108852506089L209.03222135416667,39.60981484850393L209.20433572916667,39.44862658392307L209.41947869791667,39.28737164050992L209.72067885416666,39.12594904277549L209.89279322916667,38.964611694129786L210.28005057291665,38.80285457931107L210.40913635416666,38.64128402728251L210.92547947916668,38.47909305730051L211.22667963541667,38.31668633925335L211.35576541666666,38.15436636363465L211.44182260416667,37.99228361301231L211.48485119791667,37.83053774888361L211.65696557291665,37.668826313071605L211.69999416666667,37.507450187193896L211.74302276041666,37.34640822911191L212.25936588541668,37.18464690805032L212.51753744791665,37.02276927190417L212.56056604166668,36.86117592579516L212.64662322916666,36.699815878270456L212.86176619791667,36.53838844724492L212.90479479166666,36.37724332340225L213.03388057291667,36.21627971961253L213.29205213541667,36.05514785461559L213.46416651041667,35.8940474910202L213.76536666666667,35.73282900472271L214.19565260416667,35.571044692472526L214.45382416666666,35.40909407020409L214.62593854166667,35.24722605765207L214.75502432291665,35.085440295552445L215.09925307291667,34.92338895943734L215.18531026041666,34.76151918423733L215.74468197916667,34.598938028434965L215.91679635416668,34.43644013592896L215.95982494791667,34.27417366239834L216.77736822916665,34.11070311805456L216.82039682291668,33.94751517533404L216.94948260416666,33.78451006618063L217.25068276041665,33.62129214941408L217.33673994791667,33.45830601649044L217.68096869791668,33.29500848232804L217.76702588541667,33.131942393767346L217.81005447916667,32.96910695292295L218.36942619791668,32.805714004949934L218.45548338541667,32.64255194283827L218.49851197916666,32.47961997311517L218.88576932291667,32.31627883594129L219.01485510416668,32.15306952725896L219.10091229166665,31.990089647338127L219.48816963541665,31.826701192874125L219.61725541666667,31.663493082595032L219.70331260416668,31.500562583645788L219.78936979166667,31.33781092911104L220.30571291666666,31.17445525598566L221.03719901041669,31.01010637379315L221.2523419791667,30.845694792732886L221.68262791666666,30.68087902813299L221.94079947916666,30.515952738433352L222.24199963541668,30.350867409415944L222.50017119791667,30.185672100955184L222.5862283854167,30.020707713777107L222.75834276041667,29.85577891514643L223.05954291666666,29.69059385325952L223.10257151041668,29.52573608218934L223.14560010416665,29.361204544084654L223.57588604166668,29.196221957546342L224.26434354166668,29.030353176847026L224.47948651041665,28.864472817047076L224.69462947916665,28.698532384573774L224.90977244791668,28.53258033987682L224.95280104166667,28.366906777382656L225.03885822916666,28.20146245756981L225.16794401041665,28.03610171439646L225.59822994791668,27.870293235447733L225.77034432291666,27.70452060148659L225.81337291666668,27.53907286164592L226.07154447916668,27.373515365656942L226.24365885416665,27.20794462364126L226.28668744791668,27.042649285645794L226.63091619791666,26.877051388269948L226.71697338541665,26.711680348486006L226.76000197916667,26.546535415189066L226.80303057291667,26.381711840335836L226.88908776041666,26.21711266462456L227.01817354166664,26.052641265489004L227.06120213541666,25.888393000282296L227.10423072916666,25.724462896966823L227.14725932291668,25.56080209860066L227.3193736979167,25.397218448222254L227.40543088541665,25.233807214639217L227.53451666666666,25.07052004503562L227.57754526041666,24.907451959838745L227.62057385416668,24.744745359959513L227.66360244791667,24.582256093453232L227.74965963541666,24.419983448706247L227.87874541666665,24.257831477656012L227.92177401041667,24.095990106071827L228.17994557291667,23.93398274136401L228.43811713541666,23.77185728545009L228.52417432291668,23.609946506064322L228.65326010416666,23.448107275153205L229.16960322916668,23.285675025450978L229.51383197916667,23.12293583475055L229.55686057291666,22.96045915596353L229.59988916666666,22.79824415923347L229.85806072916668,22.635911341869974L230.15926088541667,22.47336632264936L230.37440385416667,22.310798708350337L230.67560401041666,22.1480194644711L230.84771838541667,21.985217971011153L231.06286135416667,21.822394193317223L231.23497572916668,21.65959526331769L231.49314729166667,21.496726738943604L231.5792044791667,21.33407138185918L231.70829026041667,21.17153434106175L232.00949041666667,21.008785805690096L232.26766197916666,20.845920319448172L232.39674776041667,20.683220111996643L232.48280494791666,20.52073160644313L232.52583354166666,20.35850107162139L232.7409765104167,20.196199276317884" style="fill: none;" fill="none"></path></g></g></g></g><g opacity="0.2"><g><g><g><path stroke="rgb(238, 51, 119)" stroke-width="2px" d="M22.116010104166666,162.514L22.67538182291667,161.86133333333333L22.933553385416666,161.56466666666665L23.622010885416667,160.85266666666666L23.708068072916667,160.734L23.83715385416667,160.556L23.92321104166667,160.46699999999998L24.181382604166664,160.17033333333333L24.310468385416666,160.022L24.955897291666666,159.28033333333335L25.084983072916668,159.16166666666666L25.300126041666665,158.92433333333335L25.644354791666665,158.47933333333333L25.945554947916666,158.153L26.28978369791667,157.797L26.41886947916667,157.64866666666668L26.461898072916668,157.55966666666666L26.763098229166665,157.20366666666666L26.978241197916667,156.96633333333332L27.322469947916666,156.52133333333333L27.881841666666666,155.89833333333334L28.355156197916667,155.394L28.57029916666667,155.09733333333332L28.699384947916666,154.97866666666667L29.086642291666664,154.53366666666668L29.129670885416665,154.44466666666668L29.559956822916668,153.99966666666666L29.775099791666666,153.73266666666666L29.86115697916667,153.67333333333332L29.904185572916667,153.614L30.076299947916667,153.436L30.420528697916666,153.05033333333333L30.764757447916665,152.60533333333333L30.807786041666667,152.60533333333333L31.022929010416668,152.33833333333334L31.496243541666665,151.834L31.754415104166664,151.53733333333332L31.969558072916666,151.32966666666667L32.09864385416667,151.18133333333333L32.614986979166666,150.55833333333334L32.87315854166666,150.26166666666668L33.08830151041666,150.02433333333335L33.38950166666667,149.698L33.56161604166667,149.51999999999998L33.64767322916667,149.40133333333333L34.46521651041667,148.48166666666668L34.68035947916666,148.274L34.72338807291666,148.21466666666666L34.938531041666664,148.007L35.153674010416665,147.73999999999998L35.23973119791666,147.62133333333333L35.58395994791667,147.23566666666665L35.62698854166667,147.206L35.92818869791667,146.82033333333334L36.10030307291667,146.61266666666666L36.48756041666667,146.16766666666666L36.83178916666667,145.78199999999998L37.520246666666665,144.95133333333334L37.692361041666665,144.74366666666668L37.95053260416667,144.50633333333332L38.12264697916667,144.269L38.208704166666664,144.18L40.01590510416666,142.044L40.058933697916665,141.95499999999998L40.14499088541667,141.86599999999999L40.403162447916664,141.53966666666668L40.790419791666665,141.09466666666665L40.87647697916667,141.00566666666668L40.91950557291667,140.91666666666666L41.04859135416667,140.82766666666666L41.30676291666667,140.50133333333332L41.69402026041667,140.02666666666667L41.82310604166667,139.87833333333333L41.86613463541667,139.819L42.29642057291667,139.285L43.02790666666667,138.484L43.11396385416666,138.39499999999998L43.716364166666665,137.71266666666668L43.931507135416666,137.47533333333334L44.01756432291667,137.38633333333334L44.14665010416667,137.20833333333334L44.49087885416667,136.82266666666666L44.74905041666666,136.526L44.835107604166666,136.40733333333333L44.964193385416664,136.25900000000001L45.22236494791667,135.96233333333333L45.43750791666667,135.69533333333334L45.86779385416667,135.191L46.125965416666666,134.95366666666666L46.38413697916667,134.59766666666667L46.55625135416667,134.41966666666667L46.81442291666667,134.09333333333333L46.90048010416667,134.00433333333334L46.94350869791667,133.97466666666668L47.029565885416666,133.88566666666665L47.11562307291666,133.73733333333334L47.158651666666664,133.73733333333334L47.373794635416665,133.47033333333334L47.41682322916667,133.38133333333334L47.80408057291667,132.966L48.062252135416664,132.699L48.14830932291667,132.58033333333333L48.36345229166667,132.34300000000002L48.57859526041667,132.10566666666665L48.664652447916666,132.01666666666668L49.18099557291667,131.45299999999997L49.48219572916666,131.06733333333332L49.525224322916664,131.03766666666667L49.61128151041667,130.919L49.69733869791666,130.82999999999998L49.740367291666665,130.80033333333333L49.82642447916666,130.71133333333333L50.34276760416667,130.118L50.471853385416665,129.9993333333333L50.643967760416665,129.762L50.77305354166667,129.64333333333332L50.90213932291667,129.46533333333335L51.07425369791667,129.28733333333332L51.11728229166667,129.228L51.28939666666667,129.02033333333333L51.50453963541667,128.81266666666667L51.54756822916667,128.75333333333333L51.97785416666666,128.249L52.14996854166667,128.071L52.279054322916664,127.893L52.623283072916664,127.537L52.79539744791666,127.32933333333334L52.92448322916667,127.181L52.96751182291666,127.092L53.010540416666664,127.092L53.31174057291667,126.73599999999999L53.569912135416665,126.46900000000001L53.65596932291667,126.35033333333332L53.69899791666667,126.291L53.87111229166667,126.113L54.04322666666667,125.87566666666667L54.17231244791667,125.757L54.21534104166667,125.69766666666666L54.25836963541667,125.66799999999999L54.43048401041666,125.46033333333332L54.817741354166664,125.01533333333332L54.98985572916666,124.83733333333333L55.032884322916665,124.778L55.07591291666667,124.74833333333333L55.16197010416666,124.62966666666665L55.204998697916665,124.57033333333332L55.46317026041667,124.30333333333331L55.63528463541667,124.12533333333334L55.67831322916667,124.03633333333335L55.764370416666665,123.94733333333333L55.85042760416667,123.85833333333333L55.979513385416666,123.71000000000001L56.02254197916667,123.68033333333335L56.06557057291667,123.621L56.10859916666667,123.56166666666665L56.23768494791667,123.443L56.40979932291667,123.20566666666666L56.62494229166667,122.93866666666666L56.66797088541667,122.909L56.71099947916667,122.84966666666665L56.96917104166666,122.553L57.70065713541666,121.69266666666667L57.87277151041667,121.51466666666666L57.958828697916665,121.39599999999999L58.17397166666667,121.129L59.20665791666667,119.94233333333332L59.29271510416667,119.85333333333334L59.50785807291666,119.61599999999999L59.593915260416665,119.527L59.766029635416665,119.349L59.85208682291667,119.25999999999999L60.19631557291667,118.815L60.45448713541666,118.48866666666666L60.62660151041667,118.31066666666668L60.92780166666667,117.98433333333334L61.01385885416667,117.86566666666667L61.27203041666667,117.569L61.35808760416667,117.47999999999999L61.48717338541667,117.302L61.53020197916667,117.27233333333334L61.61625916666667,117.18333333333334L61.960487916666665,116.79766666666667L62.00351651041667,116.768L62.132602291666664,116.61966666666667L62.43380244791666,116.23400000000001L62.56288822916667,116.08566666666667L62.95014557291667,115.67033333333332L63.12225994791667,115.46266666666668L63.251345729166665,115.28466666666665L63.29437432291667,115.22533333333332L63.68163166666667,114.78033333333335L63.72466026041667,114.69133333333333L63.89677463541667,114.57266666666666L63.93980322916667,114.48366666666666L63.98283182291667,114.42433333333334L64.02586041666667,114.39466666666668L64.19797479166667,114.187L64.24100338541668,114.12766666666667L64.37008916666666,113.97933333333333L64.41311776041667,113.94966666666667L64.75734651041667,113.53433333333332L64.92946088541666,113.35633333333334L65.01551807291666,113.26733333333333L65.10157526041667,113.17833333333331L65.14460385416668,113.08933333333333L65.53186119791667,112.64433333333334L65.66094697916665,112.55533333333335L66.00517572916667,112.14L66.09123291666666,112.05099999999999L66.26334729166666,111.81366666666666L66.30637588541667,111.75433333333334L66.52151885416666,111.48733333333335L66.82271901041668,111.13133333333334L67.29603354166666,110.59733333333332L67.38209072916666,110.50833333333334L67.64026229166666,110.24133333333333L67.76934807291667,110.093L67.85540526041667,109.94466666666665L68.02751963541667,109.76666666666667L68.19963401041666,109.58866666666665L68.28569119791666,109.49966666666666L68.50083416666666,109.26233333333333L68.54386276041666,109.23266666666667L68.58689135416667,109.17333333333332L68.93112010416667,108.78766666666667L69.18929166666668,108.49099999999999L69.36140604166667,108.28333333333335L69.40443463541666,108.224L69.44746322916667,108.16466666666668L69.83472057291667,107.74933333333333L70.04986354166667,107.48233333333333L70.65226385416666,106.82966666666668L70.73832104166667,106.74066666666667L71.59889291666666,105.76166666666668L71.64192151041667,105.70233333333333L71.81403588541667,105.49466666666667L71.85706447916667,105.43533333333335L71.90009307291668,105.40566666666668L72.67460776041668,104.48599999999999L72.88975072916666,104.308L73.19095088541665,103.95200000000001L73.23397947916666,103.89266666666667L73.49215104166667,103.59600000000002L73.57820822916666,103.47733333333332L73.79335119791666,103.26966666666668L73.87940838541667,103.18066666666667L74.13757994791666,102.85433333333333L74.91209463541666,101.96433333333333L74.99815182291667,101.905L75.08420901041667,101.78633333333335L75.42843776041667,101.40066666666667L75.55752354166665,101.22266666666667L75.90175229166665,100.80733333333333L76.03083807291667,100.68866666666666L76.15992385416666,100.54033333333332L76.71929557291666,99.82833333333333L77.02049572916667,99.502L77.27866729166666,99.235L77.45078166666667,99.02733333333333L77.53683885416666,98.93833333333335L77.57986744791667,98.879L77.83803901041668,98.58233333333334L78.26832494791665,98.04833333333332L78.48346791666667,97.81099999999999L78.52649651041666,97.78133333333334L78.65558229166668,97.633L78.91375385416667,97.30666666666666L78.99981104166667,97.21766666666667L79.12889682291666,97.06933333333333L79.25798260416667,96.89133333333334L79.38706838541667,96.743L79.43009697916668,96.71333333333334L80.20461166666668,95.79366666666667L80.85004057291667,94.963L81.49546947916666,94.19166666666666L81.62455526041667,94.073L81.66758385416666,93.98400000000001L81.75364104166667,93.89500000000001L81.79666963541668,93.806L82.70027010416666,92.70833333333331L82.74329869791667,92.70833333333331L82.95844166666667,92.44133333333333L83.08752744791666,92.23366666666666L83.25964182291666,92.026L83.34569901041667,91.90733333333333L83.51781338541666,91.72933333333333L83.68992776041667,91.55133333333333L83.86204213541666,91.34366666666666L84.93775697916668,90.068L84.98078557291666,90.03833333333334L85.45410010416666,89.50433333333334L85.79832885416666,89.08899999999998L85.84135744791666,89L85.97044322916666,88.91100000000002L86.05650041666667,88.822L86.09952901041667,88.733L86.48678635416667,88.288L86.78798651041667,87.96166666666666L87.43341541666666,87.24966666666666L87.47644401041667,87.16066666666667L87.60552979166667,87.042L87.90672994791666,86.71566666666666L88.42307307291667,86.09266666666667L88.63821604166667,85.82566666666666L88.68124463541666,85.82566666666666L88.76730182291666,85.70700000000001L89.06850197916667,85.32133333333333L89.36970213541666,84.96533333333335L89.41273072916667,84.90599999999999L89.79998807291666,84.46100000000001L89.97210244791667,84.22366666666666L90.05815963541667,84.13466666666667L90.23027401041666,83.95666666666666L90.61753135416666,83.51166666666666L90.91873151041666,83.15566666666666L90.96176010416666,83.12599999999999L91.17690307291667,82.85900000000001L91.52113182291667,82.47333333333334L91.90838916666667,82.02833333333334L91.95141776041667,81.96900000000001L92.12353213541667,81.76133333333334L92.33867510416667,81.52399999999999L92.46776088541667,81.40533333333335L92.55381807291667,81.257L92.68290385416667,81.13833333333334L92.81198963541668,80.96033333333332L92.98410401041666,80.75266666666667L93.32833276041666,80.33733333333333L93.67256151041666,79.95166666666668L93.84467588541666,79.74399999999999L93.97376166666668,79.56599999999999L94.01679026041667,79.53633333333333L94.27496182291667,79.21L94.31799041666667,79.18033333333332L94.66221916666667,78.765L94.83433354166667,78.55733333333333L94.87736213541666,78.52766666666668L94.92039072916667,78.43866666666666L95.00644791666667,78.34966666666668L95.13553369791667,78.26066666666667L95.43673385416666,77.875L95.47976244791667,77.81566666666667L95.82399119791667,77.43L95.86701979166666,77.341L96.25427713541667,76.89600000000002L96.42639151041666,76.718L96.51244869791667,76.59933333333333L96.64153447916667,76.451L96.85667744791667,76.18400000000001L96.89970604166666,76.15433333333333L96.98576322916666,76.06533333333334L97.02879182291667,75.97633333333333L97.07182041666667,75.94666666666666L97.28696338541667,75.67966666666668L97.88936369791666,74.96766666666667L98.27662104166667,74.493L98.53479260416667,74.19633333333333L98.83599276041666,73.84033333333335L98.87902135416667,73.81066666666666L99.26627869791666,73.36566666666667L99.56747885416667,73.00966666666667L99.95473619791666,72.59433333333334L100.08382197916667,72.446L100.38502213541666,72.09L100.47107932291667,71.97133333333333L100.64319369791667,71.76366666666667L101.07347963541667,71.28899999999999L101.11650822916666,71.22966666666667L101.24559401041667,71.08133333333333L101.46073697916667,70.78466666666665L101.63285135416666,70.60666666666665L102.19222307291668,69.95400000000001L102.27828026041668,69.865L102.32130885416666,69.776L102.57948041666667,69.50899999999999L102.62250901041668,69.44966666666667L102.66553760416667,69.44966666666667L102.75159479166666,69.33099999999999L103.35399510416667,68.64866666666667L104.12850979166667,67.75866666666667L104.38668135416667,67.43233333333333L104.68788151041666,67.106L104.94605307291667,66.80933333333333L105.11816744791666,66.60166666666666L105.20422463541667,66.51266666666668L105.29028182291667,66.42366666666666L105.54845338541666,66.06766666666667L105.67753916666666,65.94900000000001L105.76359635416667,65.83033333333334L105.89268213541666,65.71166666666666L106.02176791666666,65.53366666666666L106.15085369791667,65.415L106.53811104166667,64.97L106.62416822916666,64.85133333333333L107.14051135416666,64.258L107.18353994791667,64.19866666666667L107.22656854166667,64.16900000000001L107.82896885416666,63.45700000000001L108.00108322916667,63.249333333333325L108.17319760416667,63.04166666666666L108.34531197916667,62.86366666666666L108.38834057291666,62.77466666666667L108.51742635416667,62.656L108.60348354166666,62.53733333333334L108.68954072916667,62.477999999999994L109.03376947916666,62.03300000000001L109.11982666666667,61.943999999999996L109.24891244791667,61.79566666666666L109.37799822916668,61.64733333333334L109.50708401041666,61.46933333333334L109.59314119791667,61.41L109.72222697916668,61.23199999999999L109.85131276041666,61.113333333333344L110.53977026041667,60.25300000000001L110.84097041666666,59.897000000000006L111.05611338541667,59.68933333333334L111.09914197916666,59.629999999999995L111.14217057291667,59.57066666666667L111.22822776041667,59.45199999999999L111.27125635416667,59.42233333333333L111.35731354166666,59.30366666666668L111.44337072916666,59.214666666666666L111.61548510416667,59.007000000000005L111.78759947916666,58.76966666666667L112.00274244791667,58.53233333333333L112.08879963541668,58.38399999999999L112.38999979166667,58.08733333333334L112.47605697916667,57.968666666666664L112.51908557291668,57.909333333333336L112.73422854166667,57.642333333333326L112.90634291666667,57.434666666666665L113.12148588541666,57.19733333333334L113.20754307291666,57.10833333333333L113.25057166666667,57.049L113.68085760416668,56.515L113.72388619791666,56.48533333333334L113.89600057291666,56.277666666666676L114.02508635416667,56.129333333333335L114.15417213541666,55.95133333333334L114.19720072916667,55.95133333333334L114.32628651041667,55.803L114.36931510416667,55.71399999999999L114.45537229166668,55.625L114.67051526041666,55.447L114.71354385416667,55.35800000000001L115.01474401041666,55.00200000000001L115.05777260416667,54.94266666666666L115.22988697916666,54.76466666666666L115.31594416666665,54.67566666666667L115.40200135416666,54.58666666666666L115.57411572916666,54.40866666666666L116.00440166666667,53.845L116.09045885416666,53.75600000000001L116.17651604166666,53.63733333333334L116.21954463541667,53.607666666666674L116.39165901041667,53.400000000000006L116.52074479166666,53.25166666666667L116.86497354166666,52.86600000000001L117.03708791666666,52.658333333333324L117.63948822916667,51.94633333333332L117.81160260416667,51.73866666666666L117.89765979166667,51.64966666666667L118.11280276041666,51.41233333333334L118.15583135416666,51.38266666666666L118.24188854166667,51.264L118.32794572916667,51.175L118.37097432291667,51.11566666666667L118.45703151041666,51.02666666666666L118.54308869791666,50.90800000000001L118.58611729166667,50.84866666666666L118.88731744791666,50.49266666666666L119.01640322916667,50.374L119.23154619791666,50.10699999999999L119.74788932291666,49.513666666666666L119.92000369791667,49.33566666666667L120.04908947916667,49.18733333333333L120.47937541666666,48.71266666666666L120.73754697916667,48.38633333333334L120.78057557291667,48.356666666666655L120.86663276041666,48.26766666666666L120.99571854166666,48.11933333333333L121.12480432291667,47.971L121.16783291666667,47.91166666666667L121.21086151041666,47.882000000000005L121.64114744791667,47.348L121.68417604166666,47.31833333333334L121.72720463541667,47.25899999999999L121.81326182291667,47.17L122.32960494791668,46.576666666666675L122.37263354166667,46.48766666666666L122.41566213541667,46.458L122.45869072916666,46.39866666666668L122.80291947916666,45.95366666666666L123.19017682291665,45.53833333333334L123.92166291666668,44.64833333333333L124.52406322916667,43.966L124.69617760416668,43.788L124.73920619791667,43.72866666666667L124.82526338541666,43.63966666666666L125.16949213541666,43.19466666666667L125.25554932291666,43.076L125.42766369791667,42.92766666666666L125.85794963541667,42.423333333333325L126.20217838541667,42.03766666666666L126.24520697916667,41.97833333333333L126.71852151041666,41.41466666666667L127.06275026041668,41.029L127.32092182291667,40.76199999999999L127.36395041666667,40.67300000000001L127.45000760416667,40.583999999999996L127.53606479166666,40.495000000000005L127.75120776041666,40.25766666666666L128.56875104166667,39.30833333333333L128.82692260416667,38.98199999999999L128.8699511979167,38.95233333333333L129.30023713541667,38.44799999999999L129.38629432291668,38.32933333333334L129.51538010416667,38.181000000000004L129.5584086979167,38.15133333333334L129.60143729166666,38.06233333333333L130.0317232291667,37.58766666666666L130.07475182291665,37.55799999999999L130.20383760416667,37.379999999999995L130.46200916666666,37.08333333333334L130.67715213541666,36.875666666666675L130.76320932291665,36.757000000000005L130.84926651041667,36.69766666666668L130.93532369791666,36.579L131.32258104166667,36.10433333333333L131.49469541666667,35.89666666666667L131.66680979166665,35.718666666666664L131.75286697916667,35.62966666666667L131.88195276041668,35.451666666666675L132.2692101041667,35.03633333333333L132.31223869791665,34.94733333333334L132.48435307291666,34.769333333333336L132.7425246354167,34.502333333333326L132.82858182291665,34.35399999999999L133.34492494791667,33.731L133.38795354166666,33.70133333333334L133.43098213541668,33.64199999999999L133.47401072916665,33.58266666666666L133.6030965104167,33.404666666666664L133.77521088541667,33.22666666666667L134.03338244791667,32.93000000000001L134.07641104166666,32.870666666666665L134.20549682291667,32.722333333333324L134.54972557291666,32.33666666666666L134.7648685416667,32.06966666666667L134.89395432291667,31.891666666666673L135.02304010416665,31.773L135.06606869791668,31.713666666666672L135.32424026041664,31.387333333333334L135.41029744791666,31.298333333333325L135.66846901041666,31.031333333333336L135.79755479166667,30.883L135.92664057291668,30.764333333333326L135.96966916666668,30.675333333333334L136.14178354166668,30.497333333333334L136.95932682291667,29.548000000000005L137.13144119791667,29.370000000000005L137.21749838541666,29.280999999999995L137.43264135416666,29.014000000000006L137.64778432291666,28.77666666666666L138.20715604166665,28.124000000000006L138.37927041666666,27.91633333333334L138.50835619791667,27.768000000000004L139.15378510416667,27.02633333333334L139.62709963541667,26.462666666666657L139.67012822916666,26.432999999999993L139.79921401041668,26.284666666666656L140.05738557291664,25.95833333333334L140.35858572916666,25.632L140.40161432291666,25.60233333333334L140.44464291666665,25.542999999999992L140.48767151041667,25.483666666666664L140.53070010416667,25.42433333333334L140.57372869791666,25.36499999999999L140.91795744791665,24.949666666666666L141.90761510416667,23.792666666666676L141.95064369791666,23.733333333333327L141.99367229166666,23.703666666666663L142.29487244791665,23.37733333333333L142.76818697916664,22.784L142.85424416666666,22.69499999999999L143.37058729166668,22.072L143.41361588541668,22.042333333333335L143.54270166666666,21.894L143.62875885416665,21.775333333333325L143.67178744791667,21.74566666666666L143.7578446354167,21.62700000000001L144.57538791666667,20.707333333333324L144.79053088541667,20.440333333333335L144.91961666666668,20.291999999999998L145.04870244791667,20.173333333333325L145.43595979166668,19.69866666666667L145.47898838541664,19.639333333333326L145.73715994791667,19.34266666666667L145.82321713541666,19.223999999999997L145.86624572916665,19.194333333333333L146.12441729166667,18.89766666666666L146.25350307291666,18.749333333333325L146.51167463541665,18.482333333333333L146.59773182291667,18.36366666666666L146.68378901041666,18.245000000000005L146.81287479166667,18.09666666666667L147.20013213541665,17.65166666666666L147.41527510416665,17.41433333333333L147.50133229166664,17.325333333333344L147.54436088541667,17.265999999999995L147.58738947916666,17.20666666666667L148.06070401041666,16.61333333333334L148.4909899479167,16.13866666666667L148.83521869791667,15.72333333333334L149.56670479166667,14.83333333333334L149.86790494791668,14.47733333333334L149.91093354166665,14.417999999999992L150.04001932291666,14.269666666666676L150.47030526041667,13.705999999999992L150.72847682291666,13.409333333333338L150.90059119791667,13.201666666666675L151.11573416666667,12.964333333333329L151.2017913541667,12.845666666666675L151.28784854166668,12.756666666666664L151.37390572916667,12.637999999999991L151.45996291666665,12.519333333333337L151.63207729166666,12.341333333333338L151.67510588541668,12.341333333333338L151.80419166666667,12.163333333333338L152.0623632291667,11.837L152.14842041666665,11.718333333333327L152.27750619791667,11.56999999999999L152.62173494791665,11.154666666666664L152.70779213541667,11.065666666666672L152.75082072916666,11.006333333333327L152.79384932291666,10.947L153.13807807291667,10.531666666666673L153.78350697916665,9.849333333333336L153.86956416666666,9.730666666666663L153.95562135416665,9.641666666666673L154.04167854166667,9.552666666666662L154.12773572916666,9.434000000000008L154.51499307291667,8.959333333333335L154.68710744791667,8.722000000000008L155.2464791666667,8.12866666666666L155.41859354166667,7.86166666666667L156.23613682291668,6.971666666666669L156.88156572916665,6.200333333333342L156.92459432291668,6.111333333333333L157.18276588541667,5.844333333333342L157.22579447916667,5.784999999999995L157.31185166666668,5.666333333333341L157.44093744791667,5.547666666666668L157.65608041666664,5.250999999999995L157.78516619791668,5.102666666666658L157.82819479166665,5.043333333333331L157.91425197916666,4.924666666666658L158.60270947916666,4.182999999999994L158.90390963541665,3.79733333333333L159.07602401041666,3.6489999999999934L159.37722416666665,3.2633333333333296L159.42025276041667,3.2633333333333296L159.72145291666666,2.8480000000000025L159.85053869791665,2.7293333333333294L160.88322494791666,1.5426666666666746L161.01231072916667,1.3646666666666745L161.31351088541666,1.0383333333333375L161.44259666666667,0.9196666666666642L161.48562526041667,0.8603333333333374L161.57168244791666,0.741666666666664L161.61471104166665,0.7120000000000006L161.91591119791667,0.3856666666666637L162.00196838541666,0.2966666666666735L162.47528291666666,-0.2966666666666735" style="fill: none;" fill="none"></path></g></g></g></g></g></g><g transform="translate(72, 178)" clip-path="url(#clip_1)"><clipPath id="clip_1"><rect width="257" height="22"></rect></clipPath><g><g><line x1="0" y1="0" x2="0" y2="5" style="visibility: inherit;" fill="rgb(0, 0, 0)" stroke="rgb(204, 204, 204)" stroke-width="1px"></line><line x1="21.471354166666664" y1="0" x2="21.471354166666664" y2="5" style="visibility: inherit;" fill="rgb(0, 0, 0)" stroke="rgb(204, 204, 204)" stroke-width="1px"></line><line x1="42.94270833333333" y1="0" x2="42.94270833333333" y2="5" style="visibility: inherit;" fill="rgb(0, 0, 0)" stroke="rgb(204, 204, 204)" stroke-width="1px"></line><line x1="64.4140625" y1="0" x2="64.4140625" y2="5" style="visibility: inherit;" fill="rgb(0, 0, 0)" stroke="rgb(204, 204, 204)" stroke-width="1px"></line><line x1="85.88541666666666" y1="0" x2="85.88541666666666" y2="5" style="visibility: inherit;" fill="rgb(0, 0, 0)" stroke="rgb(204, 204, 204)" stroke-width="1px"></line><line x1="107.35677083333334" y1="0" x2="107.35677083333334" y2="5" style="visibility: inherit;" fill="rgb(0, 0, 0)" stroke="rgb(204, 204, 204)" stroke-width="1px"></line><line x1="128.828125" y1="0" x2="128.828125" y2="5" style="visibility: inherit;" fill="rgb(0, 0, 0)" stroke="rgb(204, 204, 204)" stroke-width="1px"></line><line x1="150.29947916666669" y1="0" x2="150.29947916666669" y2="5" style="visibility: inherit;" fill="rgb(0, 0, 0)" stroke="rgb(204, 204, 204)" stroke-width="1px"></line><line x1="171.77083333333331" y1="0" x2="171.77083333333331" y2="5" style="visibility: inherit;" fill="rgb(0, 0, 0)" stroke="rgb(204, 204, 204)" stroke-width="1px"></line><line x1="193.2421875" y1="0" x2="193.2421875" y2="5" style="visibility: inherit;" fill="rgb(0, 0, 0)" stroke="rgb(204, 204, 204)" stroke-width="1px"></line><line x1="214.71354166666669" y1="0" x2="214.71354166666669" y2="5" style="visibility: inherit;" fill="rgb(0, 0, 0)" stroke="rgb(204, 204, 204)" stroke-width="1px"></line><line x1="236.18489583333331" y1="0" x2="236.18489583333331" y2="5" style="visibility: inherit;" fill="rgb(0, 0, 0)" stroke="rgb(204, 204, 204)" stroke-width="1px"></line><line x1="257.65625" y1="0" x2="257.65625" y2="5" style="visibility: inherit;" fill="rgb(0, 0, 0)" stroke="rgb(204, 204, 204)" stroke-width="1px"></line></g><g transform="translate(0, 8)"><text x="0" y="0" dx="0em" dy="0.95em" style="text-anchor: middle; visibility: hidden; font-family: Roboto, sans-serif; font-size: 12px; font-weight: 200;" fill="rgb(50, 49, 63)" stroke="none" stroke-width="1px">-500k</text><text x="21.471354166666664" y="0" dx="0em" dy="0.95em" style="text-anchor: middle; visibility: inherit; font-family: Roboto, sans-serif; font-size: 12px; font-weight: 200;" fill="rgb(50, 49, 63)" stroke="none" stroke-width="1px">0</text><text x="42.94270833333333" y="0" dx="0em" dy="0.95em" style="text-anchor: middle; visibility: hidden; font-family: Roboto, sans-serif; font-size: 12px; font-weight: 200;" fill="rgb(50, 49, 63)" stroke="none" stroke-width="1px">500k</text><text x="64.4140625" y="0" dx="0em" dy="0.95em" style="text-anchor: middle; visibility: inherit; font-family: Roboto, sans-serif; font-size: 12px; font-weight: 200;" fill="rgb(50, 49, 63)" stroke="none" stroke-width="1px">1M</text><text x="85.88541666666666" y="0" dx="0em" dy="0.95em" style="text-anchor: middle; visibility: hidden; font-family: Roboto, sans-serif; font-size: 12px; font-weight: 200;" fill="rgb(50, 49, 63)" stroke="none" stroke-width="1px">1.5M</text><text x="107.35677083333334" y="0" dx="0em" dy="0.95em" style="text-anchor: middle; visibility: inherit; font-family: Roboto, sans-serif; font-size: 12px; font-weight: 200;" fill="rgb(50, 49, 63)" stroke="none" stroke-width="1px">2M</text><text x="128.828125" y="0" dx="0em" dy="0.95em" style="text-anchor: middle; visibility: hidden; font-family: Roboto, sans-serif; font-size: 12px; font-weight: 200;" fill="rgb(50, 49, 63)" stroke="none" stroke-width="1px">2.5M</text><text x="150.29947916666669" y="0" dx="0em" dy="0.95em" style="text-anchor: middle; visibility: inherit; font-family: Roboto, sans-serif; font-size: 12px; font-weight: 200;" fill="rgb(50, 49, 63)" stroke="none" stroke-width="1px">3M</text><text x="171.77083333333331" y="0" dx="0em" dy="0.95em" style="text-anchor: middle; visibility: hidden; font-family: Roboto, sans-serif; font-size: 12px; font-weight: 200;" fill="rgb(50, 49, 63)" stroke="none" stroke-width="1px">3.5M</text><text x="193.2421875" y="0" dx="0em" dy="0.95em" style="text-anchor: middle; visibility: inherit; font-family: Roboto, sans-serif; font-size: 12px; font-weight: 200;" fill="rgb(50, 49, 63)" stroke="none" stroke-width="1px">4M</text><text x="214.71354166666669" y="0" dx="0em" dy="0.95em" style="text-anchor: middle; visibility: hidden; font-family: Roboto, sans-serif; font-size: 12px; font-weight: 200;" fill="rgb(50, 49, 63)" stroke="none" stroke-width="1px">4.5M</text><text x="236.18489583333331" y="0" dx="0em" dy="0.95em" style="text-anchor: middle; visibility: inherit; font-family: Roboto, sans-serif; font-size: 12px; font-weight: 200;" fill="rgb(50, 49, 63)" stroke="none" stroke-width="1px">5M</text><text x="257.65625" y="0" dx="0em" dy="0.95em" style="text-anchor: middle; visibility: hidden; font-family: Roboto, sans-serif; font-size: 12px; font-weight: 200;" fill="rgb(50, 49, 63)" stroke="none" stroke-width="1px">5.5M</text></g><line x1="0" y1="0" x2="257.65625" y2="0" fill="rgb(0, 0, 0)" stroke="rgb(204, 204, 204)" stroke-width="1px"></line></g></g></g></g></svg>