<svg viewBox="0 0 330 200" xmlns="http://www.w3.org/2000/svg"><g><g><g><g><g><line x1="51.5625" y1="178" x2="46.5625" y2="178" style="visibility: inherit;" fill="rgb(0, 0, 0)" stroke="rgb(204, 204, 204)" stroke-width="1px"></line><line x1="51.5625" y1="165.28571428571433" x2="46.5625" y2="165.28571428571433" style="visibility: inherit;" fill="rgb(0, 0, 0)" stroke="rgb(204, 204, 204)" stroke-width="1px"></line><line x1="51.5625" y1="152.57142857142867" x2="46.5625" y2="152.57142857142867" style="visibility: inherit;" fill="rgb(0, 0, 0)" stroke="rgb(204, 204, 204)" stroke-width="1px"></line><line x1="51.5625" y1="139.85714285714278" x2="46.5625" y2="139.85714285714278" style="visibility: inherit;" fill="rgb(0, 0, 0)" stroke="rgb(204, 204, 204)" stroke-width="1px"></line><line x1="51.5625" y1="127.14285714285711" x2="46.5625" y2="127.14285714285711" style="visibility: inherit;" fill="rgb(0, 0, 0)" stroke="rgb(204, 204, 204)" stroke-width="1px"></line><line x1="51.5625" y1="114.42857142857146" x2="46.5625" y2="114.42857142857146" style="visibility: inherit;" fill="rgb(0, 0, 0)" stroke="rgb(204, 204, 204)" stroke-width="1px"></line><line x1="51.5625" y1="101.7142857142858" x2="46.5625" y2="101.7142857142858" style="visibility: inherit;" fill="rgb(0, 0, 0)" stroke="rgb(204, 204, 204)" stroke-width="1px"></line><line x1="51.5625" y1="89.00000000000011" x2="46.5625" y2="89.00000000000011" style="visibility: inherit;" fill="rgb(0, 0, 0)" stroke="rgb(204, 204, 204)" stroke-width="1px"></line><line x1="51.5625" y1="76.2857142857142" x2="46.5625" y2="76.2857142857142" style="visibility: inherit;" fill="rgb(0, 0, 0)" stroke="rgb(204, 204, 204)" stroke-width="1px"></line><line x1="51.5625" y1="63.57142857142856" x2="46.5625" y2="63.57142857142856" style="visibility: inherit;" fill="rgb(0, 0, 0)" stroke="rgb(204, 204, 204)" stroke-width="1px"></line><line x1="51.5625" y1="50.8571428571429" x2="46.5625" y2="50.8571428571429" style="visibility: inherit;" fill="rgb(0, 0, 0)" stroke="rgb(204, 204, 204)" stroke-width="1px"></line><line x1="51.5625" y1="38.142857142857224" x2="46.5625" y2="38.142857142857224" style="visibility: inherit;" fill="rgb(0, 0, 0)" stroke="rgb(204, 204, 204)" stroke-width="1px"></line><line x1="51.5625" y1="25.428571428571555" x2="46.5625" y2="25.428571428571555" style="visibility: inherit;" fill="rgb(0, 0, 0)" stroke="rgb(204, 204, 204)" stroke-width="1px"></line><line x1="51.5625" y1="12.71428571428567" x2="46.5625" y2="12.71428571428567" style="visibility: inherit;" fill="rgb(0, 0, 0)" stroke="rgb(204, 204, 204)" stroke-width="1px"></line><line x1="51.5625" y1="0" x2="46.5625" y2="0" style="visibility: inherit;" fill="rgb(0, 0, 0)" stroke="rgb(204, 204, 204)" stroke-width="1px"></line></g><g transform="translate(41.5625, 0)"><text x="0" y="178" dx="0em" dy="0.3em" style="text-anchor: end; visibility: hidden; font-family: Roboto, sans-serif; font-size: 12px; font-weight: 200;" fill="rgb(50, 49, 63)" stroke="none" stroke-width="1px">13.5</text><text x="0" y="165.28571428571433" dx="0em" dy="0.3em" style="text-anchor: end; visibility: inherit; font-family: Roboto, sans-serif; font-size: 12px; font-weight: 200;" fill="rgb(50, 49, 63)" stroke="none" stroke-width="1px">13.6</text><text x="0" y="152.57142857142867" dx="0em" dy="0.3em" style="text-anchor: end; visibility: hidden; font-family: Roboto, sans-serif; font-size: 12px; font-weight: 200;" fill="rgb(50, 49, 63)" stroke="none" stroke-width="1px">13.7</text><text x="0" y="139.85714285714278" dx="0em" dy="0.3em" style="text-anchor: end; visibility: inherit; font-family: Roboto, sans-serif; font-size: 12px; font-weight: 200;" fill="rgb(50, 49, 63)" stroke="none" stroke-width="1px">13.8</text><text x="0" y="127.14285714285711" dx="0em" dy="0.3em" style="text-anchor: end; visibility: hidden; font-family: Roboto, sans-serif; font-size: 12px; font-weight: 200;" fill="rgb(50, 49, 63)" stroke="none" stroke-width="1px">13.9</text><text x="0" y="114.42857142857146" dx="0em" dy="0.3em" style="text-anchor: end; visibility: inherit; font-family: Roboto, sans-serif; font-size: 12px; font-weight: 200;" fill="rgb(50, 49, 63)" stroke="none" stroke-width="1px">14</text><text x="0" y="101.7142857142858" dx="0em" dy="0.3em" style="text-anchor: end; visibility: hidden; font-family: Roboto, sans-serif; font-size: 12px; font-weight: 200;" fill="rgb(50, 49, 63)" stroke="none" stroke-width="1px">14.1</text><text x="0" y="89.00000000000011" dx="0em" dy="0.3em" style="text-anchor: end; visibility: inherit; font-family: Roboto, sans-serif; font-size: 12px; font-weight: 200;" fill="rgb(50, 49, 63)" stroke="none" stroke-width="1px">14.2</text><text x="0" y="76.2857142857142" dx="0em" dy="0.3em" style="text-anchor: end; visibility: hidden; font-family: Roboto, sans-serif; font-size: 12px; font-weight: 200;" fill="rgb(50, 49, 63)" stroke="none" stroke-width="1px">14.3</text><text x="0" y="63.57142857142856" dx="0em" dy="0.3em" style="text-anchor: end; visibility: inherit; font-family: Roboto, sans-serif; font-size: 12px; font-weight: 200;" fill="rgb(50, 49, 63)" stroke="none" stroke-width="1px">14.4</text><text x="0" y="50.8571428571429" dx="0em" dy="0.3em" style="text-anchor: end; visibility: hidden; font-family: Roboto, sans-serif; font-size: 12px; font-weight: 200;" fill="rgb(50, 49, 63)" stroke="none" stroke-width="1px">14.5</text><text x="0" y="38.142857142857224" dx="0em" dy="0.3em" style="text-anchor: end; visibility: inherit; font-family: Roboto, sans-serif; font-size: 12px; font-weight: 200;" fill="rgb(50, 49, 63)" stroke="none" stroke-width="1px">14.6</text><text x="0" y="25.428571428571555" dx="0em" dy="0.3em" style="text-anchor: end; visibility: hidden; font-family: Roboto, sans-serif; font-size: 12px; font-weight: 200;" fill="rgb(50, 49, 63)" stroke="none" stroke-width="1px">14.7</text><text x="0" y="12.71428571428567" dx="0em" dy="0.3em" style="text-anchor: end; visibility: inherit; font-family: Roboto, sans-serif; font-size: 12px; font-weight: 200;" fill="rgb(50, 49, 63)" stroke="none" stroke-width="1px">14.8</text><text x="0" y="0" dx="0em" dy="0.3em" style="text-anchor: end; visibility: hidden; font-family: Roboto, sans-serif; font-size: 12px; font-weight: 200;" fill="rgb(50, 49, 63)" stroke="none" stroke-width="1px">14.9</text></g><line x1="51.5625" y1="0" x2="51.5625" y2="178" fill="rgb(0, 0, 0)" stroke="rgb(204, 204, 204)" stroke-width="1px"></line></g></g><g transform="translate(51, 0)" clip-path="url(#clip_0)"><clipPath id="clip_0"><rect width="278" height="178"></rect></clipPath><g><g><g><line x1="0" y1="0" x2="0" y2="178" fill="rgb(0, 0, 0)" stroke="rgb(60, 60, 60)" stroke-width="1px" opacity="0.25"></line><line x1="23.203125" y1="0" x2="23.203125" y2="178" fill="rgb(0, 0, 0)" stroke="rgb(60, 60, 60)" stroke-width="1px" opacity="0.25"></line><line x1="46.40625" y1="0" x2="46.40625" y2="178" fill="rgb(0, 0, 0)" stroke="rgb(60, 60, 60)" stroke-width="1px" opacity="0.25"></line><line x1="69.609375" y1="0" x2="69.609375" y2="178" fill="rgb(0, 0, 0)" stroke="rgb(60, 60, 60)" stroke-width="1px" opacity="0.25"></line><line x1="92.8125" y1="0" x2="92.8125" y2="178" fill="rgb(0, 0, 0)" stroke="rgb(60, 60, 60)" stroke-width="1px" opacity="0.25"></line><line x1="116.015625" y1="0" x2="116.015625" y2="178" fill="rgb(0, 0, 0)" stroke="rgb(60, 60, 60)" stroke-width="1px" opacity="0.25"></line><line x1="139.21875" y1="0" x2="139.21875" y2="178" fill="rgb(0, 0, 0)" stroke="rgb(60, 60, 60)" stroke-width="1px" opacity="0.25"></line><line x1="162.421875" y1="0" x2="162.421875" y2="178" fill="rgb(0, 0, 0)" stroke="rgb(60, 60, 60)" stroke-width="1px" opacity="0.25"></line><line x1="185.625" y1="0" x2="185.625" y2="178" fill="rgb(0, 0, 0)" stroke="rgb(60, 60, 60)" stroke-width="1px" opacity="0.25"></line><line x1="208.828125" y1="0" x2="208.828125" y2="178" fill="rgb(0, 0, 0)" stroke="rgb(60, 60, 60)" stroke-width="1px" opacity="0.25"></line><line x1="232.03125" y1="0" x2="232.03125" y2="178" fill="rgb(0, 0, 0)" stroke="rgb(60, 60, 60)" stroke-width="1px" opacity="0.25"></line><line x1="255.234375" y1="0" x2="255.234375" y2="178" fill="rgb(0, 0, 0)" stroke="rgb(60, 60, 60)" stroke-width="1px" opacity="0.25"></line><line x1="278.4375" y1="0" x2="278.4375" y2="178" fill="rgb(0, 0, 0)" stroke="rgb(60, 60, 60)" stroke-width="1px" opacity="0.25"></line></g><g><line x1="0" y1="178" x2="278.4375" y2="178" fill="rgb(0, 0, 0)" stroke="rgb(60, 60, 60)" stroke-width="1px" opacity="0.25"></line><line x1="0" y1="165.28571428571433" x2="278.4375" y2="165.28571428571433" fill="rgb(0, 0, 0)" stroke="rgb(60, 60, 60)" stroke-width="1px" opacity="0.25"></line><line x1="0" y1="152.57142857142867" x2="278.4375" y2="152.57142857142867" fill="rgb(0, 0, 0)" stroke="rgb(60, 60, 60)" stroke-width="1px" opacity="0.25"></line><line x1="0" y1="139.85714285714278" x2="278.4375" y2="139.85714285714278" fill="rgb(0, 0, 0)" stroke="rgb(60, 60, 60)" stroke-width="1px" opacity="0.25"></line><line x1="0" y1="127.14285714285711" x2="278.4375" y2="127.14285714285711" fill="rgb(0, 0, 0)" stroke="rgb(60, 60, 60)" stroke-width="1px" opacity="0.25"></line><line x1="0" y1="114.42857142857146" x2="278.4375" y2="114.42857142857146" fill="rgb(0, 0, 0)" stroke="rgb(60, 60, 60)" stroke-width="1px" opacity="0.25"></line><line x1="0" y1="101.7142857142858" x2="278.4375" y2="101.7142857142858" fill="rgb(0, 0, 0)" stroke="rgb(60, 60, 60)" stroke-width="1px" opacity="0.25"></line><line x1="0" y1="89.00000000000011" x2="278.4375" y2="89.00000000000011" fill="rgb(0, 0, 0)" stroke="rgb(60, 60, 60)" stroke-width="1px" opacity="0.25"></line><line x1="0" y1="76.2857142857142" x2="278.4375" y2="76.2857142857142" fill="rgb(0, 0, 0)" stroke="rgb(60, 60, 60)" stroke-width="1px" opacity="0.25"></line><line x1="0" y1="63.57142857142856" x2="278.4375" y2="63.57142857142856" fill="rgb(0, 0, 0)" stroke="rgb(60, 60, 60)" stroke-width="1px" opacity="0.25"></line><line x1="0" y1="50.8571428571429" x2="278.4375" y2="50.8571428571429" fill="rgb(0, 0, 0)" stroke="rgb(60, 60, 60)" stroke-width="1px" opacity="0.25"></line><line x1="0" y1="38.142857142857224" x2="278.4375" y2="38.142857142857224" fill="rgb(0, 0, 0)" stroke="rgb(60, 60, 60)" stroke-width="1px" opacity="0.25"></line><line x1="0" y1="25.428571428571555" x2="278.4375" y2="25.428571428571555" fill="rgb(0, 0, 0)" stroke="rgb(60, 60, 60)" stroke-width="1px" opacity="0.25"></line><line x1="0" y1="12.71428571428567" x2="278.4375" y2="12.71428571428567" fill="rgb(0, 0, 0)" stroke="rgb(60, 60, 60)" stroke-width="1px" opacity="0.25"></line><line x1="0" y1="0" x2="278.4375" y2="0" fill="rgb(0, 0, 0)" stroke="rgb(60, 60, 60)" stroke-width="1px" opacity="0.25"></line></g></g></g><g><g><line x1="0" y1="1894.428571428571" x2="278.4375" y2="1894.428571428571" fill="rgb(0, 0, 0)" stroke="rgb(153, 153, 153)" stroke-width="1.5px"></line></g></g><g><g><line x1="23.203125" y1="0" x2="23.203125" y2="178" fill="rgb(0, 0, 0)" stroke="rgb(153, 153, 153)" stroke-width="1.5px"></line></g></g><g><g><g><g><g><path stroke="rgb(238, 51, 119)" stroke-width="2px" d="M36.640518750000005,181.94580322991243L36.873014062500005,177.6220853885703L37.01251125,173.49949958887663L37.198507500000005,169.56433228228892L37.38450374999999,165.80408890237476L37.477501874999994,162.20736136670567L38.3609840625,160.3212094908736L38.593479375,158.51366144936438L38.6399784375,156.77990476239617L38.87247375,155.11551194856372L39.104969062500004,150.7556448922783L39.1979671875,146.56350069796207L39.5699596875,140.54203444193212L39.61645875,134.74363672291653L39.9419521875,129.15614016562694L40.127948437499995,123.76824649299846L40.54644,118.56945028951944L40.9184325,113.54997065106386L41.662417500000004,108.70068978565362L41.84841375,104.0130977540953L42.127408125,99.47924264599156L42.313404375000005,98.73282794907959L42.406402500000006,92.4204188056973L43.010890312499996,86.30533671675701L44.359363125,80.37847427893614L44.4058621875,74.631276052751L44.4988603125,69.05569737119932L44.7778546875,63.644166782977784L45.196346250000005,62.28830232396306L45.289344375000006,60.97119201030358L45.3358434375,59.69119834269194L45.475340624999994,58.44677479400398L45.754335,58.463565899404884L46.1728265625,58.4799029921964L46.31232375,57.32101473072707L46.3588228125,56.19263764636445L46.8238134375,54.092945826615505L47.6142975,52.04711853728599L47.707295625,50.053110289476635L48.358282499999994,45.08379112762438L48.5907778125,40.237235883278125L48.683775937499995,35.508953192573195L48.823273125,30.894668142902347L49.195265625,26.39030938891109L49.47426,21.99199717796053L49.567258125,17.696032211002457L49.7067553125,13.498885271700146L49.985749687500004,9.397187562624737L50.218245,5.387721692960974L50.683235625,1.467413267033802L50.96223,-1.5638407227734534L51.706215,-0.3431474096538669L51.799213125,1.7041119320662326L51.8457121875,3.708688271140672L51.9387103125,5.671901701032039L52.0317084375,7.59501843384711L52.0782075,9.479253521615338L52.3107028125,11.95440244494629L52.357201875,14.38049804932366L52.7756934375,16.758983080230998L53.054687812500006,19.091244254204295L53.1476859375,21.378614952543792L53.38018125000001,23.007102189068362L53.6126765625,24.149054200096593L53.7056746875,25.269641500402592L54.2636634375,26.369457554595044L54.589156875,27.449074048762302L54.6356559375,28.509041880415467L54.7286540625,29.549892094904596L54.8216521875,30.572136771683084L54.86815125,31.576269863493657L54.961149375,32.56276799141345L55.519138125000005,32.81756087088688L55.6586353125,33.067955966650715L55.844631562500005,33.3140660424986L55.98412875,33.55600003972566L56.123625937499995,33.7938632377366L56.3096221875,34.02775740661938L56.356121249999994,34.25778095216768L56.542117499999996,34.484029053750625L56.774612812499996,34.706593795480586L56.821111875,34.92556429100997L57.2861025,35.14102680235934L57.47209875,35.35306485307212L57.6115959375,35.5617593360282L57.9835884375,35.76718861620823L58.1695846875,35.984553848768556L58.309081875000004,36.19857039609491L58.3555809375,36.40931494575546L58.402080000000005,36.61686186144916L58.727573437500006,36.821283270379645L59.006567812499995,38.077280946196396L59.099565937499996,39.314643594918806L59.146065,40.572661968124855L59.332061249999995,41.81228699167115L59.5180575,43.03391852174996L59.657554687499996,42.40592220318626L59.70405375,41.7869116109084L59.7505528125,41.176695558852884L59.9365490625,40.57508824647961L60.355040625,39.981909070455L60.541036875,39.396982444211304L60.5875359375,38.82013762493915L60.634035000000004,38.25120854771412L60.727033125,37.69003366638437L60.7735321875,37.13645580090374L61.052526562500006,36.59032199082262L61.2385228125,36.05148335463766L61.285021875000005,35.519794954720616L61.37802000000001,34.9951156675874L61.471018125,34.47730805925795L61.6105153125,33.96623826545977L61.657014374999996,33.46177587648278L61.7035134375,32.96379382645172L61.7500125,32.47216828683603L61.889509687499995,31.986778564001757L62.0755059375,31.507507000630053L62.30800125,31.034238880832817L62.3545003125,30.5668623388032L62.400999375,30.105268270852864L62.67999375,31.337749433183067L63.4704778125,32.731136119525225L63.6564740625,33.264541700254966L63.749472187500004,33.791506208078644L63.9819675,34.31214535137045L65.097945,34.826572083546424L65.190943125,35.334896684570886L65.4234384375,35.837226839588396L65.5164365625,36.33366771479536L65.7024328125,36.82432203066631L65.7954309375,37.30929013263791L66.1674234375,37.78867005935807L66.4464178125,39.37694823033354L66.6324140625,40.18052768205509L66.95790749999999,40.975003823718986L67.050905625,41.76053008271558L67.3299,42.53725645789703L67.422898125,43.305329614813644L67.5623953125,44.064892977792255L67.60889437499999,44.81608681897714L67.7018925,45.55904834446511L68.073885,46.293911777611086L68.1203840625,47.02080843965267L68.25988125,47.73986682771505L68.5853746875,48.45121269033018L68.724871875,49.15496910052922L69.1433634375,49.85125652662959L69.3293596875,50.92682559637135L69.468856875,51.99109844682556L69.5153559375,53.04425158269773L69.9338475,54.19988053325792L69.9803465625,55.34355898042361L70.16634281249999,56.47547077951006L70.21284187500001,57.59579603369384L70.2593409375,58.70471118923565L70.30584,59.80238912783639L70.49183625,60.88899925619322L70.5383353125,61.96470759287707L70.67783250000001,63.02967685261523L70.7243315625,64.084066528066L71.0963240625,65.03361776699138L71.2823203125,65.97382785909534L71.3753184375,66.90483350537839L71.46831656250001,67.82676875245637L71.514815625,68.73976505667848L71.9333071875,69.64395134639388L72.07280437499999,70.53945408243025L72.444796875,71.42639731684434L72.537795,72.30490274999927L72.72379124999999,73.17508978603243L72.77029031250001,74.03707558675582L73.002785625,74.89097512404551L73.3282790625,75.73690123077442L73.83976875,76.69995223770272L73.932766875,77.32860570279188L74.21176125,77.95146917274431L74.3512584375,78.56862196353518L74.4442565625,79.1801419490399L74.63025281249999,79.78610559365367L74.81624906249999,80.38658798404015L74.9092471875,80.98166286002103L75.1417425,81.5714026446405L75.1882415625,82.15587847342465L75.234740625,82.73516022286896L75.606733125,83.3093165381697L75.8857275,83.8784148602262L76.07172375,84.44252145193272L76.1182228125,85.00170142379226L76.16472187500001,85.55601875885608L76.5832134375,86.10553633702303L76.81570875,86.83773830712268L77.466695625,87.56365394776256L77.55969375,88.2833635112699L78.489675,88.28554078048364L78.53617406250001,88.28769959119683L78.72217031250001,88.2898401760837L78.768669375,88.29196276392399L78.8151684375,88.29406757968499L79.6521515625,88.29615484459848L79.884646875,88.29822477624303L80.2101403125,88.3002775886128L80.256639375,88.30231349219397L80.53563375,88.48202649989592L80.62863187500001,88.66027114776422L80.8611271875,88.45420823106569L80.9541253125,88.24981552628302L81.0471234375,88.04707290996807L81.2331196875,87.84596058064086L82.0701028125,87.24231506166481L82.1631009375,86.64348543045908L82.2560990625,86.04941458038356L82.6280915625,85.46004630410506L82.76758875,84.8753252759722L83.13958124999999,84.29519703479056L83.2790784375,83.7196079670074L83.418575625,83.14850529028152L84.02306343750001,82.58183703743846L84.348556875,82.0195520407952L84.62755125,82.60680922558659L84.8135475,83.1895581843934L84.906545625,83.76785034316507L84.9530446875,84.34173634867942L85.2320390625,85.03990319938595L85.69702968749999,85.19588451001277L85.929525,85.35069055931515L85.9760240625,85.50433450356913L86.11552125,85.65682930341617L86.39451562500001,85.80818772749164L86.48751375,85.95842235596854L86.6270109375,86.1075455840115L86.766508125,86.25556962517913L86.9060053125,86.40250651472655L86.95250437499999,86.54836811285529L87.78948749999999,86.69316610787838L88.4869734375,87.48690108965523L89.184459375,88.2748893783083L89.3239565625,89.11663744787215L89.370455625,89.95233418195058L89.46345375,90.78204418771226L89.5099528125,91.6058311559194L90.486433125,91.99240317157336L90.5329321875,92.37623475065429L90.7654275,92.75735474088403L90.9049246875,93.13579158652463L91.0909209375,93.51157333540449L91.1839190625,93.884727645805L91.3699153125,94.25528179319488L91.5559115625,94.62326267683437L91.7419078125,94.98869682623787L92.90438437499999,95.24431711481722L92.9508834375,95.49818020522981L93.462373125,95.75030402878944L93.834365625,96.00070627367396L93.88086468750001,96.24940438903694L94.02036187499999,96.49641558902596L94.11336,96.74175685673055L94.1598590625,96.98544494804283L94.578350625,97.22749639544784L94.90384406250001,97.46792751172731L95.60133,97.3900826797329L95.6478290625,97.31275556522202L95.78732625,97.23594105890626L96.1128196875,97.15963411850258L96.6708084375,97.08382976764094L96.90330375,97.00852309478927L96.9498028125,96.93370925219888L97.0428009375,96.85938345487551L97.368294375,96.78554097956771L97.6937878125,96.71217716376957L97.740286875,96.63928740475203L98.1587784375,97.25837917870759L98.3447746875,97.87349562380629L98.4377728125,98.4332975977499L98.6237690625,98.98952733744567L99.042260625,99.43879770724386L99.36775406250001,97.97539454188681L99.414253125,96.52124333735615L99.64674843750001,95.0762573516354L100.01874093750001,93.64035092358534L100.4372325,92.21343945617092L100.4837315625,90.79543939997929L100.6697278125,89.38626823705927L100.902223125,87.98584446504972L101.04172031249999,86.59408758160494L101.1347184375,85.21091806909975L101.274215625,83.83625737962495L101.4137128125,82.47002792024605L101.5997090625,81.11215303853211L101.9717015625,80.34558842357627L102.34369406249999,79.58368366601533L102.5296903125,78.8263967823785L102.6691875,78.07368629198388L102.7156865625,77.32551120943337L102.9946809375,76.58183103724132L103.04118,75.84260575859703L103.41317249999999,75.10779583025244L103.59916874999999,74.37736217553876L103.64566781250001,73.65126617750676L103.692166875,72.9294696721813L103.78516499999999,72.21193494194264L103.9246621875,71.49862470901918L104.25015562499999,70.7895021290941L104.29665468750001,70.79166643498976L104.6686471875,70.79381810684292L104.71514625,70.79595725389086L105.13363781250001,70.79808398411399L105.3196340625,70.93960320021952L105.41263218750001,71.26118839192189L105.45913125,71.58092255704328L105.55212937499999,71.8988214726797L105.7846246875,72.21490073715249L105.83112375,72.52917577253528L105.924121875,72.84166182713334L105.97062093749999,73.15237397792957L106.01712,73.46132713297753L106.2496153125,73.7685360337654L106.9006021875,74.14630341284865L107.31909375000001,74.1095582398867L107.598088125,74.07301883118518L107.9235815625,74.03668348135723L107.97008062500001,74.00055050380844L108.3885721875,73.96461823047785L108.71406562499999,73.92888501158592L109.1325571875,73.89334921538085L109.272054375,73.85800922789721L109.5975478125,73.82286345270886L109.6905459375,73.78791031069863L109.87654218750001,74.14419538084151L110.3415328125,74.35026754146953L110.388031875,74.55521913037593L110.52752906250001,74.75905916113612L110.760024375,74.96179655093086L110.946020625,75.16344012182148L111.5505084375,75.36399860202525L111.6435065625,75.5634806271499L111.690005625,75.76189474142649L111.96900000000001,75.95924939891101L112.0154990625,76.15555296467201L112.061998125,76.35081371595801L112.15499625,76.54503984334681L112.80598312500001,76.73823945187767L113.64296625,76.88506772310795L113.921960625,77.03112391575938L114.2474540625,76.92663958896892L114.52644843750001,76.82270190984609L114.7124446875,76.71930665121788L114.8054428125,76.61644962937976L114.8984409375,76.51412670353504L115.17743531250001,76.41233377524654L115.3169325,76.31106678789769L115.409930625,76.21032172615729L115.5494278125,76.11009461546001L115.688925,76.01038152148608L115.82842218750001,75.91117854965717L116.24691375,75.81248184463063L116.339911875,75.71428758981294L116.897900625,76.18162323717179L116.9443996875,76.64659133583856L116.99089875,77.10920960060294L117.641885625,77.5694955699934L117.827881875,78.02746660846617L118.013878125,77.29853259319633L118.19987437500001,76.57324700589349L118.2463734375,75.85158288380421L118.38587062500001,75.13351352915694L118.47886875,74.41901250591187L118.57186687500001,73.70805363656414L118.943859375,73.00061099898952L119.03685750000001,72.29665892333931L119.1763546875,71.59617198897571L119.31585187499999,70.89912502145822L119.4553490625,70.20549308956703L119.5483471875,69.51525150237423L119.687844375,68.82837580635719L119.8273415625,68.14484178254811L120.5713265625,67.46462544373273L120.89681999999999,67.52771476145216L121.12931531250001,67.59049927765726L121.175814375,67.65298116469575L121.2223134375,67.71516257432519L121.3153115625,67.77704563795629L121.361810625,67.83863246689418L121.45480875,67.89992515257075L121.547806875,67.96092576678346L121.733803125,68.02163636192195L121.919799375,68.08205897119505L122.15229468749999,68.14219560885496L122.2452928125,68.65143643699736L122.57078625,67.81830951956451L122.663784375,66.98909911392144L122.7102834375,66.1637780797769L122.94277875,65.34231952697158L123.128775,64.52469681259821L123.3612703125,63.71088353817001L123.45426843749999,62.90085354682168L123.50076750000001,62.09458092055358L123.96575812500001,61.29203997750969L124.0122571875,60.493205269293284L124.1982534375,59.698051578321845L124.33775062500001,58.90655391521475L124.4772478125,58.1186875162185L124.52374687499999,57.33442784066441L124.6632440625,56.553750568465546L124.70974312499999,55.77663159763914L124.80274125,55.00304704186943L125.0352365625,54.23297322810194L125.081735625,53.46638669416514L125.40722906250001,53.176479520456574L125.453728125,52.88787956076707L125.639724375,52.60057813696069L125.7327225,52.31456664752651L125.825720625,52.02983656673378L126.01171687499999,51.51196488481477L126.4767075,50.99640357275555L126.569705625,50.4831374604785L126.66270374999999,49.97215151039044L126.70920281250001,49.46343081593592L126.89519906250001,48.956960600174924L127.03469625,48.452726214376355L127.40668875,47.95071313663124L127.592685,47.450906970481896L128.243671875,46.95329344357147L128.429668125,46.45785840630811L128.52266625000001,45.96458783054888L128.7551615625,46.20070141989021L128.801660625,46.435787726521504L128.89465875000002,47.23739193651964L128.987656875,48.09279256689506L129.0341559375,48.944494381645676L129.1271540625,49.787411697572104L129.2201521875,50.626699032826004L129.26665125,51.46237936815853L129.5921446875,52.23004517712851L129.731641875,52.9007743419346L129.9641371875,53.56863838553075L130.5221259375,54.03114880648591L130.7081221875,54.49169148862122L130.847619375,54.95027873378593L131.31261,55.40692274153525L131.591604375,55.861635610188664L131.6381034375,56.31442933788083L131.73110156250002,56.765315823594854L131.87059875,57.21430686818314L132.0100959375,57.6614141753807L132.056595,58.10664935279861L132.10309406250002,58.55002391291152L132.5680846875,58.84007009985079L132.61458375,59.128908953392596L132.66108281249998,59.41654785260429L132.7540809375,59.70299411656584L133.31206968749999,59.98825500497621L133.35856875,60.27233771875711L133.4050678125,60.55524940064485L133.451566875,60.836997135776535L133.823559375,61.11758795227178L134.2420509375,61.39702882180323L135.032535,62.038086547524884L135.683521875,62.83481402712349L135.86951812499998,63.62829503999367L135.9160171875,64.41854899389192L136.0090153125,65.20559514225027L136.3810078125,65.98100621768863L136.4740059375,65.81459732010306L136.6600021875,65.64886007024204L137.1249928125,65.48379049246049L137.49698531250002,65.31938464241645L137.543484375,65.15563860675998L138.05497406249998,64.99254850283405L138.42696656249998,64.83011047836989L138.70596093749998,64.66832071119318L138.75246,64.50717540892882L138.845458125,64.34667080871189L138.93845625,64.18680317690148L139.1709515625,64.0275688087958L140.05443375,64.60273398644703L140.333428125,65.17562925208594L140.37992718750002,65.74626773165197L140.8449178125,66.16668958412085L140.93791593749998,66.58546136452445L141.07741312500002,67.00259255977772L141.1239121875,67.41809258424459L141.17041125,67.83197078043042L141.635401875,68.24423641966675L141.6819009375,68.65489870278614L141.821398125,69.06396676079342L142.1003925,69.47144965552565L142.33288781250002,69.877356380305L142.4258859375,70.2816958605872L142.5188840625,70.68447695459959L142.6118821875,71.08570845397185L143.03037375,71.48539908436261L143.21637,71.88355750607549L143.40236625,72.42430886413209L143.49536437499998,72.96299463826401L143.63486156250002,73.05619787324063L144.053353125,73.14904634891094L144.0998521875,73.24154204069991L144.2858484375,73.33368690940281L144.56484281250002,73.42548290131872L144.6578409375,73.51693194838234L145.2158296875,73.60803596830148L145.26232875,73.69879686468241L145.30882781250003,73.7892165271626L145.355326875,73.8792968315365L145.49482406250002,73.96903963988419L145.6808203125,74.05844680069538L145.9598146875,74.14752014899227L146.00631375,74.23626150645383L146.1458109375,74.32467268153471L146.5178034375,74.38734579894893L146.75029875,74.44978652893886L146.8897959375,74.51199613054823L147.029293125,74.57397585374868L147.0757921875,74.63572693951807L147.35478656249998,74.69725061992469L147.44778468750002,74.75854811820665L147.7267790625,74.81962064884792L147.86627625000003,74.88046941766088L148.0057734375,74.94109562185997L148.05227250000002,75.00150045013946L148.23826875,75.06168508275053L149.1217509375,75.07142639534074L149.3077471875,75.08113231690687L149.4007453125,75.09080303513501L149.633240625,75.10043873638801L149.8657359375,75.11003960571719L150.47022375,75.11960582687158L150.65622,75.12913758231264L150.7957171875,75.13863505322244L151.493203125,75.14809841951735L152.0046928125,75.33627857190159L152.051191875,75.52378521608003L152.1906890625,75.45830350084138L152.46968343749998,75.39305537791458L152.795176875,75.3280396320703L152.84167593749999,75.26325505648732L152.888175,75.19870045268098L152.9346740625,75.13437463043144L152.98117312500003,75.07027640771089L153.0276721875,75.00640461061565L153.39966468749998,74.94275807329362L154.469143125,74.87933563787811L154.5156421875,74.81613615441739L154.56214125,74.75315848080893L154.8876346875,75.15228114031763L155.39912437499999,75.55000751011491L155.4921225,75.94634470655006L156.05011125000001,76.38471120933055L156.09661031250002,76.82155148494301L156.2361075,77.25687327265845L156.32910562499998,77.690684259552L156.3756046875,78.12299208094166L156.46860281250002,78.55380432082306L157.35208500000002,79.00051710863237L157.58458031249998,79.44568936443L157.72407750000002,79.88932882184805L157.8635746875,80.33144316288409L158.28206625,80.77204001832828L158.3285653125,81.21112696819357L158.60755968750001,81.65136251769626L158.7005578125,82.09009411460583L158.747056875,82.52732923412385L159.02605125000002,82.96307530203637L159.1655484375,83.43342884578233L159.2120475,83.90218551862971L159.4445428125,84.36935320554596L159.5375409375,84.83493973971765L159.6305390625,85.29895290297381L159.77003624999998,85.7614004262087L160.18852781249998,86.01298997256534L160.421023125,86.26373322797234L160.51402124999998,86.51363433049494L160.5605203125,86.76269739128757L160.607019375,87.01092649481487L161.1185090625,87.02113323048756L161.58349968750002,87.03130589405502L161.95549218750003,87.0414446507754L162.74597624999998,87.05154966484248L163.07146968749998,87.06162109939143L163.11796875,87.07165911650854L163.2574659375,87.0816638772401L163.7224565625,87.09163554159981L164.00145093749998,87.32184952085673L164.1874471875,87.80234954098181L164.4199425,88.17215702014316L164.51294062500003,88.54074846066426L164.60593875,88.90812966717994L164.698936875,89.27430640747765L164.791935,89.35125485492233L164.97793125,89.4279517732984L165.02443031250002,89.50439835569293L165.1639275,89.58059578766465L165.442921875,89.65654524730745L165.53592,89.732247905306L165.6754171875,89.80770492499593L166.0474096875,89.88291746242021L166.1404078125,89.95788666638728L166.18690687499998,90.03261367852609L166.2334059375,90.1070996333433L166.60539843749999,90.18134565827872L167.302884375,90.25535287375989L167.3958825,90.32912239325594L167.48888062499998,90.40265532333308L167.58187875000002,90.67948961645871L167.674876875,90.9554386253484L168.0933684375,91.23050645232668L168.2793646875,91.50469717443998L168.88385250000002,91.77801484364977L169.06984875,92.21009638047191L169.9533309375,92.62398638577515L170.650816875,93.03656416845443L170.6973159375,93.44783575364556L170.9763103125,93.85780712969719L171.022809375,94.26648424845158L171.1158075,94.42773681074843L171.2553046875,94.58848174912785L171.4878,94.74872137675152L171.6272971875,94.9084579927676L171.67379624999998,95.06769388241325L171.76679437500002,95.22643131711983L172.510779375,95.384672554619L172.8362728125,95.54241983904524L173.0222690625,95.69967540103552L173.3477625,95.85644145783363L173.3942615625,96.01272021339092L173.719755,96.16851385846194L173.85925218749998,96.36807688327619L174.9752296875,96.56702215579658L175.114726875,96.76535244088029L175.4402203125,96.96307048693112L175.5797175,97.16017902602191L175.62621656250002,97.3566807740147L175.7192146875,97.5525784306823L175.76571375,97.74787467982578L176.0912071875,97.66946024952104L176.1842053125,97.59128589342824L176.695695,97.513350549659L176.92819031250002,97.43565316257165L177.346681875,97.3581926827229L177.43968,97.28096806682213L177.532678125,97.20397827768842L177.71867437499998,97.1272222842041L177.85817156250002,97.05069906127126L178.462659375,96.97440758976764L178.5091584375,96.89834685650334L178.5556575,96.82251585417691L178.834651875,97.14101458268789L179.206644375,97.55797918027247L179.48563875000002,96.95998555252864L179.5321378125,96.36378842337612L179.578636875,95.7693800064233L179.764633125,95.17675256014508L179.9971284375,94.5858983875597L180.322621875,93.99680983590943L180.694614375,93.4094792963424L180.880610625,92.82389920359846L181.066606875,92.24006203569893L181.159605,91.65796031363462L181.438599375,91.07758660106052L181.5780965625,90.49893350399404L181.67109468750002,89.92199367050931L181.7640928125,89.34675979044377L181.8570909375,88.77322459509678L181.99658812500002,88.2013808569407L182.2290834375,88.53821278812228L182.7870721875,88.87405392793661L183.0195675,89.20890847423557L183.2520628125,89.54278060122735L184.08904593749998,89.55757847712671L184.2750421875,89.57233305027482L184.414539375,89.58704450311618L184.6470346875,89.60171301707202L184.9260290625,89.6163387725508L184.97252812500003,89.63092194895215L185.158524375,89.64546272467518L185.2515225,89.6599612771275L185.53051687500002,89.67441778272632L185.5770159375,89.68883241691212L185.85601031250002,89.70320535415121L186.18150375,89.13090203606143L186.460498125,88.560250003816L186.5999953125,87.99124240532295L186.8789896875,87.42387242628516L187.39047937499998,86.85813328993493L187.4834775,86.29401825678238L187.8089709375,85.73152062435359L187.94846812499998,85.17063372694082L188.08796531250002,84.61135093534752L188.1809634375,84.05366565664129L188.41345875000002,83.4975713339042L189.15744375,82.95464334107665L189.250441875,82.41326033925927L189.2969409375,81.87341601284047L189.4829371875,81.33510408052307L189.52943625,80.79831829508743L189.71543250000002,80.26305244316428L189.808430625,79.72930034500405L190.08742500000002,79.70466642096937L190.1339240625,79.68010199073886L190.4594175,79.65560677290004L191.01740625000002,79.86534355626407L191.24990156249999,80.07449083983856L191.38939875000003,80.39026663350592L191.8078903125,80.03844180160694L191.854389375,79.6876022044106L192.13338374999998,79.3377438840506L192.17988281249998,78.98886290379073L192.8308696875,78.64095534788409L193.0168659375,78.2940173214312L193.1098640625,77.94804495024351L193.20286218750002,77.60303438070484L193.342359375,77.25898177963515L193.48185656249998,76.91588333415613L193.900348125,76.57373525155505L194.1793425,76.23253375915306L194.272340625,75.89227510417332L194.78383031250002,75.65776304768431L194.83032937500002,75.4238974628702L195.10932375,75.19067579681672L195.4348171875,74.9580955100048L196.5507946875,74.5330262917266L196.690291875,74.10912326682855L196.8297890625,73.68638185393404L196.9227871875,73.26479749558162L197.8992675,72.84436565806804L198.0387646875,72.37317337963059L198.2247609375,71.90326619660533L198.27126,71.43463909306668L198.31775906250002,70.96728707910347L198.59675343749998,70.50120519064666L198.736250625,69.78843167809558L198.82924875,69.07759073399997L199.2477403125,68.36867486357066L199.4337365625,67.66167661063452L199.57323375,66.95658855738705L199.80572906249998,66.25340332414818L200.17772156249998,65.55211356911374L200.3637178125,64.85271198811533L200.4567159375,64.15519131437853L200.5497140625,63.45954431828389L201.15420187499998,62.765763807129574L201.24720000000002,62.07384262489695L201.3866971875,61.383773652014554L201.9446859375,61.44884920246154L202.1306821875,61.51375095192936L202.36317749999998,61.57847956340634L202.45617562500001,61.643035696520144L202.92116625,61.37757400686449L203.014164375,61.11281806116719L203.1071625,60.84876518076011L203.71165031249998,60.58541270048186L203.9906446875,60.322757968591866L204.4556353125,60.060798346685985L204.688130625,59.79953120961148L205.0136240625,59.53895394538613L205.15312125,59.27906395511461L205.246119375,59.019858652906386L206.176100625,59.02573808879233L206.22259968749998,59.03160206997229L206.26909874999998,59.0374506543793L206.5015940625,59.04328389965781L206.59459218749998,59.049101863166065L206.8735865625,59.0549046019762L207.0595828125,59.060692172879364L207.4315753125,59.301004048562476L207.478074375,59.54068916608688L207.7105696875,59.779749854740416L207.75706875,60.018188432313046L207.943065,60.25600720516849L208.4545546875,60.45484017553364L208.7335490625,60.653157435277414L209.0125434375,60.85096088931751L209.15204062499998,61.04825243322662L209.6635303125,61.245033953288996L209.84952656250002,60.941070295503145L210.0355228125,60.63789069919031L210.1285209375,60.33549228573324L210.36101625,60.03387219055014L210.54701250000002,59.73302756300891L210.7795078125,59.43295556634163L211.012003125,59.13365337756259L211.197999375,58.83511818738202L211.2444984375,58.53734720012416L211.33749656249998,58.24033763364517L211.755988125,57.944086719251715L211.8024871875,57.64859170161841L212.313976875,57.35384983870778L212.40697500000002,57.05985840169018L212.4534740625,56.76661467486573L212.77896750000002,56.66160665557597L212.871965625,56.55686513088317L212.9184646875,56.45238913981174L212.96496374999998,56.348177725988265L213.01146281249999,56.0834721179679L213.1974590625,55.819435426447036L213.2904571875,55.55606525072711L214.3134365625,55.2933592015494L214.45293375,55.03131490102675L215.103920625,54.76992998257543L215.33641593750002,54.50920209084844L215.382915,54.249128881668994L215.475913125,53.98970802196532L215.847905625,53.8915906476543L216.08040093749997,53.79371886605524L216.405894375,53.69609180502522L217.707868125,53.182872903753974L218.0333615625,52.67093457581373L218.54485125,52.16027228955557L218.77734656250001,51.65088153461655L219.195838125,51.14275782179992L219.2423371875,50.63589668294591L219.7073278125,50.13029367081453L219.753826875,49.62594435895649L219.8003259375,49.12284434159803L219.8933240625,48.62098923351603L219.9863221875,48.16206768375857L220.07932031250002,47.704279378746925L220.125819375,47.24762035434198L220.1723184375,46.79208666480989L220.2653165625,46.337674382715484L221.1022996875,45.8843795988184L221.334795,45.43219842196395L221.56729031249998,44.98112697898335L221.70678750000002,44.53116141458414L221.8462846875,44.08229789125308L222.07878000000002,44.256512038051625L222.5902696875,44.519750143956834L223.00876125000002,44.880475650827954L223.1482584375,45.2403212700571L223.1947575,45.5992900376326L223.6132490625,45.31215534438908L223.8922434375,45.02571891013137L224.589729375,44.73997833373521L224.63622843750002,44.454931225034585L224.9152228125,44.170575204757L225.1012190625,43.88690790446357L225.24071625,43.60392696648671L225.51971062500002,43.32163004386933L225.61270875,43.0400148003026L226.0312003125,42.75907891006692L226.2171965625,42.47882005797253L226.4961909375,42.281173642163765L226.72868624999998,42.084002593769775L227.007680625,41.88730529819161L227.19367687500002,41.691080148106224L227.4261721875,41.49532554342579L227.75166562500002,41.300039891258535L227.937661875,41.10522160586648L228.35615343749998,41.01338262183803L228.49565062500002,40.92176299789922L229.053639375,40.98419865376987L229.37913281250002,41.046485473407685L229.51863,41.108623957317604L229.61162812499998,41.17061460377025L229.65812718749999,41.232457908817075L229.8441234375,41.04687657909767L229.8906225,40.86173548414377L229.9371215625,40.67703315166309L230.4951103125,40.405258294323495L230.7741046875,40.13412625920635L230.82060375,39.86363490355038L230.91360187499998,39.59378209406834L231.1460971875,39.32456570689552L231.19259625,39.055983627539256L231.3320934375,38.788033750823345L231.61108781250002,38.52071398084158L231.79708406249998,38.2540222309025L232.1225775,37.98795642348148L232.587568125,37.722514490168805L232.86656250000001,37.4576943716213L233.05255875,37.67629792576662L233.19205593750002,37.894390366062474L233.5640484375,37.87945073733913L233.6570465625,37.86454597215401L234.261534375,37.849675956045594L234.447530625,37.83484057505052L234.49402968750002,37.82003971570057L235.377511875,37.80527326502114L235.42401093750001,37.790541110528515L235.563508125,37.77584314022558L235.8890015625,37.76117924260041L235.9819996875,37.746549306623024L236.3539921875,37.73195322174451L236.4469903125,37.78688147588331L236.493489375,37.84168287436792L237.0979771875,37.89635782881441L237.1909753125,37.95090674906729L237.237474375,38.00533004320946L237.609466875,38.05962811757227L237.65596593749999,38.11380137674427L237.795463125,38.16785022358074L237.88846125,38.221775059212206L238.30695281250001,38.50168320471117L238.44645,38.78095031230497L238.539448125,39.05957844231132L238.63244625,39.33756964627002L239.190435,39.61492596698668L239.98091906250002,39.81300460692587L240.21341437499999,40.01063170335004L240.678405,40.20780869994674L240.957399375,40.190865483432276L241.28289281250002,40.17396078464304L241.5618871875,40.14052924944503L241.6548853125,40.107173576486915L241.84088156250002,40.07389352448223L242.16637500000002,40.04068885315959L242.21287406250002,40.00755932326153L242.259373125,39.97450469653668L242.72436375,39.94152473573433L243.46834875000002,39.88961800350507L243.70084406249998,39.81656451244564L243.933339375,39.344806097604696L244.1658346875,38.874109466581785L244.21233375,38.404471273570365L244.305331875,37.93588818673733L244.4448290625,37.468356888149366L244.9098196875,37.00187407370177L245.09581593750002,36.53643645304554L245.142315,36.07204074951487L245.421309375,35.608683700057775L245.607305625,35.146362055164985L245.6538046875,34.68507257879862L246.02579718750002,34.224812048323855L246.1187953125,33.76557725443815L246.165294375,33.30736500110427L246.2117934375,32.85017210548016L246.3047915625,32.393995397849714L246.44428875,31.93883172155854L246.4907878125,31.648628078804425L246.537286875,31.35906775234254L246.5837859375,31.070148749854226L246.7697821875,30.78186908719455L246.8627803125,30.49422678835265L247.0022775,30.119932480321463L247.0487765625,29.74646425520879L247.095275625,29.373819567532834L247.1417746875,29.001995882204653L247.2347728125,28.630990674472923L247.37427,28.260801429871552L247.4207690625,27.89142564416916L247.69976343750002,27.522860823313025L247.9787578125,27.014737357970198L248.07175593749997,26.507727540623378L248.211253125,26.001827967053053L248.769241875,25.49703524682315L249.141234375,24.993346003212224L249.1877334375,24.490756873143173L249.2342325,23.989264507114747L249.51322687500002,23.48886556913277L249.83872031250002,22.98955673664348L250.071215625,22.491334700463423L250.3967090625,21.99419616471412L250.5827053125,21.617433137985884L250.815200625,21.241488068127104L251.00119687499998,20.866358481883637L251.28019125,20.49204191590541L251.37318937499998,20.118535916697546L251.51268656250002,19.745838040568508" style="fill: none;" fill="none"></path></g></g></g></g><g opacity="0.2"><g><g><g><path stroke="rgb(238, 51, 119)" stroke-width="2px" d="M28.45668375,231.86719703674316L28.828676249999997,141.1449454171317L29.154169687499998,141.1449454171317L29.5261621875,141.1449454171317L29.665659375,141.1449454171317L29.7121584375,141.1449454171317L30.037651874999998,141.1449454171317L30.270147187499997,141.1449454171317L30.6421396875,141.1449454171317L31.246627500000002,141.1449454171317L31.758117187499998,-66.11829675946909L35.152548749999994,-20.546979086739643L35.431543125,4.023218972342408L35.6640384375,4.023218972342408L35.803535625,4.023218972342408L36.361524375,4.023218972342408L36.640518750000005,4.023218972342408L36.873014062500005,4.023218972342408L37.01251125,4.023218972342408L37.198507500000005,4.023218972342408L37.38450374999999,4.023218972342408L37.477501874999994,4.023218972342408L38.3609840625,75.5669029780797L38.593479375,75.5669029780797L38.6399784375,75.5669029780797L38.87247375,75.5669029780797L39.104969062500004,-61.768592289515844L42.127408125,-164.41594314575187L42.313404375000005,54.58518382481169L42.406402500000006,-286.86776896885453L45.475340624999994,-26.79950496128622L45.754335,59.62942477634978L46.1728265625,59.62942477634978L46.31232375,-25.297666822160927L51.241224374999994,-242.76688494001104L51.427220625,162.04384885515486L51.706215,185.2824478149414L53.38018125000001,183.77588081359863L53.6126765625,137.91379874093192L53.7056746875,137.91379874093192L54.2636634375,137.91379874093192L54.589156875,137.91379874093192L54.6356559375,137.91379874093192L54.7286540625,137.91379874093192L54.8216521875,137.91379874093192L54.86815125,137.91379874093192L54.961149375,137.91379874093192L55.519138125000005,60.25496837071013L55.6586353125,60.25496837071013L55.844631562500005,60.25496837071013L55.98412875,60.25496837071013L56.123625937499995,60.25496837071013L56.3096221875,60.25496837071013L56.356121249999994,60.25496837071013L56.542117499999996,60.25496837071013L56.774612812499996,60.25496837071013L56.821111875,60.25496837071013L57.2861025,60.25496837071013L57.47209875,60.25496837071013L57.6115959375,60.25496837071013L57.9835884375,60.25496837071013L58.1695846875,62.08637183053157L58.309081875000004,62.08637183053157L58.3555809375,62.08637183053157L58.402080000000005,62.08637183053157L58.727573437500006,62.08637183053157L59.006567812499995,194.40951565333776L63.4704778125,242.19563838413782L63.6564740625,113.90281895228796L63.749472187500004,113.90281895228796L63.9819675,113.90281895228796L65.097945,113.90281895228796L65.190943125,113.90281895228796L65.4234384375,113.90281895228796L65.5164365625,113.90281895228796L65.7024328125,113.90281895228796L65.7954309375,113.90281895228796L66.1674234375,113.90281895228796L66.4464178125,292.89231518336703L66.6324140625,169.1195605141776L66.95790749999999,169.1195605141776L67.050905625,169.1195605141776L67.3299,169.1195605141776L67.422898125,169.1195605141776L67.5623953125,169.1195605141776L67.60889437499999,169.1195605141776L67.7018925,169.1195605141776L68.073885,169.1195605141776L68.1203840625,169.1195605141776L68.25988125,169.1195605141776L68.5853746875,169.1195605141776L68.724871875,169.1195605141776L69.1433634375,169.1195605141776L69.3293596875,236.0532101222447L77.55969375,238.35871233258925L78.489675,88.7412706102644L78.53617406250001,88.7412706102644L78.72217031250001,88.7412706102644L78.768669375,88.7412706102644L78.8151684375,88.7412706102644L79.6521515625,88.7412706102644L79.884646875,88.7412706102644L80.2101403125,88.7412706102644L80.256639375,88.7412706102644L80.53563375,127.37037604195733L80.62863187500001,127.37037604195733L80.8611271875,43.54159300667903L80.9541253125,43.54159300667903L81.0471234375,43.54159300667903L81.2331196875,43.54159300667903L82.0701028125,-46.20881680079862L85.2320390625,246.9418397630964L85.69702968749999,121.48694392613005L85.929525,121.48694392613005L85.9760240625,121.48694392613005L86.11552125,121.48694392613005L86.39451562500001,121.48694392613005L86.48751375,121.48694392613005L86.6270109375,121.48694392613005L86.766508125,121.48694392613005L86.9060053125,121.48694392613005L86.95250437499999,121.48694392613005L87.78948749999999,121.48694392613005L88.4869734375,278.8171599251883L91.7419078125,186.92942564828053L92.90438437499999,159.74768311636788L92.9508834375,159.74768311636788L93.462373125,159.74768311636788L93.834365625,159.74768311636788L93.88086468750001,159.74768311636788L94.02036187499999,159.74768311636788L94.11336,159.74768311636788L94.1598590625,159.74768311636788L94.578350625,159.74768311636788L94.90384406250001,159.74768311636788L95.60133,77.16804722377235L95.6478290625,77.16804722377235L95.78732625,77.16804722377235L96.1128196875,77.16804722377235L96.6708084375,77.16804722377235L96.90330375,77.16804722377235L96.9498028125,77.16804722377235L97.0428009375,77.16804722377235L97.368294375,77.16804722377235L97.6937878125,77.16804722377235L97.740286875,77.16804722377235L98.1587784375,263.09114674159457L104.25015562499999,-134.99296242850158L104.29665468750001,71.42126710074291L104.6686471875,71.42126710074291L104.71514625,71.42126710074291L105.13363781250001,71.42126710074291L105.3196340625,112.50804710388185L105.41263218750001,165.94722148350309L105.45913125,165.94722148350309L105.55212937499999,165.94722148350309L105.7846246875,165.94722148350309L105.83112375,165.94722148350309L105.924121875,165.94722148350309L105.97062093749999,165.94722148350309L106.01712,165.94722148350309L106.2496153125,165.94722148350309L106.9006021875,187.76025036403112L107.31909375000001,63.03275053841731L107.598088125,63.03275053841731L107.9235815625,63.03275053841731L107.97008062500001,63.03275053841731L108.3885721875,63.03275053841731L108.71406562499999,63.03275053841731L109.1325571875,63.03275053841731L109.272054375,63.03275053841731L109.5975478125,63.03275053841731L109.6905459375,63.03275053841731L109.87654218750001,184.02020536150252L110.3415328125,138.04390307835172L110.388031875,138.04390307835172L110.52752906250001,138.04390307835172L110.760024375,138.04390307835172L110.946020625,138.04390307835172L111.5505084375,138.04390307835172L111.6435065625,138.04390307835172L111.690005625,138.04390307835172L111.96900000000001,138.04390307835172L112.0154990625,138.04390307835172L112.061998125,138.04390307835172L112.15499625,138.04390307835172L112.80598312500001,138.04390307835172L113.64296625,123.57637350899834L113.921960625,123.57637350899834L114.2474540625,43.55844715663368L114.52644843750001,43.55844715663368L114.7124446875,43.55844715663368L114.8054428125,43.55844715663368L114.8984409375,43.55844715663368L115.17743531250001,43.55844715663368L115.3169325,43.55844715663368L115.409930625,43.55844715663368L115.5494278125,43.55844715663368L115.688925,43.55844715663368L115.82842218750001,43.55844715663368L116.24691375,43.55844715663368L116.339911875,43.55844715663368L116.897900625,229.5346554347447L120.5713265625,-164.33640125819608L120.89681999999999,89.06853212629048L121.12931531250001,89.06853212629048L121.175814375,89.06853212629048L121.2223134375,89.06853212629048L121.3153115625,89.06853212629048L121.361810625,89.06853212629048L121.45480875,89.06853212629048L121.547806875,89.06853212629048L121.733803125,89.06853212629048L121.919799375,89.06853212629048L122.15229468749999,89.06853212629048L122.2452928125,246.18849563598633L128.52266625000001,-137.3539984566824L128.7551615625,134.0978494371687L128.801660625,134.0978494371687L128.89465875000002,346.6519609178815L132.10309406250002,229.38090678623743L132.5680846875,170.77199472699846L132.61458375,170.77199472699846L132.66108281249998,170.77199472699846L132.7540809375,170.77199472699846L133.31206968749999,170.77199472699846L133.35856875,170.77199472699846L133.4050678125,170.77199472699846L133.451566875,170.77199472699846L133.823559375,170.77199472699846L134.2420509375,170.77199472699846L135.032535,313.3417342049735L143.49536437499998,296.0182143620082L143.63486156250002,111.70365551539831L144.053353125,111.70365551539831L144.0998521875,111.70365551539831L144.2858484375,111.70365551539831L144.56484281250002,111.70365551539831L144.6578409375,111.70365551539831L145.2158296875,111.70365551539831L145.26232875,111.70365551539831L145.30882781250003,111.70365551539831L145.355326875,111.70365551539831L145.49482406250002,111.70365551539831L145.6808203125,111.70365551539831L145.9598146875,111.70365551539831L146.00631375,111.70365551539831L146.1458109375,111.70365551539831L146.5178034375,100.92075838361468L146.75029875,100.92075838361468L146.8897959375,100.92075838361468L147.029293125,100.92075838361468L147.0757921875,100.92075838361468L147.35478656249998,100.92075838361468L147.44778468750002,100.92075838361468L147.7267790625,100.92075838361468L147.86627625000003,100.92075838361468L148.0057734375,100.92075838361468L148.05227250000002,100.92075838361468L148.23826875,100.92075838361468L149.1217509375,79.2624481746129L149.3077471875,79.2624481746129L149.4007453125,79.2624481746129L149.633240625,79.2624481746129L149.8657359375,79.2624481746129L150.47022375,79.2624481746129L150.65622,79.2624481746129L150.7957171875,79.2624481746129L151.493203125,79.2624481746129L152.0046928125,157.25678525652205L152.051191875,157.25678525652205L152.1906890625,46.878350939069506L152.46968343749998,46.878350939069506L152.795176875,46.878350939069506L152.84167593749999,46.878350939069506L152.888175,46.878350939069506L152.9346740625,46.878350939069506L152.98117312500003,46.878350939069506L153.0276721875,46.878350939069506L153.39966468749998,46.878350939069506L154.469143125,46.878350939069506L154.5156421875,46.878350939069506L154.56214125,46.878350939069506L154.8876346875,252.0316717965262L160.607019375,200.96444620404924L161.1185090625,91.71220861162462L161.58349968750002,91.71220861162462L161.95549218750003,91.71220861162462L162.74597624999998,91.71220861162462L163.07146968749998,91.71220861162462L163.11796875,91.71220861162462L163.2574659375,91.71220861162462L163.7224565625,91.71220861162462L164.00145093749998,194.11947877066476L164.698936875,260.1236038208008L164.791935,125.29452678135463L164.97793125,125.29452678135463L165.02443031250002,125.29452678135463L165.1639275,125.29452678135463L165.442921875,125.29452678135463L165.53592,125.29452678135463L165.6754171875,125.29452678135463L166.0474096875,125.29452678135463L166.1404078125,125.29452678135463L166.18690687499998,125.29452678135463L166.2334059375,125.29452678135463L166.60539843749999,125.29452678135463L167.302884375,125.29452678135463L167.3958825,125.29452678135463L167.48888062499998,125.29452678135463L167.58187875000002,222.18442726135254L171.022809375,290.5326129368373L171.1158075,171.95251274108887L171.2553046875,171.95251274108887L171.4878,171.95251274108887L171.6272971875,171.95251274108887L171.67379624999998,171.95251274108887L171.76679437500002,171.95251274108887L172.510779375,171.95251274108887L172.8362728125,171.95251274108887L173.0222690625,171.95251274108887L173.3477625,171.95251274108887L173.3942615625,171.95251274108887L173.719755,171.95251274108887L173.85925218749998,193.54546764918737L175.76571375,193.54546764918737L176.0912071875,59.16539001464848L176.1842053125,59.16539001464848L176.695695,59.16539001464848L176.92819031250002,59.16539001464848L177.346681875,59.16539001464848L177.43968,59.16539001464848L177.532678125,59.16539001464848L177.71867437499998,59.16539001464848L177.85817156250002,59.16539001464848L178.462659375,59.16539001464848L178.5091584375,59.16539001464848L178.5556575,59.16539001464848L178.834651875,255.4651895250593L183.2520628125,258.9930419921875L184.08904593749998,97.07522337777276L184.2750421875,97.07522337777276L184.414539375,97.07522337777276L184.6470346875,97.07522337777276L184.9260290625,97.07522337777276L184.97252812500003,97.07522337777276L185.158524375,97.07522337777276L185.2515225,97.07522337777276L185.53051687500002,97.07522337777276L185.5770159375,97.07522337777276L185.85601031250002,97.07522337777276L186.18150375,-204.68717629568903L189.808430625,-198.6679409572055L190.08742500000002,66.84421348571779L190.1339240625,66.84421348571779L190.4594175,66.84421348571779L191.01740625000002,189.66088921683175L201.3866971875,-313.3646752493721L201.9446859375,96.81840978349962L202.1306821875,96.81840978349962L202.36317749999998,96.81840978349962L202.45617562500001,96.81840978349962L202.92116625,-83.38785907200399L205.246119375,-83.38785907200399L206.176100625,62.25855091639931L206.22259968749998,62.25855091639931L206.26909874999998,62.25855091639931L206.5015940625,62.25855091639931L206.59459218749998,62.25855091639931L206.8735865625,62.25855091639931L207.0595828125,62.25855091639931L207.4315753125,192.18998173304968L207.943065,192.18998173304968L208.4545546875,170.84911155700684L208.7335490625,170.84911155700684L209.0125434375,170.84911155700684L209.15204062499998,170.84911155700684L209.6635303125,170.84911155700684L209.84952656250002,-108.49605614798404L221.8462846875,-215.79709243774406L222.07878000000002,145.19479152134488L222.5902696875,197.14825439453125L228.49565062500002,-13.074043001447354L229.053639375,77.80607986450197L229.37913281250002,77.80607986450197L229.51863,77.80607986450197L229.61162812499998,77.80607986450197L229.65812718749999,77.80607986450197L229.8441234375,-68.78003992353159L232.86656250000001,-120.76260348728715L233.05255875,168.37167276654924L233.19205593750002,168.37167276654924L233.5640484375,28.935592651367227L233.6570465625,28.935592651367227L234.261534375,28.935592651367227L234.447530625,28.935592651367227L234.49402968750002,28.935592651367227L235.377511875,28.935592651367227L235.42401093750001,28.935592651367227L235.563508125,28.935592651367227L235.8890015625,28.935592651367227L235.9819996875,28.935592651367227L236.3539921875,28.935592651367227L236.4469903125,70.91127749851775L236.493489375,70.91127749851775L237.0979771875,70.91127749851775L237.1909753125,70.91127749851775L237.237474375,70.91127749851775L237.609466875,70.91127749851775L237.65596593749999,70.91127749851775L237.795463125,70.91127749851775L237.88846125,70.91127749851775L238.30695281250001,208.293333871024L239.190435,208.293333871024L239.98091906250002,160.35491752624512L240.21341437499999,160.35491752624512L240.678405,160.35491752624512L240.957399375,29.860145841326062L241.28289281250002,29.860145841326062L241.5618871875,19.730437959943547L241.6548853125,19.730437959943547L241.84088156250002,19.730437959943547L242.16637500000002,19.730437959943547L242.21287406250002,19.730437959943547L242.259373125,19.730437959943547L242.72436375,19.730437959943547L243.46834875000002,8.059606007167307L243.70084406249998,-5.009150368826685" style="fill: none;" fill="none"></path></g></g></g></g></g></g><g transform="translate(51, 178)" clip-path="url(#clip_1)"><clipPath id="clip_1"><rect width="278" height="22"></rect></clipPath><g><g><line x1="0" y1="0" x2="0" y2="5" style="visibility: inherit;" fill="rgb(0, 0, 0)" stroke="rgb(204, 204, 204)" stroke-width="1px"></line><line x1="23.203125" y1="0" x2="23.203125" y2="5" style="visibility: inherit;" fill="rgb(0, 0, 0)" stroke="rgb(204, 204, 204)" stroke-width="1px"></line><line x1="46.40625" y1="0" x2="46.40625" y2="5" style="visibility: inherit;" fill="rgb(0, 0, 0)" stroke="rgb(204, 204, 204)" stroke-width="1px"></line><line x1="69.609375" y1="0" x2="69.609375" y2="5" style="visibility: inherit;" fill="rgb(0, 0, 0)" stroke="rgb(204, 204, 204)" stroke-width="1px"></line><line x1="92.8125" y1="0" x2="92.8125" y2="5" style="visibility: inherit;" fill="rgb(0, 0, 0)" stroke="rgb(204, 204, 204)" stroke-width="1px"></line><line x1="116.015625" y1="0" x2="116.015625" y2="5" style="visibility: inherit;" fill="rgb(0, 0, 0)" stroke="rgb(204, 204, 204)" stroke-width="1px"></line><line x1="139.21875" y1="0" x2="139.21875" y2="5" style="visibility: inherit;" fill="rgb(0, 0, 0)" stroke="rgb(204, 204, 204)" stroke-width="1px"></line><line x1="162.421875" y1="0" x2="162.421875" y2="5" style="visibility: inherit;" fill="rgb(0, 0, 0)" stroke="rgb(204, 204, 204)" stroke-width="1px"></line><line x1="185.625" y1="0" x2="185.625" y2="5" style="visibility: inherit;" fill="rgb(0, 0, 0)" stroke="rgb(204, 204, 204)" stroke-width="1px"></line><line x1="208.828125" y1="0" x2="208.828125" y2="5" style="visibility: inherit;" fill="rgb(0, 0, 0)" stroke="rgb(204, 204, 204)" stroke-width="1px"></line><line x1="232.03125" y1="0" x2="232.03125" y2="5" style="visibility: inherit;" fill="rgb(0, 0, 0)" stroke="rgb(204, 204, 204)" stroke-width="1px"></line><line x1="255.234375" y1="0" x2="255.234375" y2="5" style="visibility: inherit;" fill="rgb(0, 0, 0)" stroke="rgb(204, 204, 204)" stroke-width="1px"></line><line x1="278.4375" y1="0" x2="278.4375" y2="5" style="visibility: inherit;" fill="rgb(0, 0, 0)" stroke="rgb(204, 204, 204)" stroke-width="1px"></line></g><g transform="translate(0, 8)"><text x="0" y="0" dx="0em" dy="0.95em" style="text-anchor: middle; visibility: hidden; font-family: Roboto, sans-serif; font-size: 12px; font-weight: 200;" fill="rgb(50, 49, 63)" stroke="none" stroke-width="1px">-500k</text><text x="23.203125" y="0" dx="0em" dy="0.95em" style="text-anchor: middle; visibility: inherit; font-family: Roboto, sans-serif; font-size: 12px; font-weight: 200;" fill="rgb(50, 49, 63)" stroke="none" stroke-width="1px">0</text><text x="46.40625" y="0" dx="0em" dy="0.95em" style="text-anchor: middle; visibility: hidden; font-family: Roboto, sans-serif; font-size: 12px; font-weight: 200;" fill="rgb(50, 49, 63)" stroke="none" stroke-width="1px">500k</text><text x="69.609375" y="0" dx="0em" dy="0.95em" style="text-anchor: middle; visibility: inherit; font-family: Roboto, sans-serif; font-size: 12px; font-weight: 200;" fill="rgb(50, 49, 63)" stroke="none" stroke-width="1px">1M</text><text x="92.8125" y="0" dx="0em" dy="0.95em" style="text-anchor: middle; visibility: hidden; font-family: Roboto, sans-serif; font-size: 12px; font-weight: 200;" fill="rgb(50, 49, 63)" stroke="none" stroke-width="1px">1.5M</text><text x="116.015625" y="0" dx="0em" dy="0.95em" style="text-anchor: middle; visibility: inherit; font-family: Roboto, sans-serif; font-size: 12px; font-weight: 200;" fill="rgb(50, 49, 63)" stroke="none" stroke-width="1px">2M</text><text x="139.21875" y="0" dx="0em" dy="0.95em" style="text-anchor: middle; visibility: hidden; font-family: Roboto, sans-serif; font-size: 12px; font-weight: 200;" fill="rgb(50, 49, 63)" stroke="none" stroke-width="1px">2.5M</text><text x="162.421875" y="0" dx="0em" dy="0.95em" style="text-anchor: middle; visibility: inherit; font-family: Roboto, sans-serif; font-size: 12px; font-weight: 200;" fill="rgb(50, 49, 63)" stroke="none" stroke-width="1px">3M</text><text x="185.625" y="0" dx="0em" dy="0.95em" style="text-anchor: middle; visibility: hidden; font-family: Roboto, sans-serif; font-size: 12px; font-weight: 200;" fill="rgb(50, 49, 63)" stroke="none" stroke-width="1px">3.5M</text><text x="208.828125" y="0" dx="0em" dy="0.95em" style="text-anchor: middle; visibility: inherit; font-family: Roboto, sans-serif; font-size: 12px; font-weight: 200;" fill="rgb(50, 49, 63)" stroke="none" stroke-width="1px">4M</text><text x="232.03125" y="0" dx="0em" dy="0.95em" style="text-anchor: middle; visibility: hidden; font-family: Roboto, sans-serif; font-size: 12px; font-weight: 200;" fill="rgb(50, 49, 63)" stroke="none" stroke-width="1px">4.5M</text><text x="255.234375" y="0" dx="0em" dy="0.95em" style="text-anchor: middle; visibility: inherit; font-family: Roboto, sans-serif; font-size: 12px; font-weight: 200;" fill="rgb(50, 49, 63)" stroke="none" stroke-width="1px">5M</text><text x="278.4375" y="0" dx="0em" dy="0.95em" style="text-anchor: middle; visibility: hidden; font-family: Roboto, sans-serif; font-size: 12px; font-weight: 200;" fill="rgb(50, 49, 63)" stroke="none" stroke-width="1px">5.5M</text></g><line x1="0" y1="0" x2="278.4375" y2="0" fill="rgb(0, 0, 0)" stroke="rgb(204, 204, 204)" stroke-width="1px"></line></g></g></g></g></svg>