<svg viewBox="0 0 330 200" xmlns="http://www.w3.org/2000/svg"><g><g><g><g><g><line x1="51.5625" y1="178" x2="46.5625" y2="178" style="visibility: inherit;" fill="rgb(0, 0, 0)" stroke="rgb(204, 204, 204)" stroke-width="1px"></line><line x1="51.5625" y1="163.16666666666697" x2="46.5625" y2="163.16666666666697" style="visibility: inherit;" fill="rgb(0, 0, 0)" stroke="rgb(204, 204, 204)" stroke-width="1px"></line><line x1="51.5625" y1="148.33333333333343" x2="46.5625" y2="148.33333333333343" style="visibility: inherit;" fill="rgb(0, 0, 0)" stroke="rgb(204, 204, 204)" stroke-width="1px"></line><line x1="51.5625" y1="133.5000000000004" x2="46.5625" y2="133.5000000000004" style="visibility: inherit;" fill="rgb(0, 0, 0)" stroke="rgb(204, 204, 204)" stroke-width="1px"></line><line x1="51.5625" y1="118.66666666666684" x2="46.5625" y2="118.66666666666684" style="visibility: inherit;" fill="rgb(0, 0, 0)" stroke="rgb(204, 204, 204)" stroke-width="1px"></line><line x1="51.5625" y1="103.83333333333329" x2="46.5625" y2="103.83333333333329" style="visibility: inherit;" fill="rgb(0, 0, 0)" stroke="rgb(204, 204, 204)" stroke-width="1px"></line><line x1="51.5625" y1="89.00000000000027" x2="46.5625" y2="89.00000000000027" style="visibility: inherit;" fill="rgb(0, 0, 0)" stroke="rgb(204, 204, 204)" stroke-width="1px"></line><line x1="51.5625" y1="74.16666666666671" x2="46.5625" y2="74.16666666666671" style="visibility: inherit;" fill="rgb(0, 0, 0)" stroke="rgb(204, 204, 204)" stroke-width="1px"></line><line x1="51.5625" y1="59.33333333333368" x2="46.5625" y2="59.33333333333368" style="visibility: inherit;" fill="rgb(0, 0, 0)" stroke="rgb(204, 204, 204)" stroke-width="1px"></line><line x1="51.5625" y1="44.500000000000135" x2="46.5625" y2="44.500000000000135" style="visibility: inherit;" fill="rgb(0, 0, 0)" stroke="rgb(204, 204, 204)" stroke-width="1px"></line><line x1="51.5625" y1="29.666666666666583" x2="46.5625" y2="29.666666666666583" style="visibility: inherit;" fill="rgb(0, 0, 0)" stroke="rgb(204, 204, 204)" stroke-width="1px"></line><line x1="51.5625" y1="14.833333333333558" x2="46.5625" y2="14.833333333333558" style="visibility: inherit;" fill="rgb(0, 0, 0)" stroke="rgb(204, 204, 204)" stroke-width="1px"></line><line x1="51.5625" y1="0" x2="46.5625" y2="0" style="visibility: inherit;" fill="rgb(0, 0, 0)" stroke="rgb(204, 204, 204)" stroke-width="1px"></line></g><g transform="translate(41.5625, 0)"><text x="0" y="178" dx="0em" dy="0.3em" style="text-anchor: end; visibility: hidden; font-family: Roboto, sans-serif; font-size: 12px; font-weight: 200;" fill="rgb(50, 49, 63)" stroke="none" stroke-width="1px">10.3</text><text x="0" y="163.16666666666697" dx="0em" dy="0.3em" style="text-anchor: end; visibility: inherit; font-family: Roboto, sans-serif; font-size: 12px; font-weight: 200;" fill="rgb(50, 49, 63)" stroke="none" stroke-width="1px">10.3</text><text x="0" y="148.33333333333343" dx="0em" dy="0.3em" style="text-anchor: end; visibility: hidden; font-family: Roboto, sans-serif; font-size: 12px; font-weight: 200;" fill="rgb(50, 49, 63)" stroke="none" stroke-width="1px">10.4</text><text x="0" y="133.5000000000004" dx="0em" dy="0.3em" style="text-anchor: end; visibility: inherit; font-family: Roboto, sans-serif; font-size: 12px; font-weight: 200;" fill="rgb(50, 49, 63)" stroke="none" stroke-width="1px">10.4</text><text x="0" y="118.66666666666684" dx="0em" dy="0.3em" style="text-anchor: end; visibility: hidden; font-family: Roboto, sans-serif; font-size: 12px; font-weight: 200;" fill="rgb(50, 49, 63)" stroke="none" stroke-width="1px">10.5</text><text x="0" y="103.83333333333329" dx="0em" dy="0.3em" style="text-anchor: end; visibility: inherit; font-family: Roboto, sans-serif; font-size: 12px; font-weight: 200;" fill="rgb(50, 49, 63)" stroke="none" stroke-width="1px">10.6</text><text x="0" y="89.00000000000027" dx="0em" dy="0.3em" style="text-anchor: end; visibility: hidden; font-family: Roboto, sans-serif; font-size: 12px; font-weight: 200;" fill="rgb(50, 49, 63)" stroke="none" stroke-width="1px">10.6</text><text x="0" y="74.16666666666671" dx="0em" dy="0.3em" style="text-anchor: end; visibility: inherit; font-family: Roboto, sans-serif; font-size: 12px; font-weight: 200;" fill="rgb(50, 49, 63)" stroke="none" stroke-width="1px">10.7</text><text x="0" y="59.33333333333368" dx="0em" dy="0.3em" style="text-anchor: end; visibility: hidden; font-family: Roboto, sans-serif; font-size: 12px; font-weight: 200;" fill="rgb(50, 49, 63)" stroke="none" stroke-width="1px">10.7</text><text x="0" y="44.500000000000135" dx="0em" dy="0.3em" style="text-anchor: end; visibility: inherit; font-family: Roboto, sans-serif; font-size: 12px; font-weight: 200;" fill="rgb(50, 49, 63)" stroke="none" stroke-width="1px">10.8</text><text x="0" y="29.666666666666583" dx="0em" dy="0.3em" style="text-anchor: end; visibility: hidden; font-family: Roboto, sans-serif; font-size: 12px; font-weight: 200;" fill="rgb(50, 49, 63)" stroke="none" stroke-width="1px">10.8</text><text x="0" y="14.833333333333558" dx="0em" dy="0.3em" style="text-anchor: end; visibility: inherit; font-family: Roboto, sans-serif; font-size: 12px; font-weight: 200;" fill="rgb(50, 49, 63)" stroke="none" stroke-width="1px">10.8</text><text x="0" y="0" dx="0em" dy="0.3em" style="text-anchor: end; visibility: hidden; font-family: Roboto, sans-serif; font-size: 12px; font-weight: 200;" fill="rgb(50, 49, 63)" stroke="none" stroke-width="1px">10.9</text></g><line x1="51.5625" y1="0" x2="51.5625" y2="178" fill="rgb(0, 0, 0)" stroke="rgb(204, 204, 204)" stroke-width="1px"></line></g></g><g transform="translate(51, 0)" clip-path="url(#clip_0)"><clipPath id="clip_0"><rect width="278" height="178"></rect></clipPath><g><g><g><line x1="0" y1="0" x2="0" y2="178" fill="rgb(0, 0, 0)" stroke="rgb(60, 60, 60)" stroke-width="1px" opacity="0.25"></line><line x1="23.203125" y1="0" x2="23.203125" y2="178" fill="rgb(0, 0, 0)" stroke="rgb(60, 60, 60)" stroke-width="1px" opacity="0.25"></line><line x1="46.40625" y1="0" x2="46.40625" y2="178" fill="rgb(0, 0, 0)" stroke="rgb(60, 60, 60)" stroke-width="1px" opacity="0.25"></line><line x1="69.609375" y1="0" x2="69.609375" y2="178" fill="rgb(0, 0, 0)" stroke="rgb(60, 60, 60)" stroke-width="1px" opacity="0.25"></line><line x1="92.8125" y1="0" x2="92.8125" y2="178" fill="rgb(0, 0, 0)" stroke="rgb(60, 60, 60)" stroke-width="1px" opacity="0.25"></line><line x1="116.015625" y1="0" x2="116.015625" y2="178" fill="rgb(0, 0, 0)" stroke="rgb(60, 60, 60)" stroke-width="1px" opacity="0.25"></line><line x1="139.21875" y1="0" x2="139.21875" y2="178" fill="rgb(0, 0, 0)" stroke="rgb(60, 60, 60)" stroke-width="1px" opacity="0.25"></line><line x1="162.421875" y1="0" x2="162.421875" y2="178" fill="rgb(0, 0, 0)" stroke="rgb(60, 60, 60)" stroke-width="1px" opacity="0.25"></line><line x1="185.625" y1="0" x2="185.625" y2="178" fill="rgb(0, 0, 0)" stroke="rgb(60, 60, 60)" stroke-width="1px" opacity="0.25"></line><line x1="208.828125" y1="0" x2="208.828125" y2="178" fill="rgb(0, 0, 0)" stroke="rgb(60, 60, 60)" stroke-width="1px" opacity="0.25"></line><line x1="232.03125" y1="0" x2="232.03125" y2="178" fill="rgb(0, 0, 0)" stroke="rgb(60, 60, 60)" stroke-width="1px" opacity="0.25"></line><line x1="255.234375" y1="0" x2="255.234375" y2="178" fill="rgb(0, 0, 0)" stroke="rgb(60, 60, 60)" stroke-width="1px" opacity="0.25"></line><line x1="278.4375" y1="0" x2="278.4375" y2="178" fill="rgb(0, 0, 0)" stroke="rgb(60, 60, 60)" stroke-width="1px" opacity="0.25"></line></g><g><line x1="0" y1="178" x2="278.4375" y2="178" fill="rgb(0, 0, 0)" stroke="rgb(60, 60, 60)" stroke-width="1px" opacity="0.25"></line><line x1="0" y1="163.16666666666697" x2="278.4375" y2="163.16666666666697" fill="rgb(0, 0, 0)" stroke="rgb(60, 60, 60)" stroke-width="1px" opacity="0.25"></line><line x1="0" y1="148.33333333333343" x2="278.4375" y2="148.33333333333343" fill="rgb(0, 0, 0)" stroke="rgb(60, 60, 60)" stroke-width="1px" opacity="0.25"></line><line x1="0" y1="133.5000000000004" x2="278.4375" y2="133.5000000000004" fill="rgb(0, 0, 0)" stroke="rgb(60, 60, 60)" stroke-width="1px" opacity="0.25"></line><line x1="0" y1="118.66666666666684" x2="278.4375" y2="118.66666666666684" fill="rgb(0, 0, 0)" stroke="rgb(60, 60, 60)" stroke-width="1px" opacity="0.25"></line><line x1="0" y1="103.83333333333329" x2="278.4375" y2="103.83333333333329" fill="rgb(0, 0, 0)" stroke="rgb(60, 60, 60)" stroke-width="1px" opacity="0.25"></line><line x1="0" y1="89.00000000000027" x2="278.4375" y2="89.00000000000027" fill="rgb(0, 0, 0)" stroke="rgb(60, 60, 60)" stroke-width="1px" opacity="0.25"></line><line x1="0" y1="74.16666666666671" x2="278.4375" y2="74.16666666666671" fill="rgb(0, 0, 0)" stroke="rgb(60, 60, 60)" stroke-width="1px" opacity="0.25"></line><line x1="0" y1="59.33333333333368" x2="278.4375" y2="59.33333333333368" fill="rgb(0, 0, 0)" stroke="rgb(60, 60, 60)" stroke-width="1px" opacity="0.25"></line><line x1="0" y1="44.500000000000135" x2="278.4375" y2="44.500000000000135" fill="rgb(0, 0, 0)" stroke="rgb(60, 60, 60)" stroke-width="1px" opacity="0.25"></line><line x1="0" y1="29.666666666666583" x2="278.4375" y2="29.666666666666583" fill="rgb(0, 0, 0)" stroke="rgb(60, 60, 60)" stroke-width="1px" opacity="0.25"></line><line x1="0" y1="14.833333333333558" x2="278.4375" y2="14.833333333333558" fill="rgb(0, 0, 0)" stroke="rgb(60, 60, 60)" stroke-width="1px" opacity="0.25"></line><line x1="0" y1="0" x2="278.4375" y2="0" fill="rgb(0, 0, 0)" stroke="rgb(60, 60, 60)" stroke-width="1px" opacity="0.25"></line></g></g></g><g><g><line x1="0" y1="3233.666666666669" x2="278.4375" y2="3233.666666666669" fill="rgb(0, 0, 0)" stroke="rgb(153, 153, 153)" stroke-width="1.5px"></line></g></g><g><g><line x1="23.203125" y1="0" x2="23.203125" y2="178" fill="rgb(0, 0, 0)" stroke="rgb(153, 153, 153)" stroke-width="1.5px"></line></g></g><g><g><g><g><g><path stroke="rgb(238, 51, 119)" stroke-width="2px" d="M35.6640384375,184.54777769753267L35.803535625,176.74136870612236L36.361524375,170.7965018377827L36.640518750000005,164.31228776091407L36.873014062500005,160.2601831751668L37.01251125,157.4444462714023L37.198507500000005,154.48857508904197L37.38450374999999,151.51625355831086L37.477501874999994,149.55525998087603L38.3609840625,149.13011132815373L38.593479375,148.76775350618632L38.6399784375,148.42018858261L38.87247375,147.4158594483191L39.104969062500004,145.86063914792825L39.1979671875,143.86621803593778L39.5699596875,140.4116120520401L39.61645875,137.13044009551066L39.9419521875,133.6560064227342L40.127948437499995,129.94226498909893L40.54644,125.88548796885198L40.9184325,122.50829353399776L41.662417500000004,118.5308190199071L41.84841375,115.5007765706062L42.127408125,113.56327906280043L42.313404375000005,111.88422833105382L42.406402500000006,109.52739830869396L43.010890312499996,107.59839785746739L44.359363125,107.40147571595297L44.4058621875,107.62416639416881L44.4988603125,107.55115788749919L44.7778546875,108.31988393480266L45.196346250000005,109.07625290638043L45.289344375000006,109.92155571306327L45.3358434375,110.48664093448889L45.475340624999994,110.38887327758891L45.754335,111.25480247523593L46.1728265625,112.63053465430173L46.31232375,113.39582997712262L46.3588228125,114.0476902805906L46.8238134375,112.42638446048305L47.6142975,109.80906200788876L47.707295625,107.1348414898665L48.358282499999994,103.94176987271545L48.5907778125,99.42879394605676L48.683775937499995,94.56647792962987L48.823273125,89.67379613174924L49.195265625,85.57168485968111L49.47426,81.74890703787204L49.567258125,78.20438759996404L49.7067553125,74.61281371212968L49.985749687500004,70.75070437411313L50.218245,67.68742067103365L50.683235625,64.69167942540582L50.96223,62.28727213112274L51.241224374999994,60.78811812343711L51.427220625,60.13189085424165L51.706215,59.78241220012773L51.799213125,59.526218418378306L51.8457121875,59.307690066953306L51.9387103125,58.82512810416776L52.0317084375,58.57772031261599L52.0782075,58.3353146209209L52.3107028125,58.101466600000826L52.357201875,58.00706405919686L52.7756934375,57.79035523893306L53.054687812500006,57.31289336894891L53.1476859375,56.89354109161711L53.38018125000001,56.19936456586976L53.6126765625,55.175945988723946L53.7056746875,54.19118770768924L54.2636634375,52.86762033144394L54.589156875,51.35668390552827L54.6356559375,49.95102233953137L54.7286540625,48.63630649861511L54.8216521875,47.40121680225933L54.86815125,46.24284775850967L54.961149375,45.433126923754L55.519138125000005,44.264972187092404L55.6586353125,43.05895540573314L55.844631562500005,41.98311805373747L55.98412875,40.77318526204673L56.123625937499995,39.6730034899108L56.3096221875,38.37247643919172L56.356121249999994,37.11612359925253L56.542117499999996,36.18991772443209L56.774612812499996,35.28598646751771L56.821111875,34.41539977887622L57.2861025,33.52816667312292L57.47209875,32.5934699991508L57.6115959375,31.4927004052163L57.9835884375,30.21101766218433L58.1695846875,29.416062184148352L58.309081875000004,28.75850536872715L58.3555809375,28.18005360810476L58.402080000000005,27.60355700690969L58.727573437500006,27.231753291475215L59.006567812499995,27.00055953380618L59.099565937499996,26.797695023961005L59.146065,26.696067864891315L59.332061249999995,26.499939034932858L59.5180575,26.361196429530516L59.657554687499996,26.273444729187755L59.70405375,26.198732895719896L59.7505528125,26.125082524256594L59.9365490625,26.093465480877146L60.355040625,26.42559385859466L60.541036875,26.662306443102572L60.5875359375,26.921924609825325L60.634035000000004,27.147461471095173L60.727033125,27.337771914000676L60.7735321875,27.535839694113417L61.052526562500006,27.567295884486143L61.2385228125,27.747605204511018L61.285021875000005,27.971082666312398L61.37802000000001,28.132547474318258L61.471018125,28.35588904880098L61.6105153125,28.560438082698436L61.657014374999996,28.773998183340716L61.7035134375,29.01648106145036L61.7500125,29.3612815665448L61.889509687499995,29.658133611350603L62.0755059375,30.036854953776423L62.30800125,30.376688250848755L62.3545003125,30.637291211908426L62.400999375,30.880191714007292L62.67999375,31.24127811871372L63.4704778125,31.433399625438238L63.6564740625,31.472796126464665L63.749472187500004,31.585857028673473L63.9819675,31.58480965154919L65.097945,31.46682539854096L65.190943125,31.40729366865845L65.4234384375,31.28330946174723L65.5164365625,31.214029423818896L65.7024328125,31.214905622230308L65.7954309375,31.297244104042473L66.1674234375,31.467675849887087L66.4464178125,31.70755491479762L66.6324140625,31.836650957941707L66.95790749999999,31.93227980232109L67.050905625,31.999675382670354L67.3299,32.06813633154454L67.422898125,32.06354710944897L67.5623953125,32.06736114579853L67.60889437499999,32.06408703234628L67.7018925,32.09277718028538L68.073885,32.05699319227078L68.1203840625,32.02159714415148L68.25988125,32.039527296569L68.5853746875,31.932387374887522L68.724871875,31.741460678024595L69.1433634375,31.55468190710524L69.3293596875,31.423127630165393L69.468856875,31.199758306520668L69.5153559375,31.01137742755681L69.9338475,31.069875177294293L69.9803465625,31.079808529677084L70.16634281249999,31.09213457873706L70.21284187500001,31.097917102530754L70.2593409375,31.114999402283278L70.30584,31.110735560414543L70.49183625,31.147203075203723L70.5383353125,31.180218867392927L70.67783250000001,31.213179948581278L70.7243315625,31.243095485697342L71.0963240625,31.239996755303373L71.2823203125,31.195060272140758L71.3753184375,31.1336923188035L71.46831656250001,31.122294254305203L71.514815625,31.11100670369329L71.9333071875,31.10547517157832L72.07280437499999,31.107855178802705L72.444796875,31.139174991672455L72.537795,31.122504149969043L72.72379124999999,30.974589169659627L72.77029031250001,30.81173082575072L73.002785625,30.666344760786863L73.3282790625,30.431663108207236L73.83976875,30.22994996585002L73.932766875,29.964949864455765L74.21176125,29.76416625538207L74.3512584375,29.464109972002873L74.4442565625,29.16868975303649L74.63025281249999,28.91985301233936L74.81624906249999,28.595252594293154L74.9092471875,28.242820419089124L75.1417425,27.876735251640795L75.1882415625,27.531428700274887L75.234740625,27.181768624620446L75.606733125,26.93562165698104L75.8857275,26.69280550071589L76.07172375,26.420925576580746L76.1182228125,26.211911522980316L76.16472187500001,26.02644103203625L76.5832134375,25.90597635673181L76.81570875,25.935652679464706L77.466695625,25.993789340495006L77.55969375,26.076399223061202L78.489675,26.14658732478997L78.53617406250001,26.220152795015483L78.72217031250001,26.195630756584286L78.768669375,26.17131488809905L78.8151684375,26.188192499026236L79.6521515625,26.005318454213917L79.884646875,25.790290728238258L80.2101403125,25.675590879913557L80.256639375,25.594113474946987L80.53563375,25.388232821180257L80.62863187500001,25.18851859243995L80.8611271875,25.02452810253253L80.9541253125,24.831637589899245L81.0471234375,24.642298088260993L81.2331196875,24.42836685797641L82.0701028125,24.13474958868017L82.1631009375,23.839497299215235L82.2560990625,23.554025274075983L82.6280915625,23.318430696807297L82.76758875,23.033751053200437L83.13958124999999,22.790142934631742L83.2790784375,22.643154158032743L83.418575625,22.5254872007997L84.02306343750001,22.39357743314116L84.348556875,22.405753794996176L84.62755125,22.54519635446913L84.8135475,22.719000457396813L84.906545625,22.883767546305105L84.9530446875,23.047279233366357L85.2320390625,23.38851386694664L85.69702968749999,23.639745548186703L85.929525,23.946900157181155L85.9760240625,24.29724029248744L86.11552125,24.70215162649547L86.39451562500001,25.21192342955404L86.48751375,25.788257881076806L86.6270109375,26.45542329869139L86.766508125,27.143284473629752L86.9060053125,27.85419227241754L86.95250437499999,28.5358306024526L87.78948749999999,29.248311285023014L88.4869734375,29.801104648794237L89.184459375,30.001376187313316L89.3239565625,30.241332442225083L89.370455625,30.50216188755766L89.46345375,30.731666565120225L89.5099528125,30.92298446181932L90.486433125,30.96204087671483L90.5329321875,31.046699610760147L90.7654275,31.125842898081316L90.9049246875,31.177511789488577L91.0909209375,31.239484645780777L91.1839190625,31.331372634866508L91.3699153125,31.432107606419603L91.5559115625,31.55460210682392L91.7419078125,31.70682578233452L92.90438437499999,31.793067086108877L92.9508834375,31.872455508981034L93.462373125,31.946049748290676L93.834365625,32.03369952832345L93.88086468750001,32.07919004067664L94.02036187499999,32.18082869278627L94.11336,32.290298333276795L94.1598590625,32.39802799248903L94.578350625,32.526146476292475L94.90384406250001,32.697770483666844L95.60133,33.09622099139516L95.6478290625,33.492021550644004L95.78732625,33.87114229937593L96.1128196875,34.19253933388806L96.6708084375,34.508652629342116L96.90330375,34.76712804675087L96.9498028125,35.02140485004768L97.0428009375,35.24582020723358L97.368294375,35.46049968179229L97.6937878125,35.54821260364852L97.740286875,35.62251215526873L98.1587784375,35.74251704517174L98.3447746875,35.79209086507442L98.4377728125,35.80637834932041L98.6237690625,35.83093733685786L99.042260625,35.95659133126882L99.36775406250001,36.088190537366444L99.414253125,36.22510720654761L99.64674843750001,36.35688144781536L100.01874093750001,36.45128878402627L100.4372325,36.610415147989315L100.4837315625,36.77462845312699L100.6697278125,36.90117591146594L100.902223125,36.96453245580258L101.04172031249999,36.99597925376532L101.1347184375,37.04462713876094L101.274215625,37.157240396260164L101.4137128125,37.29619989342096L101.5997090625,37.37866671348089L101.9717015625,37.3854103146792L102.34369406249999,37.4978028276801L102.5296903125,37.61562793212832L102.6691875,37.66656622646707L102.7156865625,37.71719759544471L102.9946809375,37.85253348957038L103.04118,38.02808882282817L103.41317249999999,38.09465143653661L103.59916874999999,38.153724830016955L103.64566781250001,38.251159791902886L103.692166875,38.33072698905003L103.78516499999999,38.39047779665471L103.9246621875,38.43432635463117L104.25015562499999,38.41174565652919L104.29665468750001,38.447515598400685L104.6686471875,38.362806493067794L104.71514625,38.31767460989603L105.13363781250001,38.26517216500543L105.3196340625,38.261988195091945L105.41263218750001,38.28798110605808L105.45913125,38.30546490879373L105.55212937499999,38.31174086467868L105.7846246875,38.19222486758406L105.83112375,38.07928197673322L105.924121875,37.992324349891575L105.97062093749999,37.85694654600681L106.01712,37.72233513951086L106.2496153125,37.62125672594504L106.9006021875,37.60735494355233L107.31909375000001,37.6057920394053L107.598088125,37.620416436708645L107.9235815625,37.750273419828666L107.97008062500001,37.889920864813895L108.3885721875,38.25337366334658L108.71406562499999,38.68788498182662L109.1325571875,39.158890410508235L109.272054375,39.67035065072942L109.5975478125,40.23201528028103L109.6905459375,40.84057870943758L109.87654218750001,41.48682097535302L110.3415328125,41.90896513132339L110.388031875,42.27584495907211L110.52752906250001,42.58662804803228L110.760024375,42.85114320617956L110.946020625,42.98245702688247L111.5505084375,43.18499370194402L111.6435065625,43.3360856138054L111.690005625,43.47255129247591L111.96900000000001,43.69751493258274L112.0154990625,43.90611484766737L112.061998125,44.10395632821892L112.15499625,44.33577430282258L112.80598312500001,44.51591388863388L113.64296625,44.98707329832275L113.921960625,45.45289656096312L114.2474540625,45.8017915730073L114.52644843750001,46.14170441746991L114.7124446875,46.44916775741342L114.8054428125,46.71582379404029L114.8984409375,46.98419786625371L115.17743531250001,47.29542946490909L115.3169325,47.58232605611209L115.409930625,47.86881440861523L115.5494278125,48.231720476911235L115.688925,48.56654721788857L115.82842218750001,48.9568612026849L116.24691375,49.232276141426915L116.339911875,49.51845961296897L116.897900625,49.75767263581233L116.9443996875,49.993655325475665L116.99089875,50.21923563021686L117.641885625,50.44215706038783L117.827881875,50.59044576945914L118.013878125,50.641897689282786L118.19987437500001,50.66100615640535L118.2463734375,50.668647193708146L118.38587062500001,50.673595103643414L118.47886875,50.63591322225586L118.57186687500001,50.61870761820055L118.943859375,50.590606866663194L119.03685750000001,50.56762436060765L119.1763546875,50.58778491512266L119.31585187499999,50.67571141228355L119.4553490625,50.80957461779724L119.5483471875,50.901611042967104L119.687844375,50.99909468205548L119.8273415625,51.051402511854945L120.5713265625,51.1012958832041L120.89681999999999,51.29582008354499L121.12931531250001,51.50238416364067L121.175814375,51.707952579213554L121.2223134375,51.87641824350948L121.3153115625,52.08374933075351L121.361810625,52.30065965046833L121.45480875,52.53268509073971L121.547806875,52.77800775347185L121.733803125,53.02848125301633L121.919799375,53.18685425942043L122.15229468749999,53.31118648421482L122.2452928125,53.50643465145649L122.57078625,53.72324774782412L122.663784375,53.97188169370944L122.7102834375,54.203590606569456L122.94277875,54.466428199071686L123.128775,54.70694886256478L123.3612703125,54.83974223834947L123.45426843749999,54.95824541239442L123.50076750000001,55.01140608239064L123.96575812500001,55.04869572559278L124.0122571875,55.08247310989081L124.1982534375,55.0484555953709L124.33775062500001,55.02433868952059L124.4772478125,54.984729706059085L124.52374687499999,55.0042693522248L124.6632440625,55.027609445797786L124.70974312499999,55.01729248735234L124.80274125,54.95253406691058L125.0352365625,54.89945497211567L125.081735625,54.819763027793734L125.40722906250001,54.8212220941031L125.453728125,54.82191108773153L125.639724375,54.897050394822585L125.7327225,54.94041079557861L125.825720625,54.95787321553404L126.01171687499999,55.04180439009689L126.4767075,55.20830794455686L126.569705625,55.41399407048708L126.66270374999999,55.58208389717599L126.70920281250001,55.751856497832456L126.89519906250001,55.94581226819662L127.03469625,56.06615352272174L127.40668875,56.26989380446654L127.592685,56.59075862685153L128.243671875,56.83158773395411L128.429668125,57.01884832545782L128.52266625000001,57.18168520160687L128.7551615625,57.37471216205147L128.801660625,57.57609996663163L128.89465875000002,57.7454390083905L128.987656875,57.95527938705156L129.0341559375,58.155961932888744L129.1271540625,58.33977019869824L129.2201521875,58.514028689853696L129.26665125,58.68753827138479L129.5921446875,58.85097742738767L129.731641875,59.00892974667246L129.9641371875,59.17864461199573L130.5221259375,59.23698486871089L130.7081221875,59.28441897138896L130.847619375,59.35593084957709L131.31261,59.40716831562224L131.591604375,59.43533275717798L131.6381034375,59.46819265770419L131.73110156250002,59.520316682400804L131.87059875,59.55683217412254L132.0100959375,59.58283761765513L132.056595,59.57952213823893L132.10309406250002,59.57880002199025L132.5680846875,59.57567368557573L132.61458375,59.567064320110426L132.66108281249998,59.54364027158603L132.7540809375,59.51011277171413L133.31206968749999,59.57643112496427L133.35856875,59.66736023439252L133.4050678125,59.762790236048424L133.451566875,59.81881323104768L133.823559375,59.94594536071455L134.2420509375,60.17700350571941L135.032535,60.611813261936284L135.683521875,60.98981589725344L135.86951812499998,61.360496035701935L135.9160171875,61.71345851364631L136.0090153125,62.06460618356399L136.3810078125,62.31695251306596L136.4740059375,62.516101405797805L136.6600021875,62.62215407379064L137.1249928125,62.669920210853256L137.49698531250002,62.66746552803108L137.543484375,62.65380888016859L138.05497406249998,62.586780640225136L138.42696656249998,62.51573828484237L138.70596093749998,62.42833538685391L138.75246,62.35155366450481L138.845458125,62.2656132599218L138.93845625,62.153474212902616L139.1709515625,62.03273565813609L140.05443375,61.961686020653474L140.333428125,61.88409909280293L140.37992718750002,61.81606535742594L140.8449178125,61.74591373601629L140.93791593749998,61.684128960816594L141.07741312500002,61.63892159291767L141.1239121875,61.5941354471715L141.17041125,61.550931770816824L141.635401875,61.538745875211575L141.6819009375,61.52318345717907L141.821398125,61.537565065966774L142.1003925,61.56061224443456L142.33288781250002,61.60694493300609L142.4258859375,61.658159779726105L142.5188840625,61.706043479453555L142.6118821875,61.78154808691437L143.03037375,61.84511078070884L143.21637,61.91740280366268L143.40236625,61.997123904844464L143.49536437499998,62.05782856320282L143.63486156250002,62.05611152094088L144.053353125,61.99117317221044L144.0998521875,61.92501816186138L144.2858484375,61.8645426343764L144.56484281250002,61.708789957162885L144.6578409375,61.518254932261186L145.2158296875,61.29985789430649L145.26232875,61.10043963152322L145.30882781250003,60.89070435336318L145.355326875,60.6556065861888L145.49482406250002,60.42424387728709L145.6808203125,60.18359739969414L145.9598146875,59.89161424271753L146.00631375,59.60258652905465L146.1458109375,59.28488953457878L146.5178034375,58.961226177575696L146.75029875,58.6064350288315L146.8897959375,58.2444364680797L147.029293125,57.82911678996916L147.0757921875,57.41366478035388L147.35478656249998,57.11042294927291L147.44778468750002,56.809850073778264L147.7267790625,56.499097852099624L147.86627625000003,56.167992082866796L148.0057734375,55.84686064783752L148.05227250000002,55.48685835215283L148.23826875,55.11565678403312L149.1217509375,54.884663224767664L149.3077471875,54.714898345452724L149.4007453125,54.570793398900335L149.633240625,54.447803954275756L149.8657359375,54.357089201570496L150.47022375,54.15022981354497L150.65622,54.00066708118486L150.7957171875,53.797974774505704L151.493203125,53.496556740502754L152.0046928125,53.24808151943179L152.051191875,52.98147102545487L152.1906890625,52.689283024051896L152.46968343749998,52.39902935076884L152.795176875,52.20542359689754L152.84167593749999,52.01250622846448L152.888175,51.85691119839769L152.9346740625,51.701867597215674L152.98117312500003,51.527805836030986L153.0276721875,51.401779600919184L153.39966468749998,51.32157333863921L154.469143125,51.46624541857918L154.5156421875,51.604936373907435L154.56214125,51.732091856606054L154.8876346875,51.90662996518635L155.39912437499999,51.99430625649029L155.4921225,52.04186462361147L156.05011125000001,52.113671735624685L156.09661031250002,52.16316871469168L156.2361075,52.19833937024939L156.32910562499998,52.245909379601784L156.3756046875,52.297316722110274L156.46860281250002,52.34315139570809L157.35208500000002,52.4123616059444L157.58458031249998,52.4458292949145L157.72407750000002,52.50346675104441L157.8635746875,52.57086666397527L158.28206625,52.68510105460239L158.3285653125,52.78733344932111L158.60755968750001,52.9113553015085L158.7005578125,53.045604061169236L158.747056875,53.143599715401244L159.02605125000002,53.26939317206489L159.1655484375,53.422853537611665L159.2120475,53.55314135674869L159.4445428125,53.689640831793L159.5375409375,53.796654363263684L159.6305390625,53.885630320957425L159.77003624999998,53.94110065841755L160.18852781249998,53.97264491646638L160.421023125,53.993371369555184L160.51402124999998,54.011937341651496L160.5605203125,54.00921774060374L160.607019375,54.006507245808955L161.1185090625,53.931312991426594L161.58349968750002,53.868402784168964L161.95549218750003,53.80750698251396L162.74597624999998,53.79966506944684L163.07146968749998,53.79091196644855L163.11796875,53.7821879066034L163.2574659375,53.75486009672866L163.7224565625,53.750695457610256L164.00145093749998,53.74661516771779L164.1874471875,53.761968274106415L164.4199425,53.73827452691961L164.51294062500003,53.73099877278206L164.60593875,53.70413310063926L164.698936875,53.67761751003096L164.791935,53.63748824992854L164.97793125,53.638181498387056L165.02443031250002,53.635161453824715L165.1639275,53.620492848250215L165.442921875,53.5868942127838L165.53592,53.553940239422126L165.6754171875,53.548606812972416L166.0474096875,53.52846811876111L166.1404078125,53.48416558739224L166.18690687499998,53.43799408451096L166.2334059375,53.366775154511686L166.60539843749999,53.280895935649596L167.302884375,53.25646668719003L167.3958825,53.23384269294667L167.48888062499998,53.22305725176044L167.58187875000002,53.246854615488246L167.674876875,53.256836834223996L168.0933684375,53.27459089807302L168.2793646875,53.29414191833904L168.88385250000002,53.33792620100553L169.06984875,53.38746267620685L169.9533309375,53.412667745850406L170.650816875,53.34895085930315L170.6973159375,53.291479971007L170.9763103125,53.23385295653863L171.022809375,53.16455294659023L171.1158075,53.06582226221556L171.2553046875,52.97345290327913L171.4878,52.89931204367999L171.6272971875,52.80670292374115L171.67379624999998,52.71739323212923L171.76679437500002,52.632258067693826L172.510779375,52.49418609693978L172.8362728125,52.40980175263904L173.0222690625,52.35302557508336L173.3477625,52.33615602025019L173.3942615625,52.31722507774523L173.719755,52.317963276717094L173.85925218749998,52.361842968135605L174.9752296875,52.42967797569836L175.114726875,52.49288332060248L175.4402203125,52.56819284798251L175.5797175,52.60913263579476L175.62621656250002,52.66927896437263L175.7192146875,52.7409545455787L175.76571375,52.7992080325987L176.0912071875,52.81799256139838L176.1842053125,52.846499585756476L176.695695,52.843217928664984L176.92819031250002,52.821462889990975L177.346681875,52.806311531577286L177.43968,52.7818685411166L177.532678125,52.76022068397813L177.71867437499998,52.731368208803076L177.85817156250002,52.71219650328426L178.462659375,52.68655880753864L178.5091584375,52.67599201870105L178.5556575,52.69396993786124L178.834651875,52.76372347096167L179.206644375,52.845114445505516L179.48563875000002,52.87210249256253L179.5321378125,52.89817246968136L179.578636875,52.94801726916042L179.764633125,53.03576215677172L179.9971284375,53.13195071171673L180.322621875,53.234566776228064L180.694614375,53.379980893322866L180.880610625,53.552308571179154L181.066606875,53.69761154962634L181.159605,53.820133635850794L181.438599375,53.913576758205885L181.5780965625,54.04764830285002L181.67109468750002,54.20317808019986L181.7640928125,54.395488983398884L181.8570909375,54.555799141268615L181.99658812500002,54.70579652099772L182.2290834375,54.92029101608827L182.7870721875,55.08291245861081L183.0195675,55.28029528641956L183.2520628125,55.46944468850038L184.08904593749998,55.70019919857904L184.2750421875,55.87983829507783L184.414539375,55.985783898073315L184.6470346875,56.05699738835221L184.9260290625,56.159528437027916L184.97252812500003,56.27319360704512L185.158524375,56.41994291449754L185.2515225,56.53640901504822L185.53051687500002,56.58781593447877L185.5770159375,56.64362621021077L185.85601031250002,56.686426192762966L186.18150375,56.67038938687857L186.460498125,56.65688036021985L186.5999953125,56.619367345998135L186.8789896875,56.55086025910592L187.39047937499998,56.432158313677164L187.4834775,56.311738240401894L187.8089709375,56.16998402686905L187.94846812499998,56.03699363743974L188.08796531250002,55.8969134598955L188.1809634375,55.753459808137755L188.41345875000002,55.61321940426048L189.15744375,55.53313422081146L189.250441875,55.452970726465445L189.2969409375,55.37931982738547L189.4829371875,55.30132157868343L189.52943625,55.24788612368373L189.71543250000002,55.18238295627628L189.808430625,55.122317076200765L190.08742500000002,55.17872574716037L190.1339240625,55.24479174062274L190.4594175,55.28533884477787L191.01740625000002,55.392935470478534L191.24990156249999,55.4609073676507L191.38939875000003,55.55674050194084L191.8078903125,55.62597708794392L191.854389375,55.68317486107613L192.13338374999998,55.751452481136766L192.17988281249998,55.830126901260364L192.8308696875,55.84487870072018L193.0168659375,55.82681677076227L193.1098640625,55.80190532100219L193.20286218750002,55.8042292871545L193.342359375,55.81569206245016L193.48185656249998,55.830535204081215L193.900348125,55.817749578975494L194.1793425,55.79853014556923L194.272340625,55.7539133568117L194.78383031250002,55.73645955324269L194.83032937500002,55.71607008225957L195.10932375,55.65937514253888L195.4348171875,55.62131312841455L196.5507946875,55.56234383221121L196.690291875,55.495415182472335L196.8297890625,55.42704013965308L196.9227871875,55.39904273034266L197.8992675,55.324707077011546L198.0387646875,55.1965273294511L198.2247609375,55.048973787703694L198.27126,54.90182219823231L198.31775906250002,54.76261522317218L198.59675343749998,54.589612230058755L198.736250625,54.39460373941165L198.82924875,54.17675269661473L199.2477403125,53.95487653849405L199.4337365625,53.739473490450045L199.57323375,53.567780808914065L199.80572906249998,53.43519472990602L200.17772156249998,53.28570832688648L200.3637178125,53.12847728706849L200.4567159375,53.000583329413935L200.5497140625,52.87376644020308L201.15420187499998,52.78179613470936L201.24720000000002,52.70915287690613L201.3866971875,52.65063757341501L201.9446859375,52.67780699235362L202.1306821875,52.689310042178626L202.36317749999998,52.66426969472678L202.45617562500001,52.631936378548176L202.92116625,52.52761165940257L203.014164375,52.42063513475627L203.1071625,52.33098866906L203.71165031249998,52.28880756825495L203.9906446875,52.226835136781865L204.4556353125,52.19664037659451L204.688130625,52.18898050833778L205.0136240625,52.18171157483333L205.15312125,52.17139670942343L205.246119375,52.147764256546694L206.176100625,52.18339492003931L206.22259968749998,52.2127366570088L206.26909874999998,52.241103995144144L206.5015940625,52.28136052948037L206.59459218749998,52.319866723572446L206.8735865625,52.29994695511323L207.0595828125,52.289276811587605L207.4315753125,52.35221032403351L207.478074375,52.4091500942215L207.7105696875,52.47767142448812L207.75706875,52.557102169053124L207.943065,52.634879666287965L208.4545546875,52.698965496911725L208.7335490625,52.76035043448529L209.0125434375,52.79655193317556L209.15204062499998,52.82050483072716L209.6635303125,52.89170066904438L209.84952656250002,52.85352211083355L210.0355228125,52.780362839447335L210.1285209375,52.70217478617399L210.36101625,52.60011707858656L210.54701250000002,52.486627842886975L210.7795078125,52.346726839422416L211.012003125,52.23082940811585L211.197999375,52.111337132241644L211.2444984375,51.99510711874873L211.33749656249998,51.88531187372247L211.755988125,51.768795143934135L211.8024871875,51.648904419897356L212.313976875,51.46197021590179L212.40697500000002,51.267814625156305L212.4534740625,51.06268540859571L212.77896750000002,50.95845500575091L212.871965625,50.85511207398147L212.9184646875,50.76194017743269L212.96496374999998,50.67362747311551L213.01146281249999,50.555322895835516L213.1974590625,50.456812060510096L213.2904571875,50.38626969154832L214.3134365625,50.40117685331119L214.45293375,50.406252384468274L215.103920625,50.48869329203312L215.33641593750002,50.569578283719814L215.382915,50.63478282593419L215.475913125,50.71923864109945L215.847905625,50.846932986268584L216.08040093749997,50.95639553092241L216.405894375,51.00810882359571L217.707868125,51.04859587647289L218.0333615625,51.100973320489274L218.54485125,51.145810329474806L218.77734656250001,51.17908241178036L219.195838125,51.23815167374585L219.2423371875,51.28789518686256L219.7073278125,51.332902547953644L219.753826875,51.37135783737838L219.8003259375,51.409598372843476L219.8933240625,51.45865338531019L219.9863221875,51.541257693947976L220.07932031250002,51.63039945068056L220.125819375,51.72055299017533L220.1723184375,51.8077062985889L220.2653165625,51.894733675582934L221.1022996875,51.99034558589928L221.334795,52.03948026765758L221.56729031249998,52.111063039671244L221.70678750000002,52.201107425646235L221.8462846875,52.267822637127836L222.07878000000002,52.40481347178716L222.5902696875,52.55980359764898L223.00876125000002,52.732843272110834L223.1482584375,52.91213400018233L223.1947575,53.080680814339786L223.6132490625,53.24377996580023L223.8922434375,53.38015945738162L224.589729375,53.38081998340714L224.63622843750002,53.379478648480266L224.9152228125,53.30092663780635L225.1012190625,53.193060606184964L225.24071625,53.08969034035762L225.51971062500002,52.92005197630722L225.61270875,52.728116036621685L226.0312003125,52.50282281391043L226.2171965625,52.254396647964526L226.4961909375,51.9822129638642L226.72868624999998,51.693589616333966L227.007680625,51.397619836527014L227.19367687500002,51.09539433128589L227.4261721875,50.84145283877229L227.75166562500002,50.6098226953249L227.937661875,50.37958723263153L228.35615343749998,50.16453428091925L228.49565062500002,49.946688172741L229.053639375,49.74205221292499L229.37913281250002,49.52833380832877L229.51863,49.312179761943504L229.61162812499998,49.102614875684324L229.65812718749999,48.8969862969117L229.8441234375,48.69595000130369L229.8906225,48.49539060262581L229.9371215625,48.30767602252248L230.4951103125,48.10325433066554L230.7741046875,47.93340494408428L230.82060375,47.78357357695924L230.91360187499998,47.63467294465974L231.1460971875,47.48810086198157L231.19259625,47.34891771021797L231.3320934375,47.21033255222416L231.61108781250002,47.11233508813141L231.79708406249998,47.02063317260766L232.1225775,46.99519518970188L232.587568125,47.00298172360542L232.86656250000001,46.99682091781135L233.05255875,47.021566438230614L233.19205593750002,47.02640820988158L233.5640484375,46.98787166198297L233.6570465625,46.928718308756444L234.261534375,46.84430432474033L234.447530625,46.75136146935083L234.49402968750002,46.64096916632307L235.377511875,46.50415756366341L235.42401093750001,46.367663716186755L235.563508125,46.240507853126616L235.8890015625,46.12869403589718L235.9819996875,46.022491344359615L236.3539921875,45.86391592635783L236.4469903125,45.743873382326846L236.493489375,45.62954987722417L237.0979771875,45.49814259263537L237.1909753125,45.36038439188447L237.237474375,45.22294344813629L237.609466875,45.10476123957105L237.65596593749999,44.98848408254629L237.795463125,44.86052268718758L237.88846125,44.752389117771365L238.30695281250001,44.6120541885111L238.44645,44.500628008355626L238.539448125,44.38297315865597L238.63244625,44.26807642416243L239.190435,44.15392790272019L239.98091906250002,44.0440045779048L240.21341437499999,43.964421300282076L240.678405,43.8610503283527L240.957399375,43.73036835418297L241.28289281250002,43.59335106580673L241.5618871875,43.41589457355424L241.6548853125,43.238507852962535L241.84088156250002,43.05604716408251L242.16637500000002,42.93038230902889L242.21287406250002,42.806378014584915L242.259373125,42.699421683184724L242.72436375,42.64178337915723L243.46834875000002,42.583564869428905L243.70084406249998,42.549935766169455L243.933339375,42.50457528853481L244.1658346875,42.526829004295465L244.21233375,42.556206889903905L244.305331875,42.6000520245586L244.4448290625,42.64752593391268L244.9098196875,42.576066160937884L245.09581593750002,42.4325340464506L245.142315,42.30646975866355L245.421309375,42.121608487195594L245.607305625,41.90658915917705L245.6538046875,41.692049878297865L246.02579718750002,41.49703893288527L246.1187953125,41.28551225084577L246.165294375,41.05909287479419L246.2117934375,40.83317720054197L246.3047915625,40.610286501152636L246.44428875,40.37879861184841L246.4907878125,40.1889367355758L246.537286875,39.9978087325281L246.5837859375,39.79773747307778L246.7697821875,39.60317791106173L246.8627803125,39.39034624556591L247.0022775,39.10824563400846L247.0487765625,38.829478272194095L247.095275625,38.57048768321088L247.1417746875,38.30777059550865L247.2347728125,38.08806174946471L247.37427,37.93433201237301L247.4207690625,37.78960610532293L247.69976343750002,37.7069062561403L247.9787578125,37.674869201966764L248.07175593749997,37.65689539395714L248.211253125,37.64380673122576L248.769241875,37.68203210153857L249.141234375,37.71121707777368L249.1877334375,37.74026715609081L249.2342325,37.741195423121106L249.51322687500002,37.72270005046336L249.83872031250002,37.715625745460244L250.071215625,37.67713402130907L250.3967090625,37.61350948580745L250.5827053125,37.578074977112145L250.815200625,37.540018361572756L251.00119687499998,37.486054983793586L251.28019125,37.393661662016896L251.37318937499998,37.284004198899886L251.51268656250002,37.19128274945872" style="fill: none;" fill="none"></path></g></g></g></g><g opacity="0.2"><g><g><g><path stroke="rgb(238, 51, 119)" stroke-width="2px" d="M28.2241884375,422.3006045023604L28.45668375,155.3145809173586L28.828676249999997,-50.4190966288248L29.154169687499998,89.98757235209165L29.5261621875,150.11218579610207L29.665659375,194.60528246561708L30.037651874999998,202.75828552246116L30.270147187499997,152.0946299235028L30.6421396875,118.57980918884296L31.246627500000002,225.18618774414085L31.758117187499998,175.34074656168642L31.9906125,142.32160758972188L32.1301096875,146.78302637736022L32.548601250000004,-73.61032613118485L36.873014062500005,-2.433310826619374L37.01251125,41.691702524821096L37.198507500000005,30.143618901570765L37.38450374999999,23.634966532389434L37.477501874999994,63.310726801554516L38.3609840625,130.0260403951011L38.593479375,132.13947804768898L38.6399784375,132.13947804768898L38.87247375,99.41457939147965L39.104969062500004,70.05052757263198L39.1979671875,44.75180180867525L39.5699596875,-34.547377904256095L41.84841375,-58.010779698689724L42.127408125,0.7903181711833802L42.313404375000005,12.574642817179473L42.406402500000006,-32.08537864685051L43.010890312499996,-10.118924458821523L44.359363125,95.19958686828629L44.4058621875,121.6314207712811L44.4988603125,102.8905760447186L44.7778546875,158.11127853393575L45.196346250000005,158.77388509114604L45.289344375000006,166.2515500386558L45.3358434375,148.670125325521L45.475340624999994,103.69153213500992L45.754335,171.37897046407085L46.1728265625,209.43075052897157L46.31232375,167.95474878946962L46.3588228125,161.1244125366213L46.8238134375,-6.165353139241445L51.241224374999994,-69.54358545939121L51.427220625,2.483048756917423L51.706215,28.762669881185023L51.799213125,36.55324808756524L51.8457121875,39.513475418090955L51.9387103125,14.67648061116547L52.0317084375,35.718341191609824L52.0782075,35.718341191609824L52.3107028125,36.07114664713555L52.357201875,49.02818870544447L52.7756934375,36.98272577921563L53.054687812500006,11.037520090739044L53.1476859375,15.871831893921017L53.38018125000001,-12.331668217976796L59.006567812499995,-1.7757968902586705L59.099565937499996,1.3700281778972474L59.146065,13.869017283121856L59.332061249999995,1.5740159352621497L59.5180575,8.60749117533377L59.657554687499996,14.96817461649588L59.70405375,16.508409500122188L59.7505528125,16.508409500122188L59.9365490625,21.93770917256686L60.355040625,70.36881637573256L60.541036875,58.18641853332533L60.5875359375,61.721263249715314L60.634035000000004,57.573606491089L60.727033125,53.17612838745131L60.7735321875,54.598384221395L61.052526562500006,31.892368316650508L61.2385228125,52.6945927937827L61.285021875000005,59.08300272623711L61.37802000000001,50.75006039937352L61.471018125,59.83274968465184L61.6105153125,57.564270019531385L61.657014374999996,59.23861058553074L61.7035134375,63.81461334228529L61.7500125,79.13774363199884L61.889509687499995,72.76630910237645L62.0755059375,85.35724830627457L62.30800125,80.3065001169842L62.3545003125,69.14828491210952L62.400999375,66.9819405873618L62.67999375,85.21578661600763L63.4704778125,60.31456820170098L63.6564740625,37.42861302693697L63.749472187500004,48.773840586344534L63.9819675,31.424695968628047L65.097945,13.33061408996594L65.190943125,22.205920537312952L65.4234384375,12.015303293864044L65.5164365625,20.38898658752453L65.7024328125,31.352550506591914L65.7954309375,44.30138778686537L66.1674234375,58.528189977010236L66.4464178125,69.99620628356948L66.6324140625,52.55086771647149L66.95790749999999,47.35667737325045L67.050905625,42.92666308085137L67.3299,43.22514724731459L67.422898125,31.31180953979504L67.5623953125,32.69530487060559L67.60889437499999,31.522304534912227L67.7018925,36.86418088277193L68.073885,26.076029459635528L68.1203840625,26.076029459635528L68.25988125,35.0662027994793L68.5853746875,13.757828394572051L68.724871875,-0.8045209248859755L69.1433634375,-0.43898391723620955L69.3293596875,8.780074437459415L69.468856875,-7.431152343749881L69.5153559375,-1.7240219116209752L69.9338475,41.283444086710745L69.9803465625,32.82233746846529L70.16634281249999,33.26454671223971L70.21284187500001,32.12181917826348L70.2593409375,34.15377489725762L70.30584,30.348738352457815L70.49183625,37.69427808125826L70.5383353125,37.13465563456231L70.67783250000001,37.1847330729168L70.7243315625,36.687353769938284L71.0963240625,30.673534393310664L71.2823203125,22.943784713745234L71.3753184375,19.815217971801875L71.46831656250001,29.010793685913203L71.514815625,29.010793685913203L71.9333071875,30.071756362915156L72.07280437499999,31.554557800293086L72.444796875,37.04298845926934L72.537795,27.966523488362757L72.72379124999999,2.8528296152751773L72.77029031250001,-0.28281021118152205L73.002785625,2.7903035481771887L73.3282790625,-14.755189895629805L76.16472187500001,-12.060344696044844L76.5832134375,1.0726757049561535L76.81570875,32.076834360758596L77.466695625,38.070566177368285L77.55969375,43.30238533020033L78.489675,40.837839762369924L78.53617406250001,41.67642466227227L78.72217031250001,21.024149576823028L78.768669375,21.024149576823028L78.8151684375,29.774120966593557L79.6521515625,-12.993143081664961L79.884646875,-20.23400115966789L80.2101403125,1.0353298187256847L80.256639375,8.026932398478301L80.53563375,-19.16257031758617L84.02306343750001,-7.586477279662967L84.348556875,25.182557423909632L84.62755125,54.45239575703953L84.8135475,62.62265714009617L84.906545625,60.83939107259129L84.9530446875,60.83939107259129L85.2320390625,102.51938056945816L85.69702968749999,82.09202957153336L85.929525,95.64575703938819L85.9760240625,106.34507052103696L86.11552125,119.83994992574074L86.39451562500001,145.3771800994875L86.48751375,162.0838057200116L86.6270109375,184.74002710978212L87.78948749999999,200.45161120096864L88.4869734375,163.052252451579L89.184459375,78.42873764038102L89.3239565625,88.44648869832373L89.370455625,93.9677384694419L89.46345375,86.74866549174006L89.5099528125,77.76386769612645L90.486433125,40.553784688313925L90.5329321875,51.90155855814629L90.7654275,50.681592941284315L90.9049246875,43.983381907145315L91.0909209375,46.645690917968885L91.1839190625,54.243315378825L91.3699153125,56.62553024292006L91.5559115625,62.28173446655287L91.7419078125,70.00525983174657L92.90438437499999,53.55524571736668L92.9508834375,51.96465047200535L93.462373125,50.626705805460745L93.834365625,54.34743118286146L93.88086468750001,43.69395128885918L94.02036187499999,58.2070719401043L94.11336,60.40312321980809L94.1598590625,60.143965403239065L94.578350625,65.61824989318862L94.90384406250001,77.154167811076L95.60133,136.6031602223716L95.6478290625,136.6031602223716L95.78732625,132.916951497396L96.1128196875,118.39506022135434L96.6708084375,117.5598704020184L96.90330375,102.8656787872316L96.9498028125,102.20080884297705L97.0428009375,94.70079294840512L97.368294375,92.49370765686051L97.6937878125,58.9149462382L97.740286875,55.47035408020033L98.1587784375,67.88757832845067L98.3447746875,49.10740725199395L98.4377728125,39.654371261596815L98.6237690625,42.46323458353692L99.042260625,69.98177719116225L99.36775406250001,71.81908162434911L99.414253125,73.49936358133967L99.64674843750001,72.32692909240738L100.01874093750001,62.28993924458836L100.4372325,80.27764193216974L100.4837315625,81.95679219563817L100.6697278125,71.8114426930747L100.902223125,54.48832702636732L101.04172031249999,45.716570536295706L101.1347184375,50.57040405273451L101.274215625,68.54877026875829L101.4137128125,76.13196563720719L101.5997090625,60.48545392354344L101.9717015625,39.27978070576998L102.34369406249999,69.15111414591486L102.5296903125,70.88345400492365L102.6691875,52.0854587554933L102.7156865625,52.0854587554933L102.9946809375,76.3551921844484L103.04118,88.09849294026709L103.41317249999999,57.12658754984551L103.59916874999999,55.0864270528159L103.64566781250001,66.24916903177912L103.692166875,61.25104459126805L103.78516499999999,55.64491780598973L103.9246621875,51.12776311238621L104.25015562499999,31.858983357747523L104.29665468750001,48.853059132894L104.6686471875,13.660785675048947L104.71514625,25.124841054280726L105.13363781250001,22.880692799886194L105.3196340625,37.326760609944785L105.41263218750001,45.94121170043959L105.45913125,43.46563212076836L105.55212937499999,40.168443044026816L105.7846246875,2.7501284281413882L105.83112375,4.507082621256623L105.924121875,12.083204905192169L105.97062093749999,-2.5739237467446863L106.01712,-2.5739237467446863L106.2496153125,7.292463302612424L106.9006021875,33.42637888590508L107.31909375000001,37.13465563456231L107.598088125,42.03913243611666L107.9235815625,77.07664680480973L107.97008062500001,80.27849070231134L108.3885721875,148.82856241861998L108.71406562499999,171.18347040812196L109.1325571875,183.10953966776552L109.87654218750001,240.78375371297227L110.3415328125,172.38702646891298L110.388031875,155.92569541931172L110.52752906250001,139.0733642578127L110.760024375,125.15551439921079L110.946020625,83.93131446838395L111.5505084375,106.48313713073746L111.6435065625,90.6600812276206L111.690005625,86.30900255839045L111.96900000000001,114.46751785278339L112.0154990625,109.67111778259293L112.061998125,106.61243311564145L112.15499625,117.73754628499367L112.80598312500001,101.67740058898941L113.64296625,194.81549453735374L113.921960625,193.90165201822938L114.2474540625,157.22516250610371L114.52644843750001,154.92754173278828L114.7124446875,145.05860837300636L114.8054428125,132.41844050089534L114.8984409375,133.4208380381268L115.17743531250001,147.74609756469746L115.3169325,140.3728313446047L115.409930625,140.72082710266133L115.5494278125,166.0959421793622L115.688925,157.536944071452L115.82842218750001,176.24864768981956L116.24691375,139.23774274190285L116.339911875,143.2354501088462L116.897900625,128.25380833943703L116.9443996875,127.58808962504087L116.99089875,124.54439989725766L117.641885625,124.04051335652687L117.827881875,99.64770825703955L118.013878125,67.69773674011245L118.19987437500001,57.00804265340184L118.2463734375,53.21177673339857L118.38587062500001,52.323680241902814L118.47886875,38.044254302978636L118.57186687500001,44.85789807637545L118.943859375,41.16320164998385L119.03685750000001,42.84206899007174L119.1763546875,57.37810643514012L119.31585187499999,80.34865570068375L119.4553490625,96.07353719075537L119.5483471875,82.0832589467368L119.687844375,84.09060033162451L119.8273415625,68.84216181437189L120.5713265625,68.10373179117853L120.89681999999999,117.71293195088722L121.12931531250001,122.16614596049008L121.175814375,122.16614596049008L121.2223134375,109.72826830546079L121.3153115625,123.41808191935239L121.361810625,127.07288614908872L121.45480875,132.6671301523846L121.547806875,137.6652545928957L121.733803125,139.86158879598L121.919799375,108.19425773620621L122.15229468749999,96.57629203796402L122.2452928125,121.57596778869647L122.57078625,129.45198885599788L122.663784375,140.97658983866393L122.7102834375,135.43610127766945L122.94277875,146.78246053059914L123.128775,139.34044392903664L123.3612703125,101.65250333150244L123.45426843749999,96.809986750285L123.50076750000001,73.8204816182456L123.96575812500001,68.2664127349855L124.0122571875,67.07700284322118L124.1982534375,42.946750640869276L124.33775062500001,46.42925453186049L124.4772478125,40.842932383219534L124.52374687499999,61.99315261840834L124.6632440625,63.39079411824559L124.70974312499999,51.31392669677748L124.80274125,31.665463765462366L125.0352365625,35.77832094828301L125.081735625,26.0607515970867L125.40722906250001,55.34869702657078L125.453728125,55.071432113647596L125.639724375,82.1568190256756L125.7327225,70.69870503743505L125.825720625,61.31526819864924L126.01171687499999,85.65120569864924L126.4767075,116.0371767679852L126.569705625,130.68779818216976L126.66270374999999,117.20338694254575L126.70920281250001,118.09742482503273L126.89519906250001,127.29469807942726L127.03469625,100.41103553771988L127.40668875,131.4751739501955L127.592685,175.23153813680034L128.243671875,146.03045018514015L128.429668125,126.49459075927753L128.52266625000001,117.69821993509946L128.7551615625,129.23215738932308L128.801660625,132.6722227732342L128.89465875000002,120.99682362874367L128.987656875,136.4659423828127L129.0341559375,133.3656679789227L129.1271540625,127.34024874369321L129.2201521875,124.0382499694826L129.26665125,124.0382499694826L129.5921446875,120.51047833760597L129.731641875,118.69665654500344L129.9641371875,123.41666730244972L130.5221259375,81.3552970886232L130.7081221875,77.29732704162613L130.847619375,86.55656051635758L131.31261,78.92781448364273L131.591604375,70.18293571472182L131.6381034375,72.0278790791831L131.73110156250002,79.47527122497574L131.87059875,73.55877749125177L132.0100959375,69.57068951924657L132.056595,58.30411465962742L132.10309406250002,59.30057080586766L132.5680846875,58.3691870371502L132.61458375,56.239339828491346L132.66108281249998,50.475341796875135L132.7540809375,46.509887695312635L133.31206968749999,85.33178520202652L133.35856875,95.03605715433774L133.4050678125,96.9404144287111L133.451566875,81.67839558919286L133.823559375,109.6289621988934L134.2420509375,150.6146577199302L135.032535,231.06335512797062L136.0090153125,200.5707219441734L136.3810078125,162.0045871734621L136.4740059375,141.30874188741066L136.6600021875,104.64554977417008L137.1249928125,81.6260547637941L137.49698531250002,61.69183921813978L137.543484375,57.21768887837742L138.05497406249998,35.865461349487425L138.42696656249998,34.15151151021334L138.70596093749998,27.479612350463984L138.75246,31.603786468505977L138.845458125,27.798749923706172L138.93845625,17.112450917561976L139.1709515625,13.465568542480588L140.05443375,33.339521408081175L140.333428125,30.582150141398245L140.37992718750002,34.32777277628594L140.8449178125,33.36017481486016L140.93791593749998,36.647178649902465L141.07741312500002,43.29276593526217L141.1239121875,43.392354965210096L141.17041125,43.96668942769381L141.635401875,56.571774800618634L141.6819009375,55.17073822021498L141.821398125,67.4165108998618L142.1003925,70.99549166361506L142.33288781250002,80.60158920288102L142.4258859375,82.68447113037125L142.5188840625,81.3929258982342L142.6118821875,92.8688640594484L143.03037375,88.05294227600113L143.21637,91.76687749226903L143.40236625,94.96079953511573L143.49536437499998,87.19398689270035L143.63486156250002,61.344126383463696L144.053353125,35.02602767944348L144.0998521875,34.4160448710125L144.2858484375,36.68197822570813L144.56484281250002,-3.2387936909992567L149.4007453125,-7.591569900512576L149.633240625,1.324194590250763L149.8657359375,15.122650782267364L150.47022375,-35.43434270222973L153.0276721875,-4.098031997680545L153.39966468749998,15.955294291178497L154.469143125,115.33892186482765L154.5156421875,112.9142684936525L154.56214125,108.01290384928403L154.8876346875,129.25677172342952L155.39912437499999,90.89858563741063L155.4921225,73.1711724599204L156.05011125000001,84.05608367919938L156.09661031250002,74.20865249633805L156.2361075,67.88248570760106L156.32910562499998,73.48578325907404L156.3756046875,75.27895164489762L156.46860281250002,72.85882504781102L157.35208500000002,83.42912546793634L157.58458031249998,67.46291033426935L157.72407750000002,78.39733314514176L157.8635746875,82.88761011759455L158.28206625,104.130912144979L158.3285653125,98.88409805297867L158.60755968750001,108.9010003407798L158.7005578125,113.7256927490236L158.747056875,97.49098332722998L159.02605125000002,110.26525688171402L159.1655484375,123.03811581929543L159.2120475,112.72753906250016L159.4445428125,115.75962893168149L159.5375409375,102.51683425903336L159.6305390625,94.44220097859717L159.77003624999998,79.25543975830094L160.18852781249998,68.38524055480971L160.421023125,63.47453943888362L160.51402124999998,62.514863332112775L160.5605203125,52.762211481730276L160.607019375,52.762211481730276L161.1185090625,19.371594111124786L161.58349968750002,24.920570373535273L161.95549218750003,25.753779729207483L162.74597624999998,50.18279902140313L163.07146968749998,49.74907747904473L163.11796875,49.74907747904473L163.2574659375,41.10661697387709L163.7224565625,51.82092539469414L164.00145093749998,51.85374450683607L164.1874471875,60.89258066813164L164.4199425,42.72126070658379L164.51294062500003,50.344065348307424L164.60593875,41.183572133382285L164.698936875,41.306077957153455L164.791935,34.892770767212035L164.97793125,53.962372461954885L165.02443031250002,52.22126197814955L165.1639275,46.7452799479168L165.442921875,37.82131067911797L165.53592,38.073395411173635L165.6754171875,51.04033978780125L166.0474096875,44.0467567443849L166.1404078125,32.60222307840996L166.18690687499998,31.650751749674612L166.2334059375,19.722702026367305L166.60539843749999,12.666027069091916L167.302884375,41.69028790791842L167.3958825,42.51048278808607L167.48888062499998,48.10529263814303L167.58187875000002,64.55134582519545L167.674876875,58.003932952880994L168.0933684375,61.726921717326L168.2793646875,62.61218897501643L168.88385250000002,74.22845713297541L169.06984875,77.04835446675634L169.9533309375,65.46490542093927L170.650816875,22.848439534505335L170.6973159375,25.75095049540213L170.9763103125,25.588552474975703L171.022809375,19.883402506510528L171.1158075,5.599449793497834L171.2553046875,8.517521540324005L171.4878,17.17808914184582L171.6272971875,8.139535903930783L171.67379624999998,9.595459620157989L171.76679437500002,11.481992721557736L172.510779375,-14.314395268758046L172.8362728125,11.535465240478635L173.0222690625,24.82239596049002L173.3477625,44.14747746785494L173.3942615625,43.11820220947279L173.719755,52.67705154418959L173.85925218749998,73.72909736633316L174.9752296875,85.49672953287775L175.114726875,83.33547782897965L175.4402203125,89.35580444335953L175.5797175,72.62852541605646L175.62621656250002,82.11126836140966L175.7192146875,87.86310068766291L175.76571375,81.37397003173844L176.0912071875,62.04181543986018L176.1842053125,66.85886891682958L176.695695,51.22848383585625L176.92819031250002,42.10590235392266L177.346681875,45.33575566609713L177.43968,40.71759732564303L177.532678125,42.06459554036471L177.71867437499998,38.461566289266074L177.85817156250002,43.220620473226035L178.462659375,39.98086484273287L178.5091584375,47.43391545613619L178.5556575,61.62167421976741L178.834651875,87.43786684672052L179.206644375,93.34502410888688L179.48563875000002,66.31480725606298L179.5321378125,65.89664649963393L179.578636875,77.82554499308283L179.764633125,96.87307866414405L179.9971284375,101.23575719197608L180.322621875,104.6039600372316L180.694614375,126.24646695454933L180.880610625,139.990884780884L181.066606875,126.65302785237648L181.159605,115.39833577473976L181.438599375,100.9234097798667L181.5780965625,121.56351915995297L181.67109468750002,132.60205777486183L181.7640928125,151.43004290262877L181.8570909375,135.52295875549336L181.99658812500002,130.53841463724788L182.2290834375,163.46588643391948L182.7870721875,137.45815467834493L183.0195675,155.36098035176616L183.2520628125,151.46852048238136L184.08904593749998,172.92854181925478L184.2750421875,147.22863070170104L184.414539375,109.91245142618833L184.6470346875,92.3397973378501L184.9260290625,108.44860585530616L184.97252812500003,114.29606628417987L185.158524375,131.40302848815938L185.2515225,116.10281499226906L185.53051687500002,82.90486844380712L185.5770159375,85.24209849039728L185.85601031250002,78.63894971211766L186.18150375,48.43716176350924L186.460498125,49.714843750000135L186.5999953125,37.323931376139456L186.8789896875,21.279912312825648L187.39047937499998,-4.739136377970272L188.41345875000002,-17.063561757405505L189.15744375,13.992088953654083L189.250441875,13.832803090413517L189.2969409375,17.105094909668086L189.4829371875,14.730518976847442L189.52943625,27.42783737182629L189.71543250000002,21.04819806416842L189.808430625,23.792837778727325L190.08742500000002,84.62758890787775L190.1339240625,89.76689211527524L190.4594175,76.49212710062677L191.01740625000002,111.71891721089699L191.24990156249999,91.07597859700536L191.38939875000003,105.81572087605811L191.8078903125,91.9694506327313L191.854389375,85.73438517252619L192.13338374999998,91.65625445048032L192.17988281249998,97.2394644419354L192.8308696875,63.61628405253108L193.0168659375,46.303070704142385L193.1098640625,42.65477371215834L193.20286218750002,57.03180821736668L193.342359375,61.87602233886732L193.48185656249998,63.685034434000805L193.900348125,49.046012878418104L194.1793425,45.61019134521498L194.272340625,32.08136113484713L194.78383031250002,46.46773211161309L194.83032937500002,44.87883440653496L195.10932375,25.498865763346465L195.4348171875,35.355350494384886L196.5507946875,24.136872609456507L196.690291875,19.797110875447718L196.8297890625,18.925423940022913L196.9227871875,40.43976656595879L197.8992675,15.571933110555118L198.0387646875,-13.410172144571835L200.5497140625,-15.821528116861874L201.15420187499998,2.920448303222755L201.24720000000002,13.292702356974395L201.3866971875,20.8733514149985L201.9446859375,67.44480323791518L202.1306821875,58.946633656819806L202.36317749999998,39.0316569010418L202.45617562500001,35.01414489746106L202.92116625,-4.364262898762929L203.014164375,-5.9658921559650775L203.1071625,3.362374623616642L203.71165031249998,29.22864468892428L203.9906446875,18.31883621215832L204.4556353125,35.662039438883596L204.688130625,47.99099159240736L205.0136240625,48.19469642639174L205.15312125,46.50903892517103L205.246119375,39.16406504313164L206.176100625,71.77494557698583L206.22259968749998,68.35949452718114L206.26909874999998,67.86437861124689L206.5015940625,74.47063954671239L206.59459218749998,73.56160672505712L206.8735865625,41.3023999532065L207.0595828125,46.39360618591322L207.4315753125,87.153528849284L207.478074375,83.92141215006525L207.7105696875,90.43006451924657L207.75706875,96.58732604980484L207.943065,95.78325780232764L208.4545546875,88.28012975056983L208.7335490625,86.86919085184748L209.0125434375,72.92814127604181L209.15204062499998,66.1512775421144L209.6635303125,92.54661432902036L209.84952656250002,31.571816126505666L210.0355228125,11.967206319173282L210.1285209375,9.04913457234711L210.36101625,-4.42452557881664L212.9184646875,-1.8683128356932408L212.96496374999998,0.7498601277670325L213.01146281249999,-16.374360402425037L213.1974590625,-5.317431767781484L213.2904571875,10.416503270467228L214.3134365625,58.854117711385236L214.45293375,53.28646850585951L215.103920625,97.30708312988297L215.33641593750002,96.53922907511411L215.382915,87.7207902272544L215.475913125,98.79101626078305L215.847905625,123.58472379048683L216.08040093749997,113.35591189066587L216.405894375,80.50963910420751L217.707868125,74.16310183207209L218.0333615625,81.02625719706232L218.54485125,76.78212356567398L218.77734656250001,70.21716944376642L219.195838125,85.0624421437583L219.2423371875,79.79327710469579L219.7073278125,77.14341672261571L219.753826875,73.44079844156916L219.8003259375,73.37204806009943L219.8933240625,79.652947107951L219.9863221875,99.05300331115738L220.07932031250002,102.94008763631201L220.125819375,103.65079116821305L220.1723184375,102.0466156005861L220.2653165625,102.09782473246274L221.1022996875,107.18591880798355L221.334795,80.42504501342789L221.56729031249998,93.49525642395035L221.70678750000002,104.29642232259131L221.8462846875,90.89405886332212L222.07878000000002,131.7762044270835L222.5902696875,142.42487462361672L223.00876125000002,153.1357879638674L223.1482584375,157.01721382141133L223.1947575,151.01782353719094L223.6132490625,148.08362515767433L223.8922434375,132.73984146118184L224.589729375,53.76545778910332L224.63622843750002,52.59783299764012L224.9152228125,7.4930559794109195L225.1012190625,-9.754236221313358L231.79708406249998,-7.657208124796444L232.1225775,31.817393620809046L232.587568125,51.65202013651543L232.86656250000001,43.315965652465955L233.05255875,61.816042582194164L233.19205593750002,49.92307535807305L233.5640484375,23.917324066162227L233.6570465625,11.491895039876407L234.261534375,-3.7590897878010145L242.259373125,-22.80520884195953L242.72436375,7.319341023763126L243.46834875000002,6.883073170979923L243.70084406249998,21.91507530212414L243.933339375,14.653846740722775L244.1658346875,56.198881785075L244.21233375,60.616447448730604L244.305331875,69.5709724426271L244.4448290625,71.86887613932306L244.9098196875,-1.4365717569985925L247.69976343750002,-13.980262756347578L247.9787578125,17.63982009887707L248.07175593749997,26.40987904866549L248.211253125,29.44875907897961L248.769241875,61.62987899780287L249.141234375,56.00621096293145L249.1877334375,55.96150906880711L249.2342325,38.323782602946096L249.51322687500002,26.10799980163586L249.83872031250002,33.27048810323092L250.071215625,13.476602554321408L250.3967090625,-2.412091573079335L250.5827053125,15.273448944091916L250.815200625,13.570816040039182L251.00119687499998,3.478373209635529L251.28019125,-20.86661783854156" style="fill: none;" fill="none"></path></g></g></g></g></g></g><g transform="translate(51, 178)" clip-path="url(#clip_1)"><clipPath id="clip_1"><rect width="278" height="22"></rect></clipPath><g><g><line x1="0" y1="0" x2="0" y2="5" style="visibility: inherit;" fill="rgb(0, 0, 0)" stroke="rgb(204, 204, 204)" stroke-width="1px"></line><line x1="23.203125" y1="0" x2="23.203125" y2="5" style="visibility: inherit;" fill="rgb(0, 0, 0)" stroke="rgb(204, 204, 204)" stroke-width="1px"></line><line x1="46.40625" y1="0" x2="46.40625" y2="5" style="visibility: inherit;" fill="rgb(0, 0, 0)" stroke="rgb(204, 204, 204)" stroke-width="1px"></line><line x1="69.609375" y1="0" x2="69.609375" y2="5" style="visibility: inherit;" fill="rgb(0, 0, 0)" stroke="rgb(204, 204, 204)" stroke-width="1px"></line><line x1="92.8125" y1="0" x2="92.8125" y2="5" style="visibility: inherit;" fill="rgb(0, 0, 0)" stroke="rgb(204, 204, 204)" stroke-width="1px"></line><line x1="116.015625" y1="0" x2="116.015625" y2="5" style="visibility: inherit;" fill="rgb(0, 0, 0)" stroke="rgb(204, 204, 204)" stroke-width="1px"></line><line x1="139.21875" y1="0" x2="139.21875" y2="5" style="visibility: inherit;" fill="rgb(0, 0, 0)" stroke="rgb(204, 204, 204)" stroke-width="1px"></line><line x1="162.421875" y1="0" x2="162.421875" y2="5" style="visibility: inherit;" fill="rgb(0, 0, 0)" stroke="rgb(204, 204, 204)" stroke-width="1px"></line><line x1="185.625" y1="0" x2="185.625" y2="5" style="visibility: inherit;" fill="rgb(0, 0, 0)" stroke="rgb(204, 204, 204)" stroke-width="1px"></line><line x1="208.828125" y1="0" x2="208.828125" y2="5" style="visibility: inherit;" fill="rgb(0, 0, 0)" stroke="rgb(204, 204, 204)" stroke-width="1px"></line><line x1="232.03125" y1="0" x2="232.03125" y2="5" style="visibility: inherit;" fill="rgb(0, 0, 0)" stroke="rgb(204, 204, 204)" stroke-width="1px"></line><line x1="255.234375" y1="0" x2="255.234375" y2="5" style="visibility: inherit;" fill="rgb(0, 0, 0)" stroke="rgb(204, 204, 204)" stroke-width="1px"></line><line x1="278.4375" y1="0" x2="278.4375" y2="5" style="visibility: inherit;" fill="rgb(0, 0, 0)" stroke="rgb(204, 204, 204)" stroke-width="1px"></line></g><g transform="translate(0, 8)"><text x="0" y="0" dx="0em" dy="0.95em" style="text-anchor: middle; visibility: hidden; font-family: Roboto, sans-serif; font-size: 12px; font-weight: 200;" fill="rgb(50, 49, 63)" stroke="none" stroke-width="1px">-500k</text><text x="23.203125" y="0" dx="0em" dy="0.95em" style="text-anchor: middle; visibility: inherit; font-family: Roboto, sans-serif; font-size: 12px; font-weight: 200;" fill="rgb(50, 49, 63)" stroke="none" stroke-width="1px">0</text><text x="46.40625" y="0" dx="0em" dy="0.95em" style="text-anchor: middle; visibility: hidden; font-family: Roboto, sans-serif; font-size: 12px; font-weight: 200;" fill="rgb(50, 49, 63)" stroke="none" stroke-width="1px">500k</text><text x="69.609375" y="0" dx="0em" dy="0.95em" style="text-anchor: middle; visibility: inherit; font-family: Roboto, sans-serif; font-size: 12px; font-weight: 200;" fill="rgb(50, 49, 63)" stroke="none" stroke-width="1px">1M</text><text x="92.8125" y="0" dx="0em" dy="0.95em" style="text-anchor: middle; visibility: hidden; font-family: Roboto, sans-serif; font-size: 12px; font-weight: 200;" fill="rgb(50, 49, 63)" stroke="none" stroke-width="1px">1.5M</text><text x="116.015625" y="0" dx="0em" dy="0.95em" style="text-anchor: middle; visibility: inherit; font-family: Roboto, sans-serif; font-size: 12px; font-weight: 200;" fill="rgb(50, 49, 63)" stroke="none" stroke-width="1px">2M</text><text x="139.21875" y="0" dx="0em" dy="0.95em" style="text-anchor: middle; visibility: hidden; font-family: Roboto, sans-serif; font-size: 12px; font-weight: 200;" fill="rgb(50, 49, 63)" stroke="none" stroke-width="1px">2.5M</text><text x="162.421875" y="0" dx="0em" dy="0.95em" style="text-anchor: middle; visibility: inherit; font-family: Roboto, sans-serif; font-size: 12px; font-weight: 200;" fill="rgb(50, 49, 63)" stroke="none" stroke-width="1px">3M</text><text x="185.625" y="0" dx="0em" dy="0.95em" style="text-anchor: middle; visibility: hidden; font-family: Roboto, sans-serif; font-size: 12px; font-weight: 200;" fill="rgb(50, 49, 63)" stroke="none" stroke-width="1px">3.5M</text><text x="208.828125" y="0" dx="0em" dy="0.95em" style="text-anchor: middle; visibility: inherit; font-family: Roboto, sans-serif; font-size: 12px; font-weight: 200;" fill="rgb(50, 49, 63)" stroke="none" stroke-width="1px">4M</text><text x="232.03125" y="0" dx="0em" dy="0.95em" style="text-anchor: middle; visibility: hidden; font-family: Roboto, sans-serif; font-size: 12px; font-weight: 200;" fill="rgb(50, 49, 63)" stroke="none" stroke-width="1px">4.5M</text><text x="255.234375" y="0" dx="0em" dy="0.95em" style="text-anchor: middle; visibility: inherit; font-family: Roboto, sans-serif; font-size: 12px; font-weight: 200;" fill="rgb(50, 49, 63)" stroke="none" stroke-width="1px">5M</text><text x="278.4375" y="0" dx="0em" dy="0.95em" style="text-anchor: middle; visibility: hidden; font-family: Roboto, sans-serif; font-size: 12px; font-weight: 200;" fill="rgb(50, 49, 63)" stroke="none" stroke-width="1px">5.5M</text></g><line x1="0" y1="0" x2="278.4375" y2="0" fill="rgb(0, 0, 0)" stroke="rgb(204, 204, 204)" stroke-width="1px"></line></g></g></g></g></svg>