<svg viewBox="0 0 330 200" xmlns="http://www.w3.org/2000/svg"><g><g><g><g><g><line x1="51.5625" y1="178" x2="46.5625" y2="178" style="visibility: inherit;" fill="rgb(0, 0, 0)" stroke="rgb(204, 204, 204)" stroke-width="1px"></line><line x1="51.5625" y1="164.30769230769232" x2="46.5625" y2="164.30769230769232" style="visibility: inherit;" fill="rgb(0, 0, 0)" stroke="rgb(204, 204, 204)" stroke-width="1px"></line><line x1="51.5625" y1="150.6153846153846" x2="46.5625" y2="150.6153846153846" style="visibility: inherit;" fill="rgb(0, 0, 0)" stroke="rgb(204, 204, 204)" stroke-width="1px"></line><line x1="51.5625" y1="136.9230769230769" x2="46.5625" y2="136.9230769230769" style="visibility: inherit;" fill="rgb(0, 0, 0)" stroke="rgb(204, 204, 204)" stroke-width="1px"></line><line x1="51.5625" y1="123.23076923076923" x2="46.5625" y2="123.23076923076923" style="visibility: inherit;" fill="rgb(0, 0, 0)" stroke="rgb(204, 204, 204)" stroke-width="1px"></line><line x1="51.5625" y1="109.53846153846155" x2="46.5625" y2="109.53846153846155" style="visibility: inherit;" fill="rgb(0, 0, 0)" stroke="rgb(204, 204, 204)" stroke-width="1px"></line><line x1="51.5625" y1="95.84615384615387" x2="46.5625" y2="95.84615384615387" style="visibility: inherit;" fill="rgb(0, 0, 0)" stroke="rgb(204, 204, 204)" stroke-width="1px"></line><line x1="51.5625" y1="82.15384615384616" x2="46.5625" y2="82.15384615384616" style="visibility: inherit;" fill="rgb(0, 0, 0)" stroke="rgb(204, 204, 204)" stroke-width="1px"></line><line x1="51.5625" y1="68.46153846153848" x2="46.5625" y2="68.46153846153848" style="visibility: inherit;" fill="rgb(0, 0, 0)" stroke="rgb(204, 204, 204)" stroke-width="1px"></line><line x1="51.5625" y1="54.769230769230774" x2="46.5625" y2="54.769230769230774" style="visibility: inherit;" fill="rgb(0, 0, 0)" stroke="rgb(204, 204, 204)" stroke-width="1px"></line><line x1="51.5625" y1="41.07692307692309" x2="46.5625" y2="41.07692307692309" style="visibility: inherit;" fill="rgb(0, 0, 0)" stroke="rgb(204, 204, 204)" stroke-width="1px"></line><line x1="51.5625" y1="27.384615384615387" x2="46.5625" y2="27.384615384615387" style="visibility: inherit;" fill="rgb(0, 0, 0)" stroke="rgb(204, 204, 204)" stroke-width="1px"></line><line x1="51.5625" y1="13.692307692307683" x2="46.5625" y2="13.692307692307683" style="visibility: inherit;" fill="rgb(0, 0, 0)" stroke="rgb(204, 204, 204)" stroke-width="1px"></line><line x1="51.5625" y1="0" x2="46.5625" y2="0" style="visibility: inherit;" fill="rgb(0, 0, 0)" stroke="rgb(204, 204, 204)" stroke-width="1px"></line></g><g transform="translate(41.5625, 0)"><text x="0" y="178" dx="0em" dy="0.3em" style="text-anchor: end; visibility: hidden; font-family: Roboto, sans-serif; font-size: 12px; font-weight: 200;" fill="rgb(50, 49, 63)" stroke="none" stroke-width="1px">-0.1</text><text x="0" y="164.30769230769232" dx="0em" dy="0.3em" style="text-anchor: end; visibility: inherit; font-family: Roboto, sans-serif; font-size: 12px; font-weight: 200;" fill="rgb(50, 49, 63)" stroke="none" stroke-width="1px">0</text><text x="0" y="150.6153846153846" dx="0em" dy="0.3em" style="text-anchor: end; visibility: hidden; font-family: Roboto, sans-serif; font-size: 12px; font-weight: 200;" fill="rgb(50, 49, 63)" stroke="none" stroke-width="1px">0.1</text><text x="0" y="136.9230769230769" dx="0em" dy="0.3em" style="text-anchor: end; visibility: inherit; font-family: Roboto, sans-serif; font-size: 12px; font-weight: 200;" fill="rgb(50, 49, 63)" stroke="none" stroke-width="1px">0.2</text><text x="0" y="123.23076923076923" dx="0em" dy="0.3em" style="text-anchor: end; visibility: hidden; font-family: Roboto, sans-serif; font-size: 12px; font-weight: 200;" fill="rgb(50, 49, 63)" stroke="none" stroke-width="1px">0.3</text><text x="0" y="109.53846153846155" dx="0em" dy="0.3em" style="text-anchor: end; visibility: inherit; font-family: Roboto, sans-serif; font-size: 12px; font-weight: 200;" fill="rgb(50, 49, 63)" stroke="none" stroke-width="1px">0.4</text><text x="0" y="95.84615384615387" dx="0em" dy="0.3em" style="text-anchor: end; visibility: hidden; font-family: Roboto, sans-serif; font-size: 12px; font-weight: 200;" fill="rgb(50, 49, 63)" stroke="none" stroke-width="1px">0.5</text><text x="0" y="82.15384615384616" dx="0em" dy="0.3em" style="text-anchor: end; visibility: inherit; font-family: Roboto, sans-serif; font-size: 12px; font-weight: 200;" fill="rgb(50, 49, 63)" stroke="none" stroke-width="1px">0.6</text><text x="0" y="68.46153846153848" dx="0em" dy="0.3em" style="text-anchor: end; visibility: hidden; font-family: Roboto, sans-serif; font-size: 12px; font-weight: 200;" fill="rgb(50, 49, 63)" stroke="none" stroke-width="1px">0.7</text><text x="0" y="54.769230769230774" dx="0em" dy="0.3em" style="text-anchor: end; visibility: inherit; font-family: Roboto, sans-serif; font-size: 12px; font-weight: 200;" fill="rgb(50, 49, 63)" stroke="none" stroke-width="1px">0.8</text><text x="0" y="41.07692307692309" dx="0em" dy="0.3em" style="text-anchor: end; visibility: hidden; font-family: Roboto, sans-serif; font-size: 12px; font-weight: 200;" fill="rgb(50, 49, 63)" stroke="none" stroke-width="1px">0.9</text><text x="0" y="27.384615384615387" dx="0em" dy="0.3em" style="text-anchor: end; visibility: inherit; font-family: Roboto, sans-serif; font-size: 12px; font-weight: 200;" fill="rgb(50, 49, 63)" stroke="none" stroke-width="1px">1</text><text x="0" y="13.692307692307683" dx="0em" dy="0.3em" style="text-anchor: end; visibility: hidden; font-family: Roboto, sans-serif; font-size: 12px; font-weight: 200;" fill="rgb(50, 49, 63)" stroke="none" stroke-width="1px">1.1</text><text x="0" y="0" dx="0em" dy="0.3em" style="text-anchor: end; visibility: hidden; font-family: Roboto, sans-serif; font-size: 12px; font-weight: 200;" fill="rgb(50, 49, 63)" stroke="none" stroke-width="1px">1.2</text></g><line x1="51.5625" y1="0" x2="51.5625" y2="178" fill="rgb(0, 0, 0)" stroke="rgb(204, 204, 204)" stroke-width="1px"></line></g></g><g transform="translate(51, 0)" clip-path="url(#clip_0)"><clipPath id="clip_0"><rect width="278" height="178"></rect></clipPath><g><g><g><line x1="0" y1="0" x2="0" y2="178" fill="rgb(0, 0, 0)" stroke="rgb(60, 60, 60)" stroke-width="1px" opacity="0.25"></line><line x1="23.203125" y1="0" x2="23.203125" y2="178" fill="rgb(0, 0, 0)" stroke="rgb(60, 60, 60)" stroke-width="1px" opacity="0.25"></line><line x1="46.40625" y1="0" x2="46.40625" y2="178" fill="rgb(0, 0, 0)" stroke="rgb(60, 60, 60)" stroke-width="1px" opacity="0.25"></line><line x1="69.609375" y1="0" x2="69.609375" y2="178" fill="rgb(0, 0, 0)" stroke="rgb(60, 60, 60)" stroke-width="1px" opacity="0.25"></line><line x1="92.8125" y1="0" x2="92.8125" y2="178" fill="rgb(0, 0, 0)" stroke="rgb(60, 60, 60)" stroke-width="1px" opacity="0.25"></line><line x1="116.015625" y1="0" x2="116.015625" y2="178" fill="rgb(0, 0, 0)" stroke="rgb(60, 60, 60)" stroke-width="1px" opacity="0.25"></line><line x1="139.21875" y1="0" x2="139.21875" y2="178" fill="rgb(0, 0, 0)" stroke="rgb(60, 60, 60)" stroke-width="1px" opacity="0.25"></line><line x1="162.421875" y1="0" x2="162.421875" y2="178" fill="rgb(0, 0, 0)" stroke="rgb(60, 60, 60)" stroke-width="1px" opacity="0.25"></line><line x1="185.625" y1="0" x2="185.625" y2="178" fill="rgb(0, 0, 0)" stroke="rgb(60, 60, 60)" stroke-width="1px" opacity="0.25"></line><line x1="208.828125" y1="0" x2="208.828125" y2="178" fill="rgb(0, 0, 0)" stroke="rgb(60, 60, 60)" stroke-width="1px" opacity="0.25"></line><line x1="232.03125" y1="0" x2="232.03125" y2="178" fill="rgb(0, 0, 0)" stroke="rgb(60, 60, 60)" stroke-width="1px" opacity="0.25"></line><line x1="255.234375" y1="0" x2="255.234375" y2="178" fill="rgb(0, 0, 0)" stroke="rgb(60, 60, 60)" stroke-width="1px" opacity="0.25"></line><line x1="278.4375" y1="0" x2="278.4375" y2="178" fill="rgb(0, 0, 0)" stroke="rgb(60, 60, 60)" stroke-width="1px" opacity="0.25"></line></g><g><line x1="0" y1="178" x2="278.4375" y2="178" fill="rgb(0, 0, 0)" stroke="rgb(60, 60, 60)" stroke-width="1px" opacity="0.25"></line><line x1="0" y1="164.30769230769232" x2="278.4375" y2="164.30769230769232" fill="rgb(0, 0, 0)" stroke="rgb(60, 60, 60)" stroke-width="1px" opacity="0.25"></line><line x1="0" y1="150.6153846153846" x2="278.4375" y2="150.6153846153846" fill="rgb(0, 0, 0)" stroke="rgb(60, 60, 60)" stroke-width="1px" opacity="0.25"></line><line x1="0" y1="136.9230769230769" x2="278.4375" y2="136.9230769230769" fill="rgb(0, 0, 0)" stroke="rgb(60, 60, 60)" stroke-width="1px" opacity="0.25"></line><line x1="0" y1="123.23076923076923" x2="278.4375" y2="123.23076923076923" fill="rgb(0, 0, 0)" stroke="rgb(60, 60, 60)" stroke-width="1px" opacity="0.25"></line><line x1="0" y1="109.53846153846155" x2="278.4375" y2="109.53846153846155" fill="rgb(0, 0, 0)" stroke="rgb(60, 60, 60)" stroke-width="1px" opacity="0.25"></line><line x1="0" y1="95.84615384615387" x2="278.4375" y2="95.84615384615387" fill="rgb(0, 0, 0)" stroke="rgb(60, 60, 60)" stroke-width="1px" opacity="0.25"></line><line x1="0" y1="82.15384615384616" x2="278.4375" y2="82.15384615384616" fill="rgb(0, 0, 0)" stroke="rgb(60, 60, 60)" stroke-width="1px" opacity="0.25"></line><line x1="0" y1="68.46153846153848" x2="278.4375" y2="68.46153846153848" fill="rgb(0, 0, 0)" stroke="rgb(60, 60, 60)" stroke-width="1px" opacity="0.25"></line><line x1="0" y1="54.769230769230774" x2="278.4375" y2="54.769230769230774" fill="rgb(0, 0, 0)" stroke="rgb(60, 60, 60)" stroke-width="1px" opacity="0.25"></line><line x1="0" y1="41.07692307692309" x2="278.4375" y2="41.07692307692309" fill="rgb(0, 0, 0)" stroke="rgb(60, 60, 60)" stroke-width="1px" opacity="0.25"></line><line x1="0" y1="27.384615384615387" x2="278.4375" y2="27.384615384615387" fill="rgb(0, 0, 0)" stroke="rgb(60, 60, 60)" stroke-width="1px" opacity="0.25"></line><line x1="0" y1="13.692307692307683" x2="278.4375" y2="13.692307692307683" fill="rgb(0, 0, 0)" stroke="rgb(60, 60, 60)" stroke-width="1px" opacity="0.25"></line><line x1="0" y1="0" x2="278.4375" y2="0" fill="rgb(0, 0, 0)" stroke="rgb(60, 60, 60)" stroke-width="1px" opacity="0.25"></line></g></g></g><g><g><line x1="0" y1="164.30769230769232" x2="278.4375" y2="164.30769230769232" fill="rgb(0, 0, 0)" stroke="rgb(153, 153, 153)" stroke-width="1.5px"></line></g></g><g><g><line x1="23.203125" y1="0" x2="23.203125" y2="178" fill="rgb(0, 0, 0)" stroke="rgb(153, 153, 153)" stroke-width="1.5px"></line></g></g><g><g><g><g><g><path stroke="rgb(238, 51, 119)" stroke-width="2px" d="M23.899775625,164.30769230769232L24.5042634375,164.30769230769232L24.783257812499997,164.30769230769232L25.5272428125,164.30769230769232L25.6202409375,164.30769230769232L25.759738125000002,164.30769230769232L25.852736250000003,164.30769230769232L26.131730625,164.30769230769232L26.271227812499998,164.30769230769232L26.968713750000003,164.30769230769232L27.1082109375,164.30769230769232L27.340706249999997,164.30769230769232L27.712698749999998,153.71180513374196L28.0381921875,144.62963582519396L28.410184687500003,136.75844080891812L28.549681875,129.87116240506313L28.5961809375,123.79416827021059L28.921674375,118.392411026143L29.154169687499998,113.5592743216324L29.5261621875,109.20946507569418L30.13065,105.27393650848148L30.6421396875,101.6961958001167L30.874635,98.42957496895859L31.0141321875,95.43518403030562L31.432623749999998,92.68035539700446L31.479122812499998,90.13744726453946L31.9441134375,87.78291291054391L32.17660875,85.59656943012902L32.269606875,83.56101776735531L32.3161059375,81.66117874040557L32.5021021875,79.88391886834165L32.8740946875,78.21774635533988L33.2460871875,76.65256235052432L33.29258625,75.17945610311949L33.5250815625,73.79053523386594L34.03657125,72.47878429453155L34.315565625,71.23794626371857L34.5480609375,70.0624227538591L34.687558125,68.94718957098057L35.245546874999995,67.88772494050625L35.52454125,66.87994823659744L35.7570365625,65.92016746444614L36.08253,65.00503407062074L36.26852625,64.13150391563612L36.361524375,63.296803450183724L37.2450065625,62.49840030315292L37.477501874999994,61.73397762437871L37.5240009375,61.00141163454131L37.75649625,60.298751924060696L37.9889915625,59.624204116121845L38.0819896875,58.97611456934529L38.453982187499996,58.352956845533406L38.50048125,57.75331970937012L38.8259746875,57.17589646148837L39.0119709375,56.61947543520081L39.430462500000004,56.08293151143942L39.802455,55.56521852686028L40.54644,55.06536246731337L40.73243625,54.58245535350625L41.011430624999996,54.115649738098035L41.197426875,53.66415374406482L41.290425,53.22722658322102L43.243385624999995,52.80417450155199L43.2898846875,52.394347104667375L43.3828828125,51.99713402244589L43.6618771875,51.61196187689492L44.08036875,51.23829152154212L44.173366875,50.8756155244131L44.2198659375,50.52345586987893L44.359363125,50.181361857488696L44.638357500000005,49.8489081783654L45.0568490625,49.52569315190235L45.196346250000005,49.211337107387955L45.2428453125,48.9054808968515L45.7078359375,48.60778452687978L46.49832,48.31792589844902L46.591318125,48.0355996449517L47.242305,47.76051605960534L47.4748003125,47.49240010432482L47.5677984375,47.23099049292851L47.707295625,46.97603884225546L48.079288125,46.72730888539587L48.358282499999994,46.484575741796235L48.451280624999995,46.24762523950013L48.5907778125,46.01625328523111L48.8697721875,45.79026527842212L49.102267499999996,45.56947556565844L49.567258125,45.35370693231614L49.8462525,45.14279012847275L50.125246875,44.936563426424236L50.311243125000004,44.73487220737564L50.5902375,44.53756857508798L50.683235625,44.344510994450275L50.729734687500006,44.15556395312154L50.82273281249999,43.97059764454295L50.915730937499994,43.7894876707619L50.96223,43.6121147636374L51.1947253125,43.43836452311544L51.241224374999994,43.26812717136598L51.659715937499996,43.101297321671666L51.9387103125,42.93777376104554L52.0317084375,42.77745924563727L52.26420375,42.62026030805601L52.4966990625,42.46608707581035L52.5896971875,42.31485310012184L53.1476859375,42.1664751944298L53.473179374999994,42.02087328195095L53.5196784375,41.87797025170857L53.6126765625,41.7376918224856L53.7056746875,41.599966414199926L53.75217375,41.46472502623122L53.845171875,41.33190112226682L54.403160625,41.20143052126074L54.542657812499996,41.07325129413353L54.7286540625,40.947303665860055L54.86815125,40.82352992262248L55.0076484375,40.70187432372425L55.193644687500004,40.58228301798385L55.24014375,40.464703964342874L55.426140000000004,40.3490868564443L55.6586353125,40.235383050950986L55.705134375,40.12354549938847L56.170125,40.013528683314014L56.356121249999994,39.90528855262077L56.4956184375,39.79878246680533L56.8676109375,39.693969139030436L57.0536071875,39.59080858283113L57.193104375,39.48926206131928L57.2396034375,39.38929203874985L57.2861025,39.29086213432367L57.6115959375,39.19393707810512L57.8905903125,39.09848266894398L57.9835884375,39.004465734295955L58.0300875,38.9118540918413L58.21608375,38.82061651280993L58.402080000000005,38.73072268692496L58.5415771875,38.64214318888051L58.58807625,38.55484944627784L58.634575312500004,38.4688137089448L58.8205715625,38.38400901957113L59.239063124999994,38.30040918559266L59.425059375,38.217988752263594L59.4715584375,38.13672297685809L59.5180575,38.05658780394855L59.611055625,37.97755984170455L59.657554687499996,37.899616339167466L59.9365490625,37.82273516445219L60.1225453125,37.74689478383206L60.169044375,37.67207424166666L60.2620425,37.59825314113258L60.355040625,37.52541162571895L60.4945378125,37.453530361454305L60.541036875,37.382590519830416L60.5875359375,37.31257376139047L60.634035000000004,37.243462219953926L60.7735321875,37.17523848744691L60.959528437500005,37.107885599313164L61.192023750000004,37.041387020478425L61.2385228125,36.975726631844616L61.285021875000005,36.91088871729098L61.564016249999995,36.846857951159045L62.3545003125,36.783619386201366L62.540496562499996,36.7211584419736L62.6334946875,36.659460893651875L62.865990000000004,36.59851286125601L63.9819675,36.5383007992629L64.074965625,36.478811486592804L64.3074609375,36.42003201695336L64.40045906249999,36.36194978952614L64.5864553125,36.30455249998228L64.6794534375,36.247828131813144L65.0514459375,36.191764947963456L65.3304403125,36.13635148275463L65.5164365625,36.08157653408662L65.84193,36.02742915590704L65.934928125,35.973898650936995L66.2139225,35.92097456364407L66.306920625,35.86864667345088L66.4464178125,35.81690498817275L66.492916875,35.76573973767322L66.585915,35.715141367730325L66.95790749999999,35.66510053410422L67.0044065625,35.61560809680094L67.14390374999999,35.56665511452143L67.4693971875,35.51823283929198L67.60889437499999,35.47033271126678L68.0273859375,35.42294635369834L68.2133821875,35.37606556806728L68.352879375,35.32968232936763L68.3993784375,35.28378878154063L68.81787,35.23837723305216L68.8643690625,35.193440152608076L69.0503653125,35.14897016500281L69.096864375,35.104960047096654L69.1433634375,35.061402723916544L69.1898625,35.0182912648767L69.37585875,34.97561888011306L69.42235781250001,34.93337891693065L69.561855,34.89156485635654L69.6083540625,34.850170309797136L69.9803465625,34.809189015794786L70.16634281249999,34.76861483688058L70.2593409375,34.72844175652091L70.3523390625,34.68866387615301L70.39883812500001,34.64927541230799L70.8173296875,34.61027069381685L70.95682687499999,34.57164415909811L71.328819375,34.53339035352365L71.42181749999999,34.495503926859755L71.60781374999999,34.45797963078189L71.6543128125,34.42081231645928L71.886808125,34.38399693220889L72.2123015625,34.34752852121457L72.72379124999999,34.31140221931065L72.816789375,34.27561325282747L73.09578375,34.24015693649626L73.23528093750001,34.20502867141256L73.3282790625,34.170223943055184L73.5142753125,34.13573831935944L73.70027156249999,34.10156744884381L73.79326968749999,34.067707058786034L74.025765,34.03415295344979L74.0722640625,34.00090101235828L74.118763125,33.96794718861448L74.490755625,33.93528750726587L74.76975,33.902918063712775L74.95574625,33.87083502215896L75.0022453125,33.83903461410262L75.048744375,33.80751313686693L75.46723593749999,33.77626695216929L75.69973125,33.74529248472749L76.35071812499999,33.71458622090174L76.44371625,33.68414470737212L77.37369749999999,33.65396454984953L77.42019656250001,33.62404241181989L77.6061928125,33.594375013319784L77.652691875,33.56495912974374L77.6991909375,33.53579159068108L78.53617406250001,33.506869278782226L78.768669375,33.4781891286531L79.09416281249999,33.44974812577723L79.140661875,33.42154330546492L79.41965625,33.393571751827515L79.512654375,33.36583059677756L79.74514968749999,33.33831701905342L79.8381478125,33.31102824326749L80.1171421875,33.283961538977195L80.9541253125,33.25711421977938L81.0471234375,33.23048364242577L81.1401215625,33.20406720595954L81.5121140625,33.17786235087369L81.65161124999999,33.151866558287466L82.02360374999999,33.12607734914469L82.1631009375,33.100492283428814L82.30259812499999,33.07510895939805L82.9070859375,33.04992501283752L83.232579375,33.02493811632934L83.51157375,33.00014597853936L83.69757,32.97554634352058L83.790568125,32.951136990032765L83.83706718750001,32.92691573087751L84.11606156250001,32.90288041224837L84.58105218749999,32.879028913096256L84.8135475,32.85535914450917L84.86004656249999,32.831869049105315L84.99954375,32.80855660044115L85.278538125,32.78541980243137L85.37153625,32.762456688782926L85.51103343749999,32.73966532244098L85.650530625,32.717043795047665L85.7900278125,32.694590226412835L85.836526875,32.67230276399539L86.67351000000001,32.65017958239816L87.3709959375,32.62821888287145L88.06848187499999,32.606418892829225L88.2079790625,32.58477786537483L88.25447812499999,32.56329407883734L88.34747625,32.54196583631792L88.3939753125,32.52079146524586L89.370455625,32.49976931694408L89.41695468750001,32.478897766204064L89.64945,32.45817521086972L89.7889471875,32.43760007142994L89.97494343749999,32.41717079062032L90.0679415625,32.396885833032314L90.2539378125,32.37674368473169L90.4399340625,32.35674285288399L90.62593031249999,32.33688186538845L91.788406875,32.31715927051923L91.8349059375,32.29757363657408L92.34639562499999,32.2781235515304L92.71838812499999,32.25880762270794L92.76488718750001,32.23962447643928L92.90438437499999,32.22057275774601L92.9973825,32.20165113002209L93.0438815625,32.182858274723664L93.462373125,32.16419289106478L93.7878665625,32.14565369571953L94.4853525,32.12723942253003L94.53185156250001,32.1089488222205L94.67134874999999,32.09078066211636L94.9968421875,32.07273372586998L95.5548309375,32.05480681319071L95.78732625,32.03699873958115L95.8338253125,32.01930833607802L95.92682343749999,32.00173444899855L96.252316875,31.984275939691436L96.57781031249999,31.96693168429284L96.62430937500001,31.949700573487174L97.0428009375,31.932581512272503L97.22879718749999,31.915573419730258L97.3217953125,31.898675228799615L97.5077915625,31.88188588605623L97.926283125,31.865204351494935L98.2517765625,31.84862959831688L98.29827562499999,31.8321606127204L98.53077093750001,31.81579639369612L98.9027634375,31.799535952825973L99.321255,31.783378314085418L99.36775406250001,31.767322513650406L99.5537503125,31.751367599706537L99.78624562499999,31.735512632263436L99.9257428125,31.7197566829711L100.01874093750001,31.704098834940535L100.158238125,31.68853818256733L100.29773531250001,31.673073831358757L100.4837315625,31.657704897763402L100.85572406249999,31.642430509005113L101.22771656249999,31.62724980291865L101.4137128125,31.61216192778902L101.55321,31.59716604219386L101.5997090625,31.582261314848118L101.8787034375,31.567446924452078L101.9252025,31.552722059541725L102.297195,31.538085918342173L102.48319125,31.52353770862314L102.5296903125,31.50907664755753L102.57618937500001,31.494701961582383L102.6691875,31.480412886262076L102.8086846875,31.466208666154387L103.13417812499999,31.452088554678216L103.1806771875,31.43805181398436L103.5526696875,31.424097714828065L103.59916874999999,31.410225536444088L104.0176603125,31.396434566423657L104.2036565625,31.382724100593833L104.29665468750001,31.369093442898695L104.436151875,31.35554190528297L104.6686471875,31.34206880757718L104.71514625,31.328673477385056L104.808144375,31.315355249972733L104.8546434375,31.30211346816012L104.90114249999999,31.28894748221376L105.13363781250001,31.275856649741623L105.7846246875,31.262840335589683L106.20311625000001,31.249897911740504L106.482110625,31.23702875721298L106.80760406249999,31.224232257964246L106.85410312500001,31.2115078067929L107.2725946875,31.198854803244256L107.598088125,31.186272653516593L108.0165796875,31.173760770369377L108.15607687500001,31.161318573032965L108.4815703125,31.14894548711953L108.5745684375,31.136640944535937L108.76056468750001,31.12440438339753L109.2255553125,31.112235247943527L109.272054375,31.100132988453872L109.41155156250001,31.08809706116745L109.644046875,31.07612692820146L109.830043125,31.064222057472264L110.4345309375,31.052381922617457L110.52752906250001,31.040606002918977L110.574028125,31.02889378322806L110.8530225,31.01724475389034L110.89952156250001,31.00565841067364L110.946020625,30.994134254695137L111.03901875,30.982671792351297L111.690005625,30.97127053524798L112.52698875,30.959930000131866L112.80598312500001,30.948649708822977L113.1314765625,30.937429188148364L113.4104709375,30.926267969876648L113.5964671875,30.915165590653835L113.6894653125,30.90412159193975L113.7824634375,30.89313551994582L114.0614578125,30.88220692557372L114.200955,30.871335364354746L114.29395312499999,30.860520396390562L114.4334503125,30.84976158629439L114.5729475,30.839058503133444L114.7124446875,30.8284107203721L115.13093624999999,30.817817815815857L115.223934375,30.80727937155636L115.78192312499999,30.79679497391714L115.82842218750001,30.786364213400088L115.87492125,30.7759866846329L116.525908125,30.765661986317273L116.711904375,30.755389721177778L116.897900625,30.745169495911647L117.08389687500001,30.73500092113913L117.1303959375,30.724883611354798L117.269893125,30.71481718487957L117.36289125,30.70480126381308L117.455889375,30.694835473987215L117.827881875,30.68491944492013L117.92088000000001,30.67505280977107L118.0603771875,30.665235205295453L118.19987437500001,30.655466271801096L118.33937156249999,30.64574565310503L118.4323696875,30.63607299649057L118.57186687500001,30.626447952665277L118.7113640625,30.616870175719697L119.4553490625,30.6073393230863L119.78084249999999,30.597855055499178L120.0133378125,30.58841703695475L120.059836875,30.579024934672052L120.1063359375,30.56967841905471L120.1993340625,30.560377163652646L120.24583312499999,30.5511208451248L120.33883125,30.54190914320195L120.43182937499999,30.532741740650607L120.617825625,30.523618323236995L120.803821875,30.51453857969167L121.0363171875,30.505502201674584L121.12931531250001,30.49650888374088L121.45480875,30.487558323306835L121.547806875,30.478650220616487L121.59430593750001,30.469784278708772L121.82680125,30.460960203384833L122.0127975,30.45217770317611L122.2452928125,30.443436489312752L122.33829093749999,30.434736275692263L122.38479,30.42607677884911L122.84978062500001,30.4174577179241L122.8962796875,30.40887881463465L123.0822759375,30.400339793245177L123.221773125,30.39184038053828L123.3612703125,30.383380305785828L123.407769375,30.374959300720636L123.5472665625,30.366577099508802L123.593765625,30.358233438722003L123.68676375000001,30.349928057310326L123.9192590625,30.341660696575573L123.96575812500001,30.333431100144843L124.2912515625,30.325239013944497L124.33775062500001,30.317084186174114L124.52374687499999,30.308966367281695L124.616745,30.300885309938064L124.70974312499999,30.292840769012503L124.89573937499999,30.28483250154838L125.36072999999999,30.27686026673881L125.453728125,30.268923825903315L125.54672624999999,30.261022942464074L125.59322531250001,30.253157381923046L125.7792215625,30.245326911839076L125.91871875,30.237531301805276L126.29071125,30.22977032342713L126.4767075,30.222043750300227L127.127694375,30.21435135798882L127.313690625,30.2066929240044L127.40668875,30.199068227784746L127.6391840625,30.191477050672965L127.685683125,30.183919175897046L127.77868125,30.176394388549525L127.871679375,30.168902475567606L127.91817843749999,30.16144322571329L128.0111765625,30.154016429553874L128.1041746875,30.1466218794429L128.15067375,30.139259369500852L128.47616718749998,30.131928695596606L128.615664375,30.124629655328874L128.8481596875,30.117362048007895L129.4061484375,30.110125674637352L129.5921446875,30.10292033789661L129.731641875,30.095745842123048L130.1966325,30.08860199329484L130.475626875,30.08148859901342L130.5221259375,30.07440546848708L130.6151240625,30.067352412513678L130.75462124999999,30.060329243464576L130.8941184375,30.05333577526796L130.9406175,30.04637182339296L130.9871165625,30.039437204833696L131.4521071875,30.032531738093354L131.49860625,30.02565524316894L131.5451053125,30.018807541535786L131.6381034375,30.011988456132464L132.1960921875,30.005197811345816L132.24259125,29.998435432996008L132.2890903125,29.991701148322264L132.335589375,29.984994785968205L132.707581875,29.978316175967574L133.1260734375,29.971665149730413L133.9165575,29.965041540028892L134.567544375,29.95844518098373L134.753540625,29.95187590805056L134.8000396875,29.945333558006634L134.8930378125,29.938817968937393L135.2650303125,29.932328980223573L135.3580284375,29.925866432528125L135.5440246875,29.91943016778363L136.0090153125,29.913020029179492L136.3810078125,29.90663586114952L136.427506875,29.90027750935969L136.9389965625,29.89394482069588L137.3109890625,29.88763764325181L137.5899834375,29.881355826317414L137.6364825,29.875099220366668L137.729480625,29.868867677046264L137.82247875,29.862661049164114L138.05497406249998,29.856479190677994L138.93845625,29.85032195668423L139.217450625,29.84418920340676L139.2639496875,29.838080788186105L139.7289403125,29.831996569468632L139.82193843750002,29.82593640679571L139.961435625,29.819900160793296L140.0079346875,29.81388769316146L140.05443375,29.8078988666639L140.519424375,29.801933545118015L140.56592343749998,29.795991593384525L140.70542062500002,29.79007287735768L140.98441499999998,29.78417726395528L141.2169103125,29.7783046211091L141.30990843749998,29.772454817755055L141.4029065625,29.766627723823788L141.4959046875,29.76082321023124L141.91439625,29.755041148869278L142.1003925,29.74928141259652L142.28638875,29.74354387522937L142.37938687500002,29.73782841153265L142.5188840625,29.73213489721117L142.93737562500002,29.72646320890053L142.9838746875,29.72081322415874L143.16987093749998,29.71518482145735L143.4488653125,29.70957788017307L143.54186343749998,29.7039922805794L144.0998521875,29.698427903838176L144.14635125,29.692884631991515L144.1928503125,29.687362347953552L144.239349375,29.681860935502367L144.3788465625,29.676380279272184L144.56484281250002,29.670920264745412L144.8438371875,29.665480778244795L144.89033625000002,29.660061706925852L145.0298334375,29.654662938769164L145.4018259375,29.649284362572914L145.63432125,29.64392586794536L145.7738184375,29.638587345297584L145.913315625,29.63326868583603L145.9598146875,29.6279697815556L146.2388090625,29.622690525232102L146.3318071875,29.617430810415602L146.6108015625,29.612190531423323L146.75029875,29.606969583332518L146.8897959375,29.601767861973915L146.936295,29.596585263925043L147.12229125000002,29.59142168650318L148.0057734375,29.586277027759067L148.1917696875,29.581151186470297L148.28476781249998,29.57604406213465L148.517263125,29.57095555496417L148.74975843750002,29.565885565878155L149.35424625,29.560833996497625L149.54024249999998,29.55580074913857L149.67973968750002,29.550785726805998L150.377225625,29.545788833188077L150.8887153125,29.540809972649697L150.93521437500002,29.53584905022702L151.0747115625,29.530905971621287L151.3537059375,29.52598064319299L151.679199375,29.52107297195635L151.72569843749997,29.516182865573366L151.7721975,29.511310232348457L151.8186965625,29.506454981222596L151.865195625,29.501617021767977L151.9116946875,29.49679626418249L152.2836871875,29.491992619284357L153.353165625,29.487205998506774L153.39966468749998,29.482436313892592L153.44616375,29.477683478089084L153.77165718749998,29.472947404342783L154.28314687499997,29.468228006494346L154.376145,29.463525198973414L154.93413375,29.458838896793754L154.9806328125,29.454169015548064L155.12013000000002,29.44951547140322L155.213128125,29.444878181095305L155.2596271875,29.440257061924882L155.3526253125,29.43565203175209L156.2361075,29.431063008992016L156.46860281250002,29.426489912609963L156.6081,29.421932662116877L156.7475971875,29.417391177564678L157.16608875,29.41286537954183L157.21258781249998,29.408355189168763L157.4915821875,29.403860528093375L157.58458031249998,29.39938131848683L157.63107937499998,29.394917483038935L157.91007375,29.390468944954144L158.0495709375,29.38603562794686L158.3285653125,29.38161745623764L158.4215634375,29.377214354548695L158.51456156249998,29.372826248099962L158.65405875000002,29.36845306260483L159.0725503125,29.364094724266174L159.305045625,29.359751159772205L159.39804374999997,29.355422296292776L159.4445428125,29.35110806147496L159.491041875,29.34680838343966L160.0025315625,29.342523190777406L160.4675221875,29.33825241254457L160.8395146875,29.333995978259704L161.62999875,29.32975381789965L161.95549218750003,29.325525861895912L162.00199125,29.321312041130863L162.1414884375,29.317112286934208L162.6064790625,29.312926531079263L162.8854734375,29.30875470577957L163.07146968749998,29.30459674368511L163.303965,29.30045257787887L163.396963125,29.296322141873514L163.48996125,29.29220536960779L163.582959375,29.28810219544312L163.6759575,29.28401255416034L163.86195375,29.2799363809562L163.9084528125,29.275873611440232L164.04795,29.271824181631278L164.326944375,29.26778802795435L164.4199425,29.263765087237427L164.5594396875,29.259755296708217L164.93143218749998,29.25575859399104L165.02443031250002,29.251774917103624L165.070929375,29.24780420445416L165.1174284375,29.24384639483802L165.4894209375,29.239901427434884L166.18690687499998,29.23596924180573L166.279905,29.2320497778897L166.372903125,29.22814297600126L166.46590125,29.224248776827324L166.55889937499998,29.220367121424225L166.9773909375,29.216497951214897L167.1633871875,29.212641207986085L167.767875,29.208796833885433L167.95387125000002,29.204964771418698L168.8373534375,29.20114496344706L169.534839375,29.197337353184384L169.5813384375,29.1935418841944L169.8603328125,29.18975850038797L169.906831875,29.185987146020707L169.99983,29.18222776568999L170.13932718750002,29.178480304332528L170.37182249999998,29.174744707221855L170.51131968750002,29.17102091996548L170.55781875,29.167308888502614L170.650816875,29.163608559101412L171.394801875,29.159919878356753L171.72029531249999,29.15624279318747L171.9062915625,29.15257725083409L172.231785,29.148923198856338L172.2782840625,29.14528058513076L172.60377749999998,29.141649357848127L172.7432746875,29.138029465511558L173.85925218749998,29.134420856933556L173.99874937500002,29.13082348123408L174.32424281250002,29.127237287838327L174.46374,29.12366222647395L174.5102390625,29.12009824716933L174.60323718749999,29.116545300251065L174.64973625,29.113003336341833L174.9752296875,29.109472306358057L175.0682278125,29.10595216150795L175.5797175,29.102442853289034L175.8122128125,29.098944333486436L176.230704375,29.0954565541703L176.3237025,29.091979467693985L176.41670062499998,29.08851302669188L176.602696875,29.085057184077264L176.7421940625,29.08161189304043L177.346681875,29.07817710704652L177.3931809375,29.07475277983348L177.43968,29.071338865410148L177.71867437499998,29.067935318054335L178.09066687499998,29.06454209231067L178.36966125,29.0611591429888L178.41616031249998,29.05778642516145L178.462659375,29.05442389416232L178.648655625,29.051071505584684L178.8811509375,29.047729215278835L179.206644375,29.044396979350733L179.578636875,29.04107475415998L179.764633125,29.037762496318027L179.950629375,29.03446016268629L180.0436275,29.031167710374437L180.322621875,29.02788509673851L180.4621190625,29.024612279379237L180.5551171875,29.021349216140255L180.64811531249998,29.018095865106478L180.74111343750002,29.01485218460207L180.880610625,29.01161813318908L181.1131059375,29.008393669665583L181.67109468750002,29.00517875306397L181.90358999999998,29.00197334264942L182.1360853125,28.998777397918087L182.97306843750002,28.995590878595596L183.1590646875,28.992413744635336L183.29856187500002,28.98924595621687L183.53105718749998,28.986087473744426L183.8100515625,28.982938257845184L183.856550625,28.979798269367738L184.042546875,28.97666746938063L184.135545,28.973545819170795L184.414539375,28.9704332802418L184.46103843749998,28.96732981431273L184.7400328125,28.96423538331628L185.06552625,28.961149949397544L185.344520625,28.958073474912545L185.4840178125,28.95500592242638L185.76301218749998,28.95194725471236L186.274501875,28.9488974347501L186.3675,28.94585642572425L186.6929934375,28.942824191023107L186.832490625,28.939800694237253L186.9719878125,28.936785899157965L187.06498593749998,28.93377976977596L187.29748125,28.930782270280147L188.04146625,28.927793365055994L188.134464375,28.92481301868442L188.1809634375,28.921841195940267L188.36695968749999,28.91887786179123L188.41345875000002,28.915922981396132L188.599455,28.912976520104056L188.692453125,28.910038443452834L188.9714475,28.90710871716764L189.0179465625,28.90418730716009L189.34344000000002,28.9012741795266L189.90142875,28.898369300547245L190.1339240625,28.895472636684698L190.27342125,28.892584154582806L190.6919128125,28.88970382106528L190.738411875,28.88683160313482L191.01740625000002,28.8839674679716L191.0639053125,28.881111382932165L191.7148921875,28.878263315548352L191.90088843750002,28.875423233525957L191.9938865625,28.872591104743698L192.0868846875,28.869766897251942L192.22638187500002,28.866950579271663L192.3658790625,28.864142119193236L192.784370625,28.86134148557537L193.06336499999998,28.85854864714395L193.156363125,28.855763572790913L193.6678528125,28.852986231573166L193.714351875,28.850216592711536L193.99334625,28.847454625589613L194.31883968749997,28.844700299752663L195.4348171875,28.841953584906673L195.574314375,28.839214450917144L195.7138115625,28.83648286780822L195.8068096875,28.833758805761526L196.78329,28.83104223511505L196.9227871875,28.828333126362388L197.1087834375,28.8256314501514L197.1552825,28.82293717728346L197.2017815625,28.820250278712386L197.4807759375,28.81757072554329L197.62027312499998,28.814898489031844L197.71327125,28.812233540583097L198.1317628125,28.809575851750687L198.31775906250002,28.806925394235694L198.45725625,28.804282139885704L198.68975156250002,28.801646060694114L199.06174406250003,28.79901712879874L199.2477403125,28.79639531648143L199.3407384375,28.793780596166698L199.4337365625,28.7911729404209L200.038224375,28.788572321951573L200.1312225,28.785978713606145L200.2707196875,28.783392088371347L200.8287084375,28.780812419372143L201.0147046875,28.778239679870985L201.24720000000002,28.77567384326676L201.340198125,28.773114883094138L201.80518875,28.770562773022466L201.898186875,28.768017486855086L201.991185,28.76547899852846L202.5956728125,28.762947282111316L202.87466718750002,28.760422311803627L203.3396578125,28.757904061936117L203.572153125,28.755392506969304L203.8976465625,28.7528876214924L204.03714374999998,28.750389380222902L204.130141875,28.74789775800565L205.06012312500002,28.745412729811925L205.1066221875,28.742934270738704L205.15312125,28.740462356007974L205.3856165625,28.737996960965805L205.4786146875,28.73553806108167L205.7576090625,28.733085631947635L205.9436053125,28.73063964927752L206.31559781250002,28.728200088906394L206.36209687500002,28.725766926789515L206.59459218749998,28.72334013900167L206.64109125,28.72091970173657L206.8270875,28.71850559130601L207.3385771875,28.716097784139144L207.61757156250002,28.713696256781727L207.8965659375,28.711300985895395L208.036063125,28.708911948257082L208.54755281250002,28.70652912075813L208.7335490625,28.704152480403728L208.91954531250002,28.70178200431206L209.0125434375,28.69941766971373L209.24503875,28.697059453951137L209.431035,28.694707334477556L209.6635303125,28.692361288856667L209.896025625,28.690021294761817L210.08202187499998,28.687687329975287L210.1285209375,28.68535937238775L210.22151906250002,28.683037399997545L210.640010625,28.68072139090996L210.6865096875,28.67841132333666L211.197999375,28.67610717559512L211.2909975,28.673808926107732L211.33749656249998,28.671516553401496L211.66299,28.669230036107106L211.755988125,28.666949352958465L211.8024871875,28.664674482792066L211.84898625000002,28.662405404546256L211.8954853125,28.660142097260852L212.0814815625,28.657884540076253L212.1744796875,28.655632712233075L213.1974590625,28.65338659307133L213.33695625,28.651146162030145L213.98794312500002,28.64891139864674L214.2204384375,28.646682282556277L214.26693749999998,28.644458793490905L214.359935625,28.642240911279444L214.731928125,28.640028615846735L214.96442343750002,28.63782188721303L215.28991687500002,28.63562070549338L216.59189062500002,28.633425050897223L216.9173840625,28.63123490372778L217.42887375,28.629050244381258L217.6613690625,28.626871053346743L218.079860625,28.624697311205235L218.12635968749998,28.62252899862945L218.5913503125,28.62036609638294L218.63784937499997,28.61820858531984L218.6843484375,28.616056446384203L218.77734656250001,28.613909660609508L218.8703446875,28.61176820911802L218.9633428125,28.609632073120604L219.00984187499998,28.607501233915748L219.05634093749998,28.60537567288937L219.14933906250002,28.603255371514305L219.9863221875,28.60114031134954L220.2188175,28.59903047404001L220.45131281250002,28.596925841315958L220.59081,28.594826394992417L220.7303071875,28.592732116968747L220.9628025,28.590642989228257L221.4742921875,28.588558993837456L221.89278375,28.586480112945942L222.0322809375,28.584406328785477L222.07878000000002,28.582337623669947L222.49727156249998,28.5802739799946L222.7762659375,28.578215380235683L223.473751875,28.576161806949962L223.5202509375,28.574113242774267L223.7992453125,28.572069670425066L223.9852415625,28.570031072697894L224.12473874999998,28.567997432467013L224.403733125,28.56596873268496L224.49673124999998,28.56394495638205L224.9152228125,28.561926086665885L225.1012190625,28.55991210672105L225.3802134375,28.557902999808586L225.61270875,28.555898749265666L225.891703125,28.55389933850485L226.077699375,28.55190475101404L226.31019468750003,28.549914970355903L226.635688125,28.547929980167293L226.82168437500002,28.545949764159186L227.2401759375,28.543974306115878L227.379673125,28.542003589894804L227.937661875,28.540037599426103L228.2631553125,28.53807631871207L228.4026525,28.53611973182696L228.49565062500002,28.53416782291644L228.5421496875,28.532220576197282L228.7281459375,28.530277975956718L228.774645,28.528340006552497L228.8211440625,28.52640665241209L229.37913281250002,28.524477898032348L229.65812718749999,28.52255372797947L229.70462625,28.520634126888133L229.797624375,28.51871907946142L230.0301196875,28.516808570470346L230.07661875,28.514902584753507L230.2161159375,28.513001107216628L230.4951103125,28.51110412283238L230.68110656250002,28.509211616639714L231.0066,28.50732357374377L231.471590625,28.50543997931545L231.750585,28.503560818590813L231.93658125000002,28.501686076871117L232.0760784375,28.499815739522194L232.4480709375,28.497949791974094L232.5410690625,28.49608821972086L233.14555687499998,28.494231008320128L233.331553125,28.49237814339271L233.3780521875,28.49052961062233L234.261534375,28.488685395755265L234.3080334375,28.486845484599936L234.447530625,28.485009863026672L234.77302406249999,28.48317851696738L234.86602218750002,28.481351432415035L235.2380146875,28.479528595423492L235.3310128125,28.477709992107304L235.377511875,28.475895608640972L235.9819996875,28.474085431258963L236.0749978125,28.472279446255406L236.121496875,28.470477639983468L236.5399884375,28.468679998855375L236.679485625,28.466886509341826L236.77248375,28.46509715797192L237.1909753125,28.463311931332644L237.33047249999998,28.461530816068514L237.42347062500002,28.459753798881614L237.51646875,28.457980866530914L238.0744575,28.45621200583214L238.8649415625,28.45444720365745L239.097436875,28.45268644693507L239.5624275,28.450929722649118L239.84142187499998,28.4491770178392L240.1669153125,28.4474283196001L240.4459096875,28.44568361508167L240.5389078125,28.443942891488277L240.7249040625,28.442206136078664L241.0503975,28.440473336165688L241.0968965625,28.438744479115897L241.14339562499998,28.437019552349433L241.60838625,28.435298543339478L242.35237125,28.433581439612322L242.5848665625,28.43186822874685L242.817361875,28.430158898374202L243.0498571875,28.428453436177776L243.09635625,28.426751829892677L243.189354375,28.425054067305634L243.32885156249998,28.423360136254495L243.7938421875,28.421670024628337L243.9798384375,28.419983720366805L244.0263375,28.418301211460115L244.305331875,28.41662248594862L244.491328125,28.414947531922707L244.5378271875,28.413276337522312L244.9098196875,28.41160889093699L245.00281781249998,28.40994518040528L245.049316875,28.408285194214766L245.09581593750002,28.406628920701632L245.1888140625,28.404976348250443L245.32831124999998,28.403327465293987L245.3748103125,28.401682260312935L245.421309375,28.400040721835573L245.4678084375,28.398402838437676L245.6538046875,28.396768598742188L245.7468028125,28.39513799141881L245.88629999999998,28.393511005184184L245.93279906249998,28.39188762880118L245.979298125,28.390267851079027L246.02579718750002,28.388651660872792L246.1187953125,28.387039047083334L246.25829249999998,28.385429998657017L246.3047915625,28.38382450458539L246.5837859375,28.382222553905194L246.8627803125,28.380624135697836L246.95577843750002,28.379029239089295L247.095275625,28.377437853249987L247.65326437500002,28.375849967394327L248.025256875,28.374265570780775L248.07175593749997,28.372684652711246L248.118255,28.37110720253133L248.397249375,28.3695332096297L248.7227428125,28.367962663438114L248.95523812500002,28.366395553431083L249.2807315625,28.364831869125677L249.4667278125,28.363271600081408L249.699223125,28.36171473589984L249.88521937500002,28.360161266224466L250.16421375,28.358611180740578L250.25721187500002,28.357064469174976L250.3967090625,28.35552112129568L250.7222025,28.353981126911822L251.00119687499998,28.352444475873554L251.14069406250002,28.350911158071543L251.2336921875,28.349381163437005L251.28019125,28.34785448194149L251.51268656250002,28.34633110359653" style="fill: none;" fill="none"></path></g></g></g></g><g opacity="0.2"><g><g><g><path stroke="rgb(238, 51, 119)" stroke-width="2px" d="M23.899775625,164.30769230769232L24.5042634375,164.30769230769232L24.783257812499997,164.30769230769232L25.5272428125,164.30769230769232L25.6202409375,164.30769230769232L25.759738125000002,164.30769230769232L25.852736250000003,164.30769230769232L26.131730625,164.30769230769232L26.271227812499998,164.30769230769232L26.968713750000003,164.30769230769232L27.1082109375,164.30769230769232L27.340706249999997,164.30769230769232L27.712698749999998,27.384615384615387L28.0381921875,27.384615384615387L28.410184687500003,27.384615384615387L28.549681875,27.384615384615387L28.5961809375,27.384615384615387L28.921674375,27.384615384615387L29.154169687499998,27.384615384615387L29.5261621875,27.384615384615387L30.13065,27.384615384615387L30.6421396875,27.384615384615387L30.874635,27.384615384615387L31.0141321875,27.384615384615387L31.432623749999998,27.384615384615387L31.479122812499998,27.384615384615387L31.9441134375,27.384615384615387L32.17660875,27.384615384615387L32.269606875,27.384615384615387L32.3161059375,27.384615384615387L32.5021021875,27.384615384615387L32.8740946875,27.384615384615387L33.2460871875,27.384615384615387L33.29258625,27.384615384615387L33.5250815625,27.384615384615387L34.03657125,27.384615384615387L34.315565625,27.384615384615387L34.5480609375,27.384615384615387L34.687558125,27.384615384615387L35.245546874999995,27.384615384615387L35.52454125,27.384615384615387L35.7570365625,27.384615384615387L36.08253,27.384615384615387L36.26852625,27.384615384615387L36.361524375,27.384615384615387L37.2450065625,27.384615384615387L37.477501874999994,27.384615384615387L37.5240009375,27.384615384615387L37.75649625,27.384615384615387L37.9889915625,27.384615384615387L38.0819896875,27.384615384615387L38.453982187499996,27.384615384615387L38.50048125,27.384615384615387L38.8259746875,27.384615384615387L39.0119709375,27.384615384615387L39.430462500000004,27.384615384615387L39.802455,27.384615384615387L40.54644,27.384615384615387L40.73243625,27.384615384615387L41.011430624999996,27.384615384615387L41.197426875,27.384615384615387L41.290425,27.384615384615387L43.243385624999995,27.384615384615387L43.2898846875,27.384615384615387L43.3828828125,27.384615384615387L43.6618771875,27.384615384615387L44.08036875,27.384615384615387L44.173366875,27.384615384615387L44.2198659375,27.384615384615387L44.359363125,27.384615384615387L44.638357500000005,27.384615384615387L45.0568490625,27.384615384615387L45.196346250000005,27.384615384615387L45.2428453125,27.384615384615387L45.7078359375,27.384615384615387L46.49832,27.384615384615387L46.591318125,27.384615384615387L47.242305,27.384615384615387L47.4748003125,27.384615384615387L47.5677984375,27.384615384615387L47.707295625,27.384615384615387L48.079288125,27.384615384615387L48.358282499999994,27.384615384615387L48.451280624999995,27.384615384615387L48.5907778125,27.384615384615387L48.8697721875,27.384615384615387L49.102267499999996,27.384615384615387L49.567258125,27.384615384615387L49.8462525,27.384615384615387L50.125246875,27.384615384615387L50.311243125000004,27.384615384615387L50.5902375,27.384615384615387L50.683235625,27.384615384615387L50.729734687500006,27.384615384615387L50.82273281249999,27.384615384615387L50.915730937499994,27.384615384615387L50.96223,27.384615384615387L51.1947253125,27.384615384615387L51.241224374999994,27.384615384615387L51.659715937499996,27.384615384615387L51.9387103125,27.384615384615387L52.0317084375,27.384615384615387L52.26420375,27.384615384615387L52.4966990625,27.384615384615387L52.5896971875,27.384615384615387L53.1476859375,27.384615384615387L53.473179374999994,27.384615384615387L53.5196784375,27.384615384615387L53.6126765625,27.384615384615387L53.7056746875,27.384615384615387L53.75217375,27.384615384615387L53.845171875,27.384615384615387L54.403160625,27.384615384615387L54.542657812499996,27.384615384615387L54.7286540625,27.384615384615387L54.86815125,27.384615384615387L55.0076484375,27.384615384615387L55.193644687500004,27.384615384615387L55.24014375,27.384615384615387L55.426140000000004,27.384615384615387L55.6586353125,27.384615384615387L55.705134375,27.384615384615387L56.170125,27.384615384615387L56.356121249999994,27.384615384615387L56.4956184375,27.384615384615387L56.8676109375,27.384615384615387L57.0536071875,27.384615384615387L57.193104375,27.384615384615387L57.2396034375,27.384615384615387L57.2861025,27.384615384615387L57.6115959375,27.384615384615387L57.8905903125,27.384615384615387L57.9835884375,27.384615384615387L58.0300875,27.384615384615387L58.21608375,27.384615384615387L58.402080000000005,27.384615384615387L58.5415771875,27.384615384615387L58.58807625,27.384615384615387L58.634575312500004,27.384615384615387L58.8205715625,27.384615384615387L59.239063124999994,27.384615384615387L59.425059375,27.384615384615387L59.4715584375,27.384615384615387L59.5180575,27.384615384615387L59.611055625,27.384615384615387L59.657554687499996,27.384615384615387L59.9365490625,27.384615384615387L60.1225453125,27.384615384615387L60.169044375,27.384615384615387L60.2620425,27.384615384615387L60.355040625,27.384615384615387L60.4945378125,27.384615384615387L60.541036875,27.384615384615387L60.5875359375,27.384615384615387L60.634035000000004,27.384615384615387L60.7735321875,27.384615384615387L60.959528437500005,27.384615384615387L61.192023750000004,27.384615384615387L61.2385228125,27.384615384615387L61.285021875000005,27.384615384615387L61.564016249999995,27.384615384615387L62.3545003125,27.384615384615387L62.540496562499996,27.384615384615387L62.6334946875,27.384615384615387L62.865990000000004,27.384615384615387L63.9819675,27.384615384615387L64.074965625,27.384615384615387L64.3074609375,27.384615384615387L64.40045906249999,27.384615384615387L64.5864553125,27.384615384615387L64.6794534375,27.384615384615387L65.0514459375,27.384615384615387L65.3304403125,27.384615384615387L65.5164365625,27.384615384615387L65.84193,27.384615384615387L65.934928125,27.384615384615387L66.2139225,27.384615384615387L66.306920625,27.384615384615387L66.4464178125,27.384615384615387L66.492916875,27.384615384615387L66.585915,27.384615384615387L66.95790749999999,27.384615384615387L67.0044065625,27.384615384615387L67.14390374999999,27.384615384615387L67.4693971875,27.384615384615387L67.60889437499999,27.384615384615387L68.0273859375,27.384615384615387L68.2133821875,27.384615384615387L68.352879375,27.384615384615387L68.3993784375,27.384615384615387L68.81787,27.384615384615387L68.8643690625,27.384615384615387L69.0503653125,27.384615384615387L69.096864375,27.384615384615387L69.1433634375,27.384615384615387L69.1898625,27.384615384615387L69.37585875,27.384615384615387L69.42235781250001,27.384615384615387L69.561855,27.384615384615387L69.6083540625,27.384615384615387L69.9803465625,27.384615384615387L70.16634281249999,27.384615384615387L70.2593409375,27.384615384615387L70.3523390625,27.384615384615387L70.39883812500001,27.384615384615387L70.8173296875,27.384615384615387L70.95682687499999,27.384615384615387L71.328819375,27.384615384615387L71.42181749999999,27.384615384615387L71.60781374999999,27.384615384615387L71.6543128125,27.384615384615387L71.886808125,27.384615384615387L72.2123015625,27.384615384615387L72.72379124999999,27.384615384615387L72.816789375,27.384615384615387L73.09578375,27.384615384615387L73.23528093750001,27.384615384615387L73.3282790625,27.384615384615387L73.5142753125,27.384615384615387L73.70027156249999,27.384615384615387L73.79326968749999,27.384615384615387L74.025765,27.384615384615387L74.0722640625,27.384615384615387L74.118763125,27.384615384615387L74.490755625,27.384615384615387L74.76975,27.384615384615387L74.95574625,27.384615384615387L75.0022453125,27.384615384615387L75.048744375,27.384615384615387L75.46723593749999,27.384615384615387L75.69973125,27.384615384615387L76.35071812499999,27.384615384615387L76.44371625,27.384615384615387L77.37369749999999,27.384615384615387L77.42019656250001,27.384615384615387L77.6061928125,27.384615384615387L77.652691875,27.384615384615387L77.6991909375,27.384615384615387L78.53617406250001,27.384615384615387L78.768669375,27.384615384615387L79.09416281249999,27.384615384615387L79.140661875,27.384615384615387L79.41965625,27.384615384615387L79.512654375,27.384615384615387L79.74514968749999,27.384615384615387L79.8381478125,27.384615384615387L80.1171421875,27.384615384615387L80.9541253125,27.384615384615387L81.0471234375,27.384615384615387L81.1401215625,27.384615384615387L81.5121140625,27.384615384615387L81.65161124999999,27.384615384615387L82.02360374999999,27.384615384615387L82.1631009375,27.384615384615387L82.30259812499999,27.384615384615387L82.9070859375,27.384615384615387L83.232579375,27.384615384615387L83.51157375,27.384615384615387L83.69757,27.384615384615387L83.790568125,27.384615384615387L83.83706718750001,27.384615384615387L84.11606156250001,27.384615384615387L84.58105218749999,27.384615384615387L84.8135475,27.384615384615387L84.86004656249999,27.384615384615387L84.99954375,27.384615384615387L85.278538125,27.384615384615387L85.37153625,27.384615384615387L85.51103343749999,27.384615384615387L85.650530625,27.384615384615387L85.7900278125,27.384615384615387L85.836526875,27.384615384615387L86.67351000000001,27.384615384615387L87.3709959375,27.384615384615387L88.06848187499999,27.384615384615387L88.2079790625,27.384615384615387L88.25447812499999,27.384615384615387L88.34747625,27.384615384615387L88.3939753125,27.384615384615387L89.370455625,27.384615384615387L89.41695468750001,27.384615384615387L89.64945,27.384615384615387L89.7889471875,27.384615384615387L89.97494343749999,27.384615384615387L90.0679415625,27.384615384615387L90.2539378125,27.384615384615387L90.4399340625,27.384615384615387L90.62593031249999,27.384615384615387L91.788406875,27.384615384615387L91.8349059375,27.384615384615387L92.34639562499999,27.384615384615387L92.71838812499999,27.384615384615387L92.76488718750001,27.384615384615387L92.90438437499999,27.384615384615387L92.9973825,27.384615384615387L93.0438815625,27.384615384615387L93.462373125,27.384615384615387L93.7878665625,27.384615384615387L94.4853525,27.384615384615387L94.53185156250001,27.384615384615387L94.67134874999999,27.384615384615387L94.9968421875,27.384615384615387L95.5548309375,27.384615384615387L95.78732625,27.384615384615387L95.8338253125,27.384615384615387L95.92682343749999,27.384615384615387L96.252316875,27.384615384615387L96.57781031249999,27.384615384615387L96.62430937500001,27.384615384615387L97.0428009375,27.384615384615387L97.22879718749999,27.384615384615387L97.3217953125,27.384615384615387L97.5077915625,27.384615384615387L97.926283125,27.384615384615387L98.2517765625,27.384615384615387L98.29827562499999,27.384615384615387L98.53077093750001,27.384615384615387L98.9027634375,27.384615384615387L99.321255,27.384615384615387L99.36775406250001,27.384615384615387L99.5537503125,27.384615384615387L99.78624562499999,27.384615384615387L99.9257428125,27.384615384615387L100.01874093750001,27.384615384615387L100.158238125,27.384615384615387L100.29773531250001,27.384615384615387L100.4837315625,27.384615384615387L100.85572406249999,27.384615384615387L101.22771656249999,27.384615384615387L101.4137128125,27.384615384615387L101.55321,27.384615384615387L101.5997090625,27.384615384615387L101.8787034375,27.384615384615387L101.9252025,27.384615384615387L102.297195,27.384615384615387L102.48319125,27.384615384615387L102.5296903125,27.384615384615387L102.57618937500001,27.384615384615387L102.6691875,27.384615384615387L102.8086846875,27.384615384615387L103.13417812499999,27.384615384615387L103.1806771875,27.384615384615387L103.5526696875,27.384615384615387L103.59916874999999,27.384615384615387L104.0176603125,27.384615384615387L104.2036565625,27.384615384615387L104.29665468750001,27.384615384615387L104.436151875,27.384615384615387L104.6686471875,27.384615384615387L104.71514625,27.384615384615387L104.808144375,27.384615384615387L104.8546434375,27.384615384615387L104.90114249999999,27.384615384615387L105.13363781250001,27.384615384615387L105.7846246875,27.384615384615387L106.20311625000001,27.384615384615387L106.482110625,27.384615384615387L106.80760406249999,27.384615384615387L106.85410312500001,27.384615384615387L107.2725946875,27.384615384615387L107.598088125,27.384615384615387L108.0165796875,27.384615384615387L108.15607687500001,27.384615384615387L108.4815703125,27.384615384615387L108.5745684375,27.384615384615387L108.76056468750001,27.384615384615387L109.2255553125,27.384615384615387L109.272054375,27.384615384615387L109.41155156250001,27.384615384615387L109.644046875,27.384615384615387L109.830043125,27.384615384615387L110.4345309375,27.384615384615387L110.52752906250001,27.384615384615387L110.574028125,27.384615384615387L110.8530225,27.384615384615387L110.89952156250001,27.384615384615387L110.946020625,27.384615384615387L111.03901875,27.384615384615387L111.690005625,27.384615384615387L112.52698875,27.384615384615387L112.80598312500001,27.384615384615387L113.1314765625,27.384615384615387L113.4104709375,27.384615384615387L113.5964671875,27.384615384615387L113.6894653125,27.384615384615387L113.7824634375,27.384615384615387L114.0614578125,27.384615384615387L114.200955,27.384615384615387L114.29395312499999,27.384615384615387L114.4334503125,27.384615384615387L114.5729475,27.384615384615387L114.7124446875,27.384615384615387L115.13093624999999,27.384615384615387L115.223934375,27.384615384615387L115.78192312499999,27.384615384615387L115.82842218750001,27.384615384615387L115.87492125,27.384615384615387L116.525908125,27.384615384615387L116.711904375,27.384615384615387L116.897900625,27.384615384615387L117.08389687500001,27.384615384615387L117.1303959375,27.384615384615387L117.269893125,27.384615384615387L117.36289125,27.384615384615387L117.455889375,27.384615384615387L117.827881875,27.384615384615387L117.92088000000001,27.384615384615387L118.0603771875,27.384615384615387L118.19987437500001,27.384615384615387L118.33937156249999,27.384615384615387L118.4323696875,27.384615384615387L118.57186687500001,27.384615384615387L118.7113640625,27.384615384615387L119.4553490625,27.384615384615387L119.78084249999999,27.384615384615387L120.0133378125,27.384615384615387L120.059836875,27.384615384615387L120.1063359375,27.384615384615387L120.1993340625,27.384615384615387L120.24583312499999,27.384615384615387L120.33883125,27.384615384615387L120.43182937499999,27.384615384615387L120.617825625,27.384615384615387L120.803821875,27.384615384615387L121.0363171875,27.384615384615387L121.12931531250001,27.384615384615387L121.45480875,27.384615384615387L121.547806875,27.384615384615387L121.59430593750001,27.384615384615387L121.82680125,27.384615384615387L122.0127975,27.384615384615387L122.2452928125,27.384615384615387L122.33829093749999,27.384615384615387L122.38479,27.384615384615387L122.84978062500001,27.384615384615387L122.8962796875,27.384615384615387L123.0822759375,27.384615384615387L123.221773125,27.384615384615387L123.3612703125,27.384615384615387L123.407769375,27.384615384615387L123.5472665625,27.384615384615387L123.593765625,27.384615384615387L123.68676375000001,27.384615384615387L123.9192590625,27.384615384615387L123.96575812500001,27.384615384615387L124.2912515625,27.384615384615387L124.33775062500001,27.384615384615387L124.52374687499999,27.384615384615387L124.616745,27.384615384615387L124.70974312499999,27.384615384615387L124.89573937499999,27.384615384615387L125.36072999999999,27.384615384615387L125.453728125,27.384615384615387L125.54672624999999,27.384615384615387L125.59322531250001,27.384615384615387L125.7792215625,27.384615384615387L125.91871875,27.384615384615387L126.29071125,27.384615384615387L126.4767075,27.384615384615387L127.127694375,27.384615384615387L127.313690625,27.384615384615387L127.40668875,27.384615384615387L127.6391840625,27.384615384615387L127.685683125,27.384615384615387L127.77868125,27.384615384615387L127.871679375,27.384615384615387L127.91817843749999,27.384615384615387L128.0111765625,27.384615384615387L128.1041746875,27.384615384615387L128.15067375,27.384615384615387L128.47616718749998,27.384615384615387L128.615664375,27.384615384615387L128.8481596875,27.384615384615387L129.4061484375,27.384615384615387L129.5921446875,27.384615384615387L129.731641875,27.384615384615387L130.1966325,27.384615384615387L130.475626875,27.384615384615387L130.5221259375,27.384615384615387L130.6151240625,27.384615384615387L130.75462124999999,27.384615384615387L130.8941184375,27.384615384615387L130.9406175,27.384615384615387L130.9871165625,27.384615384615387L131.4521071875,27.384615384615387L131.49860625,27.384615384615387L131.5451053125,27.384615384615387L131.6381034375,27.384615384615387L132.1960921875,27.384615384615387L132.24259125,27.384615384615387L132.2890903125,27.384615384615387L132.335589375,27.384615384615387L132.707581875,27.384615384615387L133.1260734375,27.384615384615387L133.9165575,27.384615384615387L134.567544375,27.384615384615387L134.753540625,27.384615384615387L134.8000396875,27.384615384615387L134.8930378125,27.384615384615387L135.2650303125,27.384615384615387L135.3580284375,27.384615384615387L135.5440246875,27.384615384615387L136.0090153125,27.384615384615387L136.3810078125,27.384615384615387L136.427506875,27.384615384615387L136.9389965625,27.384615384615387L137.3109890625,27.384615384615387L137.5899834375,27.384615384615387L137.6364825,27.384615384615387L137.729480625,27.384615384615387L137.82247875,27.384615384615387L138.05497406249998,27.384615384615387L138.93845625,27.384615384615387L139.217450625,27.384615384615387L139.2639496875,27.384615384615387L139.7289403125,27.384615384615387L139.82193843750002,27.384615384615387L139.961435625,27.384615384615387L140.0079346875,27.384615384615387L140.05443375,27.384615384615387L140.519424375,27.384615384615387L140.56592343749998,27.384615384615387L140.70542062500002,27.384615384615387L140.98441499999998,27.384615384615387L141.2169103125,27.384615384615387L141.30990843749998,27.384615384615387L141.4029065625,27.384615384615387L141.4959046875,27.384615384615387L141.91439625,27.384615384615387L142.1003925,27.384615384615387L142.28638875,27.384615384615387L142.37938687500002,27.384615384615387L142.5188840625,27.384615384615387L142.93737562500002,27.384615384615387L142.9838746875,27.384615384615387L143.16987093749998,27.384615384615387L143.4488653125,27.384615384615387L143.54186343749998,27.384615384615387L144.0998521875,27.384615384615387L144.14635125,27.384615384615387L144.1928503125,27.384615384615387L144.239349375,27.384615384615387L144.3788465625,27.384615384615387L144.56484281250002,27.384615384615387L144.8438371875,27.384615384615387L144.89033625000002,27.384615384615387L145.0298334375,27.384615384615387L145.4018259375,27.384615384615387L145.63432125,27.384615384615387L145.7738184375,27.384615384615387L145.913315625,27.384615384615387L145.9598146875,27.384615384615387L146.2388090625,27.384615384615387L146.3318071875,27.384615384615387L146.6108015625,27.384615384615387L146.75029875,27.384615384615387L146.8897959375,27.384615384615387L146.936295,27.384615384615387L147.12229125000002,27.384615384615387L148.0057734375,27.384615384615387L148.1917696875,27.384615384615387L148.28476781249998,27.384615384615387L148.517263125,27.384615384615387L148.74975843750002,27.384615384615387L149.35424625,27.384615384615387L149.54024249999998,27.384615384615387L149.67973968750002,27.384615384615387L150.377225625,27.384615384615387L150.8887153125,27.384615384615387L150.93521437500002,27.384615384615387L151.0747115625,27.384615384615387L151.3537059375,27.384615384615387L151.679199375,27.384615384615387L151.72569843749997,27.384615384615387L151.7721975,27.384615384615387L151.8186965625,27.384615384615387L151.865195625,27.384615384615387L151.9116946875,27.384615384615387L152.2836871875,27.384615384615387L153.353165625,27.384615384615387L153.39966468749998,27.384615384615387L153.44616375,27.384615384615387L153.77165718749998,27.384615384615387L154.28314687499997,27.384615384615387L154.376145,27.384615384615387L154.93413375,27.384615384615387L154.9806328125,27.384615384615387L155.12013000000002,27.384615384615387L155.213128125,27.384615384615387L155.2596271875,27.384615384615387L155.3526253125,27.384615384615387L156.2361075,27.384615384615387L156.46860281250002,27.384615384615387L156.6081,27.384615384615387L156.7475971875,27.384615384615387L157.16608875,27.384615384615387L157.21258781249998,27.384615384615387L157.4915821875,27.384615384615387L157.58458031249998,27.384615384615387L157.63107937499998,27.384615384615387L157.91007375,27.384615384615387L158.0495709375,27.384615384615387L158.3285653125,27.384615384615387L158.4215634375,27.384615384615387L158.51456156249998,27.384615384615387L158.65405875000002,27.384615384615387L159.0725503125,27.384615384615387L159.305045625,27.384615384615387L159.39804374999997,27.384615384615387L159.4445428125,27.384615384615387L159.491041875,27.384615384615387L160.0025315625,27.384615384615387L160.4675221875,27.384615384615387L160.8395146875,27.384615384615387L161.62999875,27.384615384615387L161.95549218750003,27.384615384615387L162.00199125,27.384615384615387L162.1414884375,27.384615384615387L162.6064790625,27.384615384615387L162.8854734375,27.384615384615387L163.07146968749998,27.384615384615387L163.303965,27.384615384615387L163.396963125,27.384615384615387L163.48996125,27.384615384615387L163.582959375,27.384615384615387L163.6759575,27.384615384615387L163.86195375,27.384615384615387L163.9084528125,27.384615384615387L164.04795,27.384615384615387L164.326944375,27.384615384615387L164.4199425,27.384615384615387L164.5594396875,27.384615384615387L164.93143218749998,27.384615384615387L165.02443031250002,27.384615384615387L165.070929375,27.384615384615387L165.1174284375,27.384615384615387L165.4894209375,27.384615384615387L166.18690687499998,27.384615384615387L166.279905,27.384615384615387L166.372903125,27.384615384615387L166.46590125,27.384615384615387L166.55889937499998,27.384615384615387L166.9773909375,27.384615384615387L167.1633871875,27.384615384615387L167.767875,27.384615384615387L167.95387125000002,27.384615384615387L168.8373534375,27.384615384615387L169.534839375,27.384615384615387L169.5813384375,27.384615384615387L169.8603328125,27.384615384615387L169.906831875,27.384615384615387L169.99983,27.384615384615387L170.13932718750002,27.384615384615387L170.37182249999998,27.384615384615387L170.51131968750002,27.384615384615387L170.55781875,27.384615384615387L170.650816875,27.384615384615387L171.394801875,27.384615384615387L171.72029531249999,27.384615384615387L171.9062915625,27.384615384615387L172.231785,27.384615384615387L172.2782840625,27.384615384615387L172.60377749999998,27.384615384615387L172.7432746875,27.384615384615387L173.85925218749998,27.384615384615387L173.99874937500002,27.384615384615387L174.32424281250002,27.384615384615387L174.46374,27.384615384615387L174.5102390625,27.384615384615387L174.60323718749999,27.384615384615387L174.64973625,27.384615384615387L174.9752296875,27.384615384615387L175.0682278125,27.384615384615387L175.5797175,27.384615384615387L175.8122128125,27.384615384615387L176.230704375,27.384615384615387L176.3237025,27.384615384615387L176.41670062499998,27.384615384615387L176.602696875,27.384615384615387L176.7421940625,27.384615384615387L177.346681875,27.384615384615387L177.3931809375,27.384615384615387L177.43968,27.384615384615387L177.71867437499998,27.384615384615387L178.09066687499998,27.384615384615387L178.36966125,27.384615384615387L178.41616031249998,27.384615384615387L178.462659375,27.384615384615387L178.648655625,27.384615384615387L178.8811509375,27.384615384615387L179.206644375,27.384615384615387L179.578636875,27.384615384615387L179.764633125,27.384615384615387L179.950629375,27.384615384615387L180.0436275,27.384615384615387L180.322621875,27.384615384615387L180.4621190625,27.384615384615387L180.5551171875,27.384615384615387L180.64811531249998,27.384615384615387L180.74111343750002,27.384615384615387L180.880610625,27.384615384615387L181.1131059375,27.384615384615387L181.67109468750002,27.384615384615387L181.90358999999998,27.384615384615387L182.1360853125,27.384615384615387L182.97306843750002,27.384615384615387L183.1590646875,27.384615384615387L183.29856187500002,27.384615384615387L183.53105718749998,27.384615384615387L183.8100515625,27.384615384615387L183.856550625,27.384615384615387L184.042546875,27.384615384615387L184.135545,27.384615384615387L184.414539375,27.384615384615387L184.46103843749998,27.384615384615387L184.7400328125,27.384615384615387L185.06552625,27.384615384615387L185.344520625,27.384615384615387L185.4840178125,27.384615384615387L185.76301218749998,27.384615384615387L186.274501875,27.384615384615387L186.3675,27.384615384615387L186.6929934375,27.384615384615387L186.832490625,27.384615384615387L186.9719878125,27.384615384615387L187.06498593749998,27.384615384615387L187.29748125,27.384615384615387L188.04146625,27.384615384615387L188.134464375,27.384615384615387L188.1809634375,27.384615384615387L188.36695968749999,27.384615384615387L188.41345875000002,27.384615384615387L188.599455,27.384615384615387L188.692453125,27.384615384615387L188.9714475,27.384615384615387L189.0179465625,27.384615384615387L189.34344000000002,27.384615384615387L189.90142875,27.384615384615387L190.1339240625,27.384615384615387L190.27342125,27.384615384615387L190.6919128125,27.384615384615387L190.738411875,27.384615384615387L191.01740625000002,27.384615384615387L191.0639053125,27.384615384615387L191.7148921875,27.384615384615387L191.90088843750002,27.384615384615387L191.9938865625,27.384615384615387L192.0868846875,27.384615384615387L192.22638187500002,27.384615384615387L192.3658790625,27.384615384615387L192.784370625,27.384615384615387L193.06336499999998,27.384615384615387L193.156363125,27.384615384615387L193.6678528125,27.384615384615387L193.714351875,27.384615384615387L193.99334625,27.384615384615387L194.31883968749997,27.384615384615387L195.4348171875,27.384615384615387L195.574314375,27.384615384615387L195.7138115625,27.384615384615387L195.8068096875,27.384615384615387L196.78329,27.384615384615387L196.9227871875,27.384615384615387L197.1087834375,27.384615384615387L197.1552825,27.384615384615387L197.2017815625,27.384615384615387L197.4807759375,27.384615384615387L197.62027312499998,27.384615384615387L197.71327125,27.384615384615387L198.1317628125,27.384615384615387L198.31775906250002,27.384615384615387L198.45725625,27.384615384615387L198.68975156250002,27.384615384615387L199.06174406250003,27.384615384615387L199.2477403125,27.384615384615387L199.3407384375,27.384615384615387L199.4337365625,27.384615384615387L200.038224375,27.384615384615387L200.1312225,27.384615384615387L200.2707196875,27.384615384615387L200.8287084375,27.384615384615387L201.0147046875,27.384615384615387L201.24720000000002,27.384615384615387L201.340198125,27.384615384615387L201.80518875,27.384615384615387L201.898186875,27.384615384615387L201.991185,27.384615384615387L202.5956728125,27.384615384615387L202.87466718750002,27.384615384615387L203.3396578125,27.384615384615387L203.572153125,27.384615384615387L203.8976465625,27.384615384615387L204.03714374999998,27.384615384615387L204.130141875,27.384615384615387L205.06012312500002,27.384615384615387L205.1066221875,27.384615384615387L205.15312125,27.384615384615387L205.3856165625,27.384615384615387L205.4786146875,27.384615384615387L205.7576090625,27.384615384615387L205.9436053125,27.384615384615387L206.31559781250002,27.384615384615387L206.36209687500002,27.384615384615387L206.59459218749998,27.384615384615387L206.64109125,27.384615384615387L206.8270875,27.384615384615387L207.3385771875,27.384615384615387L207.61757156250002,27.384615384615387L207.8965659375,27.384615384615387L208.036063125,27.384615384615387L208.54755281250002,27.384615384615387L208.7335490625,27.384615384615387L208.91954531250002,27.384615384615387L209.0125434375,27.384615384615387L209.24503875,27.384615384615387L209.431035,27.384615384615387L209.6635303125,27.384615384615387L209.896025625,27.384615384615387L210.08202187499998,27.384615384615387L210.1285209375,27.384615384615387L210.22151906250002,27.384615384615387L210.640010625,27.384615384615387L210.6865096875,27.384615384615387L211.197999375,27.384615384615387L211.2909975,27.384615384615387L211.33749656249998,27.384615384615387L211.66299,27.384615384615387L211.755988125,27.384615384615387L211.8024871875,27.384615384615387L211.84898625000002,27.384615384615387L211.8954853125,27.384615384615387L212.0814815625,27.384615384615387L212.1744796875,27.384615384615387L213.1974590625,27.384615384615387L213.33695625,27.384615384615387L213.98794312500002,27.384615384615387L214.2204384375,27.384615384615387L214.26693749999998,27.384615384615387L214.359935625,27.384615384615387L214.731928125,27.384615384615387L214.96442343750002,27.384615384615387L215.28991687500002,27.384615384615387L216.59189062500002,27.384615384615387L216.9173840625,27.384615384615387L217.42887375,27.384615384615387L217.6613690625,27.384615384615387L218.079860625,27.384615384615387L218.12635968749998,27.384615384615387L218.5913503125,27.384615384615387L218.63784937499997,27.384615384615387L218.6843484375,27.384615384615387L218.77734656250001,27.384615384615387L218.8703446875,27.384615384615387L218.9633428125,27.384615384615387L219.00984187499998,27.384615384615387L219.05634093749998,27.384615384615387L219.14933906250002,27.384615384615387L219.9863221875,27.384615384615387L220.2188175,27.384615384615387L220.45131281250002,27.384615384615387L220.59081,27.384615384615387L220.7303071875,27.384615384615387L220.9628025,27.384615384615387L221.4742921875,27.384615384615387L221.89278375,27.384615384615387L222.0322809375,27.384615384615387L222.07878000000002,27.384615384615387L222.49727156249998,27.384615384615387L222.7762659375,27.384615384615387L223.473751875,27.384615384615387L223.5202509375,27.384615384615387L223.7992453125,27.384615384615387L223.9852415625,27.384615384615387L224.12473874999998,27.384615384615387L224.403733125,27.384615384615387L224.49673124999998,27.384615384615387L224.9152228125,27.384615384615387L225.1012190625,27.384615384615387L225.3802134375,27.384615384615387L225.61270875,27.384615384615387L225.891703125,27.384615384615387L226.077699375,27.384615384615387L226.31019468750003,27.384615384615387L226.635688125,27.384615384615387L226.82168437500002,27.384615384615387L227.2401759375,27.384615384615387L227.379673125,27.384615384615387L227.937661875,27.384615384615387L228.2631553125,27.384615384615387L228.4026525,27.384615384615387L228.49565062500002,27.384615384615387L228.5421496875,27.384615384615387L228.7281459375,27.384615384615387L228.774645,27.384615384615387L228.8211440625,27.384615384615387L229.37913281250002,27.384615384615387L229.65812718749999,27.384615384615387L229.70462625,27.384615384615387L229.797624375,27.384615384615387L230.0301196875,27.384615384615387L230.07661875,27.384615384615387L230.2161159375,27.384615384615387L230.4951103125,27.384615384615387L230.68110656250002,27.384615384615387L231.0066,27.384615384615387L231.471590625,27.384615384615387L231.750585,27.384615384615387L231.93658125000002,27.384615384615387L232.0760784375,27.384615384615387L232.4480709375,27.384615384615387L232.5410690625,27.384615384615387L233.14555687499998,27.384615384615387L233.331553125,27.384615384615387L233.3780521875,27.384615384615387L234.261534375,27.384615384615387L234.3080334375,27.384615384615387L234.447530625,27.384615384615387L234.77302406249999,27.384615384615387L234.86602218750002,27.384615384615387L235.2380146875,27.384615384615387L235.3310128125,27.384615384615387L235.377511875,27.384615384615387L235.9819996875,27.384615384615387L236.0749978125,27.384615384615387L236.121496875,27.384615384615387L236.5399884375,27.384615384615387L236.679485625,27.384615384615387L236.77248375,27.384615384615387L237.1909753125,27.384615384615387L237.33047249999998,27.384615384615387L237.42347062500002,27.384615384615387L237.51646875,27.384615384615387L238.0744575,27.384615384615387L238.8649415625,27.384615384615387L239.097436875,27.384615384615387L239.5624275,27.384615384615387L239.84142187499998,27.384615384615387L240.1669153125,27.384615384615387L240.4459096875,27.384615384615387L240.5389078125,27.384615384615387L240.7249040625,27.384615384615387L241.0503975,27.384615384615387L241.0968965625,27.384615384615387L241.14339562499998,27.384615384615387L241.60838625,27.384615384615387L242.35237125,27.384615384615387L242.5848665625,27.384615384615387L242.817361875,27.384615384615387L243.0498571875,27.384615384615387L243.09635625,27.384615384615387L243.189354375,27.384615384615387L243.32885156249998,27.384615384615387L243.7938421875,27.384615384615387L243.9798384375,27.384615384615387L244.0263375,27.384615384615387L244.305331875,27.384615384615387L244.491328125,27.384615384615387L244.5378271875,27.384615384615387L244.9098196875,27.384615384615387L245.00281781249998,27.384615384615387L245.049316875,27.384615384615387L245.09581593750002,27.384615384615387L245.1888140625,27.384615384615387L245.32831124999998,27.384615384615387L245.3748103125,27.384615384615387L245.421309375,27.384615384615387L245.4678084375,27.384615384615387L245.6538046875,27.384615384615387L245.7468028125,27.384615384615387L245.88629999999998,27.384615384615387L245.93279906249998,27.384615384615387L245.979298125,27.384615384615387L246.02579718750002,27.384615384615387L246.1187953125,27.384615384615387L246.25829249999998,27.384615384615387L246.3047915625,27.384615384615387L246.5837859375,27.384615384615387L246.8627803125,27.384615384615387L246.95577843750002,27.384615384615387L247.095275625,27.384615384615387L247.65326437500002,27.384615384615387L248.025256875,27.384615384615387L248.07175593749997,27.384615384615387L248.118255,27.384615384615387L248.397249375,27.384615384615387L248.7227428125,27.384615384615387L248.95523812500002,27.384615384615387L249.2807315625,27.384615384615387L249.4667278125,27.384615384615387L249.699223125,27.384615384615387L249.88521937500002,27.384615384615387L250.16421375,27.384615384615387L250.25721187500002,27.384615384615387L250.3967090625,27.384615384615387L250.7222025,27.384615384615387L251.00119687499998,27.384615384615387L251.14069406250002,27.384615384615387L251.2336921875,27.384615384615387L251.28019125,27.384615384615387L251.51268656250002,27.384615384615387" style="fill: none;" fill="none"></path></g></g></g></g></g></g><g transform="translate(51, 178)" clip-path="url(#clip_1)"><clipPath id="clip_1"><rect width="278" height="22"></rect></clipPath><g><g><line x1="0" y1="0" x2="0" y2="5" style="visibility: inherit;" fill="rgb(0, 0, 0)" stroke="rgb(204, 204, 204)" stroke-width="1px"></line><line x1="23.203125" y1="0" x2="23.203125" y2="5" style="visibility: inherit;" fill="rgb(0, 0, 0)" stroke="rgb(204, 204, 204)" stroke-width="1px"></line><line x1="46.40625" y1="0" x2="46.40625" y2="5" style="visibility: inherit;" fill="rgb(0, 0, 0)" stroke="rgb(204, 204, 204)" stroke-width="1px"></line><line x1="69.609375" y1="0" x2="69.609375" y2="5" style="visibility: inherit;" fill="rgb(0, 0, 0)" stroke="rgb(204, 204, 204)" stroke-width="1px"></line><line x1="92.8125" y1="0" x2="92.8125" y2="5" style="visibility: inherit;" fill="rgb(0, 0, 0)" stroke="rgb(204, 204, 204)" stroke-width="1px"></line><line x1="116.015625" y1="0" x2="116.015625" y2="5" style="visibility: inherit;" fill="rgb(0, 0, 0)" stroke="rgb(204, 204, 204)" stroke-width="1px"></line><line x1="139.21875" y1="0" x2="139.21875" y2="5" style="visibility: inherit;" fill="rgb(0, 0, 0)" stroke="rgb(204, 204, 204)" stroke-width="1px"></line><line x1="162.421875" y1="0" x2="162.421875" y2="5" style="visibility: inherit;" fill="rgb(0, 0, 0)" stroke="rgb(204, 204, 204)" stroke-width="1px"></line><line x1="185.625" y1="0" x2="185.625" y2="5" style="visibility: inherit;" fill="rgb(0, 0, 0)" stroke="rgb(204, 204, 204)" stroke-width="1px"></line><line x1="208.828125" y1="0" x2="208.828125" y2="5" style="visibility: inherit;" fill="rgb(0, 0, 0)" stroke="rgb(204, 204, 204)" stroke-width="1px"></line><line x1="232.03125" y1="0" x2="232.03125" y2="5" style="visibility: inherit;" fill="rgb(0, 0, 0)" stroke="rgb(204, 204, 204)" stroke-width="1px"></line><line x1="255.234375" y1="0" x2="255.234375" y2="5" style="visibility: inherit;" fill="rgb(0, 0, 0)" stroke="rgb(204, 204, 204)" stroke-width="1px"></line><line x1="278.4375" y1="0" x2="278.4375" y2="5" style="visibility: inherit;" fill="rgb(0, 0, 0)" stroke="rgb(204, 204, 204)" stroke-width="1px"></line></g><g transform="translate(0, 8)"><text x="0" y="0" dx="0em" dy="0.95em" style="text-anchor: middle; visibility: hidden; font-family: Roboto, sans-serif; font-size: 12px; font-weight: 200;" fill="rgb(50, 49, 63)" stroke="none" stroke-width="1px">-500k</text><text x="23.203125" y="0" dx="0em" dy="0.95em" style="text-anchor: middle; visibility: inherit; font-family: Roboto, sans-serif; font-size: 12px; font-weight: 200;" fill="rgb(50, 49, 63)" stroke="none" stroke-width="1px">0</text><text x="46.40625" y="0" dx="0em" dy="0.95em" style="text-anchor: middle; visibility: hidden; font-family: Roboto, sans-serif; font-size: 12px; font-weight: 200;" fill="rgb(50, 49, 63)" stroke="none" stroke-width="1px">500k</text><text x="69.609375" y="0" dx="0em" dy="0.95em" style="text-anchor: middle; visibility: inherit; font-family: Roboto, sans-serif; font-size: 12px; font-weight: 200;" fill="rgb(50, 49, 63)" stroke="none" stroke-width="1px">1M</text><text x="92.8125" y="0" dx="0em" dy="0.95em" style="text-anchor: middle; visibility: hidden; font-family: Roboto, sans-serif; font-size: 12px; font-weight: 200;" fill="rgb(50, 49, 63)" stroke="none" stroke-width="1px">1.5M</text><text x="116.015625" y="0" dx="0em" dy="0.95em" style="text-anchor: middle; visibility: inherit; font-family: Roboto, sans-serif; font-size: 12px; font-weight: 200;" fill="rgb(50, 49, 63)" stroke="none" stroke-width="1px">2M</text><text x="139.21875" y="0" dx="0em" dy="0.95em" style="text-anchor: middle; visibility: hidden; font-family: Roboto, sans-serif; font-size: 12px; font-weight: 200;" fill="rgb(50, 49, 63)" stroke="none" stroke-width="1px">2.5M</text><text x="162.421875" y="0" dx="0em" dy="0.95em" style="text-anchor: middle; visibility: inherit; font-family: Roboto, sans-serif; font-size: 12px; font-weight: 200;" fill="rgb(50, 49, 63)" stroke="none" stroke-width="1px">3M</text><text x="185.625" y="0" dx="0em" dy="0.95em" style="text-anchor: middle; visibility: hidden; font-family: Roboto, sans-serif; font-size: 12px; font-weight: 200;" fill="rgb(50, 49, 63)" stroke="none" stroke-width="1px">3.5M</text><text x="208.828125" y="0" dx="0em" dy="0.95em" style="text-anchor: middle; visibility: inherit; font-family: Roboto, sans-serif; font-size: 12px; font-weight: 200;" fill="rgb(50, 49, 63)" stroke="none" stroke-width="1px">4M</text><text x="232.03125" y="0" dx="0em" dy="0.95em" style="text-anchor: middle; visibility: hidden; font-family: Roboto, sans-serif; font-size: 12px; font-weight: 200;" fill="rgb(50, 49, 63)" stroke="none" stroke-width="1px">4.5M</text><text x="255.234375" y="0" dx="0em" dy="0.95em" style="text-anchor: middle; visibility: inherit; font-family: Roboto, sans-serif; font-size: 12px; font-weight: 200;" fill="rgb(50, 49, 63)" stroke="none" stroke-width="1px">5M</text><text x="278.4375" y="0" dx="0em" dy="0.95em" style="text-anchor: middle; visibility: hidden; font-family: Roboto, sans-serif; font-size: 12px; font-weight: 200;" fill="rgb(50, 49, 63)" stroke="none" stroke-width="1px">5.5M</text></g><line x1="0" y1="0" x2="278.4375" y2="0" fill="rgb(0, 0, 0)" stroke="rgb(204, 204, 204)" stroke-width="1px"></line></g></g></g></g></svg>