<svg viewBox="0 0 330 200" xmlns="http://www.w3.org/2000/svg"><g><g><g><g><g><line x1="61.953125" y1="178" x2="56.953125" y2="178" style="visibility: inherit;" fill="rgb(0, 0, 0)" stroke="rgb(204, 204, 204)" stroke-width="1px"></line><line x1="61.953125" y1="163.16666666666666" x2="56.953125" y2="163.16666666666666" style="visibility: inherit;" fill="rgb(0, 0, 0)" stroke="rgb(204, 204, 204)" stroke-width="1px"></line><line x1="61.953125" y1="148.33333333333331" x2="56.953125" y2="148.33333333333331" style="visibility: inherit;" fill="rgb(0, 0, 0)" stroke="rgb(204, 204, 204)" stroke-width="1px"></line><line x1="61.953125" y1="133.5" x2="56.953125" y2="133.5" style="visibility: inherit;" fill="rgb(0, 0, 0)" stroke="rgb(204, 204, 204)" stroke-width="1px"></line><line x1="61.953125" y1="118.66666666666664" x2="56.953125" y2="118.66666666666664" style="visibility: inherit;" fill="rgb(0, 0, 0)" stroke="rgb(204, 204, 204)" stroke-width="1px"></line><line x1="61.953125" y1="103.83333333333331" x2="56.953125" y2="103.83333333333331" style="visibility: inherit;" fill="rgb(0, 0, 0)" stroke="rgb(204, 204, 204)" stroke-width="1px"></line><line x1="61.953125" y1="89" x2="56.953125" y2="89" style="visibility: inherit;" fill="rgb(0, 0, 0)" stroke="rgb(204, 204, 204)" stroke-width="1px"></line><line x1="61.953125" y1="74.16666666666666" x2="56.953125" y2="74.16666666666666" style="visibility: inherit;" fill="rgb(0, 0, 0)" stroke="rgb(204, 204, 204)" stroke-width="1px"></line><line x1="61.953125" y1="59.3333333333333" x2="56.953125" y2="59.3333333333333" style="visibility: inherit;" fill="rgb(0, 0, 0)" stroke="rgb(204, 204, 204)" stroke-width="1px"></line><line x1="61.953125" y1="44.5" x2="56.953125" y2="44.5" style="visibility: inherit;" fill="rgb(0, 0, 0)" stroke="rgb(204, 204, 204)" stroke-width="1px"></line><line x1="61.953125" y1="29.66666666666666" x2="56.953125" y2="29.66666666666666" style="visibility: inherit;" fill="rgb(0, 0, 0)" stroke="rgb(204, 204, 204)" stroke-width="1px"></line><line x1="61.953125" y1="14.8333333333333" x2="56.953125" y2="14.8333333333333" style="visibility: inherit;" fill="rgb(0, 0, 0)" stroke="rgb(204, 204, 204)" stroke-width="1px"></line><line x1="61.953125" y1="0" x2="56.953125" y2="0" style="visibility: inherit;" fill="rgb(0, 0, 0)" stroke="rgb(204, 204, 204)" stroke-width="1px"></line></g><g transform="translate(51.953125, 0)"><text x="0" y="178" dx="0em" dy="0.3em" style="text-anchor: end; visibility: hidden; font-family: Roboto, sans-serif; font-size: 12px; font-weight: 200;" fill="rgb(50, 49, 63)" stroke="none" stroke-width="1px">0.03</text><text x="0" y="163.16666666666666" dx="0em" dy="0.3em" style="text-anchor: end; visibility: inherit; font-family: Roboto, sans-serif; font-size: 12px; font-weight: 200;" fill="rgb(50, 49, 63)" stroke="none" stroke-width="1px">0.035</text><text x="0" y="148.33333333333331" dx="0em" dy="0.3em" style="text-anchor: end; visibility: hidden; font-family: Roboto, sans-serif; font-size: 12px; font-weight: 200;" fill="rgb(50, 49, 63)" stroke="none" stroke-width="1px">0.04</text><text x="0" y="133.5" dx="0em" dy="0.3em" style="text-anchor: end; visibility: inherit; font-family: Roboto, sans-serif; font-size: 12px; font-weight: 200;" fill="rgb(50, 49, 63)" stroke="none" stroke-width="1px">0.045</text><text x="0" y="118.66666666666664" dx="0em" dy="0.3em" style="text-anchor: end; visibility: hidden; font-family: Roboto, sans-serif; font-size: 12px; font-weight: 200;" fill="rgb(50, 49, 63)" stroke="none" stroke-width="1px">0.05</text><text x="0" y="103.83333333333331" dx="0em" dy="0.3em" style="text-anchor: end; visibility: inherit; font-family: Roboto, sans-serif; font-size: 12px; font-weight: 200;" fill="rgb(50, 49, 63)" stroke="none" stroke-width="1px">0.055</text><text x="0" y="89" dx="0em" dy="0.3em" style="text-anchor: end; visibility: hidden; font-family: Roboto, sans-serif; font-size: 12px; font-weight: 200;" fill="rgb(50, 49, 63)" stroke="none" stroke-width="1px">0.06</text><text x="0" y="74.16666666666666" dx="0em" dy="0.3em" style="text-anchor: end; visibility: inherit; font-family: Roboto, sans-serif; font-size: 12px; font-weight: 200;" fill="rgb(50, 49, 63)" stroke="none" stroke-width="1px">0.065</text><text x="0" y="59.3333333333333" dx="0em" dy="0.3em" style="text-anchor: end; visibility: hidden; font-family: Roboto, sans-serif; font-size: 12px; font-weight: 200;" fill="rgb(50, 49, 63)" stroke="none" stroke-width="1px">0.07</text><text x="0" y="44.5" dx="0em" dy="0.3em" style="text-anchor: end; visibility: inherit; font-family: Roboto, sans-serif; font-size: 12px; font-weight: 200;" fill="rgb(50, 49, 63)" stroke="none" stroke-width="1px">0.075</text><text x="0" y="29.66666666666666" dx="0em" dy="0.3em" style="text-anchor: end; visibility: hidden; font-family: Roboto, sans-serif; font-size: 12px; font-weight: 200;" fill="rgb(50, 49, 63)" stroke="none" stroke-width="1px">0.08</text><text x="0" y="14.8333333333333" dx="0em" dy="0.3em" style="text-anchor: end; visibility: inherit; font-family: Roboto, sans-serif; font-size: 12px; font-weight: 200;" fill="rgb(50, 49, 63)" stroke="none" stroke-width="1px">0.085</text><text x="0" y="0" dx="0em" dy="0.3em" style="text-anchor: end; visibility: hidden; font-family: Roboto, sans-serif; font-size: 12px; font-weight: 200;" fill="rgb(50, 49, 63)" stroke="none" stroke-width="1px">0.09</text></g><line x1="61.953125" y1="0" x2="61.953125" y2="178" fill="rgb(0, 0, 0)" stroke="rgb(204, 204, 204)" stroke-width="1px"></line></g></g><g transform="translate(61, 0)" clip-path="url(#clip_0)"><clipPath id="clip_0"><rect width="268" height="178"></rect></clipPath><g><g><g><line x1="0" y1="0" x2="0" y2="178" fill="rgb(0, 0, 0)" stroke="rgb(60, 60, 60)" stroke-width="1px" opacity="0.25"></line><line x1="22.337239583333332" y1="0" x2="22.337239583333332" y2="178" fill="rgb(0, 0, 0)" stroke="rgb(60, 60, 60)" stroke-width="1px" opacity="0.25"></line><line x1="44.674479166666664" y1="0" x2="44.674479166666664" y2="178" fill="rgb(0, 0, 0)" stroke="rgb(60, 60, 60)" stroke-width="1px" opacity="0.25"></line><line x1="67.01171875" y1="0" x2="67.01171875" y2="178" fill="rgb(0, 0, 0)" stroke="rgb(60, 60, 60)" stroke-width="1px" opacity="0.25"></line><line x1="89.34895833333333" y1="0" x2="89.34895833333333" y2="178" fill="rgb(0, 0, 0)" stroke="rgb(60, 60, 60)" stroke-width="1px" opacity="0.25"></line><line x1="111.68619791666667" y1="0" x2="111.68619791666667" y2="178" fill="rgb(0, 0, 0)" stroke="rgb(60, 60, 60)" stroke-width="1px" opacity="0.25"></line><line x1="134.0234375" y1="0" x2="134.0234375" y2="178" fill="rgb(0, 0, 0)" stroke="rgb(60, 60, 60)" stroke-width="1px" opacity="0.25"></line><line x1="156.36067708333334" y1="0" x2="156.36067708333334" y2="178" fill="rgb(0, 0, 0)" stroke="rgb(60, 60, 60)" stroke-width="1px" opacity="0.25"></line><line x1="178.69791666666666" y1="0" x2="178.69791666666666" y2="178" fill="rgb(0, 0, 0)" stroke="rgb(60, 60, 60)" stroke-width="1px" opacity="0.25"></line><line x1="201.03515625" y1="0" x2="201.03515625" y2="178" fill="rgb(0, 0, 0)" stroke="rgb(60, 60, 60)" stroke-width="1px" opacity="0.25"></line><line x1="223.37239583333334" y1="0" x2="223.37239583333334" y2="178" fill="rgb(0, 0, 0)" stroke="rgb(60, 60, 60)" stroke-width="1px" opacity="0.25"></line><line x1="245.70963541666666" y1="0" x2="245.70963541666666" y2="178" fill="rgb(0, 0, 0)" stroke="rgb(60, 60, 60)" stroke-width="1px" opacity="0.25"></line><line x1="268.046875" y1="0" x2="268.046875" y2="178" fill="rgb(0, 0, 0)" stroke="rgb(60, 60, 60)" stroke-width="1px" opacity="0.25"></line></g><g><line x1="0" y1="178" x2="268.046875" y2="178" fill="rgb(0, 0, 0)" stroke="rgb(60, 60, 60)" stroke-width="1px" opacity="0.25"></line><line x1="0" y1="163.16666666666666" x2="268.046875" y2="163.16666666666666" fill="rgb(0, 0, 0)" stroke="rgb(60, 60, 60)" stroke-width="1px" opacity="0.25"></line><line x1="0" y1="148.33333333333331" x2="268.046875" y2="148.33333333333331" fill="rgb(0, 0, 0)" stroke="rgb(60, 60, 60)" stroke-width="1px" opacity="0.25"></line><line x1="0" y1="133.5" x2="268.046875" y2="133.5" fill="rgb(0, 0, 0)" stroke="rgb(60, 60, 60)" stroke-width="1px" opacity="0.25"></line><line x1="0" y1="118.66666666666664" x2="268.046875" y2="118.66666666666664" fill="rgb(0, 0, 0)" stroke="rgb(60, 60, 60)" stroke-width="1px" opacity="0.25"></line><line x1="0" y1="103.83333333333331" x2="268.046875" y2="103.83333333333331" fill="rgb(0, 0, 0)" stroke="rgb(60, 60, 60)" stroke-width="1px" opacity="0.25"></line><line x1="0" y1="89" x2="268.046875" y2="89" fill="rgb(0, 0, 0)" stroke="rgb(60, 60, 60)" stroke-width="1px" opacity="0.25"></line><line x1="0" y1="74.16666666666666" x2="268.046875" y2="74.16666666666666" fill="rgb(0, 0, 0)" stroke="rgb(60, 60, 60)" stroke-width="1px" opacity="0.25"></line><line x1="0" y1="59.3333333333333" x2="268.046875" y2="59.3333333333333" fill="rgb(0, 0, 0)" stroke="rgb(60, 60, 60)" stroke-width="1px" opacity="0.25"></line><line x1="0" y1="44.5" x2="268.046875" y2="44.5" fill="rgb(0, 0, 0)" stroke="rgb(60, 60, 60)" stroke-width="1px" opacity="0.25"></line><line x1="0" y1="29.66666666666666" x2="268.046875" y2="29.66666666666666" fill="rgb(0, 0, 0)" stroke="rgb(60, 60, 60)" stroke-width="1px" opacity="0.25"></line><line x1="0" y1="14.8333333333333" x2="268.046875" y2="14.8333333333333" fill="rgb(0, 0, 0)" stroke="rgb(60, 60, 60)" stroke-width="1px" opacity="0.25"></line><line x1="0" y1="0" x2="268.046875" y2="0" fill="rgb(0, 0, 0)" stroke="rgb(60, 60, 60)" stroke-width="1px" opacity="0.25"></line></g></g></g><g><g><line x1="0" y1="267" x2="268.046875" y2="267" fill="rgb(0, 0, 0)" stroke="rgb(153, 153, 153)" stroke-width="1.5px"></line></g></g><g><g><line x1="22.337239583333332" y1="0" x2="22.337239583333332" y2="178" fill="rgb(0, 0, 0)" stroke="rgb(153, 153, 153)" stroke-width="1.5px"></line></g></g><g><g><g><g><g><path stroke="rgb(238, 51, 119)" stroke-width="2px" d="M34.198849895833334,-2.728563236507744L34.42266903645833,1.4933522203983203L34.73601583333333,5.5188713104119635L34.91507114583334,9.361384695145425L35.004598802083336,13.033092755187647L35.85511153645834,16.545134968468723L36.07893067708333,19.907702772252186L36.12369450520833,23.13013831736623L36.34751364583333,26.221021130087614L36.571332786458335,29.18824437459537L36.66086044270833,31.516579775050808L37.018971067708335,33.75534476614694L37.063734895833335,35.909609371246816L37.37708169270833,37.984068056432996L37.556137005208335,39.983073872075L37.959011458333336,41.91066893637665L38.31712208333334,43.152518020976586L39.033343333333335,44.883797372891124L39.21239864583333,46.55637310556264L39.480981614583335,48.17318040013956L39.66003692708333,49.7369619668791L39.74956458333333,51.250283566991044L41.62964536458333,53.16166050293608L41.67440919270833,55.013287449276774L41.76393684895833,56.80792209808383L42.032519817708334,58.71313048161647L42.435394270833335,60.56980040349663L42.524921927083334,62.3718422449522L42.56968575520833,64.12163114018304L42.70397723958333,65.82140650143846L42.972560208333334,67.4732815769012L43.375434661458335,69.07925221208146L43.50972614583333,70.64120489109435L43.55448997395834,72.16092412594534L44.00212825520833,73.64009925466952L44.76311333333333,75.08033070277746L44.852640989583335,75.90985536779856L45.47933458333333,77.0831869771413L45.70315372395834,78.22679910835457L45.792681380208336,79.34180624209907L45.926972864583334,80.4292678229566L46.28508348958333,81.49019161528817L46.55366645833333,82.52553681650049L46.64319411458333,83.53621694793584L46.77748559895833,84.52310254170021L47.04606856770833,85.48702364003607L47.269887708333336,86.42877212232773L47.717525989583336,87.34910387344425L47.98610895833333,87.92717090351263L48.254691927083336,88.49238360824624L48.43374723958333,88.90908938689141L48.702330208333336,89.3167301563297L48.791857864583335,89.24415058122436L48.836621692708334,89.17311635437997L48.92614934895833,89.10357867530459L49.01567700520833,88.97117370124344L49.06044083333333,88.84150080318773L49.28425997395833,88.80241676278078L49.329023802083334,88.76412292494463L49.731898255208336,88.72659558359013L50.00048122395833,88.85907141498645L50.09000888020833,88.98894749297969L50.313828020833334,89.11629953858657L50.53764716145833,89.86450877203312L50.62717481770834,90.59845366877508L51.164340755208336,91.43698627878688L51.47768755208333,92.25983083319728L51.52245138020833,93.06742311163609L51.61197903645833,93.86018290182247L51.70150669270833,94.63851472647063L51.74627052083333,95.40280853090239L51.83579817708333,96.15344033382414L52.37296411458333,96.89077284354747L52.50725559895833,97.61515604178005L52.686310911458335,98.3269277369552L52.82060239583333,99.02641408894227L52.95489388020833,99.71393010684831L53.133949192708336,100.38978012150847L53.178713020833335,101.05425823415254L53.35776833333333,101.70764874263838L53.581587473958336,102.16940589272897L53.626351302083336,102.62358408719216L54.07398958333333,103.07036817882545L54.253044895833334,103.50993705743441L54.38733638020833,103.94246388835286L54.745447005208334,104.36811633960409L54.92450231770833,104.78705679833047L55.05879380208333,105.19944257707805L55.103557630208336,105.60542611048596L55.148321458333335,106.00515514289866L55.46166825520833,106.59260908681779L55.730251223958334,107.17114957277504L55.81977888020833,107.74097765654358L55.86454270833333,108.30228839223386L56.043598020833336,108.85527105457759L56.222653333333334,109.40010935140549L56.35694481770834,109.93698162681818L56.40170864583334,110.4660610555247L56.44647247395834,110.98751582879105L56.62552778645833,111.50150933242134L57.02840223958333,112.0082003171637L57.20745755208333,112.50774306191673L57.25222138020833,113.000287530087L57.29698520833333,113.48597951943398L57.38651286458333,113.9649608057118L57.43127669270833,114.43736928040977L57.69985966145833,114.90333908287023L57.87891497395833,115.36300072705L57.92367880208333,115.39383989340725L58.013206458333336,115.42426711478491L58.102734114583335,115.45429057554263L58.23702559895833,115.48391824466238L58.28178942708333,115.51315788278711L58.32655325520833,115.54201704898452L58.37131708333334,115.57050310724995L58.505608567708336,115.34090267817322L58.68466388020833,115.19486417797441L58.90848302083334,115.05067804152985L58.95324684895834,114.90830931846173L58.998010677083336,114.767723932151L59.26659364583333,114.62888865260196L60.027578723958335,114.49177107031198L60.20663403645833,114.85813676968533L60.29616169270833,115.22002475777134L60.519980833333335,115.57751644782235L61.594312708333334,115.93069129132749L61.68384036458334,116.2796268367482L61.90765950520833,116.62439878615601L61.99718716145833,116.96508104985901L62.17624247395833,117.30174579910144L62.26577013020833,117.63446351691296L62.62388075520833,117.96330304718491L62.892463723958336,118.25221297958424L63.071519036458334,118.53779386966602L63.384865833333336,118.82010278701156L63.474393489583335,119.09919550416765L63.74297645833334,119.37512653328648L63.83250411458334,119.52388704390546L63.966795598958335,119.6709810599997L64.01155942708334,119.8164363566331L64.10108708333334,119.96028009505686L64.45919770833333,120.09245556507372L64.50396153645833,120.22318252721291L64.63825302083333,120.1094001118153L64.95159981770833,119.99685122964101L65.08589130208333,119.88551598486592L65.48876575520833,119.77537490724477L65.66782106770833,119.94969367581002L65.80211255208333,120.12216239499519L65.84687638020833,120.29281027630905L66.24975083333334,120.46166591950217L66.29451466145834,120.62875732849805L66.47356997395833,120.79411192682896L66.51833380208333,120.95775657259449L66.56309763020833,121.11971757295998L66.60786145833333,121.28002069821115L66.78691677083334,121.43869119537965L66.83168059895834,121.59575380145755L66.96597208333333,121.75123275621175L67.01073591145833,121.90515181461494L67.36884653645834,122.05753425890505L67.54790184895833,122.20840291028654L67.63742950520833,122.35778014028587L67.72695716145833,122.50568788177323L67.77172098958334,122.65214763966148L68.17459544270834,122.79718050129313L68.30888692708332,122.9293094926976L68.66699755208333,123.06016349719839L68.75652520833333,123.18976081622948L68.93558052083333,123.36192565824052L68.98034434895834,123.53245263588288L69.20416348958332,123.70136492673277L69.51751028645833,123.86868527310791L70.00991239583333,124.03443599223698L70.09944005208334,124.19863898614584L70.36802302083333,124.3694384879397L70.50231450520835,124.53865770741929L70.59184216145835,124.70631839185158L70.77089747395834,124.87244189129426L70.94995278645833,125.03704916762352L71.03948044270832,125.20016080331621L71.26329958333334,125.42372095109869L71.30806341145832,125.64526787628039L71.35282723958333,125.8648285420274L71.71093786458334,126.08242943216192L71.97952083333334,126.29809656176772L72.15857614583334,126.51185548751457L72.20333997395834,126.72373131771124L72.24810380208334,126.93374872209488L72.65097825520833,127.14193194136536L72.87479739583334,127.38816576154684L73.50149098958333,127.63226747724268L73.59101864583333,127.8742645408753L74.48629520833333,128.11418393559663L74.53105903645833,128.35205218527298L74.71011434895834,128.58789536421514L74.75487817708333,128.82173910666327L74.79964200520834,129.05360861603154L75.60539091145834,129.18241654633488L75.82921005208333,129.2940729641278L76.14255684895832,129.40479834336213L76.18732067708333,129.51460422605047L76.45590364583333,129.6235019642141L76.54543130208333,129.73150272377646L76.76925044270833,129.62046838788024L76.85877809895833,129.510341267111L77.12736106770834,129.5104889681513L77.93310997395834,129.7386400617226L78.02263763020834,129.9649492623141L78.11216528645834,130.18943867310423L78.47027591145833,130.41213004503192L78.60456739583333,130.63304478378436L78.96267802083332,130.85220395662122L79.09696950520834,131.0696282990357L79.23126098958333,131.28533822126045L79.81319075520834,131.49935381461984L80.12653755208333,131.71169485773473L80.39512052083333,131.91460182200092L80.57417583333333,132.11593328062668L80.66370348958333,132.2233839177572L80.70846731770834,132.3300065585266L80.97705028645834,132.43581068404896L81.42468856770833,132.54080563123964L81.64850770833334,132.6450005955469L81.69327153645833,132.7484046336201L81.82756302083334,132.85102666591985L82.09614598958333,132.90543246793564L82.18567364583333,132.95942985401732L82.31996513020833,133.0130233791173L82.45425661458334,133.06621753070775L82.58854809895833,133.11901673002592L82.63331192708334,133.17142533329073L83.43906083333334,133.3639645447011L84.11051825520833,133.5550896661173L84.78197567708332,133.74603382966788L84.91626716145834,133.93558565412522L84.96103098958334,134.12376021945076L85.05055864583333,134.3105723886297L85.09532247395833,134.4960368115596L86.03536286458333,134.68016792885538L86.08012669270833,134.8629799755733L86.30394583333333,135.0444869848556L86.43823731770833,135.22470279149792L86.61729263020833,135.40364103544124L86.70682028645832,135.58131516519035L86.88587559895832,135.7577384411609L87.06493091145833,135.9329239389557L87.24398622395833,136.00021879783608L88.36308192708334,136.05779480046277L88.40784575520833,136.11497097423444L88.90024786458332,136.17175144125687L89.25835848958333,136.228140267169L89.30312231770833,136.24699185105104L89.43741380208333,136.26571427895803L89.52694145833333,136.28430886439386L89.57170528645834,136.30277690311289L89.97457973958333,136.46777056292026L90.28792653645834,136.6316487743622L90.95938395833333,136.79442272970883L91.00414778645833,136.95610347200167L91.13843927083333,137.11670189753212L91.45178606770833,137.27622875827186L91.98895200520833,137.43469466425344L92.21277114583333,137.59211008590563L92.25753497395833,137.74848535634138L92.34706263020833,137.90383067360207L92.66040942708334,137.9180851628897L92.97375622395833,137.93862501929064L93.01852005208333,137.95903088471655L93.42139450520833,137.97930405591865L93.60044981770834,137.99944581296987L93.68997747395834,138.01945741953205L93.86903278645833,138.0393401231183L94.27190723958333,138.05909515535015L94.58525403645834,138.0787237322095L94.63001786458332,138.09822705428633L94.85383700520833,138.1176063070214L95.21194763020834,138.1500524841619L95.61482208333334,138.18229352934213L95.65958591145834,138.21433136578267L95.83864122395833,138.24616789273878L96.06246036458333,138.27780498587313L96.19675184895834,138.30924449762045L96.28627950520834,138.34048825754644L96.42057098958334,138.37153807269922L96.55486247395834,138.402395727955L96.73391778645832,138.43306298635673L97.09202841145833,138.4635415894475L97.45013903645832,138.49383325759672L97.62919434895832,138.52393969032124L97.76348583333333,138.46423852284005L97.80824966145833,138.40490027183233L98.07683263020833,138.39113822002932L98.12159645833334,138.37745933427902L98.47970708333334,138.36386286976045L98.65876239583334,138.35034809051933L98.70352622395833,138.33691426933666L98.74829005208333,138.3235606875994L98.83781770833333,138.3102866351735L98.97210919270833,138.29709141027953L99.28545598958333,138.2839743193697L99.33021981770834,138.2709346770078L99.68833044270833,138.2579718057509L99.73309427083333,138.24508503603332L100.13596872395834,138.23227370605213L100.31502403645834,138.21953716165515L100.40455169270834,138.20687475623083L100.53884317708334,138.32312584986374L100.76266231770833,138.43870405119688L100.80742614583333,138.5536151283434L100.89695380208333,138.66786478368417L100.94171763020834,138.7814586548016L100.98648145833333,138.89440231539743L101.21030059895834,139.0067012761951L101.83699419270833,139.11836098582637L102.23986864583334,139.2293868317041L102.50845161458334,139.3397841408789L102.82179841145833,139.44955818088266L102.86656223958333,139.55871416055749L103.26943669270833,139.59125666517102L103.58278348958333,139.6236169394717L103.98565794270833,139.65579649379472L104.11994942708334,139.68779682183285L104.43329622395834,139.64251810133936L104.52282388020834,139.59749021190737L104.70187919270833,139.55271109734647L105.14951747395834,139.44642388720212L105.19428130208333,139.34072078261764L105.32857278645834,139.23559703429484L105.55239192708333,139.13104794427795L105.73144723958333,139.02706886526178L106.31337700520834,139.13318586894474L106.40290466145834,139.23872734540006L106.44766848958334,139.34369791164121L106.71625145833333,139.44810213543448L106.76101528645835,139.55194453595448L106.80577911458333,139.65522958442787L106.89530677083333,139.75796170476835L107.52200036458333,139.86014527420028L108.32774927083334,139.96178462387326L108.59633223958333,140.06288403946678L108.90967903645833,140.1634477617852L109.17826200520834,140.0001915995968L109.35731731770834,139.9764486048977L109.44684497395833,139.99042940308908L109.53637263020833,140.00433687079513L109.80495559895833,140.06834808246762L109.93924708333333,140.1320252382574L110.02877473958333,140.19537091474734L110.16306622395834,140.2583876620946L110.29735770833332,140.3210780043686L110.43164919270833,140.3834444398837L110.83452364583333,140.44548944152686L110.92405130208333,140.50721545708043L111.46121723958333,140.56862490953978L111.50598106770833,140.62972019742654L111.55074489583333,140.69050369509634L112.17743848958334,140.75097775304303L112.35649380208334,140.76870484907047L112.53554911458333,140.78634213863177L112.71460442708333,140.80389029368882L112.75936825520833,140.82134997951758L112.89365973958334,140.83872185479115L112.98318739583334,140.8560065716611L113.07271505208334,140.8732047758384L113.43082567708333,140.8903171066725L113.52035333333333,140.90734419722952L113.65464481770833,140.9242866743693L113.78893630208334,140.9411451588212L113.92322778645833,140.911971565052L114.01275544270833,140.88294191544196L114.14704692708334,140.85405516169217L114.28133841145834,140.82531026565633L114.99755966145834,140.84287949432886L115.31090645833332,140.8603628478584L115.53472559895833,140.87776094563628L115.57948942708333,140.89507440111257L115.62425325520833,140.91230382186723L115.71378091145834,140.92944980968014L115.75854473958333,140.94651296060024L115.84807239583333,140.96349386501353L115.93760005208333,140.98039310771L116.11665536458332,140.99721126795015L116.29571067708333,141.0798776934908L116.51952981770833,141.1621492980548L116.60905747395834,141.24402886256186L116.92240427083333,141.3255191418821L117.01193192708334,141.40662286514004L117.05669575520834,141.4873427360151L117.28051489583333,141.56768143303728L117.45957020833333,141.6476416098789L117.68338934895833,141.72722589564228L117.77291700520833,141.8064368951435L117.81768083333334,141.8852771891923L118.26531911458333,141.96374933486786L118.31008294270833,142.041855865791L118.48913825520833,142.11959929239248L118.62342973958334,142.196982102178L118.75772122395833,142.22704521734727L118.80248505208334,142.25696949727654L118.93677653645832,142.28675588661423L118.98154036458334,142.31640532146048L119.07106802083334,142.34591872946334L119.29488716145833,142.3752970299141L119.33965098958333,142.40454113384126L119.65299778645833,142.43365194410296L119.69776161458334,142.46263035547855L119.87681692708333,142.49147725475868L119.96634458333332,142.5201935208342L120.05587223958332,142.54878002478407L120.23492755208332,142.57723762996196L120.68256583333333,142.60556719208148L120.77209348958333,142.6337695593008L120.86162114583333,142.66184557230562L120.90638497395834,142.6897960643916L121.08544028645834,142.63601377396324L121.21973177083333,142.5824709140321L121.57784239583333,142.62234364975626L121.75689770833333,142.66203962535778L122.38359130208333,142.70155999389576L122.56264661458333,142.74090589842507L122.65217427083333,142.78007847210452L122.87599341145832,142.8190788383039L122.92075723958334,142.85790811070927L123.01028489583334,142.89656739342712L123.09981255208334,142.93505778108727L123.14457638020833,142.97338035894413L123.23410403645833,143.0115362029772L123.32363169270833,143.04952637998957L123.36839552083333,143.08735194770574L123.68174231770833,143.12501395486802L123.81603380208334,143.16251344133158L124.03985294270834,143.17426562892126L124.57701888020833,143.185967309208L124.75607419270833,143.1976188012719L124.89036567708334,143.20922042151187L125.33800395833333,143.220772483674L125.60658692708333,143.2322752988787L125.65135075520834,143.24372917564878L125.74087841145834,143.25513441993598L125.87516989583332,143.26649133514806L126.00946138020834,143.27780022217493L126.05422520833334,143.2890613794149L126.09898903645833,143.30027510280038L126.54662731770834,143.26233070162945L126.59139114583333,143.2245454958103L126.63615497395834,143.18691850437926L126.72568263020834,143.1494487544129L127.26284856770835,143.15762361563614L127.30761239583333,143.1657644485445L127.35237622395834,143.17387146111466L127.39714005208333,143.18194485963272L127.75525067708334,143.1899848487109L128.15812513020833,143.197991631305L128.91911020833334,143.20596540873083L129.54580380208333,143.20048685508888L129.72485911458335,143.1950307976023L129.76962294270834,143.1895971007076L129.85915059895834,143.18418562992804L130.21726122395833,143.15967073952413L130.30678888020833,143.1352557412139L130.48584419270833,143.1109400378308L130.93348247395835,143.08672303695678L131.29159309895834,143.06260415087502L131.33635692708333,143.03858279652354L131.82875903645834,143.01465839544937L132.18686966145833,143.0662467529934L132.45545263020833,143.1176276790758L132.50021645833334,143.16880239671542L132.58974411458334,143.21977211933975L132.67927177083334,143.27053805087857L132.90309091145832,143.32110138585685L133.75360364583332,143.37146330948627L134.02218661458335,143.42162499775586L134.06695044270833,143.47158761752155L134.51458872395833,143.52135232659467L134.60411638020835,143.4623484061918L134.73840786458334,143.40357734708326L134.78317169270835,143.34503780273076L134.82793552083334,143.28672843695318L135.27557380208333,143.22864792382688L135.32033763020831,143.17079494758784L135.45462911458335,142.93668048943763L135.72321208333332,142.70347985421606L135.94703122395833,142.47118781797L136.03655888020833,142.23979919646843L136.12608653645833,142.00930884482565L136.21561419270833,141.77971165712856L136.61848864583334,141.60937391685297L136.79754395833334,141.5345479552594L136.97659927083333,141.4600103843793L137.06612692708336,141.38575957725757L137.20041841145834,141.31179391914768L137.60329286458335,141.23811180739727L137.64805669270834,141.16471165133544L137.82711200520833,141.09159187216048L138.09569497395833,141.01875090282994L138.18522263020833,140.94618718795078L138.72238856770832,141.02413587605503L138.76715239583334,141.10178891580208L138.81191622395835,141.17914794739184L138.85668005208333,141.25621459892056L138.99097153645835,141.33299048649275L139.17002684895834,141.40947721433076L139.43860981770834,141.48567637488426L139.48337364583332,141.56158954893783L139.61766513020834,141.63721830571777L139.97577575520833,141.71256420299727L140.19959489583334,141.78762878720104L140.33388638020833,141.86241359350822L140.46817786458334,141.93692014595447L140.51294169270832,142.01114995753326L140.78152466145832,142.0851045302951L140.87105231770835,142.13662402864722L141.13963528645832,142.18795315091526L141.27392677083336,142.23909292482827L141.40821825520834,142.2900443707357L141.45298208333335,142.35806404722635L141.63203739583335,142.42583408504441L142.48255013020835,142.49335582223645L142.66160544270835,142.56063058730953L142.75113309895832,142.6276596993163L142.97495223958333,142.69444446793906L143.19877138020834,142.7609861935727L143.78070114583332,142.82728616740698L143.95975645833332,142.9000973807814L144.09404794270836,142.9726449499911L144.76550536458333,143.0449302682896L145.25790747395834,143.11695471913734L145.30267130208333,143.18871967628746L145.43696278645834,143.26022650387085L145.7055457552083,143.3314765564803L146.01889255208334,143.40247117925367L146.06365638020833,143.47321170795624L146.1084202083333,143.5436994690623L146.15318403645833,143.61393577983569L146.19794786458334,143.6839219484097L146.24271169270833,143.75365927386605L146.60082231770832,143.71730863200943L147.63039036458335,143.68108681685052L147.67515419270833,143.64499316279066L147.71991802083332,143.60902700880536L148.03326481770833,143.6175997484165L148.5256669270833,143.62614230308176L148.61519458333333,143.63465482769135L149.15236052083333,143.64313747607852L149.19712434895834,143.65159040102836L149.33141583333332,143.66001375428675L149.42094348958332,143.68516538335945L149.46570731770834,143.71022930378666L149.55523497395833,143.7352059610767L150.40574770833334,143.76009579772787L150.62956684895835,143.78489925325422L150.76385833333333,143.8096167642106L150.89814981770834,143.8342487642174L151.30102427083335,143.85879568398533L151.3457880989583,143.88325795133957L151.61437106770833,143.90763599124423L151.70389872395833,143.93193022582582L151.74866255208332,143.9561410743973L152.01724552083334,143.98510414294665L152.15153700520833,144.01396811172336L152.42011997395832,144.0427334741046L152.50964763020835,144.07140072020076L152.59917528645832,144.09997033688214L152.73346677083336,144.12844280780604L153.1363412239583,144.1568186134431L153.36016036458332,144.2264244574078L153.44968802083332,144.29579471686117L153.49445184895833,144.3649305512601L153.53921567708332,144.43383311247237L154.03161778645833,144.5025035448383L154.47925606770835,144.5709429852324L154.83736669270834,144.6391525631241L155.59835177083332,144.7071334006379L155.91169856770836,144.77034896851598L155.9564623958333,144.83335318908098L156.09075388020833,144.89614708907789L156.53839216145835,144.91385190865017L156.80697513020831,144.9314978050614L156.9860304427083,144.94908506318714L157.20984958333332,144.96661396607115L157.29937723958335,144.98408479494043L157.38890489583332,145.0014978292194L157.47843255208335,145.01885334654455L157.56796020833332,145.03615162277873L157.74701552083334,145.05339293202513L157.79177934895833,145.07057754664137L157.92607083333334,145.08770573725346L158.19465380208334,145.1047777727694L158.28418145833334,145.05759205640672L158.41847294270832,145.01056058070313L158.77658356770831,144.96368261404416L158.86611122395834,144.9169574294302L158.91087505208333,144.8703843044403L158.95563888020834,144.82396252119625L159.31374950520834,144.769481618673L159.9852069270833,144.7151772353726L160.07473458333334,144.66104854184152L160.16426223958334,144.6070947138092L160.25378989583334,144.55331493214769L160.34331755208333,144.49970838283167L160.74619200520834,144.4462742568987L160.92524731770834,144.39301175040995L161.50717708333335,144.29012957493683L161.68623239583334,144.18757688032343L162.53674513020835,144.08535213743485L163.20820255208332,143.93345072112157L163.25296638020833,143.78203367069267L163.52154934895833,143.6310987485228L163.56631317708334,143.48064373073254L163.65584083333334,143.3306664070831L163.79013231770833,143.06130228950516L164.0139514583333,142.85869358986645L164.14824294270835,142.6567254248343L164.1930067708333,142.45539486229507L164.28253442708333,142.3017395697012L164.99875567708332,142.22572874673136L165.31210247395833,142.1499568680588L165.49115778645833,142.07442284649488L165.8045045833333,141.99912560142863L165.84926841145833,141.92406405877682L166.16261520833334,141.94368834567544L166.29690669270832,141.9632513749841L167.37123856770833,141.98275342333542L167.50553005208334,142.00219476570095L167.81887684895833,142.02157567540354L167.95316833333334,142.04089642412976L167.99793216145835,142.06015728194214L168.08745981770832,142.07935851729133L168.13222364583334,142.098500397028L168.44557044270832,142.11758318641483L168.53509809895834,142.1366071491382L169.02750020833332,142.2067791297L169.25131934895833,142.27673538554092L169.6541938020833,142.3464768750629L169.74372145833334,142.41600455100644L169.8332491145833,142.48531936049275L170.0123044270833,142.55442224506479L170.14659591145835,142.62331414072838L170.72852567708333,142.691995977993L170.77328950520834,142.76046868191182L170.81805333333335,142.82873317212182L171.08663630208332,142.89679036288345L171.44474692708332,142.8052252959928L171.71332989583334,142.71393753492262L171.75809372395832,142.62292586732448L171.80285755208334,142.53218908789663L171.98191286458334,142.45861814857506L172.20573200520835,142.39979049509228L172.51907880208333,142.341139808718L172.87718942708332,142.40266825081258L173.05624473958332,142.4640120951129L173.23530005208332,142.525172140556L173.32482770833334,142.58614918148197L173.59341067708334,142.64694400766697L173.72770216145832,142.70755740435598L173.81722981770835,142.7679901522951L173.90675747395832,142.82824302776413L173.99628513020835,142.8883168026079L174.13057661458333,142.94821224426843L174.35439575520834,143.00793011581598L174.89156169270834,143.0674711759802L175.11538083333332,143.12683617918108L175.33919997395833,143.18463598869351L176.14494888020835,143.2422653362986L176.32400419270834,143.2997249462533L176.45829567708333,143.35701553872408L176.6821148177083,143.41413782981567L176.95069778645833,143.47968789933662L176.99546161458335,143.5450459025904L177.17451692708335,143.61021264992516L177.26404458333332,143.67518894714422L177.53262755208334,143.73997559553794L177.57739138020833,143.80457339191526L177.84597434895835,143.868983128635L178.15932114583333,143.93320559363687L178.42790411458336,143.99724157047245L178.56219559895834,144.0610918383352L178.83077856770834,144.1247571720913L179.32318067708331,144.1882383423093L179.41270833333334,144.25153611529004L179.72605513020832,144.31236601936592L179.8603466145833,144.37302063142184L179.99463809895835,144.43350067784286L180.08416575520832,144.49380688101317L180.30798489583333,144.55393995934364L181.02420614583335,144.61390062729905L181.11373380208332,144.6736895954253L181.15849763020833,144.71950322496426L181.33755294270833,144.7651859942932L181.38231677083334,144.8107384405217L181.56137208333334,144.85616109782944L181.65089973958334,144.9014544974858L181.91948270833333,144.9454228138457L181.96424653645832,144.9892663223948L182.27759333333333,145.03298553194568L182.81475927083335,145.05487649835638L183.03857841145833,145.07670555621698L183.17286989583334,145.09847295689738L183.57574434895832,145.12017895041097L183.62050817708334,145.14182378542378L183.88909114583333,145.16340770926365L183.93385497395832,145.18493096792906L184.56054856770834,145.20639380609816L184.73960388020834,145.22779646713772L184.82913153645833,145.24913919311172L184.91865919270833,145.27042222479005L185.05295067708334,145.29164580165744L185.18724216145833,145.31281016192156L185.59011661458334,145.29376970737144L185.85869958333333,145.27478224936186L185.94822723958333,145.25584757640087L186.44062934895834,145.23696547811804L186.48539317708335,145.21813574525726L186.75397614583332,145.19935816966895L187.06732294270833,145.1707855787437L188.14165481770831,145.2123273057678L188.27594630208336,145.25375437878188L188.41023778645834,145.29506725114607L188.4997654427083,145.33626637383836L189.43980583333334,145.37735219547022L189.57409731770832,145.41832516230227L189.75315263020832,145.4591857182595L189.79791645833333,145.49993430494675L189.84268028645835,145.54057136166344L190.1112632552083,145.58109732541908L190.24555473958333,145.62151263094788L190.33508239583333,145.64645531475563L190.73795684895833,145.6796973756409L190.91701216145833,145.7128489880545L191.05130364583334,145.74591050412263L191.27512278645835,145.77888227414994L191.63323341145835,145.81176464663147L191.81228872395835,145.84455796826435L191.90181638020834,145.87726258395932L191.99134403645834,145.90987883685207L192.57327380208332,145.94240706831508L192.66280145833335,145.97484761796844L192.79709294270833,146.00720082369133L193.33425888020832,146.0393987015358L193.51331419270835,146.0715100895511L193.73713333333333,146.10353531975588L193.82666098958333,146.11203243134926L194.27429927083335,146.12050679695665L194.36382692708332,146.12895850356483L194.45335458333335,146.1373876377188L195.03528434895833,146.1457942855243L195.30386731770835,146.187371793212L195.75150559895832,146.22883863854742L195.97532473958333,146.27019524207893L196.28867153645834,146.31300170378367L196.42296302083332,146.35569462137082L196.51249067708335,146.3982744247226L197.40776723958334,146.44074154155928L197.45253106770832,146.48309639745264L197.49729489583333,146.52533941583954L197.72111403645835,146.56747101803546L197.81064169270832,146.60949162324735L198.07922466145834,146.65140164858713L198.25827997395834,146.69320150908476L198.61639059895833,146.73489161770112L198.66115442708335,146.77647238534092L198.88497356770833,146.80475231390233L198.92973739583334,146.8329582383292L199.10879270833334,146.8725994989994L199.60119481770832,146.9121372559877L199.86977778645834,146.95157189442767L200.13836075520834,146.9909037975497L200.27265223958332,147.03013334669248L200.76505434895833,147.06926092131474L200.94410966145836,147.1082868990069L201.12316497395835,147.14721165550242L201.21269263020832,147.18603556468926L201.43651177083333,147.22475899862127L201.61556708333333,147.25864396230244L201.83938622395834,147.26174742406693L202.06320536458333,147.26484288058234L202.24226067708332,147.2679303612392L202.28702450520834,147.2710098952849L202.37655216145833,147.2740815118243L202.77942661458331,147.3169541946326L202.82419044270833,147.35971689140496L203.31659255208334,147.40237000351772L203.40612020833333,147.44491393040195L203.45088403645832,147.4873490695556L203.76423083333336,147.52967581655474L203.85375848958333,147.5718945650656L203.89852231770834,147.61400570685575L203.94328614583335,147.65600963180574L203.9880499739583,147.6979067279204L204.16710528645834,147.73969738134002L204.25663294270834,147.78138197635178L205.24143716145832,147.7990057595337L205.3757286458333,147.81658491186792L206.00242223958332,147.83411959391117L206.22624138020834,147.85160996545338L206.27100520833332,147.869056185522L206.36053286458335,147.88645841238684L206.71864348958334,147.90381680356444L206.94246263020835,147.92113151582242L207.25580942708334,147.93840270518416L208.50919661458335,147.94616859139046L208.82254341145833,147.844026758549L209.31494552083333,147.7421408611563L209.53876466145834,147.64050998927752L209.94163911458335,147.53913323727272L209.98640294270834,147.43800970377154L210.43404122395833,147.33713849164798L210.47880505208332,147.22908138176217L210.52356888020833,147.1212933303192L210.61309653645833,147.01377338739616L210.70262419270833,146.90652060752234L210.79215184895835,146.83310135442707L210.8369156770833,146.75986415273485L210.88167950520833,146.68680836267745L210.97120716145835,146.61393334747126L211.77695606770834,146.5412384732994L212.00077520833335,146.46872310929493L212.22459434895833,146.3963866275235L212.35888583333335,146.32422840296616L212.49317731770833,146.37999497666945L212.71699645833334,146.43562440829274L213.20939856770835,146.49111717536778L213.61227302083336,146.54647375321937L213.74656450520834,146.60169461497813L213.79132833333335,146.65678023159313L214.19420278645833,146.71173107184435L214.46278575520833,146.7665476023554L215.13424317708333,146.77633040226814L215.17900700520835,146.786089339813L215.44758997395832,146.79582449732536L215.6266452864583,146.80553595676358L215.76093677083333,146.81522379971102L216.02951973958332,146.82488810737846L216.11904739583332,146.8577196666286L216.52192184895833,146.89047162671838L216.70097716145833,146.92314426044317L216.96956013020835,146.95573783935782L217.19337927083333,146.98825263378353L217.46196223958333,147.02068891281488L217.64101755208333,147.0530469443269L217.86483669270834,147.08532699498187L218.17818348958335,147.1175293302362L218.35723880208334,147.14965421434732L218.76011325520832,147.1767142754573L218.89440473958334,147.2037093825177L219.43157067708336,147.2555346969578L219.74491747395834,147.3072358579381L219.87920895833332,147.35881328527694L219.96873661458335,147.410267396909L220.01350044270833,147.46159860889628L220.19255575520833,147.5128073354381L220.23731958333335,147.56389398888192L220.28208341145833,147.61485897973344L220.81924934895835,147.66570271666683L221.08783231770832,147.71642560653527L221.13259614583333,147.7670280543807L221.22212380208333,147.81751046344417L221.44594294270834,147.86787323517567L221.49070677083333,147.9181167692442L221.62499825520834,147.9682414635475L221.89358122395834,148.01824771422204L222.07263653645833,148.05771825254612L222.38598333333334,148.09709570334138L222.83362161458334,148.13221997232918L223.10220458333333,148.16726156396305L223.28125989583333,148.2022207523389L223.41555138020834,148.23709781034708L223.77366200520834,148.27189300967947L223.8631896614583,148.30660662083565L224.44511942708334,148.34123891312973L224.62417473958334,148.3757901546968L224.66893856770835,148.41026061249912L225.51945130208333,148.44076195324865L225.56421513020834,148.47119211521024L225.69850661458332,148.5015513320737L226.01185341145833,148.50818360562985L226.10138106770833,148.5148004460133L226.45949169270835,148.52140190373038L226.54901934895832,148.5279880290681L226.59378317708334,148.5345588720955L227.17571294270834,148.54111448266477L227.26524059895834,148.5476549104125L227.31000442708333,148.55418020476074L227.71287888020834,148.54628561228012L227.84717036458335,148.5384092521956L227.93669802083332,148.53055106534768L228.33957247395833,148.52271099283112L228.47386395833334,148.51488897599396L228.56339161458334,148.50708495643607L228.65291927083334,148.49929887600777L229.19008520833333,148.49153067680845L229.95107028645833,148.44748770231922L230.17488942708334,148.40354568744837L230.62252770833334,148.38778021075734L230.89111067708333,148.3720508062925L231.20445747395834,148.3563573582381L231.47304044270834,148.34069975127164L231.56256809895834,148.3250778705608L231.74162341145833,148.36826277696176L232.05497020833334,148.41134932883907L232.09973403645836,148.45433784032605L232.14449786458331,148.4972286242258L232.59213614583334,148.54002199201858L233.30835739583335,148.58271825386848L233.5321765364583,148.6253177186307L233.75599567708332,148.66782069385812L233.97981481770833,148.71022748580847L234.02457864583334,148.7525383994509L234.11410630208331,148.79475373847296L234.24839778645833,148.83687380528707L234.69603606770835,148.84474406563535L234.87509138020835,148.85259659641437L234.91985520833333,148.8604314535498L235.18843817708333,148.8335994232732L235.36749348958332,148.8068276748079L235.41225731770834,148.77784424585207L235.77036794270833,148.75637623514018L235.85989559895833,148.8005611846415L235.90465942708335,148.84464722280958L235.94942325520833,148.88863465941273L236.03895091145833,148.93252380293353L236.1732423958333,148.97631496057565L236.21800622395833,149.02000843827042L236.26277005208334,149.0636045406836L236.30753388020835,149.10710357122153L236.48658919270835,149.150505832038L236.57611684895832,149.19381162404056L236.71040833333333,149.23702124689697L236.75517216145832,149.28013499904154L236.79993598958333,149.32315317768152L236.84469981770835,149.3660760788034L236.93422747395832,149.40890399717915L237.06851895833333,149.4516372263725L237.11328278645834,149.49427605874507L237.38186575520834,149.5413738436937L237.65044872395833,149.58836777298205L237.73997638020833,149.6352581663083L237.87426786458335,149.68204534206674L238.41143380208334,149.72872961735482L238.76954442708333,149.77531130797922L238.81430825520832,149.8217907284628L238.85907208333333,149.8681681920511L239.12765505208336,149.9144440107186L239.44100184895834,149.96061849517537L239.66482098958335,150.0066919548734L239.97816778645833,150.01842206612383L240.15722309895833,150.03012655750163L240.38104223958334,150.00890795243873L240.56009755208333,150.0484226432718L240.82868052083333,150.08785125242437L240.91820817708336,150.12719404121066L241.05249966145834,150.16645126989417L241.36584645833332,150.20562319769323L241.63442942708332,150.24471008278604L241.76872091145833,150.28371218231592L241.85824856770833,150.3226297523965L241.90301239583334,150.36146304811703L242.12683153645835,150.40383762192582" style="fill: none;" fill="none"></path></g></g></g></g><g opacity="0.2"><g><g><g><path stroke="rgb(238, 51, 119)" stroke-width="2px" d="M26.32041614583333,-707.5415200789769L26.678526770833333,19.280355741580316L26.991873567708332,19.280355741580316L27.349984192708334,19.280355741580316L27.484275677083335,19.280355741580316L27.529039505208335,19.280355741580316L27.842386302083334,19.280355741580316L28.066205442708334,19.280355741580316L28.424316067708332,19.280355741580316L29.00624583333333,19.280355741580316L29.498647942708335,9.526925851901359L29.722467083333335,9.526925851901359L29.856758567708333,175.37855661908785L30.25963302083333,175.37855661908785L30.304396848958334,175.37855661908785L30.752035130208334,175.37855661908785L30.975854270833334,175.37855661908785L31.065381927083333,175.37855661908785L31.110145755208336,175.37855661908785L31.289201067708333,175.37855661908785L31.64731169270833,175.37855661908785L32.00542231770833,175.37855661908785L32.05018614583334,175.37855661908785L32.27400528645833,175.37855661908785L32.76640739583333,134.93980946143466L33.03499036458333,134.93980946143466L33.25880950520833,134.93980946143466L33.39310098958333,134.93980946143466L33.93026692708333,171.00481534500915L34.198849895833334,171.00481534500915L34.42266903645833,171.00481534500915L34.73601583333333,171.00481534500915L34.91507114583334,171.00481534500915L35.004598802083336,171.00481534500915L35.85511153645834,171.00481534500915L36.07893067708333,171.00481534500915L36.12369450520833,171.00481534500915L36.34751364583333,171.00481534500915L36.571332786458335,171.00481534500915L36.66086044270833,145.01263332366943L37.018971067708335,145.01263332366943L37.063734895833335,145.01263332366943L37.37708169270833,145.01263332366943L37.556137005208335,145.01263332366943L37.959011458333336,145.01263332366943L38.31712208333334,110.74992673595744L39.033343333333335,140.75760935246944L39.21239864583333,140.75760935246944L39.480981614583335,140.75760935246944L39.66003692708333,140.75760935246944L39.74956458333333,140.75760935246944L41.62964536458333,168.00888883074123L41.67440919270833,168.00888883074123L41.76393684895833,168.00888883074123L42.032519817708334,178.5508294974764L44.76311333333333,179.0924564699332L44.852640989583335,136.58611408869425L45.47933458333333,163.99381925165653L45.70315372395834,163.99381925165653L45.792681380208336,163.99381925165653L45.926972864583334,163.99381925165653L46.28508348958333,163.99381925165653L46.55366645833333,163.99381925165653L46.64319411458333,163.99381925165653L46.77748559895833,163.99381925165653L47.04606856770833,163.99381925165653L47.269887708333336,163.99381925165653L47.717525989583336,163.99381925165653L47.98610895833333,136.59761890272299L48.254691927083336,136.59761890272299L48.43374723958333,124.75572819014388L48.702330208333336,124.75572819014388L48.791857864583335,82.86811492840448L48.836621692708334,82.86811492840448L48.92614934895833,82.86811492840448L49.01567700520833,76.9779816965262L49.06044083333333,76.9779816965262L49.28425997395833,85.19122533003488L49.329023802083334,85.19122533003488L49.731898255208336,85.19122533003488L50.00048122395833,101.45919814209142L50.09000888020833,101.45919814209142L50.313828020833334,101.45919814209142L50.53764716145833,163.05553038418293L50.62717481770834,163.05553038418293L51.164340755208336,174.97416406373182L51.47768755208333,174.97416406373182L51.52245138020833,174.97416406373182L51.61197903645833,174.97416406373182L51.70150669270833,174.97416406373182L51.74627052083333,174.97416406373182L51.83579817708333,174.97416406373182L52.37296411458333,174.97416406373182L52.50725559895833,174.97416406373182L52.686310911458335,174.97416406373182L52.82060239583333,174.97416406373182L52.95489388020833,174.97416406373182L53.133949192708336,174.97416406373182L53.178713020833335,174.97416406373182L53.35776833333333,174.97416406373182L53.581587473958336,154.35705104966956L53.626351302083336,154.35705104966956L54.07398958333333,154.35705104966956L54.253044895833334,154.35705104966956L54.38733638020833,154.35705104966956L54.745447005208334,154.35705104966956L54.92450231770833,154.35705104966956L55.05879380208333,154.35705104966956L55.103557630208336,154.35705104966956L55.148321458333335,154.35705104966956L55.46166825520833,178.16783302277327L57.87891497395833,178.16783302277327L57.92367880208333,119.63407453894615L58.013206458333336,119.63407453894615L58.102734114583335,119.63407453894615L58.23702559895833,119.63407453894615L58.28178942708333,119.63407453894615L58.32655325520833,119.63407453894615L58.37131708333334,119.63407453894615L58.505608567708336,82.39149954915047L58.68466388020833,94.11229684452215L58.90848302083334,94.11229684452215L58.95324684895834,94.11229684452215L58.998010677083336,94.11229684452215L59.26659364583333,94.11229684452215L60.027578723958335,94.11229684452215L60.20663403645833,169.6217841853698L60.29616169270833,169.6217841853698L60.519980833333335,169.6217841853698L61.594312708333334,169.6217841853698L61.68384036458334,169.6217841853698L61.90765950520833,169.6217841853698L61.99718716145833,169.6217841853698L62.17624247395833,169.6217841853698L62.26577013020833,169.6217841853698L62.62388075520833,169.6217841853698L62.892463723958336,163.88125774264336L63.071519036458334,163.88125774264336L63.384865833333336,163.88125774264336L63.474393489583335,163.88125774264336L63.74297645833334,163.88125774264336L63.83250411458334,143.64274262885252L63.966795598958335,143.64274262885252L64.01155942708334,143.64274262885252L64.10108708333334,143.64274262885252L64.45919770833333,141.96413389841715L64.50396153645833,141.96413389841715L64.63825302083333,101.09171824653941L64.95159981770833,101.09171824653941L65.08589130208333,101.09171824653941L65.48876575520833,101.09171824653941L65.66782106770833,149.66463416318098L65.80211255208333,149.66463416318098L65.84687638020833,149.66463416318098L66.24975083333334,149.66463416318098L66.29451466145834,149.66463416318098L66.47356997395833,149.66463416318098L66.51833380208333,149.66463416318098L66.56309763020833,149.66463416318098L66.60786145833333,149.66463416318098L66.78691677083334,149.66463416318098L66.83168059895834,149.66463416318098L66.96597208333333,149.66463416318098L67.01073591145833,149.66463416318098L67.36884653645834,149.66463416318098L67.54790184895833,149.66463416318098L67.63742950520833,149.66463416318098L67.72695716145833,149.66463416318098L67.77172098958334,149.66463416318098L68.17459544270834,149.66463416318098L68.30888692708332,147.51383073131242L68.66699755208333,147.51383073131242L68.75652520833333,147.51383073131242L68.93558052083333,155.81515637040138L68.98034434895834,155.81515637040138L69.20416348958332,155.81515637040138L69.51751028645833,155.81515637040138L70.00991239583333,155.81515637040138L70.09944005208334,155.81515637040138L70.36802302083333,157.39382462700206L70.50231450520835,157.39382462700206L70.59184216145835,157.39382462700206L70.77089747395834,157.39382462700206L70.94995278645833,157.39382462700206L71.03948044270832,157.39382462700206L71.26329958333334,169.7274383852879L71.30806341145832,169.7274383852879L71.35282723958333,169.7274383852879L71.71093786458334,169.7274383852879L71.97952083333334,169.7274383852879L72.15857614583334,169.7274383852879L72.20333997395834,169.7274383852879L72.24810380208334,169.7274383852879L72.65097825520833,169.7274383852879L72.87479739583334,177.95283888280392L73.50149098958333,177.95283888280392L73.59101864583333,177.95283888280392L74.48629520833333,177.95283888280392L74.53105903645833,177.95283888280392L74.71011434895834,177.95283888280392L74.75487817708333,177.95283888280392L74.79964200520834,177.95283888280392L75.60539091145834,156.44838531315327L75.82921005208333,153.01733148097992L76.14255684895832,153.01733148097992L76.18732067708333,153.01733148097992L76.45590364583333,153.01733148097992L76.54543130208333,153.01733148097992L76.76925044270833,105.59359286725521L76.85877809895833,105.59359286725521L77.12736106770834,129.54268127183119L77.93310997395834,179.6436984166503L80.12653755208333,179.6436984166503L80.39512052083333,177.87394083539644L80.57417583333333,177.87394083539644L80.66370348958333,156.727363238732L80.70846731770834,156.727363238732L80.97705028645834,156.727363238732L81.42468856770833,156.727363238732L81.64850770833334,156.727363238732L81.69327153645833,156.727363238732L81.82756302083334,156.727363238732L82.09614598958333,145.60533570249873L82.18567364583333,145.60533570249873L82.31996513020833,145.60533570249873L82.45425661458334,145.60533570249873L82.58854809895833,145.60533570249873L82.63331192708334,145.60533570249873L83.43906083333334,179.19044631967944L87.06493091145833,179.48334385454655L87.24398622395833,152.77995213369528L88.36308192708334,150.45732800662518L88.40784575520833,150.45732800662518L88.90024786458332,150.45732800662518L89.25835848958333,150.45732800662518L89.30312231770833,141.01808674136797L89.43741380208333,141.01808674136797L89.52694145833333,141.01808674136797L89.57170528645834,141.01808674136797L89.97457973958333,178.7171022420128L92.34706263020833,178.7171022420128L92.66040942708334,141.67360695203143L92.97375622395833,143.36521247526008L93.01852005208333,143.36521247526008L93.42139450520833,143.36521247526008L93.60044981770834,143.36521247526008L93.68997747395834,143.36521247526008L93.86903278645833,143.36521247526008L94.27190723958333,143.36521247526008L94.58525403645834,143.36521247526008L94.63001786458332,143.36521247526008L94.85383700520833,143.36521247526008L95.21194763020834,146.95961035291353L95.61482208333334,146.95961035291353L95.65958591145834,146.95961035291353L95.83864122395833,146.95961035291353L96.06246036458333,146.95961035291353L96.19675184895834,146.95961035291353L96.28627950520834,146.95961035291353L96.42057098958334,146.95961035291353L96.55486247395834,146.95961035291353L96.73391778645832,146.95961035291353L97.09202841145833,146.95961035291353L97.45013903645832,146.95961035291353L97.62919434895832,146.95961035291353L97.76348583333333,121.69335888822872L97.80824966145833,121.69335888822872L98.07683263020833,134.5054336587588L98.12159645833334,134.5054336587588L98.47970708333334,134.5054336587588L98.65876239583334,134.5054336587588L98.70352622395833,134.5054336587588L98.74829005208333,134.5054336587588L98.83781770833333,134.5054336587588L98.97210919270833,134.5054336587588L99.28545598958333,134.5054336587588L99.33021981770834,134.5054336587588L99.68833044270833,134.5054336587588L99.73309427083333,134.5054336587588L100.13596872395834,134.5054336587588L100.31502403645834,134.5054336587588L100.40455169270834,134.5054336587588L100.53884317708334,172.38749285042286L100.76266231770833,172.38749285042286L100.80742614583333,172.38749285042286L100.89695380208333,172.38749285042286L100.94171763020834,172.38749285042286L100.98648145833333,172.38749285042286L101.21030059895834,172.38749285042286L101.83699419270833,172.38749285042286L102.23986864583334,172.38749285042286L102.50845161458334,172.38749285042286L102.82179841145833,172.38749285042286L102.86656223958333,172.38749285042286L103.26943669270833,149.4011728167534L103.58278348958333,149.4011728167534L103.98565794270833,149.4011728167534L104.11994942708334,149.4011728167534L104.43329622395834,125.86713080108166L104.52282388020834,125.86713080108166L104.70187919270833,125.86713080108166L105.14951747395834,106.88878515859443L105.19428130208333,106.88878515859443L105.32857278645834,106.88878515859443L105.55239192708333,106.88878515859443L105.73144723958333,106.88878515859443L106.31337700520834,172.00547997653484L106.40290466145834,172.00547997653484L106.44766848958334,172.00547997653484L106.71625145833333,172.00547997653484L106.76101528645835,172.00547997653484L106.80577911458333,172.00547997653484L106.89530677083333,172.00547997653484L107.52200036458333,172.00547997653484L108.32774927083334,172.00547997653484L108.59633223958333,172.00547997653484L108.90967903645833,172.00547997653484L109.17826200520834,88.19611476858455L109.35731731770834,132.4261899491151L109.44684497395833,144.44583611687023L109.53637263020833,144.44583611687023L109.80495559895833,160.5545208553473L109.93924708333333,160.5545208553473L110.02877473958333,160.5545208553473L110.16306622395834,160.5545208553473L110.29735770833332,160.5545208553473L110.43164919270833,160.5545208553473L110.83452364583333,160.5545208553473L110.92405130208333,160.5545208553473L111.46121723958333,160.5545208553473L111.50598106770833,160.5545208553473L111.55074489583333,160.5545208553473L112.17743848958334,160.5545208553473L112.35649380208334,146.58573152621585L112.53554911458333,146.58573152621585L112.71460442708333,146.58573152621585L112.75936825520833,146.58573152621585L112.89365973958334,146.58573152621585L112.98318739583334,146.58573152621585L113.07271505208334,146.58573152621585L113.43082567708333,146.58573152621585L113.52035333333333,146.58573152621585L113.65464481770833,146.58573152621585L113.78893630208334,146.58573152621585L113.92322778645833,131.1246429334084L114.01275544270833,131.1246429334084L114.14704692708334,131.1246429334084L114.28133841145834,131.1246429334084L114.99755966145834,146.78366737564403L115.31090645833332,146.78366737564403L115.53472559895833,146.78366737564403L115.57948942708333,146.78366737564403L115.62425325520833,146.78366737564403L115.71378091145834,146.78366737564403L115.75854473958333,146.78366737564403L115.84807239583333,146.78366737564403L115.93760005208333,146.78366737564403L116.11665536458332,146.78366737564403L116.29571067708333,169.57622910042602L116.51952981770833,169.57622910042602L116.60905747395834,169.57622910042602L116.92240427083333,169.57622910042602L117.01193192708334,169.57622910042602L117.05669575520834,169.57622910042602L117.28051489583333,169.57622910042602L117.45957020833333,169.57622910042602L117.68338934895833,169.57622910042602L117.77291700520833,169.57622910042602L117.81768083333334,169.57622910042602L118.26531911458333,169.57622910042602L118.31008294270833,169.57622910042602L118.48913825520833,169.57622910042602L118.62342973958334,169.57622910042602L118.75772122395833,152.88324127097923L118.80248505208334,152.88324127097923L118.93677653645832,152.88324127097923L118.98154036458334,152.88324127097923L119.07106802083334,152.88324127097923L119.29488716145833,152.88324127097923L119.33965098958333,152.88324127097923L119.65299778645833,152.88324127097923L119.69776161458334,152.88324127097923L119.87681692708333,152.88324127097923L119.96634458333332,152.88324127097923L120.05587223958332,152.88324127097923L120.23492755208332,152.88324127097923L120.68256583333333,152.88324127097923L120.77209348958333,152.88324127097923L120.86162114583333,152.88324127097923L120.90638497395834,152.88324127097923L121.08544028645834,122.9876891473929L121.21973177083333,122.9876891473929L121.57784239583333,157.2395871778329L121.75689770833333,157.2395871778329L122.38359130208333,157.2395871778329L122.56264661458333,157.2395871778329L122.65217427083333,157.2395871778329L122.87599341145832,157.2395871778329L122.92075723958334,157.2395871778329L123.01028489583334,157.2395871778329L123.09981255208334,157.2395871778329L123.14457638020833,157.2395871778329L123.23410403645833,157.2395871778329L123.32363169270833,157.2395871778329L123.36839552083333,157.2395871778329L123.68174231770833,157.2395871778329L123.81603380208334,157.2395871778329L124.03985294270834,147.59329241514206L124.57701888020833,147.59329241514206L124.75607419270833,147.59329241514206L124.89036567708334,147.59329241514206L125.33800395833333,147.59329241514206L125.60658692708333,147.59329241514206L125.65135075520834,147.59329241514206L125.74087841145834,147.59329241514206L125.87516989583332,147.59329241514206L126.00946138020834,147.59329241514206L126.05422520833334,147.59329241514206L126.09898903645833,147.59329241514206L126.54662731770834,128.7124669253826L126.59139114583333,128.7124669253826L126.63615497395834,128.7124669253826L126.72568263020834,128.7124669253826L127.26284856770835,146.31238996485868L127.30761239583333,146.31238996485868L127.35237622395834,146.31238996485868L127.39714005208333,146.31238996485868L127.75525067708334,146.31238996485868L128.15812513020833,146.31238996485868L128.91911020833334,146.31238996485868L129.54580380208333,141.06281294922033L129.72485911458335,141.06281294922033L129.76962294270834,141.06281294922033L129.85915059895834,141.06281294922033L130.21726122395833,133.5346086025238L130.30678888020833,133.5346086025238L130.48584419270833,133.5346086025238L130.93348247395835,133.5346086025238L131.29159309895834,133.5346086025238L131.33635692708333,133.5346086025238L131.82875903645834,133.5346086025238L132.18686966145833,163.5392409513394L132.45545263020833,163.5392409513394L132.50021645833334,163.5392409513394L132.58974411458334,163.5392409513394L132.67927177083334,163.5392409513394L132.90309091145832,163.5392409513394L133.75360364583332,163.5392409513394L134.02218661458335,163.5392409513394L134.06695044270833,163.5392409513394L134.51458872395833,163.5392409513394L134.60411638020835,119.69277008871236L134.73840786458334,119.69277008871236L134.78317169270835,119.69277008871236L134.82793552083334,119.69277008871236L135.27557380208333,119.69277008871236L135.32033763020831,119.69277008871236L135.45462911458335,47.7889533539613L135.72321208333332,47.7889533539613L135.94703122395833,47.7889533539613L136.03655888020833,47.7889533539613L136.12608653645833,47.7889533539613L136.21561419270833,47.7889533539613L136.61848864583334,71.77736368775368L136.79754395833334,110.81466756264368L136.97659927083333,110.81466756264368L137.06612692708336,110.81466756264368L137.20041841145834,110.81466756264368L137.60329286458335,110.81466756264368L137.64805669270834,110.81466756264368L137.82711200520833,110.81466756264368L138.09569497395833,110.81466756264368L138.18522263020833,110.81466756264368L138.72238856770832,173.43722700575987L138.76715239583334,173.43722700575987L138.81191622395835,173.43722700575987L138.85668005208333,173.43722700575987L138.99097153645835,173.43722700575987L139.17002684895834,173.43722700575987L139.43860981770834,173.43722700575987L139.48337364583332,173.43722700575987L139.61766513020834,173.43722700575987L139.97577575520833,173.43722700575987L140.19959489583334,173.43722700575987L140.33388638020833,173.43722700575987L140.46817786458334,173.43722700575987L140.51294169270832,173.43722700575987L140.78152466145832,173.43722700575987L140.87105231770835,164.00730231901008L141.13963528645832,164.00730231901008L141.27392677083336,164.00730231901008L141.40821825520834,164.00730231901008L141.45298208333335,171.38934800525504L141.63203739583335,171.38934800525504L142.48255013020835,171.38934800525504L142.66160544270835,171.38934800525504L142.75113309895832,171.38934800525504L142.97495223958333,171.38934800525504L143.19877138020834,171.38934800525504L143.78070114583332,171.38934800525504L143.95975645833332,174.30857575933138L144.09404794270836,174.30857575933138L144.76550536458333,174.30857575933138L145.25790747395834,174.30857575933138L145.30267130208333,174.30857575933138L145.43696278645834,174.30857575933138L145.7055457552083,174.30857575933138L146.01889255208334,174.30857575933138L146.06365638020833,174.30857575933138L146.1084202083333,174.30857575933138L146.15318403645833,174.30857575933138L146.19794786458334,174.30857575933138L146.24271169270833,174.30857575933138L146.60082231770832,127.77014418939748L147.63039036458335,127.77014418939748L147.67515419270833,127.77014418939748L147.71991802083332,127.77014418939748L148.03326481770833,147.39767742156982L148.5256669270833,147.39767742156982L148.61519458333333,147.39767742156982L149.15236052083333,147.39767742156982L149.19712434895834,147.39767742156982L149.33141583333332,147.39767742156982L149.42094348958332,154.85957160095373L149.46570731770834,154.85957160095373L149.55523497395833,154.85957160095373L150.40574770833334,154.85957160095373L150.62956684895835,154.85957160095373L150.76385833333333,154.85957160095373L150.89814981770834,154.85957160095373L151.30102427083335,154.85957160095373L151.3457880989583,154.85957160095373L151.61437106770833,154.85957160095373L151.70389872395833,154.85957160095373L151.74866255208332,154.85957160095373L152.01724552083334,157.04460213085014L152.15153700520833,157.04460213085014L152.42011997395832,157.04460213085014L152.50964763020835,157.04460213085014L152.59917528645832,157.04460213085014L152.73346677083336,157.04460213085014L153.1363412239583,157.04460213085014L153.36016036458332,175.8780766353011L153.44968802083332,175.8780766353011L153.49445184895833,175.8780766353011L153.53921567708332,175.8780766353011L154.03161778645833,175.8780766353011L154.47925606770835,175.8780766353011L154.83736669270834,175.8780766353011L155.59835177083332,175.8780766353011L155.91169856770836,173.7904612670342L155.9564623958333,173.7904612670342L156.09075388020833,173.7904612670342L156.53839216145835,153.07018068432808L156.80697513020831,153.07018068432808L156.9860304427083,153.07018068432808L157.20984958333332,153.07018068432808L157.29937723958335,153.07018068432808L157.38890489583332,153.07018068432808L157.47843255208335,153.07018068432808L157.56796020833332,153.07018068432808L157.74701552083334,153.07018068432808L157.79177934895833,153.07018068432808L157.92607083333334,153.07018068432808L158.19465380208334,153.07018068432808L158.28418145833334,123.01674405237037L158.41847294270832,123.01674405237037L158.77658356770831,123.01674405237037L158.86611122395834,123.01674405237037L158.91087505208333,123.01674405237037L158.95563888020834,123.01674405237037L159.31374950520834,119.14755684137344L159.9852069270833,119.14755684137344L160.07473458333334,119.14755684137344L160.16426223958334,119.14755684137344L160.25378989583334,119.14755684137344L160.34331755208333,119.14755684137344L160.74619200520834,119.14755684137344L160.92524731770834,119.14755684137344L161.50717708333335,95.4718431532383L161.68623239583334,95.4718431532383L162.53674513020835,95.4718431532383L163.20820255208332,71.61642891168594L163.25296638020833,71.61642891168594L163.52154934895833,71.61642891168594L163.56631317708334,71.61642891168594L163.65584083333334,71.61642891168594L163.79013231770833,14.119921694199238L164.0139514583333,45.766913215319306L164.14824294270835,45.766913215319306L164.1930067708333,45.766913215319306L164.28253442708333,68.4294738570849L164.99875567708332,105.64290552834669L165.31210247395833,105.64290552834669L165.49115778645833,105.64290552834669L165.8045045833333,105.64290552834669L165.84926841145833,105.64290552834669L166.16261520833334,151.43924896419048L166.29690669270832,151.43924896419048L167.37123856770833,151.43924896419048L167.50553005208334,151.43924896419048L167.81887684895833,151.43924896419048L167.95316833333334,151.43924896419048L167.99793216145835,151.43924896419048L168.08745981770832,151.43924896419048L168.13222364583334,151.43924896419048L168.44557044270832,151.43924896419048L168.53509809895834,151.43924896419048L169.02750020833332,176.556385440131L169.25131934895833,176.556385440131L169.6541938020833,176.556385440131L169.74372145833334,176.556385440131L169.8332491145833,176.556385440131L170.0123044270833,176.556385440131L170.14659591145835,176.556385440131L170.72852567708333,176.556385440131L170.77328950520834,176.556385440131L170.81805333333335,176.556385440131L171.08663630208332,176.556385440131L171.44474692708332,97.47296243409315L171.71332989583334,97.47296243409315L171.75809372395832,97.47296243409315L171.80285755208334,97.47296243409315L171.98191286458334,105.88686063388982L172.20573200520835,113.1273230612278L172.51907880208333,113.1273230612278L172.87718942708332,173.08071039120355L173.05624473958332,173.08071039120355L173.23530005208332,173.08071039120355L173.32482770833334,173.08071039120355L173.59341067708334,173.08071039120355L173.72770216145832,173.08071039120355L173.81722981770835,173.08071039120355L173.90675747395832,173.08071039120355L173.99628513020835,173.08071039120355L174.13057661458333,173.08071039120355L174.35439575520834,173.08071039120355L174.89156169270834,173.08071039120355L175.11538083333332,173.08071039120355L175.33919997395833,172.37733634312946L176.14494888020835,172.37733634312946L176.32400419270834,172.37733634312946L176.45829567708333,172.37733634312946L176.6821148177083,172.37733634312946L176.95069778645833,176.7483423228065L176.99546161458335,176.7483423228065L177.17451692708335,176.7483423228065L177.26404458333332,176.7483423228065L177.53262755208334,176.7483423228065L177.57739138020833,176.7483423228065L177.84597434895835,176.7483423228065L178.15932114583333,176.7483423228065L178.42790411458336,176.7483423228065L178.56219559895834,176.7483423228065L178.83077856770834,176.7483423228065L179.32318067708331,176.7483423228065L179.41270833333334,176.7483423228065L179.72605513020832,175.5717181364695L179.8603466145833,175.5717181364695L179.99463809895835,175.5717181364695L180.08416575520832,175.5717181364695L180.30798489583333,175.5717181364695L181.02420614583335,175.5717181364695L181.11373380208332,175.5717181364695L181.15849763020833,168.4173815647761L181.33755294270833,168.4173815647761L181.38231677083334,168.4173815647761L181.56137208333334,168.4173815647761L181.65089973958334,168.4173815647761L181.91948270833333,167.79447490473586L181.96424653645832,167.79447490473586L182.27759333333333,167.79447490473586L182.81475927083335,156.46242096523443L183.03857841145833,156.46242096523443L183.17286989583334,156.46242096523443L183.57574434895832,156.46242096523443L183.62050817708334,156.46242096523443L183.88909114583333,156.46242096523443L183.93385497395832,156.46242096523443L184.56054856770834,156.46242096523443L184.73960388020834,156.46242096523443L184.82913153645833,156.46242096523443L184.91865919270833,156.46242096523443L185.05295067708334,156.46242096523443L185.18724216145833,156.46242096523443L185.59011661458334,135.25406439602375L185.85869958333333,135.25406439602375L185.94822723958333,135.25406439602375L186.44062934895834,135.25406439602375L186.48539317708335,135.25406439602375L186.75397614583332,135.25406439602375L187.06732294270833,130.02428096532822L188.14165481770831,167.25332868099213L188.27594630208336,167.25332868099213L188.41023778645834,167.25332868099213L188.4997654427083,167.25332868099213L189.43980583333334,167.25332868099213L189.57409731770832,167.25332868099213L189.75315263020832,167.25332868099213L189.79791645833333,167.25332868099213L189.84268028645835,167.25332868099213L190.1112632552083,167.25332868099213L190.24555473958333,167.25332868099213L190.33508239583333,159.00830037395158L190.73795684895833,163.50293613473573L190.91701216145833,163.50293613473573L191.05130364583334,163.50293613473573L191.27512278645835,163.50293613473573L191.63323341145835,163.50293613473573L191.81228872395835,163.50293613473573L191.90181638020834,163.50293613473573L191.99134403645834,163.50293613473573L192.57327380208332,163.50293613473573L192.66280145833335,163.50293613473573L192.79709294270833,163.50293613473573L193.33425888020832,163.4658908545971L193.51331419270835,163.4658908545971L193.73713333333333,163.4658908545971L193.82666098958333,150.72259077926475L194.27429927083335,150.72259077926475L194.36382692708332,150.72259077926475L194.45335458333335,150.72259077926475L195.03528434895833,150.72259077926475L195.30386731770835,168.84214239319164L195.75150559895832,168.84214239319164L195.97532473958333,168.84214239319164L196.28867153645834,169.69566476345062L196.42296302083332,169.69566476345062L196.51249067708335,169.69566476345062L197.40776723958334,169.69566476345062L197.45253106770832,169.69566476345062L197.49729489583333,169.69566476345062L197.72111403645835,169.69566476345062L197.81064169270832,169.69566476345062L198.07922466145834,169.69566476345062L198.25827997395834,169.69566476345062L198.61639059895833,169.69566476345062L198.66115442708335,169.69566476345062L198.88497356770833,162.40522657334805L198.92973739583334,162.40522657334805L199.10879270833334,168.77594274282455L199.60119481770832,168.77594274282455L199.86977778645834,168.77594274282455L200.13836075520834,168.77594274282455L200.27265223958332,168.77594274282455L200.76505434895833,168.77594274282455L200.94410966145836,168.77594274282455L201.12316497395835,168.77594274282455L201.21269263020832,168.77594274282455L201.43651177083333,168.77594274282455L201.61556708333333,166.13201270004112L201.83938622395834,148.99169648190338L202.06320536458333,148.99169648190338L202.24226067708332,148.99169648190338L202.28702450520834,148.99169648190338L202.37655216145833,148.99169648190338L202.77942661458331,171.3097537010908L202.82419044270833,171.3097537010908L203.31659255208334,171.3097537010908L203.40612020833333,171.3097537010908L203.45088403645832,171.3097537010908L203.76423083333336,171.3097537010908L203.85375848958333,171.3097537010908L203.89852231770834,171.3097537010908L203.94328614583335,171.3097537010908L203.9880499739583,171.3097537010908L204.16710528645834,171.3097537010908L204.25663294270834,171.3097537010908L205.24143716145832,157.75419828295708L205.3757286458333,157.75419828295708L206.00242223958332,157.75419828295708L206.22624138020834,157.75419828295708L206.27100520833332,157.75419828295708L206.36053286458335,157.75419828295708L206.71864348958334,157.75419828295708L206.94246263020835,157.75419828295708L207.25580942708334,157.75419828295708L208.50919661458335,152.36312642196813L208.82254341145833,89.70546679695445L209.31494552083333,89.70546679695445L209.53876466145834,89.70546679695445L209.94163911458335,89.70546679695445L209.98640294270834,89.70546679695445L210.43404122395833,89.70546679695445L210.47880505208332,85.44561323523521L210.52356888020833,85.44561323523521L210.61309653645833,85.44561323523521L210.70262419270833,85.44561323523521L210.79215184895835,104.72912931938964L210.8369156770833,104.72912931938964L210.88167950520833,104.72912931938964L210.97120716145835,104.72912931938964L211.77695606770834,104.72912931938964L212.00077520833335,104.72912931938964L212.22459434895833,104.72912931938964L212.35888583333335,104.72912931938964L212.49317731770833,178.54980721573037L214.46278575520833,178.54980721573037L215.13424317708333,152.45261199275652L215.17900700520835,152.45261199275652L215.44758997395832,152.45261199275652L215.6266452864583,152.45261199275652L215.76093677083333,152.45261199275652L216.02951973958332,152.45261199275652L216.11904739583332,165.98988790810108L216.52192184895833,165.98988790810108L216.70097716145833,165.98988790810108L216.96956013020835,165.98988790810108L217.19337927083333,165.98988790810108L217.46196223958333,165.98988790810108L217.64101755208333,165.98988790810108L217.86483669270834,165.98988790810108L218.17818348958335,165.98988790810108L218.35723880208334,165.98988790810108L218.76011325520832,163.0577517747879L218.89440473958334,163.0577517747879L219.43157067708336,177.71352548897266L219.74491747395834,177.71352548897266L219.87920895833332,177.71352548897266L219.96873661458335,177.71352548897266L220.01350044270833,177.71352548897266L220.19255575520833,177.71352548897266L220.23731958333335,177.71352548897266L220.28208341145833,177.71352548897266L220.81924934895835,177.71352548897266L221.08783231770832,177.71352548897266L221.13259614583333,177.71352548897266L221.22212380208333,177.71352548897266L221.44594294270834,177.71352548897266L221.49070677083333,177.71352548897266L221.62499825520834,177.71352548897266L221.89358122395834,177.71352548897266L222.07263653645833,171.5125522961219L222.38598333333334,171.5125522961219L222.83362161458334,169.03276202082634L223.10220458333333,169.03276202082634L223.28125989583333,169.03276202082634L223.41555138020834,169.03276202082634L223.77366200520834,169.03276202082634L223.8631896614583,169.03276202082634L224.44511942708334,169.03276202082634L224.62417473958334,169.03276202082634L224.66893856770835,169.03276202082634L225.51945130208333,166.70089867711067L225.56421513020834,166.70089867711067L225.69850661458332,166.70089867711067L226.01185341145833,152.48666226367155L226.10138106770833,152.48666226367155L226.45949169270835,152.48666226367155L226.54901934895832,152.48666226367155L226.59378317708334,152.48666226367155L227.17571294270834,152.48666226367155L227.26524059895834,152.48666226367155L227.31000442708333,152.48666226367155L227.71287888020834,143.7854642122984L227.84717036458335,143.7854642122984L227.93669802083332,143.7854642122984L228.33957247395833,143.7854642122984L228.47386395833334,143.7854642122984L228.56339161458334,143.7854642122984L228.65291927083334,143.7854642122984L229.19008520833333,143.7854642122984L229.95107028645833,121.7484184304873L230.17488942708334,121.7484184304873L230.62252770833334,138.81829114754993L230.89111067708333,138.81829114754993L231.20445747395834,138.81829114754993L231.47304044270834,138.81829114754993L231.56256809895834,138.81829114754993L231.74162341145833,174.6655510192116L232.05497020833334,174.6655510192116L232.09973403645836,174.6655510192116L232.14449786458331,174.6655510192116L232.59213614583334,174.6655510192116L233.30835739583335,174.6655510192116L233.5321765364583,174.6655510192116L233.75599567708332,174.6655510192116L233.97981481770833,174.6655510192116L234.02457864583334,174.6655510192116L234.11410630208331,174.6655510192116L234.24839778645833,174.6655510192116L234.69603606770835,153.67394580940405L234.87509138020835,153.67394580940405L234.91985520833333,153.67394580940405L235.18843817708333,132.3384394943714L235.36749348958332,132.3384394943714L235.41225731770834,130.9378361403942L235.77036794270833,135.5340590775013L235.85989559895833,176.03134706119695L235.90465942708335,176.03134706119695L235.94942325520833,176.03134706119695L236.03895091145833,176.03134706119695L236.1732423958333,176.03134706119695L236.21800622395833,176.03134706119695L236.26277005208334,176.03134706119695L236.30753388020835,176.03134706119695L236.48658919270835,176.03134706119695L236.57611684895832,176.03134706119695L236.71040833333333,176.03134706119695L236.75517216145832,176.03134706119695L236.79993598958333,176.03134706119695L236.84469981770835,176.03134706119695L236.93422747395832,176.03134706119695L237.06851895833333,176.03134706119695L237.11328278645834,176.03134706119695L237.38186575520834,178.8712954844038L239.66482098958335,178.8712954844038L239.97816778645833,157.3715996692578L240.15722309895833,157.3715996692578L240.38104223958334,136.69195616741973L240.56009755208333,174.8628071894248L240.82868052083333,174.8628071894248L240.91820817708336,174.8628071894248L241.05249966145834,174.8628071894248L241.36584645833332,174.8628071894248L241.63442942708332,174.8628071894248L241.76872091145833,174.8628071894248L241.85824856770833,174.8628071894248L241.90301239583334,174.8628071894248L242.12683153645835,177.15509994079667" style="fill: none;" fill="none"></path></g></g></g></g></g></g><g transform="translate(61, 178)" clip-path="url(#clip_1)"><clipPath id="clip_1"><rect width="268" height="22"></rect></clipPath><g><g><line x1="0" y1="0" x2="0" y2="5" style="visibility: inherit;" fill="rgb(0, 0, 0)" stroke="rgb(204, 204, 204)" stroke-width="1px"></line><line x1="22.337239583333332" y1="0" x2="22.337239583333332" y2="5" style="visibility: inherit;" fill="rgb(0, 0, 0)" stroke="rgb(204, 204, 204)" stroke-width="1px"></line><line x1="44.674479166666664" y1="0" x2="44.674479166666664" y2="5" style="visibility: inherit;" fill="rgb(0, 0, 0)" stroke="rgb(204, 204, 204)" stroke-width="1px"></line><line x1="67.01171875" y1="0" x2="67.01171875" y2="5" style="visibility: inherit;" fill="rgb(0, 0, 0)" stroke="rgb(204, 204, 204)" stroke-width="1px"></line><line x1="89.34895833333333" y1="0" x2="89.34895833333333" y2="5" style="visibility: inherit;" fill="rgb(0, 0, 0)" stroke="rgb(204, 204, 204)" stroke-width="1px"></line><line x1="111.68619791666667" y1="0" x2="111.68619791666667" y2="5" style="visibility: inherit;" fill="rgb(0, 0, 0)" stroke="rgb(204, 204, 204)" stroke-width="1px"></line><line x1="134.0234375" y1="0" x2="134.0234375" y2="5" style="visibility: inherit;" fill="rgb(0, 0, 0)" stroke="rgb(204, 204, 204)" stroke-width="1px"></line><line x1="156.36067708333334" y1="0" x2="156.36067708333334" y2="5" style="visibility: inherit;" fill="rgb(0, 0, 0)" stroke="rgb(204, 204, 204)" stroke-width="1px"></line><line x1="178.69791666666666" y1="0" x2="178.69791666666666" y2="5" style="visibility: inherit;" fill="rgb(0, 0, 0)" stroke="rgb(204, 204, 204)" stroke-width="1px"></line><line x1="201.03515625" y1="0" x2="201.03515625" y2="5" style="visibility: inherit;" fill="rgb(0, 0, 0)" stroke="rgb(204, 204, 204)" stroke-width="1px"></line><line x1="223.37239583333334" y1="0" x2="223.37239583333334" y2="5" style="visibility: inherit;" fill="rgb(0, 0, 0)" stroke="rgb(204, 204, 204)" stroke-width="1px"></line><line x1="245.70963541666666" y1="0" x2="245.70963541666666" y2="5" style="visibility: inherit;" fill="rgb(0, 0, 0)" stroke="rgb(204, 204, 204)" stroke-width="1px"></line><line x1="268.046875" y1="0" x2="268.046875" y2="5" style="visibility: inherit;" fill="rgb(0, 0, 0)" stroke="rgb(204, 204, 204)" stroke-width="1px"></line></g><g transform="translate(0, 8)"><text x="0" y="0" dx="0em" dy="0.95em" style="text-anchor: middle; visibility: hidden; font-family: Roboto, sans-serif; font-size: 12px; font-weight: 200;" fill="rgb(50, 49, 63)" stroke="none" stroke-width="1px">-500k</text><text x="22.337239583333332" y="0" dx="0em" dy="0.95em" style="text-anchor: middle; visibility: inherit; font-family: Roboto, sans-serif; font-size: 12px; font-weight: 200;" fill="rgb(50, 49, 63)" stroke="none" stroke-width="1px">0</text><text x="44.674479166666664" y="0" dx="0em" dy="0.95em" style="text-anchor: middle; visibility: hidden; font-family: Roboto, sans-serif; font-size: 12px; font-weight: 200;" fill="rgb(50, 49, 63)" stroke="none" stroke-width="1px">500k</text><text x="67.01171875" y="0" dx="0em" dy="0.95em" style="text-anchor: middle; visibility: inherit; font-family: Roboto, sans-serif; font-size: 12px; font-weight: 200;" fill="rgb(50, 49, 63)" stroke="none" stroke-width="1px">1M</text><text x="89.34895833333333" y="0" dx="0em" dy="0.95em" style="text-anchor: middle; visibility: hidden; font-family: Roboto, sans-serif; font-size: 12px; font-weight: 200;" fill="rgb(50, 49, 63)" stroke="none" stroke-width="1px">1.5M</text><text x="111.68619791666667" y="0" dx="0em" dy="0.95em" style="text-anchor: middle; visibility: inherit; font-family: Roboto, sans-serif; font-size: 12px; font-weight: 200;" fill="rgb(50, 49, 63)" stroke="none" stroke-width="1px">2M</text><text x="134.0234375" y="0" dx="0em" dy="0.95em" style="text-anchor: middle; visibility: hidden; font-family: Roboto, sans-serif; font-size: 12px; font-weight: 200;" fill="rgb(50, 49, 63)" stroke="none" stroke-width="1px">2.5M</text><text x="156.36067708333334" y="0" dx="0em" dy="0.95em" style="text-anchor: middle; visibility: inherit; font-family: Roboto, sans-serif; font-size: 12px; font-weight: 200;" fill="rgb(50, 49, 63)" stroke="none" stroke-width="1px">3M</text><text x="178.69791666666666" y="0" dx="0em" dy="0.95em" style="text-anchor: middle; visibility: hidden; font-family: Roboto, sans-serif; font-size: 12px; font-weight: 200;" fill="rgb(50, 49, 63)" stroke="none" stroke-width="1px">3.5M</text><text x="201.03515625" y="0" dx="0em" dy="0.95em" style="text-anchor: middle; visibility: inherit; font-family: Roboto, sans-serif; font-size: 12px; font-weight: 200;" fill="rgb(50, 49, 63)" stroke="none" stroke-width="1px">4M</text><text x="223.37239583333334" y="0" dx="0em" dy="0.95em" style="text-anchor: middle; visibility: hidden; font-family: Roboto, sans-serif; font-size: 12px; font-weight: 200;" fill="rgb(50, 49, 63)" stroke="none" stroke-width="1px">4.5M</text><text x="245.70963541666666" y="0" dx="0em" dy="0.95em" style="text-anchor: middle; visibility: inherit; font-family: Roboto, sans-serif; font-size: 12px; font-weight: 200;" fill="rgb(50, 49, 63)" stroke="none" stroke-width="1px">5M</text><text x="268.046875" y="0" dx="0em" dy="0.95em" style="text-anchor: middle; visibility: hidden; font-family: Roboto, sans-serif; font-size: 12px; font-weight: 200;" fill="rgb(50, 49, 63)" stroke="none" stroke-width="1px">5.5M</text></g><line x1="0" y1="0" x2="268.046875" y2="0" fill="rgb(0, 0, 0)" stroke="rgb(204, 204, 204)" stroke-width="1px"></line></g></g></g></g></svg>