<svg viewBox="0 0 330 200" xmlns="http://www.w3.org/2000/svg"><g><g><g><g><g><line x1="51.5625" y1="178" x2="46.5625" y2="178" style="visibility: inherit;" fill="rgb(0, 0, 0)" stroke="rgb(204, 204, 204)" stroke-width="1px"></line><line x1="51.5625" y1="165.28571428571428" x2="46.5625" y2="165.28571428571428" style="visibility: inherit;" fill="rgb(0, 0, 0)" stroke="rgb(204, 204, 204)" stroke-width="1px"></line><line x1="51.5625" y1="152.57142857142858" x2="46.5625" y2="152.57142857142858" style="visibility: inherit;" fill="rgb(0, 0, 0)" stroke="rgb(204, 204, 204)" stroke-width="1px"></line><line x1="51.5625" y1="139.85714285714286" x2="46.5625" y2="139.85714285714286" style="visibility: inherit;" fill="rgb(0, 0, 0)" stroke="rgb(204, 204, 204)" stroke-width="1px"></line><line x1="51.5625" y1="127.14285714285712" x2="46.5625" y2="127.14285714285712" style="visibility: inherit;" fill="rgb(0, 0, 0)" stroke="rgb(204, 204, 204)" stroke-width="1px"></line><line x1="51.5625" y1="114.42857142857146" x2="46.5625" y2="114.42857142857146" style="visibility: inherit;" fill="rgb(0, 0, 0)" stroke="rgb(204, 204, 204)" stroke-width="1px"></line><line x1="51.5625" y1="101.71428571428572" x2="46.5625" y2="101.71428571428572" style="visibility: inherit;" fill="rgb(0, 0, 0)" stroke="rgb(204, 204, 204)" stroke-width="1px"></line><line x1="51.5625" y1="89" x2="46.5625" y2="89" style="visibility: inherit;" fill="rgb(0, 0, 0)" stroke="rgb(204, 204, 204)" stroke-width="1px"></line><line x1="51.5625" y1="76.28571428571428" x2="46.5625" y2="76.28571428571428" style="visibility: inherit;" fill="rgb(0, 0, 0)" stroke="rgb(204, 204, 204)" stroke-width="1px"></line><line x1="51.5625" y1="63.57142857142854" x2="46.5625" y2="63.57142857142854" style="visibility: inherit;" fill="rgb(0, 0, 0)" stroke="rgb(204, 204, 204)" stroke-width="1px"></line><line x1="51.5625" y1="50.8571428571429" x2="46.5625" y2="50.8571428571429" style="visibility: inherit;" fill="rgb(0, 0, 0)" stroke="rgb(204, 204, 204)" stroke-width="1px"></line><line x1="51.5625" y1="38.14285714285717" x2="46.5625" y2="38.14285714285717" style="visibility: inherit;" fill="rgb(0, 0, 0)" stroke="rgb(204, 204, 204)" stroke-width="1px"></line><line x1="51.5625" y1="25.428571428571455" x2="46.5625" y2="25.428571428571455" style="visibility: inherit;" fill="rgb(0, 0, 0)" stroke="rgb(204, 204, 204)" stroke-width="1px"></line><line x1="51.5625" y1="12.714285714285728" x2="46.5625" y2="12.714285714285728" style="visibility: inherit;" fill="rgb(0, 0, 0)" stroke="rgb(204, 204, 204)" stroke-width="1px"></line><line x1="51.5625" y1="0" x2="46.5625" y2="0" style="visibility: inherit;" fill="rgb(0, 0, 0)" stroke="rgb(204, 204, 204)" stroke-width="1px"></line></g><g transform="translate(41.5625, 0)"><text x="0" y="178" dx="0em" dy="0.3em" style="text-anchor: end; visibility: hidden; font-family: Roboto, sans-serif; font-size: 12px; font-weight: 200;" fill="rgb(50, 49, 63)" stroke="none" stroke-width="1px">0.38</text><text x="0" y="165.28571428571428" dx="0em" dy="0.3em" style="text-anchor: end; visibility: inherit; font-family: Roboto, sans-serif; font-size: 12px; font-weight: 200;" fill="rgb(50, 49, 63)" stroke="none" stroke-width="1px">0.4</text><text x="0" y="152.57142857142858" dx="0em" dy="0.3em" style="text-anchor: end; visibility: hidden; font-family: Roboto, sans-serif; font-size: 12px; font-weight: 200;" fill="rgb(50, 49, 63)" stroke="none" stroke-width="1px">0.42</text><text x="0" y="139.85714285714286" dx="0em" dy="0.3em" style="text-anchor: end; visibility: inherit; font-family: Roboto, sans-serif; font-size: 12px; font-weight: 200;" fill="rgb(50, 49, 63)" stroke="none" stroke-width="1px">0.44</text><text x="0" y="127.14285714285712" dx="0em" dy="0.3em" style="text-anchor: end; visibility: hidden; font-family: Roboto, sans-serif; font-size: 12px; font-weight: 200;" fill="rgb(50, 49, 63)" stroke="none" stroke-width="1px">0.46</text><text x="0" y="114.42857142857146" dx="0em" dy="0.3em" style="text-anchor: end; visibility: inherit; font-family: Roboto, sans-serif; font-size: 12px; font-weight: 200;" fill="rgb(50, 49, 63)" stroke="none" stroke-width="1px">0.48</text><text x="0" y="101.71428571428572" dx="0em" dy="0.3em" style="text-anchor: end; visibility: hidden; font-family: Roboto, sans-serif; font-size: 12px; font-weight: 200;" fill="rgb(50, 49, 63)" stroke="none" stroke-width="1px">0.5</text><text x="0" y="89" dx="0em" dy="0.3em" style="text-anchor: end; visibility: inherit; font-family: Roboto, sans-serif; font-size: 12px; font-weight: 200;" fill="rgb(50, 49, 63)" stroke="none" stroke-width="1px">0.52</text><text x="0" y="76.28571428571428" dx="0em" dy="0.3em" style="text-anchor: end; visibility: hidden; font-family: Roboto, sans-serif; font-size: 12px; font-weight: 200;" fill="rgb(50, 49, 63)" stroke="none" stroke-width="1px">0.54</text><text x="0" y="63.57142857142854" dx="0em" dy="0.3em" style="text-anchor: end; visibility: inherit; font-family: Roboto, sans-serif; font-size: 12px; font-weight: 200;" fill="rgb(50, 49, 63)" stroke="none" stroke-width="1px">0.56</text><text x="0" y="50.8571428571429" dx="0em" dy="0.3em" style="text-anchor: end; visibility: hidden; font-family: Roboto, sans-serif; font-size: 12px; font-weight: 200;" fill="rgb(50, 49, 63)" stroke="none" stroke-width="1px">0.58</text><text x="0" y="38.14285714285717" dx="0em" dy="0.3em" style="text-anchor: end; visibility: inherit; font-family: Roboto, sans-serif; font-size: 12px; font-weight: 200;" fill="rgb(50, 49, 63)" stroke="none" stroke-width="1px">0.6</text><text x="0" y="25.428571428571455" dx="0em" dy="0.3em" style="text-anchor: end; visibility: hidden; font-family: Roboto, sans-serif; font-size: 12px; font-weight: 200;" fill="rgb(50, 49, 63)" stroke="none" stroke-width="1px">0.62</text><text x="0" y="12.714285714285728" dx="0em" dy="0.3em" style="text-anchor: end; visibility: inherit; font-family: Roboto, sans-serif; font-size: 12px; font-weight: 200;" fill="rgb(50, 49, 63)" stroke="none" stroke-width="1px">0.64</text><text x="0" y="0" dx="0em" dy="0.3em" style="text-anchor: end; visibility: hidden; font-family: Roboto, sans-serif; font-size: 12px; font-weight: 200;" fill="rgb(50, 49, 63)" stroke="none" stroke-width="1px">0.66</text></g><line x1="51.5625" y1="0" x2="51.5625" y2="178" fill="rgb(0, 0, 0)" stroke="rgb(204, 204, 204)" stroke-width="1px"></line></g></g><g transform="translate(51, 0)" clip-path="url(#clip_0)"><clipPath id="clip_0"><rect width="278" height="178"></rect></clipPath><g><g><g><line x1="0" y1="0" x2="0" y2="178" fill="rgb(0, 0, 0)" stroke="rgb(60, 60, 60)" stroke-width="1px" opacity="0.25"></line><line x1="23.203125" y1="0" x2="23.203125" y2="178" fill="rgb(0, 0, 0)" stroke="rgb(60, 60, 60)" stroke-width="1px" opacity="0.25"></line><line x1="46.40625" y1="0" x2="46.40625" y2="178" fill="rgb(0, 0, 0)" stroke="rgb(60, 60, 60)" stroke-width="1px" opacity="0.25"></line><line x1="69.609375" y1="0" x2="69.609375" y2="178" fill="rgb(0, 0, 0)" stroke="rgb(60, 60, 60)" stroke-width="1px" opacity="0.25"></line><line x1="92.8125" y1="0" x2="92.8125" y2="178" fill="rgb(0, 0, 0)" stroke="rgb(60, 60, 60)" stroke-width="1px" opacity="0.25"></line><line x1="116.015625" y1="0" x2="116.015625" y2="178" fill="rgb(0, 0, 0)" stroke="rgb(60, 60, 60)" stroke-width="1px" opacity="0.25"></line><line x1="139.21875" y1="0" x2="139.21875" y2="178" fill="rgb(0, 0, 0)" stroke="rgb(60, 60, 60)" stroke-width="1px" opacity="0.25"></line><line x1="162.421875" y1="0" x2="162.421875" y2="178" fill="rgb(0, 0, 0)" stroke="rgb(60, 60, 60)" stroke-width="1px" opacity="0.25"></line><line x1="185.625" y1="0" x2="185.625" y2="178" fill="rgb(0, 0, 0)" stroke="rgb(60, 60, 60)" stroke-width="1px" opacity="0.25"></line><line x1="208.828125" y1="0" x2="208.828125" y2="178" fill="rgb(0, 0, 0)" stroke="rgb(60, 60, 60)" stroke-width="1px" opacity="0.25"></line><line x1="232.03125" y1="0" x2="232.03125" y2="178" fill="rgb(0, 0, 0)" stroke="rgb(60, 60, 60)" stroke-width="1px" opacity="0.25"></line><line x1="255.234375" y1="0" x2="255.234375" y2="178" fill="rgb(0, 0, 0)" stroke="rgb(60, 60, 60)" stroke-width="1px" opacity="0.25"></line><line x1="278.4375" y1="0" x2="278.4375" y2="178" fill="rgb(0, 0, 0)" stroke="rgb(60, 60, 60)" stroke-width="1px" opacity="0.25"></line></g><g><line x1="0" y1="178" x2="278.4375" y2="178" fill="rgb(0, 0, 0)" stroke="rgb(60, 60, 60)" stroke-width="1px" opacity="0.25"></line><line x1="0" y1="165.28571428571428" x2="278.4375" y2="165.28571428571428" fill="rgb(0, 0, 0)" stroke="rgb(60, 60, 60)" stroke-width="1px" opacity="0.25"></line><line x1="0" y1="152.57142857142858" x2="278.4375" y2="152.57142857142858" fill="rgb(0, 0, 0)" stroke="rgb(60, 60, 60)" stroke-width="1px" opacity="0.25"></line><line x1="0" y1="139.85714285714286" x2="278.4375" y2="139.85714285714286" fill="rgb(0, 0, 0)" stroke="rgb(60, 60, 60)" stroke-width="1px" opacity="0.25"></line><line x1="0" y1="127.14285714285712" x2="278.4375" y2="127.14285714285712" fill="rgb(0, 0, 0)" stroke="rgb(60, 60, 60)" stroke-width="1px" opacity="0.25"></line><line x1="0" y1="114.42857142857146" x2="278.4375" y2="114.42857142857146" fill="rgb(0, 0, 0)" stroke="rgb(60, 60, 60)" stroke-width="1px" opacity="0.25"></line><line x1="0" y1="101.71428571428572" x2="278.4375" y2="101.71428571428572" fill="rgb(0, 0, 0)" stroke="rgb(60, 60, 60)" stroke-width="1px" opacity="0.25"></line><line x1="0" y1="89" x2="278.4375" y2="89" fill="rgb(0, 0, 0)" stroke="rgb(60, 60, 60)" stroke-width="1px" opacity="0.25"></line><line x1="0" y1="76.28571428571428" x2="278.4375" y2="76.28571428571428" fill="rgb(0, 0, 0)" stroke="rgb(60, 60, 60)" stroke-width="1px" opacity="0.25"></line><line x1="0" y1="63.57142857142854" x2="278.4375" y2="63.57142857142854" fill="rgb(0, 0, 0)" stroke="rgb(60, 60, 60)" stroke-width="1px" opacity="0.25"></line><line x1="0" y1="50.8571428571429" x2="278.4375" y2="50.8571428571429" fill="rgb(0, 0, 0)" stroke="rgb(60, 60, 60)" stroke-width="1px" opacity="0.25"></line><line x1="0" y1="38.14285714285717" x2="278.4375" y2="38.14285714285717" fill="rgb(0, 0, 0)" stroke="rgb(60, 60, 60)" stroke-width="1px" opacity="0.25"></line><line x1="0" y1="25.428571428571455" x2="278.4375" y2="25.428571428571455" fill="rgb(0, 0, 0)" stroke="rgb(60, 60, 60)" stroke-width="1px" opacity="0.25"></line><line x1="0" y1="12.714285714285728" x2="278.4375" y2="12.714285714285728" fill="rgb(0, 0, 0)" stroke="rgb(60, 60, 60)" stroke-width="1px" opacity="0.25"></line><line x1="0" y1="0" x2="278.4375" y2="0" fill="rgb(0, 0, 0)" stroke="rgb(60, 60, 60)" stroke-width="1px" opacity="0.25"></line></g></g></g><g><g><line x1="0" y1="419.5714285714285" x2="278.4375" y2="419.5714285714285" fill="rgb(0, 0, 0)" stroke="rgb(153, 153, 153)" stroke-width="1.5px"></line></g></g><g><g><line x1="23.203125" y1="0" x2="23.203125" y2="178" fill="rgb(0, 0, 0)" stroke="rgb(153, 153, 153)" stroke-width="1.5px"></line></g></g><g><g><g><g><g><path stroke="rgb(238, 51, 119)" stroke-width="2px" d="M31.0141321875,179.34182527777958L31.432623749999998,175.58456864786683L31.479122812499998,172.11634622398603L31.9441134375,170.3694023236301L32.17660875,171.15747584044016L32.269606875,171.89119603212242L32.3161059375,172.57599823120646L32.5021021875,173.2166164369967L32.8740946875,173.8171928988818L33.2460871875,174.38136777541933L33.29258625,174.9123529712168L33.5250815625,175.41299331607078L34.03657125,175.88581754757928L34.315565625,174.3216192426569L34.5480609375,172.83975631142977L34.687558125,171.43389526354682L35.245546874999995,169.35697846112691L35.52454125,167.38138785693803L35.7570365625,165.49988586528767L36.08253,163.70590816426667L36.26852625,161.99348718849905L36.361524375,160.35718582286543L37.2450065625,158.79203974485915L37.477501874999994,157.29350712750673L37.5240009375,155.6840399126932L37.75649625,154.14027759929408L37.9889915625,152.6582778931067L38.0819896875,151.23440769947166L38.453982187499996,149.86531339254708L38.50048125,148.54789445032492L38.8259746875,145.19249619124093L39.0119709375,141.3850591871617L39.430462500000004,137.71363576293882L39.802455,134.17106730874022L40.54644,130.75068891195372L40.73243625,127.44628751844527L41.011430624999996,124.25206427768259L41.197426875,121.16260059162221L41.290425,118.1728274491825L43.243385624999995,115.62728555024513L43.2898846875,113.16131775264773L43.3828828125,110.77125140523385L43.6618771875,108.45363644176292L44.08036875,106.20522877009134L44.173366875,104.02297512702097L44.2198659375,101.9039992501141L44.359363125,101.95640476144459L44.638357500000005,99.66349540668283L45.0568490625,97.43430438154151L45.196346250000005,95.26621312415581L45.2428453125,93.15674461654179L45.7078359375,91.10355394833557L46.49832,89.10441962550316L46.591318125,87.15723555629363L47.242305,85.13265623935978L47.4748003125,83.15935777112354L47.5677984375,81.23541711936025L47.707295625,79.35900621639486L48.079288125,77.52838616858004L48.358282499999994,75.74190188436718L48.451280624999995,73.99797708608564L48.5907778125,72.29510967383378L48.8697721875,70.63186741281537L49.102267499999996,69.00688391810687L49.567258125,67.41885491318494L49.8462525,65.86653474069105L50.125246875,66.23950986090257L50.311243125000004,66.60428224936115L50.5902375,67.18550828183481L50.683235625,67.75422610183654L50.729734687500006,68.31083490779659L50.82273281249999,68.85571708979165L50.915730937499994,69.3892391049813L50.96223,69.91175229888971L51.1947253125,70.42359367641023L51.241224374999994,71.4580163236757L51.659715937499996,72.47173377751565L51.9387103125,73.33084076750187L52.0317084375,74.173088332661L52.26420375,74.99896752448649L52.4966990625,75.80895050788033L52.5896971875,76.60349146051097L53.1476859375,77.38302742127075L53.473179374999994,78.14797909115167L53.5196784375,78.89875158963112L53.6126765625,79.63573516941815L53.7056746875,80.35930589221746L53.75217375,81.0698262679629L53.845171875,81.7676458598084L54.403160625,82.453101856992L54.542657812499996,83.1265196175541L54.7286540625,83.80303089862232L54.86815125,84.46786543936098L55.0076484375,85.1213226436602L55.193644687500004,85.76369176612877L55.24014375,86.39525233853405L55.426140000000004,87.01627457491948L55.6586353125,87.62701975663626L55.705134375,88.22774059843533L56.170125,88.61981980232295L56.356121249999994,89.0055672342619L56.4956184375,89.38513485697321L56.8676109375,89.15710254219707L57.0536071875,88.93266600418126L57.193104375,88.71174096678962L57.2396034375,88.49424576709809L57.2861025,88.28010125488771L57.6115959375,88.03447029534502L57.8905903125,87.7925663024088L57.9835884375,87.5543052090256L58.0300875,87.3196054576046L58.21608375,87.08838790707475L58.402080000000005,86.86057574404323L58.5415771875,86.63609439784301L58.58807625,86.41487145927469L58.634575312500004,86.19683660285499L58.8205715625,85.98192151239994L59.239063124999994,85.77005980977216L59.425059375,85.56118698664068L59.4715584375,85.35524033910072L59.5180575,85.15215890502338L59.611055625,84.4934188502839L59.657554687499996,83.84371834340124L59.9365490625,83.20287290335284L60.1225453125,82.5707030350861L60.169044375,81.94703406220451L60.2620425,81.33169596634637L60.355040625,80.72452323294408L60.4945378125,80.12535470307351L60.541036875,79.53403343111317L60.5875359375,78.95040654794767L60.634035000000004,78.37432512946866L60.7735321875,77.80564407013159L60.959528437500005,77.2442219613455L61.192023750000004,76.62972143581115L61.2385228125,76.02296646406225L61.285021875000005,75.42381181646148L61.564016249999995,74.83211587155797L62.3545003125,74.247740504724L62.540496562499996,73.67055098088989L62.6334946875,73.1004158512043L62.865990000000004,72.5372068534513L63.9819675,72.33369828478456L64.074965625,72.1326325103913L64.3074609375,71.93396590876108L64.40045906249999,71.73765589084405L64.5864553125,71.54366086968433L64.6794534375,71.35194023111927L65.0514459375,71.1624543055009L65.3304403125,70.9751643403972L65.5164365625,70.7900324742355L65.84193,70.60702171084979L65.934928125,70.42609589489447L66.2139225,70.24721968809362L66.306920625,70.07035854628813L66.4464178125,69.8954786972544L66.492916875,69.72254711926222L66.585915,69.55153152034227L66.95790749999999,69.48210120816758L67.0044065625,69.41343178115679L67.14390374999999,69.34551083349737L67.4693971875,69.27832622761116L67.60889437499999,69.21186608694191L68.0273859375,69.14611878897782L68.2133821875,69.08107295849314L68.352879375,69.0167174610078L68.3993784375,68.95304139645138L68.81787,68.47988651149016L68.8643690625,68.01167523405613L69.0503653125,67.54833071994057L69.096864375,67.08977770934833L69.1433634375,66.6359424862725L69.1898625,66.18675283911168L69.37585875,65.7421380224863L69.42235781250001,65.30202872021415L69.561855,64.86635700939979L69.6083540625,64.43505632560321L69.9803465625,64.00806142904727L70.16634281249999,63.585308371828106L70.2593409375,63.166734466096585L70.3523390625,62.75227825317443L70.39883812500001,62.34187947357455L70.8173296875,61.93547903789374L70.95682687499999,61.533018998550396L71.328819375,61.13444252233686L71.42181749999999,60.739693863759484L71.60781374999999,60.498058210467704L71.6543128125,60.25872132167442L71.886808125,60.021650667342264L72.2123015625,59.82235848803493L72.72379124999999,59.62493586279732L72.816789375,59.429356704530846L73.09578375,60.132306973969605L73.23528093750001,60.828753360979164L73.3282790625,61.5187853696098L73.5142753125,62.20249086913898L73.70027156249999,62.18977238372836L73.79326968749999,62.17716945993833L74.025765,62.16468053610513L74.0722640625,62.15230407857675L74.118763125,62.14003858108785L74.490755625,62.12788256415061L74.76975,62.11583457446324L74.95574625,62.10389318433264L75.0022453125,62.09205699111289L75.048744375,62.08032461665785L75.46723593749999,62.06869470678965L75.69973125,62.05716593077919L76.35071812499999,62.045736980840594L76.44371625,62.058712942071345L77.37369749999999,62.15864542274492L77.42019656250001,62.25772354976037L77.6061928125,62.355958183725704L77.652691875,62.45336000194885L77.6991909375,62.549939502287586L78.53617406250001,62.64570700690415L78.768669375,62.740672665925665L79.09416281249999,62.83484646101263L79.140661875,62.92823820884089L79.41965625,63.02085756449525L79.512654375,63.112714024781006L79.74514968749999,63.20381693145467L79.8381478125,63.34802258355095L80.1171421875,63.491054714155965L80.9541253125,63.772496155344356L81.0471234375,64.05166548375604L81.1401215625,64.13860105527355L81.5121140625,64.22484031984511L81.65161124999999,64.31039156701763L82.02360374999999,63.57412495444425L82.1631009375,62.8436865155304L82.30259812499999,62.119007681972484L82.9070859375,61.40002095684014L83.232579375,60.68665989373311L83.51157375,59.978859076421934L83.69757,59.27655409896024L83.790568125,58.57968154625675L83.83706718750001,57.888178975093L84.11606156250001,57.201984895576174L84.58105218749999,56.521038753014764L84.8135475,56.05169650603515L84.86004656249999,55.58591695614219L84.99954375,55.123659921462554L85.278538125,54.66488582209405L85.37153625,54.20955566887553L85.51103343749999,53.75763105240589L85.650530625,53.309074132308616L85.7900278125,52.86384762673321L85.836526875,52.4219148020867L86.67351000000001,52.05564836888149L87.3709959375,51.69207195239838L88.06848187499999,51.331156206099614L88.2079790625,50.97287220875591L88.25447812499999,50.6171914567703L88.34747625,50.26408585666597L88.3939753125,50.43352631786742L89.370455625,50.60174866985944L89.41695468750001,50.76876591780228L89.64945,50.934590882387184L89.7889471875,51.09923620309531L89.97494343749999,51.26271434138917L90.0679415625,51.48606742297609L90.2539378125,51.70784806378924L90.4399340625,51.92807270109042L90.62593031249999,52.14675754384865L91.788406875,51.77977081928661L91.8349059375,51.415332584984135L92.34639562499999,51.053416566833924L92.71838812499999,50.69399685064439L92.76488718750001,50.33704787599801L92.90438437499999,49.982544430234896L92.9973825,49.63046164255791L93.0438815625,49.2807749782588L93.462373125,48.933460233059435L93.7878665625,48.58849352756824L94.4853525,48.2791846556949L94.53185156250001,47.97195314623331L94.67134874999999,47.66677829366125L94.9968421875,47.36363966669983L95.5548309375,47.34989937843979L95.78732625,47.33625017575043L95.8338253125,47.32269116266647L95.92682343749999,47.309221454934665L96.252316875,47.295840179822626L96.57781031249999,47.28254647593184L96.62430937500001,47.26933949301456L97.0428009375,47.256218391794256L97.22879718749999,47.24318234378825L97.3217953125,47.28313426524983L97.5077915625,47.32282883997838L97.926283125,47.36226852682923L98.2517765625,47.40145575343436L98.29827562499999,47.44039291669663L98.53077093750001,47.52904386402487L98.9027634375,47.545536051388545L99.321255,47.52648691305603L99.36775406250001,47.50755783756222L99.5537503125,47.4887477027597L99.78624562499999,47.40570055588139L99.9257428125,47.32317205875359L100.01874093750001,47.241157408779806L100.158238125,47.159651862470824L100.29773531250001,47.06936044537334L100.4837315625,46.979626141303456L100.85572406249999,46.890443854398626L101.22771656249999,46.801808550751076L101.4137128125,46.71371525746858L101.55321,46.626159061754024L101.5997090625,46.539135109999165L101.8787034375,46.452638606896585L101.9252025,46.36666481456694L102.297195,46.28120905170168L102.48319125,46.196266692721025L102.5296903125,46.11183316694725L102.57618937500001,46.02790395779269L102.6691875,45.94447460196152L102.8086846875,45.86154068866724L103.13417812499999,45.82791087634754L103.1806771875,45.79447962788235L103.5526696875,45.761245206432584L103.59916874999999,45.728205895354485L104.0176603125,45.69535999790699L104.2036565625,45.880029881847335L104.29665468750001,46.0636248089508L104.436151875,46.246154046816386L104.6686471875,46.42762675682682L104.71514625,46.60805199566481L104.808144375,46.78743871680502L104.8546434375,46.965795771980424L104.90114249999999,47.14313191262283L105.13363781250001,47.4060270318714L105.7846246875,47.54253997085409L106.20311625000001,47.38410045593898L106.482110625,47.226557894787426L106.80760406249999,47.069904770364126L106.85410312500001,46.89183103544531L107.2725946875,46.71475718215954L107.598088125,46.53867490048366L108.0165796875,46.36357597221554L108.15607687500001,46.1894522697101L108.4815703125,46.01629575463469L108.5745684375,45.84409847674621L108.76056468750001,45.67285257268751L109.2255553125,45.50255026480341L109.272054375,45.33318385997628L109.41155156250001,45.164745748481145L109.644046875,45.19701276475927L109.830043125,45.26265539756365L110.4345309375,45.32794108123996L110.52752906250001,45.39287268699044L110.574028125,45.41448651367296L110.8530225,45.435983728356774L110.89952156250001,45.45736526155707L110.946020625,45.47863203391553L111.03901875,45.49978495633237L111.690005625,45.520824930094335L112.52698875,45.458008098141995L112.80598312500001,45.395524965179746L113.1314765625,45.333372910235354L113.4104709375,45.271549339709054L113.5964671875,45.210051687017234L113.6894653125,45.148877412240836L113.7824634375,45.08802400178064L114.0614578125,45.02748896801731L114.200955,44.96726984897578L114.29395312499999,44.907364207996714L114.4334503125,44.847769633411176L114.5729475,44.78848373822115L114.7124446875,44.7295041597854L115.13093624999999,44.72605102262293L115.223934375,44.72261563874762L115.78192312499999,44.71919787330651L115.82842218750001,44.71579759280921L115.87492125,44.7124146651098L116.525908125,44.709048959390984L116.711904375,44.70570034614641L116.897900625,44.702368697165156L117.08389687500001,44.69905388551469L117.1303959375,44.69575578552568L117.269893125,44.69247427277632L117.36289125,44.68920922407636L117.455889375,44.79180164282331L117.827881875,44.893881801458825L117.92088000000001,44.9954534764116L118.0603771875,45.096520407087226L118.19987437500001,45.197086296321594L118.33937156249999,45.428996049229376L118.4323696875,45.65976154632023L118.57186687500001,45.889391120840024L118.7113640625,46.117893025328776L119.4553490625,46.23468491644979L119.78084249999999,46.35090595039032L120.0133378125,46.46656024456941L120.059836875,46.58165187691186L120.1063359375,46.69618488632084L120.1993340625,46.810163273143544L120.24583312499999,46.92359099963009L120.33883125,47.0364719903861L120.43182937499999,47.14881013281849L120.617825625,47.224989640959414L120.803821875,47.30080447721809L121.0363171875,47.37625721619839L121.12931531250001,47.45135040833089L121.45480875,47.52608658015552L121.547806875,47.60046823460039L121.59430593750001,47.67449785125774L121.82680125,47.74817788665467L122.0127975,47.71797298651257L122.2452928125,47.68791007895897L122.33829093749999,47.657988180026244L122.38479,47.628206314815664L122.84978062500001,47.59856351739211L122.8962796875,47.56905883068232L123.0822759375,47.539691306372546L123.221773125,47.51046000480951L123.3612703125,47.481363994901116L123.407769375,47.45240235401932L123.5472665625,47.42357416790403L123.593765625,47.39487853056881L123.68676375000001,47.36631454420732L123.9192590625,47.33788131910086L123.96575812500001,47.30957797352825L124.2912515625,47.28140363367535L124.33775062500001,47.25335743354719L124.52374687499999,47.22543851488048L124.616745,47.19764602705748L124.70974312499999,47.169979127020916L124.89573937499999,47.436740874216596L125.36072999999999,47.70230234508026L125.453728125,47.96667149025091L125.54672624999999,48.229856190321584L125.59322531250001,48.49186425660925L125.7792215625,48.84254824759516L125.91871875,48.56721502898581L126.29071125,48.27317209296303L126.4767075,47.9804326808771L127.127694375,47.688988289451586L127.313690625,47.39883048918684L127.40668875,47.10995092356171L127.6391840625,46.82234130824557L127.685683125,46.53599343032026L127.77868125,46.250899147512L127.871679375,45.96705038743381L127.91817843749999,45.68443914683696L128.0111765625,45.40305749087234L128.1041746875,45.12289755236178L128.15067375,44.84395153107721L128.47616718749998,44.56621169303075L128.615664375,44.289670369772416L128.8481596875,44.0143199576978L129.4061484375,44.077309597813766L129.5921446875,44.14002907689164L129.731641875,44.20248009809341L130.1966325,44.17356398066048L130.475626875,44.144771133928465L130.5221259375,44.116100785630614L130.6151240625,44.087552169934604L130.75462124999999,44.05912452737699L130.8941184375,44.030817104795794L130.9406175,44.002629155266625L130.9871165625,43.97455993803738L131.4521071875,43.94660871846449L131.49860625,43.91877476795099L131.5451053125,43.89105736388351L131.6381034375,43.86345578957138L132.1960921875,43.83596933418604L132.24259125,43.80859729270114L132.2890903125,43.781338965833505L132.335589375,43.754193659985006L132.707581875,43.796675922203285L133.1260734375,43.838982725655356L133.9165575,43.88111513406776L134.567544375,43.94729162629162L134.753540625,44.0131963831736L134.8000396875,44.07883104220976L134.8930378125,44.15704835786538L135.2650303125,44.234946345771284L135.3580284375,44.312526918710965L135.5440246875,44.389791974228295L136.0090153125,44.46674339477814L136.3810078125,44.66184719209558L136.427506875,44.85616203046652L136.9389965625,45.049692589145614L137.3109890625,45.2424435104726L137.5899834375,45.43441940023724L137.6364825,45.625624828036734L137.729480625,45.81606432763185L137.82247875,46.00574239729667L138.05497406249998,46.19466350016576L138.93845625,46.496683555221914L139.217450625,46.79750280041916L139.2639496875,47.09712823338344L139.7289403125,47.39556679750007L139.82193843750002,47.714605195141786L139.961435625,48.03238449518963L140.0079346875,48.348911978471776L140.05443375,48.66419486981498L140.519424375,48.90039107393227L140.56592343749998,49.13566195307983L140.70542062500002,49.37001281715946L140.98441499999998,49.603448935543156L141.2169103125,49.83597553745922L141.30990843749998,50.06759781237357L141.4029065625,50.298320910367124L141.4959046875,50.528149942508904L141.91439625,50.75708998122462L142.1003925,50.98514606066109L142.28638875,50.95074357562586L142.37938687500002,50.91647344513051L142.5188840625,50.882334923896224L142.93737562500002,50.84832727222555L142.9838746875,50.81444975595176L143.16987093749998,50.7807016463857L143.4488653125,50.74708222026597L143.54186343749998,50.7135907597078L144.0998521875,50.68022655215344L144.14635125,50.646988890322824L144.1928503125,50.61387707216494L144.239349375,50.580890400808876L144.3788465625,50.54802818451735L144.56484281250002,50.51528973663834L144.8438371875,50.4826743755591L144.89033625000002,50.49582246581884L145.0298334375,50.50892129527471L145.4018259375,50.52197113373147L145.63432125,50.53497224902843L145.7738184375,50.54792490705719L145.913315625,50.560829371779164L145.9598146875,50.573685905243586L146.2388090625,50.50373581515373L146.3318071875,50.43404464982367L146.6108015625,50.364611008956786L146.75029875,50.29543350232908L146.8897959375,50.22651074969907L146.936295,50.15784138071872L147.12229125000002,50.08942403484391L148.0057734375,49.93908695465793L148.1917696875,49.78929975764733L148.28476781249998,49.64005950694244L148.517263125,49.49136328653727L148.74975843750002,49.3432082011038L149.35424625,49.18860567160238L149.54024249999998,49.03456388484238L149.67973968750002,48.881079872308646L150.377225625,48.728150686388425L150.8887153125,48.5757734001875L150.93521437500002,48.42394510734878L151.0747115625,48.27266292187222L151.3537059375,48.121923977937094L151.679199375,47.971725429725645L151.72569843749997,47.822064451248885L151.7721975,47.67293823617478L151.8186965625,47.57026379493994L151.865195625,47.46795502226411L151.9116946875,47.35795305477539L152.2836871875,47.24834157140566L153.353165625,46.9936986765662L153.39966468749998,46.739956766758446L153.44616375,46.48711119491533L153.77165718749998,46.23515734584842L154.28314687499997,45.98409063597653L154.376145,45.73390651305426L154.93413375,45.48460045590525L154.9806328125,45.2361679741574L155.12013000000002,44.98860460798123L155.213128125,44.741905927829876L155.2596271875,44.49606753418315L155.3526253125,44.38907986258032L156.2361075,44.36553549468261L156.46860281250002,44.342072838409166L156.6081,44.36393867185416L156.7475971875,44.38572885981109L157.16608875,44.40744378329918L157.21258781249998,44.42908382078518L157.4915821875,44.45064934820457L157.58458031249998,44.47214073898315L157.63107937499998,44.4935583640571L157.91007375,44.5785517225854L158.0495709375,44.66325426860901L158.3285653125,44.747667449964325L158.4215634375,44.62987771664611L158.51456156249998,44.51248912903561L158.65405875000002,44.39549969985234L159.0725503125,44.17907210283279L159.305045625,43.96337814957072L159.39804374999997,43.74841422343983L159.4445428125,43.534176731525335L159.491041875,43.32066210443028L160.0025315625,43.107866796083194L160.4675221875,42.895787283547634L160.8395146875,42.68442006683427L161.62999875,42.54616873417632L161.95549218750003,42.408380319234965L162.00199125,42.27105256947853L162.1414884375,42.13418324695268L162.6064790625,41.99777012816212L162.8854734375,41.96652040831292L163.07146968749998,41.93537453300369L163.303965,41.9036745184571L163.396963125,41.87207952743233L163.48996125,41.84058905460611L163.582959375,41.809202597888785L163.6759575,41.777919658398375L163.86195375,41.74673974043501L163.9084528125,41.715662351455585L164.04795,41.68468700204831L164.326944375,41.65381320590855L164.4199425,41.623040479813795L164.5594396875,41.592368343599254L164.93143218749998,41.56179632013378L165.02443031250002,41.531323935295916L165.070929375,41.45875651386205L165.1174284375,41.38642490396648L165.4894209375,41.31432799407739L166.18690687499998,41.242464679630224L166.279905,41.17083386297372L166.372903125,41.099434453315304L166.46590125,41.02826536666787L166.55889937499998,40.957325525796904L166.9773909375,40.88661386016796L167.1633871875,40.81612930589408L167.767875,40.706827949109794L167.95387125000002,40.59787663065661L168.8373534375,40.41659085647817L169.534839375,40.23588397818217L169.5813384375,40.05575331733719L169.8603328125,39.876196211991186L169.906831875,39.69721001654467L169.99983,39.51879210162558L170.13932718750002,39.34093985396437L170.37182249999998,39.16365067627195L170.51131968750002,38.98692198711658L170.55781875,38.81075122080402L170.650816875,38.6351358272569L171.394801875,38.46007327189681L171.72029531249999,38.34508994468745L171.9062915625,38.23046756407512L172.231785,38.11620449023979L172.2782840625,38.002299093267055L172.60377749999998,37.88874975307438L172.7432746875,37.77555485933643L173.85925218749998,37.754686663771146L173.99874937500002,37.73388342673538L174.32424281250002,37.71314485575975L174.46374,37.69247066012536L174.5102390625,37.671860550851505L174.60323718749999,37.65131424068228L174.64973625,37.630831444073706L174.9752296875,37.61041187718095L175.0682278125,37.59005525784618L175.5797175,37.613846568733486L175.8122128125,37.655980442127614L176.230704375,37.6884626009048L176.3237025,37.720845175823705L176.41670062499998,37.63122804970726L176.602696875,37.54188492133984L176.7421940625,37.452814580559256L177.346681875,37.364015824309924L177.3931809375,37.27548745659015L177.43968,37.18722828840141L177.71867437499998,37.09923713769608L178.09066687499998,36.84354877318679L178.36966125,36.58863476372488L178.41616031249998,36.33449172392101L178.462659375,36.08111628806345L178.648655625,35.828505109975076L178.8811509375,35.57665486287165L179.206644375,35.32556223922181L179.578636875,35.07522395060792L179.764633125,34.825636727587906L179.950629375,34.57679731955882L180.0436275,34.32870249462123L180.322621875,34.081349039444646L180.4621190625,33.834733759134814L180.5551171875,33.58885347710084L180.64811531249998,33.59124682744166L180.74111343750002,33.59363306359005L180.880610625,33.59601221603037L181.1131059375,33.59838431507307L181.67109468750002,33.600749390856095L181.90358999999998,33.6031074733466L182.1360853125,33.605458592341186L182.97306843750002,33.563773969121705L183.1590646875,33.52221212102094L183.29856187500002,33.48077252712617L183.53105718749998,33.439454669462535L183.8100515625,33.39825803297259L183.856550625,33.35718210549557L184.042546875,33.31622637774712L184.135545,33.27539034329968L184.414539375,33.23467349856114L184.46103843749998,33.19407534275667L184.7400328125,33.15359537790767L185.06552625,33.113233108813056L185.344520625,33.16742314712886L185.4840178125,33.22145603040688L185.76301218749998,33.27533241437278L186.274501875,33.34025149665651L186.3675,33.404983027571866L186.6929934375,33.469527786442875L186.832490625,33.53388654828938L186.9719878125,33.59806008385649L187.06498593749998,33.66204915964385L187.29748125,33.72585453793563L188.04146625,33.78947697682857L188.134464375,33.860499563269144L188.1809634375,33.931319029000676L188.36695968749999,34.001936208856755L188.41345875000002,34.07235193311024L188.599455,34.142567027504825L188.692453125,34.2125823132856L188.9714475,34.28239860722995L189.0179465625,34.35201672167753L189.34344000000002,34.42143746456049L189.90142875,34.31621555342416L190.1339240625,34.2112912141641L190.27342125,34.106663238537095L190.6919128125,34.00233042481972L190.738411875,33.898291577764915L191.01740625000002,33.79454550855778L191.0639053125,33.69109103477293L191.7148921875,33.587926980331375L191.90088843750002,33.45000665062653L191.9938865625,33.31247254691448L192.0868846875,33.17532311765554L192.22638187500002,33.0385568195933L192.3658790625,32.902172117699195L192.784370625,32.7661674851174L193.06336499999998,32.63054140311109L193.156363125,32.49529236100789L193.6678528125,32.36041885614682L193.714351875,32.225919393825535L193.99334625,32.08640563664354L194.31883968749997,31.947277859573486L195.4348171875,31.808534532388773L195.574314375,31.67017413292403L195.7138115625,31.532195147022698L195.8068096875,31.394596068484084L196.78329,31.155224260499907L196.9227871875,30.91650996054156L197.1087834375,30.67845058223908L197.1552825,30.441043552740947L197.2017815625,30.204286312625634L197.4807759375,29.968176315814404L197.62027312499998,29.732711029484076L197.71327125,29.497887933981087L198.1317628125,29.263704522735857L198.31775906250002,29.030158302178304L198.45725625,28.797246791652785L198.68975156250002,28.564967523335685L199.06174406250003,28.389360627881587L199.2477403125,28.214229304653365L199.3407384375,28.039571711670245L199.4337365625,27.86538601643L200.038224375,27.69167039584854L200.1312225,27.518423036198953L200.2707196875,27.34564213305184L200.8287084375,27.173325891215413L201.0147046875,27.001472524676984L201.24720000000002,27.14231713506601L201.340198125,27.28278428247764L201.80518875,27.305816341957712L201.898186875,27.32878681766371L201.991185,27.351695944811798L202.5956728125,27.374543957424756L202.87466718750002,27.397331088339133L203.3396578125,27.42005756921346L203.572153125,27.4427236305352L203.8976465625,27.465329501627888L204.03714374999998,27.487875410659097L204.130141875,27.510361584647598L205.06012312500002,27.482128041237544L205.1066221875,27.453969132614368L205.15312125,27.425884577263215L205.3856165625,27.39787409507984L205.4786146875,27.369937407361377L205.7576090625,27.342074236798148L205.9436053125,27.314284307464494L206.31559781250002,27.286567344810376L206.36209687500002,27.258923075652703L206.59459218749998,27.231351228167103L206.64109125,27.20385153187887L206.8270875,27.17642371765538L207.3385771875,27.251271502863922L207.61757156250002,27.32592407732858L207.8965659375,27.40038216653162L208.036063125,27.47464649237431L208.54755281250002,27.548717773199087L208.7335490625,27.622596723811363L208.91954531250002,27.696284055501252L209.0125434375,27.769780476065375L209.24503875,27.899407078854274L209.431035,28.028698580314234L209.6635303125,28.15765621372733L209.896025625,28.056393816604015L210.08202187499998,27.955392335615997L210.1285209375,27.854650813989007L210.22151906250002,27.75416829960796L210.640010625,27.587294717401946L210.6865096875,27.420849234456234L211.197999375,27.254830288491966L211.2909975,27.089236324800897L211.33749656249998,26.924065796200072L211.66299,26.7593171629861L211.755988125,26.59498889289013L211.8024871875,26.43107946103276L211.84898625000002,26.267587349879594L211.8954853125,26.104511049197704L212.0814815625,25.941849056010586L212.1744796875,25.779599874555675L213.1974590625,25.617762016240256L213.33695625,25.456333999599373L213.98794312500002,25.31302561883571L214.2204384375,25.17007938128889L214.26693749999998,25.027493987250065L214.359935625,24.885268143203824L214.731928125,24.74340056179109L214.96442343750002,24.601889961772255L215.28991687500002,24.524364856712065L216.59189062500002,24.44703441564786L216.9173840625,24.369897944861517L217.42887375,24.29295475391659L217.6613690625,24.21620415563978L218.079860625,24.386725114773906L218.12635968749998,24.556820147240984L218.5913503125,24.72649076205317L218.63784937499997,24.895738461125866L218.6843484375,25.06456473931838L218.77734656250001,25.11328201404939L218.8703446875,25.16187823723109L218.9633428125,25.210353835250988L219.00984187499998,25.258709232502383L219.05634093749998,25.306944851397127L219.14933906250002,25.355061112376344L219.9863221875,25.403058433922013L220.2188175,25.45093723256872L220.45131281250002,25.498697922914744L220.59081,25.546340917633408L220.7303071875,25.59386662748404L220.9628025,25.625855843105427L221.4742921875,25.657766470979574L221.89278375,25.6895987844382L222.0322809375,25.721353055550544L222.07878000000002,25.75302955513194L222.49727156249998,25.78462855275014L222.7762659375,25.816150316733026L223.473751875,25.84759511417535L223.5202509375,25.878963210945887L223.7992453125,26.020938010707766L223.9852415625,26.222964315720453L224.12473874999998,26.42449932975991L224.403733125,26.625544742243306L224.49673124999998,26.826102234877954L224.9152228125,26.974015126004463L225.1012190625,27.1215697670613L225.3802134375,27.268767384431627L225.61270875,27.415609198927864L225.891703125,27.551595334920076L226.077699375,27.68725342533734L226.31019468750003,27.822584588136795L226.635688125,27.95758993622036L226.82168437500002,28.092270577462948L227.2401759375,28.226627614740735L227.379673125,28.360662145959875L227.937661875,28.494375264083835L228.2631553125,28.627768057161894L228.4026525,28.760841608355843L228.49565062500002,28.893596995968174L228.5421496875,29.02603529346925L228.7281459375,29.193520173698406L228.774645,29.360605797793262L228.8211440625,29.527293508366725L229.37913281250002,29.674853458082506L229.65812718749999,29.704121661150445L229.70462625,29.733320366569636L229.797624375,29.762449807018765L230.0301196875,29.79151021414321L230.07661875,29.82050181856063L230.2161159375,29.84942484986651L230.4951103125,29.87827953664021L230.68110656250002,29.907066106450294L231.0066,29.935784785860026L231.471590625,29.964435800433385L231.750585,29.993019374739887L231.93658125000002,30.02153573236084L232.0760784375,30.049985095893902L232.4480709375,30.11359007482L232.5410690625,30.177045912073396L233.14555687499998,30.240353099955453L233.331553125,30.30351212861193L233.3780521875,30.366523486045054L234.261534375,30.454704671530763L234.3080334375,30.54268007491819L234.447530625,30.630450371818206L234.77302406249999,30.718016234900116L234.86602218750002,30.805378333907335L235.2380146875,30.970368819306078L235.3310128125,31.134976101960678L235.377511875,31.29920143324839L235.9819996875,31.46304605912758L236.0749978125,31.626511220166737L236.121496875,31.78959815157373L236.5399884375,31.952308083224423L236.679485625,32.1146422396919L236.77248375,32.27660184027466L237.1909753125,32.43818809902535L237.33047249999998,32.59940222477835L237.42347062500002,32.760245421178645L237.51646875,32.92071888670912L238.0744575,33.05601746162147L238.8649415625,33.19100560365275L239.097436875,33.227781817708255L239.5624275,33.23965277476135L239.84142187499998,33.231465853272205L240.1669153125,33.22329764656076L240.4459096875,33.215148094603464L240.5389078125,33.20701713763195L240.7249040625,33.1989047161313L241.0503975,33.19081077083958L241.0968965625,33.182735242745906L241.14339562499998,33.17467807308909L241.60838625,33.1666392033566L242.35237125,33.11513884527685L242.5848665625,33.063755244132274L242.817361875,33.01248802895162L243.0498571875,32.96133683032602L243.09635625,32.910301280400645L243.189354375,32.859381012866926L243.32885156249998,32.80857566295367L243.7938421875,32.7578848674201L243.9798384375,32.70730826454678L244.0263375,32.656845494128525L244.305331875,32.60649619746562L244.491328125,32.55626001735657L244.5378271875,32.50613659809031L244.9098196875,32.515995454962145L245.00281781249998,32.52583222223997L245.049316875,32.53564696917425L245.09581593750002,32.545439764727824L245.1888140625,32.55521067757733L245.32831124999998,32.56495977611465L245.3748103125,32.57468712844817L245.421309375,32.58439280240499L245.4678084375,32.59407686553151L245.6538046875,32.603739385095395L245.7468028125,32.61338042808665L245.88629999999998,32.62300006121957L245.93279906249998,32.632598350933726L245.979298125,32.64217536339552L246.02579718750002,32.65173116449952L246.1187953125,32.66126581987L246.25829249999998,32.67077939486213L246.3047915625,32.68027195456348L246.5837859375,32.68974356379573L246.8627803125,32.699194287115006L246.95577843750002,32.708624188814376L247.095275625,32.718033332924705L247.65326437500002,32.79439566703381L248.025256875,32.87059020150788L248.07175593749997,32.94661745081757L248.118255,33.103480599376326L248.397249375,33.25999995288738L248.7227428125,33.4307604825886L248.95523812500002,33.579880624067336L249.2807315625,33.728674788995846L249.4667278125,33.87237655561605L249.699223125,33.97238872491747L249.88521937500002,34.07218283285177L250.16421375,34.171759542032994L250.25721187500002,34.27111951240845L250.3967090625,34.37026340127239L250.7222025,34.469191863278766L251.00119687499998,34.567905550455144L251.14069406250002,34.66640511221548L251.2336921875,34.764691195373L251.28019125,34.862764444154095L251.51268656250002,34.94324394546812" style="fill: none;" fill="none"></path></g></g></g></g><g opacity="0.2"><g><g><g><path stroke="rgb(238, 51, 119)" stroke-width="2px" d="M27.340706249999997,210.7411028402192L27.712698749999998,152.93040226187026L28.0381921875,152.93040226187026L28.410184687500003,152.93040226187026L28.549681875,152.93040226187026L28.5961809375,152.93040226187026L28.921674375,86.52899215902602L29.154169687499998,86.52899215902602L29.5261621875,86.52899215902602L30.13065,86.52899215902602L30.6421396875,86.52899215902602L30.874635,86.52899215902602L31.0141321875,86.52899215902602L31.432623749999998,86.52899215902602L31.479122812499998,86.52899215902602L31.9441134375,125.556958930833L32.17660875,192.1401346751622L34.03657125,192.1401346751622L34.315565625,119.04018514496941L34.5480609375,119.04018514496941L34.687558125,119.04018514496941L35.245546874999995,89.95688678537097L35.52454125,89.95688678537097L35.7570365625,89.95688678537097L36.08253,89.95688678537097L36.26852625,89.95688678537097L36.361524375,89.95688678537097L37.2450065625,89.95688678537097L37.477501874999994,89.95688678537097L37.5240009375,81.82703292369844L37.75649625,81.82703292369844L37.9889915625,81.82703292369844L38.0819896875,81.82703292369844L38.453982187499996,81.82703292369844L38.50048125,81.82703292369844L38.8259746875,-27.924213307244404L44.2198659375,-37.324456300054266L44.359363125,105.44864698818752L44.638357500000005,-55.27113257135663L49.8462525,-64.8313156877245L50.125246875,97.98341046060835L50.311243125000004,97.98341046060835L50.5902375,117.71545956815991L50.683235625,117.71545956815991L50.729734687500006,117.71545956815991L50.82273281249999,117.71545956815991L50.915730937499994,117.71545956815991L50.96223,117.71545956815991L51.1947253125,117.71545956815991L51.241224374999994,167.97187853710992L51.659715937499996,167.97187853710992L51.9387103125,155.04277895178114L52.0317084375,155.04277895178114L52.26420375,155.04277895178114L52.4966990625,155.04277895178114L52.5896971875,155.04277895178114L53.1476859375,155.04277895178114L53.473179374999994,155.04277895178114L53.5196784375,155.04277895178114L53.6126765625,155.04277895178114L53.7056746875,155.04277895178114L53.75217375,155.04277895178114L53.845171875,155.04277895178114L54.403160625,155.04277895178114L54.542657812499996,155.04277895178114L54.7286540625,156.65324451242174L54.86815125,156.65324451242174L55.0076484375,156.65324451242174L55.193644687500004,156.65324451242174L55.24014375,156.65324451242174L55.426140000000004,156.65324451242174L55.6586353125,156.65324451242174L55.705134375,156.65324451242174L56.170125,133.62688734701703L56.356121249999994,133.62688734701703L56.4956184375,133.62688734701703L56.8676109375,62.3768209729876L57.0536071875,62.3768209729876L57.193104375,62.3768209729876L57.2396034375,62.3768209729876L57.2861025,62.3768209729876L57.6115959375,58.1068630048207L57.8905903125,58.1068630048207L57.9835884375,58.1068630048207L58.0300875,58.1068630048207L58.21608375,58.1068630048207L58.402080000000005,58.1068630048207L58.5415771875,58.1068630048207L58.58807625,58.1068630048207L58.634575312500004,58.1068630048207L58.8205715625,58.1068630048207L59.239063124999994,58.1068630048207L59.425059375,58.1068630048207L59.4715584375,58.1068630048207L59.5180575,58.1068630048207L59.611055625,-3.8044014828545594L62.865990000000004,-12.60664044107709L63.9819675,41.39548831326623L64.074965625,41.39548831326623L64.3074609375,41.39548831326623L64.40045906249999,41.39548831326623L64.5864553125,41.39548831326623L64.6794534375,41.39548831326623L65.0514459375,41.39548831326623L65.3304403125,41.39548831326623L65.5164365625,41.39548831326623L65.84193,41.39548831326623L65.934928125,41.39548831326623L66.2139225,41.39548831326623L66.306920625,41.39548831326623L66.4464178125,41.39548831326623L66.492916875,41.39548831326623L66.585915,41.39548831326623L66.95790749999999,57.99315054076061L67.0044065625,57.99315054076061L67.14390374999999,57.99315054076061L67.4693971875,57.99315054076061L67.60889437499999,57.99315054076061L68.0273859375,57.99315054076061L68.2133821875,57.99315054076061L68.352879375,57.99315054076061L68.3993784375,57.99315054076061L68.81787,-13.350526843752151L71.42181749999999,-13.350526843752151L71.60781374999999,14.94951581954958L71.6543128125,14.94951581954958L71.886808125,14.94951581954958L72.2123015625,21.77150583267214L72.72379124999999,21.77150583267214L72.816789375,21.77150583267214L73.09578375,196.04898641790663L73.5142753125,196.04898641790663L73.70027156249999,59.68970564433508L73.79326968749999,59.68970564433508L74.025765,59.68970564433508L74.0722640625,59.68970564433508L74.118763125,59.68970564433508L74.490755625,59.68970564433508L74.76975,59.68970564433508L74.95574625,59.68970564433508L75.0022453125,59.68970564433508L75.048744375,59.68970564433508L75.46723593749999,59.68970564433508L75.69973125,59.68970564433508L76.35071812499999,59.68970564433508L76.44371625,64.74394237995149L77.37369749999999,82.91770255565645L77.42019656250001,82.91770255565645L77.6061928125,82.91770255565645L77.652691875,82.91770255565645L77.6991909375,82.91770255565645L78.53617406250001,82.91770255565645L78.768669375,82.91770255565645L79.09416281249999,82.91770255565645L79.140661875,82.91770255565645L79.41965625,82.91770255565645L79.512654375,82.91770255565645L79.74514968749999,82.91770255565645L79.8381478125,94.66574227809906L80.1171421875,94.66574227809906L80.9541253125,125.33411887713842L81.0471234375,125.33411887713842L81.1401215625,83.29021412985665L81.5121140625,83.29021412985665L81.65161124999999,83.29021412985665L82.02360374999999,-100.34120600564137L88.34747625,-35.11985164029255L88.3939753125,91.5339699132102L89.370455625,91.5339699132102L89.41695468750001,91.5339699132102L89.64945,91.5339699132102L89.7889471875,91.5339699132102L89.97494343749999,91.5339699132102L90.0679415625,106.67504405975342L90.2539378125,106.67504405975342L90.4399340625,106.67504405975342L90.62593031249999,106.67504405975342L91.788406875,-40.00217453071046L94.9968421875,-31.383785247802695L95.5548309375,43.77037748268673L95.78732625,43.77037748268673L95.8338253125,43.77037748268673L95.92682343749999,43.77037748268673L96.252316875,43.77037748268673L96.57781031249999,43.77037748268673L96.62430937500001,43.77037748268673L97.0428009375,43.77037748268673L97.22879718749999,43.77037748268673L97.3217953125,57.95560004029956L97.5077915625,57.95560004029956L97.926283125,57.95560004029956L98.2517765625,57.95560004029956L98.29827562499999,57.95560004029956L98.53077093750001,71.53436875343324L98.9027634375,52.02337879793987L99.321255,42.34054081780572L99.36775406250001,42.34054081780572L99.5537503125,42.34054081780572L99.78624562499999,24.616022552762722L99.9257428125,24.616022552762722L100.01874093750001,24.616022552762722L100.158238125,24.616022552762722L100.29773531250001,22.03041861738479L100.4837315625,22.03041861738479L100.85572406249999,22.03041861738479L101.22771656249999,22.03041861738479L101.4137128125,22.03041861738479L101.55321,22.03041861738479L101.5997090625,22.03041861738479L101.8787034375,22.03041861738479L101.9252025,22.03041861738479L102.297195,22.03041861738479L102.48319125,22.03041861738479L102.5296903125,22.03041861738479L102.57618937500001,22.03041861738479L102.6691875,22.03041861738479L102.8086846875,22.03041861738479L103.13417812499999,36.140426499503015L103.1806771875,36.140426499503015L103.5526696875,36.140426499503015L103.59916874999999,36.140426499503015L104.0176603125,36.140426499503015L104.2036565625,99.73161171163832L104.29665468750001,99.73161171163832L104.436151875,99.73161171163832L104.6686471875,99.73161171163832L104.71514625,99.73161171163832L104.808144375,99.73161171163832L104.8546434375,99.73161171163832L104.90114249999999,99.73161171163832L105.13363781250001,125.55142676830292L105.7846246875,88.21671853746687L106.20311625000001,0.0658009052276809L106.482110625,0.0658009052276809L106.80760406249999,0.0658009052276809L106.85410312500001,-6.6640369210924195L109.41155156250001,-6.6640369210924195L109.644046875,55.147951773234794L109.830043125,65.55175178391595L110.4345309375,65.55175178391595L110.52752906250001,65.55175178391595L110.574028125,52.1396678856441L110.8530225,52.1396678856441L110.89952156250001,52.1396678856441L110.946020625,52.1396678856441L111.03901875,52.1396678856441L111.690005625,52.1396678856441L112.52698875,25.653833508491537L112.80598312500001,25.653833508491537L113.1314765625,25.653833508491537L113.4104709375,25.653833508491537L113.5964671875,25.653833508491537L113.6894653125,25.653833508491537L113.7824634375,25.653833508491537L114.0614578125,25.653833508491537L114.200955,25.653833508491537L114.29395312499999,25.653833508491537L114.4334503125,25.653833508491537L114.5729475,25.653833508491537L114.7124446875,25.653833508491537L115.13093624999999,43.606875555855915L115.223934375,43.606875555855915L115.78192312499999,43.606875555855915L115.82842218750001,43.606875555855915L115.87492125,43.606875555855915L116.525908125,43.606875555855915L116.711904375,43.606875555855915L116.897900625,43.606875555855915L117.08389687500001,43.606875555855915L117.1303959375,43.606875555855915L117.269893125,43.606875555855915L117.36289125,43.606875555855915L117.455889375,78.86872795649938L117.827881875,78.86872795649938L117.92088000000001,78.86872795649938L118.0603771875,78.86872795649938L118.19987437500001,78.86872795649938L118.33937156249999,123.23144241741726L118.4323696875,123.23144241741726L118.57186687500001,123.23144241741726L118.7113640625,123.23144241741726L119.4553490625,85.72622232777734L119.78084249999999,85.72622232777734L120.0133378125,85.72622232777734L120.059836875,85.72622232777734L120.1063359375,85.72622232777734L120.1993340625,85.72622232777734L120.24583312499999,85.72622232777734L120.33883125,85.72622232777734L120.43182937499999,85.72622232777734L120.617825625,73.4353107384273L120.803821875,73.4353107384273L121.0363171875,73.4353107384273L121.12931531250001,73.4353107384273L121.45480875,73.4353107384273L121.547806875,73.4353107384273L121.59430593750001,73.4353107384273L121.82680125,73.4353107384273L122.0127975,37.167968852179406L122.2452928125,37.167968852179406L122.33829093749999,37.167968852179406L122.38479,37.167968852179406L122.84978062500001,37.167968852179406L122.8962796875,37.167968852179406L123.0822759375,37.167968852179406L123.221773125,37.167968852179406L123.3612703125,37.167968852179406L123.407769375,37.167968852179406L123.5472665625,37.167968852179406L123.593765625,37.167968852179406L123.68676375000001,37.167968852179406L123.9192590625,37.167968852179406L123.96575812500001,37.167968852179406L124.2912515625,37.167968852179406L124.33775062500001,37.167968852179406L124.52374687499999,37.167968852179406L124.616745,37.167968852179406L124.70974312499999,37.167968852179406L124.89573937499999,144.04527559450696L125.36072999999999,144.04527559450696L125.453728125,144.04527559450696L125.54672624999999,144.04527559450696L125.59322531250001,144.04527559450696L125.7792215625,176.9581945197923L125.91871875,-52.19494707243781L128.8481596875,-59.52222056048255L129.4061484375,67.80175048964367L129.5921446875,67.80175048964367L129.731641875,67.80175048964367L130.1966325,33.22865232399533L130.475626875,33.22865232399533L130.5221259375,33.22865232399533L130.6151240625,33.22865232399533L130.75462124999999,33.22865232399533L130.8941184375,33.22865232399533L130.9406175,33.22865232399533L130.9871165625,33.22865232399533L131.4521071875,33.22865232399533L131.49860625,33.22865232399533L131.5451053125,33.22865232399533L131.6381034375,33.22865232399533L132.1960921875,33.22865232399533L132.24259125,33.22865232399533L132.2890903125,33.22865232399533L132.335589375,33.22865232399533L132.707581875,60.29506063461306L133.1260734375,60.29506063461306L133.9165575,60.29506063461306L134.567544375,69.76866161823274L134.753540625,69.76866161823274L134.8000396875,69.76866161823274L134.8930378125,74.81933655057635L135.2650303125,74.81933655057635L135.3580284375,74.81933655057635L135.5440246875,74.81933655057635L136.0090153125,74.81933655057635L136.3810078125,121.736223927566L136.427506875,121.736223927566L136.9389965625,121.736223927566L137.3109890625,121.736223927566L137.5899834375,121.736223927566L137.6364825,121.736223927566L137.729480625,121.736223927566L137.82247875,121.736223927566L138.05497406249998,121.736223927566L138.93845625,167.44268551043103L139.217450625,167.44268551043103L139.2639496875,167.44268551043103L139.7289403125,167.44268551043103L139.82193843750002,176.23840712649482L139.961435625,176.23840712649482L140.0079346875,176.23840712649482L140.05443375,176.23840712649482L140.519424375,144.61381896904538L140.56592343749998,144.61381896904538L140.70542062500002,144.61381896904538L140.98441499999998,144.61381896904538L141.2169103125,144.61381896904538L141.30990843749998,144.61381896904538L141.4029065625,144.61381896904538L141.4959046875,144.61381896904538L141.91439625,144.61381896904538L142.1003925,144.61381896904538L142.28638875,36.80652160303936L142.37938687500002,36.80652160303936L142.5188840625,36.80652160303936L142.93737562500002,36.80652160303936L142.9838746875,36.80652160303936L143.16987093749998,36.80652160303936L143.4488653125,36.80652160303936L143.54186343749998,36.80652160303936L144.0998521875,36.80652160303936L144.14635125,36.80652160303936L144.1928503125,36.80652160303936L144.239349375,36.80652160303936L144.3788465625,36.80652160303936L144.56484281250002,36.80652160303936L144.8438371875,36.80652160303936L144.89033625000002,56.016652856554316L145.0298334375,56.016652856554316L145.4018259375,56.016652856554316L145.63432125,56.016652856554316L145.7738184375,56.016652856554316L145.913315625,56.016652856554316L145.9598146875,56.016652856554316L146.2388090625,20.849264025688193L146.3318071875,20.849264025688193L146.6108015625,20.849264025688193L146.75029875,20.849264025688193L146.8897959375,20.849264025688193L146.936295,20.849264025688193L147.12229125000002,20.849264025688193L148.0057734375,-14.397810680525637L151.7721975,-17.414241245814708L151.8186965625,2.699527076312491L151.865195625,2.699527076312491L151.9116946875,-0.8386318853922914L155.3526253125,-3.2622116633823883L156.2361075,33.866063543728444L156.46860281250002,33.866063543728444L156.6081,54.13905205045428L156.7475971875,54.13905205045428L157.16608875,54.13905205045428L157.21258781249998,54.13905205045428L157.4915821875,54.13905205045428L157.58458031249998,54.13905205045428L157.63107937499998,54.13905205045428L157.91007375,82.90220492226739L158.0495709375,82.90220492226739L158.3285653125,82.90220492226739L158.4215634375,-8.675205349922141L162.6064790625,-20.84558400085993L162.8854734375,27.55344929013936L163.07146968749998,27.55344929013936L163.303965,27.248839327267262L163.396963125,27.248839327267262L163.48996125,27.248839327267262L163.582959375,27.248839327267262L163.6759575,27.248839327267262L163.86195375,27.248839327267262L163.9084528125,27.248839327267262L164.04795,27.248839327267262L164.326944375,27.248839327267262L164.4199425,27.248839327267262L164.5594396875,27.248839327267262L164.93143218749998,27.248839327267262L165.02443031250002,27.248839327267262L165.070929375,7.407738413129563L165.1174284375,7.407738413129563L165.4894209375,7.407738413129563L166.18690687499998,7.407738413129563L166.279905,7.407738413129563L166.372903125,7.407738413129563L166.46590125,7.407738413129563L166.55889937499998,7.407738413129563L166.9773909375,7.407738413129563L167.1633871875,7.407738413129563L167.767875,-11.157403315816595L172.7432746875,-17.054120200020893L173.85925218749998,27.63574968065536L173.99874937500002,27.63574968065536L174.32424281250002,27.63574968065536L174.46374,27.63574968065536L174.5102390625,27.63574968065536L174.60323718749999,27.63574968065536L174.64973625,27.63574968065536L174.9752296875,27.63574968065536L175.0682278125,27.63574968065536L175.5797175,49.25983626501903L175.8122128125,58.30223170348577L176.230704375,53.621756962367485L176.3237025,53.621756962367485L176.41670062499998,-6.419257674898391L180.5551171875,-89.74328771659303L180.64811531249998,34.79292811666219L180.74111343750002,34.79292811666219L180.880610625,34.79292811666219L181.1131059375,34.79292811666219L181.67109468750002,34.79292811666219L181.90358999999998,34.79292811666219L182.1360853125,34.79292811666219L182.97306843750002,12.489711744444724L183.1590646875,12.489711744444724L183.29856187500002,12.489711744444724L183.53105718749998,12.489711744444724L183.8100515625,12.489711744444724L183.856550625,12.489711744444724L184.042546875,12.489711744444724L184.135545,12.489711744444724L184.414539375,12.489711744444724L184.46103843749998,12.489711744444724L184.7400328125,12.489711744444724L185.06552625,12.489711744444724L185.344520625,60.88283395767214L185.4840178125,60.88283395767214L185.76301218749998,60.88283395767214L186.274501875,66.63787443297252L186.3675,66.63787443297252L186.6929934375,66.63787443297252L186.832490625,66.63787443297252L186.9719878125,66.63787443297252L187.06498593749998,66.63787443297252L187.29748125,66.63787443297252L188.04146625,66.63787443297252L188.134464375,70.56389103616988L188.1809634375,70.56389103616988L188.36695968749999,70.56389103616988L188.41345875000002,70.56389103616988L188.599455,70.56389103616988L188.692453125,70.56389103616988L188.9714475,70.56389103616988L189.0179465625,70.56389103616988L189.34344000000002,70.56389103616988L189.90142875,-20.515700391360667L201.0147046875,-66.08957953112464L201.24720000000002,103.50068162168776L201.340198125,103.50068162168776L201.80518875,39.813592961856315L201.898186875,39.813592961856315L201.991185,39.813592961856315L202.5956728125,39.813592961856315L202.87466718750002,39.813592961856315L203.3396578125,39.813592961856315L203.572153125,39.813592961856315L203.8976465625,39.813592961856315L204.03714374999998,39.813592961856315L204.130141875,39.813592961856315L205.06012312500002,12.021486180169267L205.1066221875,12.021486180169267L205.15312125,12.021486180169267L205.3856165625,12.021486180169267L205.4786146875,12.021486180169267L205.7576090625,12.021486180169267L205.9436053125,12.021486180169267L206.31559781250002,12.021486180169267L206.36209687500002,12.021486180169267L206.59459218749998,12.021486180169267L206.64109125,12.021486180169267L206.8270875,12.021486180169267L207.3385771875,68.64100985867638L207.61757156250002,68.64100985867638L207.8965659375,68.64100985867638L208.036063125,68.64100985867638L208.54755281250002,68.64100985867638L208.7335490625,68.64100985867638L208.91954531250002,68.64100985867638L209.0125434375,68.64100985867638L209.24503875,100.0419432946614L209.431035,100.0419432946614L209.6635303125,100.0419432946614L209.896025625,-28.434574246406516L217.6613690625,-19.535749793052634L218.079860625,121.66595409597669L218.12635968749998,121.66595409597669L218.5913503125,121.66595409597669L218.63784937499997,121.66595409597669L218.6843484375,121.66595409597669L218.77734656250001,53.009808846882436L218.8703446875,53.009808846882436L218.9633428125,53.009808846882436L219.00984187499998,53.009808846882436L219.05634093749998,53.009808846882436L219.14933906250002,53.009808846882436L219.9863221875,53.009808846882436L220.2188175,53.009808846882436L220.45131281250002,53.009808846882436L220.59081,53.009808846882436L220.7303071875,53.009808846882436L220.9628025,44.09283435344698L221.4742921875,44.09283435344698L221.89278375,44.09283435344698L222.0322809375,44.09283435344698L222.07878000000002,44.09283435344698L222.49727156249998,44.09283435344698L222.7762659375,44.09283435344698L223.473751875,44.09283435344698L223.5202509375,44.09283435344698L223.7992453125,108.51793622970581L223.9852415625,143.69839763641357L224.12473874999998,143.69839763641357L224.403733125,143.69839763641357L224.49673124999998,143.69839763641357L224.9152228125,113.22991777317867L225.1012190625,113.22991777317867L225.3802134375,113.22991777317867L225.61270875,113.22991777317867L225.891703125,107.07822882277627L226.077699375,107.07822882277627L226.31019468750003,107.07822882277627L226.635688125,107.07822882277627L226.82168437500002,107.07822882277627L227.2401759375,107.07822882277627L227.379673125,107.07822882277627L227.937661875,107.07822882277627L228.2631553125,107.07822882277627L228.4026525,107.07822882277627L228.49565062500002,107.07822882277627L228.5421496875,107.07822882277627L228.7281459375,127.9689439024244L228.774645,127.9689439024244L228.8211440625,127.9689439024244L229.37913281250002,116.88038721254894L229.65812718749999,47.013096230370664L229.70462625,47.013096230370664L229.797624375,47.013096230370664L230.0301196875,47.013096230370664L230.07661875,47.013096230370664L230.2161159375,47.013096230370664L230.4951103125,47.013096230370664L230.68110656250002,47.013096230370664L231.0066,47.013096230370664L231.471590625,47.013096230370664L231.750585,47.013096230370664L231.93658125000002,47.013096230370664L232.0760784375,47.013096230370664L232.4480709375,68.0640735115324L232.5410690625,68.0640735115324L233.14555687499998,68.0640735115324L233.331553125,68.0640735115324L233.3780521875,68.0640735115324L234.261534375,83.24584315504347L234.3080334375,83.24584315504347L234.447530625,83.24584315504347L234.77302406249999,83.24584315504347L234.86602218750002,83.24584315504347L235.2380146875,130.07427276883806L235.3310128125,130.07427276883806L235.377511875,130.07427276883806L235.9819996875,130.07427276883806L236.0749978125,130.07427276883806L236.121496875,130.07427276883806L236.5399884375,130.07427276883806L236.679485625,130.07427276883806L236.77248375,130.07427276883806L237.1909753125,130.07427276883806L237.33047249999998,130.07427276883806L237.42347062500002,130.07427276883806L237.51646875,130.07427276883806L238.0744575,115.0214858736311L238.8649415625,115.0214858736311L239.097436875,55.53615043844497L239.5624275,40.445206778390094L239.84142187499998,28.258875795773122L240.1669153125,28.258875795773122L240.4459096875,28.258875795773122L240.5389078125,28.258875795773122L240.7249040625,28.258875795773122L241.0503975,28.258875795773122L241.0968965625,28.258875795773122L241.14339562499998,28.258875795773122L241.60838625,28.258875795773122L242.35237125,1.653948358127066L242.5848665625,1.653948358127066L242.817361875,1.653948358127066L243.0498571875,1.653948358127066L243.09635625,1.653948358127066L243.189354375,1.653948358127066L243.32885156249998,1.653948358127066L243.7938421875,1.653948358127066L243.9798384375,1.653948358127066L244.0263375,1.653948358127066L244.305331875,1.653948358127066L244.491328125,1.653948358127066L244.5378271875,1.653948358127066L244.9098196875,38.58814317839489L245.00281781249998,38.58814317839489L245.049316875,38.58814317839489L245.09581593750002,38.58814317839489L245.1888140625,38.58814317839489L245.32831124999998,38.58814317839489L245.3748103125,38.58814317839489L245.421309375,38.58814317839489L245.4678084375,38.58814317839489L245.6538046875,38.58814317839489L245.7468028125,38.58814317839489L245.88629999999998,38.58814317839489L245.93279906249998,38.58814317839489L245.979298125,38.58814317839489L246.02579718750002,38.58814317839489L246.1187953125,38.58814317839489L246.25829249999998,38.58814317839489L246.3047915625,38.58814317839489L246.5837859375,38.58814317839489L246.8627803125,38.58814317839489L246.95577843750002,38.58814317839489L247.095275625,38.58814317839489L247.65326437500002,80.46343064308168L248.025256875,80.46343064308168L248.07175593749997,80.46343064308168L248.118255,131.20116669791085L248.397249375,131.20116669791085L248.7227428125,140.3470059973853L248.95523812500002,127.00229322910309L249.2807315625,127.00229322910309L249.4667278125,124.00723348345075L249.699223125,96.74075792516982L249.88521937500002,96.74075792516982L250.16421375,96.74075792516982L250.25721187500002,96.74075792516982L250.3967090625,96.74075792516982L250.7222025,96.74075792516982L251.00119687499998,96.74075792516982L251.14069406250002,96.74075792516982L251.2336921875,96.74075792516982L251.28019125,96.74075792516982L251.51268656250002,85.75032133715493" style="fill: none;" fill="none"></path></g></g></g></g></g></g><g transform="translate(51, 178)" clip-path="url(#clip_1)"><clipPath id="clip_1"><rect width="278" height="22"></rect></clipPath><g><g><line x1="0" y1="0" x2="0" y2="5" style="visibility: inherit;" fill="rgb(0, 0, 0)" stroke="rgb(204, 204, 204)" stroke-width="1px"></line><line x1="23.203125" y1="0" x2="23.203125" y2="5" style="visibility: inherit;" fill="rgb(0, 0, 0)" stroke="rgb(204, 204, 204)" stroke-width="1px"></line><line x1="46.40625" y1="0" x2="46.40625" y2="5" style="visibility: inherit;" fill="rgb(0, 0, 0)" stroke="rgb(204, 204, 204)" stroke-width="1px"></line><line x1="69.609375" y1="0" x2="69.609375" y2="5" style="visibility: inherit;" fill="rgb(0, 0, 0)" stroke="rgb(204, 204, 204)" stroke-width="1px"></line><line x1="92.8125" y1="0" x2="92.8125" y2="5" style="visibility: inherit;" fill="rgb(0, 0, 0)" stroke="rgb(204, 204, 204)" stroke-width="1px"></line><line x1="116.015625" y1="0" x2="116.015625" y2="5" style="visibility: inherit;" fill="rgb(0, 0, 0)" stroke="rgb(204, 204, 204)" stroke-width="1px"></line><line x1="139.21875" y1="0" x2="139.21875" y2="5" style="visibility: inherit;" fill="rgb(0, 0, 0)" stroke="rgb(204, 204, 204)" stroke-width="1px"></line><line x1="162.421875" y1="0" x2="162.421875" y2="5" style="visibility: inherit;" fill="rgb(0, 0, 0)" stroke="rgb(204, 204, 204)" stroke-width="1px"></line><line x1="185.625" y1="0" x2="185.625" y2="5" style="visibility: inherit;" fill="rgb(0, 0, 0)" stroke="rgb(204, 204, 204)" stroke-width="1px"></line><line x1="208.828125" y1="0" x2="208.828125" y2="5" style="visibility: inherit;" fill="rgb(0, 0, 0)" stroke="rgb(204, 204, 204)" stroke-width="1px"></line><line x1="232.03125" y1="0" x2="232.03125" y2="5" style="visibility: inherit;" fill="rgb(0, 0, 0)" stroke="rgb(204, 204, 204)" stroke-width="1px"></line><line x1="255.234375" y1="0" x2="255.234375" y2="5" style="visibility: inherit;" fill="rgb(0, 0, 0)" stroke="rgb(204, 204, 204)" stroke-width="1px"></line><line x1="278.4375" y1="0" x2="278.4375" y2="5" style="visibility: inherit;" fill="rgb(0, 0, 0)" stroke="rgb(204, 204, 204)" stroke-width="1px"></line></g><g transform="translate(0, 8)"><text x="0" y="0" dx="0em" dy="0.95em" style="text-anchor: middle; visibility: hidden; font-family: Roboto, sans-serif; font-size: 12px; font-weight: 200;" fill="rgb(50, 49, 63)" stroke="none" stroke-width="1px">-500k</text><text x="23.203125" y="0" dx="0em" dy="0.95em" style="text-anchor: middle; visibility: inherit; font-family: Roboto, sans-serif; font-size: 12px; font-weight: 200;" fill="rgb(50, 49, 63)" stroke="none" stroke-width="1px">0</text><text x="46.40625" y="0" dx="0em" dy="0.95em" style="text-anchor: middle; visibility: hidden; font-family: Roboto, sans-serif; font-size: 12px; font-weight: 200;" fill="rgb(50, 49, 63)" stroke="none" stroke-width="1px">500k</text><text x="69.609375" y="0" dx="0em" dy="0.95em" style="text-anchor: middle; visibility: inherit; font-family: Roboto, sans-serif; font-size: 12px; font-weight: 200;" fill="rgb(50, 49, 63)" stroke="none" stroke-width="1px">1M</text><text x="92.8125" y="0" dx="0em" dy="0.95em" style="text-anchor: middle; visibility: hidden; font-family: Roboto, sans-serif; font-size: 12px; font-weight: 200;" fill="rgb(50, 49, 63)" stroke="none" stroke-width="1px">1.5M</text><text x="116.015625" y="0" dx="0em" dy="0.95em" style="text-anchor: middle; visibility: inherit; font-family: Roboto, sans-serif; font-size: 12px; font-weight: 200;" fill="rgb(50, 49, 63)" stroke="none" stroke-width="1px">2M</text><text x="139.21875" y="0" dx="0em" dy="0.95em" style="text-anchor: middle; visibility: hidden; font-family: Roboto, sans-serif; font-size: 12px; font-weight: 200;" fill="rgb(50, 49, 63)" stroke="none" stroke-width="1px">2.5M</text><text x="162.421875" y="0" dx="0em" dy="0.95em" style="text-anchor: middle; visibility: inherit; font-family: Roboto, sans-serif; font-size: 12px; font-weight: 200;" fill="rgb(50, 49, 63)" stroke="none" stroke-width="1px">3M</text><text x="185.625" y="0" dx="0em" dy="0.95em" style="text-anchor: middle; visibility: hidden; font-family: Roboto, sans-serif; font-size: 12px; font-weight: 200;" fill="rgb(50, 49, 63)" stroke="none" stroke-width="1px">3.5M</text><text x="208.828125" y="0" dx="0em" dy="0.95em" style="text-anchor: middle; visibility: inherit; font-family: Roboto, sans-serif; font-size: 12px; font-weight: 200;" fill="rgb(50, 49, 63)" stroke="none" stroke-width="1px">4M</text><text x="232.03125" y="0" dx="0em" dy="0.95em" style="text-anchor: middle; visibility: hidden; font-family: Roboto, sans-serif; font-size: 12px; font-weight: 200;" fill="rgb(50, 49, 63)" stroke="none" stroke-width="1px">4.5M</text><text x="255.234375" y="0" dx="0em" dy="0.95em" style="text-anchor: middle; visibility: inherit; font-family: Roboto, sans-serif; font-size: 12px; font-weight: 200;" fill="rgb(50, 49, 63)" stroke="none" stroke-width="1px">5M</text><text x="278.4375" y="0" dx="0em" dy="0.95em" style="text-anchor: middle; visibility: hidden; font-family: Roboto, sans-serif; font-size: 12px; font-weight: 200;" fill="rgb(50, 49, 63)" stroke="none" stroke-width="1px">5.5M</text></g><line x1="0" y1="0" x2="278.4375" y2="0" fill="rgb(0, 0, 0)" stroke="rgb(204, 204, 204)" stroke-width="1px"></line></g></g></g></g></svg>