<svg viewBox="0 0 330 200" xmlns="http://www.w3.org/2000/svg"><g><g><g><g><g><line x1="60" y1="178" x2="55" y2="178" style="visibility: inherit;" fill="rgb(0, 0, 0)" stroke="rgb(204, 204, 204)" stroke-width="1px"></line><line x1="60" y1="163.16666666666666" x2="55" y2="163.16666666666666" style="visibility: inherit;" fill="rgb(0, 0, 0)" stroke="rgb(204, 204, 204)" stroke-width="1px"></line><line x1="60" y1="148.33333333333334" x2="55" y2="148.33333333333334" style="visibility: inherit;" fill="rgb(0, 0, 0)" stroke="rgb(204, 204, 204)" stroke-width="1px"></line><line x1="60" y1="133.5" x2="55" y2="133.5" style="visibility: inherit;" fill="rgb(0, 0, 0)" stroke="rgb(204, 204, 204)" stroke-width="1px"></line><line x1="60" y1="118.66666666666669" x2="55" y2="118.66666666666669" style="visibility: inherit;" fill="rgb(0, 0, 0)" stroke="rgb(204, 204, 204)" stroke-width="1px"></line><line x1="60" y1="103.83333333333334" x2="55" y2="103.83333333333334" style="visibility: inherit;" fill="rgb(0, 0, 0)" stroke="rgb(204, 204, 204)" stroke-width="1px"></line><line x1="60" y1="89.00000000000001" x2="55" y2="89.00000000000001" style="visibility: inherit;" fill="rgb(0, 0, 0)" stroke="rgb(204, 204, 204)" stroke-width="1px"></line><line x1="60" y1="74.16666666666669" x2="55" y2="74.16666666666669" style="visibility: inherit;" fill="rgb(0, 0, 0)" stroke="rgb(204, 204, 204)" stroke-width="1px"></line><line x1="60" y1="59.33333333333336" x2="55" y2="59.33333333333336" style="visibility: inherit;" fill="rgb(0, 0, 0)" stroke="rgb(204, 204, 204)" stroke-width="1px"></line><line x1="60" y1="44.50000000000002" x2="55" y2="44.50000000000002" style="visibility: inherit;" fill="rgb(0, 0, 0)" stroke="rgb(204, 204, 204)" stroke-width="1px"></line><line x1="60" y1="29.66666666666668" x2="55" y2="29.66666666666668" style="visibility: inherit;" fill="rgb(0, 0, 0)" stroke="rgb(204, 204, 204)" stroke-width="1px"></line><line x1="60" y1="14.83333333333334" x2="55" y2="14.83333333333334" style="visibility: inherit;" fill="rgb(0, 0, 0)" stroke="rgb(204, 204, 204)" stroke-width="1px"></line><line x1="60" y1="0" x2="55" y2="0" style="visibility: inherit;" fill="rgb(0, 0, 0)" stroke="rgb(204, 204, 204)" stroke-width="1px"></line></g><g transform="translate(50, 0)"><text x="0" y="178" dx="0em" dy="0.3em" style="text-anchor: end; visibility: hidden; font-family: Roboto, sans-serif; font-size: 12px; font-weight: 200;" fill="rgb(50, 49, 63)" stroke="none" stroke-width="1px">-0.05</text><text x="0" y="163.16666666666666" dx="0em" dy="0.3em" style="text-anchor: end; visibility: inherit; font-family: Roboto, sans-serif; font-size: 12px; font-weight: 200;" fill="rgb(50, 49, 63)" stroke="none" stroke-width="1px">0</text><text x="0" y="148.33333333333334" dx="0em" dy="0.3em" style="text-anchor: end; visibility: hidden; font-family: Roboto, sans-serif; font-size: 12px; font-weight: 200;" fill="rgb(50, 49, 63)" stroke="none" stroke-width="1px">0.05</text><text x="0" y="133.5" dx="0em" dy="0.3em" style="text-anchor: end; visibility: inherit; font-family: Roboto, sans-serif; font-size: 12px; font-weight: 200;" fill="rgb(50, 49, 63)" stroke="none" stroke-width="1px">0.1</text><text x="0" y="118.66666666666669" dx="0em" dy="0.3em" style="text-anchor: end; visibility: hidden; font-family: Roboto, sans-serif; font-size: 12px; font-weight: 200;" fill="rgb(50, 49, 63)" stroke="none" stroke-width="1px">0.15</text><text x="0" y="103.83333333333334" dx="0em" dy="0.3em" style="text-anchor: end; visibility: inherit; font-family: Roboto, sans-serif; font-size: 12px; font-weight: 200;" fill="rgb(50, 49, 63)" stroke="none" stroke-width="1px">0.2</text><text x="0" y="89.00000000000001" dx="0em" dy="0.3em" style="text-anchor: end; visibility: hidden; font-family: Roboto, sans-serif; font-size: 12px; font-weight: 200;" fill="rgb(50, 49, 63)" stroke="none" stroke-width="1px">0.25</text><text x="0" y="74.16666666666669" dx="0em" dy="0.3em" style="text-anchor: end; visibility: inherit; font-family: Roboto, sans-serif; font-size: 12px; font-weight: 200;" fill="rgb(50, 49, 63)" stroke="none" stroke-width="1px">0.3</text><text x="0" y="59.33333333333336" dx="0em" dy="0.3em" style="text-anchor: end; visibility: hidden; font-family: Roboto, sans-serif; font-size: 12px; font-weight: 200;" fill="rgb(50, 49, 63)" stroke="none" stroke-width="1px">0.35</text><text x="0" y="44.50000000000002" dx="0em" dy="0.3em" style="text-anchor: end; visibility: inherit; font-family: Roboto, sans-serif; font-size: 12px; font-weight: 200;" fill="rgb(50, 49, 63)" stroke="none" stroke-width="1px">0.4</text><text x="0" y="29.66666666666668" dx="0em" dy="0.3em" style="text-anchor: end; visibility: hidden; font-family: Roboto, sans-serif; font-size: 12px; font-weight: 200;" fill="rgb(50, 49, 63)" stroke="none" stroke-width="1px">0.45</text><text x="0" y="14.83333333333334" dx="0em" dy="0.3em" style="text-anchor: end; visibility: inherit; font-family: Roboto, sans-serif; font-size: 12px; font-weight: 200;" fill="rgb(50, 49, 63)" stroke="none" stroke-width="1px">0.5</text><text x="0" y="0" dx="0em" dy="0.3em" style="text-anchor: end; visibility: hidden; font-family: Roboto, sans-serif; font-size: 12px; font-weight: 200;" fill="rgb(50, 49, 63)" stroke="none" stroke-width="1px">0.55</text></g><line x1="60" y1="0" x2="60" y2="178" fill="rgb(0, 0, 0)" stroke="rgb(204, 204, 204)" stroke-width="1px"></line></g></g><g transform="translate(60, 0)" clip-path="url(#clip_0)"><clipPath id="clip_0"><rect width="270" height="178"></rect></clipPath><g><g><g><line x1="0" y1="0" x2="0" y2="178" fill="rgb(0, 0, 0)" stroke="rgb(60, 60, 60)" stroke-width="1px" opacity="0.25"></line><line x1="22.5" y1="0" x2="22.5" y2="178" fill="rgb(0, 0, 0)" stroke="rgb(60, 60, 60)" stroke-width="1px" opacity="0.25"></line><line x1="45" y1="0" x2="45" y2="178" fill="rgb(0, 0, 0)" stroke="rgb(60, 60, 60)" stroke-width="1px" opacity="0.25"></line><line x1="67.5" y1="0" x2="67.5" y2="178" fill="rgb(0, 0, 0)" stroke="rgb(60, 60, 60)" stroke-width="1px" opacity="0.25"></line><line x1="90" y1="0" x2="90" y2="178" fill="rgb(0, 0, 0)" stroke="rgb(60, 60, 60)" stroke-width="1px" opacity="0.25"></line><line x1="112.5" y1="0" x2="112.5" y2="178" fill="rgb(0, 0, 0)" stroke="rgb(60, 60, 60)" stroke-width="1px" opacity="0.25"></line><line x1="135" y1="0" x2="135" y2="178" fill="rgb(0, 0, 0)" stroke="rgb(60, 60, 60)" stroke-width="1px" opacity="0.25"></line><line x1="157.5" y1="0" x2="157.5" y2="178" fill="rgb(0, 0, 0)" stroke="rgb(60, 60, 60)" stroke-width="1px" opacity="0.25"></line><line x1="180" y1="0" x2="180" y2="178" fill="rgb(0, 0, 0)" stroke="rgb(60, 60, 60)" stroke-width="1px" opacity="0.25"></line><line x1="202.5" y1="0" x2="202.5" y2="178" fill="rgb(0, 0, 0)" stroke="rgb(60, 60, 60)" stroke-width="1px" opacity="0.25"></line><line x1="225" y1="0" x2="225" y2="178" fill="rgb(0, 0, 0)" stroke="rgb(60, 60, 60)" stroke-width="1px" opacity="0.25"></line><line x1="247.5" y1="0" x2="247.5" y2="178" fill="rgb(0, 0, 0)" stroke="rgb(60, 60, 60)" stroke-width="1px" opacity="0.25"></line><line x1="270" y1="0" x2="270" y2="178" fill="rgb(0, 0, 0)" stroke="rgb(60, 60, 60)" stroke-width="1px" opacity="0.25"></line></g><g><line x1="0" y1="178" x2="270" y2="178" fill="rgb(0, 0, 0)" stroke="rgb(60, 60, 60)" stroke-width="1px" opacity="0.25"></line><line x1="0" y1="163.16666666666666" x2="270" y2="163.16666666666666" fill="rgb(0, 0, 0)" stroke="rgb(60, 60, 60)" stroke-width="1px" opacity="0.25"></line><line x1="0" y1="148.33333333333334" x2="270" y2="148.33333333333334" fill="rgb(0, 0, 0)" stroke="rgb(60, 60, 60)" stroke-width="1px" opacity="0.25"></line><line x1="0" y1="133.5" x2="270" y2="133.5" fill="rgb(0, 0, 0)" stroke="rgb(60, 60, 60)" stroke-width="1px" opacity="0.25"></line><line x1="0" y1="118.66666666666669" x2="270" y2="118.66666666666669" fill="rgb(0, 0, 0)" stroke="rgb(60, 60, 60)" stroke-width="1px" opacity="0.25"></line><line x1="0" y1="103.83333333333334" x2="270" y2="103.83333333333334" fill="rgb(0, 0, 0)" stroke="rgb(60, 60, 60)" stroke-width="1px" opacity="0.25"></line><line x1="0" y1="89.00000000000001" x2="270" y2="89.00000000000001" fill="rgb(0, 0, 0)" stroke="rgb(60, 60, 60)" stroke-width="1px" opacity="0.25"></line><line x1="0" y1="74.16666666666669" x2="270" y2="74.16666666666669" fill="rgb(0, 0, 0)" stroke="rgb(60, 60, 60)" stroke-width="1px" opacity="0.25"></line><line x1="0" y1="59.33333333333336" x2="270" y2="59.33333333333336" fill="rgb(0, 0, 0)" stroke="rgb(60, 60, 60)" stroke-width="1px" opacity="0.25"></line><line x1="0" y1="44.50000000000002" x2="270" y2="44.50000000000002" fill="rgb(0, 0, 0)" stroke="rgb(60, 60, 60)" stroke-width="1px" opacity="0.25"></line><line x1="0" y1="29.66666666666668" x2="270" y2="29.66666666666668" fill="rgb(0, 0, 0)" stroke="rgb(60, 60, 60)" stroke-width="1px" opacity="0.25"></line><line x1="0" y1="14.83333333333334" x2="270" y2="14.83333333333334" fill="rgb(0, 0, 0)" stroke="rgb(60, 60, 60)" stroke-width="1px" opacity="0.25"></line><line x1="0" y1="0" x2="270" y2="0" fill="rgb(0, 0, 0)" stroke="rgb(60, 60, 60)" stroke-width="1px" opacity="0.25"></line></g></g></g><g><g><line x1="0" y1="163.16666666666666" x2="270" y2="163.16666666666666" fill="rgb(0, 0, 0)" stroke="rgb(153, 153, 153)" stroke-width="1.5px"></line></g></g><g><g><line x1="22.5" y1="0" x2="22.5" y2="178" fill="rgb(0, 0, 0)" stroke="rgb(153, 153, 153)" stroke-width="1.5px"></line></g></g><g><g><g><g><g><path stroke="rgb(238, 51, 119)" stroke-width="2px" d="M23.17554,163.16666666666666L23.76171,163.16666666666666L24.032249999999998,163.16666666666666L24.753690000000002,163.16666666666666L24.843870000000003,163.16666666666666L24.97914,163.16666666666666L25.06932,163.16666666666666L25.339859999999998,163.16666666666666L25.47513,163.16666666666666L26.15148,163.16666666666666L26.28675,163.16666666666666L26.5122,163.16666666666666L26.87292,162.7075115660584L27.18855,162.31395090481809L27.54927,161.7736998836144L27.684540000000002,161.11417019348744L27.72963,160.35632368349243L28.04526,159.6826842518236L28.27071,159.079956044002L28.63143,158.23800751410235L29.217599999999997,157.61893484572758L29.71359,157.0561434825717L29.939040000000002,156.41188233746175L30.07431,155.69627334847195L30.48012,155.27810938999136L30.525209999999998,154.89211349976796L30.97611,154.42339982237297L31.20156,154.09555732630798L31.29174,153.89406426062376L31.336830000000003,153.70600497583754L31.517190000000003,153.43293738067317L31.87791,152.98863139897682L32.23863,152.5712552807367L32.28372,152.17843286151606L32.50917,151.54942500723263L33.00516,151.03922391943007L33.2757,150.63823671866732L33.50115,150.09930875330468L33.63642,149.66554465977066L34.177499999999995,148.72411182136813L34.44804,147.82860851191626L34.67349,147.04784740824383L34.98912,145.95114743634943L35.16948,144.90430497285286L35.259660000000004,143.76922126951843L36.11637,142.08990034265796L36.34182,140.41746812868L36.38691,138.8147331571939L36.612359999999995,137.2154189157796L36.83781,135.86248788738848L36.92799,134.62226055577025L37.28871,133.312706640331L37.3338,132.05258078535206L37.64943,130.83913698736202L37.82979,129.72523825580527L38.235600000000005,128.65113147718557L38.596320000000006,127.93583147392816L39.31776,127.40306813620923L39.49812,126.83661425869533L39.76866,126.33996548521844L39.94902,125.95982102389429L40.0392,125.54261887634948L41.93298,124.84727345588827L41.978069999999995,124.03017420932822L42.06825,123.19110736735544L42.338789999999996,122.14534219340925L42.7446,120.71899786650809L42.83478,119.28951444003727L42.879870000000004,117.99042924268119L43.01514,116.72847529117541L43.28568,115.54534765365264L43.69149,114.56583534462371L43.82676,113.57105001204431L43.87185,112.56159091899333L44.32275,111.57906286403195L45.08928,110.9060266278365L45.17946,110.33050270306391L45.81072,109.76974300495627L46.036170000000006,109.14511315520552L46.12635,108.53610707752158L46.26162,107.94214611355366L46.622339999999994,107.24968667940152L46.89288,106.68560913722256L46.983059999999995,106.13496963669482L47.11833,105.6700716571033L47.38887,105.14402470723259L47.61432,104.5589032977588L48.065220000000004,103.91668774929707L48.33576,103.35855717614544L48.606300000000005,102.77838556921617L48.786660000000005,102.24506374093565L49.0572,101.52092585630362L49.147380000000005,100.84576169376341L49.19247,100.18497297724787L49.28265,99.53810574511371L49.37282999999999,98.77514738300223L49.417919999999995,98.02793208680761L49.64337,97.23244881240153L49.68846,96.4215895173055L50.09427,95.62696053057579L50.36481,94.94067944545485L50.45499,94.32902409036724L50.68044,93.63836476699578L50.90589,92.87093770241768L50.99607,92.05864313465584L51.537150000000004,91.23220589339851L51.852779999999996,90.47967393198853L51.89787,89.74109092982188L51.988049999999994,89.07350060760656L52.07823,88.4180602080813L52.12332,87.80266547200476L52.213499999999996,87.17028526536173L52.75458,86.60461285189201L52.88985,86.07639694896925L53.07021,85.47548935775782L53.20548,84.88495356979796L53.34075,84.25081218958809L53.52111,83.65407229198975L53.5662,83.06737318376402L53.74656,82.51668676481194L53.972010000000004,81.97511344053092L54.0171,81.41661078440957L54.467999999999996,80.96968442218811L54.64836,80.58082904842054L54.783629999999995,80.22343903354505L55.144349999999996,79.89677687471064L55.324709999999996,79.62499105754958L55.45998,79.35745756077728L55.505069999999996,79.11857861720897L55.55016,78.88337979479662L55.86579,78.74837964273128L56.13633,78.63940731126742L56.226510000000005,78.53207602447068L56.2716,78.42634904247294L56.45196,78.322190713994L56.63232,78.24288626239061L56.767590000000006,78.16474131253932L56.81268,78.04172205277911L56.85777,77.9204756449145L57.038129999999995,77.77826629120244L57.44394,77.61552945424437L57.6243,77.45508845834293L57.66939,77.27464092232323L57.71448,77.09670384576302L57.80466,76.94319399149077L57.84975,76.81361962370086L58.12029,76.64242927407135L58.30065,76.43044659272219L58.34574,76.17847299173158L58.43592,75.95115350472116L58.5261,75.7056928607271L58.66137,75.48449674073252L58.70646,75.28709909345726L58.75155,75.07149413595859L58.796640000000004,74.85867664360241L58.93191,74.6691225402498L59.11227,74.48198800730556L59.337720000000004,74.3175164633366L59.382810000000006,74.15511802286726L59.4279,74.01480908202102L59.69844,73.89618721259379L60.46497,73.67989806593818L60.64533,73.46626854516461L60.73551,73.21604144827285L60.96096,73.00784405522363L62.04312,72.78277381984753L62.133300000000006,72.57968538185341L62.35874999999999,72.3406706966047L62.44893,72.08542064538665L62.62929,71.87111589553496L62.71947,71.65932363796334L63.08019,71.43123471950517L63.35073,71.26178680387575L63.53109,71.11285906691103L63.84672,70.91022613027141L63.9369,70.63640374733751L64.20744,70.31084473301675L64.29762000000001,70.00713889207896L64.43289,69.72492816182226L64.47798,69.46386248959286L64.56816,69.20568926980157L64.92887999999999,68.91471977799134L64.97397,68.64467075574015L65.10924,68.37756519939347L65.42487,68.07824119213306L65.56014,67.79961604938333L65.96595,67.54136554069247L66.14631,67.21666212895289L66.28158,66.92984247621413L66.32667000000001,66.663187483183L66.73248,66.50166345064913L66.77757,66.35880149060846L66.95793,66.2174244912687L67.00302,66.07750948914665L67.04811000000001,65.93903399180398L67.0932,65.80197596583108L67.27356,65.6663138251959L67.31865,65.54853435217815L67.45392,65.39907659233329L67.49901,65.2511183191204L67.85973,65.03949643283828L68.04008999999999,64.89482641852992L68.13027,64.71930588467858L68.22045,64.51337406888732L68.26554,64.30945827936239L68.67135,64.17124256321507L68.80662,64.03436696546792L69.16734,63.914602574338936L69.25752,63.82743332373813L69.43787999999999,63.70978693341034L69.48297000000001,63.608848224487936L69.70841999999999,63.493342855315326L70.02405,63.39438309820245L70.52004,63.327136137554454L70.61022,63.260517106712925L70.88076,63.19451728432902L71.01603,63.08352389761715L71.10621,62.943274822203094L71.28657000000001,62.75908028583602L71.46692999999999,62.57656690845211L71.55711,62.36580175646773L71.78256,62.12715330899465L71.82764999999999,61.87581874178867L71.87274000000001,61.64151359539031L72.23346000000001,61.32099464453114L72.504,60.95934570601157L72.68436,60.60089660560049L72.72945,60.26015009401171L72.77454,59.922392371244364L73.18035,59.616448971231456L73.4058,59.327542755414946L74.03706,59.127067908053824L74.12723999999999,58.94258861001257L75.02904,58.95867348991491L75.07413,58.98878004821108L75.25449,59.06094826234605L75.29957999999999,59.11845144011504L75.34467000000001,59.1754691455145L76.15629000000001,59.16226237312235L76.38174,59.16306377594243L76.69736999999999,59.177705033395306L76.74246,59.192224705483135L77.013,59.192878527603554L77.10318,59.19352696426359L77.32862999999999,59.166876745588105L77.41881,59.1268465788071L77.68934999999999,59.073593028250706L78.50097,58.91276313316711L78.59115,58.753231638411556L78.68133,58.59498296285357L79.04205,58.424642955974704L79.17732,58.255661922749056L79.53804,58.03496001408397L79.67331,57.80278511967413L79.80857999999999,57.6119644394135L80.39475,57.37012523845096L80.71038,57.16943185820921L80.98092,57.02246290050051L81.16128,56.94161466220104L81.25146,56.87434390488665L81.29655000000001,56.79468286481065L81.56709000000001,56.767095578062L82.01799,56.7653647929302L82.24344,56.73808659752787L82.28853,56.698277304939L82.4238,56.63337635211501L82.69434,56.53099984966203L82.78452,56.42939187176607L82.91978999999999,56.36626217272555L83.05506,56.316135093069214L83.19033,56.253888288319494L83.23542,56.20455389584134L84.04704000000001,56.13075866777604L84.72339,56.03275969511034L85.39974,56.00948039717507L85.53501,55.974075929284275L85.5801,55.951185086692405L85.67027999999999,55.94067809685483L85.71537000000001,55.905886632844194L86.66226,55.77420575417949L86.70735,55.64346820532922L86.9328,55.54986743042866L87.06806999999999,55.48099435988791L87.24843,55.42460379475952L87.33860999999999,55.36861160234463L87.51897,55.28917008907635L87.69932999999999,55.18651421147741L87.87969,55.037175090108256L89.00694,54.90069146317767L89.05203,54.76515562855276L89.54802,54.665792342533095L89.90874,54.54369401362201L89.95383,54.43411078909545L90.08909999999999,54.34856156394442L90.17927999999999,54.28681183304844L90.22437000000001,54.21390836934065L90.63018,54.19920176554631L90.94581000000001,54.15007294838709L91.62216,54.10127517460038L91.66725000000001,54.0642464922466L91.80252,54.016056917938855L92.11814999999999,53.94543605704571L92.65923,53.86394063307194L92.88468,53.771673157625564L92.92976999999999,53.68001535641445L93.01995,53.58896125195867L93.33558000000001,53.5209403757133L93.65120999999999,53.47573788799277L93.69630000000001,53.419674584110915L94.10211,53.41960079915121L94.28247,53.40843301822916L94.37265,53.38627323882215L94.55301,53.36425619965451L94.95881999999999,53.33137638386299L95.27445,53.320655845743985L95.31953999999999,53.32094856309967L95.54499,53.321239418349485L95.90571,53.34330110487578L96.31152,53.38693798746181L96.35661,53.441128403891426L96.53697000000001,53.49497831528069L96.76241999999999,53.548490894220166L96.89769000000001,53.590926031495634L96.98787,53.61166670921779L97.12314,53.65365305881236L97.25841000000001,53.70603906564234L97.43876999999999,53.7899975725127L97.79948999999999,53.83102153080663L98.16020999999999,53.840062040551196L98.34057,53.84904726701933L98.47584,53.868501045256615L98.52092999999999,53.898333132141296L98.79147,53.89657440292825L98.83656,53.905269879201384L99.19728,53.90349563910219L99.37764,53.9017320583398L99.42273,53.91034432639725L99.46782,53.91890515387028L99.558,53.927414996017525L99.69327,53.93587430274193L100.0089,53.91349434796463L100.05399,53.89124653338612L100.41471,53.889555394843256L100.45979999999999,53.898062145896795L100.86561,53.86586617738467L101.04597,53.80344223656854L101.13615,53.721153309272346L101.27141999999999,53.62925213584835L101.49687,53.51775151257975L101.54196,53.41693614756745L101.63213999999999,53.32671884955249L101.67723000000001,53.247013447368175L101.72232,53.17773468638753L101.94777,53.088957499210665L102.57902999999999,53.01060927332876L102.98484,52.93270581038526L103.25538,52.84536606892043L103.57101,52.78808240806815L103.6161,52.73112127117758L104.02190999999999,52.71371521379557L104.33754,52.67683414524063L104.74334999999999,52.679214199078054L104.87862000000001,52.68158099703867L105.19425,52.67421538141923L105.28443,52.68628495837482L105.46479000000001,52.70796312505274L105.91569,52.739175255774164L105.96078,52.7798475641875L106.09605,52.82990709193311L106.3215,52.850927014484185L106.50186,52.88139962128608L107.08803,52.89261440189814L107.17821,52.8847185122822L107.2233,52.8768653342541L107.49384,52.859571509065404L107.53893000000001,52.84237074594958L107.58402,52.82526230427922L107.6742,52.77998242713679L108.30546,52.716143206181144L109.11708,52.66202419027523L109.38762,52.608192668348096L109.70325,52.54530654161173L109.97379,52.454793293338284L110.15415,52.346157372908515L110.24433,52.22881260898292L110.33451,52.130604126009075L110.60505,52.04215023720891L110.74032,51.94493668448121L110.8305,51.875834852475L110.96577,51.807091839059396L111.10104,51.73870489080544L111.23631,51.67981556149583L111.64211999999999,51.6029791637135L111.7323,51.553856943383096L112.27338,51.45046119987302L112.31847,51.338525564129874L112.36355999999999,51.218110935520016L112.99482,51.116372755776474L113.17518,51.00613795427262L113.35554,50.87847169299796L113.5359,50.74247390851738L113.58099,50.60716175845224L113.71626,50.481470648675156L113.80644000000001,50.338565017582276L113.89662,50.196374651369595L114.25734,50.04600738522622L114.34752,49.88751995177501L114.48279,49.738671664877586L114.61806,49.59939534107735L114.75332999999999,49.46962450441434L114.84351,49.358092476699525L114.97878,49.247109455440395L115.11404999999999,49.136671452075L115.83549000000001,49.09675626923246L116.15111999999999,49.0919590337177L116.37657,49.07847139642836L116.42165999999999,49.07374632394706L116.46675,49.086404495572346L116.55693000000001,49.11632833620695L116.60202,49.137460715273306L116.6922,49.15849123364775L116.78237999999999,49.188034537745025L116.96274,49.217436093261796L117.1431,49.229534391840545L117.36855,49.22444484177272L117.45873,49.245026246105276L117.77436,49.2825755138054L117.86454,49.31142979836452L117.90963,49.340147519700125L118.13508,49.368729630753364L118.31544,49.3802382952631L118.54088999999999,49.35787804368852L118.63107,49.31874646576726L118.67616,49.27979802263021L119.12706,49.24103145103682L119.17215,49.20244549933542L119.35251,49.17241534097503L119.48778,49.13416331200405L119.62304999999999,49.104434316409815L119.66814000000001,49.074842613049434L119.80341,49.037071419154834L119.8485,48.99947389299129L119.93868,48.97033484106095L120.16413,48.933058030478406L120.20922,48.88769513061833L120.52485,48.81781395894088L120.56994,48.748250613844256L120.7503,48.68721544600905L120.84048,48.61825869265216L120.93065999999999,48.54961353882108L121.11102,48.4731087241672L121.56192,48.36432856838495L121.65209999999999,48.26417746650085L121.74228,48.172601545219216L121.78737000000001,48.073322670168L121.96773,47.97448670583885L122.103,47.88417508046082L122.46372,47.770053417109224L122.64408,47.64838106509634L123.27534,47.54333252584066L123.45570000000001,47.430718709603916L123.54588,47.31860099197519L123.77132999999999,47.21497788019689L123.81642000000001,47.10382119597055L123.9066,47.00112580839644L123.99678,46.89887907745L124.04186999999999,46.80502596687557L124.13204999999999,46.711581192297295L124.22223,46.618542141083246L124.26732,46.517998170468616L124.58295,46.417888959423166L124.71822,46.32609355292344L124.94367,46.242562230777914L125.48475,46.1279666890444L125.66511,45.99033404685393L125.80038,45.868950505166524L126.25128,45.763719880607866L126.52181999999999,45.68235112157627L126.56691000000001,45.60912025875282L126.65709,45.54397941586601L126.79236,45.463581651641604L126.92763000000001,45.37576996883095L126.97272,45.296070327152755L127.01781,45.21670639353106L127.46871,45.160825914259156L127.5138,45.10517988097341L127.55889,45.049766849015L127.64907000000001,45.002265134371044L128.19015000000002,44.931958811627794L128.23524,44.85428970600582L128.28033000000002,44.77694326950695L128.32542,44.699917534022234L128.68614,44.61559120126255L129.09195,44.501183443753476L129.85848000000001,44.364460691564446L130.48974,44.16763074340603L130.67010000000002,43.956465189519655L130.71519,43.75372523727483L130.80537,43.55936306977042L131.16609,43.37333129706069L131.25627,43.1880575576508L131.43663,42.996023561030384L131.88753,42.81227133050719L132.24825,42.62926356921138L132.29334,42.4320370937954L132.78933,42.22813865231558L133.15005,42.05488839336256L133.42059,41.88978017068654L133.46568,41.72533458124972L133.55586,41.56154772580647L133.64604,41.39841573563102L133.87149,41.2359347722195L134.72820000000002,41.125829286682695L134.99874,41.03091906041567L135.04383,40.929017702467625L135.49473,40.84223378209153L135.58491,40.74844694657664L135.72018,40.633024724660444L135.76527000000002,40.52538156930304L135.81036,40.42547531371749L136.26126000000002,40.32596117029385L136.30634999999998,40.219544599471845L136.44162,40.11354416535572L136.71215999999998,40.00068639238399L136.93761,39.86648662117582L137.02778999999998,39.74005887797065L137.11797,39.61412193777166L137.20815,39.495902209500564L137.61396,39.35648323977437L137.79432,39.217602579959646L137.97468,39.093653635132L138.06486,38.97018155136706L138.20013,38.85436137999802L138.60594,38.753320328518434L138.65103,38.67413825021672L138.83139,38.588111261428246L139.10193,38.530961432309994L139.19210999999999,38.46690187931065L139.73319,38.39596845321369L139.77828,38.32530406757664L139.82337,38.24780980806756L139.86846,38.177695992813995L140.00373000000002,38.09369122368472L140.18409,38.002934913011494L140.45463,37.93369437025445L140.49972,37.87176214608146L140.63499,37.795984429448474L140.99571,37.741577477328654L141.22116,37.66631514913184L141.35643,37.57030351237465L141.49169999999998,37.47464910872304L141.53679,37.37934999573765L141.80732999999998,37.29138565592038L141.89751,37.21769091494374L142.16805,37.17211879490585L142.30332,37.1267147861776L142.43859,37.088421882542846L142.48368000000002,37.05026975673984L142.66404,37.01918297248416L143.52075,37.02970667298503L143.70111,37.04019188127997L143.79129,37.06443429278078L144.01674,37.1230313865271L144.24219,37.20893330206242L144.82835999999998,37.273911757422084L145.00871999999998,37.33865453619016L145.14399,37.41686775692145L145.82034000000002,37.501641707697665L146.31633,37.55193704923815L146.36142,37.60205118392462L146.49669,37.64516827986969L146.76722999999998,37.64047500302187L147.08286,37.622200300793494L147.12795,37.60399100483532L147.17304,37.585846773700126L147.21813,37.56099434511597L147.26322000000002,37.542994671539645L147.30830999999998,37.51830340072111L147.66903,37.500446758746904L148.70610000000002,37.51634528795331L148.75118999999998,37.5321875645128L148.79628,37.54797387856332L149.11191,37.57041733406152L149.60789999999997,37.61959910512001L149.69808,37.675303879001376L150.23916,37.75087562920673L150.28425000000001,37.83286168427697L150.41952,37.91456091953764L150.50969999999998,37.995974796798585L150.55479,38.077104767960535L150.64497,38.15130638119897L151.50168,38.21861240241648L151.72713000000002,38.28568483552738L151.8624,38.34590355775507L151.99767,38.39930081469526L152.40348,38.432698560057695L152.44857,38.465981130083186L152.71911,38.47938248816976L152.80928999999998,38.48615694582297L152.85438,38.49290815125171L153.12492,38.45368228253882L153.26019,38.408033719114506L153.53072999999998,38.36254110237695L153.62091,38.31720365721332L153.71108999999998,38.25242103000653L153.84636,38.19438403402868L154.25216999999998,38.15609669039744L154.47762,38.10491963348696L154.56779999999998,38.05391578792278L154.61289,38.009578536831754L154.65798,37.96539088532162L155.15397,37.947267481051746L155.60487,37.95508975770152L155.96559000000002,37.995203477911296L156.73211999999998,38.01581488844085L157.04775,38.04280562943041L157.09284,38.07614691916433L157.22811,38.102943656417054L157.67901,38.091096573792555L157.94955,38.07287065878254L158.12991,38.0675269130498L158.35536,38.075007652790795L158.44554000000002,38.08246360851689L158.53572,38.089894899476974L158.6259,38.103682857367566L158.71608,38.12379923655893L158.89643999999998,38.15021593318836L158.94153,38.176545763743825L159.0768,38.196437129800984L159.34734,38.23529760021794L159.43752,38.28670598659133L159.57279,38.337946329242754L159.93350999999998,38.395342619248005L160.02369000000002,38.43991975065219L160.06877999999998,38.4906607380196L160.11387,38.553840509576936L160.47459,38.60422576048899L161.15094,38.623009268074306L161.24112,38.63545132289198L161.3313,38.65412685772432L161.42148,38.666475459167536L161.51165999999998,38.67252457662899L161.91747,38.653543151879454L162.09783,38.62213097629818L162.684,38.58458059192529L162.86436,38.56584671559083L163.72107,38.52227180727735L164.39742,38.51614645686583L164.44251,38.50382905106007L164.71304999999998,38.4977556656356L164.75814,38.49789964451115L164.84832,38.4980431662543L164.98359000000002,38.492001645376995L165.20904,38.479801383508814L165.34431,38.486153275055905L165.3894,38.486320584593145L165.47958,38.48032945670213L166.20102,38.49281103145926L166.51665,38.51139806663477L166.69701,38.523788633317324L167.01264,38.530008810828015L167.05773,38.53620951736263L167.37336,38.530153822157835L167.50862999999998,38.52411702992239L168.59079,38.55473229323715L168.72606000000002,38.59745043647841L169.04169000000002,38.60957251858464L169.17696,38.61557073776293L169.22205,38.60939066313541L169.31223,38.61537667261605L169.35732,38.621344177909194L169.67295,38.63941483957855L169.76313000000002,38.66348426000709L170.25912,38.675383225233105L170.48457000000002,38.66911990907712L170.89038,38.65080454556456L170.98056,38.63254533332492L171.07074,38.61434202362724L171.25109999999998,38.59017736817573L171.38637,38.55406488804366L171.97253999999998,38.51205785929701L172.01763,38.47617725674033L172.06272,38.42842099378425L172.33326,38.37482348351909L172.69397999999998,38.34530926039595L172.96452000000002,38.291987948207144L173.00960999999998,38.24479596635109L173.0547,38.19774652135745L173.23506,38.14488297361925L173.46051,38.086228642001124L173.77614,38.02180671087335L174.13685999999998,37.95164019569004L174.31722,37.89354851768903L174.49758,37.835630894381715L174.58776,37.789727201628374L174.85829999999999,37.74396068065899L174.99357,37.680605076375215L175.08375,37.59973015464844L175.17392999999998,37.50730221911688L175.26411000000002,37.409257977404046L175.39938,37.323275277338965L175.62483,37.24930640960451L176.16591,37.18143024132686L176.39136,37.12549069915195L176.61681,37.08144077035944L177.42843000000002,37.037520752633306L177.60879000000003,37.0054317027627L177.74406000000002,36.98512726916642L177.96950999999999,36.982400842921464L178.24005,36.96218100379161L178.28514,36.94202041019806L178.46550000000002,36.93356392827421L178.55568,36.9251321604573L178.82622,36.922536369005165L178.87131,36.92575396066494L179.14185,36.92316191965067L179.45748,36.92057741501202L179.72802000000001,36.91221122048191L179.86329,36.90386928852209L180.13383,36.866660457054635L180.62982,36.85842296526498L180.72,36.83867469579442L181.03563,36.807459726722904L181.1709,36.77633470905058L181.30617,36.73954824464674L181.39634999999998,36.70861315175038L181.6218,36.65480589427709L182.34324,36.612622664290264L182.43341999999998,36.570560227710764L182.47851,36.52861808739707L182.65887,36.492514633032314L182.70396,36.462227774598254L182.88432,36.403485702828206L182.9745,36.333504702085165L183.24504000000002,36.26372259573639L183.29012999999998,36.199831103451515L183.60576,36.15318269909618L184.14684,36.12371268389444L184.37229,36.08297219639802L184.50756,36.0366750648658L184.91337,36.00750820895329L184.95846,35.9784235331621L185.229,35.943764427825016L185.27409,35.90920273761443L185.90535,35.89167617086913L186.08571,35.85727592753271L186.17588999999998,35.8229720171166L186.26607,35.79439485634396L186.40134,35.765897526758806L186.53661,35.743100405495795L186.94242,35.72036681398414L187.21295999999998,35.72013916784859L187.30314,35.725517838490084L187.79913,35.708478800695495L187.84422,35.69148701699266L188.11476,35.69690538207236L188.43039,35.71348039961482L189.51254999999998,35.70210512741988L189.64782000000002,35.68518525329065L189.78309000000002,35.66831202162207L189.87327,35.657051459012344L190.82016,35.65694450611797L190.95542999999998,35.65683784700249L191.13579,35.651179865479335L191.18088,35.63999060645822L191.22597000000002,35.628831972738L191.49651,35.63985248236798L191.63178,35.656375261753965L191.72196,35.67285297811803L192.12777,35.67824017961162L192.30813,35.68361272304466L192.4434,35.6889706654826L192.66885000000002,35.694314063695835L193.02957,35.65561193922123L193.20993,35.60601628622347L193.30011,35.556554789471534L193.39029000000002,35.507226930016856L193.97646,35.45254705466624L194.06664,35.392534055155686L194.20191,35.33815851352891L194.74299,35.294871638346486L194.92335,35.26263424384534L195.14880000000002,35.20317331711384L195.23898,35.14387174542187L195.68988000000002,35.12835161274124L195.78006,35.11832125931042L195.87024000000002,35.119205116919105L196.45641,35.10376909132841L196.72695000000002,35.10467813432058L197.17785,35.10015463482843L197.4033,35.06851504067466L197.71893,35.03695946616541L197.8542,35.00548759280128L197.94438,34.97409910368659L198.84618,34.92116282135554L198.89127,34.85755990361618L198.93635999999998,34.79412492864438L199.16181,34.74164612160522L199.25198999999998,34.69469557354765L199.52253,34.64248297610872L199.70289,34.57964516279688L200.06361,34.527726049414596L200.1087,34.475943104700335L200.33415,34.440400182058426L200.37924,34.404950269666635L200.5596,34.38031193347692L201.05559,34.37180333188188L201.32613,34.363316921597445L201.59667,34.39227832390798L201.73193999999998,34.42650659854925L202.22793000000001,34.465983863736305L202.40829000000002,34.500024922716506L202.58865,34.53397768982215L202.67883,34.567842491183335L202.90428,34.59629867379377L203.08464,34.61936453532455L203.31009,34.65299593369715L203.53554,34.67592387687173L203.7159,34.704096908580816L203.76099,34.72689743858224L203.85117000000002,34.74434350823306L204.25698,34.77232812791441L204.30207000000001,34.80024095555517L204.79806,34.84393244644511L204.88824,34.89807063367434L204.93332999999998,34.95734555925604L205.24896,35.02174013481971L205.33914,35.08597040489546L205.38423,35.150036965506246L205.42932000000002,35.213940409803904L205.47440999999998,35.27768132808677L205.65476999999998,35.32025747601686L205.74495000000002,35.35747889181492L206.73693,35.3841206755119L206.8722,35.41069499098266L207.50346,35.41102901141703L207.72891,35.38520912724406L207.774,35.36468104139163L207.86418,35.34420472011975L208.2249,35.32899865146665L208.45035000000001,35.33990445124342L208.76598,35.35599360409886L210.0285,35.38766285586677L210.34413,35.41925267069533L210.84011999999998,35.42996739606093L211.06557,35.43546023110358L211.47138,35.430556973312704L211.51647,35.430853244741876L211.96737000000002,35.39486493216126L212.01245999999998,35.34860725943331L212.05755,35.30246476670047L212.14773,35.26160886748724L212.23791,35.22602246481332L212.32809,35.185360247559316L212.37318,35.149959181390955L212.41827,35.119802316725654L212.50845,35.0845673664292L213.32007,35.04941951402733L213.54552,35.01435845449688L213.77097,34.969101176371154L213.90624,34.923955424768735L214.04151,34.8840546415238L214.26696,34.839121899440705L214.76295,34.830183990015826L215.16876000000002,34.800777521401564L215.30403,34.7765620589541L215.34912,34.76263627425825L215.75493,34.76919052451106L216.02547,34.765513159032544L216.70182,34.75163654416693L216.74691,34.73779377737054L217.01745,34.70359766284151L217.19781,34.649112324629385L217.33308,34.599848976131696L217.60362,34.55070530615338L217.69379999999998,34.51184528666578L218.09960999999998,34.45784374190417L218.27997,34.3988980334863L218.55051,34.34009495029502L218.77596,34.2966373086085L219.0465,34.27354130695117L219.22686000000002,34.2555616141663L219.45231,34.23256822734565L219.76794,34.214683661174696L219.94830000000002,34.19684210989961L220.35411,34.163904310215756L220.48938,34.13608840554484L221.03046,34.07810333960795L221.34609,34.02529297086571L221.48136,33.972608990373L221.57154000000003,33.915022195095105L221.61663,33.86259823064138L221.79699,33.80025576238932L221.84208,33.73806190822616L221.88717,33.67601616839453L222.42825000000002,33.6341636510998L222.69879,33.602426494871544L222.74388,33.57576919770488L222.83406,33.564178342413825L223.05951,33.56760788024599L223.1046,33.57602353066525L223.23987,33.574437647989356L223.51041,33.60776736738794L223.69077000000001,33.660954455355835L224.0064,33.70405486288021L224.4573,33.77691720806481L224.72784000000001,33.85458191811196L224.90820000000002,33.91218194182171L225.04347,33.96964664456596L225.40419,34.03194028080159L225.49436999999998,34.0891273827696L226.08053999999998,34.141223369600105L226.2609,34.18328981069802L226.30599,34.22030738590189L227.1627,34.22755535087887L227.20779000000002,34.22984249960164L227.34306,34.23212431604943L227.65869,34.244275451453454L227.74887,34.25146427938118L228.10959,34.25370561806328L228.19977,34.25101425120871L228.24486000000002,34.25325337449431L228.83103,34.27025031567502L228.92121,34.28229013353519L228.96630000000002,34.29430209337442L229.37211000000002,34.311197587281136L229.50738,34.31823789285492L229.59756,34.325261954232545L230.00337,34.332269824066536L230.13863999999998,34.339261554783036L230.22882,34.33644660532304L230.319,34.32874601761822L230.86007999999998,34.345507809013704L231.62661,34.35734537152372L231.85206000000002,34.374038410456116L232.30296,34.39069321945171L232.5735,34.402433605092426L232.88913000000002,34.423893526300986L233.15967,34.46478465007022L233.24985,34.505582471795044L233.43021000000002,34.536559652302L233.74584000000002,34.54316275072652L233.79093,34.54489320779958L233.83602,34.54176522320038L234.28692,34.533792922528356L235.00836,34.51614201734897L235.23380999999998,34.50822167734908L235.45926,34.49063486113099L235.68471,34.47792698499858L235.7298,34.46041175123272L235.81998,34.438103038411825L235.95524999999998,34.41101465287808L236.40615,34.3791603722577L236.58651,34.36184970971961L236.63160000000002,34.33975707812847L236.90214,34.33698581454722L237.0825,34.33422077698712L237.12759,34.33627386211019L237.48831,34.34313128243257L237.57849,34.34997333813073L237.62358,34.351997100126766L237.66867000000002,34.35401633583494L237.75885,34.36082810110633L237.89412,34.35324243561288L237.93921,34.350464808929104L237.9843,34.34769337246402L238.02939,34.34492810692979L238.20975,34.34695129712904L238.29993,34.344190611484976L238.43519999999998,34.33665959608236L238.48029,34.33391883834407L238.52538,34.33118415625006L238.57047,34.33322327451323L238.66065,34.33525788047533L238.79592,34.31824011635199L238.84100999999998,34.301259944118094L239.11155000000002,34.29858589422987L239.38209,34.295917740908074L239.47227,34.288504983550375L239.60754,34.28110854353893L240.14862,34.25000444572122L240.50934,34.2331945221916L240.55443,34.22116060614591L240.59951999999998,34.20915308760486L240.87006,34.211372244203744L241.18569,34.22304781700556L241.41114000000002,34.258336957259516L241.72677000000002,34.298273984204464L241.90713,34.34284600000328L242.13258000000002,34.39675960959955L242.31294000000003,34.45055566874677L242.58348,34.50423453464053L242.67366,34.553085467814675L242.80893,34.615955115231316L243.12456,34.6645714905139L243.39509999999999,34.70367673176819L243.53037,34.73799709050172L243.62055,34.767545767977914L243.66564,34.801725018984214L243.89109000000002,34.82175483750472" style="fill: none;" fill="none"></path></g></g></g></g><g opacity="0.2"><g><g><g><path stroke="rgb(238, 51, 119)" stroke-width="2px" d="M23.17554,163.16666666666666L23.76171,163.16666666666666L24.032249999999998,163.16666666666666L24.753690000000002,163.16666666666666L24.843870000000003,163.16666666666666L24.97914,163.16666666666666L25.06932,163.16666666666666L25.339859999999998,163.16666666666666L25.47513,163.16666666666666L26.15148,163.16666666666666L26.28675,163.16666666666666L26.5122,163.16666666666666L26.87292,157.23333346595368L27.18855,157.23333346595368L27.54927,154.2666668655972L27.684540000000002,151.30000026524067L27.72963,148.33333311229944L28.04526,148.33333311229944L28.27071,148.33333311229944L28.63143,142.39999991158646L29.217599999999997,145.3666670645277L29.71359,145.3666670645277L29.939040000000002,142.39999991158646L30.07431,139.43333386381468L30.48012,145.3666670645277L30.525209999999998,145.3666670645277L30.97611,142.39999991158646L31.20156,145.3666670645277L31.29174,148.33333311229944L31.336830000000003,148.33333311229944L31.517190000000003,145.3666670645277L31.87791,139.43333386381468L32.23863,139.43333386381468L32.28372,139.43333386381468L32.50917,130.53333351016045L33.00516,133.49999955793223L33.2757,136.466665605704L33.50115,130.53333351016045L33.63642,133.49999955793223L34.177499999999995,112.73333280285202L34.44804,112.73333280285202L34.67349,115.70000106096268L34.98912,100.86666861176491L35.16948,100.86666861176491L35.259660000000004,94.93333209554356L36.11637,68.23333545525871L36.34182,65.2666627764702L36.38691,65.2666627764702L36.612359999999995,62.299998939037344L36.83781,71.19999929269157L36.92799,74.16666313012443L37.28871,68.23333545525871L37.3338,68.23333545525871L37.64943,68.23333545525871L37.82979,71.19999929269157L38.235600000000005,71.19999929269157L38.596320000000006,89.00000000000001L39.31776,97.90000035365425L39.49812,94.93333209554356L39.76866,97.90000035365425L39.94902,103.83333244919777L40.0392,100.86666861176491L41.93298,83.06666348377865L41.978069999999995,74.16666313012443L42.06825,71.19999929269157L42.338789999999996,56.36666242281597L42.7446,29.666670203208945L42.83478,26.699997524420432L42.879870000000004,32.633334040641806L43.01514,32.633334040641806L43.28568,35.59999787807467L43.69149,47.46667091051739L43.82676,44.499998231728895L43.87185,41.533334394296034L44.32275,41.533334394296034L45.08928,62.299998939037344L45.17946,68.23333545525871L45.81072,68.23333545525871L46.036170000000006,62.299998939037344L46.12635,62.299998939037344L46.26162,62.299998939037344L46.622339999999994,53.39999858538311L46.89288,62.299998939037344L46.983059999999995,62.299998939037344L47.11833,68.23333545525871L47.38887,62.299998939037344L47.61432,56.36666242281597L48.065220000000004,50.43333474795025L48.33576,56.36666242281597L48.606300000000005,53.39999858538311L48.786660000000005,56.36666242281597L49.0572,38.56667055686317L49.147380000000005,41.533334394296034L49.19247,41.533334394296034L49.28265,41.533334394296034L49.37282999999999,29.666670203208945L49.417919999999995,29.666670203208945L49.64337,23.73333368698757L49.68846,20.76666984955471L50.09427,20.76666984955471L50.36481,29.666670203208945L50.45499,35.59999787807467L50.68044,26.699997524420432L50.90589,17.7999971707662L50.99607,11.866669495900478L51.537150000000004,8.900005658467617L51.852779999999996,14.83333333333334L51.89787,14.83333333333334L51.988049999999994,20.76666984955471L52.07823,20.76666984955471L52.12332,23.73333368698757L52.213499999999996,20.76666984955471L52.75458,26.699997524420432L52.88985,29.666670203208945L53.07021,20.76666984955471L53.20548,20.76666984955471L53.34075,14.83333333333334L53.52111,17.7999971707662L53.5662,17.7999971707662L53.74656,20.76666984955471L53.972010000000004,20.76666984955471L54.0171,17.7999971707662L54.467999999999996,29.666670203208945L54.64836,35.59999787807467L54.783629999999995,38.56667055686317L55.144349999999996,41.533334394296034L55.324709999999996,47.46667091051739L55.45998,47.46667091051739L55.505069999999996,50.43333474795025L55.55016,50.43333474795025L55.86579,62.299998939037344L56.13633,65.2666627764702L56.226510000000005,65.2666627764702L56.2716,65.2666627764702L56.45196,65.2666627764702L56.63232,68.23333545525871L56.767590000000006,68.23333545525871L56.81268,62.299998939037344L56.85777,62.299998939037344L57.038129999999995,59.33333510160448L57.44394,56.36666242281597L57.6243,56.36666242281597L57.66939,53.39999858538311L57.71448,53.39999858538311L57.80466,56.36666242281597L57.84975,59.33333510160448L58.12029,53.39999858538311L58.30065,47.46667091051739L58.34574,41.533334394296034L58.43592,44.499998231728895L58.5261,41.533334394296034L58.66137,44.499998231728895L58.70646,47.46667091051739L58.75155,44.499998231728895L58.796640000000004,44.499998231728895L58.93191,47.46667091051739L59.11227,47.46667091051739L59.337720000000004,50.43333474795025L59.382810000000006,50.43333474795025L59.4279,53.39999858538311L59.69844,56.36666242281597L60.46497,41.533334394296034L60.64533,41.533334394296034L60.73551,35.59999787807467L60.96096,41.533334394296034L62.04312,38.56667055686317L62.133300000000006,41.533334394296034L62.35874999999999,35.59999787807467L62.44893,32.633334040641806L62.62929,38.56667055686317L62.71947,38.56667055686317L63.08019,35.59999787807467L63.35073,44.499998231728895L63.53109,47.46667091051739L63.84672,38.56667055686317L63.9369,26.699997524420432L64.20744,17.7999971707662L64.29762000000001,20.76666984955471L64.43289,23.73333368698757L64.47798,26.699997524420432L64.56816,26.699997524420432L64.92887999999999,20.76666984955471L64.97397,23.73333368698757L65.10924,23.73333368698757L65.42487,17.7999971707662L65.56014,20.76666984955471L65.96595,23.73333368698757L66.14631,11.866669495900478L66.28158,17.7999971707662L66.32667000000001,20.76666984955471L66.73248,38.56667055686317L66.77757,41.533334394296034L66.95793,41.533334394296034L67.00302,41.533334394296034L67.04811000000001,41.533334394296034L67.0932,41.533334394296034L67.27356,41.533334394296034L67.31865,44.499998231728895L67.45392,38.56667055686317L67.49901,38.56667055686317L67.85973,26.699997524420432L68.04008999999999,38.56667055686317L68.13027,32.633334040641806L68.22045,26.699997524420432L68.26554,26.699997524420432L68.67135,38.56667055686317L68.80662,38.56667055686317L69.16734,41.533334394296034L69.25752,47.46667091051739L69.43787999999999,41.533334394296034L69.48297000000001,44.499998231728895L69.70841999999999,41.533334394296034L70.02405,44.499998231728895L70.52004,50.43333474795025L70.61022,50.43333474795025L70.88076,50.43333474795025L71.01603,41.533334394296034L71.10621,35.59999787807467L71.28657000000001,26.699997524420432L71.46692999999999,26.699997524420432L71.55711,20.76666984955471L71.78256,14.83333333333334L71.82764999999999,11.866669495900478L71.87274000000001,14.83333333333334L72.23346000000001,-2.966667373975105L73.4058,-0.0000035365422434985305L74.03706,17.7999971707662L74.12723999999999,20.76666984955471L75.02904,62.299998939037344L75.07413,65.2666627764702L75.25449,74.16666313012443L75.29957999999999,71.19999929269157L75.34467000000001,71.19999929269157L76.15629000000001,56.36666242281597L76.38174,59.33333510160448L76.69736999999999,62.299998939037344L76.74246,62.299998939037344L77.013,59.33333510160448L77.10318,59.33333510160448L77.32862999999999,53.39999858538311L77.41881,50.43333474795025L77.68934999999999,47.46667091051739L78.50097,23.73333368698757L78.59115,23.73333368698757L78.68133,23.73333368698757L79.04205,20.76666984955471L79.17732,20.76666984955471L79.53804,8.900005658467617L79.67331,5.933341821034756L79.80857999999999,14.83333333333334L80.39475,2.966660300890618L80.71038,11.866669495900478L80.98092,23.73333368698757L81.16128,38.56667055686317L81.25146,41.533334394296034L81.29655000000001,38.56667055686317L81.56709000000001,50.43333474795025L82.01799,56.36666242281597L82.24344,50.43333474795025L82.28853,47.46667091051739L82.4238,41.533334394296034L82.69434,32.633334040641806L82.78452,32.633334040641806L82.91978999999999,41.533334394296034L83.05506,44.499998231728895L83.19033,41.533334394296034L83.23542,44.499998231728895L84.04704000000001,38.56667055686317L84.72339,32.633334040641806L85.39974,50.43333474795025L85.53501,47.46667091051739L85.5801,50.43333474795025L85.67027999999999,53.39999858538311L85.71537000000001,47.46667091051739L86.66226,23.73333368698757L86.70735,23.73333368698757L86.9328,32.633334040641806L87.06806999999999,38.56667055686317L87.24843,41.533334394296034L87.33860999999999,41.533334394296034L87.51897,35.59999787807467L87.69932999999999,29.666670203208945L87.87969,17.7999971707662L89.00694,20.76666984955471L89.05203,20.76666984955471L89.54802,29.666670203208945L89.90874,23.73333368698757L89.95383,26.699997524420432L90.08909999999999,32.633334040641806L90.17927999999999,38.56667055686317L90.22437000000001,35.59999787807467L90.63018,50.43333474795025L90.94581000000001,41.533334394296034L91.62216,41.533334394296034L91.66725000000001,44.499998231728895L91.80252,41.533334394296034L92.11814999999999,35.59999787807467L92.65923,32.633334040641806L92.88468,29.666670203208945L92.92976999999999,29.666670203208945L93.01995,29.666670203208945L93.33558000000001,35.59999787807467L93.65120999999999,41.533334394296034L93.69630000000001,38.56667055686317L94.10211,53.39999858538311L94.28247,50.43333474795025L94.37265,47.46667091051739L94.55301,47.46667091051739L94.95881999999999,44.499998231728895L95.27445,50.43333474795025L95.31953999999999,53.39999858538311L95.54499,53.39999858538311L95.90571,59.33333510160448L96.31152,65.2666627764702L96.35661,68.23333545525871L96.53697000000001,68.23333545525871L96.76241999999999,68.23333545525871L96.89769000000001,65.2666627764702L96.98787,59.33333510160448L97.12314,65.2666627764702L97.25841000000001,68.23333545525871L97.43876999999999,77.13333580891293L97.79948999999999,65.2666627764702L98.16020999999999,56.36666242281597L98.34057,56.36666242281597L98.47584,59.33333510160448L98.52092999999999,62.299998939037344L98.79147,53.39999858538311L98.83656,56.36666242281597L99.19728,53.39999858538311L99.37764,53.39999858538311L99.42273,56.36666242281597L99.46782,56.36666242281597L99.558,56.36666242281597L99.69327,56.36666242281597L100.0089,47.46667091051739L100.05399,47.46667091051739L100.41471,53.39999858538311L100.45979999999999,56.36666242281597L100.86561,44.499998231728895L101.04597,35.59999787807467L101.13615,29.666670203208945L101.27141999999999,26.699997524420432L101.49687,20.76666984955471L101.54196,23.73333368698757L101.63213999999999,26.699997524420432L101.67723000000001,29.666670203208945L101.72232,32.633334040641806L101.94777,26.699997524420432L102.57902999999999,29.666670203208945L102.98484,29.666670203208945L103.25538,26.699997524420432L103.57101,35.59999787807467L103.6161,35.59999787807467L104.02190999999999,47.46667091051739L104.33754,41.533334394296034L104.74334999999999,53.39999858538311L104.87862000000001,53.39999858538311L105.19425,50.43333474795025L105.28443,56.36666242281597L105.46479000000001,59.33333510160448L105.91569,62.299998939037344L105.96078,65.2666627764702L106.09605,68.23333545525871L106.3215,59.33333510160448L106.50186,62.299998939037344L107.08803,56.36666242281597L107.17821,50.43333474795025L107.2233,50.43333474795025L107.49384,47.46667091051739L107.53893000000001,47.46667091051739L107.58402,47.46667091051739L107.6742,38.56667055686317L108.30546,32.633334040641806L109.11708,35.59999787807467L109.38762,35.59999787807467L109.70325,32.633334040641806L109.97379,23.73333368698757L110.15415,17.7999971707662L110.24433,14.83333333333334L110.33451,20.76666984955471L110.60505,23.73333368698757L110.74032,20.76666984955471L110.8305,29.666670203208945L110.96577,29.666670203208945L111.10104,29.666670203208945L111.23631,32.633334040641806L111.64211999999999,26.699997524420432L111.7323,35.59999787807467L112.27338,17.7999971707662L112.31847,14.83333333333334L112.36355999999999,11.866669495900478L112.99482,17.7999971707662L113.17518,14.83333333333334L113.35554,8.900005658467617L113.5359,5.933341821034756L113.58099,5.933341821034756L113.71626,8.900005658467617L113.80644000000001,2.966660300890618L113.89662,2.966660300890618L114.25734,-0.0000035365422434985305L114.48279,-0.0000035365422434985305L114.61806,2.966660300890618L114.75332999999999,5.933341821034756L114.84351,11.866669495900478L114.97878,11.866669495900478L115.11404999999999,11.866669495900478L115.83549000000001,35.59999787807467L116.15111999999999,47.46667091051739L116.37657,44.499998231728895L116.42165999999999,47.46667091051739L116.46675,53.39999858538311L116.55693000000001,59.33333510160448L116.60202,56.36666242281597L116.6922,56.36666242281597L116.78237999999999,59.33333510160448L116.96274,59.33333510160448L117.1431,53.39999858538311L117.36855,47.46667091051739L117.45873,56.36666242281597L117.77436,62.299998939037344L117.86454,59.33333510160448L117.90963,59.33333510160448L118.13508,59.33333510160448L118.31544,53.39999858538311L118.54088999999999,41.533334394296034L118.63107,35.59999787807467L118.67616,35.59999787807467L119.12706,35.59999787807467L119.17215,35.59999787807467L119.35251,38.56667055686317L119.48778,35.59999787807467L119.62304999999999,38.56667055686317L119.66814000000001,38.56667055686317L119.80341,35.59999787807467L119.8485,35.59999787807467L119.93868,38.56667055686317L120.16413,35.59999787807467L120.20922,32.633334040641806L120.52485,23.73333368698757L120.56994,23.73333368698757L120.7503,26.699997524420432L120.84048,23.73333368698757L120.93065999999999,23.73333368698757L121.11102,20.76666984955471L121.56192,8.900005658467617L121.65209999999999,11.866669495900478L121.74228,14.83333333333334L121.78737000000001,11.866669495900478L121.96773,11.866669495900478L122.103,14.83333333333334L122.46372,5.933341821034756L122.64408,2.966660300890618L123.27534,8.900005658467617L123.45570000000001,5.933341821034756L123.54588,5.933341821034756L123.77132999999999,8.900005658467617L123.81642000000001,5.933341821034756L123.9066,8.900005658467617L123.99678,8.900005658467617L124.04186999999999,11.866669495900478L124.13204999999999,11.866669495900478L124.22223,11.866669495900478L124.26732,8.900005658467617L124.58295,8.900005658467617L124.71822,11.866669495900478L124.94367,14.83333333333334L125.48475,2.966660300890618L125.66511,-5.933331211407966L125.80038,-0.0000035365422434985305L126.25128,5.933341821034756L126.52181999999999,14.83333333333334L126.56691000000001,17.7999971707662L126.65709,20.76666984955471L126.79236,14.83333333333334L126.92763000000001,11.866669495900478L126.97272,14.83333333333334L127.01781,14.83333333333334L127.46871,23.73333368698757L127.5138,23.73333368698757L127.55889,23.73333368698757L127.64907000000001,26.699997524420432L128.19015000000002,17.7999971707662L128.23524,14.83333333333334L128.28033000000002,14.83333333333334L128.32542,14.83333333333334L128.68614,11.866669495900478L129.09195,-0.0000035365422434985305L134.72820000000002,-2.966667373975105L134.99874,2.966660300890618L135.04383,-0.0000035365422434985305L135.49473,5.933341821034756L135.58491,2.966660300890618L135.72018,-5.933331211407966L138.60594,-2.966667373975105L138.65103,5.933341821034756L138.83139,2.966660300890618L139.10193,14.83333333333334L139.19210999999999,11.866669495900478L139.73319,8.900005658467617L139.77828,8.900005658467617L139.82337,5.933341821034756L139.86846,8.900005658467617L140.00373000000002,2.966660300890618L140.18409,-0.0000035365422434985305L140.45463,8.900005658467617L140.49972,11.866669495900478L140.63499,5.933341821034756L140.99571,14.83333333333334L141.22116,5.933341821034756L141.35643,-2.966667373975105L141.80732999999998,-0.0000035365422434985305L141.89751,5.933341821034756L142.16805,17.7999971707662L142.30332,17.7999971707662L142.43859,20.76666984955471L142.48368000000002,20.76666984955471L142.66404,23.73333368698757L143.52075,41.533334394296034L143.70111,41.533334394296034L143.79129,47.46667091051739L144.01674,62.299998939037344L144.24219,74.16666313012443L144.82835999999998,65.2666627764702L145.00871999999998,65.2666627764702L145.14399,71.19999929269157L145.82034000000002,74.16666313012443L146.31633,59.33333510160448L146.36142,59.33333510160448L146.49669,56.36666242281597L146.76722999999998,35.59999787807467L147.08286,29.666670203208945L147.12795,29.666670203208945L147.17304,29.666670203208945L147.21813,26.699997524420432L147.26322000000002,29.666670203208945L147.30830999999998,26.699997524420432L147.66903,29.666670203208945L148.70610000000002,44.499998231728895L148.75118999999998,44.499998231728895L148.79628,44.499998231728895L149.11191,47.46667091051739L149.60789999999997,59.33333510160448L149.69808,62.299998939037344L150.23916,71.19999929269157L150.28425000000001,74.16666313012443L150.41952,74.16666313012443L150.50969999999998,74.16666313012443L150.55479,74.16666313012443L150.64497,71.19999929269157L151.50168,68.23333545525871L151.72713000000002,68.23333545525871L151.8624,65.2666627764702L151.99767,62.299998939037344L152.40348,53.39999858538311L152.44857,53.39999858538311L152.71911,44.499998231728895L152.80928999999998,41.533334394296034L152.85438,41.533334394296034L153.12492,20.76666984955471L153.26019,17.7999971707662L153.53072999999998,17.7999971707662L153.62091,17.7999971707662L153.71108999999998,8.900005658467617L153.84636,11.866669495900478L154.25216999999998,20.76666984955471L154.47762,14.83333333333334L154.56779999999998,14.83333333333334L154.61289,17.7999971707662L154.65798,17.7999971707662L155.15397,29.666670203208945L155.60487,41.533334394296034L155.96559000000002,56.36666242281597L156.73211999999998,47.46667091051739L157.04775,50.43333474795025L157.09284,53.39999858538311L157.22811,50.43333474795025L157.67901,32.633334040641806L157.94955,29.666670203208945L158.12991,35.59999787807467L158.35536,41.533334394296034L158.44554000000002,41.533334394296034L158.53572,41.533334394296034L158.6259,44.499998231728895L158.71608,47.46667091051739L158.89643999999998,50.43333474795025L158.94153,50.43333474795025L159.0768,47.46667091051739L159.34734,56.36666242281597L159.43752,62.299998939037344L159.57279,62.299998939037344L159.93350999999998,65.2666627764702L160.02369000000002,59.33333510160448L160.06877999999998,62.299998939037344L160.11387,68.23333545525871L160.47459,62.299998939037344L161.15094,47.46667091051739L161.24112,44.499998231728895L161.3313,47.46667091051739L161.42148,44.499998231728895L161.51165999999998,41.533334394296034L161.91747,29.666670203208945L162.09783,23.73333368698757L162.684,20.76666984955471L162.86436,29.666670203208945L163.72107,17.7999971707662L164.39742,35.59999787807467L164.44251,32.633334040641806L164.71304999999998,35.59999787807467L164.75814,38.56667055686317L164.84832,38.56667055686317L164.98359000000002,35.59999787807467L165.20904,32.633334040641806L165.34431,41.533334394296034L165.3894,38.56667055686317L165.47958,35.59999787807467L166.20102,44.499998231728895L166.51665,47.46667091051739L166.69701,44.499998231728895L167.01264,41.533334394296034L167.05773,41.533334394296034L167.37336,35.59999787807467L167.50862999999998,35.59999787807467L168.59079,53.39999858538311L168.72606000000002,59.33333510160448L169.04169000000002,44.499998231728895L169.17696,41.533334394296034L169.22205,35.59999787807467L169.31223,41.533334394296034L169.35732,41.533334394296034L169.67295,47.46667091051739L169.76313000000002,50.43333474795025L170.25912,44.499998231728895L170.48457000000002,35.59999787807467L170.89038,29.666670203208945L170.98056,29.666670203208945L171.07074,29.666670203208945L171.25109999999998,26.699997524420432L171.38637,20.76666984955471L171.97253999999998,17.7999971707662L172.01763,20.76666984955471L172.06272,14.83333333333334L172.33326,11.866669495900478L172.69397999999998,23.73333368698757L172.96452000000002,11.866669495900478L173.00960999999998,14.83333333333334L173.0547,14.83333333333334L173.23506,11.866669495900478L173.46051,8.900005658467617L173.77614,5.933341821034756L174.13685999999998,2.966660300890618L174.31722,8.900005658467617L174.49758,8.900005658467617L174.58776,14.83333333333334L174.85829999999999,14.83333333333334L174.99357,5.933341821034756L175.08375,-2.966667373975105L175.62483,-0.0000035365422434985305L176.16591,2.966660300890618L176.39136,8.900005658467617L176.61681,14.83333333333334L177.42843000000002,14.83333333333334L177.60879000000003,20.76666984955471L177.74406000000002,26.699997524420432L177.96950999999999,35.59999787807467L178.24005,26.699997524420432L178.28514,26.699997524420432L178.46550000000002,32.633334040641806L178.55568,32.633334040641806L178.82622,35.59999787807467L178.87131,38.56667055686317L179.14185,35.59999787807467L179.45748,35.59999787807467L179.72802000000001,32.633334040641806L179.86329,32.633334040641806L180.13383,17.7999971707662L180.62982,32.633334040641806L180.72,26.699997524420432L181.03563,20.76666984955471L181.1709,20.76666984955471L181.30617,17.7999971707662L181.39634999999998,20.76666984955471L181.6218,8.900005658467617L182.34324,14.83333333333334L182.43341999999998,14.83333333333334L182.47851,14.83333333333334L182.65887,17.7999971707662L182.70396,20.76666984955471L182.88432,5.933341821034756L182.9745,-0.0000035365422434985305L183.24504000000002,-0.0000035365422434985305L183.29012999999998,2.966660300890618L183.60576,11.866669495900478L184.14684,20.76666984955471L184.37229,14.83333333333334L184.50756,11.866669495900478L184.91337,20.76666984955471L184.95846,20.76666984955471L185.229,17.7999971707662L185.27409,17.7999971707662L185.90535,26.699997524420432L186.08571,17.7999971707662L186.17588999999998,17.7999971707662L186.26607,20.76666984955471L186.40134,20.76666984955471L186.53661,23.73333368698757L186.94242,23.73333368698757L187.21295999999998,35.59999787807467L187.30314,38.56667055686317L187.79913,26.699997524420432L187.84422,26.699997524420432L188.11476,38.56667055686317L188.43039,44.499998231728895L189.51254999999998,29.666670203208945L189.64782000000002,26.699997524420432L189.78309000000002,26.699997524420432L189.87327,29.666670203208945L190.82016,35.59999787807467L190.95542999999998,35.59999787807467L191.13579,32.633334040641806L191.18088,29.666670203208945L191.22597000000002,29.666670203208945L191.49651,41.533334394296034L191.63178,44.499998231728895L191.72196,44.499998231728895L192.12777,38.56667055686317L192.30813,38.56667055686317L192.4434,38.56667055686317L192.66885000000002,38.56667055686317L193.02957,14.83333333333334L193.20993,8.900005658467617L193.30011,8.900005658467617L193.39029000000002,8.900005658467617L193.97646,5.933341821034756L194.06664,2.966660300890618L194.20191,5.933341821034756L194.74299,11.866669495900478L194.92335,17.7999971707662L195.14880000000002,2.966660300890618L195.23898,2.966660300890618L195.68988000000002,26.699997524420432L195.78006,29.666670203208945L195.87024000000002,35.59999787807467L196.45641,26.699997524420432L196.72695000000002,35.59999787807467L197.17785,32.633334040641806L197.4033,17.7999971707662L197.71893,17.7999971707662L197.8542,17.7999971707662L197.94438,17.7999971707662L198.84618,5.933341821034756L198.89127,-0.0000035365422434985305L198.93635999999998,-0.0000035365422434985305L199.16181,5.933341821034756L199.25198999999998,8.900005658467617L199.52253,5.933341821034756L199.70289,-0.0000035365422434985305L200.06361,5.933341821034756L200.1087,5.933341821034756L200.33415,14.83333333333334L200.37924,14.83333333333334L200.5596,20.76666984955471L201.05559,29.666670203208945L201.32613,29.666670203208945L201.59667,50.43333474795025L201.73193999999998,53.39999858538311L202.22793000000001,56.36666242281597L202.40829000000002,53.39999858538311L202.58865,53.39999858538311L202.67883,53.39999858538311L202.90428,50.43333474795025L203.08464,47.46667091051739L203.31009,53.39999858538311L203.53554,47.46667091051739L203.7159,50.43333474795025L203.76099,47.46667091051739L203.85117000000002,44.499998231728895L204.25698,50.43333474795025L204.30207000000001,50.43333474795025L204.79806,59.33333510160448L204.88824,65.2666627764702L204.93332999999998,68.23333545525871L205.24896,71.19999929269157L205.33914,71.19999929269157L205.38423,71.19999929269157L205.42932000000002,71.19999929269157L205.47440999999998,71.19999929269157L205.65476999999998,59.33333510160448L205.74495000000002,56.36666242281597L206.73693,50.43333474795025L206.8722,50.43333474795025L207.50346,35.59999787807467L207.72891,20.76666984955471L207.774,23.73333368698757L207.86418,23.73333368698757L208.2249,26.699997524420432L208.45035000000001,41.533334394296034L208.76598,44.499998231728895L210.0285,53.39999858538311L210.34413,53.39999858538311L210.84011999999998,41.533334394296034L211.06557,38.56667055686317L211.47138,32.633334040641806L211.51647,35.59999787807467L211.96737000000002,14.83333333333334L212.01245999999998,8.900005658467617L212.05755,8.900005658467617L212.14773,11.866669495900478L212.23791,14.83333333333334L212.32809,11.866669495900478L212.37318,14.83333333333334L212.41827,17.7999971707662L212.50845,14.83333333333334L213.32007,14.83333333333334L213.54552,14.83333333333334L213.77097,8.900005658467617L213.90624,8.900005658467617L214.04151,11.866669495900478L214.26696,8.900005658467617L214.76295,29.666670203208945L215.16876000000002,17.7999971707662L215.30403,20.76666984955471L215.34912,26.699997524420432L215.75493,38.56667055686317L216.02547,32.633334040641806L216.70182,26.699997524420432L216.74691,26.699997524420432L217.01745,14.83333333333334L217.19781,2.966660300890618L217.33308,5.933341821034756L217.60362,5.933341821034756L217.69379999999998,11.866669495900478L218.09960999999998,2.966660300890618L218.27997,-0.0000035365422434985305L218.55051,-0.0000035365422434985305L218.77596,8.900005658467617L219.0465,20.76666984955471L219.22686000000002,23.73333368698757L219.45231,20.76666984955471L219.76794,23.73333368698757L219.94830000000002,23.73333368698757L220.35411,14.83333333333334L220.48938,17.7999971707662L221.03046,-0.0000035365422434985305L221.34609,2.966660300890618L221.48136,2.966660300890618L221.57154000000003,-0.0000035365422434985305L221.61663,2.966660300890618L221.79699,-2.966667373975105L221.88717,-2.966667373975105L222.42825000000002,8.900005658467617L222.69879,14.83333333333334L222.74388,17.7999971707662L222.83406,26.699997524420432L223.05951,35.59999787807467L223.1046,38.56667055686317L223.23987,32.633334040641806L223.51041,53.39999858538311L223.69077000000001,65.2666627764702L224.0064,59.33333510160448L224.4573,77.13333580891293L224.72784000000001,80.0999996463458L224.90820000000002,68.23333545525871L225.04347,68.23333545525871L225.40419,71.19999929269157L225.49436999999998,68.23333545525871L226.08053999999998,65.2666627764702L226.2609,59.33333510160448L226.30599,56.36666242281597L227.1627,38.56667055686317L227.20779000000002,35.59999787807467L227.34306,35.59999787807467L227.65869,41.533334394296034L227.74887,38.56667055686317L228.10959,35.59999787807467L228.19977,32.633334040641806L228.24486000000002,35.59999787807467L228.83103,44.499998231728895L228.92121,41.533334394296034L228.96630000000002,41.533334394296034L229.37211000000002,44.499998231728895L229.50738,38.56667055686317L229.59756,38.56667055686317L230.00337,38.56667055686317L230.13863999999998,38.56667055686317L230.22882,32.633334040641806L230.319,29.666670203208945L230.86007999999998,44.499998231728895L231.62661,41.533334394296034L231.85206000000002,44.499998231728895L232.30296,44.499998231728895L232.5735,41.533334394296034L232.88913000000002,47.46667091051739L233.15967,59.33333510160448L233.24985,59.33333510160448L233.43021000000002,53.39999858538311L233.74584000000002,38.56667055686317L233.79093,35.59999787807467L233.83602,32.633334040641806L234.28692,29.666670203208945L235.00836,23.73333368698757L235.23380999999998,29.666670203208945L235.45926,23.73333368698757L235.68471,26.699997524420432L235.7298,23.73333368698757L235.81998,20.76666984955471L235.95524999999998,17.7999971707662L236.40615,14.83333333333334L236.58651,23.73333368698757L236.63160000000002,20.76666984955471L236.90214,32.633334040641806L237.0825,32.633334040641806L237.12759,35.59999787807467L237.48831,38.56667055686317L237.57849,38.56667055686317L237.62358,35.59999787807467L237.66867000000002,35.59999787807467L237.75885,38.56667055686317L237.89412,29.666670203208945L237.93921,32.633334040641806L237.9843,32.633334040641806L238.02939,32.633334040641806L238.20975,35.59999787807467L238.29993,32.633334040641806L238.43519999999998,29.666670203208945L238.48029,32.633334040641806L238.52538,32.633334040641806L238.57047,35.59999787807467L238.66065,35.59999787807467L238.79592,23.73333368698757L238.84100999999998,23.73333368698757L239.11155000000002,32.633334040641806L239.38209,32.633334040641806L239.47227,29.666670203208945L239.60754,29.666670203208945L240.14862,14.83333333333334L240.50934,23.73333368698757L240.55443,26.699997524420432L240.59951999999998,26.699997524420432L240.87006,35.59999787807467L241.18569,41.533334394296034L241.41114000000002,56.36666242281597L241.72677000000002,59.33333510160448L241.90713,62.299998939037344L242.13258000000002,68.23333545525871L242.31294000000003,68.23333545525871L242.58348,68.23333545525871L242.67366,65.2666627764702L242.80893,74.16666313012443L243.12456,65.2666627764702L243.39509999999999,59.33333510160448L243.53037,56.36666242281597L243.62055,53.39999858538311L243.66564,56.36666242281597L243.89109000000002,47.46667091051739" style="fill: none;" fill="none"></path></g></g></g></g></g></g><g transform="translate(60, 178)" clip-path="url(#clip_1)"><clipPath id="clip_1"><rect width="270" height="22"></rect></clipPath><g><g><line x1="0" y1="0" x2="0" y2="5" style="visibility: inherit;" fill="rgb(0, 0, 0)" stroke="rgb(204, 204, 204)" stroke-width="1px"></line><line x1="22.5" y1="0" x2="22.5" y2="5" style="visibility: inherit;" fill="rgb(0, 0, 0)" stroke="rgb(204, 204, 204)" stroke-width="1px"></line><line x1="45" y1="0" x2="45" y2="5" style="visibility: inherit;" fill="rgb(0, 0, 0)" stroke="rgb(204, 204, 204)" stroke-width="1px"></line><line x1="67.5" y1="0" x2="67.5" y2="5" style="visibility: inherit;" fill="rgb(0, 0, 0)" stroke="rgb(204, 204, 204)" stroke-width="1px"></line><line x1="90" y1="0" x2="90" y2="5" style="visibility: inherit;" fill="rgb(0, 0, 0)" stroke="rgb(204, 204, 204)" stroke-width="1px"></line><line x1="112.5" y1="0" x2="112.5" y2="5" style="visibility: inherit;" fill="rgb(0, 0, 0)" stroke="rgb(204, 204, 204)" stroke-width="1px"></line><line x1="135" y1="0" x2="135" y2="5" style="visibility: inherit;" fill="rgb(0, 0, 0)" stroke="rgb(204, 204, 204)" stroke-width="1px"></line><line x1="157.5" y1="0" x2="157.5" y2="5" style="visibility: inherit;" fill="rgb(0, 0, 0)" stroke="rgb(204, 204, 204)" stroke-width="1px"></line><line x1="180" y1="0" x2="180" y2="5" style="visibility: inherit;" fill="rgb(0, 0, 0)" stroke="rgb(204, 204, 204)" stroke-width="1px"></line><line x1="202.5" y1="0" x2="202.5" y2="5" style="visibility: inherit;" fill="rgb(0, 0, 0)" stroke="rgb(204, 204, 204)" stroke-width="1px"></line><line x1="225" y1="0" x2="225" y2="5" style="visibility: inherit;" fill="rgb(0, 0, 0)" stroke="rgb(204, 204, 204)" stroke-width="1px"></line><line x1="247.5" y1="0" x2="247.5" y2="5" style="visibility: inherit;" fill="rgb(0, 0, 0)" stroke="rgb(204, 204, 204)" stroke-width="1px"></line><line x1="270" y1="0" x2="270" y2="5" style="visibility: inherit;" fill="rgb(0, 0, 0)" stroke="rgb(204, 204, 204)" stroke-width="1px"></line></g><g transform="translate(0, 8)"><text x="0" y="0" dx="0em" dy="0.95em" style="text-anchor: middle; visibility: hidden; font-family: Roboto, sans-serif; font-size: 12px; font-weight: 200;" fill="rgb(50, 49, 63)" stroke="none" stroke-width="1px">-500k</text><text x="22.5" y="0" dx="0em" dy="0.95em" style="text-anchor: middle; visibility: inherit; font-family: Roboto, sans-serif; font-size: 12px; font-weight: 200;" fill="rgb(50, 49, 63)" stroke="none" stroke-width="1px">0</text><text x="45" y="0" dx="0em" dy="0.95em" style="text-anchor: middle; visibility: hidden; font-family: Roboto, sans-serif; font-size: 12px; font-weight: 200;" fill="rgb(50, 49, 63)" stroke="none" stroke-width="1px">500k</text><text x="67.5" y="0" dx="0em" dy="0.95em" style="text-anchor: middle; visibility: inherit; font-family: Roboto, sans-serif; font-size: 12px; font-weight: 200;" fill="rgb(50, 49, 63)" stroke="none" stroke-width="1px">1M</text><text x="90" y="0" dx="0em" dy="0.95em" style="text-anchor: middle; visibility: hidden; font-family: Roboto, sans-serif; font-size: 12px; font-weight: 200;" fill="rgb(50, 49, 63)" stroke="none" stroke-width="1px">1.5M</text><text x="112.5" y="0" dx="0em" dy="0.95em" style="text-anchor: middle; visibility: inherit; font-family: Roboto, sans-serif; font-size: 12px; font-weight: 200;" fill="rgb(50, 49, 63)" stroke="none" stroke-width="1px">2M</text><text x="135" y="0" dx="0em" dy="0.95em" style="text-anchor: middle; visibility: hidden; font-family: Roboto, sans-serif; font-size: 12px; font-weight: 200;" fill="rgb(50, 49, 63)" stroke="none" stroke-width="1px">2.5M</text><text x="157.5" y="0" dx="0em" dy="0.95em" style="text-anchor: middle; visibility: inherit; font-family: Roboto, sans-serif; font-size: 12px; font-weight: 200;" fill="rgb(50, 49, 63)" stroke="none" stroke-width="1px">3M</text><text x="180" y="0" dx="0em" dy="0.95em" style="text-anchor: middle; visibility: hidden; font-family: Roboto, sans-serif; font-size: 12px; font-weight: 200;" fill="rgb(50, 49, 63)" stroke="none" stroke-width="1px">3.5M</text><text x="202.5" y="0" dx="0em" dy="0.95em" style="text-anchor: middle; visibility: inherit; font-family: Roboto, sans-serif; font-size: 12px; font-weight: 200;" fill="rgb(50, 49, 63)" stroke="none" stroke-width="1px">4M</text><text x="225" y="0" dx="0em" dy="0.95em" style="text-anchor: middle; visibility: hidden; font-family: Roboto, sans-serif; font-size: 12px; font-weight: 200;" fill="rgb(50, 49, 63)" stroke="none" stroke-width="1px">4.5M</text><text x="247.5" y="0" dx="0em" dy="0.95em" style="text-anchor: middle; visibility: inherit; font-family: Roboto, sans-serif; font-size: 12px; font-weight: 200;" fill="rgb(50, 49, 63)" stroke="none" stroke-width="1px">5M</text><text x="270" y="0" dx="0em" dy="0.95em" style="text-anchor: middle; visibility: hidden; font-family: Roboto, sans-serif; font-size: 12px; font-weight: 200;" fill="rgb(50, 49, 63)" stroke="none" stroke-width="1px">5.5M</text></g><line x1="0" y1="0" x2="270" y2="0" fill="rgb(0, 0, 0)" stroke="rgb(204, 204, 204)" stroke-width="1px"></line></g></g></g></g></svg>