<svg viewBox="0 0 330 200" xmlns="http://www.w3.org/2000/svg"><g><g><g><g><g><line x1="50" y1="178" x2="45" y2="178" style="visibility: inherit;" fill="rgb(0, 0, 0)" stroke="rgb(204, 204, 204)" stroke-width="1px"></line><line x1="50" y1="163.16666666666669" x2="45" y2="163.16666666666669" style="visibility: inherit;" fill="rgb(0, 0, 0)" stroke="rgb(204, 204, 204)" stroke-width="1px"></line><line x1="50" y1="148.33333333333334" x2="45" y2="148.33333333333334" style="visibility: inherit;" fill="rgb(0, 0, 0)" stroke="rgb(204, 204, 204)" stroke-width="1px"></line><line x1="50" y1="133.5" x2="45" y2="133.5" style="visibility: inherit;" fill="rgb(0, 0, 0)" stroke="rgb(204, 204, 204)" stroke-width="1px"></line><line x1="50" y1="118.66666666666669" x2="45" y2="118.66666666666669" style="visibility: inherit;" fill="rgb(0, 0, 0)" stroke="rgb(204, 204, 204)" stroke-width="1px"></line><line x1="50" y1="103.83333333333331" x2="45" y2="103.83333333333331" style="visibility: inherit;" fill="rgb(0, 0, 0)" stroke="rgb(204, 204, 204)" stroke-width="1px"></line><line x1="50" y1="89" x2="45" y2="89" style="visibility: inherit;" fill="rgb(0, 0, 0)" stroke="rgb(204, 204, 204)" stroke-width="1px"></line><line x1="50" y1="74.16666666666666" x2="45" y2="74.16666666666666" style="visibility: inherit;" fill="rgb(0, 0, 0)" stroke="rgb(204, 204, 204)" stroke-width="1px"></line><line x1="50" y1="59.33333333333332" x2="45" y2="59.33333333333332" style="visibility: inherit;" fill="rgb(0, 0, 0)" stroke="rgb(204, 204, 204)" stroke-width="1px"></line><line x1="50" y1="44.5" x2="45" y2="44.5" style="visibility: inherit;" fill="rgb(0, 0, 0)" stroke="rgb(204, 204, 204)" stroke-width="1px"></line><line x1="50" y1="29.66666666666666" x2="45" y2="29.66666666666666" style="visibility: inherit;" fill="rgb(0, 0, 0)" stroke="rgb(204, 204, 204)" stroke-width="1px"></line><line x1="50" y1="14.83333333333332" x2="45" y2="14.83333333333332" style="visibility: inherit;" fill="rgb(0, 0, 0)" stroke="rgb(204, 204, 204)" stroke-width="1px"></line><line x1="50" y1="0" x2="45" y2="0" style="visibility: inherit;" fill="rgb(0, 0, 0)" stroke="rgb(204, 204, 204)" stroke-width="1px"></line></g><g transform="translate(40, 0)"><text x="0" y="178" dx="0em" dy="0.3em" style="text-anchor: end; visibility: hidden; font-family: Roboto, sans-serif; font-size: 12px; font-weight: 200;" fill="rgb(50, 49, 63)" stroke="none" stroke-width="1px">-1.2</text><text x="0" y="163.16666666666669" dx="0em" dy="0.3em" style="text-anchor: end; visibility: inherit; font-family: Roboto, sans-serif; font-size: 12px; font-weight: 200;" fill="rgb(50, 49, 63)" stroke="none" stroke-width="1px">-1</text><text x="0" y="148.33333333333334" dx="0em" dy="0.3em" style="text-anchor: end; visibility: hidden; font-family: Roboto, sans-serif; font-size: 12px; font-weight: 200;" fill="rgb(50, 49, 63)" stroke="none" stroke-width="1px">-0.8</text><text x="0" y="133.5" dx="0em" dy="0.3em" style="text-anchor: end; visibility: inherit; font-family: Roboto, sans-serif; font-size: 12px; font-weight: 200;" fill="rgb(50, 49, 63)" stroke="none" stroke-width="1px">-0.6</text><text x="0" y="118.66666666666669" dx="0em" dy="0.3em" style="text-anchor: end; visibility: hidden; font-family: Roboto, sans-serif; font-size: 12px; font-weight: 200;" fill="rgb(50, 49, 63)" stroke="none" stroke-width="1px">-0.4</text><text x="0" y="103.83333333333331" dx="0em" dy="0.3em" style="text-anchor: end; visibility: inherit; font-family: Roboto, sans-serif; font-size: 12px; font-weight: 200;" fill="rgb(50, 49, 63)" stroke="none" stroke-width="1px">-0.2</text><text x="0" y="89" dx="0em" dy="0.3em" style="text-anchor: end; visibility: hidden; font-family: Roboto, sans-serif; font-size: 12px; font-weight: 200;" fill="rgb(50, 49, 63)" stroke="none" stroke-width="1px">0</text><text x="0" y="74.16666666666666" dx="0em" dy="0.3em" style="text-anchor: end; visibility: inherit; font-family: Roboto, sans-serif; font-size: 12px; font-weight: 200;" fill="rgb(50, 49, 63)" stroke="none" stroke-width="1px">0.2</text><text x="0" y="59.33333333333332" dx="0em" dy="0.3em" style="text-anchor: end; visibility: hidden; font-family: Roboto, sans-serif; font-size: 12px; font-weight: 200;" fill="rgb(50, 49, 63)" stroke="none" stroke-width="1px">0.4</text><text x="0" y="44.5" dx="0em" dy="0.3em" style="text-anchor: end; visibility: inherit; font-family: Roboto, sans-serif; font-size: 12px; font-weight: 200;" fill="rgb(50, 49, 63)" stroke="none" stroke-width="1px">0.6</text><text x="0" y="29.66666666666666" dx="0em" dy="0.3em" style="text-anchor: end; visibility: hidden; font-family: Roboto, sans-serif; font-size: 12px; font-weight: 200;" fill="rgb(50, 49, 63)" stroke="none" stroke-width="1px">0.8</text><text x="0" y="14.83333333333332" dx="0em" dy="0.3em" style="text-anchor: end; visibility: inherit; font-family: Roboto, sans-serif; font-size: 12px; font-weight: 200;" fill="rgb(50, 49, 63)" stroke="none" stroke-width="1px">1</text><text x="0" y="0" dx="0em" dy="0.3em" style="text-anchor: end; visibility: hidden; font-family: Roboto, sans-serif; font-size: 12px; font-weight: 200;" fill="rgb(50, 49, 63)" stroke="none" stroke-width="1px">1.2</text></g><line x1="50" y1="0" x2="50" y2="178" fill="rgb(0, 0, 0)" stroke="rgb(204, 204, 204)" stroke-width="1px"></line></g></g><g transform="translate(50, 0)" clip-path="url(#clip_0)"><clipPath id="clip_0"><rect width="280" height="178"></rect></clipPath><g><g><g><line x1="0" y1="0" x2="0" y2="178" fill="rgb(0, 0, 0)" stroke="rgb(60, 60, 60)" stroke-width="1px" opacity="0.25"></line><line x1="23.333333333333332" y1="0" x2="23.333333333333332" y2="178" fill="rgb(0, 0, 0)" stroke="rgb(60, 60, 60)" stroke-width="1px" opacity="0.25"></line><line x1="46.666666666666664" y1="0" x2="46.666666666666664" y2="178" fill="rgb(0, 0, 0)" stroke="rgb(60, 60, 60)" stroke-width="1px" opacity="0.25"></line><line x1="70" y1="0" x2="70" y2="178" fill="rgb(0, 0, 0)" stroke="rgb(60, 60, 60)" stroke-width="1px" opacity="0.25"></line><line x1="93.33333333333333" y1="0" x2="93.33333333333333" y2="178" fill="rgb(0, 0, 0)" stroke="rgb(60, 60, 60)" stroke-width="1px" opacity="0.25"></line><line x1="116.66666666666667" y1="0" x2="116.66666666666667" y2="178" fill="rgb(0, 0, 0)" stroke="rgb(60, 60, 60)" stroke-width="1px" opacity="0.25"></line><line x1="140" y1="0" x2="140" y2="178" fill="rgb(0, 0, 0)" stroke="rgb(60, 60, 60)" stroke-width="1px" opacity="0.25"></line><line x1="163.33333333333334" y1="0" x2="163.33333333333334" y2="178" fill="rgb(0, 0, 0)" stroke="rgb(60, 60, 60)" stroke-width="1px" opacity="0.25"></line><line x1="186.66666666666666" y1="0" x2="186.66666666666666" y2="178" fill="rgb(0, 0, 0)" stroke="rgb(60, 60, 60)" stroke-width="1px" opacity="0.25"></line><line x1="210" y1="0" x2="210" y2="178" fill="rgb(0, 0, 0)" stroke="rgb(60, 60, 60)" stroke-width="1px" opacity="0.25"></line><line x1="233.33333333333334" y1="0" x2="233.33333333333334" y2="178" fill="rgb(0, 0, 0)" stroke="rgb(60, 60, 60)" stroke-width="1px" opacity="0.25"></line><line x1="256.66666666666663" y1="0" x2="256.66666666666663" y2="178" fill="rgb(0, 0, 0)" stroke="rgb(60, 60, 60)" stroke-width="1px" opacity="0.25"></line><line x1="280" y1="0" x2="280" y2="178" fill="rgb(0, 0, 0)" stroke="rgb(60, 60, 60)" stroke-width="1px" opacity="0.25"></line></g><g><line x1="0" y1="178" x2="280" y2="178" fill="rgb(0, 0, 0)" stroke="rgb(60, 60, 60)" stroke-width="1px" opacity="0.25"></line><line x1="0" y1="163.16666666666669" x2="280" y2="163.16666666666669" fill="rgb(0, 0, 0)" stroke="rgb(60, 60, 60)" stroke-width="1px" opacity="0.25"></line><line x1="0" y1="148.33333333333334" x2="280" y2="148.33333333333334" fill="rgb(0, 0, 0)" stroke="rgb(60, 60, 60)" stroke-width="1px" opacity="0.25"></line><line x1="0" y1="133.5" x2="280" y2="133.5" fill="rgb(0, 0, 0)" stroke="rgb(60, 60, 60)" stroke-width="1px" opacity="0.25"></line><line x1="0" y1="118.66666666666669" x2="280" y2="118.66666666666669" fill="rgb(0, 0, 0)" stroke="rgb(60, 60, 60)" stroke-width="1px" opacity="0.25"></line><line x1="0" y1="103.83333333333331" x2="280" y2="103.83333333333331" fill="rgb(0, 0, 0)" stroke="rgb(60, 60, 60)" stroke-width="1px" opacity="0.25"></line><line x1="0" y1="89" x2="280" y2="89" fill="rgb(0, 0, 0)" stroke="rgb(60, 60, 60)" stroke-width="1px" opacity="0.25"></line><line x1="0" y1="74.16666666666666" x2="280" y2="74.16666666666666" fill="rgb(0, 0, 0)" stroke="rgb(60, 60, 60)" stroke-width="1px" opacity="0.25"></line><line x1="0" y1="59.33333333333332" x2="280" y2="59.33333333333332" fill="rgb(0, 0, 0)" stroke="rgb(60, 60, 60)" stroke-width="1px" opacity="0.25"></line><line x1="0" y1="44.5" x2="280" y2="44.5" fill="rgb(0, 0, 0)" stroke="rgb(60, 60, 60)" stroke-width="1px" opacity="0.25"></line><line x1="0" y1="29.66666666666666" x2="280" y2="29.66666666666666" fill="rgb(0, 0, 0)" stroke="rgb(60, 60, 60)" stroke-width="1px" opacity="0.25"></line><line x1="0" y1="14.83333333333332" x2="280" y2="14.83333333333332" fill="rgb(0, 0, 0)" stroke="rgb(60, 60, 60)" stroke-width="1px" opacity="0.25"></line><line x1="0" y1="0" x2="280" y2="0" fill="rgb(0, 0, 0)" stroke="rgb(60, 60, 60)" stroke-width="1px" opacity="0.25"></line></g></g></g><g><g><line x1="0" y1="89" x2="280" y2="89" fill="rgb(0, 0, 0)" stroke="rgb(153, 153, 153)" stroke-width="1.5px"></line></g></g><g><g><line x1="23.333333333333332" y1="0" x2="23.333333333333332" y2="178" fill="rgb(0, 0, 0)" stroke="rgb(153, 153, 153)" stroke-width="1.5px"></line></g></g><g><g><g><g><g><path stroke="rgb(238, 51, 119)" stroke-width="2px" d="M24.03389333333333,89L24.641773333333337,89L24.92233333333333,89L25.670493333333333,89L25.764013333333335,89L25.904293333333335,89L25.997813333333333,89L26.27837333333333,89L26.41865333333333,89L27.120053333333335,89L27.260333333333335,89L27.49413333333333,89L27.868213333333333,89L28.195533333333334,89L28.569613333333336,89L28.709893333333333,89L28.756653333333336,89L29.083973333333333,89L29.31777333333333,89L29.691853333333334,89L30.299733333333332,89L30.814093333333332,89L31.047893333333334,89L31.188173333333335,89L31.609013333333333,89L31.655773333333332,89L32.12337333333333,89L32.357173333333336,89L32.450693333333334,89L32.49745333333333,89L32.684493333333336,89L33.058573333333335,89L33.432653333333334,89L33.47941333333333,89L33.713213333333336,89L34.22757333333333,89L34.50813333333333,89L34.741933333333336,89L34.88221333333333,89L35.44333333333333,89L35.72389333333333,89L35.95769333333333,89L36.28501333333333,89L36.472053333333335,89L36.56557333333333,89L37.454013333333336,89L37.68781333333333,89L37.73457333333333,89L37.96837333333333,89L38.202173333333334,89L38.29569333333333,89L38.66977333333333,89L38.71653333333333,89L39.04385333333333,89L39.230893333333334,89L39.65173333333333,89L40.02581333333334,89L40.77397333333333,89L40.961013333333334,89L41.241573333333335,89L41.42861333333333,89L41.522133333333336,89L43.48605333333333,89L43.53281333333333,89L43.626333333333335,89L43.90689333333333,89L44.327733333333335,89L44.42125333333333,89L44.46801333333333,89L44.608293333333336,89L44.88885333333334,89L45.309693333333335,89L45.44997333333334,89L45.49673333333334,89L45.96433333333333,89L46.759253333333334,89L46.85277333333333,89L47.50741333333333,89L47.741213333333334,89L47.83473333333333,89L47.97501333333334,89L48.34909333333333,89L48.62965333333333,89L48.72317333333333,89L48.86345333333333,89L49.14401333333333,89L49.377813333333336,89L49.84541333333333,89L50.125973333333334,89L50.406533333333336,89L50.59357333333334,89L50.87413333333334,89L50.96765333333334,89L51.01441333333334,89L51.10793333333333,89L51.20145333333333,89L51.24821333333333,89L51.48201333333333,89L51.52877333333333,89L51.94961333333333,89L52.23017333333333,89L52.32369333333333,89L52.55749333333333,89L52.791293333333336,89L52.884813333333334,89L53.445933333333336,89L53.77325333333333,89L53.82001333333333,89L53.91353333333333,89L54.00705333333333,89L54.05381333333333,89L54.14733333333333,89L54.70845333333333,89L54.848733333333335,89L55.03577333333333,89L55.176053333333336,89L55.31633333333333,89L55.503373333333336,89L55.550133333333335,89L55.73717333333334,89L55.97097333333333,89L56.01773333333334,89L56.48533333333333,89L56.67237333333333,89L56.81265333333333,89L57.18673333333333,89L57.37377333333333,89L57.51405333333333,89L57.560813333333336,89L57.607573333333335,89L57.934893333333335,89L58.215453333333336,89L58.308973333333334,89L58.35573333333333,89L58.542773333333336,89L58.72981333333334,89L58.87009333333334,89L58.916853333333336,89L58.963613333333335,89L59.15065333333333,89L59.57149333333333,89L59.75853333333333,89L59.80529333333333,89L59.85205333333333,89L59.94557333333333,89L59.992333333333335,89L60.272893333333336,89L60.45993333333333,89L60.50669333333333,89L60.600213333333336,89L60.693733333333334,89L60.83401333333333,89L60.88077333333334,89L60.927533333333336,89L60.974293333333335,89L61.11457333333333,89L61.301613333333336,89L61.53541333333334,89L61.58217333333334,89L61.628933333333336,89L61.90949333333333,89L62.704413333333335,89L62.89145333333333,89L62.984973333333336,89L63.21877333333333,89L64.34101333333334,89L64.43453333333333,89L64.66833333333334,89L64.76185333333333,89L64.94889333333333,89L65.04241333333333,89L65.41649333333334,89L65.69705333333333,89L65.88409333333334,89L66.21141333333334,89L66.30493333333334,89L66.58549333333333,89L66.67901333333333,89L66.81929333333333,89L66.86605333333334,89L66.95957333333334,89L67.33365333333333,89L67.38041333333334,89L67.52069333333333,89L67.84801333333333,89L67.98829333333333,89L68.40913333333333,89L68.59617333333334,89L68.73645333333333,89L68.78321333333334,89L69.20405333333333,89L69.25081333333334,89L69.43785333333334,89L69.48461333333334,89L69.53137333333333,89L69.57813333333334,89L69.76517333333334,89L69.81193333333334,89L69.95221333333333,89L69.99897333333332,89L70.37305333333333,89L70.56009333333333,89L70.65361333333333,89L70.74713333333334,89L70.79389333333334,89L71.21473333333333,89L71.35501333333333,89L71.72909333333332,89L71.82261333333332,89L72.00965333333333,89L72.05641333333334,89L72.29021333333333,89L72.61753333333334,89L73.13189333333334,89L73.22541333333334,89L73.50597333333333,89L73.64625333333333,89L73.73977333333335,89L73.92681333333334,89L74.11385333333332,89L74.20737333333332,89L74.44117333333334,89L74.48793333333333,89L74.53469333333334,89L74.90877333333333,89L75.18933333333334,89L75.37637333333333,89L75.42313333333333,89L75.46989333333333,89L75.89073333333333,89L76.12453333333335,89L76.77917333333333,89L76.87269333333333,89L77.80789333333333,89L77.85465333333333,89L78.04169333333334,89L78.08845333333333,89L78.13521333333334,89L78.97689333333334,89L79.21069333333334,89L79.53801333333332,89L79.58477333333333,89L79.86533333333334,89L79.95885333333334,89L80.19265333333333,89L80.28617333333332,89L80.56673333333333,89L81.40841333333333,89L81.50193333333333,89L81.59545333333334,89L81.96953333333333,89L82.10981333333332,89L82.48389333333333,89L82.62417333333333,89L82.76445333333332,89L83.37233333333333,89L83.69965333333333,89L83.98021333333332,89L84.16725333333333,89L84.26077333333333,89L84.30753333333334,89L84.58809333333335,89L85.05569333333332,89L85.28949333333334,89L85.33625333333333,89L85.47653333333334,89L85.75709333333333,89L85.85061333333334,89L85.99089333333333,89L86.13117333333334,89L86.27145333333333,89L86.31821333333333,89L87.15989333333334,89L87.86129333333334,89L88.56269333333333,89L88.70297333333333,89L88.74973333333332,89L88.84325333333334,89L88.89001333333334,89L89.87197333333333,89L89.91873333333334,89L90.15253333333334,89L90.29281333333333,89L90.47985333333332,89L90.57337333333332,89L90.76041333333333,89L90.94745333333333,89L91.13449333333332,89L92.30349333333334,89L92.35025333333333,89L92.86461333333332,89L93.23869333333333,89L93.28545333333334,89L93.42573333333333,89L93.51925333333332,89L93.56601333333333,89L93.98685333333333,89L94.31417333333334,89L95.01557333333334,89L95.06233333333334,89L95.20261333333333,89L95.52993333333333,89L96.09105333333332,89L96.32485333333334,89L96.37161333333333,89L96.46513333333333,89L96.79245333333334,89L97.11977333333333,89L97.16653333333333,89L97.58737333333333,89L97.77441333333333,89L97.86793333333333,89L98.05497333333334,89L98.47581333333332,89L98.80313333333334,89L98.84989333333333,89L99.08369333333333,89L99.45777333333334,89L99.87861333333333,89L99.92537333333334,89L100.11241333333334,89L100.34621333333334,89L100.48649333333334,89L100.58001333333334,89L100.72029333333333,89L100.86057333333333,89L101.04761333333333,89L101.42169333333332,89L101.79577333333333,89L101.98281333333333,89L102.12309333333334,89L102.16985333333334,89L102.45041333333333,89L102.49717333333334,89L102.87125333333334,89L103.05829333333334,89L103.10505333333333,89L103.15181333333334,89L103.24533333333333,89L103.38561333333334,89L103.71293333333332,89L103.75969333333333,89L104.13377333333334,89L104.18053333333333,89L104.60137333333334,89L104.78841333333334,89L104.88193333333334,89L105.02221333333333,89L105.25601333333334,89L105.30277333333333,89L105.39629333333333,89L105.44305333333334,89L105.48981333333333,89L105.72361333333333,89L106.37825333333332,89L106.79909333333333,89L107.07965333333334,89L107.40697333333333,89L107.45373333333333,89L107.87457333333333,89L108.20189333333335,89L108.62273333333333,89L108.76301333333333,89L109.09033333333333,89L109.18385333333333,89L109.37089333333333,89L109.83849333333333,89L109.88525333333332,89L110.02553333333334,89L110.25933333333333,89L110.44637333333333,89L111.05425333333334,89L111.14777333333333,89L111.19453333333333,89L111.47509333333333,89L111.52185333333334,89L111.56861333333333,89L111.66213333333333,89L112.31677333333333,89L113.15845333333334,89L113.43901333333334,89L113.76633333333334,89L114.04689333333333,89L114.23393333333334,89L114.32745333333334,89L114.42097333333334,89L114.70153333333333,89L114.84181333333332,89L114.93533333333333,89L115.07561333333334,89L115.21589333333333,89L115.35617333333333,89L115.77701333333333,89L115.87053333333333,89L116.43165333333333,89L116.47841333333334,89L116.52517333333333,89L117.17981333333333,89L117.36685333333334,89L117.55389333333333,89L117.74093333333333,89L117.78769333333332,89L117.92797333333334,89L118.02149333333334,89L118.11501333333334,89L118.48909333333334,89L118.58261333333334,89L118.72289333333333,89L118.86317333333334,89L119.00345333333333,89L119.09697333333334,89L119.23725333333334,89L119.37753333333333,89L120.12569333333333,89L120.45301333333333,89L120.68681333333333,89L120.73357333333333,89L120.78033333333333,89L120.87385333333333,89L120.92061333333334,89L121.01413333333333,89L121.10765333333333,89L121.29469333333333,89L121.48173333333332,89L121.71553333333334,89L121.80905333333334,89L122.13637333333334,89L122.22989333333334,89L122.27665333333334,89L122.51045333333333,89L122.69749333333334,89L122.93129333333333,89L123.02481333333333,89L123.07157333333333,89L123.53917333333334,89L123.58593333333333,89L123.77297333333333,89L123.91325333333334,89L124.05353333333333,89L124.10029333333334,89L124.24057333333333,89L124.28733333333334,89L124.38085333333333,89L124.61465333333334,89L124.66141333333334,89L124.98873333333333,89L125.03549333333333,89L125.22253333333333,89L125.31605333333333,89L125.40957333333333,89L125.59661333333332,89L126.06421333333333,89L126.15773333333333,89L126.25125333333332,89L126.29801333333333,89L126.48505333333334,89L126.62533333333333,89L126.99941333333334,89L127.18645333333333,89L127.84109333333333,89L128.02813333333333,89L128.12165333333334,89L128.35545333333332,89L128.40221333333332,89L128.49573333333333,89L128.58925333333335,89L128.63601333333332,89L128.72953333333334,89L128.82305333333332,89L128.86981333333333,89L129.19713333333334,89L129.33741333333333,89L129.57121333333333,89L130.13233333333332,89L130.31937333333335,89L130.45965333333334,89L130.92725333333334,89L131.20781333333332,89L131.25457333333333,89L131.34809333333334,89L131.48837333333333,89L131.62865333333335,89L131.67541333333332,89L131.72217333333333,89L132.18977333333333,89L132.23653333333334,89L132.28329333333335,89L132.37681333333333,89L132.93793333333335,89L132.98469333333333,89L133.03145333333333,89L133.07821333333334,89L133.45229333333333,89L133.87313333333333,89L134.66805333333335,89L135.32269333333335,89L135.50973333333334,89L135.55649333333332,89L135.65001333333333,89L136.02409333333333,89L136.11761333333334,89L136.30465333333333,89L136.77225333333334,89L137.14633333333333,89L137.19309333333334,89L137.70745333333335,89L138.08153333333334,89L138.36209333333335,89L138.40885333333333,89L138.50237333333334,89L138.59589333333332,89L138.82969333333332,89L139.71813333333333,89L139.99869333333334,89L140.04545333333334,89L140.51305333333332,89L140.60657333333336,89L140.74685333333335,89L140.79361333333335,89L140.84037333333333,89L141.30797333333334,89L141.35473333333331,89L141.49501333333333,89L141.77557333333334,89L142.00937333333334,89L142.10289333333333,89L142.19641333333334,89L142.28993333333332,89L142.71077333333332,89L142.89781333333332,89L143.08485333333334,89L143.17837333333335,89L143.31865333333334,89L143.73949333333334,89L143.78625333333332,89L143.97329333333332,89L144.25385333333335,89L144.34737333333334,89L144.90849333333333,89L144.95525333333333,89L145.00201333333334,89L145.04877333333332,89L145.18905333333333,89L145.37609333333336,89L145.65665333333334,89L145.70341333333334,89L145.84369333333333,89L146.21777333333333,89L146.45157333333333,89L146.59185333333335,89L146.73213333333334,89L146.77889333333334,89L147.05945333333332,89L147.15297333333334,89L147.43353333333332,89L147.57381333333333,89L147.71409333333332,89L147.76085333333333,89L147.94789333333335,89L148.83633333333333,89L149.02337333333335,89L149.11689333333334,89L149.35069333333334,89L149.58449333333334,89L150.1923733333333,89L150.37941333333333,89L150.51969333333335,89L151.22109333333333,89L151.73545333333334,89L151.78221333333335,89L151.92249333333334,89L152.20305333333332,89L152.53037333333333,89L152.5771333333333,89L152.6238933333333,89L152.67065333333335,89L152.71741333333335,89L152.76417333333333,89L153.13825333333332,89L154.21373333333335,89L154.26049333333333,89L154.30725333333334,89L154.63457333333332,89L155.14893333333333,89L155.24245333333334,89L155.80357333333333,89L155.85033333333334,89L155.99061333333333,89L156.0841333333333,89L156.13089333333332,89L156.22441333333336,89L157.11285333333333,89L157.34665333333334,89L157.48693333333335,89L157.62721333333334,89L158.04805333333334,89L158.09481333333332,89L158.37537333333333,89L158.4688933333333,89L158.51565333333332,89L158.79621333333336,89L158.93649333333335,89L159.21705333333333,89L159.31057333333334,89L159.40409333333332,89L159.54437333333334,89L159.96521333333334,89L160.19901333333334,89L160.29253333333332,89L160.33929333333333,89L160.38605333333334,89L160.90041333333332,89L161.36801333333335,89L161.74209333333334,89L162.53701333333333,89L162.86433333333335,89L162.91109333333333,89L163.05137333333332,89L163.51897333333335,89L163.79953333333333,89L163.98657333333333,89L164.22037333333333,89L164.31389333333334,89L164.40741333333332,89L164.50093333333334,89L164.59445333333332,89L164.78149333333334,89L164.82825333333335,89L164.96853333333334,89L165.24909333333335,89L165.34261333333333,89L165.48289333333332,89L165.85697333333331,89L165.95049333333336,89L165.99725333333333,89L166.04401333333334,89L166.41809333333333,89L167.1194933333333,89L167.21301333333335,89L167.30653333333333,89L167.40005333333335,89L167.49357333333333,89L167.91441333333333,89L168.10145333333332,89L168.70933333333335,89L168.89637333333334,89L169.78481333333335,89L170.48621333333332,89L170.53297333333333,89L170.81353333333334,89L170.86029333333335,89L170.95381333333336,89L171.09409333333335,89L171.32789333333332,89L171.46817333333334,89L171.51493333333332,89L171.60845333333333,89L172.35661333333334,89L172.68393333333333,89L172.87097333333332,89L173.1982933333333,89L173.24505333333335,89L173.57237333333333,89L173.71265333333332,89L174.83489333333333,89L174.97517333333334,89L175.30249333333333,89L175.44277333333332,89L175.48953333333333,89L175.5830533333333,89L175.62981333333335,89L175.95713333333333,89L176.05065333333334,89L176.56501333333333,89L176.79881333333333,89L177.21965333333333,89L177.31317333333334,89L177.40669333333332,89L177.59373333333332,89L177.73401333333334,89L178.34189333333333,89L178.38865333333334,89L178.43541333333334,89L178.71597333333332,89L179.09005333333332,89L179.37061333333335,89L179.41737333333333,89L179.46413333333334,89L179.65117333333333,89L179.88497333333333,89L180.21229333333332,89L180.58637333333334,89L180.77341333333334,89L180.96045333333333,89L181.05397333333335,89L181.33453333333333,89L181.47481333333332,89L181.56833333333333,89L181.6618533333333,89L181.75537333333335,89L181.89565333333334,89L182.12945333333334,89L182.69057333333333,89L182.92437333333334,89L183.15817333333334,89L183.99985333333333,89L184.18689333333336,89L184.32717333333335,89L184.56097333333332,89L184.84153333333333,89L184.88829333333334,89L185.07533333333333,89L185.16885333333332,89L185.44941333333335,89L185.49617333333333,89L185.77673333333334,89L186.10405333333333,89L186.38461333333333,89L186.52489333333335,89L186.80545333333333,89L187.31981333333331,89L187.41333333333333,89L187.74065333333334,89L187.88093333333333,89L188.02121333333335,89L188.11473333333333,89L188.34853333333334,89L189.09669333333335,89L189.19021333333333,89L189.23697333333334,89L189.42401333333333,89L189.47077333333334,89L189.65781333333334,89L189.75133333333332,89L190.03189333333333,89L190.0786533333333,89L190.40597333333335,89L190.96709333333334,89L191.2008933333333,89L191.34117333333336,89L191.76201333333333,89L191.80877333333333,89L192.08933333333334,89L192.13609333333332,89L192.79073333333335,89L192.97777333333335,89L193.07129333333333,89L193.16481333333334,89L193.30509333333333,89L193.44537333333332,89L193.86621333333335,89L194.14677333333333,89L194.24029333333334,89L194.75465333333332,89L194.80141333333333,89L195.08197333333334,89L195.40929333333332,89L196.53153333333333,89L196.67181333333335,89L196.81209333333334,89L196.90561333333332,89L197.88757333333334,89L198.02785333333333,89L198.21489333333332,89L198.26165333333333,89L198.30841333333333,89L198.5889733333333,89L198.72925333333333,89L198.82277333333334,89L199.24361333333334,89L199.43065333333334,89L199.57093333333333,89L199.80473333333336,89L200.17881333333335,89L200.36585333333335,89L200.45937333333333,89L200.55289333333334,89L201.16077333333334,89L201.25429333333335,89L201.39457333333334,89L201.95569333333333,89L202.14273333333333,89L202.37653333333336,89L202.47005333333334,89L202.93765333333334,89L203.03117333333333,89L203.12469333333334,89L203.73257333333333,89L204.01313333333334,89L204.48073333333332,89L204.71453333333335,89L205.04185333333334,89L205.18213333333333,89L205.27565333333334,89L206.21085333333335,89L206.25761333333332,89L206.30437333333333,89L206.53817333333333,89L206.63169333333332,89L206.91225333333333,89L207.09929333333335,89L207.47337333333334,89L207.52013333333335,89L207.75393333333332,89L207.80069333333333,89L207.98773333333332,89L208.50209333333333,89L208.78265333333334,89L209.06321333333332,89L209.2034933333333,89L209.71785333333335,89L209.90489333333335,89L210.09193333333334,89L210.18545333333333,89L210.41925333333333,89L210.60629333333333,89L210.84009333333336,89L211.07389333333333,89L211.26093333333333,89L211.30769333333333,89L211.40121333333335,89L211.82205333333332,89L211.86881333333332,89L212.38317333333333,89L212.47669333333334,89L212.52345333333332,89L212.85077333333334,89L212.94429333333332,89L212.99105333333333,89L213.03781333333333,89L213.0845733333333,89L213.27161333333333,89L213.36513333333335,89L214.39385333333334,89L214.53413333333333,89L215.18877333333333,89L215.42257333333333,89L215.4693333333333,89L215.56285333333335,89L215.93693333333334,89L216.17073333333335,89L216.49805333333333,89L217.80733333333333,89L218.13465333333335,89L218.64901333333333,89L218.88281333333333,89L219.30365333333336,89L219.35041333333334,89L219.81801333333334,89L219.86477333333332,89L219.91153333333332,89L220.00505333333334,89L220.09857333333332,89L220.19209333333333,89L220.2388533333333,89L220.28561333333332,89L220.37913333333336,89L221.22081333333333,89L221.45461333333333,89L221.68841333333336,89L221.82869333333335,89L221.96897333333334,89L222.20277333333334,89L222.71713333333332,89L223.13797333333335,89L223.27825333333334,89L223.32501333333335,89L223.74585333333332,89L224.02641333333335,89L224.72781333333333,89L224.77457333333334,89L225.05513333333332,89L225.2421733333333,89L225.38245333333333,89L225.66301333333334,89L225.75653333333332,89L226.17737333333332,89L226.36441333333332,89L226.64497333333335,89L226.87877333333333,89L227.15933333333334,89L227.34637333333333,89L227.58017333333333,89L227.90749333333335,89L228.09453333333335,89L228.51537333333332,89L228.65565333333333,89L229.21677333333335,89L229.54409333333334,89L229.68437333333333,89L229.77789333333334,89L229.82465333333332,89L230.0116933333333,89L230.05845333333332,89L230.10521333333335,89L230.66633333333334,89L230.94689333333332,89L230.99365333333333,89L231.0871733333333,89L231.32097333333334,89L231.36773333333335,89L231.50801333333334,89L231.78857333333335,89L231.97561333333334,89L232.30293333333333,89L232.77053333333333,89L233.05109333333334,89L233.23813333333334,89L233.37841333333333,89L233.75249333333335,89L233.84601333333333,89L234.45389333333333,89L234.64093333333332,89L234.68769333333333,89L235.57613333333333,89L235.62289333333334,89L235.76317333333333,89L236.0904933333333,89L236.18401333333335,89L236.55809333333335,89L236.65161333333333,89L236.69837333333334,89L237.30625333333336,89L237.39977333333334,89L237.44653333333335,89L237.86737333333335,89L238.00765333333334,89L238.10117333333332,89L238.52201333333335,89L238.66229333333334,89L238.75581333333335,89L238.84933333333333,89L239.41045333333332,89L240.20537333333334,89L240.43917333333334,89L240.90677333333332,89L241.18733333333333,89L241.51465333333334,89L241.79521333333332,89L241.88873333333333,89L242.07577333333333,89L242.40309333333335,89L242.44985333333335,89L242.49661333333333,89L242.96421333333333,89L243.71237333333335,89L243.94617333333332,89L244.17997333333332,89L244.41377333333332,89L244.46053333333333,89L244.55405333333331,89L244.69433333333333,89L245.16193333333334,89L245.34897333333333,89L245.39573333333334,89L245.67629333333332,89L245.86333333333334,89L245.91009333333335,89L246.28417333333334,89L246.37769333333333,89L246.42445333333333,89L246.47121333333334,89L246.56473333333332,89L246.7050133333333,89L246.75177333333332,89L246.79853333333332,89L246.84529333333333,89L247.03233333333336,89L247.12585333333334,89L247.26613333333333,89L247.31289333333334,89L247.35965333333334,89L247.40641333333335,89L247.49993333333333,89L247.64021333333332,89L247.68697333333333,89L247.96753333333334,89L248.24809333333334,89L248.34161333333336,89L248.48189333333335,89L249.04301333333333,89L249.41709333333336,89L249.4638533333333,89L249.51061333333334,89L249.79117333333335,89L250.11849333333333,89L250.35229333333334,89L250.67961333333335,89L250.86665333333335,89L251.10045333333335,89L251.28749333333334,89L251.56805333333332,89L251.66157333333334,89L251.80185333333333,89L252.12917333333334,89L252.40973333333332,89L252.55001333333334,89L252.64353333333332,89L252.69029333333333,89L252.92409333333333,89" style="fill: none;" fill="none"></path></g></g></g></g><g opacity="0.2"><g><g><g><path stroke="rgb(238, 51, 119)" stroke-width="2px" d="M24.03389333333333,89L24.641773333333337,89L24.92233333333333,89L25.670493333333333,89L25.764013333333335,89L25.904293333333335,89L25.997813333333333,89L26.27837333333333,89L26.41865333333333,89L27.120053333333335,89L27.260333333333335,89L27.49413333333333,89L27.868213333333333,89L28.195533333333334,89L28.569613333333336,89L28.709893333333333,89L28.756653333333336,89L29.083973333333333,89L29.31777333333333,89L29.691853333333334,89L30.299733333333332,89L30.814093333333332,89L31.047893333333334,89L31.188173333333335,89L31.609013333333333,89L31.655773333333332,89L32.12337333333333,89L32.357173333333336,89L32.450693333333334,89L32.49745333333333,89L32.684493333333336,89L33.058573333333335,89L33.432653333333334,89L33.47941333333333,89L33.713213333333336,89L34.22757333333333,89L34.50813333333333,89L34.741933333333336,89L34.88221333333333,89L35.44333333333333,89L35.72389333333333,89L35.95769333333333,89L36.28501333333333,89L36.472053333333335,89L36.56557333333333,89L37.454013333333336,89L37.68781333333333,89L37.73457333333333,89L37.96837333333333,89L38.202173333333334,89L38.29569333333333,89L38.66977333333333,89L38.71653333333333,89L39.04385333333333,89L39.230893333333334,89L39.65173333333333,89L40.02581333333334,89L40.77397333333333,89L40.961013333333334,89L41.241573333333335,89L41.42861333333333,89L41.522133333333336,89L43.48605333333333,89L43.53281333333333,89L43.626333333333335,89L43.90689333333333,89L44.327733333333335,89L44.42125333333333,89L44.46801333333333,89L44.608293333333336,89L44.88885333333334,89L45.309693333333335,89L45.44997333333334,89L45.49673333333334,89L45.96433333333333,89L46.759253333333334,89L46.85277333333333,89L47.50741333333333,89L47.741213333333334,89L47.83473333333333,89L47.97501333333334,89L48.34909333333333,89L48.62965333333333,89L48.72317333333333,89L48.86345333333333,89L49.14401333333333,89L49.377813333333336,89L49.84541333333333,89L50.125973333333334,89L50.406533333333336,89L50.59357333333334,89L50.87413333333334,89L50.96765333333334,89L51.01441333333334,89L51.10793333333333,89L51.20145333333333,89L51.24821333333333,89L51.48201333333333,89L51.52877333333333,89L51.94961333333333,89L52.23017333333333,89L52.32369333333333,89L52.55749333333333,89L52.791293333333336,89L52.884813333333334,89L53.445933333333336,89L53.77325333333333,89L53.82001333333333,89L53.91353333333333,89L54.00705333333333,89L54.05381333333333,89L54.14733333333333,89L54.70845333333333,89L54.848733333333335,89L55.03577333333333,89L55.176053333333336,89L55.31633333333333,89L55.503373333333336,89L55.550133333333335,89L55.73717333333334,89L55.97097333333333,89L56.01773333333334,89L56.48533333333333,89L56.67237333333333,89L56.81265333333333,89L57.18673333333333,89L57.37377333333333,89L57.51405333333333,89L57.560813333333336,89L57.607573333333335,89L57.934893333333335,89L58.215453333333336,89L58.308973333333334,89L58.35573333333333,89L58.542773333333336,89L58.72981333333334,89L58.87009333333334,89L58.916853333333336,89L58.963613333333335,89L59.15065333333333,89L59.57149333333333,89L59.75853333333333,89L59.80529333333333,89L59.85205333333333,89L59.94557333333333,89L59.992333333333335,89L60.272893333333336,89L60.45993333333333,89L60.50669333333333,89L60.600213333333336,89L60.693733333333334,89L60.83401333333333,89L60.88077333333334,89L60.927533333333336,89L60.974293333333335,89L61.11457333333333,89L61.301613333333336,89L61.53541333333334,89L61.58217333333334,89L61.628933333333336,89L61.90949333333333,89L62.704413333333335,89L62.89145333333333,89L62.984973333333336,89L63.21877333333333,89L64.34101333333334,89L64.43453333333333,89L64.66833333333334,89L64.76185333333333,89L64.94889333333333,89L65.04241333333333,89L65.41649333333334,89L65.69705333333333,89L65.88409333333334,89L66.21141333333334,89L66.30493333333334,89L66.58549333333333,89L66.67901333333333,89L66.81929333333333,89L66.86605333333334,89L66.95957333333334,89L67.33365333333333,89L67.38041333333334,89L67.52069333333333,89L67.84801333333333,89L67.98829333333333,89L68.40913333333333,89L68.59617333333334,89L68.73645333333333,89L68.78321333333334,89L69.20405333333333,89L69.25081333333334,89L69.43785333333334,89L69.48461333333334,89L69.53137333333333,89L69.57813333333334,89L69.76517333333334,89L69.81193333333334,89L69.95221333333333,89L69.99897333333332,89L70.37305333333333,89L70.56009333333333,89L70.65361333333333,89L70.74713333333334,89L70.79389333333334,89L71.21473333333333,89L71.35501333333333,89L71.72909333333332,89L71.82261333333332,89L72.00965333333333,89L72.05641333333334,89L72.29021333333333,89L72.61753333333334,89L73.13189333333334,89L73.22541333333334,89L73.50597333333333,89L73.64625333333333,89L73.73977333333335,89L73.92681333333334,89L74.11385333333332,89L74.20737333333332,89L74.44117333333334,89L74.48793333333333,89L74.53469333333334,89L74.90877333333333,89L75.18933333333334,89L75.37637333333333,89L75.42313333333333,89L75.46989333333333,89L75.89073333333333,89L76.12453333333335,89L76.77917333333333,89L76.87269333333333,89L77.80789333333333,89L77.85465333333333,89L78.04169333333334,89L78.08845333333333,89L78.13521333333334,89L78.97689333333334,89L79.21069333333334,89L79.53801333333332,89L79.58477333333333,89L79.86533333333334,89L79.95885333333334,89L80.19265333333333,89L80.28617333333332,89L80.56673333333333,89L81.40841333333333,89L81.50193333333333,89L81.59545333333334,89L81.96953333333333,89L82.10981333333332,89L82.48389333333333,89L82.62417333333333,89L82.76445333333332,89L83.37233333333333,89L83.69965333333333,89L83.98021333333332,89L84.16725333333333,89L84.26077333333333,89L84.30753333333334,89L84.58809333333335,89L85.05569333333332,89L85.28949333333334,89L85.33625333333333,89L85.47653333333334,89L85.75709333333333,89L85.85061333333334,89L85.99089333333333,89L86.13117333333334,89L86.27145333333333,89L86.31821333333333,89L87.15989333333334,89L87.86129333333334,89L88.56269333333333,89L88.70297333333333,89L88.74973333333332,89L88.84325333333334,89L88.89001333333334,89L89.87197333333333,89L89.91873333333334,89L90.15253333333334,89L90.29281333333333,89L90.47985333333332,89L90.57337333333332,89L90.76041333333333,89L90.94745333333333,89L91.13449333333332,89L92.30349333333334,89L92.35025333333333,89L92.86461333333332,89L93.23869333333333,89L93.28545333333334,89L93.42573333333333,89L93.51925333333332,89L93.56601333333333,89L93.98685333333333,89L94.31417333333334,89L95.01557333333334,89L95.06233333333334,89L95.20261333333333,89L95.52993333333333,89L96.09105333333332,89L96.32485333333334,89L96.37161333333333,89L96.46513333333333,89L96.79245333333334,89L97.11977333333333,89L97.16653333333333,89L97.58737333333333,89L97.77441333333333,89L97.86793333333333,89L98.05497333333334,89L98.47581333333332,89L98.80313333333334,89L98.84989333333333,89L99.08369333333333,89L99.45777333333334,89L99.87861333333333,89L99.92537333333334,89L100.11241333333334,89L100.34621333333334,89L100.48649333333334,89L100.58001333333334,89L100.72029333333333,89L100.86057333333333,89L101.04761333333333,89L101.42169333333332,89L101.79577333333333,89L101.98281333333333,89L102.12309333333334,89L102.16985333333334,89L102.45041333333333,89L102.49717333333334,89L102.87125333333334,89L103.05829333333334,89L103.10505333333333,89L103.15181333333334,89L103.24533333333333,89L103.38561333333334,89L103.71293333333332,89L103.75969333333333,89L104.13377333333334,89L104.18053333333333,89L104.60137333333334,89L104.78841333333334,89L104.88193333333334,89L105.02221333333333,89L105.25601333333334,89L105.30277333333333,89L105.39629333333333,89L105.44305333333334,89L105.48981333333333,89L105.72361333333333,89L106.37825333333332,89L106.79909333333333,89L107.07965333333334,89L107.40697333333333,89L107.45373333333333,89L107.87457333333333,89L108.20189333333335,89L108.62273333333333,89L108.76301333333333,89L109.09033333333333,89L109.18385333333333,89L109.37089333333333,89L109.83849333333333,89L109.88525333333332,89L110.02553333333334,89L110.25933333333333,89L110.44637333333333,89L111.05425333333334,89L111.14777333333333,89L111.19453333333333,89L111.47509333333333,89L111.52185333333334,89L111.56861333333333,89L111.66213333333333,89L112.31677333333333,89L113.15845333333334,89L113.43901333333334,89L113.76633333333334,89L114.04689333333333,89L114.23393333333334,89L114.32745333333334,89L114.42097333333334,89L114.70153333333333,89L114.84181333333332,89L114.93533333333333,89L115.07561333333334,89L115.21589333333333,89L115.35617333333333,89L115.77701333333333,89L115.87053333333333,89L116.43165333333333,89L116.47841333333334,89L116.52517333333333,89L117.17981333333333,89L117.36685333333334,89L117.55389333333333,89L117.74093333333333,89L117.78769333333332,89L117.92797333333334,89L118.02149333333334,89L118.11501333333334,89L118.48909333333334,89L118.58261333333334,89L118.72289333333333,89L118.86317333333334,89L119.00345333333333,89L119.09697333333334,89L119.23725333333334,89L119.37753333333333,89L120.12569333333333,89L120.45301333333333,89L120.68681333333333,89L120.73357333333333,89L120.78033333333333,89L120.87385333333333,89L120.92061333333334,89L121.01413333333333,89L121.10765333333333,89L121.29469333333333,89L121.48173333333332,89L121.71553333333334,89L121.80905333333334,89L122.13637333333334,89L122.22989333333334,89L122.27665333333334,89L122.51045333333333,89L122.69749333333334,89L122.93129333333333,89L123.02481333333333,89L123.07157333333333,89L123.53917333333334,89L123.58593333333333,89L123.77297333333333,89L123.91325333333334,89L124.05353333333333,89L124.10029333333334,89L124.24057333333333,89L124.28733333333334,89L124.38085333333333,89L124.61465333333334,89L124.66141333333334,89L124.98873333333333,89L125.03549333333333,89L125.22253333333333,89L125.31605333333333,89L125.40957333333333,89L125.59661333333332,89L126.06421333333333,89L126.15773333333333,89L126.25125333333332,89L126.29801333333333,89L126.48505333333334,89L126.62533333333333,89L126.99941333333334,89L127.18645333333333,89L127.84109333333333,89L128.02813333333333,89L128.12165333333334,89L128.35545333333332,89L128.40221333333332,89L128.49573333333333,89L128.58925333333335,89L128.63601333333332,89L128.72953333333334,89L128.82305333333332,89L128.86981333333333,89L129.19713333333334,89L129.33741333333333,89L129.57121333333333,89L130.13233333333332,89L130.31937333333335,89L130.45965333333334,89L130.92725333333334,89L131.20781333333332,89L131.25457333333333,89L131.34809333333334,89L131.48837333333333,89L131.62865333333335,89L131.67541333333332,89L131.72217333333333,89L132.18977333333333,89L132.23653333333334,89L132.28329333333335,89L132.37681333333333,89L132.93793333333335,89L132.98469333333333,89L133.03145333333333,89L133.07821333333334,89L133.45229333333333,89L133.87313333333333,89L134.66805333333335,89L135.32269333333335,89L135.50973333333334,89L135.55649333333332,89L135.65001333333333,89L136.02409333333333,89L136.11761333333334,89L136.30465333333333,89L136.77225333333334,89L137.14633333333333,89L137.19309333333334,89L137.70745333333335,89L138.08153333333334,89L138.36209333333335,89L138.40885333333333,89L138.50237333333334,89L138.59589333333332,89L138.82969333333332,89L139.71813333333333,89L139.99869333333334,89L140.04545333333334,89L140.51305333333332,89L140.60657333333336,89L140.74685333333335,89L140.79361333333335,89L140.84037333333333,89L141.30797333333334,89L141.35473333333331,89L141.49501333333333,89L141.77557333333334,89L142.00937333333334,89L142.10289333333333,89L142.19641333333334,89L142.28993333333332,89L142.71077333333332,89L142.89781333333332,89L143.08485333333334,89L143.17837333333335,89L143.31865333333334,89L143.73949333333334,89L143.78625333333332,89L143.97329333333332,89L144.25385333333335,89L144.34737333333334,89L144.90849333333333,89L144.95525333333333,89L145.00201333333334,89L145.04877333333332,89L145.18905333333333,89L145.37609333333336,89L145.65665333333334,89L145.70341333333334,89L145.84369333333333,89L146.21777333333333,89L146.45157333333333,89L146.59185333333335,89L146.73213333333334,89L146.77889333333334,89L147.05945333333332,89L147.15297333333334,89L147.43353333333332,89L147.57381333333333,89L147.71409333333332,89L147.76085333333333,89L147.94789333333335,89L148.83633333333333,89L149.02337333333335,89L149.11689333333334,89L149.35069333333334,89L149.58449333333334,89L150.1923733333333,89L150.37941333333333,89L150.51969333333335,89L151.22109333333333,89L151.73545333333334,89L151.78221333333335,89L151.92249333333334,89L152.20305333333332,89L152.53037333333333,89L152.5771333333333,89L152.6238933333333,89L152.67065333333335,89L152.71741333333335,89L152.76417333333333,89L153.13825333333332,89L154.21373333333335,89L154.26049333333333,89L154.30725333333334,89L154.63457333333332,89L155.14893333333333,89L155.24245333333334,89L155.80357333333333,89L155.85033333333334,89L155.99061333333333,89L156.0841333333333,89L156.13089333333332,89L156.22441333333336,89L157.11285333333333,89L157.34665333333334,89L157.48693333333335,89L157.62721333333334,89L158.04805333333334,89L158.09481333333332,89L158.37537333333333,89L158.4688933333333,89L158.51565333333332,89L158.79621333333336,89L158.93649333333335,89L159.21705333333333,89L159.31057333333334,89L159.40409333333332,89L159.54437333333334,89L159.96521333333334,89L160.19901333333334,89L160.29253333333332,89L160.33929333333333,89L160.38605333333334,89L160.90041333333332,89L161.36801333333335,89L161.74209333333334,89L162.53701333333333,89L162.86433333333335,89L162.91109333333333,89L163.05137333333332,89L163.51897333333335,89L163.79953333333333,89L163.98657333333333,89L164.22037333333333,89L164.31389333333334,89L164.40741333333332,89L164.50093333333334,89L164.59445333333332,89L164.78149333333334,89L164.82825333333335,89L164.96853333333334,89L165.24909333333335,89L165.34261333333333,89L165.48289333333332,89L165.85697333333331,89L165.95049333333336,89L165.99725333333333,89L166.04401333333334,89L166.41809333333333,89L167.1194933333333,89L167.21301333333335,89L167.30653333333333,89L167.40005333333335,89L167.49357333333333,89L167.91441333333333,89L168.10145333333332,89L168.70933333333335,89L168.89637333333334,89L169.78481333333335,89L170.48621333333332,89L170.53297333333333,89L170.81353333333334,89L170.86029333333335,89L170.95381333333336,89L171.09409333333335,89L171.32789333333332,89L171.46817333333334,89L171.51493333333332,89L171.60845333333333,89L172.35661333333334,89L172.68393333333333,89L172.87097333333332,89L173.1982933333333,89L173.24505333333335,89L173.57237333333333,89L173.71265333333332,89L174.83489333333333,89L174.97517333333334,89L175.30249333333333,89L175.44277333333332,89L175.48953333333333,89L175.5830533333333,89L175.62981333333335,89L175.95713333333333,89L176.05065333333334,89L176.56501333333333,89L176.79881333333333,89L177.21965333333333,89L177.31317333333334,89L177.40669333333332,89L177.59373333333332,89L177.73401333333334,89L178.34189333333333,89L178.38865333333334,89L178.43541333333334,89L178.71597333333332,89L179.09005333333332,89L179.37061333333335,89L179.41737333333333,89L179.46413333333334,89L179.65117333333333,89L179.88497333333333,89L180.21229333333332,89L180.58637333333334,89L180.77341333333334,89L180.96045333333333,89L181.05397333333335,89L181.33453333333333,89L181.47481333333332,89L181.56833333333333,89L181.6618533333333,89L181.75537333333335,89L181.89565333333334,89L182.12945333333334,89L182.69057333333333,89L182.92437333333334,89L183.15817333333334,89L183.99985333333333,89L184.18689333333336,89L184.32717333333335,89L184.56097333333332,89L184.84153333333333,89L184.88829333333334,89L185.07533333333333,89L185.16885333333332,89L185.44941333333335,89L185.49617333333333,89L185.77673333333334,89L186.10405333333333,89L186.38461333333333,89L186.52489333333335,89L186.80545333333333,89L187.31981333333331,89L187.41333333333333,89L187.74065333333334,89L187.88093333333333,89L188.02121333333335,89L188.11473333333333,89L188.34853333333334,89L189.09669333333335,89L189.19021333333333,89L189.23697333333334,89L189.42401333333333,89L189.47077333333334,89L189.65781333333334,89L189.75133333333332,89L190.03189333333333,89L190.0786533333333,89L190.40597333333335,89L190.96709333333334,89L191.2008933333333,89L191.34117333333336,89L191.76201333333333,89L191.80877333333333,89L192.08933333333334,89L192.13609333333332,89L192.79073333333335,89L192.97777333333335,89L193.07129333333333,89L193.16481333333334,89L193.30509333333333,89L193.44537333333332,89L193.86621333333335,89L194.14677333333333,89L194.24029333333334,89L194.75465333333332,89L194.80141333333333,89L195.08197333333334,89L195.40929333333332,89L196.53153333333333,89L196.67181333333335,89L196.81209333333334,89L196.90561333333332,89L197.88757333333334,89L198.02785333333333,89L198.21489333333332,89L198.26165333333333,89L198.30841333333333,89L198.5889733333333,89L198.72925333333333,89L198.82277333333334,89L199.24361333333334,89L199.43065333333334,89L199.57093333333333,89L199.80473333333336,89L200.17881333333335,89L200.36585333333335,89L200.45937333333333,89L200.55289333333334,89L201.16077333333334,89L201.25429333333335,89L201.39457333333334,89L201.95569333333333,89L202.14273333333333,89L202.37653333333336,89L202.47005333333334,89L202.93765333333334,89L203.03117333333333,89L203.12469333333334,89L203.73257333333333,89L204.01313333333334,89L204.48073333333332,89L204.71453333333335,89L205.04185333333334,89L205.18213333333333,89L205.27565333333334,89L206.21085333333335,89L206.25761333333332,89L206.30437333333333,89L206.53817333333333,89L206.63169333333332,89L206.91225333333333,89L207.09929333333335,89L207.47337333333334,89L207.52013333333335,89L207.75393333333332,89L207.80069333333333,89L207.98773333333332,89L208.50209333333333,89L208.78265333333334,89L209.06321333333332,89L209.2034933333333,89L209.71785333333335,89L209.90489333333335,89L210.09193333333334,89L210.18545333333333,89L210.41925333333333,89L210.60629333333333,89L210.84009333333336,89L211.07389333333333,89L211.26093333333333,89L211.30769333333333,89L211.40121333333335,89L211.82205333333332,89L211.86881333333332,89L212.38317333333333,89L212.47669333333334,89L212.52345333333332,89L212.85077333333334,89L212.94429333333332,89L212.99105333333333,89L213.03781333333333,89L213.0845733333333,89L213.27161333333333,89L213.36513333333335,89L214.39385333333334,89L214.53413333333333,89L215.18877333333333,89L215.42257333333333,89L215.4693333333333,89L215.56285333333335,89L215.93693333333334,89L216.17073333333335,89L216.49805333333333,89L217.80733333333333,89L218.13465333333335,89L218.64901333333333,89L218.88281333333333,89L219.30365333333336,89L219.35041333333334,89L219.81801333333334,89L219.86477333333332,89L219.91153333333332,89L220.00505333333334,89L220.09857333333332,89L220.19209333333333,89L220.2388533333333,89L220.28561333333332,89L220.37913333333336,89L221.22081333333333,89L221.45461333333333,89L221.68841333333336,89L221.82869333333335,89L221.96897333333334,89L222.20277333333334,89L222.71713333333332,89L223.13797333333335,89L223.27825333333334,89L223.32501333333335,89L223.74585333333332,89L224.02641333333335,89L224.72781333333333,89L224.77457333333334,89L225.05513333333332,89L225.2421733333333,89L225.38245333333333,89L225.66301333333334,89L225.75653333333332,89L226.17737333333332,89L226.36441333333332,89L226.64497333333335,89L226.87877333333333,89L227.15933333333334,89L227.34637333333333,89L227.58017333333333,89L227.90749333333335,89L228.09453333333335,89L228.51537333333332,89L228.65565333333333,89L229.21677333333335,89L229.54409333333334,89L229.68437333333333,89L229.77789333333334,89L229.82465333333332,89L230.0116933333333,89L230.05845333333332,89L230.10521333333335,89L230.66633333333334,89L230.94689333333332,89L230.99365333333333,89L231.0871733333333,89L231.32097333333334,89L231.36773333333335,89L231.50801333333334,89L231.78857333333335,89L231.97561333333334,89L232.30293333333333,89L232.77053333333333,89L233.05109333333334,89L233.23813333333334,89L233.37841333333333,89L233.75249333333335,89L233.84601333333333,89L234.45389333333333,89L234.64093333333332,89L234.68769333333333,89L235.57613333333333,89L235.62289333333334,89L235.76317333333333,89L236.0904933333333,89L236.18401333333335,89L236.55809333333335,89L236.65161333333333,89L236.69837333333334,89L237.30625333333336,89L237.39977333333334,89L237.44653333333335,89L237.86737333333335,89L238.00765333333334,89L238.10117333333332,89L238.52201333333335,89L238.66229333333334,89L238.75581333333335,89L238.84933333333333,89L239.41045333333332,89L240.20537333333334,89L240.43917333333334,89L240.90677333333332,89L241.18733333333333,89L241.51465333333334,89L241.79521333333332,89L241.88873333333333,89L242.07577333333333,89L242.40309333333335,89L242.44985333333335,89L242.49661333333333,89L242.96421333333333,89L243.71237333333335,89L243.94617333333332,89L244.17997333333332,89L244.41377333333332,89L244.46053333333333,89L244.55405333333331,89L244.69433333333333,89L245.16193333333334,89L245.34897333333333,89L245.39573333333334,89L245.67629333333332,89L245.86333333333334,89L245.91009333333335,89L246.28417333333334,89L246.37769333333333,89L246.42445333333333,89L246.47121333333334,89L246.56473333333332,89L246.7050133333333,89L246.75177333333332,89L246.79853333333332,89L246.84529333333333,89L247.03233333333336,89L247.12585333333334,89L247.26613333333333,89L247.31289333333334,89L247.35965333333334,89L247.40641333333335,89L247.49993333333333,89L247.64021333333332,89L247.68697333333333,89L247.96753333333334,89L248.24809333333334,89L248.34161333333336,89L248.48189333333335,89L249.04301333333333,89L249.41709333333336,89L249.4638533333333,89L249.51061333333334,89L249.79117333333335,89L250.11849333333333,89L250.35229333333334,89L250.67961333333335,89L250.86665333333335,89L251.10045333333335,89L251.28749333333334,89L251.56805333333332,89L251.66157333333334,89L251.80185333333333,89L252.12917333333334,89L252.40973333333332,89L252.55001333333334,89L252.64353333333332,89L252.69029333333333,89L252.92409333333333,89" style="fill: none;" fill="none"></path></g></g></g></g></g></g><g transform="translate(50, 178)" clip-path="url(#clip_1)"><clipPath id="clip_1"><rect width="280" height="22"></rect></clipPath><g><g><line x1="0" y1="0" x2="0" y2="5" style="visibility: inherit;" fill="rgb(0, 0, 0)" stroke="rgb(204, 204, 204)" stroke-width="1px"></line><line x1="23.333333333333332" y1="0" x2="23.333333333333332" y2="5" style="visibility: inherit;" fill="rgb(0, 0, 0)" stroke="rgb(204, 204, 204)" stroke-width="1px"></line><line x1="46.666666666666664" y1="0" x2="46.666666666666664" y2="5" style="visibility: inherit;" fill="rgb(0, 0, 0)" stroke="rgb(204, 204, 204)" stroke-width="1px"></line><line x1="70" y1="0" x2="70" y2="5" style="visibility: inherit;" fill="rgb(0, 0, 0)" stroke="rgb(204, 204, 204)" stroke-width="1px"></line><line x1="93.33333333333333" y1="0" x2="93.33333333333333" y2="5" style="visibility: inherit;" fill="rgb(0, 0, 0)" stroke="rgb(204, 204, 204)" stroke-width="1px"></line><line x1="116.66666666666667" y1="0" x2="116.66666666666667" y2="5" style="visibility: inherit;" fill="rgb(0, 0, 0)" stroke="rgb(204, 204, 204)" stroke-width="1px"></line><line x1="140" y1="0" x2="140" y2="5" style="visibility: inherit;" fill="rgb(0, 0, 0)" stroke="rgb(204, 204, 204)" stroke-width="1px"></line><line x1="163.33333333333334" y1="0" x2="163.33333333333334" y2="5" style="visibility: inherit;" fill="rgb(0, 0, 0)" stroke="rgb(204, 204, 204)" stroke-width="1px"></line><line x1="186.66666666666666" y1="0" x2="186.66666666666666" y2="5" style="visibility: inherit;" fill="rgb(0, 0, 0)" stroke="rgb(204, 204, 204)" stroke-width="1px"></line><line x1="210" y1="0" x2="210" y2="5" style="visibility: inherit;" fill="rgb(0, 0, 0)" stroke="rgb(204, 204, 204)" stroke-width="1px"></line><line x1="233.33333333333334" y1="0" x2="233.33333333333334" y2="5" style="visibility: inherit;" fill="rgb(0, 0, 0)" stroke="rgb(204, 204, 204)" stroke-width="1px"></line><line x1="256.66666666666663" y1="0" x2="256.66666666666663" y2="5" style="visibility: inherit;" fill="rgb(0, 0, 0)" stroke="rgb(204, 204, 204)" stroke-width="1px"></line><line x1="280" y1="0" x2="280" y2="5" style="visibility: inherit;" fill="rgb(0, 0, 0)" stroke="rgb(204, 204, 204)" stroke-width="1px"></line></g><g transform="translate(0, 8)"><text x="0" y="0" dx="0em" dy="0.95em" style="text-anchor: middle; visibility: hidden; font-family: Roboto, sans-serif; font-size: 12px; font-weight: 200;" fill="rgb(50, 49, 63)" stroke="none" stroke-width="1px">-500k</text><text x="23.333333333333332" y="0" dx="0em" dy="0.95em" style="text-anchor: middle; visibility: inherit; font-family: Roboto, sans-serif; font-size: 12px; font-weight: 200;" fill="rgb(50, 49, 63)" stroke="none" stroke-width="1px">0</text><text x="46.666666666666664" y="0" dx="0em" dy="0.95em" style="text-anchor: middle; visibility: hidden; font-family: Roboto, sans-serif; font-size: 12px; font-weight: 200;" fill="rgb(50, 49, 63)" stroke="none" stroke-width="1px">500k</text><text x="70" y="0" dx="0em" dy="0.95em" style="text-anchor: middle; visibility: inherit; font-family: Roboto, sans-serif; font-size: 12px; font-weight: 200;" fill="rgb(50, 49, 63)" stroke="none" stroke-width="1px">1M</text><text x="93.33333333333333" y="0" dx="0em" dy="0.95em" style="text-anchor: middle; visibility: hidden; font-family: Roboto, sans-serif; font-size: 12px; font-weight: 200;" fill="rgb(50, 49, 63)" stroke="none" stroke-width="1px">1.5M</text><text x="116.66666666666667" y="0" dx="0em" dy="0.95em" style="text-anchor: middle; visibility: inherit; font-family: Roboto, sans-serif; font-size: 12px; font-weight: 200;" fill="rgb(50, 49, 63)" stroke="none" stroke-width="1px">2M</text><text x="140" y="0" dx="0em" dy="0.95em" style="text-anchor: middle; visibility: hidden; font-family: Roboto, sans-serif; font-size: 12px; font-weight: 200;" fill="rgb(50, 49, 63)" stroke="none" stroke-width="1px">2.5M</text><text x="163.33333333333334" y="0" dx="0em" dy="0.95em" style="text-anchor: middle; visibility: inherit; font-family: Roboto, sans-serif; font-size: 12px; font-weight: 200;" fill="rgb(50, 49, 63)" stroke="none" stroke-width="1px">3M</text><text x="186.66666666666666" y="0" dx="0em" dy="0.95em" style="text-anchor: middle; visibility: hidden; font-family: Roboto, sans-serif; font-size: 12px; font-weight: 200;" fill="rgb(50, 49, 63)" stroke="none" stroke-width="1px">3.5M</text><text x="210" y="0" dx="0em" dy="0.95em" style="text-anchor: middle; visibility: inherit; font-family: Roboto, sans-serif; font-size: 12px; font-weight: 200;" fill="rgb(50, 49, 63)" stroke="none" stroke-width="1px">4M</text><text x="233.33333333333334" y="0" dx="0em" dy="0.95em" style="text-anchor: middle; visibility: hidden; font-family: Roboto, sans-serif; font-size: 12px; font-weight: 200;" fill="rgb(50, 49, 63)" stroke="none" stroke-width="1px">4.5M</text><text x="256.66666666666663" y="0" dx="0em" dy="0.95em" style="text-anchor: middle; visibility: inherit; font-family: Roboto, sans-serif; font-size: 12px; font-weight: 200;" fill="rgb(50, 49, 63)" stroke="none" stroke-width="1px">5M</text><text x="280" y="0" dx="0em" dy="0.95em" style="text-anchor: middle; visibility: hidden; font-family: Roboto, sans-serif; font-size: 12px; font-weight: 200;" fill="rgb(50, 49, 63)" stroke="none" stroke-width="1px">5.5M</text></g><line x1="0" y1="0" x2="280" y2="0" fill="rgb(0, 0, 0)" stroke="rgb(204, 204, 204)" stroke-width="1px"></line></g></g></g></g></svg>