<svg viewBox="0 0 330 200" xmlns="http://www.w3.org/2000/svg"><g><g><g><g><g><line x1="51.5625" y1="178" x2="46.5625" y2="178" style="visibility: inherit;" fill="rgb(0, 0, 0)" stroke="rgb(204, 204, 204)" stroke-width="1px"></line><line x1="51.5625" y1="155.75" x2="46.5625" y2="155.75" style="visibility: inherit;" fill="rgb(0, 0, 0)" stroke="rgb(204, 204, 204)" stroke-width="1px"></line><line x1="51.5625" y1="133.5" x2="46.5625" y2="133.5" style="visibility: inherit;" fill="rgb(0, 0, 0)" stroke="rgb(204, 204, 204)" stroke-width="1px"></line><line x1="51.5625" y1="111.25" x2="46.5625" y2="111.25" style="visibility: inherit;" fill="rgb(0, 0, 0)" stroke="rgb(204, 204, 204)" stroke-width="1px"></line><line x1="51.5625" y1="89" x2="46.5625" y2="89" style="visibility: inherit;" fill="rgb(0, 0, 0)" stroke="rgb(204, 204, 204)" stroke-width="1px"></line><line x1="51.5625" y1="66.75" x2="46.5625" y2="66.75" style="visibility: inherit;" fill="rgb(0, 0, 0)" stroke="rgb(204, 204, 204)" stroke-width="1px"></line><line x1="51.5625" y1="44.5" x2="46.5625" y2="44.5" style="visibility: inherit;" fill="rgb(0, 0, 0)" stroke="rgb(204, 204, 204)" stroke-width="1px"></line><line x1="51.5625" y1="22.25" x2="46.5625" y2="22.25" style="visibility: inherit;" fill="rgb(0, 0, 0)" stroke="rgb(204, 204, 204)" stroke-width="1px"></line><line x1="51.5625" y1="0" x2="46.5625" y2="0" style="visibility: inherit;" fill="rgb(0, 0, 0)" stroke="rgb(204, 204, 204)" stroke-width="1px"></line></g><g transform="translate(41.5625, 0)"><text x="0" y="178" dx="0em" dy="0.3em" style="text-anchor: end; visibility: hidden; font-family: Roboto, sans-serif; font-size: 12px; font-weight: 200;" fill="rgb(50, 49, 63)" stroke="none" stroke-width="1px">-500</text><text x="0" y="155.75" dx="0em" dy="0.3em" style="text-anchor: end; visibility: inherit; font-family: Roboto, sans-serif; font-size: 12px; font-weight: 200;" fill="rgb(50, 49, 63)" stroke="none" stroke-width="1px">-450</text><text x="0" y="133.5" dx="0em" dy="0.3em" style="text-anchor: end; visibility: hidden; font-family: Roboto, sans-serif; font-size: 12px; font-weight: 200;" fill="rgb(50, 49, 63)" stroke="none" stroke-width="1px">-400</text><text x="0" y="111.25" dx="0em" dy="0.3em" style="text-anchor: end; visibility: inherit; font-family: Roboto, sans-serif; font-size: 12px; font-weight: 200;" fill="rgb(50, 49, 63)" stroke="none" stroke-width="1px">-350</text><text x="0" y="89" dx="0em" dy="0.3em" style="text-anchor: end; visibility: hidden; font-family: Roboto, sans-serif; font-size: 12px; font-weight: 200;" fill="rgb(50, 49, 63)" stroke="none" stroke-width="1px">-300</text><text x="0" y="66.75" dx="0em" dy="0.3em" style="text-anchor: end; visibility: inherit; font-family: Roboto, sans-serif; font-size: 12px; font-weight: 200;" fill="rgb(50, 49, 63)" stroke="none" stroke-width="1px">-250</text><text x="0" y="44.5" dx="0em" dy="0.3em" style="text-anchor: end; visibility: hidden; font-family: Roboto, sans-serif; font-size: 12px; font-weight: 200;" fill="rgb(50, 49, 63)" stroke="none" stroke-width="1px">-200</text><text x="0" y="22.25" dx="0em" dy="0.3em" style="text-anchor: end; visibility: inherit; font-family: Roboto, sans-serif; font-size: 12px; font-weight: 200;" fill="rgb(50, 49, 63)" stroke="none" stroke-width="1px">-150</text><text x="0" y="0" dx="0em" dy="0.3em" style="text-anchor: end; visibility: hidden; font-family: Roboto, sans-serif; font-size: 12px; font-weight: 200;" fill="rgb(50, 49, 63)" stroke="none" stroke-width="1px">-100</text></g><line x1="51.5625" y1="0" x2="51.5625" y2="178" fill="rgb(0, 0, 0)" stroke="rgb(204, 204, 204)" stroke-width="1px"></line></g></g><g transform="translate(51, 0)" clip-path="url(#clip_0)"><clipPath id="clip_0"><rect width="278" height="178"></rect></clipPath><g><g><g><line x1="0" y1="0" x2="0" y2="178" fill="rgb(0, 0, 0)" stroke="rgb(60, 60, 60)" stroke-width="1px" opacity="0.25"></line><line x1="23.203125" y1="0" x2="23.203125" y2="178" fill="rgb(0, 0, 0)" stroke="rgb(60, 60, 60)" stroke-width="1px" opacity="0.25"></line><line x1="46.40625" y1="0" x2="46.40625" y2="178" fill="rgb(0, 0, 0)" stroke="rgb(60, 60, 60)" stroke-width="1px" opacity="0.25"></line><line x1="69.609375" y1="0" x2="69.609375" y2="178" fill="rgb(0, 0, 0)" stroke="rgb(60, 60, 60)" stroke-width="1px" opacity="0.25"></line><line x1="92.8125" y1="0" x2="92.8125" y2="178" fill="rgb(0, 0, 0)" stroke="rgb(60, 60, 60)" stroke-width="1px" opacity="0.25"></line><line x1="116.015625" y1="0" x2="116.015625" y2="178" fill="rgb(0, 0, 0)" stroke="rgb(60, 60, 60)" stroke-width="1px" opacity="0.25"></line><line x1="139.21875" y1="0" x2="139.21875" y2="178" fill="rgb(0, 0, 0)" stroke="rgb(60, 60, 60)" stroke-width="1px" opacity="0.25"></line><line x1="162.421875" y1="0" x2="162.421875" y2="178" fill="rgb(0, 0, 0)" stroke="rgb(60, 60, 60)" stroke-width="1px" opacity="0.25"></line><line x1="185.625" y1="0" x2="185.625" y2="178" fill="rgb(0, 0, 0)" stroke="rgb(60, 60, 60)" stroke-width="1px" opacity="0.25"></line><line x1="208.828125" y1="0" x2="208.828125" y2="178" fill="rgb(0, 0, 0)" stroke="rgb(60, 60, 60)" stroke-width="1px" opacity="0.25"></line><line x1="232.03125" y1="0" x2="232.03125" y2="178" fill="rgb(0, 0, 0)" stroke="rgb(60, 60, 60)" stroke-width="1px" opacity="0.25"></line><line x1="255.234375" y1="0" x2="255.234375" y2="178" fill="rgb(0, 0, 0)" stroke="rgb(60, 60, 60)" stroke-width="1px" opacity="0.25"></line><line x1="278.4375" y1="0" x2="278.4375" y2="178" fill="rgb(0, 0, 0)" stroke="rgb(60, 60, 60)" stroke-width="1px" opacity="0.25"></line></g><g><line x1="0" y1="178" x2="278.4375" y2="178" fill="rgb(0, 0, 0)" stroke="rgb(60, 60, 60)" stroke-width="1px" opacity="0.25"></line><line x1="0" y1="155.75" x2="278.4375" y2="155.75" fill="rgb(0, 0, 0)" stroke="rgb(60, 60, 60)" stroke-width="1px" opacity="0.25"></line><line x1="0" y1="133.5" x2="278.4375" y2="133.5" fill="rgb(0, 0, 0)" stroke="rgb(60, 60, 60)" stroke-width="1px" opacity="0.25"></line><line x1="0" y1="111.25" x2="278.4375" y2="111.25" fill="rgb(0, 0, 0)" stroke="rgb(60, 60, 60)" stroke-width="1px" opacity="0.25"></line><line x1="0" y1="89" x2="278.4375" y2="89" fill="rgb(0, 0, 0)" stroke="rgb(60, 60, 60)" stroke-width="1px" opacity="0.25"></line><line x1="0" y1="66.75" x2="278.4375" y2="66.75" fill="rgb(0, 0, 0)" stroke="rgb(60, 60, 60)" stroke-width="1px" opacity="0.25"></line><line x1="0" y1="44.5" x2="278.4375" y2="44.5" fill="rgb(0, 0, 0)" stroke="rgb(60, 60, 60)" stroke-width="1px" opacity="0.25"></line><line x1="0" y1="22.25" x2="278.4375" y2="22.25" fill="rgb(0, 0, 0)" stroke="rgb(60, 60, 60)" stroke-width="1px" opacity="0.25"></line><line x1="0" y1="0" x2="278.4375" y2="0" fill="rgb(0, 0, 0)" stroke="rgb(60, 60, 60)" stroke-width="1px" opacity="0.25"></line></g></g></g><g><g><line x1="0" y1="-44.5" x2="278.4375" y2="-44.5" fill="rgb(0, 0, 0)" stroke="rgb(153, 153, 153)" stroke-width="1.5px"></line></g></g><g><g><line x1="23.203125" y1="0" x2="23.203125" y2="178" fill="rgb(0, 0, 0)" stroke="rgb(153, 153, 153)" stroke-width="1.5px"></line></g></g><g><g><g><g><g><path stroke="rgb(238, 51, 119)" stroke-width="2px" d="M34.03657125,179.34178341088256L34.315565625,175.00236281536252L34.5480609375,170.89135815356974L34.687558125,166.99119896887785L35.245546874999995,162.81161964413036L35.52454125,158.78509422711514L35.7570365625,154.95033434544646L36.08253,151.7605375854175L36.26852625,148.71575342940707L36.361524375,145.80631437029308L37.2450065625,143.0233935537454L37.477501874999994,140.3589153470727L37.5240009375,137.8054770869719L37.75649625,135.35628040918027L37.9889915625,133.00507081857285L38.0819896875,130.74608436865776L38.453982187499996,128.5740004934391L38.50048125,126.48390017906829L38.8259746875,124.4712287830884L39.0119709375,121.9220332103846L39.430462500000004,119.46390289108601L39.802455,117.19985620495667L40.54644,115.01390088054447L40.73243625,112.90206617040788L41.011430624999996,110.86064604359781L41.197426875,108.88617748758381L41.290425,106.9754209099959L43.243385624999995,104.96849912472403L43.2898846875,103.02431407837156L43.3828828125,101.13997022888691L43.6618771875,99.31274752161055L44.08036875,103.6398181924798L44.173366875,107.83957513793935L44.2198659375,111.91755373797986L44.359363125,115.87897306517323L44.638357500000005,119.72875815984258L45.0568490625,123.47156044896855L45.196346250000005,127.11177648682983L45.2428453125,130.65356517613046L45.7078359375,134.100863611439L46.49832,137.45740167182882L46.591318125,140.72671547642958L47.242305,138.87224029835943L47.4748003125,137.0647373777972L47.5677984375,135.30244525472153L47.707295625,133.58368945478622L48.079288125,131.90687718531615L48.358282499999994,130.27049241472454L48.451280624999995,128.6730913034006L48.5907778125,127.1132979571222L48.8697721875,125.58980047674375L49.102267499999996,124.10134728031667L49.567258125,122.44141410573712L49.8462525,120.81880661940984L50.125246875,119.23228063130887L50.311243125000004,117.56667957676254L50.5902375,115.93731197437387L50.683235625,114.34300900265734L50.729734687500006,112.78265157720703L50.82273281249999,111.25516773295595L50.915730937499994,109.75953017004306L50.96223,108.29475395148394L51.1947253125,106.89774035171061L51.241224374999994,105.52897162443293L51.659715937499996,104.18760042303919L51.9387103125,103.67721414930067L52.0317084375,103.17684387952347L52.26420375,102.68619788526746L52.4966990625,102.20499565841493L52.5896971875,101.73296737687069L53.1476859375,101.26985340050351L53.473179374999994,100.81540379535377L53.5196784375,100.36937788427322L53.6126765625,99.9315438223015L53.7056746875,99.50167819520217L53.75217375,99.07956563970095L53.845171875,98.66499848406711L54.403160625,98.25777640778084L54.542657812499996,97.85770611911035L54.7286540625,96.8239655704135L54.86815125,95.80806762137934L55.0076484375,94.80955476900583L55.193644687500004,93.82798501886339L55.24014375,92.86293123347416L55.426140000000004,91.91398051327273L55.6586353125,90.98073360826211L55.705134375,90.06280435860572L56.170125,89.15981916250642L56.356121249999994,88.27141646983476L56.4956184375,87.39724630006138L56.8676109375,86.53696978314656L57.0536071875,85.6902587221192L57.193104375,84.82902415916757L57.2396034375,83.98116017117549L57.2861025,83.14635820595105L57.6115959375,83.59657472043523L57.8905903125,84.03996008497653L57.9835884375,84.4766683859166L58.0300875,84.90684911000714L58.21608375,85.33064731476472L58.402080000000005,85.74820379130992L58.5415771875,86.15965522007562L58.58807625,86.5651343197448L58.634575312500004,86.96476998975999L58.8205715625,87.35868744672389L59.239063124999994,87.74700835499713L59.425059375,88.1298509517768L59.4715584375,88.50733016692826L59.5180575,88.87955773782149L59.611055625,89.24664231941875L59.657554687499996,89.60868958983542L59.9365490625,89.9658023515935L60.1225453125,90.31808062877047L60.169044375,90.6656217602354L60.2620425,91.00852048915553L60.355040625,91.34686904894728L60.4945378125,90.55903130594618L60.541036875,89.78151180506292L60.5875359375,89.0141095409835L60.634035000000004,88.25662869562377L60.7735321875,87.50887847187226L60.959528437500005,86.77067293368663L61.192023750000004,86.04183085226227L61.2385228125,85.32217555800617L61.285021875000005,84.61153479806117L61.564016249999995,84.22986124495824L62.3545003125,83.85290983177626L62.540496562499996,83.48059364763961L62.6334946875,83.11282790144787L62.865990000000004,82.74952985764074L63.9819675,82.3906187742838L64.074965625,82.03601584337922L64.3074609375,81.42461348279879L64.40045906249999,80.82046357851065L64.5864553125,80.22343814542478L64.6794534375,79.63341219225096L65.0514459375,79.06547754889233L65.3304403125,78.50412472446105L65.5164365625,77.94924023876793L65.84193,77.40071320545354L65.934928125,76.85843525829989L66.2139225,76.3223004800397L66.306920625,75.79220533356617L66.4464178125,75.26804859544774L66.492916875,74.74973129165919L66.585915,74.23715663544355L66.95790749999999,73.73022996722258L67.0044065625,73.22885869647648L67.14390374999999,72.73295224552008L67.4693971875,72.24242199510142L67.60889437499999,71.74717303838682L68.0273859375,71.25723605667389L68.2133821875,70.77252628384029L68.352879375,70.29296074775259L68.3993784375,69.81845822305613L68.81787,69.34893918544779L68.8643690625,68.88432576737789L69.0503653125,68.42454171512905L69.096864375,67.96951234722272L69.1433634375,67.51916451410507L69.1898625,67.0734265590673L69.37585875,66.5606498115403L69.42235781250001,66.05306929884294L69.561855,65.55060668512151L69.6083540625,65.05318520123595L69.9803465625,64.56072960578702L70.16634281249999,64.07316614730105L70.2593409375,63.59042252753209L70.3523390625,63.11242786584375L70.39883812500001,62.63911266463299L70.8173296875,62.170408775761864L70.95682687499999,61.706249367961505L71.328819375,61.26899618002237L71.42181749999999,60.83594225010333L71.60781374999999,60.407027588180625L71.6543128125,59.9821933414794L71.886808125,59.56138176765159L72.2123015625,59.15114077571287L72.72379124999999,58.744748242448324L72.816789375,58.342150467821156L73.09578375,57.943294746236944L73.23528093750001,57.54812934363005L73.3282790625,57.304391102646576L73.5142753125,57.06288755828676L73.70027156249999,56.82358823703298L73.79326968749999,56.58646321692281L74.025765,56.351483115126534L74.0722640625,56.11861907585905L74.118763125,55.88784275861538L74.490755625,55.65912632672014L74.76975,55.43244243618076L74.95574625,55.20776422483541L75.0022453125,54.98506530178662L75.048744375,54.764319737111634L75.46723593749999,54.545502051841275L75.69973125,54.32858720819891L76.35071812499999,53.91181187232718L76.44371625,53.498629985473386L77.37369749999999,53.283560174386224L77.42019656250001,53.07032906157464L77.6061928125,52.85891327336709L77.652691875,52.64928983058272L77.6991909375,52.441436140243816L78.53617406250001,52.235329987496165L78.768669375,52.03094952773158L79.09416281249999,51.82827327890636L79.140661875,51.62728011405022L79.41965625,51.42794925396048L79.512654375,51.23026026007554L79.74514968749999,51.03419302752291L79.8381478125,50.83972777833707L80.1171421875,50.513794881967414L80.9541253125,50.02747480906176L81.0471234375,49.54508086034973L81.1401215625,49.06656592135432L81.5121140625,48.59188362842268L81.65161124999999,48.12762442446337L82.02360374999999,47.75293097774428L82.1631009375,47.38120354692133L82.30259812499999,47.0124072368984L82.9070859375,46.64650769781235L83.232579375,46.2834711144252L83.51157375,45.948038661504825L83.69757,45.615210730925455L83.790568125,45.28495726976929L83.83706718750001,44.957248685697124L84.11606156250001,44.65633790260616L84.58105218749999,44.3584736010598L84.8135475,44.06287880246792L84.86004656249999,43.76952781366448L84.99954375,43.47839532784404L85.278538125,43.189456417326966L85.37153625,42.90268652648594L85.51103343749999,42.63309342065682L85.650530625,42.36550929528919L85.7900278125,42.144343493004456L85.836526875,41.924813823286115L86.67351000000001,41.706902306119225L87.3709959375,41.49059122396906L88.06848187499999,41.27588235556083L88.2079790625,41.06273911526914L88.25447812499999,40.85114454629681L88.34747625,40.64108193582757L88.3939753125,40.43253481065336L89.370455625,40.22548693289588L89.41695468750001,40.0199222958191L89.64945,39.81582511973101L89.7889471875,39.613179847972276L89.97494343749999,39.41197114298953L90.0679415625,39.212183882491466L90.2539378125,39.01380315568559L90.4399340625,38.81681425959344L90.62593031249999,38.62769153464485L91.788406875,38.439886628893674L91.8349059375,38.2533859092096L92.34639562499999,38.068175929857674L92.71838812499999,37.884243429289285L92.76488718750001,37.70157532699914L92.90438437499999,37.52015872044619L92.9973825,37.339980882037466L93.0438815625,37.16102925617272L93.462373125,36.93779357570226L93.7878665625,36.68833346761281L94.4853525,37.32577116750788L94.53185156250001,37.95892774507544L94.67134874999999,38.5878458711904L94.9968421875,39.212567651556355L95.5548309375,39.83313463603227L95.78732625,40.44958782777448L95.8338253125,41.06196769219918L95.92682343749999,41.67031416576881L96.252316875,42.274666664607L96.57781031249999,42.87506409294577L96.62430937500001,43.47154485140849L97.0428009375,43.78177801156972L97.22879718749999,43.736383823572325L97.3217953125,43.69128296032066L97.5077915625,43.64647261025046L97.926283125,43.45378979863247L98.2517765625,43.26659267761349L98.29827562499999,43.08059010752132L98.53077093750001,42.895770782844295L98.9027634375,42.71212354027656L99.321255,42.52963735648917L99.36775406250001,42.348301345942815L99.5537503125,42.17019483011762L99.78624562499999,41.99320402842754L99.9257428125,41.81731857759678L100.01874093750001,41.64252824228919L100.158238125,41.46882291314022L100.29773531250001,41.29619260482475L100.4837315625,41.124627454160645L100.85572406249999,40.954117718246444L101.22771656249999,40.784653772633746L101.4137128125,40.616226109532334L101.55321,40.44882533604794L101.5997090625,40.28244217245192L101.8787034375,40.11706745048204L101.9252025,39.95269211167392L102.297195,39.75263122706143L102.48319125,39.57085330540072L102.5296903125,39.390164294431074L102.57618937500001,39.21055452858717L102.6691875,39.03201445634964L102.8086846875,38.85453463856795L103.13417812499999,38.67810574681286L103.1806771875,38.5027185617577L103.5526696875,38.33822502392684L103.59916874999999,38.174697183523335L104.0176603125,38.01212664253925L104.2036565625,37.85050510005179L104.29665468750001,37.68982435082401L104.436151875,37.53007628393048L104.6686471875,37.371252881405695L104.71514625,37.21334621691632L104.808144375,37.0563484544559L104.8546434375,36.90025184706164L104.90114249999999,36.74504873555336L105.13363781250001,36.59073154729337L105.7846246875,36.437292794967945L106.20311625000001,36.23277760855236L106.482110625,36.02942021832327L106.80760406249999,35.8272109212223L106.85410312500001,35.62614012230078L107.2725946875,35.422225384163795L107.598088125,35.21945252023008L108.0165796875,35.01781206658138L108.15607687500001,34.81729466358254L108.4815703125,34.58116533357462L108.5745684375,34.34634409199852L108.76056468750001,34.20067737598463L109.2255553125,34.055813310152274L109.272054375,33.911745350513485L109.41155156250001,33.76846702401603L109.644046875,33.625971927584956L109.830043125,33.48425372717951L110.4345309375,33.34330615686514L110.52752906250001,33.2031230179007L110.574028125,33.06369817784004L110.8530225,32.92502556964811L110.89952156250001,32.787099190831114L110.946020625,32.64991310258054L111.03901875,32.51346142893082L111.690005625,32.34563464659061L112.52698875,32.18203360394877L112.80598312500001,32.01930165166067L113.1314765625,31.868572680095507L113.4104709375,31.71864033735578L113.5964671875,31.607136702587578L113.6894653125,31.49621939610023L113.7824634375,31.385883860395484L114.0614578125,31.281809641536555L114.200955,31.178278555734153L114.29395312499999,31.075286413787023L114.4334503125,30.97282906945872L114.5729475,30.87090241892837L114.7124446875,30.76950240024948L115.13093624999999,30.6686249928173L115.223934375,30.568266216844126L115.78192312499999,30.468422132842605L115.82842218750001,30.369088841116987L115.87492125,30.27026248126196L116.525908125,30.17193923166882L116.711904375,30.074115309039744L116.897900625,29.947080819197403L117.08389687500001,29.820688330283467L117.1303959375,29.69493305057548L117.269893125,29.56981023590983L117.36289125,29.445315189093332L117.455889375,29.321443259323196L117.827881875,29.198189841615708L117.92088000000001,29.07555037624344L118.0603771875,28.953520348180575L118.19987437500001,28.832095286556438L118.33937156249999,28.71127076411709L118.4323696875,28.59104239669457L118.57186687500001,28.47140584268411L118.7113640625,28.352356802528785L119.4553490625,29.63822016442411L119.78084249999999,30.917798463835982L120.0133378125,32.19113703300574L120.059836875,33.458280769350154L120.1063359375,34.71927414066222L120.1993340625,35.97416119023813L120.24583312499999,37.222985541930726L120.33883125,38.46579040513101L120.43182937499999,39.702618579679026L120.617825625,40.933512460704534L120.803821875,42.15851404339976L121.0363171875,43.37766492772461L121.12931531250001,44.59100632304525L121.45480875,45.79857905270804L121.547806875,47.00042355854907L121.59430593750001,48.19657990534059L121.82680125,49.38708778517547L122.0127975,50.57198652179076L122.2452928125,51.65369459212233L122.33829093749999,52.73032896281078L122.38479,53.8019247121713L122.84978062500001,53.612306728776105L122.8962796875,53.42357220704065L123.0822759375,53.235715080827234L123.221773125,53.04872933939426L123.3612703125,52.86260902676491L123.407769375,52.67734824110518L123.5472665625,52.49294113410991L123.593765625,52.309381910397086L123.68676375000001,52.12666482691072L123.9192590625,51.94478419233156L123.96575812500001,51.76373436649561L124.2912515625,51.57875945484794L124.33775062500001,51.39462582765921L124.52374687499999,51.21132785011482L124.616745,51.02885993759639L124.70974312499999,50.84721655512398L124.89573937499999,50.66639221680575L125.36072999999999,50.48638148529512L125.453728125,50.30717897125482L125.54672624999999,50.12877933282815L125.59322531250001,49.95117727511726L125.7792215625,49.77436754966817L125.91871875,49.59834495396286L126.29071125,49.41632840146232L126.4767075,49.235118747900785L127.127694375,49.05471072963513L127.313690625,48.87509912869113L127.40668875,48.696278772269295L127.6391840625,48.50956415655649L127.685683125,48.323668653973016L127.77868125,48.138586978598674L127.871679375,47.95431388988318L127.91817843749999,47.77084419216051L128.0111765625,47.58817273416942L128.1041746875,47.4062944085799L128.15067375,47.225204151526015L128.47616718749998,47.04489694214426L128.615664375,46.865367802118286L128.8481596875,46.69686773473707L129.4061484375,46.529091829039636L129.5921446875,46.36203551013084L129.731641875,46.19569424155753L130.1966325,46.03006352490556L130.475626875,45.86513889940207L130.5221259375,45.70091594152237L130.6151240625,45.537390264601996L130.75462124999999,45.374557518453585L130.8941184375,45.212413388988615L130.9406175,45.05095359784339L130.9871165625,44.89017390201015L131.4521071875,44.730070093472776L131.49860625,44.57063799884645L131.5451053125,44.41187347902226L131.6381034375,44.25377242881611L132.1960921875,44.0870556842323L132.24259125,43.92103290737741L132.2890903125,43.75569985680936L132.335589375,43.59105232556679L132.707581875,43.427086140819554L133.1260734375,43.263797163522874L133.9165575,43.11215257428297L134.567544375,42.961131876663494L134.753540625,42.81073130349509L134.8000396875,42.660947117864495L134.8930378125,42.51177561281135L135.2650303125,42.36321311102866L135.3580284375,42.21525596456683L135.5440246875,42.06790055454134L136.0090153125,41.90654163696286L136.3810078125,41.745836462461995L136.427506875,41.58578114607205L136.9389965625,41.45163889206992L137.3109890625,41.379281355960764L137.5899834375,41.30721476203688L137.6364825,41.23543739489894L137.729480625,41.163947552600476L137.82247875,41.09274354651637L138.05497406249998,41.021823701212796L138.93845625,40.95118635431859L139.217450625,40.880829856398265L139.2639496875,40.810752570826295L139.7289403125,40.740952873663176L139.82193843750002,40.59434091224183L139.961435625,40.44830756069702L140.0079346875,40.30284947317286L140.05443375,40.15796332954848L140.519424375,40.01364583519114L140.56592343749998,39.869893720711914L140.70542062500002,39.726703741724506L140.98441499999998,39.58407267860669L141.2169103125,39.44199733626422L141.30990843749998,39.30047454389796L141.4029065625,39.159501154773295L141.4959046875,39.0190740459921L141.91439625,38.9264819718304L142.1003925,38.834247404479655L142.28638875,38.74236832327459L142.37938687500002,38.65084272274151L142.5188840625,38.559668612455575L142.93737562500002,38.46884401690008L142.9838746875,38.378366975327L143.16987093749998,38.288235541619386L143.4488653125,38.198447784154816L143.54186343749998,38.10900178567106L144.0998521875,38.01989564313269L144.14635125,37.93112746759924L144.1928503125,37.84269538409518L144.239349375,37.75459753148101L144.3788465625,37.66683206232561L144.56484281250002,37.57939714278068L144.8438371875,37.45757893733979L144.89033625000002,37.33621793328993L145.0298334375,37.21531162193775L145.4018259375,37.07975955300532L145.63432125,36.94471358421651L145.7738184375,36.81017095368626L145.913315625,36.67612891957716L145.9598146875,36.54258475991787L146.2388090625,36.40953577242366L146.3318071875,36.27697927431858L146.6108015625,36.1591991678386L146.75029875,36.041853541210045L146.8897959375,35.924940053133L146.936295,35.80845637908908L147.12229125000002,35.69240021119127L148.0057734375,35.576769258035526L148.1917696875,35.49176767706021L148.28476781249998,35.40707647842491L148.517263125,35.32269400734762L148.74975843750002,35.23861862078114L149.35424625,35.30434174292411L149.54024249999998,35.369826487572176L149.67973968750002,35.43507411667163L150.377225625,35.50008588328287L150.8887153125,35.56486303165873L150.93521437500002,35.62940679732138L151.0747115625,35.693718407139116L151.3537059375,35.75779907940175L151.679199375,35.82165002389556L151.72569843749997,35.885272441977406L151.7721975,35.94866752664802L151.8186965625,36.011836462624494L151.865195625,36.07478042641199L151.9116946875,36.137500586375054L152.2836871875,36.09601497861786L153.353165625,36.08111545785156L153.39966468749998,36.066268655010916L153.44616375,36.05147429818928L153.77165718749998,36.03673211734548L154.28314687499997,36.02204184428753L154.376145,36.00740321265701L154.93413375,35.99281595791349L154.9806328125,35.978279817318864L155.12013000000002,35.96379452992197L155.213128125,35.892672504297394L155.2596271875,35.821798495074006L155.3526253125,35.75117124247481L156.2361075,35.68078949523367L156.46860281250002,35.581499167446836L156.6081,35.527271996901135L156.7475971875,35.47323242683241L157.16608875,35.460029507668864L157.21258781249998,35.44687212004185L157.4915821875,35.433760035378285L157.58458031249998,35.42069302663119L157.63107937499998,35.40767086826705L157.91007375,35.39469333625306L158.0495709375,35.38176020804493L158.3285653125,35.368871262574245L158.4215634375,35.35602628023648L158.51456156249998,35.34322504287874L158.65405875000002,35.330467333787865L159.0725503125,35.317752937678584L159.305045625,35.305081640681706L159.39804374999997,35.292453230332576L159.4445428125,35.2798674955595L159.491041875,35.26732422667237L160.0025315625,35.23531610410143L160.4675221875,35.203415649694136L160.8395146875,35.17162233699101L161.62999875,35.13993564295624L161.95549218750003,35.10835504794968L162.00199125,35.07688003569945L162.1414884375,35.045510093274714L162.6064790625,35.024447011224595L162.8854734375,35.00345402892168L163.07146968749998,34.98253080745502L163.303965,34.96167701009287L163.396963125,34.94089230226493L163.48996125,34.92017635154534L163.582959375,34.89952882763528L163.6759575,34.87894940234612L163.86195375,34.85843774958261L163.9084528125,34.83799354532606L164.04795,34.81761646761798L164.326944375,34.79730619654368L164.4199425,34.777062414216076L164.5594396875,34.75688480475965L164.93143218749998,34.73677305429453L165.02443031250002,34.646177417035034L165.070929375,34.55587660875608L165.1174284375,34.46586923756075L165.4894209375,34.37615392029083L166.18690687499998,34.286729282458126L166.279905,34.197593958176824L166.372903125,34.108746590096146L166.46590125,34.020185829333954L166.55889937499998,33.93191033541058L166.9773909375,33.84391877618356L167.1633871875,33.75620982778299L167.767875,33.63957793454969L167.95387125000002,33.5233195557399L168.8373534375,33.407432957856926L169.534839375,33.29725268313376L169.5813384375,33.187423738684544L169.8603328125,33.079268360280096L169.906831875,32.971456866770055L169.99983,33.05187126241459L170.13932718750002,33.13203070725605L170.37182249999998,33.21193637191371L170.51131968750002,33.291589419859676L170.55781875,33.37099100747308L170.650816875,33.450142284094426L171.394801875,33.52904439207866L171.72029531249999,33.94881866341963L171.9062915625,34.367275212457585L172.231785,34.78442002574998L172.2782840625,35.200259053689926L172.60377749999998,35.6147982107788L172.7432746875,36.028043375896516L173.85925218749998,36.44000039256933L173.99874937500002,36.85067506923539L174.32424281250002,37.033109593545305L174.46374,37.21497781631051L174.5102390625,37.39628227965784L174.60323718749999,37.5770255105408L174.64973625,37.75721002085272L174.9752296875,37.93683830753865L175.0682278125,38.11591285270647L175.5797175,38.294436123737086L175.8122128125,38.47241057339332L176.230704375,38.649838639928106L176.3237025,38.826722747191745L176.41670062499998,39.003065304737994L176.602696875,39.178868707929354L176.7421940625,39.35413533804153L177.346681875,39.415843494939594L177.3931809375,39.47736375305938L177.43968,39.53869693866156L177.71867437499998,39.47334592148434L178.09066687499998,39.40819308807905L178.36966125,39.34323757075221L178.41616031249998,39.27847850686118L178.462659375,39.21391503877726L178.648655625,39.14954631384957L178.8811509375,39.085371484368736L179.206644375,39.02138970753134L179.578636875,38.95760014540429L179.764633125,38.89400196488984L179.950629375,38.783183877747604L180.0436275,38.67269738307528L180.322621875,38.56254104984903L180.4621190625,38.45271345525518L180.5551171875,38.34321318463166L180.64811531249998,38.234038831409435L180.74111343750002,38.11821415292545L180.880610625,38.00273330806384L181.1131059375,37.88759482559411L181.67109468750002,37.79829547233723L181.90358999999998,37.709260168341785L182.1360853125,37.620487788550946L182.97306843750002,37.652724844108576L183.1590646875,37.68486695078528L183.29856187500002,37.71691451143219L183.53105718749998,37.748867926628236L183.8100515625,37.780727594696216L183.856550625,37.81249391171882L184.042546875,37.84416727155398L184.135545,37.87574806585086L184.414539375,37.90723668406511L184.46103843749998,37.93863351347426L184.7400328125,37.96993893919287L185.06552625,38.001153344187784L185.344520625,38.03227710929283L185.4840178125,38.063310613223905L185.76301218749998,38.09352044143862L186.274501875,38.123642882239785L186.3675,38.15367829924472L186.6929934375,38.18362705405956L186.832490625,38.21348950629335L186.9719878125,38.24326601357161L187.06498593749998,38.27295693155022L187.29748125,38.30256261392866L188.04146625,38.282018599201436L188.134464375,38.26153341310202L188.1809634375,38.24110681351338L188.36695968749999,38.2207385596428L188.41345875000002,38.200428412013025L188.599455,38.180176132453155L188.692453125,38.108498879601505L188.9714475,38.03702534209607L189.0179465625,37.96575468831443L189.34344000000002,37.89468609114632L189.90142875,37.82381872796287L190.1339240625,37.75315178058645L190.27342125,37.68268443526044L190.6919128125,37.61241588261965L190.738411875,37.54234531766036L191.01740625000002,37.47247193971128L191.0639053125,37.40279495240438L191.7148921875,37.311397893013165L191.90088843750002,37.22025709109556L191.9938865625,37.129371515849584L192.0868846875,37.038740141983595L192.22638187500002,36.94836194967965L192.3658790625,36.85823592455684L192.784370625,36.769407519297545L193.06336499999998,36.68082635593942L193.156363125,36.61096908698174L193.6678528125,36.602603222069504L193.714351875,36.594260558076954L193.99334625,36.58594100278184L194.31883968749997,36.57764446444895L195.4348171875,36.56937085182709L195.574314375,36.5611200741457L195.7138115625,36.55289204111187L195.8068096875,36.544686662906976L196.78329,36.57701402628922L196.9227871875,36.609252592661264L197.1087834375,36.641402711314505L197.1552825,36.673464729714745L197.2017815625,36.70543899351398L197.4807759375,36.73732584656228L197.62027312499998,36.769125630919575L197.71327125,36.800838686867095L198.1317628125,36.83246535291926L198.31775906250002,36.86400596583481L198.45725625,36.89546086062825L198.68975156250002,36.92683037058134L199.06174406250003,36.95811482725406L199.2477403125,36.98931456049575L199.3407384375,37.02042989845623L199.4337365625,36.964617895074056L200.038224375,36.90895651145661L200.1312225,36.8534451664556L200.2707196875,36.798083281901754L200.8287084375,36.707137767790606L201.0147046875,36.616436551207684L201.24720000000002,36.52597869433997L201.340198125,36.435763264157174L201.80518875,36.42601103095025L201.898186875,36.41628487354113L201.991185,36.406584692334604L202.5956728125,36.3969103882408L202.87466718750002,36.387261862672005L203.3396578125,36.377639017539465L203.572153125,36.3680417552502L203.8976465625,36.358469978703994L204.03714374999998,36.34892359129013L204.130141875,36.339402496884446L205.06012312500002,36.271655989201165L205.1066221875,36.20408856800705L205.15312125,36.136699557805954L205.3856165625,36.06948828648633L205.4786146875,36.011118688691L205.7576090625,35.96723172404043L205.9436053125,35.92346012082176L206.31559781250002,35.8810905035932L206.36209687500002,35.838832009493835L206.59459218749998,35.79668422299825L206.64109125,35.75464673064492L206.8270875,35.7127191210232L207.3385771875,35.67090098476076L207.61757156250002,35.629191914510926L207.8965659375,35.58759150494027L208.036063125,35.546099352715906L208.54755281250002,35.50471505649347L208.7335490625,35.463438216904656L208.91954531250002,35.37580551538512L209.0125434375,35.28839985503154L209.24503875,35.20122039822576L209.431035,35.11426631145362L209.6635303125,35.02753676527998L209.896025625,34.94103093432354L210.08202187499998,34.85474799723234L210.1285209375,34.76868713665897L210.22151906250002,34.68284753923636L210.640010625,34.59722839555344L210.6865096875,34.51182890013128L211.197999375,34.42664825139896L211.2909975,34.34168565167022L211.33749656249998,34.2569403071196L211.66299,34.16884976980586L211.755988125,34.08098399923041L211.8024871875,33.99334218004542L211.84898625000002,33.90592350083048L211.8954853125,33.818727154068995L212.0814815625,33.7256627693043L212.1744796875,33.632834567984304L213.1974590625,33.54033711207552L213.33695625,33.44807389871417L213.98794312500002,33.46444888390836L214.2204384375,33.48852895936086L214.26693749999998,33.512548248751095L214.359935625,33.536506969978774L214.731928125,33.560405339906616L214.96442343750002,33.5842435743664L215.28991687500002,33.60802188816511L216.59189062500002,33.63174049509108L216.9173840625,33.56082926483695L217.42887375,33.520510443984946L217.6613690625,33.48029254316481L218.079860625,33.44017520399188L218.12635968749998,33.4001580697712L218.5913503125,33.36024078548742L218.63784937499997,33.320422997794864L218.6843484375,33.28070435500785L218.77734656250001,33.24108450709083L218.8703446875,33.201563105648916L218.9633428125,33.162139803917945L219.00984187499998,33.12281425675533L219.05634093749998,33.08358612063021L219.14933906250002,33.04445505361434L219.9863221875,32.96042250815949L220.2188175,32.87659746971907L220.45131281250002,32.79297921242441L220.59081,32.70956701377724L220.7303071875,32.62636015462999L220.9628025,32.54335791916633L221.4742921875,32.46055959488214L221.89278375,32.37796447256608L222.0322809375,32.29557184628068L222.07878000000002,32.21338101334355L222.49727156249998,32.12130069981016L222.7762659375,32.02944544712993L223.473751875,32.01400610642227L223.5202509375,31.998604425610676L223.7992453125,31.98324027475236L223.9852415625,31.967913524499703L224.12473874999998,31.952624046096556L224.403733125,31.9373717113752L224.49673124999998,31.92215639275261L224.9152228125,31.906977963227405L225.1012190625,31.89183629637645L225.3802134375,31.876731266351573L225.61270875,31.861662747876213L225.891703125,31.79325441155744L226.077699375,31.725011099796895L226.31019468750003,31.656932250202015L226.635688125,31.589017302923367L226.82168437500002,31.521265700640342L227.2401759375,31.45367688854684L227.379673125,31.386250314337133L227.937661875,31.305974430689684L228.2631553125,31.22589085708998L228.4026525,31.145998943251787L228.49565062500002,31.066298041806505L228.5421496875,30.98678750828652L228.7281459375,30.90729823362041L228.774645,30.827998448181532L228.8211440625,30.748887514758152L229.37913281250002,30.666258293003498L229.65812718749999,30.583825467098826L229.70462625,30.501588378785968L229.797624375,30.419546372733638L230.0301196875,30.337698796521252L230.07661875,30.256045000622578L230.2161159375,30.174584338390076L230.4951103125,30.093316166038456L230.68110656250002,30.012239842629285L231.0066,29.931354730055077L231.471590625,29.847627043125936L231.750585,29.775840711028042L231.93658125000002,29.70422319054444L232.0760784375,29.63277392263071L232.4480709375,29.561492350698074L232.5410690625,29.490377920599965L233.14555687499998,29.41943008061855L233.331553125,29.34864828145146L233.3780521875,29.278031976198587L234.261534375,29.293718972391915L234.3080334375,29.30936936096907L234.447530625,29.32498326211786L234.77302406249999,29.34056079550284L234.86602218750002,29.356102080268045L235.2380146875,29.37160723503989L235.3310128125,29.387076377929873L235.377511875,29.402509626537622L235.9819996875,29.417907097953304L236.0749978125,29.433268908760684L236.121496875,29.448595175039713L236.5399884375,29.382379211854243L236.679485625,29.316316173050506L236.77248375,29.250405562426277L237.1909753125,29.184646885914283L237.33047249999998,29.119039651570645L237.42347062500002,29.05358336956363L237.51646875,28.98827755216203L238.0744575,28.927165764873223L238.8649415625,28.866194194199466L239.097436875,28.80536238852965L239.5624275,28.744669898181343L239.84142187499998,28.835817912252825L240.1669153125,28.926757567805787L240.4459096875,29.017489533106342L240.5389078125,29.108014473579086L240.7249040625,29.19833305182229L241.0503975,29.28844592762279L241.0968965625,29.378353757970856L241.14339562499998,29.46805719707516L241.60838625,29.557556896377392L242.35237125,29.646853504566838L242.5848665625,29.73594766759503L242.817361875,29.69562408476203L243.0498571875,29.65539175329019L243.09635625,29.571033192001615L243.189354375,29.48403421710924L243.32885156249998,29.397231582803414L243.7938421875,29.317564516998914L243.9798384375,29.26862802107931L244.0263375,29.219801666235814L244.305331875,29.17108510540087L244.491328125,29.122477992956373L244.5378271875,29.073979984726165L244.9098196875,29.025590737968415L245.00281781249998,28.977309911368298L245.049316875,28.929137165030326L245.09581593750002,28.88107216047132L245.1888140625,28.833114560612746L245.32831124999998,28.785264029773632L245.3748103125,28.737520233663204L245.421309375,28.689882839373812L245.4678084375,28.642351515373644L245.6538046875,28.594925931499834L245.7468028125,28.547605758951136L245.88629999999998,28.500390670281067L245.93279906249998,28.453280339390876L245.979298125,28.406274441522683L246.02579718750002,28.359372653252493L246.1187953125,28.312574652483395L246.25829249999998,28.265880118438773L246.3047915625,28.219288731655542L246.5837859375,28.1546577266495L246.8627803125,28.090169239931896L246.95577843750002,28.025822832789643L247.095275625,27.961618068298836L247.65326437500002,27.897554511315516L248.025256875,27.83363172846658L248.07175593749997,27.769849288141014L248.118255,27.70620676048047L248.397249375,27.642703717370903L248.7227428125,27.57725715317966L248.95523812500002,27.511953778965236L249.2807315625,27.446793157892238L249.4667278125,27.381774854890427L249.699223125,27.316898436645864L249.88521937500002,27.252163471592013L250.16421375,27.18756952990091L250.25721187500002,27.123116183474394L250.3967090625,27.05880300593556L250.7222025,26.994629572619928L251.00119687499998,26.930595460566863L251.14069406250002,26.86670024851116L251.2336921875,26.78616324642553L251.28019125,26.70580064382834L251.51268656250002,26.625611914941317" style="fill: none;" fill="none"></path></g></g></g></g><g opacity="0.2"><g><g><g><path stroke="rgb(238, 51, 119)" stroke-width="2px" d="M28.0381921875,187.34394073486328L28.410184687500003,166.75785614013674L28.549681875,166.75785614013674L28.5961809375,166.75785614013674L28.921674375,166.75785614013674L29.154169687499998,180.34749450683594L31.479122812499998,180.34749450683594L31.9441134375,101.68168518066406L32.17660875,101.68168518066406L32.269606875,101.68168518066406L32.3161059375,101.68168518066406L32.5021021875,101.68168518066406L32.8740946875,101.68168518066406L33.2460871875,80.27665283203125L33.29258625,80.27665283203125L33.5250815625,63.50229988098144L34.03657125,63.50229988098144L34.315565625,21.639842910766603L34.5480609375,21.639842910766603L34.687558125,21.639842910766603L35.245546874999995,3.0271828460693375L35.52454125,0.9833103942871189L35.7570365625,0.9833103942871189L36.08253,20.630485458374025L36.26852625,20.630485458374025L36.361524375,20.630485458374025L37.2450065625,20.630485458374025L37.477501874999994,20.630485458374025L37.5240009375,20.630485458374025L37.75649625,20.630485458374025L37.9889915625,20.630485458374025L38.0819896875,20.630485458374025L38.453982187499996,20.630485458374025L38.50048125,20.630485458374025L38.8259746875,20.630485458374025L39.0119709375,-12.014989814758312L46.591318125,379.86334228515625L47.242305,1.508166084289558L47.4748003125,1.508166084289558L47.5677984375,1.508166084289558L47.707295625,1.508166084289558L48.079288125,1.508166084289558L48.358282499999994,1.508166084289558L48.451280624999995,1.508166084289558L48.5907778125,1.508166084289558L48.8697721875,1.508166084289558L49.102267499999996,1.508166084289558L49.567258125,-15.79689567565919L51.659715937499996,-22.180100383758543L51.9387103125,55.1330256652832L52.0317084375,55.1330256652832L52.26420375,55.1330256652832L52.4966990625,55.1330256652832L52.5896971875,55.1330256652832L53.1476859375,55.1330256652832L53.473179374999994,55.1330256652832L53.5196784375,55.1330256652832L53.6126765625,55.1330256652832L53.7056746875,55.1330256652832L53.75217375,55.1330256652832L53.845171875,55.1330256652832L54.403160625,55.1330256652832L54.542657812499996,55.1330256652832L54.7286540625,-14.494532585144043L57.2861025,-17.832691230773914L57.6115959375,138.45082870483398L57.8905903125,138.45082870483398L57.9835884375,138.45082870483398L58.0300875,138.45082870483398L58.21608375,138.45082870483398L58.402080000000005,138.45082870483398L58.5415771875,138.45082870483398L58.58807625,138.45082870483398L58.634575312500004,138.45082870483398L58.8205715625,138.45082870483398L59.239063124999994,138.45082870483398L59.425059375,138.45082870483398L59.4715584375,138.45082870483398L59.5180575,138.45082870483398L59.611055625,138.45082870483398L59.657554687499996,138.45082870483398L59.9365490625,138.45082870483398L60.1225453125,138.45082870483398L60.169044375,138.45082870483398L60.2620425,138.45082870483398L60.355040625,138.45082870483398L60.4945378125,-19.79895044326781L61.285021875000005,-19.79895044326781L61.564016249999995,27.827479095458983L62.3545003125,27.827479095458983L62.540496562499996,27.827479095458983L62.6334946875,27.827479095458983L62.865990000000004,27.827479095458983L63.9819675,27.827479095458983L64.074965625,27.827479095458983L64.3074609375,-12.558457336425793L73.23528093750001,-19.176165351867663L73.3282790625,9.784632377624522L73.5142753125,9.784632377624522L73.70027156249999,9.784632377624522L73.79326968749999,9.784632377624522L74.025765,9.784632377624522L74.0722640625,9.784632377624522L74.118763125,9.784632377624522L74.490755625,9.784632377624522L74.76975,9.784632377624522L74.95574625,9.784632377624522L75.0022453125,9.784632377624522L75.048744375,9.784632377624522L75.46723593749999,9.784632377624522L75.69973125,9.784632377624522L76.35071812499999,-32.00472086906433L76.44371625,-32.00472086906433L77.37369749999999,8.606929855346678L77.42019656250001,8.606929855346678L77.6061928125,8.606929855346678L77.652691875,8.606929855346678L77.6991909375,8.606929855346678L78.53617406250001,8.606929855346678L78.768669375,8.606929855346678L79.09416281249999,8.606929855346678L79.140661875,8.606929855346678L79.41965625,8.606929855346678L79.512654375,8.606929855346678L79.74514968749999,8.606929855346678L79.8381478125,8.606929855346678L80.1171421875,-20.525181941986094L96.62430937500001,201.49881927490236L97.0428009375,126.20042739868164L97.22879718749999,31.643366317749027L97.3217953125,31.643366317749027L97.5077915625,31.643366317749027L97.926283125,-8.299990806579585L136.9389965625,-11.702262153625501L137.3109890625,12.663976440429694L137.5899834375,12.663976440429694L137.6364825,12.663976440429694L137.729480625,12.663976440429694L137.82247875,12.663976440429694L138.05497406249998,12.663976440429694L138.93845625,12.663976440429694L139.217450625,12.663976440429694L139.2639496875,12.663976440429694L139.7289403125,12.663976440429694L139.82193843750002,-18.467912502288808L141.4959046875,-18.467912502288808L141.91439625,0.9672448730468821L142.1003925,0.9672448730468821L142.28638875,0.9672448730468821L142.37938687500002,0.9672448730468821L142.5188840625,0.9672448730468821L142.93737562500002,0.9672448730468821L142.9838746875,0.9672448730468821L143.16987093749998,0.9672448730468821L143.4488653125,0.9672448730468821L143.54186343749998,0.9672448730468821L144.0998521875,0.9672448730468821L144.14635125,0.9672448730468821L144.1928503125,0.9672448730468821L144.239349375,0.9672448730468821L144.3788465625,0.9672448730468821L144.56484281250002,0.9672448730468821L144.8438371875,-13.622781143188496L148.74975843750002,-0.9332804870605611L149.35424625,63.61789558410645L149.54024249999998,63.61789558410645L149.67973968750002,63.61789558410645L150.377225625,63.61789558410645L150.8887153125,63.61789558410645L150.93521437500002,63.61789558410645L151.0747115625,63.61789558410645L151.3537059375,63.61789558410645L151.679199375,63.61789558410645L151.72569843749997,63.61789558410645L151.7721975,63.61789558410645L151.8186965625,63.61789558410645L151.865195625,63.61789558410645L151.9116946875,63.61789558410645L152.2836871875,17.89612152099609L153.353165625,29.53629104614258L153.39966468749998,29.53629104614258L153.44616375,29.53629104614258L153.77165718749998,29.53629104614258L154.28314687499997,29.53629104614258L154.376145,29.53629104614258L154.93413375,29.53629104614258L154.9806328125,29.53629104614258L155.12013000000002,29.53629104614258L155.213128125,4.294464569091803L155.2596271875,4.294464569091803L155.3526253125,4.294464569091803L156.2361075,4.294464569091803L156.46860281250002,-8.751349792480488L156.6081,11.28503391265869L156.7475971875,11.28503391265869L157.16608875,29.54310157775879L157.21258781249998,29.54310157775879L157.4915821875,29.54310157775879L157.58458031249998,29.54310157775879L157.63107937499998,29.54310157775879L157.91007375,29.54310157775879L158.0495709375,29.54310157775879L158.3285653125,29.54310157775879L158.4215634375,29.54310157775879L158.51456156249998,29.54310157775879L158.65405875000002,29.54310157775879L159.0725503125,29.54310157775879L159.305045625,29.54310157775879L159.39804374999997,29.54310157775879L159.4445428125,29.54310157775879L159.491041875,29.54310157775879L160.0025315625,20.610780410766612L160.4675221875,20.610780410766612L160.8395146875,20.610780410766612L161.62999875,20.610780410766612L161.95549218750003,20.610780410766612L162.00199125,20.610780410766612L162.1414884375,20.610780410766612L162.6064790625,25.321020126342773L162.8854734375,25.321020126342773L163.07146968749998,25.321020126342773L163.303965,25.321020126342773L163.396963125,25.321020126342773L163.48996125,25.321020126342773L163.582959375,25.321020126342773L163.6759575,25.321020126342773L163.86195375,25.321020126342773L163.9084528125,25.321020126342773L164.04795,25.321020126342773L164.326944375,25.321020126342773L164.4199425,25.321020126342773L164.5594396875,25.321020126342773L164.93143218749998,25.321020126342773L165.02443031250002,-7.81622917175292L169.906831875,-18.524255561828628L169.99983,71.50339797973633L170.13932718750002,71.50339797973633L170.37182249999998,71.50339797973633L170.51131968750002,71.50339797973633L170.55781875,71.50339797973633L170.650816875,71.50339797973633L171.394801875,71.50339797973633L171.72029531249999,236.1969500732422L173.99874937500002,236.1969500732422L174.32424281250002,125.68265045166015L174.46374,125.68265045166015L174.5102390625,125.68265045166015L174.60323718749999,125.68265045166015L174.64973625,125.68265045166015L174.9752296875,125.68265045166015L175.0682278125,125.68265045166015L175.5797175,125.68265045166015L175.8122128125,125.68265045166015L176.230704375,125.68265045166015L176.3237025,125.68265045166015L176.41670062499998,125.68265045166015L176.602696875,125.68265045166015L176.7421940625,125.68265045166015L177.346681875,69.84177764892578L177.3931809375,69.84177764892578L177.43968,69.84177764892578L177.71867437499998,7.152164993286136L178.09066687499998,7.152164993286136L178.36966125,7.152164993286136L178.41616031249998,7.152164993286136L178.462659375,7.152164993286136L178.648655625,7.152164993286136L178.8811509375,7.152164993286136L179.206644375,7.152164993286136L179.578636875,7.152164993286136L179.764633125,7.152164993286136L179.950629375,-16.581495399475102L182.1360853125,-7.215394973754883L182.97306843750002,53.95047836303711L183.1590646875,53.95047836303711L183.29856187500002,53.95047836303711L183.53105718749998,53.95047836303711L183.8100515625,53.95047836303711L183.856550625,53.95047836303711L184.042546875,53.95047836303711L184.135545,53.95047836303711L184.414539375,53.95047836303711L184.46103843749998,53.95047836303711L184.7400328125,53.95047836303711L185.06552625,53.95047836303711L185.344520625,53.95047836303711L185.4840178125,53.95047836303711L185.76301218749998,53.57373306274414L186.274501875,53.57373306274414L186.3675,53.57373306274414L186.6929934375,53.57373306274414L186.832490625,53.57373306274414L186.9719878125,53.57373306274414L187.06498593749998,53.57373306274414L187.29748125,53.57373306274414L188.04146625,27.675101089477536L188.134464375,27.675101089477536L188.1809634375,27.675101089477536L188.36695968749999,27.675101089477536L188.41345875000002,27.675101089477536L188.599455,27.675101089477536L188.692453125,0.8943117523193407L188.9714475,0.8943117523193407L189.0179465625,0.8943117523193407L189.34344000000002,0.8943117523193407L189.90142875,0.8943117523193407L190.1339240625,0.8943117523193407L190.27342125,0.8943117523193407L190.6919128125,0.8943117523193407L190.738411875,0.8943117523193407L191.01740625000002,0.8943117523193407L191.0639053125,0.8943117523193407L191.7148921875,-10.621115722656238L193.156363125,-0.2894441986084111L193.6678528125,32.1795989227295L193.714351875,32.1795989227295L193.99334625,32.1795989227295L194.31883968749997,32.1795989227295L195.4348171875,32.1795989227295L195.574314375,32.1795989227295L195.7138115625,32.1795989227295L195.8068096875,32.1795989227295L196.78329,53.78958549499512L196.9227871875,53.78958549499512L197.1087834375,53.78958549499512L197.1552825,53.78958549499512L197.2017815625,53.78958549499512L197.4807759375,53.78958549499512L197.62027312499998,53.78958549499512L197.71327125,53.78958549499512L198.1317628125,53.78958549499512L198.31775906250002,53.78958549499512L198.45725625,53.78958549499512L198.68975156250002,53.78958549499512L199.06174406250003,53.78958549499512L199.2477403125,53.78958549499512L199.3407384375,53.78958549499512L199.4337365625,6.859879112243645L200.038224375,6.859879112243645L200.1312225,6.859879112243645L200.2707196875,6.859879112243645L200.8287084375,-12.515400924682606L201.340198125,-12.515400924682606L201.80518875,31.129969024658212L201.898186875,31.129969024658212L201.991185,31.129969024658212L202.5956728125,31.129969024658212L202.87466718750002,31.129969024658212L203.3396578125,31.129969024658212L203.572153125,31.129969024658212L203.8976465625,31.129969024658212L204.03714374999998,31.129969024658212L204.130141875,31.129969024658212L205.06012312500002,-0.826220016479478L205.3856165625,-0.826220016479478L205.4786146875,3.9427885437011687L205.7576090625,11.835946846008296L205.9436053125,11.835946846008296L206.31559781250002,12.546078872680669L206.36209687500002,12.546078872680669L206.59459218749998,12.546078872680669L206.64109125,12.546078872680669L206.8270875,12.546078872680669L207.3385771875,12.546078872680669L207.61757156250002,12.546078872680669L207.8965659375,12.546078872680669L208.036063125,12.546078872680669L208.54755281250002,12.546078872680669L208.7335490625,12.546078872680669L208.91954531250002,-13.317733154296894L213.33695625,-18.708942852020275L213.98794312500002,42.72844017028808L214.2204384375,47.12203430175781L214.26693749999998,47.12203430175781L214.359935625,47.12203430175781L214.731928125,47.12203430175781L214.96442343750002,47.12203430175781L215.28991687500002,47.12203430175781L216.59189062500002,47.12203430175781L216.9173840625,-6.801446380615231L217.42887375,10.55393386840821L217.6613690625,10.55393386840821L218.079860625,10.55393386840821L218.12635968749998,10.55393386840821L218.5913503125,10.55393386840821L218.63784937499997,10.55393386840821L218.6843484375,10.55393386840821L218.77734656250001,10.55393386840821L218.8703446875,10.55393386840821L218.9633428125,10.55393386840821L219.00984187499998,10.55393386840821L219.05634093749998,10.55393386840821L219.14933906250002,10.55393386840821L219.9863221875,-15.372805976867683L222.7762659375,-21.229294490814194L223.473751875,23.055625457763668L223.5202509375,23.055625457763668L223.7992453125,23.055625457763668L223.9852415625,23.055625457763668L224.12473874999998,23.055625457763668L224.403733125,23.055625457763668L224.49673124999998,23.055625457763668L224.9152228125,23.055625457763668L225.1012190625,23.055625457763668L225.3802134375,23.055625457763668L225.61270875,23.055625457763668L225.891703125,-8.212917175292974L233.3780521875,-12.969299430847174L234.261534375,38.68500106811524L234.3080334375,38.68500106811524L234.447530625,38.68500106811524L234.77302406249999,38.68500106811524L234.86602218750002,38.68500106811524L235.2380146875,38.68500106811524L235.3310128125,38.68500106811524L235.377511875,38.68500106811524L235.9819996875,38.68500106811524L236.0749978125,38.68500106811524L236.121496875,38.68500106811524L236.5399884375,-10.549051742553697L239.5624275,-8.09507392883302L239.84142187499998,84.19749557495118L240.1669153125,84.19749557495118L240.4459096875,84.19749557495118L240.5389078125,84.19749557495118L240.7249040625,84.19749557495118L241.0503975,84.19749557495118L241.0968965625,84.19749557495118L241.14339562499998,84.19749557495118L241.60838625,84.19749557495118L242.35237125,84.19749557495118L242.5848665625,84.19749557495118L242.817361875,5.030959396362306L243.0498571875,5.030959396362306L243.09635625,-22.093756694793715" style="fill: none;" fill="none"></path></g></g></g></g></g></g><g transform="translate(51, 178)" clip-path="url(#clip_1)"><clipPath id="clip_1"><rect width="278" height="22"></rect></clipPath><g><g><line x1="0" y1="0" x2="0" y2="5" style="visibility: inherit;" fill="rgb(0, 0, 0)" stroke="rgb(204, 204, 204)" stroke-width="1px"></line><line x1="23.203125" y1="0" x2="23.203125" y2="5" style="visibility: inherit;" fill="rgb(0, 0, 0)" stroke="rgb(204, 204, 204)" stroke-width="1px"></line><line x1="46.40625" y1="0" x2="46.40625" y2="5" style="visibility: inherit;" fill="rgb(0, 0, 0)" stroke="rgb(204, 204, 204)" stroke-width="1px"></line><line x1="69.609375" y1="0" x2="69.609375" y2="5" style="visibility: inherit;" fill="rgb(0, 0, 0)" stroke="rgb(204, 204, 204)" stroke-width="1px"></line><line x1="92.8125" y1="0" x2="92.8125" y2="5" style="visibility: inherit;" fill="rgb(0, 0, 0)" stroke="rgb(204, 204, 204)" stroke-width="1px"></line><line x1="116.015625" y1="0" x2="116.015625" y2="5" style="visibility: inherit;" fill="rgb(0, 0, 0)" stroke="rgb(204, 204, 204)" stroke-width="1px"></line><line x1="139.21875" y1="0" x2="139.21875" y2="5" style="visibility: inherit;" fill="rgb(0, 0, 0)" stroke="rgb(204, 204, 204)" stroke-width="1px"></line><line x1="162.421875" y1="0" x2="162.421875" y2="5" style="visibility: inherit;" fill="rgb(0, 0, 0)" stroke="rgb(204, 204, 204)" stroke-width="1px"></line><line x1="185.625" y1="0" x2="185.625" y2="5" style="visibility: inherit;" fill="rgb(0, 0, 0)" stroke="rgb(204, 204, 204)" stroke-width="1px"></line><line x1="208.828125" y1="0" x2="208.828125" y2="5" style="visibility: inherit;" fill="rgb(0, 0, 0)" stroke="rgb(204, 204, 204)" stroke-width="1px"></line><line x1="232.03125" y1="0" x2="232.03125" y2="5" style="visibility: inherit;" fill="rgb(0, 0, 0)" stroke="rgb(204, 204, 204)" stroke-width="1px"></line><line x1="255.234375" y1="0" x2="255.234375" y2="5" style="visibility: inherit;" fill="rgb(0, 0, 0)" stroke="rgb(204, 204, 204)" stroke-width="1px"></line><line x1="278.4375" y1="0" x2="278.4375" y2="5" style="visibility: inherit;" fill="rgb(0, 0, 0)" stroke="rgb(204, 204, 204)" stroke-width="1px"></line></g><g transform="translate(0, 8)"><text x="0" y="0" dx="0em" dy="0.95em" style="text-anchor: middle; visibility: hidden; font-family: Roboto, sans-serif; font-size: 12px; font-weight: 200;" fill="rgb(50, 49, 63)" stroke="none" stroke-width="1px">-500k</text><text x="23.203125" y="0" dx="0em" dy="0.95em" style="text-anchor: middle; visibility: inherit; font-family: Roboto, sans-serif; font-size: 12px; font-weight: 200;" fill="rgb(50, 49, 63)" stroke="none" stroke-width="1px">0</text><text x="46.40625" y="0" dx="0em" dy="0.95em" style="text-anchor: middle; visibility: hidden; font-family: Roboto, sans-serif; font-size: 12px; font-weight: 200;" fill="rgb(50, 49, 63)" stroke="none" stroke-width="1px">500k</text><text x="69.609375" y="0" dx="0em" dy="0.95em" style="text-anchor: middle; visibility: inherit; font-family: Roboto, sans-serif; font-size: 12px; font-weight: 200;" fill="rgb(50, 49, 63)" stroke="none" stroke-width="1px">1M</text><text x="92.8125" y="0" dx="0em" dy="0.95em" style="text-anchor: middle; visibility: hidden; font-family: Roboto, sans-serif; font-size: 12px; font-weight: 200;" fill="rgb(50, 49, 63)" stroke="none" stroke-width="1px">1.5M</text><text x="116.015625" y="0" dx="0em" dy="0.95em" style="text-anchor: middle; visibility: inherit; font-family: Roboto, sans-serif; font-size: 12px; font-weight: 200;" fill="rgb(50, 49, 63)" stroke="none" stroke-width="1px">2M</text><text x="139.21875" y="0" dx="0em" dy="0.95em" style="text-anchor: middle; visibility: hidden; font-family: Roboto, sans-serif; font-size: 12px; font-weight: 200;" fill="rgb(50, 49, 63)" stroke="none" stroke-width="1px">2.5M</text><text x="162.421875" y="0" dx="0em" dy="0.95em" style="text-anchor: middle; visibility: inherit; font-family: Roboto, sans-serif; font-size: 12px; font-weight: 200;" fill="rgb(50, 49, 63)" stroke="none" stroke-width="1px">3M</text><text x="185.625" y="0" dx="0em" dy="0.95em" style="text-anchor: middle; visibility: hidden; font-family: Roboto, sans-serif; font-size: 12px; font-weight: 200;" fill="rgb(50, 49, 63)" stroke="none" stroke-width="1px">3.5M</text><text x="208.828125" y="0" dx="0em" dy="0.95em" style="text-anchor: middle; visibility: inherit; font-family: Roboto, sans-serif; font-size: 12px; font-weight: 200;" fill="rgb(50, 49, 63)" stroke="none" stroke-width="1px">4M</text><text x="232.03125" y="0" dx="0em" dy="0.95em" style="text-anchor: middle; visibility: hidden; font-family: Roboto, sans-serif; font-size: 12px; font-weight: 200;" fill="rgb(50, 49, 63)" stroke="none" stroke-width="1px">4.5M</text><text x="255.234375" y="0" dx="0em" dy="0.95em" style="text-anchor: middle; visibility: inherit; font-family: Roboto, sans-serif; font-size: 12px; font-weight: 200;" fill="rgb(50, 49, 63)" stroke="none" stroke-width="1px">5M</text><text x="278.4375" y="0" dx="0em" dy="0.95em" style="text-anchor: middle; visibility: hidden; font-family: Roboto, sans-serif; font-size: 12px; font-weight: 200;" fill="rgb(50, 49, 63)" stroke="none" stroke-width="1px">5.5M</text></g><line x1="0" y1="0" x2="278.4375" y2="0" fill="rgb(0, 0, 0)" stroke="rgb(204, 204, 204)" stroke-width="1px"></line></g></g></g></g></svg>