<svg viewBox="0 0 330 200" xmlns="http://www.w3.org/2000/svg"><g><g><g><g><g><line x1="41.171875" y1="178" x2="36.171875" y2="178" style="visibility: inherit;" fill="rgb(0, 0, 0)" stroke="rgb(204, 204, 204)" stroke-width="1px"></line><line x1="41.171875" y1="163.16666666666666" x2="36.171875" y2="163.16666666666666" style="visibility: inherit;" fill="rgb(0, 0, 0)" stroke="rgb(204, 204, 204)" stroke-width="1px"></line><line x1="41.171875" y1="148.33333333333334" x2="36.171875" y2="148.33333333333334" style="visibility: inherit;" fill="rgb(0, 0, 0)" stroke="rgb(204, 204, 204)" stroke-width="1px"></line><line x1="41.171875" y1="133.5" x2="36.171875" y2="133.5" style="visibility: inherit;" fill="rgb(0, 0, 0)" stroke="rgb(204, 204, 204)" stroke-width="1px"></line><line x1="41.171875" y1="118.66666666666669" x2="36.171875" y2="118.66666666666669" style="visibility: inherit;" fill="rgb(0, 0, 0)" stroke="rgb(204, 204, 204)" stroke-width="1px"></line><line x1="41.171875" y1="103.83333333333331" x2="36.171875" y2="103.83333333333331" style="visibility: inherit;" fill="rgb(0, 0, 0)" stroke="rgb(204, 204, 204)" stroke-width="1px"></line><line x1="41.171875" y1="89" x2="36.171875" y2="89" style="visibility: inherit;" fill="rgb(0, 0, 0)" stroke="rgb(204, 204, 204)" stroke-width="1px"></line><line x1="41.171875" y1="74.16666666666666" x2="36.171875" y2="74.16666666666666" style="visibility: inherit;" fill="rgb(0, 0, 0)" stroke="rgb(204, 204, 204)" stroke-width="1px"></line><line x1="41.171875" y1="59.33333333333334" x2="36.171875" y2="59.33333333333334" style="visibility: inherit;" fill="rgb(0, 0, 0)" stroke="rgb(204, 204, 204)" stroke-width="1px"></line><line x1="41.171875" y1="44.5" x2="36.171875" y2="44.5" style="visibility: inherit;" fill="rgb(0, 0, 0)" stroke="rgb(204, 204, 204)" stroke-width="1px"></line><line x1="41.171875" y1="29.66666666666666" x2="36.171875" y2="29.66666666666666" style="visibility: inherit;" fill="rgb(0, 0, 0)" stroke="rgb(204, 204, 204)" stroke-width="1px"></line><line x1="41.171875" y1="14.83333333333334" x2="36.171875" y2="14.83333333333334" style="visibility: inherit;" fill="rgb(0, 0, 0)" stroke="rgb(204, 204, 204)" stroke-width="1px"></line><line x1="41.171875" y1="0" x2="36.171875" y2="0" style="visibility: inherit;" fill="rgb(0, 0, 0)" stroke="rgb(204, 204, 204)" stroke-width="1px"></line></g><g transform="translate(31.171875, 0)"><text x="0" y="178" dx="0em" dy="0.3em" style="text-anchor: end; visibility: hidden; font-family: Roboto, sans-serif; font-size: 12px; font-weight: 200;" fill="rgb(50, 49, 63)" stroke="none" stroke-width="1px">-10</text><text x="0" y="163.16666666666666" dx="0em" dy="0.3em" style="text-anchor: end; visibility: inherit; font-family: Roboto, sans-serif; font-size: 12px; font-weight: 200;" fill="rgb(50, 49, 63)" stroke="none" stroke-width="1px">0</text><text x="0" y="148.33333333333334" dx="0em" dy="0.3em" style="text-anchor: end; visibility: hidden; font-family: Roboto, sans-serif; font-size: 12px; font-weight: 200;" fill="rgb(50, 49, 63)" stroke="none" stroke-width="1px">10</text><text x="0" y="133.5" dx="0em" dy="0.3em" style="text-anchor: end; visibility: inherit; font-family: Roboto, sans-serif; font-size: 12px; font-weight: 200;" fill="rgb(50, 49, 63)" stroke="none" stroke-width="1px">20</text><text x="0" y="118.66666666666669" dx="0em" dy="0.3em" style="text-anchor: end; visibility: hidden; font-family: Roboto, sans-serif; font-size: 12px; font-weight: 200;" fill="rgb(50, 49, 63)" stroke="none" stroke-width="1px">30</text><text x="0" y="103.83333333333331" dx="0em" dy="0.3em" style="text-anchor: end; visibility: inherit; font-family: Roboto, sans-serif; font-size: 12px; font-weight: 200;" fill="rgb(50, 49, 63)" stroke="none" stroke-width="1px">40</text><text x="0" y="89" dx="0em" dy="0.3em" style="text-anchor: end; visibility: hidden; font-family: Roboto, sans-serif; font-size: 12px; font-weight: 200;" fill="rgb(50, 49, 63)" stroke="none" stroke-width="1px">50</text><text x="0" y="74.16666666666666" dx="0em" dy="0.3em" style="text-anchor: end; visibility: inherit; font-family: Roboto, sans-serif; font-size: 12px; font-weight: 200;" fill="rgb(50, 49, 63)" stroke="none" stroke-width="1px">60</text><text x="0" y="59.33333333333334" dx="0em" dy="0.3em" style="text-anchor: end; visibility: hidden; font-family: Roboto, sans-serif; font-size: 12px; font-weight: 200;" fill="rgb(50, 49, 63)" stroke="none" stroke-width="1px">70</text><text x="0" y="44.5" dx="0em" dy="0.3em" style="text-anchor: end; visibility: inherit; font-family: Roboto, sans-serif; font-size: 12px; font-weight: 200;" fill="rgb(50, 49, 63)" stroke="none" stroke-width="1px">80</text><text x="0" y="29.66666666666666" dx="0em" dy="0.3em" style="text-anchor: end; visibility: hidden; font-family: Roboto, sans-serif; font-size: 12px; font-weight: 200;" fill="rgb(50, 49, 63)" stroke="none" stroke-width="1px">90</text><text x="0" y="14.83333333333334" dx="0em" dy="0.3em" style="text-anchor: end; visibility: inherit; font-family: Roboto, sans-serif; font-size: 12px; font-weight: 200;" fill="rgb(50, 49, 63)" stroke="none" stroke-width="1px">100</text><text x="0" y="0" dx="0em" dy="0.3em" style="text-anchor: end; visibility: hidden; font-family: Roboto, sans-serif; font-size: 12px; font-weight: 200;" fill="rgb(50, 49, 63)" stroke="none" stroke-width="1px">110</text></g><line x1="41.171875" y1="0" x2="41.171875" y2="178" fill="rgb(0, 0, 0)" stroke="rgb(204, 204, 204)" stroke-width="1px"></line></g></g><g transform="translate(41, 0)" clip-path="url(#clip_0)"><clipPath id="clip_0"><rect width="288" height="178"></rect></clipPath><g><g><g><line x1="0" y1="0" x2="0" y2="178" fill="rgb(0, 0, 0)" stroke="rgb(60, 60, 60)" stroke-width="1px" opacity="0.25"></line><line x1="24.069010416666664" y1="0" x2="24.069010416666664" y2="178" fill="rgb(0, 0, 0)" stroke="rgb(60, 60, 60)" stroke-width="1px" opacity="0.25"></line><line x1="48.13802083333333" y1="0" x2="48.13802083333333" y2="178" fill="rgb(0, 0, 0)" stroke="rgb(60, 60, 60)" stroke-width="1px" opacity="0.25"></line><line x1="72.20703125" y1="0" x2="72.20703125" y2="178" fill="rgb(0, 0, 0)" stroke="rgb(60, 60, 60)" stroke-width="1px" opacity="0.25"></line><line x1="96.27604166666666" y1="0" x2="96.27604166666666" y2="178" fill="rgb(0, 0, 0)" stroke="rgb(60, 60, 60)" stroke-width="1px" opacity="0.25"></line><line x1="120.34505208333334" y1="0" x2="120.34505208333334" y2="178" fill="rgb(0, 0, 0)" stroke="rgb(60, 60, 60)" stroke-width="1px" opacity="0.25"></line><line x1="144.4140625" y1="0" x2="144.4140625" y2="178" fill="rgb(0, 0, 0)" stroke="rgb(60, 60, 60)" stroke-width="1px" opacity="0.25"></line><line x1="168.48307291666669" y1="0" x2="168.48307291666669" y2="178" fill="rgb(0, 0, 0)" stroke="rgb(60, 60, 60)" stroke-width="1px" opacity="0.25"></line><line x1="192.55208333333331" y1="0" x2="192.55208333333331" y2="178" fill="rgb(0, 0, 0)" stroke="rgb(60, 60, 60)" stroke-width="1px" opacity="0.25"></line><line x1="216.62109375" y1="0" x2="216.62109375" y2="178" fill="rgb(0, 0, 0)" stroke="rgb(60, 60, 60)" stroke-width="1px" opacity="0.25"></line><line x1="240.69010416666669" y1="0" x2="240.69010416666669" y2="178" fill="rgb(0, 0, 0)" stroke="rgb(60, 60, 60)" stroke-width="1px" opacity="0.25"></line><line x1="264.7591145833333" y1="0" x2="264.7591145833333" y2="178" fill="rgb(0, 0, 0)" stroke="rgb(60, 60, 60)" stroke-width="1px" opacity="0.25"></line><line x1="288.828125" y1="0" x2="288.828125" y2="178" fill="rgb(0, 0, 0)" stroke="rgb(60, 60, 60)" stroke-width="1px" opacity="0.25"></line></g><g><line x1="0" y1="178" x2="288.828125" y2="178" fill="rgb(0, 0, 0)" stroke="rgb(60, 60, 60)" stroke-width="1px" opacity="0.25"></line><line x1="0" y1="163.16666666666666" x2="288.828125" y2="163.16666666666666" fill="rgb(0, 0, 0)" stroke="rgb(60, 60, 60)" stroke-width="1px" opacity="0.25"></line><line x1="0" y1="148.33333333333334" x2="288.828125" y2="148.33333333333334" fill="rgb(0, 0, 0)" stroke="rgb(60, 60, 60)" stroke-width="1px" opacity="0.25"></line><line x1="0" y1="133.5" x2="288.828125" y2="133.5" fill="rgb(0, 0, 0)" stroke="rgb(60, 60, 60)" stroke-width="1px" opacity="0.25"></line><line x1="0" y1="118.66666666666669" x2="288.828125" y2="118.66666666666669" fill="rgb(0, 0, 0)" stroke="rgb(60, 60, 60)" stroke-width="1px" opacity="0.25"></line><line x1="0" y1="103.83333333333331" x2="288.828125" y2="103.83333333333331" fill="rgb(0, 0, 0)" stroke="rgb(60, 60, 60)" stroke-width="1px" opacity="0.25"></line><line x1="0" y1="89" x2="288.828125" y2="89" fill="rgb(0, 0, 0)" stroke="rgb(60, 60, 60)" stroke-width="1px" opacity="0.25"></line><line x1="0" y1="74.16666666666666" x2="288.828125" y2="74.16666666666666" fill="rgb(0, 0, 0)" stroke="rgb(60, 60, 60)" stroke-width="1px" opacity="0.25"></line><line x1="0" y1="59.33333333333334" x2="288.828125" y2="59.33333333333334" fill="rgb(0, 0, 0)" stroke="rgb(60, 60, 60)" stroke-width="1px" opacity="0.25"></line><line x1="0" y1="44.5" x2="288.828125" y2="44.5" fill="rgb(0, 0, 0)" stroke="rgb(60, 60, 60)" stroke-width="1px" opacity="0.25"></line><line x1="0" y1="29.66666666666666" x2="288.828125" y2="29.66666666666666" fill="rgb(0, 0, 0)" stroke="rgb(60, 60, 60)" stroke-width="1px" opacity="0.25"></line><line x1="0" y1="14.83333333333334" x2="288.828125" y2="14.83333333333334" fill="rgb(0, 0, 0)" stroke="rgb(60, 60, 60)" stroke-width="1px" opacity="0.25"></line><line x1="0" y1="0" x2="288.828125" y2="0" fill="rgb(0, 0, 0)" stroke="rgb(60, 60, 60)" stroke-width="1px" opacity="0.25"></line></g></g></g><g><g><line x1="0" y1="163.16666666666666" x2="288.828125" y2="163.16666666666666" fill="rgb(0, 0, 0)" stroke="rgb(153, 153, 153)" stroke-width="1.5px"></line></g></g><g><g><line x1="24.069010416666664" y1="0" x2="24.069010416666664" y2="178" fill="rgb(0, 0, 0)" stroke="rgb(153, 153, 153)" stroke-width="1.5px"></line></g></g><g><g><g><g><g><path stroke="rgb(238, 51, 119)" stroke-width="2px" d="M24.791658385416667,163.16666666666666L25.41870424479167,163.16666666666666L25.708110026041666,142.13911324143086L26.479858776041667,131.62534179096056L26.576327369791667,125.3170831303941L26.72103026041667,121.11158086477606L26.81749885416667,118.10765368198201L27.106904635416665,115.85471092595064L27.251607526041667,114.10242445442309L27.97512197916667,112.70059738204473L28.119824869791668,111.55364987268119L28.360996354166666,110.59786203557415L28.746870729166666,111.37043049039626L29.084510807291668,112.03263058690078L29.47038518229167,112.60653599675467L29.61508807291667,111.626586359907L29.66332236979167,110.76192722368867L30.000962447916667,109.99334350465429L30.242133932291665,109.30566540008277L30.62800830729167,108.34117332199233L31.255054166666664,106.79535995165584L31.785631432291666,105.39007999290716L32.02680291666667,102.77548640893558L32.171505807291666,100.37878482011698L32.60561447916667,98.17382818699073L32.65384877604166,96.13849209155079L33.13619174479167,94.2539298073463L33.37736322916667,92.50398699741685L33.473831822916665,90.87473750920981L33.52206611979167,89.35411201051043L33.71500330729167,87.93159850229253L34.10087768229167,86.5979989854059L34.48675205729167,85.34523036968785L34.53498635416667,84.16616051675743L34.776157838541664,83.05447238976194L35.30673510416666,83.19198594362388L35.596140885416666,83.32206555116791L35.83731236979167,83.44529810289835L35.98201526041667,84.23160048096615L36.56082682291667,83.91688725037834L36.85023260416666,83.6175278823773L37.091404088541665,83.33242567247675L37.429044166666664,83.06058593521196L37.62198135416667,82.80110441106886L37.71844994791667,82.55315721915751L38.63490158854167,82.3159921204028L38.87607307291666,82.0889208960771L38.92430736979166,81.87131267901253L39.165478854166665,81.66258810140182L39.40665033854167,81.95045555945156L39.50311893229166,82.22703179055561L39.88899330729166,82.49296821167606L39.937227604166665,82.74886707623078L40.274867682291664,82.99528602627453L40.46780486979167,83.21944793124656L40.901913541666666,83.43560207059282L41.28778791666667,83.64416990568415L42.059536666666666,83.84554383158941L42.25247385416667,83.96061727923983L42.54187963541666,84.07185385043894L42.73481682291666,84.17944224404172L42.83128541666667,84.28355898478293L44.857125885416664,84.26646042901905L44.905360182291666,84.24989637720887L45.00182877604166,84.23384215993669L45.291234557291666,84.21827460290349L45.72534322916667,84.20317191534997L45.821811822916665,84.1885135883263L45.87004611979167,84.17428030180731L46.014749010416665,84.16045383976915L46.30415479166667,84.14701701244287L46.73826346354167,84.5602570987574L46.88296635416667,84.96217071146926L46.93120065104167,85.35321703200992L47.41354361979166,84.88887587650811L48.23352666666666,84.43675988170948L48.329995260416666,83.99639274256727L49.00527541666667,83.56732257993326L49.24644690104167,83.14912039461517L49.34291549479167,82.74137863737917L49.48761838541667,82.34370988487859L49.87349276041666,81.95574561246545L50.162898541666664,81.84099762537855L50.25936713541667,81.72898328413737L50.404070026041666,81.61960610709835L50.69347580729166,81.35154110472538L50.934647291666664,81.08964227340402L51.41699026041667,80.81190261038103L51.706396041666665,80.38967965781819L51.99580182291667,79.97684556660515L52.18873901041667,79.57309081373144L52.47814479166667,79.17811933370795L52.57461338541667,78.79164779504379L52.62284768229167,78.41340492290608L52.71931627604166,78.04313086455893L52.81578486979166,77.68057659446285L52.864019166666665,77.32550335617134L53.10519065104167,76.97768213839798L53.15342494791666,76.63689318283664L53.587533619791664,76.30292552151228L53.87693940104167,75.97557654161585L53.973407994791664,75.65465157593785L54.214579479166666,75.33996351715919L54.45575096354167,75.03133245439533L54.55221955729167,74.72858533050831L55.13103111979167,74.64356188095235L55.46867119791666,74.56012912994294L55.516905494791665,74.47824289137836L55.61337408854166,74.39786060066461L55.709842682291665,74.31894124101105L55.75807697916667,74.24144527370909L55.85454557291666,74.16533457214693L56.433357135416664,74.09057235932664L56.57806002604167,74.01712314867127L56.77099721354167,73.94495268791931L56.91570010416667,73.8740279059214L57.060402994791666,73.80431686216534L57.253340182291666,73.78498932786127L57.30157447916667,73.76598700006984L57.49451166666667,73.74730174861939L57.73568315104167,73.72892571210434L57.78391744791667,73.71085128686975L58.26626041666666,73.69307111653431L58.45919760416666,73.67557808201897L58.60390049479167,73.65836529205532L58.98977486979167,73.94602365446343L59.18271205729167,74.22914601391294L59.327414947916665,74.45132352029768L59.37564924479167,74.67005174453412L59.42388354166667,74.88541028556031L59.76152361979167,75.09747631181327L60.05092940104167,75.30632465329323L60.14739799479167,75.51202788947536L60.19563229166667,75.714656433284L60.38856947916667,75.91427861133536L60.58150666666667,76.11096074064048L60.72620955729167,76.30476720194804L60.77444385416667,76.23203053561767L60.82267815104167,76.1603420900052L61.015615338541664,76.0896794031927L61.449724010416666,76.02002065047952L61.64266119791667,75.95134462194504L61.69089549479166,75.88363070095242L61.73912979166666,75.81685884354934L61.83559838541667,75.75100955871945L61.88383268229167,75.6860638894466L62.173238463541665,75.62200339455175L62.366175651041665,75.37986313088088L62.41440994791667,75.14097896838365L62.51087854166667,74.90528578486267L62.60734713541667,74.67272018321054L62.752050026041665,74.44322043466362L62.80028432291667,74.21672642428115L62.84851861979167,73.99317959854814L62.89675291666667,73.77252291500699L63.04145580729167,73.5547007938261L63.23439299479167,73.33965907121942L63.47556447916667,73.12734495463488L63.52379877604167,72.91770697963376L63.57203307291667,72.71069496838726L63.861438854166664,72.50625998971967L64.68142190104166,72.3043543206314L64.87435908854167,72.10493140923825L64.97082768229167,71.90794583906684L65.21199916666667,71.89864893970353L66.36962229166667,71.88946430389495L66.46609088541668,71.88038991492216L66.70726236979166,71.8714238040834L66.80373096354167,71.86256404927329L66.99666815104166,71.85380877361236L67.09313674479166,71.84515614412484L67.47901111979166,71.83660437046214L67.76841690104166,72.05460339011834L67.96135408854167,72.27009045750074L68.29899416666667,72.48310863486292L68.39546276041666,72.693700005772L68.68486854166667,72.53580720702901L68.78133713541666,72.37969309231258L68.92604002604168,72.22532785111312L68.97427432291667,72.07268233537602L69.07074291666667,71.9217280412017L69.45661729166666,71.77243709114875L69.50485158854167,71.62478221711817L69.64955447916667,71.47873674379454L69.98719455729166,71.33427457262547L70.13189744791667,71.19137016631662L70.56600611979167,71.04999853382529L70.75894330729167,70.91013521583191L70.90364619791667,70.77175627067389L70.95188049479167,70.63483826072263L71.38598916666668,70.49935823918914L71.43422346354167,70.41096762866555L71.62716065104166,70.32349578324167L71.67539494791667,70.2369284951024L71.72362924479167,70.15125184787459L71.77186354166668,70.06645220919224L71.96480072916667,69.98251622348779L72.01303502604166,69.89943080500292L72.15773791666666,69.81718313100885L72.20597221354166,69.73576063523099L72.59184658854167,69.6551510014693L72.78478377604166,69.57534215740834L72.88125236979167,69.49632226861023L72.97772096354167,69.41807973268445L73.02595526041668,69.34060317362808L73.46006393229166,69.26388143633089L73.60476682291666,69.1879035812398L73.99064119791666,69.1126588791772L74.08710979166666,69.03813680630823L74.28004697916666,69.09545271680479L74.32828127604166,69.15222336099461L74.56945276041667,69.32731177316637L74.90709283854167,69.50075003288948L75.43767010416667,69.74027726224433L75.53413869791666,69.97756786580496L75.82354447916667,70.20288045827044L75.96824736979167,70.32334142802051L76.06471596354167,70.44269293370516L76.25765315104168,70.56095017364919L76.45059033854166,70.62119547982539L76.54705893229166,70.68089339022367L76.78823041666666,70.59576459942119L76.83646471354166,70.51140241754838L76.88469901041667,70.42779657738312L77.27057338541667,70.34493699423088L77.55997916666666,70.26281376188692L77.75291635416667,70.18141714870437L77.80115065104167,70.10073759376657L77.84938494791668,70.02076570315901L78.28349361979167,69.94149224633918L78.52466510416667,69.86290815260008L79.19994526041665,69.78500450762559L79.29641385416666,69.70777255013466L80.26109979166667,69.79132652362925L80.30933408854168,69.87416616838468L80.50227127604167,70.04896145778093L80.55050557291666,70.22227486382492L80.59873986979167,70.3941250660397L81.46695721354168,70.32960616303762L81.70812869791666,70.26436130854131L82.04576877604165,70.19966049330826L82.09400307291666,70.13549697292623L82.38340885416667,70.07186411400144L82.47987744791666,70.00875539188382L82.72104893229167,69.9461643884477L82.81751752604166,69.88408478992673L83.10692330729167,69.82251038480118L83.97514065104167,69.76143506173666L84.07160924479166,69.7008528075725L84.16807783854166,69.64075770535773L84.55395221354166,69.69882439242909L84.69865510416666,69.7564278231033L85.08452947916666,69.81357349066002L85.22923236979167,69.87026680187091L85.37393526041666,69.92651307869603L86.00098111979167,70.09639665507389L86.33862119791667,70.26495098912928L86.62802697916666,70.43219153753563L86.82096416666667,70.59777506293794L86.91743276041666,70.7620777771944L86.96566705729167,70.92511440263873L87.25507283854168,71.08461052758524L87.73741580729165,71.24288684368555L87.97858729166667,71.39995721276522L88.02682158854167,71.55583528741579L88.17152447916666,71.71053451492831L88.46093026041667,71.8640681411375L88.55739885416666,72.01644921418041L88.70210174479166,72.16769058817098L88.84680463541667,72.3178049267932L88.99150752604166,72.46680470681477L89.03974182291667,72.61470222152235L89.90795916666667,72.76150958408296L90.63147361979166,72.91535603500319L91.35498807291667,73.06807662999228L91.49969096354167,73.21968360699597L91.54792526041666,73.37018902724006L91.64439385416667,73.51960477840893L91.69262815104167,73.66794257775554L92.70554838541666,73.81837145219642L92.75378268229167,73.96772269073716L92.99495416666667,74.11600775797874L93.13965705729166,74.2632379564797L93.33259424479166,74.40942442960893L93.42906283854165,74.55457816433864L93.62200002604166,74.69870999397818L93.81493721354165,74.84183060085158L94.00787440104166,75.01328489802776L95.21373182291667,75.0174336108752L95.26196611979167,75.02155351354081L95.79254338541666,74.92086247408783L96.17841776041666,74.8208659472472L96.22665205729167,74.72155682168676L96.37135494791666,74.62292808282633L96.46782354166666,74.5249728111976L96.51605783854167,74.42768418083779L96.95016651041666,74.33105545771522L97.28780658854167,74.23507999818703L98.01132104166666,74.1397512474876L98.05955533854167,74.04506273824732L98.20425822916667,73.95100808904061L98.54189830729166,73.85758100296334L99.12070986979165,73.89287915779734L99.36188135416667,73.92794331808041L99.41011565104166,73.9627757855052L99.50658424479167,73.99737883167741L99.84422432291667,74.03175469860551L100.18186440104166,74.06590559918126L100.23009869791667,74.09983371765098L100.66420736979167,74.13354121007755L100.85714455729166,74.1670302047934L100.95361315104167,74.20030280284499L101.14655033854167,74.23336107842869L101.58065901041665,74.26620707931838L101.91829908854167,74.29884282728472L101.96653338541667,74.39768646606565L102.20770486979167,74.55796480121495L102.59357924479167,74.66707926972177L103.02768791666666,74.77550389225013L103.07592221354167,74.88324513647059L103.26885940104167,74.89486678052472L103.51003088541667,74.90641562301697L103.65473377604167,74.91789234016227L103.75120236979167,74.92929759982749L103.89590526041667,74.94063206165963L104.04060815104168,74.95189637721211L104.23354533854166,74.96309119006817L104.61941971354166,74.97421713596285L105.00529408854166,74.98527484290187L105.19823127604167,74.99626493127883L105.34293416666667,75.00537743289927L105.39116846354166,75.0144345406791L105.68057424479166,75.012656080039L105.72880854166667,75.01088836689158L106.11468291666667,74.986350027022L106.30762010416667,74.9619591093811L106.35585440104167,74.93771430151378L106.40408869791668,74.91361430649688L106.50055729166667,74.88965784270977L106.64526018229166,74.86584364360962L106.98290026041666,74.84217045750998L107.03113455729167,74.81863704736381L107.41700893229167,74.79524219055004L107.46524322916666,74.77198467866384L107.89935190104167,74.74886331731061L108.09228908854168,74.72587692590353L108.18875768229167,74.70302433746458L108.33346057291666,74.68030439842906L108.57463205729167,74.65771596845342L108.62286635416666,74.66234075670991L108.71933494791666,74.6669389249409L108.76756924479167,74.67151070004039L108.81580354166667,74.67605630633122L109.05697502604167,74.68057596560176L109.73225518229165,74.6850698971412L110.16636385416666,74.68953831777507L110.45576963541667,74.74385050715263L110.79340971354166,74.79785606665389L110.84164401041667,74.85155755887415L111.27575268229167,74.90495751793586L111.61339276041667,74.95805844988328L112.04750143229167,75.0108628330701L112.19220432291668,75.06337311854104L112.52984440104167,75.21123767800442L112.62631299479166,75.35828311042548L112.81925018229167,75.50790878428249L113.30159315104167,75.63192030614658L113.34982744791667,75.75525031779586L113.49453033854167,75.87790436051517L113.73570182291667,75.79880316850785L113.92863901041666,75.72013324328255L114.55568486979168,75.64189110652387L114.65215346354168,75.56407331721641L114.70038776041666,75.48667647114627L114.98979354166667,75.40969720041008L115.03802783854168,75.33313217293248L115.08626213541666,75.25697809199053L115.18273072916666,75.18123169574655L115.85801088541668,75.10588975678765L116.72622822916667,75.04005741744783L117.01563401041668,74.97457479624038L117.35327408854167,74.90943914637403L117.64267986979166,74.82349845489703L117.83561705729167,74.73801082046296L117.93208565104166,74.65297271234105L118.02855424479166,74.56838063638739L118.31796002604166,74.48423113457227L118.46266291666666,74.40052078451468L118.55913151041666,74.31724619902417L118.70383440104168,74.23440402564968L118.84853729166666,74.15199094623527L118.99324018229167,74.07000367648274L119.42734885416667,73.98843896552076L119.52381744791666,73.90729359548088L120.10262901041666,73.82656438107954L120.15086330729167,73.74624816920682L120.19909760416667,73.66634183852103L120.87437776041666,73.64510142135529L121.06731494791667,73.6036470002235L121.26025213541666,73.56240258952236L121.45318932291667,73.52136661788366L121.50142361979167,73.48053752957418L121.64612651041666,73.43991378430187L121.74259510416667,73.39949385702438L121.83906369791667,73.35927623776107L122.22493807291667,73.31925943140743L122.32140666666668,73.2794419575524L122.46610955729166,73.23982235029813L122.61081244791667,73.20039915808275L122.75551533854167,73.16117094350535L122.85198393229166,73.122136283154L122.99668682291667,73.08329376743558L123.14138971354167,73.04464200040884L123.91313846354167,73.07007578035525L124.25077854166666,73.09538524468546L124.49195002604166,73.07166567015268L124.54018432291666,73.04806149210786L124.58841861979167,73.02457188221119L124.68488721354167,73.00119602003019L124.73312151041667,72.9779330929458L124.82959010416666,72.95478229605948L124.92605869791666,72.93174283210168L125.11899588541667,72.90881391134182L125.31193307291666,72.88599475149933L125.55310455729168,72.86328457765586L125.64957315104168,72.84068262216901L125.98721322916667,72.81818812458724L126.08368182291666,72.79580033156552L126.13191611979167,72.77351849678286L126.37308760416667,72.75134188086051L126.56602479166666,72.72926975128127L126.80719627604167,72.70730138231032L126.90366486979165,72.68543605491666L126.95189916666666,72.66367305669624L127.43424213541667,72.65201878527552L127.48247643229166,72.64041881303989L127.67541361979167,72.62887276715323L127.82011651041667,72.61468803149307L127.96481940104167,72.60056894724954L128.01305369791666,72.58651506670962L128.15775658854167,72.5725259462209L128.20599088541667,72.55860114614585L128.30245947916669,72.54474023081623L128.54363096354166,72.53094276848871L128.59186526041668,72.51720833130055L128.92950533854167,72.43307018764116L128.97773963541667,72.34931471270176L129.17067682291665,72.26593934341668L129.26714541666666,72.18294153955263L129.36361401041665,72.100318783455L129.55655119791666,72.01806857979763L130.03889416666667,71.93618845533555L130.13536276041665,71.85467595866159L130.23183135416667,71.7735286599657L130.28006565104167,71.69274415079752L130.47300283854167,71.61232004383245L130.61770572916666,71.53225397264026L131.00358010416667,71.45254359145711L131.19651729166665,71.37318657496047L131.87179744791666,71.39778979174083L132.06473463541667,71.42228439678541L132.16120322916666,71.44667109553689L132.40237471354166,71.47095058734361L132.45060901041666,71.49512356552562L132.54707760416667,71.51919071743912L132.64354619791666,71.54315272454065L132.69178049479166,71.56701026245025L132.78824908854165,71.5907640010137L132.88471768229167,71.61441460436427L132.93295197916666,71.63796273098328L133.27059205729165,71.6614090337602L133.41529494791666,71.68475416005197L133.65646643229167,71.79350126491005L134.23527799479166,71.90178100801697L134.42821518229167,72.00959634193302L134.57291807291668,72.1169501944086L135.05526104166665,72.22384546864444L135.34466682291665,72.33028504354819L135.39290111979167,72.43627177398815L135.48936971354166,72.54180849104368L135.63407260416668,72.64689800225241L135.77877549479166,72.75154309185439L135.82700979166665,72.85574652103355L135.87524408854168,72.9595110281555L136.35758705729168,73.09637582081044L136.40582135416668,73.23266639861068L136.45405565104167,73.37351342170021L136.55052424479166,73.51377185156554L137.12933580729168,73.62371686353428L137.17757010416668,73.73320422327104L137.22580440104167,73.84223672788781L137.27403869791667,73.95081715175746L137.65991307291668,74.05894824674438L138.09402174479166,74.1666327424323L138.91400479166668,74.27387334634939L139.58928494791667,74.38104225410294L139.78222213541667,74.48777110257231L139.83045643229167,74.59406254358547L139.92692502604166,74.69991920771491L140.31279940104167,74.7427671028964L140.40926799479166,74.78544040353998L140.60220518229167,74.82794015339226L141.08454815104167,74.87026738790009L141.47042252604166,74.84992656279671L141.51865682291665,74.82966799173533L142.04923408854168,74.76034466622167L142.43510846354167,74.69130060954436L142.72451424479166,74.62253417189359L142.77274854166666,74.55404371642338L142.86921713541668,74.48582761912482L142.96568572916667,74.41788426870029L143.20685721354167,74.35021206643933L144.12330885416668,74.28280942609601L144.41271463541668,74.21567477376766L144.46094893229167,74.148806547775L144.94329190104168,74.21043651178941L145.0397604947917,74.30717434483898L145.18446338541668,74.40353039822274L145.23269768229167,74.49950687961086L145.28093197916667,74.59510597969287L145.76327494791667,74.70185379026499L145.81150924479164,74.80818340438492L145.95621213541668,74.91409722183882L146.24561791666665,75.01959762409567L146.48678940104168,75.12468697448163L146.58325799479167,75.22936761835244L146.67972658854166,75.333641883264L146.77619518229164,75.43751207914092L147.21030385416665,75.54828440269534L147.40324104166666,75.6383508923962L147.59617822916667,75.72807025205465L147.69264682291669,75.81744444000343L147.83734971354167,75.9064753998802L148.27145838541668,75.99516506076485L148.31969268229165,76.08351533731592L148.51262986979165,76.17152812990464L148.80203565104168,76.25920532474846L148.89850424479167,76.34654879404219L149.47731580729166,76.36415251525294L149.52555010416668,76.38168946803717L149.57378440104168,76.39916002281315L149.62201869791664,76.41656454726575L149.76672158854169,76.43390340637167L149.9596587760417,76.39445852006997L150.24906455729166,76.35516193477635L150.29729885416668,76.3160128352661L150.44200174479167,76.27701041227525L150.82787611979165,76.23815386244634L151.06904760416668,76.19944238827438L151.21375049479167,76.16087519805376L151.35845338541665,76.12245150582575L151.40668768229168,76.08417053132624L151.69609346354164,76.04603149993432L151.79256205729166,76.00803364262136L152.08196783854166,75.97017619590073L152.22667072916667,75.93245840177784L152.37137361979168,75.89487950770074L152.41960791666668,75.85743876651168L152.61254510416668,75.82013543639844L153.52899674479167,75.79115874637432L153.72193393229168,75.76228804347127L153.81840252604167,75.73352276162298L154.05957401041667,75.77376938846757L154.30074549479167,75.81386954987256L154.92779135416666,75.85382402395004L155.12072854166667,75.87028661837405L155.26543143229168,75.88668960292817L155.98894588541668,75.90303329262667L156.51952315104165,75.91931800026944L156.56775744791668,75.93554403646178L156.71246033854166,75.95171170963322L157.00186611979166,75.96782132605684L157.33950619791668,75.98387318986788L157.38774049479164,75.99986760308255L157.43597479166667,76.01580486561626L157.48420908854166,75.94126021378183L157.53244338541668,75.86698104803224L157.58067768229165,75.7929659895993L157.96655205729166,75.71921366923866L159.07594088541668,75.64572272714783L159.12417518229165,75.57249181288469L159.17240947916667,75.49951958528743L159.51004955729167,75.4268047123945L160.04062682291666,75.35434587136626L160.13709541666668,75.28214174840684L160.71590697916668,75.28163247988773L160.76414127604167,75.28112499585978L160.90884416666668,75.28061928721269L161.00531276041664,75.28011534489798L161.05354705729167,75.27961315992863L161.15001565104168,75.27911272337836L162.06646729166667,75.27861402638113L162.30763877604167,75.28338630923784L162.45234166666668,75.28814205601965L162.59704455729167,75.29288135015688L163.03115322916668,75.26766936086254L163.07938752604164,75.24254431753808L163.36879330729167,75.21750578370559L163.46526190104166,75.19255332580143L163.51349619791665,75.16768651315193L163.80290197916668,75.14290491794944L163.94760486979166,75.11820811522826L164.23701065104166,75.09359568284144L164.33347924479168,75.06906720143711L164.42994783854166,75.04462225443561L164.57465072916668,75.02026042800657L165.00875940104166,74.99598131104611L165.24993088541666,74.97178449515465L165.34639947916665,74.94766957461455L165.39463377604167,74.92363614636815L165.44286807291667,74.8996838099961L165.97344533854167,74.95702442530288L166.45578830729167,75.01417215960771L166.84166268229168,75.10028299795684L167.66164572916665,75.15989364858407L167.99928580729167,75.21930470022201L168.04752010416667,75.27851712410809L168.19222299479165,75.33753188519448L168.67456596354168,75.39634994219884L168.96397174479165,75.45497224765472L169.15690893229166,75.51339974796126L169.39808041666666,75.57163338343243L169.49454901041668,75.6296740883461L169.59101760416667,75.68752279099213L169.68748619791668,75.74518041372042L169.78395479166667,75.80264787298847L169.97689197916665,75.91233851844385L170.02512627604168,76.02166846794015L170.16982916666666,76.13063944322239L170.45923494791668,76.2392531551059L170.55570354166667,76.34915238660469L170.70040643229166,76.36055927065159L171.08628080729167,76.31963061668165L171.18274940104166,76.27883535508977L171.23098369791666,76.23817285513802L171.27921799479165,76.19764249005443L171.66509236979167,76.15724363700217L172.38860682291664,76.11697567704852L172.48507541666666,76.06206860668019L172.58154401041665,76.00733891639655L172.67801260416667,75.95278577529055L172.77448119791666,75.89840835763113L173.20858986979167,75.84420584282283L173.40152705729167,75.79017741536612L174.0285729166667,75.73632226481772L174.22151010416667,75.68263958575157L175.13796174479168,75.62912857772015L175.86147619791666,75.72112953967805L175.90971049479168,75.81283713947792L176.19911627604165,75.90425273236502L176.24735057291667,75.9953776652593L176.3438191666667,76.08621327681917L176.48852205729168,76.1767608975046L176.72969354166665,76.26702184964014L176.8743964322917,76.35699744747662L176.92263072916666,76.44668899725299L177.01909932291667,76.53609779725714L177.79084807291667,76.47985957661366L178.12848815104167,76.42379814397991L178.32142533854167,76.34754550751738L178.65906541666666,76.2715319001946L178.70729971354166,76.19575623770987L179.04493979166665,76.1202174423017L179.18964268229166,76.0449144426998L180.34726580729165,75.96984617407608L180.4919686979167,75.89501157799633L180.82960877604168,75.82040960237235L180.97431166666667,75.74603920141435L181.02254596354166,75.671899335584L181.11901455729165,75.76247631703352L181.16724885416667,75.85277330336201L181.50488893229166,75.8569539034322L181.60135752604168,75.86112161593402L182.13193479166668,75.86527649829232L182.37310627604168,75.86941860759177L182.80721494791666,75.842284792117L182.90368354166668,75.81523416354031L183.00015213541664,75.7882663533722L183.19308932291665,75.76138099529331L183.3377922135417,75.73457772513869L183.96483807291665,75.70785618088176L184.01307236979167,75.68121600261873L184.06130666666667,75.6546568325532L184.35071244791666,75.6281783149804L184.73658682291665,75.60178009627238L185.02599260416667,75.57546182486242L185.07422690104164,75.54922315123041L185.12246119791666,75.52306372788763L185.31539838541667,75.49698320936241L185.55656986979167,75.54855860825431L185.89420994791666,75.59997885648714L186.28008432291665,75.60584796168895L186.47302151041666,75.61169945838584L186.66595869791666,75.6008404235327L186.76242729166668,75.59001388133744L187.05183307291668,75.57921969157428L187.19653596354166,75.56845771482226L187.29300455729168,75.55772781245892L187.38947315104167,75.54702984665494L187.4859417447917,75.53636368036842L187.63064463541667,75.52572917733912L187.87181611979167,75.51512620208311L188.45062768229167,75.50455461988703L188.69179916666664,75.49401429680285L188.93297065104167,75.48350509964217L189.8011879947917,75.56702039035366L189.99412518229167,75.65028970067841L190.13882807291668,75.73331407426711L190.37999955729165,75.81609454888425L190.66940533854168,75.89863215644934L190.71763963541667,75.98092792307818L190.91057682291668,76.06298286912352L191.00704541666667,76.14479800921555L191.29645119791667,76.22690367808035L191.34468549479166,76.30877001026843L191.63409127604166,76.39039800995508L191.97173135416665,76.4832487490755L192.26113713541667,76.4764893087471L192.40584002604166,76.46974947128541L192.69524580729166,76.46302915489795L193.22582307291665,76.45632827824595L193.32229166666667,76.44964676044094L193.65993174479166,76.44298452104206L193.80463463541665,76.43634148005258L193.9493375260417,76.429717557917L194.04580611979165,76.42311267551808L194.28697760416668,76.41652675417373L195.05872635416668,76.41356286412861L195.15519494791667,76.41060746130408L195.20342924479166,76.40766051076983L195.39636643229167,76.40472197778662L195.44460072916667,76.40179182780506L195.63753791666667,76.3988700264641L195.73400651041666,76.39595653959006L196.0234122916667,76.39305133319496L196.07164658854165,76.39015437347568L196.40928666666667,76.39885672592997L196.98809822916667,76.40753443727515L197.22926971354164,76.41618760769703L197.37397260416668,76.42481633684017L197.80808127604166,76.37047492435494L197.85631557291666,76.31628662346606L198.14572135416668,76.26225081498322L198.19395565104165,76.20836688304388L198.8692358072917,76.15463421509104L199.06217299479167,76.10105220185105L199.15864158854166,76.04762023731163L199.25511018229167,75.99433771870012L199.39981307291666,75.94120404646172L199.54451596354167,75.88821862423815L199.97862463541668,75.83538085884643L200.26803041666665,75.78269016025762L200.36449901041667,75.73014594157587L200.89507627604166,75.79865401758319L200.9433105729167,75.86697210123614L201.23271635416666,75.93510094774315L201.57035643229165,76.01161893963307L202.72797955729166,76.0879254904016L202.87268244791667,76.05998720444735L203.01738533854166,76.03212593504728L203.11385393229165,76.00434137806327L204.12677416666668,75.97663323095315L204.27147705729166,75.94900119276018L204.46441424479167,75.92144496410279L204.51264854166666,75.89396424716409L204.5608828385417,75.86655874568194L204.85028861979166,75.83922816493848L204.99499151041664,75.81197221175037L205.09146010416666,75.78479059445867L205.52556877604167,75.75768302291888L205.71850596354167,75.77233881999196L205.86320885416666,75.78695478691317L206.1043803385417,75.76927349105094L206.49025471354167,75.75164013512196L206.68319190104168,75.73405453320805L206.77966049479167,75.71651650034887L206.8761290885417,75.69902585253597L207.50317494791665,75.68158240670651L207.59964354166667,75.66418598073729L207.74434643229168,75.64683639343863L208.32315799479167,75.62953346454862L208.51609518229168,75.6122770147268L208.75726666666668,75.59506686554873L208.85373526041667,75.57790283949983L209.33607822916667,75.56524250072445L209.43254682291666,75.59886666019372L209.52901541666668,75.63240101770508L210.15606127604167,75.66584591582065L210.44546705729167,75.63626519419714L210.92781002604167,75.5729540569988L211.16898151041667,75.50981123581097L211.50662158854166,75.44683609178632L211.65132447916665,75.3840279892987L211.74779307291666,75.32138629592271L212.71247901041667,75.25891038241348L212.76071330729164,75.1965996226869L212.80894760416666,75.13445339379963L213.05011908854166,75.07247107592957L213.14658768229165,75.01065205235612L213.43599346354168,74.98209355922793L213.62893065104166,74.95361013505673L214.01480502604167,74.908997188386L214.06303932291667,74.86450124844225L214.30421080729167,74.82012187769945L214.35244510416666,74.77585864080459L214.54538229166667,74.73171110456428L215.07595955729167,74.67872153490957L215.36536533854166,74.625870167518L215.65477111979166,74.57315648877399L215.79947401041665,74.52057998759713L216.33005127604167,74.46814015542648L216.52298846354168,74.4158364862053L216.7159256510417,74.36366847636538L216.81239424479168,74.31163562481194L217.05356572916668,74.25973743290844L217.24650291666669,74.20797340446141L217.4876744010417,74.19016577521492L217.72884588541666,74.1724040799992L217.92178307291667,74.15468815017127L217.97001736979166,74.13701781791038L218.06648596354168,74.11939291621299L218.50059463541666,74.10181327888785L218.54882893229166,74.08427874055106L219.07940619791665,74.06678913662108L219.17587479166667,74.04934430331414L219.22410908854167,74.03194407763897L219.5617491666667,74.03512532601711L219.65821776041668,74.03829845730522L219.70645205729167,74.0414635009483L219.75468635416667,74.04462048624944L219.80292065104166,74.04776944237086L219.99585783854167,74.05091039833458L220.09232643229169,74.05404338302338L221.15348096354165,74.08699621223565L221.29818385416664,74.11986559099424L221.97346401041668,74.1526518195071L222.21463549479168,74.1832930124619L222.26286979166665,74.21385685692715L222.35933838541666,74.24434363017399L222.74521276041668,74.23390555119235L222.98638424479168,74.22349373754881L223.32402432291667,74.2131080954222L224.67458463541666,74.20274853143624L225.01222471354168,74.19241495265715L225.54280197916665,74.18359824821381L225.78397346354168,74.1748036124241L226.2180821354167,74.16603096691848L226.26631643229166,74.15728023369674L226.74865940104166,74.14855133512593L226.79689369791666,74.13984419393844L226.84512799479165,74.13115873322944L226.94159658854167,74.12249487645506L227.03806518229166,74.11385254743014L227.13453377604168,74.10523167032619L227.18276807291664,74.09663216966922L227.23100236979167,74.08805397033775L227.32747096354169,74.07949699756078L228.19568830729168,74.07873760717233L228.43685979166668,74.07798009199576L228.67803127604168,74.07722444547157L228.82273416666666,74.07647066107063L228.96743705729168,74.07571873229409L229.20860854166668,74.07496865267326L229.73918580729168,74.07422041576926L230.17329447916669,74.04646959358045L230.31799736979167,74.01878680726567L230.36623166666666,73.99117182073341L230.80034033854164,73.96362439897933L231.08974611979167,73.93614430808037L231.81326057291668,73.89686711433743L231.86149486979167,73.85768572617721L232.15090065104167,73.81859981302952L232.34383783854165,73.77960904583794L232.48854072916666,73.74071309705108L232.77794651041665,73.7019116406141L232.87441510416664,73.66320435195999L233.30852377604165,73.6245909080013L233.50146096354166,73.58607098712146L233.79086674479169,73.5476442691667L234.03203822916666,73.50931043543751L234.32144401041668,73.47106916868053L234.51438119791666,73.43292015308025L234.7555526822917,73.40307409065636L235.09319276041668,73.35385485408301L235.28612994791666,73.30475399669282L235.72023861979164,73.25577111640739L235.86494151041668,73.20690581296041L236.44375307291668,73.15815768788741L236.78139315104167,73.10952634451561L236.92609604166665,73.06101138795395L237.02256463541667,73.01261242508299L237.07079893229167,72.964329064545L237.26373611979164,72.9161609167342L237.31197041666667,72.86810759378679L237.36020471354166,72.82016870957132L237.93901627604168,72.79798925547848L238.22842205729165,72.82228428922836L238.27665635416668,72.8465216341711L238.37312494791666,72.87070148344928L238.61429643229167,72.83762851535825L238.66253072916666,72.8046338500152L238.80723361979167,72.75764643369008L239.09663940104167,72.71077004766998L239.28957658854168,72.66400432225447L239.62721666666667,72.61734888937599L240.10955963541664,72.5708033825909L240.39896541666667,72.52436743707062L240.59190260416668,72.47804068959262L240.73660549479166,72.43182277853148L241.12247986979168,72.38571334385044L241.21894846354166,72.33971202709225L241.84599432291665,72.31663184359265L242.03893151041666,72.29360567516184L242.08716580729168,72.27063334388677L243.00361744791667,72.24771467263149L243.05185174479166,72.22484948503298L243.19655463541667,72.188451767655L243.53419471354167,72.15213882752623L243.63066330729168,72.11591038690887L244.01653768229167,72.07976616927166L244.11300627604166,72.0437058992837L244.16124057291668,72.00772930280753L244.78828643229167,71.971836106893L244.88475502604166,71.93602603977055L244.93298932291668,71.90029883084513L245.3670979947917,71.86465421068964L245.51180088541668,71.82909191103869L245.60826947916667,71.79361166478239L246.04237815104167,71.75035923683363L246.18708104166666,71.70720641918456L246.28354963541668,71.66415288965086L246.38001822916667,71.62119832742995L246.95882979166666,71.57834241309361L247.77881283854168,71.53558482858047L248.01998432291668,71.49292525718889L248.50232729166666,71.45036338356971L248.79173307291666,71.4196619688535L249.12937315104168,71.3890307356037L249.41877893229167,71.358469458728L249.5152475260417,71.32797791409119L249.70818471354167,71.29755587851015L250.04582479166666,71.26720312974867L250.09405908854168,71.23691944651245L250.14229338541665,71.2067046084442L250.62463635416668,71.17540133758315L251.39638510416668,71.144169099543L251.63755658854166,71.1130076683968L251.87872807291666,71.08191681917015L252.11989955729166,71.05089632783609L252.16813385416668,71.01994597131018L252.26460244791667,70.98906552744566L252.40930533854166,70.95825477502828L252.89164830729166,70.92751349377158L253.08458549479167,70.90902922127071L253.1328197916667,70.89058655121043L253.42222557291666,70.87218535249654L253.61516276041667,70.85382549458231L253.66339705729166,70.83550684746565L254.04927143229168,70.81722928168628L254.14574002604166,70.79899266832291L254.19397432291666,70.78079687899037L254.24220861979168,70.76264178583692L254.33867721354167,70.74452726154138L254.48338010416666,70.7264531793105L254.53161440104165,70.70841941287611L254.57984869791667,70.6904258364925L254.62808299479167,70.67247232493357L254.82102018229168,70.65455875349036L254.91748877604167,70.6366849979682L255.06219166666665,70.61885093468413L255.11042596354167,70.60105644046428L255.15866026041667,70.58330139264126L255.2068945572917,70.56558566905147L255.30336315104165,70.54790914803263L255.44806604166666,70.5302717084211L255.49630033854166,70.51267322954942L255.78570611979168,70.49329125595187L256.0751119010417,70.47395202168204L256.17158049479167,70.45465539517572L256.3162833854167,70.43540124540533L256.8950949479167,70.41618944187698L257.2809693229167,70.39701985462789L257.32920361979166,70.37789235422368L257.3774379166667,70.3588068117556L257.6668436979167,70.33976309883793L258.0044837760417,70.32076108760539L258.2456552604167,70.30180065071035L258.5832953385417,70.33845311480275L258.77623252604167,70.36714526308026L259.01740401041667,70.39577479855019L259.2103411979167,70.42434191166008L259.4997469791667,70.38978536209211L259.59621557291666,70.33992526583097L259.7409184635417,70.29017360201934L260.07855854166667,70.24053004214339L260.36796432291663,70.19099425900754L260.5126672135417,70.14156592672762L260.60913580729164,70.09224472072432L260.65737010416666,70.0430303177169L260.89854158854166,69.99392239571641" style="fill: none;" fill="none"></path></g></g></g></g><g opacity="0.2"><g><g><g><path stroke="rgb(238, 51, 119)" stroke-width="2px" d="M24.791658385416667,163.16666666666666L25.41870424479167,163.16666666666666L25.708110026041666,100.14706802368164L26.479858776041667,100.14706802368164L26.576327369791667,100.14706802368164L26.72103026041667,100.14706802368164L26.81749885416667,100.14706802368164L27.106904635416665,100.14706802368164L27.251607526041667,100.14706802368164L27.97512197916667,100.14706802368164L28.119824869791668,100.14706802368164L28.360996354166666,100.14706802368164L28.746870729166666,120.58121201197305L29.084510807291668,120.58121201197305L29.47038518229167,120.58121201197305L29.61508807291667,97.04438877105713L29.66332236979167,97.04438877105713L30.000962447916667,97.04438877105713L30.242133932291665,97.04438877105713L30.62800830729167,90.19798247019452L31.255054166666664,76.20166664123535L31.785631432291666,76.20166664123535L32.02680291666667,45.91131235758464L32.171505807291666,45.91131235758464L32.60561447916667,45.91131235758464L32.65384877604166,45.91131235758464L33.13619174479167,45.91131235758464L33.37736322916667,45.91131235758464L33.473831822916665,45.91131235758464L33.52206611979167,45.91131235758464L33.71500330729167,45.91131235758464L34.10087768229167,45.91131235758464L34.48675205729167,45.91131235758464L34.53498635416667,45.91131235758464L34.776157838541664,45.91131235758464L35.30673510416666,87.91930058797199L35.596140885416666,87.91930058797199L35.83731236979167,87.91930058797199L35.98201526041667,113.53556257883707L36.56082682291667,71.88546676635742L36.85023260416666,71.88546676635742L37.091404088541665,71.88546676635742L37.429044166666664,71.88546676635742L37.62198135416667,71.88546676635742L37.71844994791667,71.88546676635742L38.63490158854167,71.88546676635742L38.87607307291666,71.88546676635742L38.92430736979166,71.88546676635742L39.165478854166665,71.88546676635742L39.40665033854167,95.70889987945557L39.50311893229166,95.70889987945557L39.88899330729166,95.70889987945557L39.937227604166665,95.70889987945557L40.274867682291664,95.70889987945557L40.46780486979167,94.99711558024087L40.901913541666666,94.99711558024087L41.28778791666667,94.99711558024087L42.059536666666666,94.99711558024087L42.25247385416667,90.44167569478354L42.54187963541666,90.44167569478354L42.73481682291666,90.44167569478354L42.83128541666667,90.44167569478354L44.857125885416664,83.23907451629638L44.905360182291666,83.23907451629638L45.00182877604166,83.23907451629638L45.291234557291666,83.23907451629638L45.72534322916667,83.23907451629638L45.821811822916665,83.23907451629638L45.87004611979167,83.23907451629638L46.014749010416665,83.23907451629638L46.30415479166667,83.23907451629638L46.73826346354167,112.86828778584798L46.88296635416667,112.86828778584798L46.93120065104167,112.86828778584798L47.41354361979166,51.785378901163746L48.23352666666666,51.785378901163746L48.329995260416666,51.785378901163746L49.00527541666667,51.785378901163746L49.24644690104167,51.785378901163746L49.34291549479167,51.785378901163746L49.48761838541667,51.785378901163746L49.87349276041666,51.785378901163746L50.162898541666664,72.81181449890137L50.25936713541667,72.81181449890137L50.404070026041666,72.81181449890137L50.69347580729166,59.51891975402832L50.934647291666664,59.51891975402832L51.41699026041667,57.681898244222005L51.706396041666665,44.84054921468098L51.99580182291667,44.84054921468098L52.18873901041667,44.84054921468098L52.47814479166667,44.84054921468098L52.57461338541667,44.84054921468098L52.62284768229167,44.84054921468098L52.71931627604166,44.84054921468098L52.81578486979166,44.84054921468098L52.864019166666665,44.84054921468098L53.10519065104167,44.84054921468098L53.15342494791666,44.84054921468098L53.587533619791664,44.84054921468098L53.87693940104167,44.84054921468098L53.973407994791664,44.84054921468098L54.214579479166666,44.84054921468098L54.45575096354167,44.84054921468098L54.55221955729167,44.84054921468098L55.13103111979167,66.17326634724935L55.46867119791666,66.17326634724935L55.516905494791665,66.17326634724935L55.61337408854166,66.17326634724935L55.709842682291665,66.17326634724935L55.75807697916667,66.17326634724935L55.85454557291666,66.17326634724935L56.433357135416664,66.17326634724935L56.57806002604167,66.17326634724935L56.77099721354167,66.17326634724935L56.91570010416667,66.17326634724935L57.060402994791666,66.17326634724935L57.253340182291666,71.65207195281982L57.30157447916667,71.65207195281982L57.49451166666667,71.65207195281982L57.73568315104167,71.65207195281982L57.78391744791667,71.65207195281982L58.26626041666666,71.65207195281982L58.45919760416666,71.65207195281982L58.60390049479167,71.65207195281982L58.98977486979167,107.72883179982504L59.18271205729167,107.72883179982504L59.327414947916665,100.93554153442383L59.37564924479167,100.93554153442383L59.42388354166667,100.93554153442383L59.76152361979167,100.93554153442383L60.05092940104167,100.93554153442383L60.14739799479167,100.93554153442383L60.19563229166667,100.93554153442383L60.38856947916667,100.93554153442383L60.58150666666667,100.93554153442383L60.72620955729167,100.93554153442383L60.77444385416667,66.92454109191894L60.82267815104167,66.92454109191894L61.015615338541664,66.92454109191894L61.449724010416666,66.92454109191894L61.64266119791667,66.92454109191894L61.69089549479166,66.92454109191894L61.73912979166666,66.92454109191894L61.83559838541667,66.92454109191894L61.88383268229167,66.92454109191894L62.173238463541665,66.92454109191894L62.366175651041665,42.29557418823242L62.41440994791667,42.29557418823242L62.51087854166667,42.29557418823242L62.60734713541667,42.29557418823242L62.752050026041665,42.29557418823242L62.80028432291667,42.29557418823242L62.84851861979167,42.29557418823242L62.89675291666667,42.29557418823242L63.04145580729167,42.29557418823242L63.23439299479167,42.29557418823242L63.47556447916667,42.29557418823242L63.52379877604167,42.29557418823242L63.57203307291667,42.29557418823242L63.861438854166664,42.29557418823242L64.68142190104166,42.29557418823242L64.87435908854167,42.29557418823242L64.97082768229167,42.29557418823242L65.21199916666667,70.49317817687988L66.36962229166667,70.49317817687988L66.46609088541668,70.49317817687988L66.70726236979166,70.49317817687988L66.80373096354167,70.49317817687988L66.99666815104166,70.49317817687988L67.09313674479166,70.49317817687988L67.47901111979166,70.49317817687988L67.76841690104166,106.48431975046793L67.96135408854167,106.48431975046793L68.29899416666667,106.48431975046793L68.39546276041666,106.48431975046793L68.68486854166667,47.06858215332031L68.78133713541666,47.06858215332031L68.92604002604168,47.06858215332031L68.97427432291667,47.06858215332031L69.07074291666667,47.06858215332031L69.45661729166666,47.06858215332031L69.50485158854167,47.06858215332031L69.64955447916667,47.06858215332031L69.98719455729166,47.06858215332031L70.13189744791667,47.06858215332031L70.56600611979167,47.06858215332031L70.75894330729167,47.06858215332031L70.90364619791667,47.06858215332031L70.95188049479167,47.06858215332031L71.38598916666668,47.06858215332031L71.43422346354167,55.05111821492514L71.62716065104166,55.05111821492514L71.67539494791667,55.05111821492514L71.72362924479167,55.05111821492514L71.77186354166668,55.05111821492514L71.96480072916667,55.05111821492514L72.01303502604166,55.05111821492514L72.15773791666666,55.05111821492514L72.20597221354166,55.05111821492514L72.59184658854167,55.05111821492514L72.78478377604166,55.05111821492514L72.88125236979167,55.05111821492514L72.97772096354167,55.05111821492514L73.02595526041668,55.05111821492514L73.46006393229166,55.05111821492514L73.60476682291666,55.05111821492514L73.99064119791666,55.05111821492514L74.08710979166666,55.05111821492514L74.28004697916666,79.89955444335938L74.32828127604166,79.89955444335938L74.56945276041667,102.61531422932943L74.90709283854167,102.61531422932943L75.43767010416667,115.66676216125488L75.53413869791666,115.66676216125488L75.82354447916667,113.76746921539306L75.96824736979167,93.71173241933188L76.06471596354167,93.71173241933188L76.25765315104168,93.71173241933188L76.45059033854166,82.46358718872071L76.54705893229166,82.46358718872071L76.78823041666666,53.72548637390136L76.83646471354166,53.72548637390136L76.88469901041667,53.72548637390136L77.27057338541667,53.72548637390136L77.55997916666666,53.72548637390136L77.75291635416667,53.72548637390136L77.80115065104167,53.72548637390136L77.84938494791668,53.72548637390136L78.28349361979167,53.72548637390136L78.52466510416667,53.72548637390136L79.19994526041665,53.72548637390136L79.29641385416666,53.72548637390136L80.26109979166667,87.14806276957194L80.30933408854168,87.14806276957194L80.50227127604167,106.6358139038086L80.55050557291666,106.6358139038086L80.59873986979167,106.6358139038086L81.46695721354168,56.67229181925456L81.70812869791666,56.402009455362965L82.04576877604165,56.402009455362965L82.09400307291666,56.402009455362965L82.38340885416667,56.402009455362965L82.47987744791666,56.402009455362965L82.72104893229167,56.402009455362965L82.81751752604166,56.402009455362965L83.10692330729167,56.402009455362965L83.97514065104167,56.402009455362965L84.07160924479166,56.402009455362965L84.16807783854166,56.402009455362965L84.55395221354166,82.53593635559082L84.69865510416666,82.53593635559082L85.08452947916666,82.53593635559082L85.22923236979167,82.53593635559082L85.37393526041666,82.53593635559082L86.00098111979167,108.31292711893717L86.33862119791667,108.31292711893717L86.62802697916666,108.31292711893717L86.82096416666667,108.23110001881918L86.91743276041666,108.23110001881918L86.96566705729167,108.23110001881918L87.25507283854168,107.70330079396564L87.73741580729165,107.70330079396564L87.97858729166667,107.70330079396564L88.02682158854167,107.70330079396564L88.17152447916666,107.70330079396564L88.46093026041667,107.70330079396564L88.55739885416666,107.70330079396564L88.70210174479166,107.70330079396564L88.84680463541667,107.70330079396564L88.99150752604166,107.70330079396564L89.03974182291667,107.70330079396564L89.90795916666667,107.70330079396564L90.63147361979166,109.64960428873697L91.35498807291667,109.64960428873697L91.49969096354167,109.64960428873697L91.54792526041666,109.64960428873697L91.64439385416667,109.64960428873697L91.69262815104167,109.64960428873697L92.70554838541666,110.42104581197104L92.75378268229167,110.42104581197104L92.99495416666667,110.42104581197104L93.13965705729166,110.42104581197104L93.33259424479166,110.42104581197104L93.42906283854165,110.42104581197104L93.62200002604166,110.42104581197104L93.81493721354165,110.42104581197104L94.00787440104166,117.76480312347412L95.21373182291667,76.05501047770181L95.26196611979167,76.05501047770181L95.79254338541666,49.587686665852864L96.17841776041666,49.587686665852864L96.22665205729167,49.587686665852864L96.37135494791666,49.587686665852864L96.46782354166666,49.587686665852864L96.51605783854167,49.587686665852864L96.95016651041666,49.587686665852864L97.28780658854167,49.587686665852864L98.01132104166666,49.587686665852864L98.05955533854167,49.587686665852864L98.20425822916667,49.587686665852864L98.54189830729166,49.587686665852864L99.12070986979165,83.08850269317627L99.36188135416667,83.08850269317627L99.41011565104166,83.08850269317627L99.50658424479167,83.08850269317627L99.84422432291667,83.08850269317627L100.18186440104166,83.08850269317627L100.23009869791667,83.08850269317627L100.66420736979167,83.08850269317627L100.85714455729166,83.08850269317627L100.95361315104167,83.08850269317627L101.14655033854167,83.08850269317627L101.58065901041665,83.08850269317627L101.91829908854167,83.08850269317627L101.96653338541667,101.09098529815674L102.20770486979167,117.95889422098794L102.59357924479167,104.29307250976562L103.02768791666666,104.29307250976562L103.07592221354167,104.29307250976562L103.26885940104167,78.07563228607178L103.51003088541667,78.07563228607178L103.65473377604167,78.07563228607178L103.75120236979167,78.07563228607178L103.89590526041667,78.07563228607178L104.04060815104168,78.07563228607178L104.23354533854166,78.07563228607178L104.61941971354166,78.07563228607178L105.00529408854166,78.07563228607178L105.19823127604167,78.07563228607178L105.34293416666667,77.56520455678304L105.39116846354166,77.56520455678304L105.68057424479166,74.51050910949706L105.72880854166667,74.51050910949706L106.11468291666667,68.0228157043457L106.30762010416667,68.0228157043457L106.35585440104167,68.0228157043457L106.40408869791668,68.0228157043457L106.50055729166667,68.0228157043457L106.64526018229166,68.0228157043457L106.98290026041666,68.0228157043457L107.03113455729167,68.0228157043457L107.41700893229167,68.0228157043457L107.46524322916666,68.0228157043457L107.89935190104167,68.0228157043457L108.09228908854168,68.0228157043457L108.18875768229167,68.0228157043457L108.33346057291666,68.0228157043457L108.57463205729167,68.0228157043457L108.62286635416666,76.02404168446857L108.71933494791666,76.02404168446857L108.76756924479167,76.02404168446857L108.81580354166667,76.02404168446857L109.05697502604167,76.02404168446857L109.73225518229165,76.02404168446857L110.16636385416666,76.02404168446857L110.45576963541667,91.00233929951986L110.79340971354166,91.00233929951986L110.84164401041667,91.00233929951986L111.27575268229167,91.00233929951986L111.61339276041667,91.00233929951986L112.04750143229167,91.00233929951986L112.19220432291668,91.00233929951986L112.52984440104167,120.19686342875163L112.62631299479166,120.19686342875163L112.81925018229167,121.23713308970133L113.30159315104167,113.61882692972819L113.34982744791667,113.61882692972819L113.49453033854167,113.61882692972819L113.73570182291667,51.40450744628906L113.92863901041666,51.40450744628906L114.55568486979168,51.40450744628906L114.65215346354168,51.40450744628906L114.70038776041666,51.40450744628906L114.98979354166667,51.40450744628906L115.03802783854168,51.40450744628906L115.08626213541666,51.40450744628906L115.18273072916666,51.40450744628906L115.85801088541668,51.40450744628906L116.72622822916667,54.28518803914389L117.01563401041668,54.28518803914389L117.35327408854167,54.28518803914389L117.64267986979166,47.55299224853516L117.83561705729167,47.55299224853516L117.93208565104166,47.55299224853516L118.02855424479166,47.55299224853516L118.31796002604166,47.55299224853516L118.46266291666666,47.55299224853516L118.55913151041666,47.55299224853516L118.70383440104168,47.55299224853516L118.84853729166666,47.55299224853516L118.99324018229167,47.55299224853516L119.42734885416667,47.55299224853516L119.52381744791666,47.55299224853516L120.10262901041666,47.55299224853516L120.15086330729167,47.55299224853516L120.19909760416667,47.55299224853516L120.87437776041666,66.68946571350098L121.06731494791667,60.00065905253093L121.26025213541666,60.00065905253093L121.45318932291667,60.00065905253093L121.50142361979167,60.00065905253093L121.64612651041666,60.00065905253093L121.74259510416667,60.00065905253093L121.83906369791667,60.00065905253093L122.22493807291667,60.00065905253093L122.32140666666668,60.00065905253093L122.46610955729166,60.00065905253093L122.61081244791667,60.00065905253093L122.75551533854167,60.00065905253093L122.85198393229166,60.00065905253093L122.99668682291667,60.00065905253093L123.14138971354167,60.00065905253093L123.91313846354167,81.67015120188397L124.25077854166666,81.67015120188397L124.49195002604166,65.01988957722982L124.54018432291666,65.01988957722982L124.58841861979167,65.01988957722982L124.68488721354167,65.01988957722982L124.73312151041667,65.01988957722982L124.82959010416666,65.01988957722982L124.92605869791666,65.01988957722982L125.11899588541667,65.01988957722982L125.31193307291666,65.01988957722982L125.55310455729168,65.01988957722982L125.64957315104168,65.01988957722982L125.98721322916667,65.01988957722982L126.08368182291666,65.01988957722982L126.13191611979167,65.01988957722982L126.37308760416667,65.01988957722982L126.56602479166666,65.01988957722982L126.80719627604167,65.01988957722982L126.90366486979165,65.01988957722982L126.95189916666666,65.01988957722982L127.43424213541667,68.55115814208985L127.48247643229166,68.55115814208985L127.67541361979167,68.55115814208985L127.82011651041667,67.59590695699056L127.96481940104167,67.59590695699056L128.01305369791666,67.59590695699056L128.15775658854167,67.59590695699056L128.20599088541667,67.59590695699056L128.30245947916669,67.59590695699056L128.54363096354166,67.59590695699056L128.59186526041668,67.59590695699056L128.92950533854167,42.23092053731282L128.97773963541667,42.23092053731282L129.17067682291665,42.23092053731282L129.26714541666666,42.23092053731282L129.36361401041665,42.23092053731282L129.55655119791666,42.23092053731282L130.03889416666667,42.23092053731282L130.13536276041665,42.23092053731282L130.23183135416667,42.23092053731282L130.28006565104167,42.23092053731282L130.47300283854167,42.23092053731282L130.61770572916666,42.23092053731282L131.00358010416667,42.23092053731282L131.19651729166665,42.23092053731282L131.87179744791666,80.44836921691895L132.06473463541667,80.44836921691895L132.16120322916666,80.44836921691895L132.40237471354166,80.44836921691895L132.45060901041666,80.44836921691895L132.54707760416667,80.44836921691895L132.64354619791666,80.44836921691895L132.69178049479166,80.44836921691895L132.78824908854165,80.44836921691895L132.88471768229167,80.44836921691895L132.93295197916666,80.44836921691895L133.27059205729165,80.44836921691895L133.41529494791666,80.44836921691895L133.65646643229167,112.68430271148682L134.23527799479166,112.68430271148682L134.42821518229167,112.68430271148682L134.57291807291668,112.68430271148682L135.05526104166665,112.68430271148682L135.34466682291665,112.68430271148682L135.39290111979167,112.68430271148682L135.48936971354166,112.68430271148682L135.63407260416668,112.68430271148682L135.77877549479166,112.68430271148682L135.82700979166665,112.68430271148682L135.87524408854168,112.68430271148682L136.35758705729168,125.57748047510785L136.40582135416668,125.57748047510785L136.45405565104167,127.55492251714071L136.55052424479166,127.55492251714071L137.12933580729168,116.05267248153686L137.17757010416668,116.05267248153686L137.22580440104167,116.05267248153686L137.27403869791667,116.05267248153686L137.65991307291668,116.05267248153686L138.09402174479166,116.05267248153686L138.91400479166668,116.05267248153686L139.58928494791667,116.19722086588541L139.78222213541667,116.19722086588541L139.83045643229167,116.19722086588541L139.92692502604166,116.19722086588541L140.31279940104167,91.56575291951498L140.40926799479166,91.56575291951498L140.60220518229167,91.56575291951498L141.08454815104167,91.56575291951498L141.47042252604166,66.81442731221517L141.51865682291665,66.81442731221517L142.04923408854168,47.290959930419916L142.43510846354167,47.290959930419916L142.72451424479166,47.290959930419916L142.77274854166666,47.290959930419916L142.86921713541668,47.290959930419916L142.96568572916667,47.290959930419916L143.20685721354167,47.290959930419916L144.12330885416668,47.290959930419916L144.41271463541668,47.290959930419916L144.46094893229167,47.290959930419916L144.94329190104168,99.00113213857016L145.0397604947917,113.27776279449463L145.18446338541668,113.27776279449463L145.23269768229167,113.27776279449463L145.28093197916667,113.27776279449463L145.76327494791667,117.95910641352334L145.81150924479164,117.95910641352334L145.95621213541668,117.95910641352334L146.24561791666665,117.95910641352334L146.48678940104168,117.95910641352334L146.58325799479167,117.95910641352334L146.67972658854166,117.95910641352334L146.77619518229164,117.95910641352334L147.21030385416665,120.9607339223226L147.40324104166666,112.61524677276611L147.59617822916667,112.61524677276611L147.69264682291669,112.61524677276611L147.83734971354167,112.61524677276611L148.27145838541668,112.61524677276611L148.31969268229165,112.61524677276611L148.51262986979165,112.61524677276611L148.80203565104168,112.61524677276611L148.89850424479167,112.61524677276611L149.47731580729166,83.68423748016357L149.52555010416668,83.68423748016357L149.57378440104168,83.68423748016357L149.62201869791664,83.68423748016357L149.76672158854169,83.68423748016357L149.9596587760417,59.877462895711254L150.24906455729166,59.877462895711254L150.29729885416668,59.877462895711254L150.44200174479167,59.877462895711254L150.82787611979165,59.877462895711254L151.06904760416668,59.877462895711254L151.21375049479167,59.877462895711254L151.35845338541665,59.877462895711254L151.40668768229168,59.877462895711254L151.69609346354164,59.877462895711254L151.79256205729166,59.877462895711254L152.08196783854166,59.877462895711254L152.22667072916667,59.877462895711254L152.37137361979168,59.877462895711254L152.41960791666668,59.877462895711254L152.61254510416668,59.877462895711254L153.52899674479167,63.390556462605794L153.72193393229168,63.390556462605794L153.81840252604167,63.390556462605794L154.05957401041667,93.06623140970868L154.30074549479167,93.06623140970868L154.92779135416666,93.06623140970868L155.12072854166667,82.97173455556232L155.26543143229168,82.97173455556232L155.98894588541668,82.97173455556232L156.51952315104165,82.97173455556232L156.56775744791668,82.97173455556232L156.71246033854166,82.97173455556232L157.00186611979166,82.97173455556232L157.33950619791668,82.97173455556232L157.38774049479164,82.97173455556232L157.43597479166667,82.97173455556232L157.48420908854166,43.363791020711254L157.53244338541668,43.363791020711254L157.58067768229165,43.363791020711254L157.96655205729166,43.363791020711254L159.07594088541668,43.363791020711254L159.12417518229165,43.363791020711254L159.17240947916667,43.363791020711254L159.51004955729167,43.363791020711254L160.04062682291666,43.363791020711254L160.13709541666668,43.363791020711254L160.71590697916668,75.056223042806L160.76414127604167,75.056223042806L160.90884416666668,75.056223042806L161.00531276041664,75.056223042806L161.05354705729167,75.056223042806L161.15001565104168,75.056223042806L162.06646729166667,75.056223042806L162.30763877604167,77.4141970316569L162.45234166666668,77.4141970316569L162.59704455729167,77.4141970316569L163.03115322916668,63.96884053548177L163.07938752604164,63.96884053548177L163.36879330729167,63.96884053548177L163.46526190104166,63.96884053548177L163.51349619791665,63.96884053548177L163.80290197916668,63.96884053548177L163.94760486979166,63.96884053548177L164.23701065104166,63.96884053548177L164.33347924479168,63.96884053548177L164.42994783854166,63.96884053548177L164.57465072916668,63.96884053548177L165.00875940104166,63.96884053548177L165.24993088541666,63.96884053548177L165.34639947916665,63.96884053548177L165.39463377604167,63.96884053548177L165.44286807291667,63.96884053548177L165.97344533854167,101.1559954325358L166.45578830729167,101.1559954325358L166.84166268229168,114.53770548502604L167.66164572916665,102.49289328257242L167.99928580729167,102.49289328257242L168.04752010416667,102.49289328257242L168.19222299479165,102.49289328257242L168.67456596354168,102.49289328257242L168.96397174479165,102.49289328257242L169.15690893229166,102.49289328257242L169.39808041666666,102.49289328257242L169.49454901041668,102.49289328257242L169.59101760416667,102.49289328257242L169.68748619791668,102.49289328257242L169.78395479166667,102.49289328257242L169.97689197916665,126.91580991744995L170.02512627604168,126.91580991744995L170.16982916666666,126.91580991744995L170.45923494791668,126.91580991744995L170.55570354166667,127.6840147972107L170.70040643229166,81.69487870534262L171.08628080729167,57.157992045084626L171.18274940104166,57.157992045084626L171.23098369791666,57.157992045084626L171.27921799479165,57.157992045084626L171.66509236979167,57.157992045084626L172.38860682291664,57.157992045084626L172.48507541666666,50.181689961751296L172.58154401041665,50.181689961751296L172.67801260416667,50.181689961751296L172.77448119791666,50.181689961751296L173.20858986979167,50.181689961751296L173.40152705729167,50.181689961751296L174.0285729166667,50.181689961751296L174.22151010416667,50.181689961751296L175.13796174479168,50.181689961751296L175.86147619791666,119.5208236694336L175.90971049479168,119.5208236694336L176.19911627604165,119.5208236694336L176.24735057291667,119.5208236694336L176.3438191666667,119.5208236694336L176.48852205729168,119.5208236694336L176.72969354166665,119.5208236694336L176.8743964322917,119.5208236694336L176.92263072916666,119.5208236694336L177.01909932291667,119.5208236694336L177.79084807291667,49.41328137715657L178.12848815104167,49.41328137715657L178.32142533854167,39.56942634582519L178.65906541666666,39.56942634582519L178.70729971354166,39.56942634582519L179.04493979166665,39.56942634582519L179.18964268229166,39.56942634582519L180.34726580729165,39.56942634582519L180.4919686979167,39.56942634582519L180.82960877604168,39.56942634582519L180.97431166666667,39.56942634582519L181.02254596354166,39.56942634582519L181.11901455729165,119.91539710362753L181.16724885416667,119.91539710362753L181.50488893229166,77.8991163889567L181.60135752604168,77.8991163889567L182.13193479166668,77.8991163889567L182.37310627604168,77.8991163889567L182.80721494791666,62.53248380025227L182.90368354166668,62.53248380025227L183.00015213541664,62.53248380025227L183.19308932291665,62.53248380025227L183.3377922135417,62.53248380025227L183.96483807291665,62.53248380025227L184.01307236979167,62.53248380025227L184.06130666666667,62.53248380025227L184.35071244791666,62.53248380025227L184.73658682291665,62.53248380025227L185.02599260416667,62.53248380025227L185.07422690104164,62.53248380025227L185.12246119791666,62.53248380025227L185.31539838541667,62.53248380025227L185.55656986979167,101.2123254776001L185.89420994791666,101.2123254776001L186.28008432291665,78.53218008677165L186.47302151041666,78.53218008677165L186.66595869791666,70.17567024230956L186.76242729166668,70.17567024230956L187.05183307291668,70.17567024230956L187.19653596354166,70.17567024230956L187.29300455729168,70.17567024230956L187.38947315104167,70.17567024230956L187.4859417447917,70.17567024230956L187.63064463541667,70.17567024230956L187.87181611979167,70.17567024230956L188.45062768229167,70.17567024230956L188.69179916666664,70.17567024230956L188.93297065104167,70.17567024230956L189.8011879947917,117.78897892634073L189.99412518229167,117.78897892634073L190.13882807291668,117.78897892634073L190.37999955729165,117.78897892634073L190.66940533854168,117.78897892634073L190.71763963541667,117.78897892634073L190.91057682291668,117.78897892634073L191.00704541666667,117.78897892634073L191.29645119791667,118.05919621785482L191.34468549479166,118.05919621785482L191.63409127604166,118.05919621785482L191.97173135416665,123.92630001703897L192.26113713541667,73.01938406626383L192.40584002604166,73.01938406626383L192.69524580729166,73.01938406626383L193.22582307291665,73.01938406626383L193.32229166666667,73.01938406626383L193.65993174479166,73.01938406626383L193.80463463541665,73.01938406626383L193.9493375260417,73.01938406626383L194.04580611979165,73.01938406626383L194.28697760416668,73.01938406626383L195.05872635416668,74.88330027262371L195.15519494791667,74.88330027262371L195.20342924479166,74.88330027262371L195.39636643229167,74.88330027262371L195.44460072916667,74.88330027262371L195.63753791666667,74.88330027262371L195.73400651041666,74.88330027262371L196.0234122916667,74.88330027262371L196.07164658854165,74.88330027262371L196.40928666666667,80.9295539855957L196.98809822916667,80.9295539855957L197.22926971354164,80.9295539855957L197.37397260416668,80.9295539855957L197.80808127604166,47.97493286132813L197.85631557291666,47.97493286132813L198.14572135416668,47.97493286132813L198.19395565104165,47.97493286132813L198.8692358072917,47.97493286132813L199.06217299479167,47.97493286132813L199.15864158854166,47.97493286132813L199.25511018229167,47.97493286132813L199.39981307291666,47.97493286132813L199.54451596354167,47.97493286132813L199.97862463541668,47.97493286132813L200.26803041666665,47.97493286132813L200.36449901041667,47.97493286132813L200.89507627604166,112.01864058176676L200.9433105729167,112.01864058176676L201.23271635416666,112.01864058176676L201.57035643229165,116.57427285512289L202.72797955729166,116.57427285512289L202.87268244791667,61.22354443868002L203.01738533854166,61.22354443868002L203.11385393229165,61.22354443868002L204.12677416666668,61.22354443868002L204.27147705729166,61.22354443868002L204.46441424479167,61.22354443868002L204.51264854166666,61.22354443868002L204.5608828385417,61.22354443868002L204.85028861979166,61.22354443868002L204.99499151041664,61.22354443868002L205.09146010416666,61.22354443868002L205.52556877604167,61.22354443868002L205.71850596354167,83.63705151875814L205.86320885416666,83.63705151875814L206.1043803385417,66.26465059916178L206.49025471354167,66.26465059916178L206.68319190104168,66.26465059916178L206.77966049479167,66.26465059916178L206.8761290885417,66.26465059916178L207.50317494791665,66.26465059916178L207.59964354166667,66.26465059916178L207.74434643229168,66.26465059916178L208.32315799479167,66.26465059916178L208.51609518229168,66.26465059916178L208.75726666666668,66.26465059916178L208.85373526041667,66.26465059916178L209.33607822916667,68.68992640177409L209.43254682291666,93.87411346435547L209.52901541666668,93.87411346435547L210.15606127604167,93.87411346435547L210.44546705729167,59.51830863952637L210.92781002604167,41.047203063964844L211.16898151041667,41.047203063964844L211.50662158854166,41.047203063964844L211.65132447916665,41.047203063964844L211.74779307291666,41.047203063964844L212.71247901041667,41.047203063964844L212.76071330729164,41.047203063964844L212.80894760416666,41.047203063964844L213.05011908854166,41.047203063964844L213.14658768229165,41.047203063964844L213.43599346354168,59.27918179829916L213.62893065104166,59.27918179829916L214.01480502604167,50.338474782307934L214.06303932291667,50.338474782307934L214.30421080729167,50.338474782307934L214.35244510416666,50.338474782307934L214.54538229166667,50.338474782307934L215.07595955729167,45.37625897725423L215.36536533854166,45.37625897725423L215.65477111979166,45.37625897725423L215.79947401041665,45.37625897725423L216.33005127604167,45.37625897725423L216.52298846354168,45.37625897725423L216.7159256510417,45.37625897725423L216.81239424479168,45.37625897725423L217.05356572916668,45.37625897725423L217.24650291666669,45.37625897725423L217.4876744010417,64.2637372334798L217.72884588541666,64.2637372334798L217.92178307291667,64.2637372334798L217.97001736979166,64.2637372334798L218.06648596354168,64.2637372334798L218.50059463541666,64.2637372334798L218.54882893229166,64.2637372334798L219.07940619791665,64.2637372334798L219.17587479166667,64.2637372334798L219.22410908854167,64.2637372334798L219.5617491666667,75.82241916656494L219.65821776041668,75.82241916656494L219.70645205729167,75.82241916656494L219.75468635416667,75.82241916656494L219.80292065104166,75.82241916656494L219.99585783854167,75.82241916656494L220.09232643229169,75.82241916656494L221.15348096354165,92.70114707946777L221.29818385416664,92.70114707946777L221.97346401041668,92.70114707946777L222.21463549479168,91.5315305074056L222.26286979166665,91.5315305074056L222.35933838541666,91.5315305074056L222.74521276041668,68.31059970855713L222.98638424479168,68.31059970855713L223.32402432291667,68.31059970855713L224.67458463541666,68.31059970855713L225.01222471354168,68.31059970855713L225.54280197916665,69.1613899230957L225.78397346354168,69.1613899230957L226.2180821354167,69.1613899230957L226.26631643229166,69.1613899230957L226.74865940104166,69.1613899230957L226.79689369791666,69.1613899230957L226.84512799479165,69.1613899230957L226.94159658854167,69.1613899230957L227.03806518229166,69.1613899230957L227.13453377604168,69.1613899230957L227.18276807291664,69.1613899230957L227.23100236979167,69.1613899230957L227.32747096354169,69.1613899230957L228.19568830729168,73.64195696512857L228.43685979166668,73.64195696512857L228.67803127604168,73.64195696512857L228.82273416666666,73.64195696512857L228.96743705729168,73.64195696512857L229.20860854166668,73.64195696512857L229.73918580729168,73.64195696512857L230.17329447916669,58.00286916097004L230.31799736979167,58.00286916097004L230.36623166666666,58.00286916097004L230.80034033854164,58.00286916097004L231.08974611979167,58.00286916097004L231.81326057291668,51.10703048706054L231.86149486979167,51.10703048706054L232.15090065104167,51.10703048706054L232.34383783854165,51.10703048706054L232.48854072916666,51.10703048706054L232.77794651041665,51.10703048706054L232.87441510416664,51.10703048706054L233.30852377604165,51.10703048706054L233.50146096354166,51.10703048706054L233.79086674479169,51.10703048706054L234.03203822916666,51.10703048706054L234.32144401041668,51.10703048706054L234.51438119791666,51.10703048706054L234.7555526822917,55.92395947774251L235.09319276041668,44.508646138509114L235.28612994791666,44.508646138509114L235.72023861979164,44.508646138509114L235.86494151041668,44.508646138509114L236.44375307291668,44.508646138509114L236.78139315104167,44.508646138509114L236.92609604166665,44.508646138509114L237.02256463541667,44.508646138509114L237.07079893229167,44.508646138509114L237.26373611979164,44.508646138509114L237.31197041666667,44.508646138509114L237.36020471354166,44.508646138509114L237.93901627604168,59.69029210408528L238.22842205729165,87.19016742706299L238.27665635416668,87.19016742706299L238.37312494791666,87.19016742706299L238.61429643229167,53.2381451924642L238.66253072916666,53.2381451924642L238.80723361979167,44.87410392761231L239.09663940104167,44.87410392761231L239.28957658854168,44.87410392761231L239.62721666666667,44.87410392761231L240.10955963541664,44.87410392761231L240.39896541666667,44.87410392761231L240.59190260416668,44.87410392761231L240.73660549479166,44.87410392761231L241.12247986979168,44.87410392761231L241.21894846354166,44.87410392761231L241.84599432291665,58.52706960042317L242.03893151041666,58.52706960042317L242.08716580729168,58.52706960042317L243.00361744791667,58.52706960042317L243.05185174479166,58.52706960042317L243.19655463541667,50.36922289530437L243.53419471354167,50.36922289530437L243.63066330729168,50.36922289530437L244.01653768229167,50.36922289530437L244.11300627604166,50.36922289530437L244.16124057291668,50.36922289530437L244.78828643229167,50.36922289530437L244.88475502604166,50.36922289530437L244.93298932291668,50.36922289530437L245.3670979947917,50.36922289530437L245.51180088541668,50.36922289530437L245.60826947916667,50.36922289530437L246.04237815104167,45.61572532653808L246.18708104166666,45.61572532653808L246.28354963541668,45.61572532653808L246.38001822916667,45.61572532653808L246.95882979166666,45.61572532653808L247.77881283854168,45.61572532653808L248.01998432291668,45.61572532653808L248.50232729166666,45.61572532653808L248.79173307291666,52.772170384724944L249.12937315104168,52.772170384724944L249.41877893229167,52.772170384724944L249.5152475260417,52.772170384724944L249.70818471354167,52.772170384724944L250.04582479166666,52.772170384724944L250.09405908854168,52.772170384724944L250.14229338541665,52.772170384724944L250.62463635416668,52.06462427775066L251.39638510416668,52.06462427775066L251.63755658854166,52.06462427775066L251.87872807291666,52.06462427775066L252.11989955729166,52.06462427775066L252.16813385416668,52.06462427775066L252.26460244791667,52.06462427775066L252.40930533854166,52.06462427775066L252.89164830729166,52.06462427775066L253.08458549479167,59.5599323272705L253.1328197916667,59.5599323272705L253.42222557291666,59.5599323272705L253.61516276041667,59.5599323272705L253.66339705729166,59.5599323272705L254.04927143229168,59.5599323272705L254.14574002604166,59.5599323272705L254.19397432291666,59.5599323272705L254.24220861979168,59.5599323272705L254.33867721354167,59.5599323272705L254.48338010416666,59.5599323272705L254.53161440104165,59.5599323272705L254.57984869791667,59.5599323272705L254.62808299479167,59.5599323272705L254.82102018229168,59.5599323272705L254.91748877604167,59.5599323272705L255.06219166666665,59.5599323272705L255.11042596354167,59.5599323272705L255.15866026041667,59.5599323272705L255.2068945572917,59.5599323272705L255.30336315104165,59.5599323272705L255.44806604166666,59.5599323272705L255.49630033854166,59.5599323272705L255.78570611979168,58.42325935363769L256.0751119010417,58.42325935363769L256.17158049479167,58.42325935363769L256.3162833854167,58.42325935363769L256.8950949479167,58.42325935363769L257.2809693229167,58.42325935363769L257.32920361979166,58.42325935363769L257.3774379166667,58.42325935363769L257.6668436979167,58.42325935363769L258.0044837760417,58.42325935363769L258.2456552604167,58.42325935363769L258.5832953385417,93.31454194386801L258.77623252604167,88.36388072967529L259.01740401041667,88.36388072967529L259.2103411979167,88.36388072967529L259.4997469791667,48.67618675231934L259.59621557291666,38.991866556803394L259.7409184635417,38.991866556803394L260.07855854166667,38.991866556803394L260.36796432291663,38.991866556803394L260.5126672135417,38.991866556803394L260.60913580729164,38.991866556803394L260.65737010416666,38.991866556803394L260.89854158854166,38.991866556803394" style="fill: none;" fill="none"></path></g></g></g></g></g></g><g transform="translate(41, 178)" clip-path="url(#clip_1)"><clipPath id="clip_1"><rect width="288" height="22"></rect></clipPath><g><g><line x1="0" y1="0" x2="0" y2="5" style="visibility: inherit;" fill="rgb(0, 0, 0)" stroke="rgb(204, 204, 204)" stroke-width="1px"></line><line x1="24.069010416666664" y1="0" x2="24.069010416666664" y2="5" style="visibility: inherit;" fill="rgb(0, 0, 0)" stroke="rgb(204, 204, 204)" stroke-width="1px"></line><line x1="48.13802083333333" y1="0" x2="48.13802083333333" y2="5" style="visibility: inherit;" fill="rgb(0, 0, 0)" stroke="rgb(204, 204, 204)" stroke-width="1px"></line><line x1="72.20703125" y1="0" x2="72.20703125" y2="5" style="visibility: inherit;" fill="rgb(0, 0, 0)" stroke="rgb(204, 204, 204)" stroke-width="1px"></line><line x1="96.27604166666666" y1="0" x2="96.27604166666666" y2="5" style="visibility: inherit;" fill="rgb(0, 0, 0)" stroke="rgb(204, 204, 204)" stroke-width="1px"></line><line x1="120.34505208333334" y1="0" x2="120.34505208333334" y2="5" style="visibility: inherit;" fill="rgb(0, 0, 0)" stroke="rgb(204, 204, 204)" stroke-width="1px"></line><line x1="144.4140625" y1="0" x2="144.4140625" y2="5" style="visibility: inherit;" fill="rgb(0, 0, 0)" stroke="rgb(204, 204, 204)" stroke-width="1px"></line><line x1="168.48307291666669" y1="0" x2="168.48307291666669" y2="5" style="visibility: inherit;" fill="rgb(0, 0, 0)" stroke="rgb(204, 204, 204)" stroke-width="1px"></line><line x1="192.55208333333331" y1="0" x2="192.55208333333331" y2="5" style="visibility: inherit;" fill="rgb(0, 0, 0)" stroke="rgb(204, 204, 204)" stroke-width="1px"></line><line x1="216.62109375" y1="0" x2="216.62109375" y2="5" style="visibility: inherit;" fill="rgb(0, 0, 0)" stroke="rgb(204, 204, 204)" stroke-width="1px"></line><line x1="240.69010416666669" y1="0" x2="240.69010416666669" y2="5" style="visibility: inherit;" fill="rgb(0, 0, 0)" stroke="rgb(204, 204, 204)" stroke-width="1px"></line><line x1="264.7591145833333" y1="0" x2="264.7591145833333" y2="5" style="visibility: inherit;" fill="rgb(0, 0, 0)" stroke="rgb(204, 204, 204)" stroke-width="1px"></line><line x1="288.828125" y1="0" x2="288.828125" y2="5" style="visibility: inherit;" fill="rgb(0, 0, 0)" stroke="rgb(204, 204, 204)" stroke-width="1px"></line></g><g transform="translate(0, 8)"><text x="0" y="0" dx="0em" dy="0.95em" style="text-anchor: middle; visibility: hidden; font-family: Roboto, sans-serif; font-size: 12px; font-weight: 200;" fill="rgb(50, 49, 63)" stroke="none" stroke-width="1px">-500k</text><text x="24.069010416666664" y="0" dx="0em" dy="0.95em" style="text-anchor: middle; visibility: inherit; font-family: Roboto, sans-serif; font-size: 12px; font-weight: 200;" fill="rgb(50, 49, 63)" stroke="none" stroke-width="1px">0</text><text x="48.13802083333333" y="0" dx="0em" dy="0.95em" style="text-anchor: middle; visibility: hidden; font-family: Roboto, sans-serif; font-size: 12px; font-weight: 200;" fill="rgb(50, 49, 63)" stroke="none" stroke-width="1px">500k</text><text x="72.20703125" y="0" dx="0em" dy="0.95em" style="text-anchor: middle; visibility: inherit; font-family: Roboto, sans-serif; font-size: 12px; font-weight: 200;" fill="rgb(50, 49, 63)" stroke="none" stroke-width="1px">1M</text><text x="96.27604166666666" y="0" dx="0em" dy="0.95em" style="text-anchor: middle; visibility: hidden; font-family: Roboto, sans-serif; font-size: 12px; font-weight: 200;" fill="rgb(50, 49, 63)" stroke="none" stroke-width="1px">1.5M</text><text x="120.34505208333334" y="0" dx="0em" dy="0.95em" style="text-anchor: middle; visibility: inherit; font-family: Roboto, sans-serif; font-size: 12px; font-weight: 200;" fill="rgb(50, 49, 63)" stroke="none" stroke-width="1px">2M</text><text x="144.4140625" y="0" dx="0em" dy="0.95em" style="text-anchor: middle; visibility: hidden; font-family: Roboto, sans-serif; font-size: 12px; font-weight: 200;" fill="rgb(50, 49, 63)" stroke="none" stroke-width="1px">2.5M</text><text x="168.48307291666669" y="0" dx="0em" dy="0.95em" style="text-anchor: middle; visibility: inherit; font-family: Roboto, sans-serif; font-size: 12px; font-weight: 200;" fill="rgb(50, 49, 63)" stroke="none" stroke-width="1px">3M</text><text x="192.55208333333331" y="0" dx="0em" dy="0.95em" style="text-anchor: middle; visibility: hidden; font-family: Roboto, sans-serif; font-size: 12px; font-weight: 200;" fill="rgb(50, 49, 63)" stroke="none" stroke-width="1px">3.5M</text><text x="216.62109375" y="0" dx="0em" dy="0.95em" style="text-anchor: middle; visibility: inherit; font-family: Roboto, sans-serif; font-size: 12px; font-weight: 200;" fill="rgb(50, 49, 63)" stroke="none" stroke-width="1px">4M</text><text x="240.69010416666669" y="0" dx="0em" dy="0.95em" style="text-anchor: middle; visibility: hidden; font-family: Roboto, sans-serif; font-size: 12px; font-weight: 200;" fill="rgb(50, 49, 63)" stroke="none" stroke-width="1px">4.5M</text><text x="264.7591145833333" y="0" dx="0em" dy="0.95em" style="text-anchor: middle; visibility: inherit; font-family: Roboto, sans-serif; font-size: 12px; font-weight: 200;" fill="rgb(50, 49, 63)" stroke="none" stroke-width="1px">5M</text><text x="288.828125" y="0" dx="0em" dy="0.95em" style="text-anchor: middle; visibility: hidden; font-family: Roboto, sans-serif; font-size: 12px; font-weight: 200;" fill="rgb(50, 49, 63)" stroke="none" stroke-width="1px">5.5M</text></g><line x1="0" y1="0" x2="288.828125" y2="0" fill="rgb(0, 0, 0)" stroke="rgb(204, 204, 204)" stroke-width="1px"></line></g></g></g></g></svg>