<svg viewBox="0 0 330 200" xmlns="http://www.w3.org/2000/svg"><g><g><g><g><g><line x1="60" y1="178" x2="55" y2="178" style="visibility: inherit;" fill="rgb(0, 0, 0)" stroke="rgb(204, 204, 204)" stroke-width="1px"></line><line x1="60" y1="152.57142857142856" x2="55" y2="152.57142857142856" style="visibility: inherit;" fill="rgb(0, 0, 0)" stroke="rgb(204, 204, 204)" stroke-width="1px"></line><line x1="60" y1="127.14285714285712" x2="55" y2="127.14285714285712" style="visibility: inherit;" fill="rgb(0, 0, 0)" stroke="rgb(204, 204, 204)" stroke-width="1px"></line><line x1="60" y1="101.71428571428571" x2="55" y2="101.71428571428571" style="visibility: inherit;" fill="rgb(0, 0, 0)" stroke="rgb(204, 204, 204)" stroke-width="1px"></line><line x1="60" y1="76.28571428571428" x2="55" y2="76.28571428571428" style="visibility: inherit;" fill="rgb(0, 0, 0)" stroke="rgb(204, 204, 204)" stroke-width="1px"></line><line x1="60" y1="50.857142857142854" x2="55" y2="50.857142857142854" style="visibility: inherit;" fill="rgb(0, 0, 0)" stroke="rgb(204, 204, 204)" stroke-width="1px"></line><line x1="60" y1="25.428571428571416" x2="55" y2="25.428571428571416" style="visibility: inherit;" fill="rgb(0, 0, 0)" stroke="rgb(204, 204, 204)" stroke-width="1px"></line><line x1="60" y1="0" x2="55" y2="0" style="visibility: inherit;" fill="rgb(0, 0, 0)" stroke="rgb(204, 204, 204)" stroke-width="1px"></line></g><g transform="translate(50, 0)"><text x="0" y="178" dx="0em" dy="0.3em" style="text-anchor: end; visibility: hidden; font-family: Roboto, sans-serif; font-size: 12px; font-weight: 200;" fill="rgb(50, 49, 63)" stroke="none" stroke-width="1px">-0.05</text><text x="0" y="152.57142857142856" dx="0em" dy="0.3em" style="text-anchor: end; visibility: inherit; font-family: Roboto, sans-serif; font-size: 12px; font-weight: 200;" fill="rgb(50, 49, 63)" stroke="none" stroke-width="1px">0</text><text x="0" y="127.14285714285712" dx="0em" dy="0.3em" style="text-anchor: end; visibility: inherit; font-family: Roboto, sans-serif; font-size: 12px; font-weight: 200;" fill="rgb(50, 49, 63)" stroke="none" stroke-width="1px">0.05</text><text x="0" y="101.71428571428571" dx="0em" dy="0.3em" style="text-anchor: end; visibility: inherit; font-family: Roboto, sans-serif; font-size: 12px; font-weight: 200;" fill="rgb(50, 49, 63)" stroke="none" stroke-width="1px">0.1</text><text x="0" y="76.28571428571428" dx="0em" dy="0.3em" style="text-anchor: end; visibility: inherit; font-family: Roboto, sans-serif; font-size: 12px; font-weight: 200;" fill="rgb(50, 49, 63)" stroke="none" stroke-width="1px">0.15</text><text x="0" y="50.857142857142854" dx="0em" dy="0.3em" style="text-anchor: end; visibility: inherit; font-family: Roboto, sans-serif; font-size: 12px; font-weight: 200;" fill="rgb(50, 49, 63)" stroke="none" stroke-width="1px">0.2</text><text x="0" y="25.428571428571416" dx="0em" dy="0.3em" style="text-anchor: end; visibility: inherit; font-family: Roboto, sans-serif; font-size: 12px; font-weight: 200;" fill="rgb(50, 49, 63)" stroke="none" stroke-width="1px">0.25</text><text x="0" y="0" dx="0em" dy="0.3em" style="text-anchor: end; visibility: hidden; font-family: Roboto, sans-serif; font-size: 12px; font-weight: 200;" fill="rgb(50, 49, 63)" stroke="none" stroke-width="1px">0.3</text></g><line x1="60" y1="0" x2="60" y2="178" fill="rgb(0, 0, 0)" stroke="rgb(204, 204, 204)" stroke-width="1px"></line></g></g><g transform="translate(60, 0)" clip-path="url(#clip_0)"><clipPath id="clip_0"><rect width="270" height="178"></rect></clipPath><g><g><g><line x1="0" y1="0" x2="0" y2="178" fill="rgb(0, 0, 0)" stroke="rgb(60, 60, 60)" stroke-width="1px" opacity="0.25"></line><line x1="22.5" y1="0" x2="22.5" y2="178" fill="rgb(0, 0, 0)" stroke="rgb(60, 60, 60)" stroke-width="1px" opacity="0.25"></line><line x1="45" y1="0" x2="45" y2="178" fill="rgb(0, 0, 0)" stroke="rgb(60, 60, 60)" stroke-width="1px" opacity="0.25"></line><line x1="67.5" y1="0" x2="67.5" y2="178" fill="rgb(0, 0, 0)" stroke="rgb(60, 60, 60)" stroke-width="1px" opacity="0.25"></line><line x1="90" y1="0" x2="90" y2="178" fill="rgb(0, 0, 0)" stroke="rgb(60, 60, 60)" stroke-width="1px" opacity="0.25"></line><line x1="112.5" y1="0" x2="112.5" y2="178" fill="rgb(0, 0, 0)" stroke="rgb(60, 60, 60)" stroke-width="1px" opacity="0.25"></line><line x1="135" y1="0" x2="135" y2="178" fill="rgb(0, 0, 0)" stroke="rgb(60, 60, 60)" stroke-width="1px" opacity="0.25"></line><line x1="157.5" y1="0" x2="157.5" y2="178" fill="rgb(0, 0, 0)" stroke="rgb(60, 60, 60)" stroke-width="1px" opacity="0.25"></line><line x1="180" y1="0" x2="180" y2="178" fill="rgb(0, 0, 0)" stroke="rgb(60, 60, 60)" stroke-width="1px" opacity="0.25"></line><line x1="202.5" y1="0" x2="202.5" y2="178" fill="rgb(0, 0, 0)" stroke="rgb(60, 60, 60)" stroke-width="1px" opacity="0.25"></line><line x1="225" y1="0" x2="225" y2="178" fill="rgb(0, 0, 0)" stroke="rgb(60, 60, 60)" stroke-width="1px" opacity="0.25"></line><line x1="247.5" y1="0" x2="247.5" y2="178" fill="rgb(0, 0, 0)" stroke="rgb(60, 60, 60)" stroke-width="1px" opacity="0.25"></line><line x1="270" y1="0" x2="270" y2="178" fill="rgb(0, 0, 0)" stroke="rgb(60, 60, 60)" stroke-width="1px" opacity="0.25"></line></g><g><line x1="0" y1="178" x2="270" y2="178" fill="rgb(0, 0, 0)" stroke="rgb(60, 60, 60)" stroke-width="1px" opacity="0.25"></line><line x1="0" y1="152.57142857142856" x2="270" y2="152.57142857142856" fill="rgb(0, 0, 0)" stroke="rgb(60, 60, 60)" stroke-width="1px" opacity="0.25"></line><line x1="0" y1="127.14285714285712" x2="270" y2="127.14285714285712" fill="rgb(0, 0, 0)" stroke="rgb(60, 60, 60)" stroke-width="1px" opacity="0.25"></line><line x1="0" y1="101.71428571428571" x2="270" y2="101.71428571428571" fill="rgb(0, 0, 0)" stroke="rgb(60, 60, 60)" stroke-width="1px" opacity="0.25"></line><line x1="0" y1="76.28571428571428" x2="270" y2="76.28571428571428" fill="rgb(0, 0, 0)" stroke="rgb(60, 60, 60)" stroke-width="1px" opacity="0.25"></line><line x1="0" y1="50.857142857142854" x2="270" y2="50.857142857142854" fill="rgb(0, 0, 0)" stroke="rgb(60, 60, 60)" stroke-width="1px" opacity="0.25"></line><line x1="0" y1="25.428571428571416" x2="270" y2="25.428571428571416" fill="rgb(0, 0, 0)" stroke="rgb(60, 60, 60)" stroke-width="1px" opacity="0.25"></line><line x1="0" y1="0" x2="270" y2="0" fill="rgb(0, 0, 0)" stroke="rgb(60, 60, 60)" stroke-width="1px" opacity="0.25"></line></g></g></g><g><g><line x1="0" y1="152.57142857142856" x2="270" y2="152.57142857142856" fill="rgb(0, 0, 0)" stroke="rgb(153, 153, 153)" stroke-width="1.5px"></line></g></g><g><g><line x1="22.5" y1="0" x2="22.5" y2="178" fill="rgb(0, 0, 0)" stroke="rgb(153, 153, 153)" stroke-width="1.5px"></line></g></g><g><g><g><g><g><path style="fill: none;" stroke="rgb(238, 51, 119)" stroke-width="2px" d="M33.63642,-1.8038469779278126L34.177499999999995,2.131307363833489L34.44804,5.874477978352052L34.67349,9.439377989199965L34.98912,12.838444880552155L35.16948,16.08298545620805L35.259660000000004,19.183301470746706L36.11637,22.148798874003475L36.34182,24.988083109450717L36.38691,27.709042500274812L36.612359999999995,30.318921424917036L36.83781,32.824384711547L36.92799,35.231574456717446L37.28871,37.54616028801939L37.3338,39.77338393662531L37.64943,41.918098857329234L37.82979,43.98480552639773L38.235600000000005,45.97768295751053L38.596320000000006,47.9006169002339L39.31776,49.757225121407835L39.49812,51.550880115548374L39.76866,53.28472954420699L39.94902,54.9617146649027L40.0392,56.58458697660737L41.93298,58.155923279949725L41.978069999999995,59.6781393255218L42.06825,61.15350220234365L42.338789999999996,62.5841416001047L42.7446,63.972060062843624L42.83478,65.3191423378942L42.879870000000004,66.62716391187823L43.01514,67.8977988150419L43.28568,69.13262676607121L43.69149,70.33313972150592L43.82676,71.50074788684492L43.87185,72.63678524026597L44.32275,73.74251461444662L45.08928,74.81913237718933L45.17946,75.86777274732252L45.81072,76.88951177860905L46.036170000000006,77.88537104107958L46.12635,78.8563210262657L46.26162,79.80328430019398L46.622339999999994,80.72713842567254L46.89288,81.62871867332849L46.983059999999995,82.50882053899953L47.11833,83.36820208342769L47.38887,84.20758610871795L47.61432,85.02766218469722L48.065220000000004,85.82908853711157L48.33576,86.61249380852976L48.606300000000005,87.3784787018532L48.786660000000005,88.1276175154622L49.0572,88.86045957824466L49.147380000000005,89.57753059204175L49.19247,90.27933388840566L49.28265,90.9663516059832L49.37282999999999,91.63904579431319L49.417919999999995,92.29785944934713L49.64337,92.9432174855713L49.68846,93.575527649212L50.09427,94.19518137664856L50.36481,94.80255460183125L50.45499,95.39800851620474L50.68044,95.98189028436327L50.90589,96.55453371841887L50.99607,97.11625991383345L51.537150000000004,97.66737784926097L51.852779999999996,98.20818495275344L51.89787,98.7389676365111L51.988049999999994,99.26000180219646L52.07823,99.77155331868616L52.12332,100.27387847399832L52.213499999999996,100.7672244030095L52.75458,101.25182949246046L52.88985,101.7279237646471L53.07021,102.19572924109143L53.20548,102.65546028740268L53.34075,103.10732394045297L53.52111,103.55152021891725L53.5662,103.98824241815525L53.74656,104.41767739034984L53.972010000000004,104.84000581075384L54.0171,105.25540243084293L54.467999999999996,105.66403631911976L54.64836,106.06607109026582L54.783629999999995,106.4616651232945L55.144349999999996,106.85097176931565L55.324709999999996,107.23413954948438L55.45998,107.61131234367151L55.505069999999996,107.98262957035783L55.55016,108.34822635822648L55.86579,108.70823370989551L56.13633,109.06277865820803L56.226510000000005,109.41198441547226L56.2716,109.75597051601846L56.45196,110.09485295242044L56.63232,110.42874430570734L56.767590000000006,110.75775386987235L56.81268,111.0819877709684L56.85777,111.4015490810626L57.038129999999995,111.71653792730737L57.44394,112.02705159637009L57.6243,112.33318463444998L57.66939,112.63502894309867L57.71448,112.93267387104852L57.80466,113.22620630224053L57.84975,113.51571074023514L58.12029,113.80126938917769L58.30065,114.08296223148118L58.34574,114.36086710238098L58.43592,114.63505976150773L58.5261,114.9056139616157L58.66137,115.17260151459848L58.70646,115.436092354916L58.75155,115.69615460054993L58.796640000000004,115.95285461159983L58.93191,116.2062570466257L59.11227,116.45642491683681L59.337720000000004,116.70341963822337L59.382810000000006,116.94730108172041L59.4279,117.18812762149088L59.69844,117.42595618140926L60.46497,117.6608422798235L60.64533,117.89284007266939L60.73551,118.12200239500739L60.96096,118.3483808010493L62.04312,118.572025602738L62.133300000000006,118.792985906941L62.35874999999999,119.01130965131603L62.44893,119.22704363890284L62.62929,119.44023357149435L62.71947,119.65092408183695L63.08019,119.85915876470727L63.35073,120.06498020691149L63.53109,120.26843001624987L63.84672,120.46954884948839L63.9369,120.66837643937677L64.20744,120.86495162075069L64.29762000000001,121.05931235575397L64.43289,121.25149575821553L64.47798,121.44153811721361L64.56816,121.62947491985909L64.92887999999999,121.81534087332734L64.97397,121.99916992616818L65.10924,122.18099528892043L65.42487,122.36084945405847L65.56014,122.53876421529473L65.96595,122.71477068626345L66.14631,122.88889931860757L66.28158,123.06117991949202L66.32667000000001,123.23164166856347L66.73248,123.40031313437761L66.77757,123.56722229031293L66.95793,123.73239652998977L67.00302,123.89586268221268L67.04811000000001,124.05764702545275L67.0932,124.21777530188682L67.27356,124.3762727310089L67.31865,124.53316402282934L67.45392,124.68847339067582L67.49901,124.84222456361057L67.85973,124.99444079847667L68.04008999999999,125.14514489158655L68.13027,125.29435919006531L68.22045,125.44210560286008L68.26554,125.58840561142735L68.67135,125.7332802801089L68.80662,125.87675026620711L69.16734,126.01883582976944L69.25752,126.1595568430923L69.43787999999999,126.29893279995306L69.48297000000001,126.43698282457981L69.70841999999999,126.57372568036708L70.02405,126.70917977834611L70.52004,126.8433631854177L70.61022,126.97629363235522L70.88076,127.1079885215852L71.01603,127.23846493475318L71.10621,127.36773964008093L71.28657000000001,127.49582909952208L71.46692999999999,127.62274947572313L71.55711,127.74851663879478L71.78256,127.87314617290082L71.82764999999999,127.99665338266922L71.87274000000001,128.119053299432L72.23346000000001,128.24036068729842L72.504,128.36059004906693L72.68436,128.47975563198096L72.72945,128.59787143333313L72.77454,128.71495120592283L73.18035,128.83100846337112L73.4058,128.94605648529793L74.03706,129.06010832236504L74.12723999999999,129.1731768011894L75.02904,129.28527452913036L75.07413,129.3964138989549L75.25449,129.50660709338382L75.29957999999999,129.61586608952334L75.34467000000001,129.7242026631845L76.15629000000001,129.8316283930946L76.38174,129.93815466500297L76.69736999999999,130.0437926756845L76.74246,130.1485534368446L77.013,130.2524477789265L77.10318,130.3554863548262L77.32862999999999,130.4576796435157L77.41881,130.55903795357798L77.68934999999999,130.65957142665619L78.50097,130.7592900408194L78.59115,130.8582036138473L78.68133,130.95632180643582L79.04205,131.05365412532646L79.17732,131.15020992636073L79.53804,131.24599841746263L79.67331,131.34102866155015L79.80857999999999,131.43530957937878L80.39475,131.52884995231784L80.71038,131.62165842506255L80.98092,131.71374350828253L81.16128,131.8051135812093L81.25146,131.89577689416393L81.29655000000001,131.98574157102647L81.56709000000001,132.07501561164912L82.01799,132.16360689421398L82.24344,132.25152317753768L82.28853,132.33877210332318L82.4238,132.42536119836154L82.69434,132.51129787668356L82.78452,132.59658944166367L82.91978999999999,132.6812430880766L83.05506,132.76526590410865L83.19033,132.8486648733241L83.23542,132.93144687658858L84.04704000000001,133.0136186939499L84.72339,133.09518700647763L85.39974,133.17615839806308L85.53501,133.2565393571795L85.5801,133.33633627860448L85.67027999999999,133.41555546510511L85.71537000000001,133.494203129087L86.66226,133.57228539420782L86.70735,133.64980829695642L86.9328,133.72677778819835L87.06806999999999,133.80319973468883L87.24843,133.87907992055327L87.33860999999999,133.9544240487372L87.51897,134.02923774242527L87.69932999999999,134.103526546431L87.87969,134.1772959285572L89.00694,134.2505512809286L89.05203,134.32329792129627L89.54802,134.3955410943159L89.90874,134.46728597279917L89.95383,134.5385376589399L90.08909999999999,134.609301185515L90.17927999999999,134.6795815170609L90.22437000000001,134.74938355102648L90.63018,134.8187121189024L90.94581000000001,134.88757198732762L91.62216,134.95596785917417L91.66725000000001,135.0239043746097L91.80252,135.0913861121392L92.11814999999999,135.15841758962586L92.65923,135.22500326529175L92.88468,135.2911475386988L92.92976999999999,135.35685475171033L93.01995,135.42212918943406L93.33558000000001,135.48697508114628L93.65120999999999,135.55139660119823L93.69630000000001,135.6153978699049L94.10211,135.6789829544166L94.28247,135.74215586957357L94.37265,135.80492057874446L94.55301,135.86728099464844L94.95881999999999,135.9292409801618L95.27445,135.99080434910894L95.31953999999999,136.0519748670388L95.54499,136.11275625198599L95.90571,136.17315217521804L96.31152,136.23316626196848L96.35661,136.29280209215597L96.53697000000001,136.35206320109017L96.76241999999999,136.41095308016452L96.89769000000001,136.46947517753603L96.98787,136.5276328987924L97.12314,136.5854296076071L97.25841000000001,136.64286862638204L97.43876999999999,136.6999532368788L97.79948999999999,136.75668668083807L98.16020999999999,136.8130721605879L98.34057,136.86911283964074L98.47584,136.92481184328003L98.52092999999999,136.98017225913566L98.79147,137.03519713774952L98.83656,137.0898894931306L99.19728,137.14425230330045L99.37764,137.19828851082843L99.42273,137.2520010233579L99.46782,137.30539271412277L99.558,137.35846642245514L99.69327,137.41122495428374L100.0089,137.46367108262382L100.05399,137.51580754805815L100.41471,137.56763705921003L100.45979999999999,137.6191622932077L100.86561,137.67038589614074L101.04597,137.72131048350874L101.13615,137.771938640662L101.27141999999999,137.82227292323464L101.49687,137.87231585757047L101.54196,137.9220699411414L101.63213999999999,137.9715376429585L101.67723000000001,138.02072140397672L101.72232,138.0696236374918L101.94777,138.11824672953128L102.57902999999999,138.16659303923834L102.98484,138.21466489924958L103.25538,138.2624646160661L103.57101,138.30999447041862L103.6161,138.3572567176263L104.02190999999999,138.40425358794988L104.33754,138.45098728693844L104.74334999999999,138.497459995771L104.87862000000001,138.5436738715921L105.19425,138.58963104784183L105.28443,138.63533363458077L105.46479000000001,138.6807837188092L105.91569,138.72598336478134L105.96078,138.77093461431437L106.09605,138.81563948709257L106.3215,138.8600999809662L106.50186,138.90431807224599L107.08803,138.9482957159925L107.17821,138.99203484630095L107.2233,139.03553737658171L107.49384,139.07880519983584L107.53893000000001,139.12184018892665L107.58402,139.16464419684675L107.6742,139.20721905698088L108.30546,139.24956658336458L109.11708,139.2916885709388L109.38762,139.3335867958004L109.70325,139.37526301544898L109.97379,139.41671896902955L110.15415,139.45795637757146L110.24433,139.4989769442238L110.33451,139.53978235448696L110.60505,139.58037427644058L110.74032,139.62075436096816L110.8305,139.660924241978L110.96577,139.7008855366209L111.10104,139.74063984550435L111.23631,139.78018875290368L111.64211999999999,139.81953382696975L111.7323,139.85867661993353L112.27338,139.89761866830784L112.31847,139.93636149308549L112.36355999999999,139.974906599935L112.99482,140.01325547939305L113.17518,140.051409607054L113.35554,140.08937044375685L113.5359,140.12713943576904L113.58099,140.16471801496783L113.71626,140.20210759901872L113.80644000000001,140.23930959155146L113.89662,140.27632538233323L114.25734,140.3131563474394L114.34752,140.3498038494217L114.48279,140.3862692374741L114.61806,140.42255384759588L114.75332999999999,140.45865900275265L114.84351,140.494586013035L114.97878,140.53033617581457L115.11404999999999,140.56591077589817L115.83549000000001,140.6013110856795L116.15111999999999,140.63653836528863L116.37657,140.67159386273954L116.42165999999999,140.7064788140752L116.46675,140.741194443511L116.55693000000001,140.7757419635757L116.60202,140.8101225752507L116.6922,140.84433746810691L116.78237999999999,140.87838782044042L116.96274,140.91227479940528L117.1431,140.94599956114521L117.36855,140.979563250923L117.45873,141.01296700324824L117.77436,141.04621194200325L117.86454,141.07929918056723L117.90963,141.11222982193874L118.13508,141.1450049588562L118.31544,141.17762567391713L118.54088999999999,141.21009303969544L118.63107,141.24240811885713L118.67616,141.2745719642746L119.12706,141.30658561913899L119.17215,141.33845011707135L119.35251,141.37016648223212L119.48778,141.4017357294291L119.62304999999999,141.433158864224L119.66814000000001,141.4644368830375L119.80341,141.4955707732529L119.8485,141.52656151331826L119.93868,141.55741007284738L120.16413,141.58811741271924L120.20922,141.61868448517612L120.52485,141.64911223392045L120.56994,141.67940159421028L120.7503,141.70955349295366L120.84048,141.7395688488014L120.93065999999999,141.76944857223907L121.11102,141.79919356567734L121.56192,141.82880472354137L121.65209999999999,141.85828293235897L121.74228,141.88762907084757L121.78737000000001,141.91684400999992L121.96773,141.94592861316903L122.103,141.9748837361516L122.46372,142.00371022727046L122.64408,142.03240892745615L123.27534,142.0609806703271L123.45570000000001,142.08942628226913L123.54588,142.11774658251355L123.77132999999999,142.14594238321445L123.81642000000001,142.17401448952504L123.9066,142.20196369967297L123.99678,142.2297908050344L124.04186999999999,142.25749659020764L124.13204999999999,142.28508183308537L124.22223,142.31254730492623L124.26732,142.33989377042533L124.58295,142.36712198778395L124.71822,142.3942327087784L124.94367,142.42122667882782L125.48475,142.44810463706128L125.66511,142.47486731638406L125.80038,142.50151544354293L126.25128,142.5280497391907L126.52181999999999,142.5544709179501L126.56691000000001,142.5807796884766L126.65709,142.60697675352057L126.79236,142.63306280998873L126.92763000000001,142.65903854900466L126.97272,142.6849046559689L127.01781,142.71066181061772L127.46871,142.7363106870818L127.5138,142.76185195394388L127.55889,142.78728627429552L127.64907000000001,142.8126143057935L128.19015000000002,142.83783670071548L128.23524,142.86295410601468L128.28033000000002,142.88796716337427L128.32542,142.91287650926088L128.68614,142.93768277497742L129.09195,142.9623865867155L129.85848000000001,142.98698856560688L130.48974,143.01148932777468L130.67010000000002,143.03588948438355L130.71519,143.06018964168965L130.80537,143.0843904010897L131.16609,143.10849235916965L131.25627,143.13249610775262L131.43663,143.15640223394644L131.88753,143.1802113201904L132.24825,143.20392394430172L132.29334,143.2275406795211L132.78933,143.25106209455814L133.15005,143.2744887536359L133.42059,143.29782121653517L133.46568,143.32106003863805L133.55586,143.34420577097094L133.64604,143.36725896024743L133.87149,143.3902201489102L134.72820000000002,143.41308987517274L134.99874,143.4358686730605L135.04383,143.45855707245147L135.49473,143.48115559911642L135.58491,143.50366477475868L135.72018,143.52608511705327L135.76527000000002,143.54841713968585L135.81036,143.57066135239097L136.26126000000002,143.59281826099001L136.30634999999998,143.61488836742876L136.44162,143.63687216981427L136.71215999999998,143.65877016245165L136.93761,143.68058283588036L137.02778999999998,143.70231067690963L137.11797,143.72395416865427L137.20815,143.7455137905695L137.61396,143.7669900184854L137.79432,143.78838332464122L137.97468,143.80969417771936L138.06486,143.83092304287854L138.20013,143.85207038178694L138.60594,143.8731366526549L138.65103,143.89412231026728L138.83139,143.91502780601533L139.10193,143.93585358792834L139.19210999999999,143.95660010070486L139.73319,143.9772677857436L139.77828,143.99785708117403L139.82337,144.01836842188655L139.86846,144.03880223956233L140.00373000000002,144.05915896270295L140.18409,144.07943901665953L140.45463,144.0996428236618L140.49972,144.11977080284646L140.63499,144.13982337028554L140.99571,144.1598009390145L141.22116,144.1797039190597L141.35643,144.19953271746581L141.49169999999998,144.21928773832292L141.53679,144.23896938279324L141.80732999999998,144.2585780491376L141.89751,144.27811413274168L142.16805,144.2975780261417L142.30332,144.31697011905047L142.43859,144.33629079838224L142.48368000000002,144.3555404482781L142.66404,144.37471945013073L143.52075,144.39382818260884L143.70111,144.41286702168156L143.79129,144.43183634064238L144.01674,144.45073651013294L144.24219,144.46956789816656L144.82835999999998,144.48833087015143L145.00871999999998,144.50702578891375L145.14399,144.52565301472035L145.82034000000002,144.54421290530135L146.31633,144.56270581587233L146.36142,144.58113209915652L146.49669,144.5994921054065L146.76722999999998,144.61778618242587L147.08286,144.63601467559056L147.12795,144.65417792787008L147.17304,144.67227627984835L147.21813,144.6903100697444L147.26322000000002,144.70827963343302L147.30830999999998,144.72618530446485L147.66903,144.7440274140864L148.70610000000002,144.76180629126026L148.75118999999998,144.77952226268437L148.79628,144.7971756528117L149.11191,144.8147667838694L149.60789999999997,144.83229597587794L149.69808,144.84976354666995L150.23916,144.86716981190872L150.28425000000001,144.88451508510698L150.41952,144.90179967764496L150.50969999999998,144.91902389878857L150.55479,144.93618805570728L150.64497,144.9532924534919L151.50168,144.97033739517218L151.72713000000002,144.98732318173404L151.8624,145.00425011213693L151.99767,145.02111848333072L152.40348,145.0379285902727L152.44857,145.05468072594417L152.71911,145.071375181367L152.80928999999998,145.08801224561992L152.85438,145.10459220585486L153.12492,145.12111534731284L153.26019,145.1375819533399L153.53072999999998,145.15399230540274L153.62091,145.17034668310444L153.71108999999998,145.18664536419973L153.84636,145.2028886246102L154.25216999999998,145.2190767384396L154.47762,145.23520997798855L154.56779999999998,145.25128861376947L154.61289,145.2673129145213L154.65798,145.28328314722384L155.15397,145.2991995771123L155.60487,145.31506246769132L155.96559000000002,145.33087208074934L156.73211999999998,145.34662867637235L157.04775,145.36233251295766L157.09284,145.37798384722785L157.22811,145.39358293424402L157.67901,145.4091300274194L157.94955,145.4246253785326L158.12991,145.44006923774072L158.35536,145.45546185359242L158.44554000000002,145.4708034730409L158.53572,145.48609434145646L158.6259,145.50133470263944L158.71608,145.51652479883262L158.89643999999998,145.53166487073364L158.94153,145.54675515750733L159.0768,145.56179589679778L159.34734,145.57678732474068L159.43752,145.59172967597496L159.57279,145.60662318365488L159.93350999999998,145.62146807946152L160.02369000000002,145.63626459361473L160.06877999999998,145.6510129548842L160.11387,145.66571339060133L160.47459,145.68036612667004L161.15094,145.69497138757842L161.24112,145.70952939640944L161.3313,145.72404037485217L161.42148,145.73850454321254L161.51165999999998,145.75292212042405L161.91747,145.76729332405864L162.09783,145.78161837033713L162.684,145.79589747413962L162.86436,145.81013084901602L163.72107,145.82431870719626L164.39742,145.8384612596005L164.44251,145.85255871584914L164.71304999999998,145.86661128427295L164.75814,145.88061917192286L164.84832,145.89458258457984L164.98359000000002,145.90850172676454L165.20904,145.9223768017471L165.34431,145.93620801155646L165.3894,145.94999555699005L165.47958,145.963739637623L166.20102,145.97744045181747L166.51665,145.99109819673194L166.69701,146.00471306833018L167.01264,146.01828526139036L167.05773,146.03181496951404L167.37336,146.04530238513505L167.50862999999998,146.05874769952814L168.59079,146.07215110281786L168.72606000000002,146.08551278398716L169.04169000000002,146.09883293088586L169.17696,146.11211173023923L169.22205,146.12534936765636L169.31223,146.1385460276384L169.35732,146.15170189358707L169.67295,146.16481714781247L169.76313000000002,146.17789197154158L170.25912,146.190926544926L170.48457000000002,146.20392104705L170.89038,146.2168756559385L170.98056,146.22979054856484L171.07074,146.24266590085844L171.25109999999998,146.25550188771268L171.38637,146.26829868299234L171.97253999999998,146.28105645954122L172.01763,146.29377538918968L172.06272,146.30645564276193L172.33326,146.3190973900835L172.69397999999998,146.33170079998857L172.96452000000002,146.34426604032691L173.00960999999998,146.35679327797152L173.0547,146.3692826788252L173.23506,146.381734407828L173.46051,146.39414862896405L173.77614,146.40652550526838L174.13685999999998,146.41886519883394L174.31722,146.4311678708183L174.49758,146.44343368145047L174.58776,146.45566279003742L174.85829999999999,146.46785535497094L174.99357,146.48001153373392L175.08375,146.49213148290713L175.17392999999998,146.50421535817557L175.26411000000002,146.51626331433476L175.39938,146.52827550529727L175.62483,146.54025208409885L176.16591,146.55219320290476L176.39136,146.564099013016L176.61681,146.57596966487523L177.42843000000002,146.58780530807311L177.60879000000003,146.5996060913541L177.74406000000002,146.61137216262264L177.96950999999999,146.62310366894886L178.24005,146.63480075657466L178.28514,146.6464635709194L178.46550000000002,146.65809225658566L178.55568,146.66968695736517L178.82622,146.68124781624422L178.87131,146.69277497540944L179.14185,146.70426857625336L179.45748,146.71572875937997L179.72802000000001,146.72715566461017L179.86329,146.7385494309872L180.13383,146.74991019678217L180.62982,146.7612380994992L180.72,146.77253327588093L181.03563,146.78379586191366L181.1709,146.79502599283265L181.30617,146.80622380312724L181.39634999999998,146.81738942654604L181.6218,146.82852299610198L182.34324,146.83962464407736L182.43341999999998,146.85069450202897L182.47851,146.86173270079286L182.65887,146.87273937048946L182.70396,146.88371464052838L182.88432,146.89465863961317L182.9745,146.90557149574641L183.24504000000002,146.91645333623413L183.29012999999998,146.9273042876908L183.60576,146.93812447604387L184.14684,146.94891402653855L184.37229,146.9596730637423L184.50756,146.97040171154947L184.91337,146.98110009318592L184.95846,146.99176833121336L185.229,147.00240654753395L185.27409,147.01301486339466L185.90535,147.02359339939167L186.08571,147.03414227547484L186.17588999999998,147.04466161095186L186.26607,147.0551515244927L186.40134,147.06561213413377L186.53661,147.0760435572822L186.94242,147.08644591071996L187.21295999999998,147.09681931060805L187.30314,147.10716387249076L187.79913,147.11747971129947L187.84422,147.12776694135695L188.11476,147.13802567638135L188.43039,147.14825602949006L189.51254999999998,147.1584581132038L189.64782000000002,147.16863203945056L189.78309000000002,147.17877791956937L189.87327,147.18889586431433L190.82016,147.1989859838583L190.95542999999998,147.20904838779686L191.13579,147.21908318515196L191.18088,147.22909048437566L191.22597000000002,147.239070393354L191.49651,147.2490230194106L191.63178,147.25894846931024L191.72196,147.26884684926262L192.12777,147.2787182649259L192.30813,147.2885628214103L192.4434,147.29838062328162L192.66885000000002,147.30817177456484L193.02957,147.3179363787475L193.20993,147.3276745387832L193.30011,147.33738635709514L193.39029000000002,147.34707193557944L193.97646,147.35673137560846L194.06664,147.36636477803432L194.20191,147.3759722431922L194.74299,147.38555387090346L194.92335,147.39510976047922L195.14880000000002,147.40464001072343L195.23898,147.4141447199361L195.68988000000002,147.42362398591663L195.78006,147.43307790596685L195.87024000000002,147.4425065768943L196.45641,147.45191009501528L196.72695000000002,147.46128855615802L197.17785,147.4706420556658L197.4033,147.47997068839987L197.71893,147.48927454874269L197.8542,147.49855373060072L197.94438,147.50780832740762L198.84618,147.5170384321272L198.89127,147.52624413725624L198.93635999999998,147.5354255348275L199.16181,147.54458271641266L199.25198999999998,147.55371577312516L199.52253,147.56282479562307L199.70289,147.57190987411195L200.06361,147.58097109834762L200.1087,147.59000855763907L200.33415,147.59902234085104L200.37924,147.6080125364071L200.5596,147.61697923229198L201.05559,147.62592251605471L201.32613,147.6348424748109L201.59667,147.6437391952458L201.73193999999998,147.6526127636167L202.22793000000001,147.66146326575563L202.40829000000002,147.67029078707208L202.58865,147.6790954125554L202.67883,147.68787722677766L202.90428,147.6966363138959L203.08464,147.7053727576549L203.31009,147.71408664138963L203.53554,147.7227780480277L203.7159,147.73144706009188L203.76099,147.7400937597027L203.85117000000002,147.74871822858066L204.25698,147.75732054804888L204.30207000000001,147.76590079903534L204.79806,147.77445906207544L204.88824,147.78299541731417L204.93332999999998,147.79150994450882L205.24896,147.80000272303084L205.33914,147.80847383186867L205.38423,147.81692334962966L205.42932000000002,147.8253513545426L205.47440999999998,147.83375792445983L205.65476999999998,147.84214313685976L205.74495000000002,147.8505070688487L206.73693,147.8588497971636L206.8722,147.86717139817384L207.50346,147.87547194788357L207.72891,147.88375152193396L207.774,147.89201019560534L207.86418,147.90024804381926L208.2249,147.9084651411407L208.45035000000001,147.91666156178024L208.76598,147.92483737959603L210.0285,147.93299266809595L210.34413,147.9411275004398L210.84011999999998,147.94924194944105L211.06557,147.9573360875693L211.47138,147.96540998695193L211.51647,147.97346371937635L211.96737000000002,147.98149735629195L212.01245999999998,147.98951096881208L212.05755,147.99750462771587L212.14773,148.00547840345055L212.23791,148.01343236613306L212.32809,148.02136658555213L212.37318,148.0292811311702L212.41827,148.0371760721252L212.50845,148.04505147723268L213.32007,148.0529074149875L213.54552,148.0607439535657L213.77097,148.0685611608265L213.90624,148.07635910431395L214.04151,148.0841378512589L214.26696,148.09189746858078L214.76295,148.09963802288934L215.16876000000002,148.1073595804865L215.30403,148.11506220736814L215.34912,148.1227459692258L215.75493,148.13041093144855L216.02547,148.13805715912457L216.70182,148.14568471704297L216.74691,148.1532936696955L217.01745,148.16088408127834L217.19781,148.1684560156936L217.33308,148.1760095365511L217.60362,148.1835447071702L217.69379999999998,148.19106159058109L218.09960999999998,148.19856024952685L218.27997,148.2060407464647L218.55051,148.21350314356803L218.77596,148.22094750272763L219.0465,148.22837388555354L219.22686000000002,148.2357823533765L219.45231,148.24317296724965L219.76794,148.25054578795005L219.94830000000002,148.25790087598023L220.35411,148.26523829156966L220.48938,148.2725580946765L221.03046,148.2798603449889L221.34609,148.28714510192668L221.48136,148.29441242464276L221.57154000000003,148.30166237202465L221.61663,148.30889500269595L221.79699,148.31611037501793L221.84208,148.3233085470908L221.88717,148.33048957675533L222.42825000000002,148.33765352159418L222.69879,148.34480043893353L222.74388,148.3519303858442L222.83406,148.35904341914343L223.05951,148.366139595396L223.1046,148.3732189709157L223.23987,148.38028160176685L223.51041,148.38732754376556L223.69077000000001,148.39435685248117L224.0064,148.40136958323745L224.4573,148.40836579111425L224.72784000000001,148.4153455309485L224.90820000000002,148.4223088573359L225.04347,148.42925582463198L225.40419,148.43618648695346L225.49436999999998,148.4431008981797L226.08053999999998,148.44999911195387L226.2609,148.4568811816843L226.30599,148.46374716054572L227.1627,148.4705971014806L227.20779000000002,148.47743105720036L227.34306,148.4842490801867L227.65869,148.4910512226927L227.74887,148.49783753674427L228.10959,148.50460807414126L228.19977,148.51136288645867L228.24486000000002,148.51810202504794L228.83103,148.52482554103815L228.92121,148.53153348533715L228.96630000000002,148.53822590863285L229.37211000000002,148.54490286139432L229.50738,148.5515643938731L229.59756,148.55821055610417L230.00337,148.56484139790737L230.13863999999998,148.57145696888827L230.22882,148.57805731843965L230.319,148.58464249574226L230.86007999999998,148.5912125497663L231.62661,148.5977675292724L231.85206000000002,148.6043074828127L232.30296,148.61083245873195L232.5735,148.6173425051688L232.88913000000002,148.62383767005676L233.15967,148.6303180011252L233.24985,148.63678354590067L233.43021000000002,148.64323435170775L233.74584000000002,148.64967046567025L233.79093,148.65609193471232L233.83602,148.66249880555932L234.28692,148.66889112473902L235.00836,148.67526893858272L235.23380999999998,148.681632293226L235.45926,148.68798123461005L235.68471,148.69431580848251L235.7298,148.7006360603986L235.81998,148.70694203572208L235.95524999999998,148.71323377962622L236.40615,148.71951133709487L236.58651,148.72577475292337L236.63160000000002,148.73202407171968L236.90214,148.7382593379052L237.0825,148.7444805957158L237.12759,148.75068788920285L237.48831,148.7568812622341L237.57849,148.76306075849467L237.62358,148.76922642148804L237.66867000000002,148.77537829453686L237.75885,148.7815164207841L237.89412,148.7876408431938L237.93921,148.793751604552L237.9843,148.79984874746782L238.02939,148.80593231437425L238.20975,148.81200234752907L238.29993,148.81805888901573L238.43519999999998,148.8241019807444L238.48029,148.8301316644526L238.52538,148.8361479817064L238.57047,148.84215097390103L238.66065,148.84814068226189L238.79592,148.8541171478454L238.84100999999998,148.86008041153983L239.11155000000002,148.86603051406624L239.38209,148.87196749597933L239.47227,148.87789139766815L239.60754,148.88380225935705L240.14862,148.88970012110659L240.50934,148.89558502281423L240.55443,148.90145700421525L240.59951999999998,148.9073161048835L240.87006,148.91316236423236L241.18569,148.91899582151538L241.41114000000002,148.92481651582727L241.72677000000002,148.93062448610442L241.90713,148.93641977112608L242.13258000000002,148.94220240951486L242.31294000000003,148.94797243973764L242.58348,148.95372990010634L242.67366,148.95947482877867L242.80893,148.96520726375894L243.12456,148.97092724289885L243.39509999999999,148.97663480389818L243.53037,148.98232998430566L243.62055,148.98801282151956L243.66564,148.99368335278865L243.89109000000002,148.9993416152128" fill="none"></path></g></g></g></g><g opacity="0.2"><g><g><g><path stroke="rgb(238, 51, 119)" stroke-width="2px" d="M26.5122,-356.00000000000006L26.87292,152.57142857142856L27.18855,152.57142857142856L27.54927,152.57142857142856L27.684540000000002,152.57142857142856L27.72963,152.57142857142856L28.04526,152.57142857142856L28.27071,152.57142857142856L28.63143,152.57142857142856L29.217599999999997,152.57142857142856L29.71359,152.57142857142856L29.939040000000002,152.57142857142856L30.07431,152.57142857142856L30.48012,152.57142857142856L30.525209999999998,152.57142857142856L30.97611,152.57142857142856L31.20156,152.57142857142856L31.29174,152.57142857142856L31.336830000000003,152.57142857142856L31.517190000000003,152.57142857142856L31.87791,152.57142857142856L32.23863,152.57142857142856L32.28372,152.57142857142856L32.50917,152.57142857142856L33.00516,152.57142857142856L33.2757,152.57142857142856L33.50115,152.57142857142856L33.63642,152.57142857142856L34.177499999999995,152.57142857142856L34.44804,152.57142857142856L34.67349,152.57142857142856L34.98912,152.57142857142856L35.16948,152.57142857142856L35.259660000000004,152.57142857142856L36.11637,152.57142857142856L36.34182,152.57142857142856L36.38691,152.57142857142856L36.612359999999995,152.57142857142856L36.83781,152.57142857142856L36.92799,152.57142857142856L37.28871,152.57142857142856L37.3338,152.57142857142856L37.64943,152.57142857142856L37.82979,152.57142857142856L38.235600000000005,152.57142857142856L38.596320000000006,152.57142857142856L39.31776,152.57142857142856L39.49812,152.57142857142856L39.76866,152.57142857142856L39.94902,152.57142857142856L40.0392,152.57142857142856L41.93298,152.57142857142856L41.978069999999995,152.57142857142856L42.06825,152.57142857142856L42.338789999999996,152.57142857142856L42.7446,152.57142857142856L42.83478,152.57142857142856L42.879870000000004,152.57142857142856L43.01514,152.57142857142856L43.28568,152.57142857142856L43.69149,152.57142857142856L43.82676,152.57142857142856L43.87185,152.57142857142856L44.32275,152.57142857142856L45.08928,152.57142857142856L45.17946,152.57142857142856L45.81072,152.57142857142856L46.036170000000006,152.57142857142856L46.12635,152.57142857142856L46.26162,152.57142857142856L46.622339999999994,152.57142857142856L46.89288,152.57142857142856L46.983059999999995,152.57142857142856L47.11833,152.57142857142856L47.38887,152.57142857142856L47.61432,152.57142857142856L48.065220000000004,152.57142857142856L48.33576,152.57142857142856L48.606300000000005,152.57142857142856L48.786660000000005,152.57142857142856L49.0572,152.57142857142856L49.147380000000005,152.57142857142856L49.19247,152.57142857142856L49.28265,152.57142857142856L49.37282999999999,152.57142857142856L49.417919999999995,152.57142857142856L49.64337,152.57142857142856L49.68846,152.57142857142856L50.09427,152.57142857142856L50.36481,152.57142857142856L50.45499,152.57142857142856L50.68044,152.57142857142856L50.90589,152.57142857142856L50.99607,152.57142857142856L51.537150000000004,152.57142857142856L51.852779999999996,152.57142857142856L51.89787,152.57142857142856L51.988049999999994,152.57142857142856L52.07823,152.57142857142856L52.12332,152.57142857142856L52.213499999999996,152.57142857142856L52.75458,152.57142857142856L52.88985,152.57142857142856L53.07021,152.57142857142856L53.20548,152.57142857142856L53.34075,152.57142857142856L53.52111,152.57142857142856L53.5662,152.57142857142856L53.74656,152.57142857142856L53.972010000000004,152.57142857142856L54.0171,152.57142857142856L54.467999999999996,152.57142857142856L54.64836,152.57142857142856L54.783629999999995,152.57142857142856L55.144349999999996,152.57142857142856L55.324709999999996,152.57142857142856L55.45998,152.57142857142856L55.505069999999996,152.57142857142856L55.55016,152.57142857142856L55.86579,152.57142857142856L56.13633,152.57142857142856L56.226510000000005,152.57142857142856L56.2716,152.57142857142856L56.45196,152.57142857142856L56.63232,152.57142857142856L56.767590000000006,152.57142857142856L56.81268,152.57142857142856L56.85777,152.57142857142856L57.038129999999995,152.57142857142856L57.44394,152.57142857142856L57.6243,152.57142857142856L57.66939,152.57142857142856L57.71448,152.57142857142856L57.80466,152.57142857142856L57.84975,152.57142857142856L58.12029,152.57142857142856L58.30065,152.57142857142856L58.34574,152.57142857142856L58.43592,152.57142857142856L58.5261,152.57142857142856L58.66137,152.57142857142856L58.70646,152.57142857142856L58.75155,152.57142857142856L58.796640000000004,152.57142857142856L58.93191,152.57142857142856L59.11227,152.57142857142856L59.337720000000004,152.57142857142856L59.382810000000006,152.57142857142856L59.4279,152.57142857142856L59.69844,152.57142857142856L60.46497,152.57142857142856L60.64533,152.57142857142856L60.73551,152.57142857142856L60.96096,152.57142857142856L62.04312,152.57142857142856L62.133300000000006,152.57142857142856L62.35874999999999,152.57142857142856L62.44893,152.57142857142856L62.62929,152.57142857142856L62.71947,152.57142857142856L63.08019,152.57142857142856L63.35073,152.57142857142856L63.53109,152.57142857142856L63.84672,152.57142857142856L63.9369,152.57142857142856L64.20744,152.57142857142856L64.29762000000001,152.57142857142856L64.43289,152.57142857142856L64.47798,152.57142857142856L64.56816,152.57142857142856L64.92887999999999,152.57142857142856L64.97397,152.57142857142856L65.10924,152.57142857142856L65.42487,152.57142857142856L65.56014,152.57142857142856L65.96595,152.57142857142856L66.14631,152.57142857142856L66.28158,152.57142857142856L66.32667000000001,152.57142857142856L66.73248,152.57142857142856L66.77757,152.57142857142856L66.95793,152.57142857142856L67.00302,152.57142857142856L67.04811000000001,152.57142857142856L67.0932,152.57142857142856L67.27356,152.57142857142856L67.31865,152.57142857142856L67.45392,152.57142857142856L67.49901,152.57142857142856L67.85973,152.57142857142856L68.04008999999999,152.57142857142856L68.13027,152.57142857142856L68.22045,152.57142857142856L68.26554,152.57142857142856L68.67135,152.57142857142856L68.80662,152.57142857142856L69.16734,152.57142857142856L69.25752,152.57142857142856L69.43787999999999,152.57142857142856L69.48297000000001,152.57142857142856L69.70841999999999,152.57142857142856L70.02405,152.57142857142856L70.52004,152.57142857142856L70.61022,152.57142857142856L70.88076,152.57142857142856L71.01603,152.57142857142856L71.10621,152.57142857142856L71.28657000000001,152.57142857142856L71.46692999999999,152.57142857142856L71.55711,152.57142857142856L71.78256,152.57142857142856L71.82764999999999,152.57142857142856L71.87274000000001,152.57142857142856L72.23346000000001,152.57142857142856L72.504,152.57142857142856L72.68436,152.57142857142856L72.72945,152.57142857142856L72.77454,152.57142857142856L73.18035,152.57142857142856L73.4058,152.57142857142856L74.03706,152.57142857142856L74.12723999999999,152.57142857142856L75.02904,152.57142857142856L75.07413,152.57142857142856L75.25449,152.57142857142856L75.29957999999999,152.57142857142856L75.34467000000001,152.57142857142856L76.15629000000001,152.57142857142856L76.38174,152.57142857142856L76.69736999999999,152.57142857142856L76.74246,152.57142857142856L77.013,152.57142857142856L77.10318,152.57142857142856L77.32862999999999,152.57142857142856L77.41881,152.57142857142856L77.68934999999999,152.57142857142856L78.50097,152.57142857142856L78.59115,152.57142857142856L78.68133,152.57142857142856L79.04205,152.57142857142856L79.17732,152.57142857142856L79.53804,152.57142857142856L79.67331,152.57142857142856L79.80857999999999,152.57142857142856L80.39475,152.57142857142856L80.71038,152.57142857142856L80.98092,152.57142857142856L81.16128,152.57142857142856L81.25146,152.57142857142856L81.29655000000001,152.57142857142856L81.56709000000001,152.57142857142856L82.01799,152.57142857142856L82.24344,152.57142857142856L82.28853,152.57142857142856L82.4238,152.57142857142856L82.69434,152.57142857142856L82.78452,152.57142857142856L82.91978999999999,152.57142857142856L83.05506,152.57142857142856L83.19033,152.57142857142856L83.23542,152.57142857142856L84.04704000000001,152.57142857142856L84.72339,152.57142857142856L85.39974,152.57142857142856L85.53501,152.57142857142856L85.5801,152.57142857142856L85.67027999999999,152.57142857142856L85.71537000000001,152.57142857142856L86.66226,152.57142857142856L86.70735,152.57142857142856L86.9328,152.57142857142856L87.06806999999999,152.57142857142856L87.24843,152.57142857142856L87.33860999999999,152.57142857142856L87.51897,152.57142857142856L87.69932999999999,152.57142857142856L87.87969,152.57142857142856L89.00694,152.57142857142856L89.05203,152.57142857142856L89.54802,152.57142857142856L89.90874,152.57142857142856L89.95383,152.57142857142856L90.08909999999999,152.57142857142856L90.17927999999999,152.57142857142856L90.22437000000001,152.57142857142856L90.63018,152.57142857142856L90.94581000000001,152.57142857142856L91.62216,152.57142857142856L91.66725000000001,152.57142857142856L91.80252,152.57142857142856L92.11814999999999,152.57142857142856L92.65923,152.57142857142856L92.88468,152.57142857142856L92.92976999999999,152.57142857142856L93.01995,152.57142857142856L93.33558000000001,152.57142857142856L93.65120999999999,152.57142857142856L93.69630000000001,152.57142857142856L94.10211,152.57142857142856L94.28247,152.57142857142856L94.37265,152.57142857142856L94.55301,152.57142857142856L94.95881999999999,152.57142857142856L95.27445,152.57142857142856L95.31953999999999,152.57142857142856L95.54499,152.57142857142856L95.90571,152.57142857142856L96.31152,152.57142857142856L96.35661,152.57142857142856L96.53697000000001,152.57142857142856L96.76241999999999,152.57142857142856L96.89769000000001,152.57142857142856L96.98787,152.57142857142856L97.12314,152.57142857142856L97.25841000000001,152.57142857142856L97.43876999999999,152.57142857142856L97.79948999999999,152.57142857142856L98.16020999999999,152.57142857142856L98.34057,152.57142857142856L98.47584,152.57142857142856L98.52092999999999,152.57142857142856L98.79147,152.57142857142856L98.83656,152.57142857142856L99.19728,152.57142857142856L99.37764,152.57142857142856L99.42273,152.57142857142856L99.46782,152.57142857142856L99.558,152.57142857142856L99.69327,152.57142857142856L100.0089,152.57142857142856L100.05399,152.57142857142856L100.41471,152.57142857142856L100.45979999999999,152.57142857142856L100.86561,152.57142857142856L101.04597,152.57142857142856L101.13615,152.57142857142856L101.27141999999999,152.57142857142856L101.49687,152.57142857142856L101.54196,152.57142857142856L101.63213999999999,152.57142857142856L101.67723000000001,152.57142857142856L101.72232,152.57142857142856L101.94777,152.57142857142856L102.57902999999999,152.57142857142856L102.98484,152.57142857142856L103.25538,152.57142857142856L103.57101,152.57142857142856L103.6161,152.57142857142856L104.02190999999999,152.57142857142856L104.33754,152.57142857142856L104.74334999999999,152.57142857142856L104.87862000000001,152.57142857142856L105.19425,152.57142857142856L105.28443,152.57142857142856L105.46479000000001,152.57142857142856L105.91569,152.57142857142856L105.96078,152.57142857142856L106.09605,152.57142857142856L106.3215,152.57142857142856L106.50186,152.57142857142856L107.08803,152.57142857142856L107.17821,152.57142857142856L107.2233,152.57142857142856L107.49384,152.57142857142856L107.53893000000001,152.57142857142856L107.58402,152.57142857142856L107.6742,152.57142857142856L108.30546,152.57142857142856L109.11708,152.57142857142856L109.38762,152.57142857142856L109.70325,152.57142857142856L109.97379,152.57142857142856L110.15415,152.57142857142856L110.24433,152.57142857142856L110.33451,152.57142857142856L110.60505,152.57142857142856L110.74032,152.57142857142856L110.8305,152.57142857142856L110.96577,152.57142857142856L111.10104,152.57142857142856L111.23631,152.57142857142856L111.64211999999999,152.57142857142856L111.7323,152.57142857142856L112.27338,152.57142857142856L112.31847,152.57142857142856L112.36355999999999,152.57142857142856L112.99482,152.57142857142856L113.17518,152.57142857142856L113.35554,152.57142857142856L113.5359,152.57142857142856L113.58099,152.57142857142856L113.71626,152.57142857142856L113.80644000000001,152.57142857142856L113.89662,152.57142857142856L114.25734,152.57142857142856L114.34752,152.57142857142856L114.48279,152.57142857142856L114.61806,152.57142857142856L114.75332999999999,152.57142857142856L114.84351,152.57142857142856L114.97878,152.57142857142856L115.11404999999999,152.57142857142856L115.83549000000001,152.57142857142856L116.15111999999999,152.57142857142856L116.37657,152.57142857142856L116.42165999999999,152.57142857142856L116.46675,152.57142857142856L116.55693000000001,152.57142857142856L116.60202,152.57142857142856L116.6922,152.57142857142856L116.78237999999999,152.57142857142856L116.96274,152.57142857142856L117.1431,152.57142857142856L117.36855,152.57142857142856L117.45873,152.57142857142856L117.77436,152.57142857142856L117.86454,152.57142857142856L117.90963,152.57142857142856L118.13508,152.57142857142856L118.31544,152.57142857142856L118.54088999999999,152.57142857142856L118.63107,152.57142857142856L118.67616,152.57142857142856L119.12706,152.57142857142856L119.17215,152.57142857142856L119.35251,152.57142857142856L119.48778,152.57142857142856L119.62304999999999,152.57142857142856L119.66814000000001,152.57142857142856L119.80341,152.57142857142856L119.8485,152.57142857142856L119.93868,152.57142857142856L120.16413,152.57142857142856L120.20922,152.57142857142856L120.52485,152.57142857142856L120.56994,152.57142857142856L120.7503,152.57142857142856L120.84048,152.57142857142856L120.93065999999999,152.57142857142856L121.11102,152.57142857142856L121.56192,152.57142857142856L121.65209999999999,152.57142857142856L121.74228,152.57142857142856L121.78737000000001,152.57142857142856L121.96773,152.57142857142856L122.103,152.57142857142856L122.46372,152.57142857142856L122.64408,152.57142857142856L123.27534,152.57142857142856L123.45570000000001,152.57142857142856L123.54588,152.57142857142856L123.77132999999999,152.57142857142856L123.81642000000001,152.57142857142856L123.9066,152.57142857142856L123.99678,152.57142857142856L124.04186999999999,152.57142857142856L124.13204999999999,152.57142857142856L124.22223,152.57142857142856L124.26732,152.57142857142856L124.58295,152.57142857142856L124.71822,152.57142857142856L124.94367,152.57142857142856L125.48475,152.57142857142856L125.66511,152.57142857142856L125.80038,152.57142857142856L126.25128,152.57142857142856L126.52181999999999,152.57142857142856L126.56691000000001,152.57142857142856L126.65709,152.57142857142856L126.79236,152.57142857142856L126.92763000000001,152.57142857142856L126.97272,152.57142857142856L127.01781,152.57142857142856L127.46871,152.57142857142856L127.5138,152.57142857142856L127.55889,152.57142857142856L127.64907000000001,152.57142857142856L128.19015000000002,152.57142857142856L128.23524,152.57142857142856L128.28033000000002,152.57142857142856L128.32542,152.57142857142856L128.68614,152.57142857142856L129.09195,152.57142857142856L129.85848000000001,152.57142857142856L130.48974,152.57142857142856L130.67010000000002,152.57142857142856L130.71519,152.57142857142856L130.80537,152.57142857142856L131.16609,152.57142857142856L131.25627,152.57142857142856L131.43663,152.57142857142856L131.88753,152.57142857142856L132.24825,152.57142857142856L132.29334,152.57142857142856L132.78933,152.57142857142856L133.15005,152.57142857142856L133.42059,152.57142857142856L133.46568,152.57142857142856L133.55586,152.57142857142856L133.64604,152.57142857142856L133.87149,152.57142857142856L134.72820000000002,152.57142857142856L134.99874,152.57142857142856L135.04383,152.57142857142856L135.49473,152.57142857142856L135.58491,152.57142857142856L135.72018,152.57142857142856L135.76527000000002,152.57142857142856L135.81036,152.57142857142856L136.26126000000002,152.57142857142856L136.30634999999998,152.57142857142856L136.44162,152.57142857142856L136.71215999999998,152.57142857142856L136.93761,152.57142857142856L137.02778999999998,152.57142857142856L137.11797,152.57142857142856L137.20815,152.57142857142856L137.61396,152.57142857142856L137.79432,152.57142857142856L137.97468,152.57142857142856L138.06486,152.57142857142856L138.20013,152.57142857142856L138.60594,152.57142857142856L138.65103,152.57142857142856L138.83139,152.57142857142856L139.10193,152.57142857142856L139.19210999999999,152.57142857142856L139.73319,152.57142857142856L139.77828,152.57142857142856L139.82337,152.57142857142856L139.86846,152.57142857142856L140.00373000000002,152.57142857142856L140.18409,152.57142857142856L140.45463,152.57142857142856L140.49972,152.57142857142856L140.63499,152.57142857142856L140.99571,152.57142857142856L141.22116,152.57142857142856L141.35643,152.57142857142856L141.49169999999998,152.57142857142856L141.53679,152.57142857142856L141.80732999999998,152.57142857142856L141.89751,152.57142857142856L142.16805,152.57142857142856L142.30332,152.57142857142856L142.43859,152.57142857142856L142.48368000000002,152.57142857142856L142.66404,152.57142857142856L143.52075,152.57142857142856L143.70111,152.57142857142856L143.79129,152.57142857142856L144.01674,152.57142857142856L144.24219,152.57142857142856L144.82835999999998,152.57142857142856L145.00871999999998,152.57142857142856L145.14399,152.57142857142856L145.82034000000002,152.57142857142856L146.31633,152.57142857142856L146.36142,152.57142857142856L146.49669,152.57142857142856L146.76722999999998,152.57142857142856L147.08286,152.57142857142856L147.12795,152.57142857142856L147.17304,152.57142857142856L147.21813,152.57142857142856L147.26322000000002,152.57142857142856L147.30830999999998,152.57142857142856L147.66903,152.57142857142856L148.70610000000002,152.57142857142856L148.75118999999998,152.57142857142856L148.79628,152.57142857142856L149.11191,152.57142857142856L149.60789999999997,152.57142857142856L149.69808,152.57142857142856L150.23916,152.57142857142856L150.28425000000001,152.57142857142856L150.41952,152.57142857142856L150.50969999999998,152.57142857142856L150.55479,152.57142857142856L150.64497,152.57142857142856L151.50168,152.57142857142856L151.72713000000002,152.57142857142856L151.8624,152.57142857142856L151.99767,152.57142857142856L152.40348,152.57142857142856L152.44857,152.57142857142856L152.71911,152.57142857142856L152.80928999999998,152.57142857142856L152.85438,152.57142857142856L153.12492,152.57142857142856L153.26019,152.57142857142856L153.53072999999998,152.57142857142856L153.62091,152.57142857142856L153.71108999999998,152.57142857142856L153.84636,152.57142857142856L154.25216999999998,152.57142857142856L154.47762,152.57142857142856L154.56779999999998,152.57142857142856L154.61289,152.57142857142856L154.65798,152.57142857142856L155.15397,152.57142857142856L155.60487,152.57142857142856L155.96559000000002,152.57142857142856L156.73211999999998,152.57142857142856L157.04775,152.57142857142856L157.09284,152.57142857142856L157.22811,152.57142857142856L157.67901,152.57142857142856L157.94955,152.57142857142856L158.12991,152.57142857142856L158.35536,152.57142857142856L158.44554000000002,152.57142857142856L158.53572,152.57142857142856L158.6259,152.57142857142856L158.71608,152.57142857142856L158.89643999999998,152.57142857142856L158.94153,152.57142857142856L159.0768,152.57142857142856L159.34734,152.57142857142856L159.43752,152.57142857142856L159.57279,152.57142857142856L159.93350999999998,152.57142857142856L160.02369000000002,152.57142857142856L160.06877999999998,152.57142857142856L160.11387,152.57142857142856L160.47459,152.57142857142856L161.15094,152.57142857142856L161.24112,152.57142857142856L161.3313,152.57142857142856L161.42148,152.57142857142856L161.51165999999998,152.57142857142856L161.91747,152.57142857142856L162.09783,152.57142857142856L162.684,152.57142857142856L162.86436,152.57142857142856L163.72107,152.57142857142856L164.39742,152.57142857142856L164.44251,152.57142857142856L164.71304999999998,152.57142857142856L164.75814,152.57142857142856L164.84832,152.57142857142856L164.98359000000002,152.57142857142856L165.20904,152.57142857142856L165.34431,152.57142857142856L165.3894,152.57142857142856L165.47958,152.57142857142856L166.20102,152.57142857142856L166.51665,152.57142857142856L166.69701,152.57142857142856L167.01264,152.57142857142856L167.05773,152.57142857142856L167.37336,152.57142857142856L167.50862999999998,152.57142857142856L168.59079,152.57142857142856L168.72606000000002,152.57142857142856L169.04169000000002,152.57142857142856L169.17696,152.57142857142856L169.22205,152.57142857142856L169.31223,152.57142857142856L169.35732,152.57142857142856L169.67295,152.57142857142856L169.76313000000002,152.57142857142856L170.25912,152.57142857142856L170.48457000000002,152.57142857142856L170.89038,152.57142857142856L170.98056,152.57142857142856L171.07074,152.57142857142856L171.25109999999998,152.57142857142856L171.38637,152.57142857142856L171.97253999999998,152.57142857142856L172.01763,152.57142857142856L172.06272,152.57142857142856L172.33326,152.57142857142856L172.69397999999998,152.57142857142856L172.96452000000002,152.57142857142856L173.00960999999998,152.57142857142856L173.0547,152.57142857142856L173.23506,152.57142857142856L173.46051,152.57142857142856L173.77614,152.57142857142856L174.13685999999998,152.57142857142856L174.31722,152.57142857142856L174.49758,152.57142857142856L174.58776,152.57142857142856L174.85829999999999,152.57142857142856L174.99357,152.57142857142856L175.08375,152.57142857142856L175.17392999999998,152.57142857142856L175.26411000000002,152.57142857142856L175.39938,152.57142857142856L175.62483,152.57142857142856L176.16591,152.57142857142856L176.39136,152.57142857142856L176.61681,152.57142857142856L177.42843000000002,152.57142857142856L177.60879000000003,152.57142857142856L177.74406000000002,152.57142857142856L177.96950999999999,152.57142857142856L178.24005,152.57142857142856L178.28514,152.57142857142856L178.46550000000002,152.57142857142856L178.55568,152.57142857142856L178.82622,152.57142857142856L178.87131,152.57142857142856L179.14185,152.57142857142856L179.45748,152.57142857142856L179.72802000000001,152.57142857142856L179.86329,152.57142857142856L180.13383,152.57142857142856L180.62982,152.57142857142856L180.72,152.57142857142856L181.03563,152.57142857142856L181.1709,152.57142857142856L181.30617,152.57142857142856L181.39634999999998,152.57142857142856L181.6218,152.57142857142856L182.34324,152.57142857142856L182.43341999999998,152.57142857142856L182.47851,152.57142857142856L182.65887,152.57142857142856L182.70396,152.57142857142856L182.88432,152.57142857142856L182.9745,152.57142857142856L183.24504000000002,152.57142857142856L183.29012999999998,152.57142857142856L183.60576,152.57142857142856L184.14684,152.57142857142856L184.37229,152.57142857142856L184.50756,152.57142857142856L184.91337,152.57142857142856L184.95846,152.57142857142856L185.229,152.57142857142856L185.27409,152.57142857142856L185.90535,152.57142857142856L186.08571,152.57142857142856L186.17588999999998,152.57142857142856L186.26607,152.57142857142856L186.40134,152.57142857142856L186.53661,152.57142857142856L186.94242,152.57142857142856L187.21295999999998,152.57142857142856L187.30314,152.57142857142856L187.79913,152.57142857142856L187.84422,152.57142857142856L188.11476,152.57142857142856L188.43039,152.57142857142856L189.51254999999998,152.57142857142856L189.64782000000002,152.57142857142856L189.78309000000002,152.57142857142856L189.87327,152.57142857142856L190.82016,152.57142857142856L190.95542999999998,152.57142857142856L191.13579,152.57142857142856L191.18088,152.57142857142856L191.22597000000002,152.57142857142856L191.49651,152.57142857142856L191.63178,152.57142857142856L191.72196,152.57142857142856L192.12777,152.57142857142856L192.30813,152.57142857142856L192.4434,152.57142857142856L192.66885000000002,152.57142857142856L193.02957,152.57142857142856L193.20993,152.57142857142856L193.30011,152.57142857142856L193.39029000000002,152.57142857142856L193.97646,152.57142857142856L194.06664,152.57142857142856L194.20191,152.57142857142856L194.74299,152.57142857142856L194.92335,152.57142857142856L195.14880000000002,152.57142857142856L195.23898,152.57142857142856L195.68988000000002,152.57142857142856L195.78006,152.57142857142856L195.87024000000002,152.57142857142856L196.45641,152.57142857142856L196.72695000000002,152.57142857142856L197.17785,152.57142857142856L197.4033,152.57142857142856L197.71893,152.57142857142856L197.8542,152.57142857142856L197.94438,152.57142857142856L198.84618,152.57142857142856L198.89127,152.57142857142856L198.93635999999998,152.57142857142856L199.16181,152.57142857142856L199.25198999999998,152.57142857142856L199.52253,152.57142857142856L199.70289,152.57142857142856L200.06361,152.57142857142856L200.1087,152.57142857142856L200.33415,152.57142857142856L200.37924,152.57142857142856L200.5596,152.57142857142856L201.05559,152.57142857142856L201.32613,152.57142857142856L201.59667,152.57142857142856L201.73193999999998,152.57142857142856L202.22793000000001,152.57142857142856L202.40829000000002,152.57142857142856L202.58865,152.57142857142856L202.67883,152.57142857142856L202.90428,152.57142857142856L203.08464,152.57142857142856L203.31009,152.57142857142856L203.53554,152.57142857142856L203.7159,152.57142857142856L203.76099,152.57142857142856L203.85117000000002,152.57142857142856L204.25698,152.57142857142856L204.30207000000001,152.57142857142856L204.79806,152.57142857142856L204.88824,152.57142857142856L204.93332999999998,152.57142857142856L205.24896,152.57142857142856L205.33914,152.57142857142856L205.38423,152.57142857142856L205.42932000000002,152.57142857142856L205.47440999999998,152.57142857142856L205.65476999999998,152.57142857142856L205.74495000000002,152.57142857142856L206.73693,152.57142857142856L206.8722,152.57142857142856L207.50346,152.57142857142856L207.72891,152.57142857142856L207.774,152.57142857142856L207.86418,152.57142857142856L208.2249,152.57142857142856L208.45035000000001,152.57142857142856L208.76598,152.57142857142856L210.0285,152.57142857142856L210.34413,152.57142857142856L210.84011999999998,152.57142857142856L211.06557,152.57142857142856L211.47138,152.57142857142856L211.51647,152.57142857142856L211.96737000000002,152.57142857142856L212.01245999999998,152.57142857142856L212.05755,152.57142857142856L212.14773,152.57142857142856L212.23791,152.57142857142856L212.32809,152.57142857142856L212.37318,152.57142857142856L212.41827,152.57142857142856L212.50845,152.57142857142856L213.32007,152.57142857142856L213.54552,152.57142857142856L213.77097,152.57142857142856L213.90624,152.57142857142856L214.04151,152.57142857142856L214.26696,152.57142857142856L214.76295,152.57142857142856L215.16876000000002,152.57142857142856L215.30403,152.57142857142856L215.34912,152.57142857142856L215.75493,152.57142857142856L216.02547,152.57142857142856L216.70182,152.57142857142856L216.74691,152.57142857142856L217.01745,152.57142857142856L217.19781,152.57142857142856L217.33308,152.57142857142856L217.60362,152.57142857142856L217.69379999999998,152.57142857142856L218.09960999999998,152.57142857142856L218.27997,152.57142857142856L218.55051,152.57142857142856L218.77596,152.57142857142856L219.0465,152.57142857142856L219.22686000000002,152.57142857142856L219.45231,152.57142857142856L219.76794,152.57142857142856L219.94830000000002,152.57142857142856L220.35411,152.57142857142856L220.48938,152.57142857142856L221.03046,152.57142857142856L221.34609,152.57142857142856L221.48136,152.57142857142856L221.57154000000003,152.57142857142856L221.61663,152.57142857142856L221.79699,152.57142857142856L221.84208,152.57142857142856L221.88717,152.57142857142856L222.42825000000002,152.57142857142856L222.69879,152.57142857142856L222.74388,152.57142857142856L222.83406,152.57142857142856L223.05951,152.57142857142856L223.1046,152.57142857142856L223.23987,152.57142857142856L223.51041,152.57142857142856L223.69077000000001,152.57142857142856L224.0064,152.57142857142856L224.4573,152.57142857142856L224.72784000000001,152.57142857142856L224.90820000000002,152.57142857142856L225.04347,152.57142857142856L225.40419,152.57142857142856L225.49436999999998,152.57142857142856L226.08053999999998,152.57142857142856L226.2609,152.57142857142856L226.30599,152.57142857142856L227.1627,152.57142857142856L227.20779000000002,152.57142857142856L227.34306,152.57142857142856L227.65869,152.57142857142856L227.74887,152.57142857142856L228.10959,152.57142857142856L228.19977,152.57142857142856L228.24486000000002,152.57142857142856L228.83103,152.57142857142856L228.92121,152.57142857142856L228.96630000000002,152.57142857142856L229.37211000000002,152.57142857142856L229.50738,152.57142857142856L229.59756,152.57142857142856L230.00337,152.57142857142856L230.13863999999998,152.57142857142856L230.22882,152.57142857142856L230.319,152.57142857142856L230.86007999999998,152.57142857142856L231.62661,152.57142857142856L231.85206000000002,152.57142857142856L232.30296,152.57142857142856L232.5735,152.57142857142856L232.88913000000002,152.57142857142856L233.15967,152.57142857142856L233.24985,152.57142857142856L233.43021000000002,152.57142857142856L233.74584000000002,152.57142857142856L233.79093,152.57142857142856L233.83602,152.57142857142856L234.28692,152.57142857142856L235.00836,152.57142857142856L235.23380999999998,152.57142857142856L235.45926,152.57142857142856L235.68471,152.57142857142856L235.7298,152.57142857142856L235.81998,152.57142857142856L235.95524999999998,152.57142857142856L236.40615,152.57142857142856L236.58651,152.57142857142856L236.63160000000002,152.57142857142856L236.90214,152.57142857142856L237.0825,152.57142857142856L237.12759,152.57142857142856L237.48831,152.57142857142856L237.57849,152.57142857142856L237.62358,152.57142857142856L237.66867000000002,152.57142857142856L237.75885,152.57142857142856L237.89412,152.57142857142856L237.93921,152.57142857142856L237.9843,152.57142857142856L238.02939,152.57142857142856L238.20975,152.57142857142856L238.29993,152.57142857142856L238.43519999999998,152.57142857142856L238.48029,152.57142857142856L238.52538,152.57142857142856L238.57047,152.57142857142856L238.66065,152.57142857142856L238.79592,152.57142857142856L238.84100999999998,152.57142857142856L239.11155000000002,152.57142857142856L239.38209,152.57142857142856L239.47227,152.57142857142856L239.60754,152.57142857142856L240.14862,152.57142857142856L240.50934,152.57142857142856L240.55443,152.57142857142856L240.59951999999998,152.57142857142856L240.87006,152.57142857142856L241.18569,152.57142857142856L241.41114000000002,152.57142857142856L241.72677000000002,152.57142857142856L241.90713,152.57142857142856L242.13258000000002,152.57142857142856L242.31294000000003,152.57142857142856L242.58348,152.57142857142856L242.67366,152.57142857142856L242.80893,152.57142857142856L243.12456,152.57142857142856L243.39509999999999,152.57142857142856L243.53037,152.57142857142856L243.62055,152.57142857142856L243.66564,152.57142857142856L243.89109000000002,152.57142857142856" style="fill: none;" fill="none"></path></g></g></g></g></g></g><g transform="translate(60, 178)" clip-path="url(#clip_1)"><clipPath id="clip_1"><rect width="270" height="22"></rect></clipPath><g><g><line x1="0" y1="0" x2="0" y2="5" style="visibility: inherit;" fill="rgb(0, 0, 0)" stroke="rgb(204, 204, 204)" stroke-width="1px"></line><line x1="22.5" y1="0" x2="22.5" y2="5" style="visibility: inherit;" fill="rgb(0, 0, 0)" stroke="rgb(204, 204, 204)" stroke-width="1px"></line><line x1="45" y1="0" x2="45" y2="5" style="visibility: inherit;" fill="rgb(0, 0, 0)" stroke="rgb(204, 204, 204)" stroke-width="1px"></line><line x1="67.5" y1="0" x2="67.5" y2="5" style="visibility: inherit;" fill="rgb(0, 0, 0)" stroke="rgb(204, 204, 204)" stroke-width="1px"></line><line x1="90" y1="0" x2="90" y2="5" style="visibility: inherit;" fill="rgb(0, 0, 0)" stroke="rgb(204, 204, 204)" stroke-width="1px"></line><line x1="112.5" y1="0" x2="112.5" y2="5" style="visibility: inherit;" fill="rgb(0, 0, 0)" stroke="rgb(204, 204, 204)" stroke-width="1px"></line><line x1="135" y1="0" x2="135" y2="5" style="visibility: inherit;" fill="rgb(0, 0, 0)" stroke="rgb(204, 204, 204)" stroke-width="1px"></line><line x1="157.5" y1="0" x2="157.5" y2="5" style="visibility: inherit;" fill="rgb(0, 0, 0)" stroke="rgb(204, 204, 204)" stroke-width="1px"></line><line x1="180" y1="0" x2="180" y2="5" style="visibility: inherit;" fill="rgb(0, 0, 0)" stroke="rgb(204, 204, 204)" stroke-width="1px"></line><line x1="202.5" y1="0" x2="202.5" y2="5" style="visibility: inherit;" fill="rgb(0, 0, 0)" stroke="rgb(204, 204, 204)" stroke-width="1px"></line><line x1="225" y1="0" x2="225" y2="5" style="visibility: inherit;" fill="rgb(0, 0, 0)" stroke="rgb(204, 204, 204)" stroke-width="1px"></line><line x1="247.5" y1="0" x2="247.5" y2="5" style="visibility: inherit;" fill="rgb(0, 0, 0)" stroke="rgb(204, 204, 204)" stroke-width="1px"></line><line x1="270" y1="0" x2="270" y2="5" style="visibility: inherit;" fill="rgb(0, 0, 0)" stroke="rgb(204, 204, 204)" stroke-width="1px"></line></g><g transform="translate(0, 8)"><text x="0" y="0" dx="0em" dy="0.95em" style="text-anchor: middle; visibility: hidden; font-family: Roboto, sans-serif; font-size: 12px; font-weight: 200;" fill="rgb(50, 49, 63)" stroke="none" stroke-width="1px">-500k</text><text x="22.5" y="0" dx="0em" dy="0.95em" style="text-anchor: middle; visibility: inherit; font-family: Roboto, sans-serif; font-size: 12px; font-weight: 200;" fill="rgb(50, 49, 63)" stroke="none" stroke-width="1px">0</text><text x="45" y="0" dx="0em" dy="0.95em" style="text-anchor: middle; visibility: hidden; font-family: Roboto, sans-serif; font-size: 12px; font-weight: 200;" fill="rgb(50, 49, 63)" stroke="none" stroke-width="1px">500k</text><text x="67.5" y="0" dx="0em" dy="0.95em" style="text-anchor: middle; visibility: inherit; font-family: Roboto, sans-serif; font-size: 12px; font-weight: 200;" fill="rgb(50, 49, 63)" stroke="none" stroke-width="1px">1M</text><text x="90" y="0" dx="0em" dy="0.95em" style="text-anchor: middle; visibility: hidden; font-family: Roboto, sans-serif; font-size: 12px; font-weight: 200;" fill="rgb(50, 49, 63)" stroke="none" stroke-width="1px">1.5M</text><text x="112.5" y="0" dx="0em" dy="0.95em" style="text-anchor: middle; visibility: inherit; font-family: Roboto, sans-serif; font-size: 12px; font-weight: 200;" fill="rgb(50, 49, 63)" stroke="none" stroke-width="1px">2M</text><text x="135" y="0" dx="0em" dy="0.95em" style="text-anchor: middle; visibility: hidden; font-family: Roboto, sans-serif; font-size: 12px; font-weight: 200;" fill="rgb(50, 49, 63)" stroke="none" stroke-width="1px">2.5M</text><text x="157.5" y="0" dx="0em" dy="0.95em" style="text-anchor: middle; visibility: inherit; font-family: Roboto, sans-serif; font-size: 12px; font-weight: 200;" fill="rgb(50, 49, 63)" stroke="none" stroke-width="1px">3M</text><text x="180" y="0" dx="0em" dy="0.95em" style="text-anchor: middle; visibility: hidden; font-family: Roboto, sans-serif; font-size: 12px; font-weight: 200;" fill="rgb(50, 49, 63)" stroke="none" stroke-width="1px">3.5M</text><text x="202.5" y="0" dx="0em" dy="0.95em" style="text-anchor: middle; visibility: inherit; font-family: Roboto, sans-serif; font-size: 12px; font-weight: 200;" fill="rgb(50, 49, 63)" stroke="none" stroke-width="1px">4M</text><text x="225" y="0" dx="0em" dy="0.95em" style="text-anchor: middle; visibility: hidden; font-family: Roboto, sans-serif; font-size: 12px; font-weight: 200;" fill="rgb(50, 49, 63)" stroke="none" stroke-width="1px">4.5M</text><text x="247.5" y="0" dx="0em" dy="0.95em" style="text-anchor: middle; visibility: inherit; font-family: Roboto, sans-serif; font-size: 12px; font-weight: 200;" fill="rgb(50, 49, 63)" stroke="none" stroke-width="1px">5M</text><text x="270" y="0" dx="0em" dy="0.95em" style="text-anchor: middle; visibility: hidden; font-family: Roboto, sans-serif; font-size: 12px; font-weight: 200;" fill="rgb(50, 49, 63)" stroke="none" stroke-width="1px">5.5M</text></g><line x1="0" y1="0" x2="270" y2="0" fill="rgb(0, 0, 0)" stroke="rgb(204, 204, 204)" stroke-width="1px"></line></g></g></g></g></svg>