<svg viewBox="0 0 330 200" xmlns="http://www.w3.org/2000/svg"><g><g><g><g><g><line x1="51.5625" y1="178" x2="46.5625" y2="178" style="visibility: inherit;" fill="rgb(0, 0, 0)" stroke="rgb(204, 204, 204)" stroke-width="1px"></line><line x1="51.5625" y1="155.75" x2="46.5625" y2="155.75" style="visibility: inherit;" fill="rgb(0, 0, 0)" stroke="rgb(204, 204, 204)" stroke-width="1px"></line><line x1="51.5625" y1="133.5" x2="46.5625" y2="133.5" style="visibility: inherit;" fill="rgb(0, 0, 0)" stroke="rgb(204, 204, 204)" stroke-width="1px"></line><line x1="51.5625" y1="111.24999999999999" x2="46.5625" y2="111.24999999999999" style="visibility: inherit;" fill="rgb(0, 0, 0)" stroke="rgb(204, 204, 204)" stroke-width="1px"></line><line x1="51.5625" y1="88.99999999999999" x2="46.5625" y2="88.99999999999999" style="visibility: inherit;" fill="rgb(0, 0, 0)" stroke="rgb(204, 204, 204)" stroke-width="1px"></line><line x1="51.5625" y1="66.75" x2="46.5625" y2="66.75" style="visibility: inherit;" fill="rgb(0, 0, 0)" stroke="rgb(204, 204, 204)" stroke-width="1px"></line><line x1="51.5625" y1="44.5" x2="46.5625" y2="44.5" style="visibility: inherit;" fill="rgb(0, 0, 0)" stroke="rgb(204, 204, 204)" stroke-width="1px"></line><line x1="51.5625" y1="22.25" x2="46.5625" y2="22.25" style="visibility: inherit;" fill="rgb(0, 0, 0)" stroke="rgb(204, 204, 204)" stroke-width="1px"></line><line x1="51.5625" y1="0" x2="46.5625" y2="0" style="visibility: inherit;" fill="rgb(0, 0, 0)" stroke="rgb(204, 204, 204)" stroke-width="1px"></line></g><g transform="translate(41.5625, 0)"><text x="0" y="178" dx="0em" dy="0.3em" style="text-anchor: end; visibility: hidden; font-family: Roboto, sans-serif; font-size: 12px; font-weight: 200;" fill="rgb(50, 49, 63)" stroke="none" stroke-width="1px">-0.1</text><text x="0" y="155.75" dx="0em" dy="0.3em" style="text-anchor: end; visibility: inherit; font-family: Roboto, sans-serif; font-size: 12px; font-weight: 200;" fill="rgb(50, 49, 63)" stroke="none" stroke-width="1px">0</text><text x="0" y="133.5" dx="0em" dy="0.3em" style="text-anchor: end; visibility: hidden; font-family: Roboto, sans-serif; font-size: 12px; font-weight: 200;" fill="rgb(50, 49, 63)" stroke="none" stroke-width="1px">0.1</text><text x="0" y="111.24999999999999" dx="0em" dy="0.3em" style="text-anchor: end; visibility: inherit; font-family: Roboto, sans-serif; font-size: 12px; font-weight: 200;" fill="rgb(50, 49, 63)" stroke="none" stroke-width="1px">0.2</text><text x="0" y="88.99999999999999" dx="0em" dy="0.3em" style="text-anchor: end; visibility: hidden; font-family: Roboto, sans-serif; font-size: 12px; font-weight: 200;" fill="rgb(50, 49, 63)" stroke="none" stroke-width="1px">0.3</text><text x="0" y="66.75" dx="0em" dy="0.3em" style="text-anchor: end; visibility: inherit; font-family: Roboto, sans-serif; font-size: 12px; font-weight: 200;" fill="rgb(50, 49, 63)" stroke="none" stroke-width="1px">0.4</text><text x="0" y="44.5" dx="0em" dy="0.3em" style="text-anchor: end; visibility: hidden; font-family: Roboto, sans-serif; font-size: 12px; font-weight: 200;" fill="rgb(50, 49, 63)" stroke="none" stroke-width="1px">0.5</text><text x="0" y="22.25" dx="0em" dy="0.3em" style="text-anchor: end; visibility: inherit; font-family: Roboto, sans-serif; font-size: 12px; font-weight: 200;" fill="rgb(50, 49, 63)" stroke="none" stroke-width="1px">0.6</text><text x="0" y="0" dx="0em" dy="0.3em" style="text-anchor: end; visibility: hidden; font-family: Roboto, sans-serif; font-size: 12px; font-weight: 200;" fill="rgb(50, 49, 63)" stroke="none" stroke-width="1px">0.7</text></g><line x1="51.5625" y1="0" x2="51.5625" y2="178" fill="rgb(0, 0, 0)" stroke="rgb(204, 204, 204)" stroke-width="1px"></line></g></g><g transform="translate(51, 0)" clip-path="url(#clip_0)"><clipPath id="clip_0"><rect width="278" height="178"></rect></clipPath><g><g><g><line x1="0" y1="0" x2="0" y2="178" fill="rgb(0, 0, 0)" stroke="rgb(60, 60, 60)" stroke-width="1px" opacity="0.25"></line><line x1="23.203125" y1="0" x2="23.203125" y2="178" fill="rgb(0, 0, 0)" stroke="rgb(60, 60, 60)" stroke-width="1px" opacity="0.25"></line><line x1="46.40625" y1="0" x2="46.40625" y2="178" fill="rgb(0, 0, 0)" stroke="rgb(60, 60, 60)" stroke-width="1px" opacity="0.25"></line><line x1="69.609375" y1="0" x2="69.609375" y2="178" fill="rgb(0, 0, 0)" stroke="rgb(60, 60, 60)" stroke-width="1px" opacity="0.25"></line><line x1="92.8125" y1="0" x2="92.8125" y2="178" fill="rgb(0, 0, 0)" stroke="rgb(60, 60, 60)" stroke-width="1px" opacity="0.25"></line><line x1="116.015625" y1="0" x2="116.015625" y2="178" fill="rgb(0, 0, 0)" stroke="rgb(60, 60, 60)" stroke-width="1px" opacity="0.25"></line><line x1="139.21875" y1="0" x2="139.21875" y2="178" fill="rgb(0, 0, 0)" stroke="rgb(60, 60, 60)" stroke-width="1px" opacity="0.25"></line><line x1="162.421875" y1="0" x2="162.421875" y2="178" fill="rgb(0, 0, 0)" stroke="rgb(60, 60, 60)" stroke-width="1px" opacity="0.25"></line><line x1="185.625" y1="0" x2="185.625" y2="178" fill="rgb(0, 0, 0)" stroke="rgb(60, 60, 60)" stroke-width="1px" opacity="0.25"></line><line x1="208.828125" y1="0" x2="208.828125" y2="178" fill="rgb(0, 0, 0)" stroke="rgb(60, 60, 60)" stroke-width="1px" opacity="0.25"></line><line x1="232.03125" y1="0" x2="232.03125" y2="178" fill="rgb(0, 0, 0)" stroke="rgb(60, 60, 60)" stroke-width="1px" opacity="0.25"></line><line x1="255.234375" y1="0" x2="255.234375" y2="178" fill="rgb(0, 0, 0)" stroke="rgb(60, 60, 60)" stroke-width="1px" opacity="0.25"></line><line x1="278.4375" y1="0" x2="278.4375" y2="178" fill="rgb(0, 0, 0)" stroke="rgb(60, 60, 60)" stroke-width="1px" opacity="0.25"></line></g><g><line x1="0" y1="178" x2="278.4375" y2="178" fill="rgb(0, 0, 0)" stroke="rgb(60, 60, 60)" stroke-width="1px" opacity="0.25"></line><line x1="0" y1="155.75" x2="278.4375" y2="155.75" fill="rgb(0, 0, 0)" stroke="rgb(60, 60, 60)" stroke-width="1px" opacity="0.25"></line><line x1="0" y1="133.5" x2="278.4375" y2="133.5" fill="rgb(0, 0, 0)" stroke="rgb(60, 60, 60)" stroke-width="1px" opacity="0.25"></line><line x1="0" y1="111.24999999999999" x2="278.4375" y2="111.24999999999999" fill="rgb(0, 0, 0)" stroke="rgb(60, 60, 60)" stroke-width="1px" opacity="0.25"></line><line x1="0" y1="88.99999999999999" x2="278.4375" y2="88.99999999999999" fill="rgb(0, 0, 0)" stroke="rgb(60, 60, 60)" stroke-width="1px" opacity="0.25"></line><line x1="0" y1="66.75" x2="278.4375" y2="66.75" fill="rgb(0, 0, 0)" stroke="rgb(60, 60, 60)" stroke-width="1px" opacity="0.25"></line><line x1="0" y1="44.5" x2="278.4375" y2="44.5" fill="rgb(0, 0, 0)" stroke="rgb(60, 60, 60)" stroke-width="1px" opacity="0.25"></line><line x1="0" y1="22.25" x2="278.4375" y2="22.25" fill="rgb(0, 0, 0)" stroke="rgb(60, 60, 60)" stroke-width="1px" opacity="0.25"></line><line x1="0" y1="0" x2="278.4375" y2="0" fill="rgb(0, 0, 0)" stroke="rgb(60, 60, 60)" stroke-width="1px" opacity="0.25"></line></g></g></g><g><g><line x1="0" y1="155.75" x2="278.4375" y2="155.75" fill="rgb(0, 0, 0)" stroke="rgb(153, 153, 153)" stroke-width="1.5px"></line></g></g><g><g><line x1="23.203125" y1="0" x2="23.203125" y2="178" fill="rgb(0, 0, 0)" stroke="rgb(153, 153, 153)" stroke-width="1.5px"></line></g></g><g><g><g><g><g><path stroke="rgb(238, 51, 119)" stroke-width="2px" d="M23.899775625,155.75L24.5042634375,155.75L24.783257812499997,155.75L25.5272428125,155.75L25.6202409375,155.75L25.759738125000002,155.75L25.852736250000003,155.75L26.131730625,155.75L26.271227812499998,155.75L26.968713750000003,155.75L27.1082109375,155.75L27.340706249999997,155.75L27.712698749999998,155.57781683727188L28.0381921875,155.43023158930677L28.410184687500003,155.30232467315125L28.549681875,155.19040640159017L28.5961809375,155.09165524910605L28.921674375,155.00387669585197L29.154169687499998,154.92533822615917L29.5261621875,154.74234325411442L30.13065,154.57677692708273L30.6421396875,154.52846497756366L30.874635,154.48435422903347L31.0141321875,154.35014060984318L31.432623749999998,154.13659194632893L31.479122812499998,153.93947092523783L31.9441134375,153.67346854930238L32.17660875,153.42646745568302L32.269606875,153.2743056419034L32.3161059375,153.13228863613696L32.5021021875,152.9994346827657L32.8740946875,152.8042698324235L33.2460871875,152.62093413358429L33.29258625,152.44838383757983L33.5250815625,152.22103584045098L34.03657125,151.94342572865108L34.315565625,151.74204755947733L34.5480609375,151.55126941893218L34.687558125,151.4284184160578L35.245546874999995,151.08484231557384L35.52454125,150.59194442010383L35.7570365625,150.1225210638473L36.08253,149.46357930838852L36.26852625,148.8345939630222L36.361524375,148.18302741616066L37.2450065625,147.31246249544998L37.477501874999994,146.43051129099842L37.5240009375,145.58531468051422L37.75649625,144.8211294526167L37.9889915625,144.0875176307792L38.0819896875,143.47213594900745L38.453982187499996,143.01209546243308L38.50048125,142.56941883443417L38.8259746875,142.14314140616136L39.0119709375,141.77392565345303L39.430462500000004,141.45873462768108L39.802455,141.31516033534245L40.54644,140.97920746281048L40.73243625,140.61582955091941L41.011430624999996,140.18819081552283L41.197426875,139.77457716231888L41.290425,139.337316842447L43.243385624999995,138.80467022233086L43.2898846875,138.28867423214348L43.3828828125,137.7532221539923L43.6618771875,137.2688215502978L44.08036875,136.73025130219605L44.173366875,136.1736978410031L44.2198659375,135.69999358081333L44.359363125,135.2398290248563L44.638357500000005,134.9224242005735L45.0568490625,134.54981348659942L45.196346250000005,134.18741563811352L45.2428453125,133.80363784551926L45.7078359375,133.46087699786776L46.49832,133.15752859160966L46.591318125,132.86206311070643L47.242305,132.5741773656646L47.4748003125,132.23502827846224L47.5677984375,131.8754363300228L47.707295625,131.52472787544968L48.079288125,131.06958474197964L48.358282499999994,130.59749329673448L48.451280624999995,130.16425140832288L48.5907778125,129.76850107643796L48.8697721875,129.3549720601501L49.102267499999996,128.89757418409124L49.567258125,128.3977776341844L49.8462525,127.9092196392369L50.125246875,127.37984744761529L50.311243125000004,126.91325301214427L50.5902375,126.43150663419713L50.683235625,125.9851701203188L50.729734687500006,125.548336904779L50.82273281249999,125.16978583141433L50.915730937499994,124.75053548842226L50.96223,124.33993605760723L51.1947253125,123.96154609699308L51.241224374999994,123.54361774224576L51.659715937499996,123.11068474974233L51.9387103125,122.75578152769182L52.0317084375,122.40784305422662L52.26420375,122.11211198298582L52.4966990625,121.82207303087687L52.5896971875,121.58218729794963L53.1476859375,121.3468318330477L53.473179374999994,121.05013059867346L53.5196784375,120.75892902894869L53.6126765625,120.47307575684552L53.7056746875,120.21377495855413L53.75217375,119.98031900657777L53.845171875,119.70905737717274L54.403160625,119.38016018344956L54.542657812499996,119.03639773744469L54.7286540625,118.71909221255538L54.86815125,118.42756889128262L55.0076484375,118.10075082999066L55.193644687500004,117.73951659030669L55.24014375,117.40418318468556L55.426140000000004,117.05477808270814L55.6586353125,116.71115514942656L55.705134375,116.37317220020007L56.170125,116.079123030775L56.356121249999994,115.8088926360833L56.4956184375,115.56191819024794L56.8676109375,115.31886904103563L57.0536071875,115.11694643897883L57.193104375,114.93669342857106L57.2396034375,114.70411124291361L57.2861025,114.47511217182104L57.6115959375,114.2496141591079L57.8905903125,113.99156839324183L57.9835884375,113.77312487499665L58.0300875,113.54021297307865L58.21608375,113.29314593481001L58.402080000000005,112.96226857708483L58.5415771875,112.67097022996599L58.58807625,112.38390015737146L58.634575312500004,112.10096710139842L58.8205715625,111.78803569953726L59.239063124999994,111.4288175460275L59.425059375,111.0914671270634L59.4715584375,110.7588427732097L59.5180575,110.43084602455353L59.611055625,110.107381137316L59.657554687499996,109.82109836768805L59.9365490625,109.53871747751332L60.1225453125,109.26015937444036L60.169044375,108.98534708940119L60.2620425,108.7142057058349L60.355040625,108.47839872512698L60.4945378125,108.27724339305388L60.541036875,108.07872257479804L60.5875359375,107.88278494850901L60.634035000000004,107.6893805167704L60.7735321875,107.49846056414988L60.959528437500005,107.27936459921929L61.192023750000004,107.06304766463747L61.2385228125,106.86458605258838L61.285021875000005,106.66861040712013L61.564016249999995,106.49002971024437L62.3545003125,106.29878822404234L62.540496562499996,106.09511212704389L62.6334946875,105.89392535358219L62.865990000000004,105.72442505893757L63.9819675,105.45519021080665L64.074965625,105.1458066253627L64.3074609375,104.82573362924425L64.40045906249999,104.49515437809876L64.5864553125,104.22537637758248L64.6794534375,103.97291061556722L65.0514459375,103.75153557079312L65.3304403125,103.50472720170774L65.5164365625,103.27468845901167L65.84193,103.06113823173484L65.934928125,102.85002087228183L66.2139225,102.68242406555977L66.306920625,102.51671525984466L66.4464178125,102.38000210690727L66.492916875,102.25831281442649L66.585915,102.15140452329736L66.95790749999999,102.1125012413968L67.0044065625,102.06072549336186L67.14390374999999,101.96981521056374L67.4693971875,101.9062261390503L67.60889437499999,101.85642611714954L68.0273859375,101.80716024371665L68.2133821875,101.78437309511095L68.352879375,101.74891362094854L68.3993784375,101.70097612665226L68.81787,101.69191599938374L68.8643690625,101.68295053395809L69.0503653125,101.6614072577299L69.096864375,101.64008676321338L69.1433634375,101.61898562297114L69.1898625,101.59810047951348L69.37585875,101.55255245055247L69.42235781250001,101.50746598357853L69.561855,101.46283412031255L69.6083540625,101.41865004164066L69.9803465625,101.41154870045116L70.16634281249999,101.3437214378756L70.2593409375,101.2765646858983L70.3523390625,101.210068583978L70.39883812500001,101.1322247418165L70.8173296875,101.01930052606413L70.95682687499999,100.87178833475696L71.328819375,100.67832828507528L71.42181749999999,100.4631424544448L71.60781374999999,100.26175483055877L71.6543128125,100.0739744301925L71.886808125,99.87633026398038L72.2123015625,99.68054883100568L72.72379124999999,99.50969232691004L72.816789375,99.328935219392L73.09578375,99.18420314913836L73.23528093750001,99.02940913668147L73.3282790625,98.89874923321098L73.5142753125,98.76928727571703L73.70027156249999,98.65226877548957L73.79326968749999,98.54752984428387L74.025765,98.48842296029551L74.0722640625,98.44097476314515L74.118763125,98.39395195862524L74.490755625,98.32527259974437L74.76975,98.23521436642599L74.95574625,98.16785584201442L75.0022453125,98.10109070820464L75.048744375,98.03491119120622L75.46723593749999,97.96930965242457L75.69973125,97.92584362975026L76.35071812499999,97.85053030972948L76.44371625,97.78656663036972L77.37369749999999,97.78711008382923L77.42019656250001,97.79826828588916L77.6061928125,97.84106996762341L77.652691875,97.87296886329365L77.6991909375,97.90459845154356L78.53617406250001,97.85226801549621L78.768669375,97.81079890034218L79.09416281249999,97.82160014816408L79.140661875,97.83231169920528L79.41965625,97.85324400047936L79.512654375,97.89454790378093L79.74514968749999,97.92527796546901L79.8381478125,97.95575694467358L80.1171421875,97.97582603410443L80.9541253125,97.89447497989143L81.0471234375,97.80369077427835L81.1401215625,97.70358218080669L81.5121140625,97.58423717653045L81.65161124999999,97.45586016838992L82.02360374999999,97.27875607378314L82.1631009375,97.08322383615486L82.30259812499999,96.84970988320511L82.9070859375,96.62787709279607L83.232579375,96.46666030912557L83.51157375,96.29692010173667L83.69757,96.12849787106245L83.790568125,95.97109249093518L83.83706718750001,95.8245815736323L84.11606156250001,95.73709036194415L84.58105218749999,95.68873660637284L84.8135475,95.65033649429859L84.86004656249999,95.62178149192964L84.99954375,95.64105378155648L85.278538125,95.67916313403332L85.37153625,95.69806592134385L85.51103343749999,95.71682732962122L85.650530625,95.70725148940899L85.7900278125,95.69774674723561L85.836526875,95.67897337511604L86.67351000000001,95.6882659483665L87.3709959375,95.68821061109989L88.06848187499999,95.66965506882157L88.2079790625,95.64201361398136L88.25447812499999,95.6237653115334L88.34747625,95.60564912798736L88.3939753125,95.56025830462315L89.370455625,95.45144599619844L89.41695468750001,95.34341319270834L89.64945,95.21804985232458L89.7889471875,95.07553193422463L89.97494343749999,94.94302005709346L90.0679415625,94.78453907652725L90.2539378125,94.64505643631936L90.4399340625,94.51546682290403L90.62593031249999,94.40455864139903L91.788406875,94.36531248268234L91.8349059375,94.32633886366942L92.34639562499999,94.27001770194857L92.71838812499999,94.1965197152659L92.76488718750001,94.1322838256477L92.90438437499999,94.07721922449572L92.9973825,94.01382488254464L93.0438815625,93.93350103875966L93.462373125,93.79313457625075L93.7878665625,93.6278258400338L94.4853525,93.42920846642647L94.53185156250001,93.23192503537219L94.67134874999999,93.01884909935731L94.9968421875,92.83279176290311L95.5548309375,92.6309554708249L95.78732625,92.43894138796931L95.8338253125,92.2481960733179L95.92682343749999,92.05870708738082L96.252316875,91.88728872603447L96.57781031249999,91.73377210878185L96.62430937500001,91.58125695136546L97.0428009375,91.42973356175776L97.22879718749999,91.2625506364141L97.3217953125,91.0798517586921L97.5077915625,90.91488078581192L97.926283125,90.72620985847539L98.2517765625,90.54697743716882L98.29827562499999,90.3606801082681L98.53077093750001,90.18375451760176L98.9027634375,90.03244519690412L99.321255,89.89837849365821L99.36775406250001,89.75703538356643L99.5537503125,89.62468033830737L99.78624562499999,89.50123303554471L99.9257428125,89.40272893902572L100.01874093750001,89.32091084278403L100.158238125,89.27166228257452L100.29773531250001,89.21472390822774L100.4837315625,89.18205865089716L100.85572406249999,89.17345448812749L101.22771656249999,89.18076902309784L101.4137128125,89.20386413343834L101.55321,89.2426034122025L101.5997090625,89.27323477495175L101.8787034375,89.30368048225004L101.9252025,89.33394220177283L102.297195,89.3796475764486L102.48319125,89.44845864082608L102.5296903125,89.51685750385927L102.57618937500001,89.57709318896339L102.6691875,89.63697013117326L102.8086846875,89.69649149609462L103.13417812499999,89.74026581537855L103.1806771875,89.79146008151744L103.5526696875,89.85001258637668L103.59916874999999,89.88529840932206L104.0176603125,89.95086736930591L104.2036565625,90.00844959082772L104.29665468750001,90.05052535146207L104.436151875,90.1074916933561L104.6686471875,90.14902973889842L104.71514625,90.19032802439499L104.808144375,90.21636191905131L104.8546434375,90.24224638115717L104.90114249999999,90.2679826807835L105.13363781250001,90.26373125361003L105.7846246875,90.2520613452699L106.20311625000001,90.24045768402932L106.482110625,90.25114360215396L106.80760406249999,90.21742470983948L106.85410312500001,90.1765220445838L107.2725946875,90.12849242812854L107.598088125,90.07339209671545L108.0165796875,90.02592231615398L108.15607687500001,89.95679863170672L108.4815703125,89.89534835186616L108.5745684375,89.82696559291968L108.76056468750001,89.75896064231058L109.2255553125,89.67685026776415L109.272054375,89.58796735513144L109.41155156250001,89.4995716076789L109.644046875,89.44042502297958L109.830043125,89.39595184088266L110.4345309375,89.38035867847314L110.52752906250001,89.37913747084104L110.574028125,89.37792286914187L110.8530225,89.36960255775803L110.89952156250001,89.36132701989396L110.946020625,89.35309589922309L111.03901875,89.33784309417663L111.690005625,89.28741964137376L112.52698875,89.2302295863067L112.80598312500001,89.15228338923605L113.1314765625,89.09576486648984L113.4104709375,89.02556530419452L113.5964671875,88.96271076413377L113.6894653125,88.92106694457826L113.7824634375,88.88658685987755L114.0614578125,88.88694011913503L114.200955,88.89420751471735L114.29395312499999,88.92214132664802L114.4334503125,88.94304313441997L114.5729475,88.98445431267643L114.7124446875,89.02565152878103L115.13093624999999,89.06663641624161L115.223934375,89.12107016146952L115.78192312499999,89.17522474215616L115.82842218750001,89.22910227346334L115.87492125,89.28270484924197L116.525908125,89.30893936819187L116.711904375,89.34180062556668L116.897900625,89.3812416343196L117.08389687500001,89.42048331795797L117.1303959375,89.46624609028356L117.269893125,89.51848409935883L117.36289125,89.55707619379858L117.455889375,89.5954751288114L117.827881875,89.64701266007265L117.92088000000001,89.69164157690646L118.0603771875,89.7227713548404L118.19987437500001,89.7736234262817L118.33937156249999,89.81761153023028L118.4323696875,89.86798204634077L118.57186687500001,89.89834512010802L118.7113640625,89.92855908621608L119.4553490625,89.93894265250272L119.78084249999999,89.94272744135155L120.0133378125,89.93342310105821L120.059836875,89.92416402667769L120.1063359375,89.91494989328191L120.1993340625,89.90578037904457L120.24583312499999,89.90314031444285L120.33883125,89.90051297528045L120.43182937499999,89.8978982710768L120.617825625,89.8888479642959L120.803821875,89.87340504919153L121.0363171875,89.83876454688999L121.12931531250001,89.81070078868858L121.45480875,89.7827704557859L121.547806875,89.74219729625325L121.59430593750001,89.69544044301797L121.82680125,89.64254053514945L122.0127975,89.59624190126951L122.2452928125,89.54382064335586L122.33829093749999,89.49164526482947L122.38479,89.44603098326266L122.84978062500001,89.38801905644884L122.8962796875,89.3302774168316L123.0822759375,89.27908650004092L123.221773125,89.22186217833112L123.3612703125,89.14612426642567L123.407769375,89.0707361217057L123.5472665625,89.00193223219767L123.593765625,88.93344469528923L123.68676375000001,88.87148583679371L123.9192590625,88.82221732602066L123.96575812500001,88.77317386784664L124.2912515625,88.73053520061035L124.33775062500001,88.69426073943929L124.52374687499999,88.65199154228671L124.616745,88.60376527373141L124.70974312499999,88.55575692846402L124.89573937499999,88.48345747680541L125.36072999999999,88.36867012407158L125.453728125,88.26050365233117L125.54672624999999,88.15891665305179L125.59322531250001,88.05778382415252L125.7792215625,87.95710217698003L125.91871875,87.84474222634296L126.29071125,87.75103988045234L126.4767075,87.65775292713144L127.127694375,87.52265417322414L127.313690625,87.40019534333885L127.40668875,87.27827598238443L127.6391840625,87.17489648751874L127.685683125,87.06597937482795L127.77868125,86.9575390876042L127.871679375,86.84360163488219L127.91817843749999,86.73612180990243L128.0111765625,86.62910960801084L128.1041746875,86.52850299959225L128.15067375,86.42240125698774L128.47616718749998,86.3108371294329L128.615664375,86.19384307139863L128.8481596875,86.07145126327323L129.4061484375,85.93780173573528L129.5921446875,85.81060761232715L129.731641875,85.701575408505L130.1966325,85.5871460663724L130.475626875,85.48491117297557L130.5221259375,85.38895503891742L130.6151240625,85.28757201440453L130.75462124999999,85.18079374639643L130.8941184375,85.06865160227906L130.9406175,84.96278883059995L130.9871165625,84.86316871098911L131.4521071875,84.73503009037223L131.49860625,84.60165087542504L131.5451053125,84.45729217481919L131.6381034375,84.31929655418026L132.1960921875,84.17612580146961L132.24259125,84.02780942734081L132.2890903125,83.88010921988472L132.335589375,83.73874491568937L132.707581875,83.60939462626564L133.1260734375,83.45775632909614L133.9165575,83.33522635885262L134.567544375,83.21320049773733L134.753540625,83.09735467311567L134.8000396875,82.98198362010629L134.8930378125,82.87840722249737L135.2650303125,82.76394840412743L135.3580284375,82.64431199858888L135.5440246875,82.51952686445824L136.0090153125,82.38962159768387L136.3810078125,82.26024264002318L136.427506875,82.12016782782014L136.9389965625,81.98625937370724L137.3109890625,81.8640753946059L137.5899834375,81.74238270467508L137.6364825,81.6156027636265L137.729480625,81.47819615630999L137.82247875,81.35801566745403L138.05497406249998,81.23831479461121L138.93845625,81.18559850387003L139.217450625,81.16076213195976L139.2639496875,81.13049848430222L139.7289403125,81.08380173715447L139.82193843750002,81.04279912260694L139.961435625,81.00745970645136L140.0079346875,80.9722595016089L140.05443375,80.92622723729447L140.519424375,80.89133005654122L140.56592343749998,80.8511003755206L140.70542062500002,80.81102801066616L140.98441499999998,80.74929876826512L141.2169103125,80.66058291270689L141.30990843749998,80.57764963292675L141.4029065625,80.48960859871298L141.4959046875,80.41275254303882L141.91439625,80.29288076328126L142.1003925,80.17347181987428L142.28638875,80.07071908434584L142.37938687500002,79.96836166302303L142.5188840625,79.88254723705384L142.93737562500002,79.79168610773172L142.9838746875,79.706540742626L143.16987093749998,79.6270811173267L143.4488653125,79.56398335590913L143.54186343749998,79.50647121919894L144.0998521875,79.45985351099333L144.14635125,79.41341261716629L144.1928503125,79.36182449047524L144.239349375,79.31574700700007L144.3788465625,79.27515167585744L144.56484281250002,79.2347092382278L144.8438371875,79.20500610669468L144.89033625000002,79.18070080766569L145.0298334375,79.1617656443801L145.4018259375,79.14290130059564L145.63432125,79.13990128811383L145.7738184375,79.1263975506481L145.913315625,79.11294405690523L145.9598146875,79.09954053368726L146.2388090625,79.08095065160224L146.3318071875,79.06765856301953L146.6108015625,79.05963752337468L146.75029875,79.04121625752347L146.8897959375,79.02807073931729L146.936295,79.02017448522695L147.12229125000002,79.01230721113903L148.0057734375,79.01484291357863L148.1917696875,79.02772970069213L148.28476781249998,79.03539611544922L148.517263125,79.0533675089827L148.74975843750002,79.08675241827055L149.35424625,79.12516887498538L149.54024249999998,79.163445995369L149.67973968750002,79.19130587919014L150.377225625,79.23446285675323L150.8887153125,79.27746408691162L150.93521437500002,79.3203103898462L151.0747115625,79.36300257999302L151.3537059375,79.38001170224857L151.679199375,79.38166179997958L151.72569843749997,79.3833059919105L151.7721975,79.38494430887202L151.8186965625,79.39165645873862L151.865195625,79.39834470370604L151.9116946875,79.40500916792129L152.2836871875,79.42177042954137L153.353165625,79.44352606931201L153.39966468749998,79.45511000656052L153.44616375,79.46665302379412L153.77165718749998,79.46808612299768L154.28314687499997,79.47454242367566L154.376145,79.47093218738496L154.93413375,79.46231899135768L154.9806328125,79.45373597621033L155.12013000000002,79.44017991584987L155.213128125,79.42667120391633L155.2596271875,79.413209599501L155.3526253125,79.38982602247546L156.2361075,79.36652372842835L156.46860281250002,79.33833019716275L156.6081,79.31520033462796L156.7475971875,79.2871906230981L157.16608875,79.27413896456042L157.21258781249998,79.25618462010834L157.4915821875,79.22840878299345L157.58458031249998,79.19085718683353L157.63107937499998,79.1583640974223L157.91007375,79.11121144960511L158.0495709375,79.0593024713248L158.3285653125,79.0026590887877L158.4215634375,78.94130311259426L158.51456156249998,78.87035628441308L158.65405875000002,78.79965069794822L159.0725503125,78.71940886266006L159.305045625,78.63943903021416L159.39804374999997,78.54998689774857L159.4445428125,78.4608370536293L159.491041875,78.37685290454336L160.0025315625,78.28829256652685L160.4675221875,78.2145902686132L160.8395146875,78.15567848700107L161.62999875,78.11149012153174L161.95549218750003,78.06744971541183L162.00199125,78.03321774257954L162.1414884375,77.989450149496L162.6064790625,77.95546707012741L162.8854734375,77.91196968427951L163.07146968749998,77.878233059638L163.303965,77.8398058343252L163.396963125,77.79191198236481L163.48996125,77.73459369150225L163.582959375,77.66310698456806L163.6759575,77.60141688130577L163.86195375,77.53038007516881L163.9084528125,77.45957685949726L164.04795,77.38424210946818L164.326944375,77.31391292548328L164.4199425,77.23906080746487L164.5594396875,77.16445336603314L164.93143218749998,77.0948318360975L165.02443031250002,77.02070017682077L165.070929375,76.94207807332785L165.1174284375,76.85898508730789L165.4894209375,76.79032490432601L166.18690687499998,76.71717141041788L166.279905,76.64896508652696L166.372903125,76.58568434864263L166.46590125,76.51320773857782L166.55889937499998,76.44096458600887L166.9773909375,76.38302253979836L167.1633871875,76.33463536403991L167.767875,76.27704494467781L167.95387125000002,76.21963895902157L168.8373534375,76.15307869832078L169.534839375,76.1100499946122L169.5813384375,76.05784110121681L169.8603328125,76.0011448462604L169.906831875,75.93998031932573L169.99983,75.87900998954422L170.13932718750002,75.81823296388963L170.37182249999998,75.74838155264959L170.51131968750002,75.68337936340073L170.55781875,75.61858238252174L170.650816875,75.55398967207434L171.394801875,75.50805413778355L171.72029531249999,75.46687152714149L171.9062915625,75.4304217711377L172.231785,75.38948761283736L172.2782840625,75.34868159043279L172.60377749999998,75.3263586382962L172.7432746875,75.29493734373989L173.85925218749998,75.32314300128014L173.99874937500002,75.34668654987675L174.32424281250002,75.37929589901451L174.46374,75.41180402430297L174.5102390625,75.44421138013585L174.60323718749999,75.46740820304443L174.64973625,75.48598298352123L174.9752296875,75.48631805746317L175.0682278125,75.48665209847005L175.5797175,75.48698511114446L175.8122128125,75.47372283763578L176.230704375,75.44239433875343L176.3237025,75.41568395073493L176.41670062499998,75.38905533944194L176.602696875,75.35799539239038L176.7421940625,75.33153839489333L177.346681875,75.30966554848251L177.3931809375,75.28785930398176L177.43968,75.27510794387045L177.71867437499998,75.2713747097731L178.09066687499998,75.27213793383774L178.36966125,75.26393767568986L178.41616031249998,75.25576221865128L178.462659375,75.24761145445139L178.648655625,75.24841930282794L178.8811509375,75.24476220071247L179.206644375,75.22774198495624L179.578636875,75.20631933724071L179.764633125,75.18496096180938L179.950629375,75.15922191536187L180.0436275,75.12911963712457L180.322621875,75.10797896363285L180.4621190625,75.09133279606878L180.5551171875,75.06588218793848L180.64811531249998,75.0360846690616L180.74111343750002,75.01079402091926L180.880610625,74.98116450273848L181.1131059375,74.96044203100412L181.67109468750002,74.92656508921526L181.90358999999998,74.88838736012625L182.1360853125,74.85032237113694L182.97306843750002,74.816762013758L183.1590646875,74.79207670939093L183.29856187500002,74.77623168659773L183.53105718749998,74.76043321139765L183.8100515625,74.74468108685116L183.856550625,74.72897511712617L184.042546875,74.72641585659213L184.135545,74.71950136328368L184.414539375,74.72132410093178L184.46103843749998,74.72749588764637L184.7400328125,74.72494932153508L185.06552625,74.70502600632227L185.344520625,74.6808186480624L185.4840178125,74.66101926192448L185.76301218749998,74.62394259341093L186.274501875,74.58697317589336L186.3675,74.55443602258673L186.6929934375,74.51767136983533L186.832490625,74.48101266086834L186.9719878125,74.44445945666995L187.06498593749998,74.40370209600025L187.29748125,74.36306174006917L188.04146625,74.33974256290412L188.134464375,74.3207873092752L188.1809634375,74.29329995406391L188.36695968749999,74.26589111262932L188.41345875000002,74.2385604627152L188.599455,74.2241513671875L188.692453125,74.2055060044069L188.9714475,74.18691363398271L189.0179465625,74.15556583073605L189.34344000000002,74.11151044935558L189.90142875,74.07610296806789L190.1339240625,74.03228025955919L190.27342125,73.98007374150237L190.6919128125,73.93226442681141L190.738411875,73.88458981897037L191.01740625000002,73.84977597191883L191.0639053125,73.80658325662077L191.7148921875,73.76774631382798L191.90088843750002,73.73747967421365L191.9938865625,73.70729779195857L192.0868846875,73.67720032657711L192.22638187500002,73.63874832446636L192.3658790625,73.6088346665923L192.784370625,73.56215733860301L193.06336499999998,73.5282339353901L193.156363125,73.49860908949854L193.6678528125,73.46486598716103L193.714351875,73.43121646403101L193.99334625,73.41023937580765L194.31883968749997,73.38513094440289L195.4348171875,73.37264891947135L195.574314375,73.36020134458109L195.7138115625,73.33107482886885L195.8068096875,73.30620315491582L196.78329,73.28557088342545L196.9227871875,73.25666058026601L197.1087834375,73.23199330488337L197.1552825,73.19907345177741L197.2017815625,73.16624370118899L197.4807759375,73.13765656660816L197.62027312499998,73.1008489355658L197.71327125,73.05999600496742L198.1317628125,73.04410704939652L198.31775906250002,73.03239987068575L198.45725625,73.0207245086482L198.68975156250002,73.01321229371298L199.06174406250003,72.98920880266265L199.2477403125,72.96114593941638L199.3407384375,72.92903812642876L199.4337365625,72.90113441527737L200.038224375,72.869192155143L200.1312225,72.82911525845434L200.2707196875,72.78914626603098L200.8287084375,72.72876768701411L201.0147046875,72.66445134536954L201.24720000000002,72.61259706839874L201.340198125,72.56088176067733L201.80518875,72.51339451308401L201.898186875,72.47012044904952L201.991185,72.43512752632523L202.5956728125,72.40838672072353L202.87466718750002,72.38986914233209L203.3396578125,72.37547344241216L203.572153125,72.35704680097989L203.8976465625,72.34273493512433L204.03714374999998,72.31627357296165L204.130141875,72.28176404775492L205.06012312500002,72.22706690588336L205.1066221875,72.16846190258497L205.15312125,72.11001164511902L205.3856165625,72.05171555052543L205.4786146875,71.99357303876148L205.7576090625,71.9436619367465L205.9436053125,71.90598977703088L206.31559781250002,71.87244916041382L206.36209687500002,71.84302587864099L206.59459218749998,71.80160139521091L206.64109125,71.7683309816309L206.8270875,71.74318671898989L207.3385771875,71.7341735079321L207.61757156250002,71.72919693218331L207.8965659375,71.74027290705155L208.036063125,71.74731336755521L208.54755281250002,71.72631118887087L208.7335490625,71.70136326755078L208.91954531250002,71.67248296657178L209.0125434375,71.63968357170523L209.24503875,71.61095980585465L209.431035,71.57832271406546L209.6635303125,71.53381665179859L209.896025625,71.48544412689023L210.08202187499998,71.44515250030855L210.1285209375,71.4049645770132L210.22151906250002,71.35693622901002L210.640010625,71.28124993821967L210.6865096875,71.20575781384372L211.197999375,71.13442169169082L211.2909975,71.0553492740006L211.33749656249998,70.9725226816313L211.66299,70.87804775374009L211.755988125,70.78381388263021L211.8024871875,70.693767356939L211.84898625000002,70.6078942040141L211.8954853125,70.51435732219748L212.0814815625,70.42105807779978L212.1744796875,70.32799561288533L213.1974590625,70.25089700339917L213.33695625,70.17399364009049L213.98794312500002,70.10513673206972L214.2204384375,70.05606863395697L214.26693749999998,70.0071243999274L214.359935625,69.95438660455375L214.731928125,69.9174376859086L214.96442343750002,69.85711548997413L215.28991687500002,69.80866916958816L216.59189062500002,69.74472399073468L216.9173840625,69.68093920750212L217.42887375,69.63291121204269L217.6613690625,69.59279603930761L218.079860625,69.55667456157242L218.12635968749998,69.52064330794046L218.5913503125,69.50025217628489L218.63784937499997,69.48379651974932L218.6843484375,69.46350008385495L218.77734656250001,69.44325413266007L218.8703446875,69.42693447219763L218.9633428125,69.41065532026774L219.00984187499998,69.39441653434974L219.05634093749998,69.37821797258883L219.14933906250002,69.35819496272387L219.9863221875,69.32277469454354L220.2188175,69.27586533949537L220.45131281250002,69.2367837322027L220.59081,69.19779843286236L220.7303071875,69.15890910535823L220.9628025,69.12781055185393L221.4742921875,69.08909886882633L221.89278375,69.03895630528665L222.0322809375,68.99277584674756L222.07878000000002,68.94287210313001L222.49727156249998,68.89309045753939L222.7762659375,68.84343048724725L223.473751875,68.816860262534L223.5202509375,68.78652952450692L223.7992453125,68.7524501202571L223.9852415625,68.71463383156865L224.12473874999998,68.67690950516828L224.403733125,68.63164809204179L224.49673124999998,68.59030816809842L224.9152228125,68.56811313178878L225.1012190625,68.56119673567915L225.3802134375,68.542886518411L225.61270875,68.5246205602012L225.891703125,68.47981178791193L226.077699375,68.43131566487476L226.31019468750003,68.38672918248687L226.635688125,68.33466984883626L226.82168437500002,68.28273572520153L227.2401759375,68.23849593738512L227.379673125,68.18301594616655L227.937661875,68.09743313931762L228.2631553125,68.01583219636701L228.4026525,67.9382007527756L228.49565062500002,67.86452652163267L228.5421496875,67.79102826353747L228.7281459375,67.72523808298105L228.774645,67.66336847676267L228.8211440625,67.60164621268108L229.37913281250002,67.55134645462793L229.65812718749999,67.49741027157017L229.70462625,67.45110893119212L229.797624375,67.40491742653826L230.0301196875,67.35508716296235L230.07661875,67.30912053934078L230.2161159375,67.2670057442517L230.4951103125,67.23247157090724L230.68110656250002,67.19054290896605L231.0066,67.15244859820449L231.471590625,67.0920464267027L231.750585,67.02059522081603L231.93658125000002,66.94558413441965L232.0760784375,66.85957317663056L232.4480709375,66.75514979431763L232.5410690625,66.64353056396104L233.14555687499998,66.52101923086347L233.331553125,66.40622535416841L233.3780521875,66.29541274754399L234.261534375,66.21825252394046L234.3080334375,66.14127236360815L234.447530625,66.07188258944323L234.77302406249999,66.01376338374921L234.86602218750002,65.95577942032595L235.2380146875,65.92381677987026L235.3310128125,65.89562401094678L235.377511875,65.8674966599468L235.9819996875,65.84681601044197L236.0749978125,65.83355990590042L236.121496875,65.81664857901626L236.5399884375,65.79240938195257L236.679485625,65.7682261648074L236.77248375,65.73306276743492L237.1909753125,65.6906279190311L237.33047249999998,65.64094306061605L237.42347062500002,65.59137251955558L237.51646875,65.54191592648718L238.0744575,65.49257291363074L238.8649415625,65.43235013192748L239.097436875,65.3686034400492L239.5624275,65.33061992779331L239.84142187499998,65.30369504633106L240.1669153125,65.26586704886431L240.4459096875,65.23543051845233L240.5389078125,65.19776304497928L240.7249040625,65.15653358019739L241.0503975,65.10446141226076L241.0968965625,65.05615093234073L241.14339562499998,65.0079502786621L241.60838625,64.97805194988861L242.35237125,64.93731270012427L242.5848665625,64.89303186035879L242.817361875,64.84521964623424L243.0498571875,64.79388627393797L243.09635625,64.74266896222181L243.189354375,64.68794256077639L243.32885156249998,64.63696217040753L243.7938421875,64.60419790004538L243.9798384375,64.57150743872798L244.0263375,64.53889055363464L244.305331875,64.49550669585862L244.491328125,64.4486090987337L244.5378271875,64.40181676862075L244.9098196875,64.34070259950376L245.00281781249998,64.27972536179799L245.049316875,64.22248684842462L245.09581593750002,64.16897634694647L245.1888140625,64.11198764797672L245.32831124999998,64.05872173282003L245.3748103125,64.00916797062033L245.421309375,63.96331577418714L245.4678084375,63.91756567308918L245.6538046875,63.86833062152824L245.7468028125,63.80845140047087L245.88629999999998,63.75945218908941L245.93279906249998,63.710561693983756L245.979298125,63.661779578124275L246.02579718750002,63.616681313512416L246.1187953125,63.56096193123288L246.25829249999998,63.50536574015557L246.3047915625,63.44989235991614L246.5837859375,63.38383991626954L246.8627803125,63.3214981541642L246.95577843750002,63.26998232753364L247.095275625,63.22214062103506L247.65326437500002,63.18863849352509L248.025256875,63.14454060415899L248.07175593749997,63.1005395317459L248.118255,63.05308277605006L248.397249375,63.009280116821685L248.7227428125,62.95847742992078L248.95523812500002,62.9077858937831L249.2807315625,62.86429269129342L249.4667278125,62.82443616575826L249.699223125,62.77758746062616L249.88521937500002,62.734378379245726L250.16421375,62.69833423235216L250.25721187500002,62.65883522831138L250.3967090625,62.61589086855246L250.7222025,62.57303982133729L251.00119687499998,62.540863110994685L251.14069406250002,62.51228122931588L251.2336921875,62.487284267221554L251.28019125,62.462341434996645L251.51268656250002,62.440971450376594" style="fill: none;" fill="none"></path></g></g></g></g><g opacity="0.2"><g><g><g><path stroke="rgb(238, 51, 119)" stroke-width="2px" d="M23.899775625,155.75L24.5042634375,155.75L24.783257812499997,155.75L25.5272428125,155.75L25.6202409375,155.75L25.759738125000002,155.75L25.852736250000003,155.75L26.131730625,155.75L26.271227812499998,155.75L26.968713750000003,155.75L27.1082109375,155.75L27.340706249999997,155.75L27.712698749999998,153.52500004973263L28.0381921875,153.52500004973263L28.410184687500003,153.52500004973263L28.549681875,153.52500004973263L28.5961809375,153.52500004973263L28.921674375,153.52500004973263L29.154169687499998,153.52500004973263L29.5261621875,151.30000009946525L30.13065,151.30000009946525L30.6421396875,153.52500004973263L30.874635,153.52500004973263L31.0141321875,151.30000009946525L31.432623749999998,149.07500014919788L31.479122812499998,149.07500014919788L31.9441134375,146.8500001989305L32.17660875,146.8500001989305L32.269606875,149.07500014919788L32.3161059375,149.07500014919788L32.5021021875,149.07500014919788L32.8740946875,146.8500001989305L33.2460871875,146.8500001989305L33.29258625,146.8500001989305L33.5250815625,144.62499983422458L34.03657125,142.40000029839575L34.315565625,144.62499983422458L34.5480609375,144.62499983422458L34.687558125,146.8500001989305L35.245546874999995,137.950000397861L35.52454125,131.27500013262033L35.7570365625,131.27500013262033L36.08253,122.37499867379665L36.26852625,122.37499867379665L36.361524375,120.15000079572201L37.2450065625,109.02500145882368L37.477501874999994,106.80000026524067L37.5240009375,106.80000026524067L37.75649625,109.02500145882368L37.9889915625,109.02500145882368L38.0819896875,113.47500053048134L38.453982187499996,120.15000079572201L38.50048125,120.15000079572201L38.8259746875,120.15000079572201L39.0119709375,122.37499867379665L39.430462500000004,124.59999986737967L39.802455,133.49999966844916L40.54644,122.37499867379665L40.73243625,120.15000079572201L41.011430624999996,115.69999840855598L41.197426875,115.69999840855598L41.290425,113.47500053048134L43.243385624999995,106.80000026524067L43.2898846875,106.80000026524067L43.3828828125,104.57499907165766L43.6618771875,106.80000026524067L44.08036875,102.35000119358301L44.173366875,100.125L44.2198659375,104.57499907165766L44.359363125,104.57499907165766L44.638357500000005,113.47500053048134L45.0568490625,109.02500145882368L45.196346250000005,109.02500145882368L45.2428453125,106.80000026524067L45.7078359375,109.02500145882368L46.49832,111.24999933689833L46.591318125,111.24999933689833L47.242305,111.24999933689833L47.4748003125,106.80000026524067L47.5677984375,104.57499907165766L47.707295625,104.57499907165766L48.079288125,95.67499761283398L48.358282499999994,93.44999973475933L48.451280624999995,95.67499761283398L48.5907778125,97.90000212192535L48.8697721875,95.67499761283398L49.102267499999996,91.22500185668468L49.567258125,86.77499946951866L49.8462525,86.77499946951866L50.125246875,82.32499708235264L50.311243125000004,86.77499946951866L50.5902375,84.55000159144402L50.683235625,86.77499946951866L50.729734687500006,86.77499946951866L50.82273281249999,91.22500185668468L50.915730937499994,86.77499946951866L50.96223,86.77499946951866L51.1947253125,88.99999734759331L51.241224374999994,84.55000159144402L51.659715937499996,82.32499708235264L51.9387103125,88.99999734759331L52.0317084375,88.99999734759331L52.26420375,93.44999973475933L52.4966990625,93.44999973475933L52.5896971875,97.90000212192535L53.1476859375,97.90000212192535L53.473179374999994,91.22500185668468L53.5196784375,91.22500185668468L53.6126765625,91.22500185668468L53.7056746875,93.44999973475933L53.75217375,95.67499761283398L53.845171875,91.22500185668468L54.403160625,84.55000159144402L54.542657812499996,82.32499708235264L54.7286540625,84.55000159144402L54.86815125,86.77499946951866L55.0076484375,82.32499708235264L55.193644687500004,77.87500132620335L55.24014375,80.09999920427799L55.426140000000004,77.87500132620335L55.6586353125,77.87500132620335L55.705134375,77.87500132620335L56.170125,82.32499708235264L56.356121249999994,84.55000159144402L56.4956184375,86.77499946951866L56.8676109375,86.77499946951866L57.0536071875,91.22500185668468L57.193104375,93.44999973475933L57.2396034375,86.77499946951866L57.2861025,86.77499946951866L57.6115959375,86.77499946951866L57.8905903125,82.32499708235264L57.9835884375,86.77499946951866L58.0300875,84.55000159144402L58.21608375,82.32499708235264L58.402080000000005,71.20000106096268L58.5415771875,75.64999681711197L58.58807625,75.64999681711197L58.634575312500004,75.64999681711197L58.8205715625,71.20000106096268L59.239063124999994,64.52500079572201L59.425059375,66.74999867379665L59.4715584375,66.74999867379665L59.5180575,66.74999867379665L59.611055625,66.74999867379665L59.657554687499996,71.20000106096268L59.9365490625,71.20000106096268L60.1225453125,71.20000106096268L60.169044375,71.20000106096268L60.2620425,71.20000106096268L60.355040625,75.64999681711197L60.4945378125,80.09999920427799L60.541036875,80.09999920427799L60.5875359375,80.09999920427799L60.634035000000004,80.09999920427799L60.7735321875,80.09999920427799L60.959528437500005,75.64999681711197L61.192023750000004,75.64999681711197L61.2385228125,77.87500132620335L61.285021875000005,77.87500132620335L61.564016249999995,80.09999920427799L62.3545003125,77.87500132620335L62.540496562499996,75.64999681711197L62.6334946875,75.64999681711197L62.865990000000004,80.09999920427799L63.9819675,64.52500079572201L64.074965625,57.85000053048134L64.3074609375,55.62500265240669L64.40045906249999,53.399998143315315L64.5864553125,62.30000291764736L64.6794534375,64.52500079572201L65.0514459375,68.97500318288803L65.3304403125,64.52500079572201L65.5164365625,66.74999867379665L65.84193,68.97500318288803L65.934928125,68.97500318288803L66.2139225,75.64999681711197L66.306920625,75.64999681711197L66.4464178125,80.09999920427799L66.492916875,82.32499708235264L66.585915,84.55000159144402L66.95790749999999,95.67499761283398L67.0044065625,93.44999973475933L67.14390374999999,86.77499946951866L67.4693971875,91.22500185668468L67.60889437499999,93.44999973475933L68.0273859375,93.44999973475933L68.2133821875,97.90000212192535L68.352879375,95.67499761283398L68.3993784375,93.44999973475933L68.81787,100.125L68.8643690625,100.125L69.0503653125,97.90000212192535L69.096864375,97.90000212192535L69.1433634375,97.90000212192535L69.1898625,97.90000212192535L69.37585875,93.44999973475933L69.42235781250001,93.44999973475933L69.561855,93.44999973475933L69.6083540625,93.44999973475933L69.9803465625,100.125L70.16634281249999,88.99999734759331L70.2593409375,88.99999734759331L70.3523390625,88.99999734759331L70.39883812500001,86.77499946951866L70.8173296875,80.09999920427799L70.95682687499999,73.42499893903732L71.328819375,64.52500079572201L71.42181749999999,60.074998408555984L71.60781374999999,62.30000291764736L71.6543128125,64.52500079572201L71.886808125,62.30000291764736L72.2123015625,62.30000291764736L72.72379124999999,66.74999867379665L72.816789375,64.52500079572201L73.09578375,71.20000106096268L73.23528093750001,68.97500318288803L73.3282790625,73.42499893903732L73.5142753125,73.42499893903732L73.70027156249999,75.64999681711197L73.79326968749999,77.87500132620335L74.025765,86.77499946951866L74.0722640625,88.99999734759331L74.118763125,88.99999734759331L74.490755625,84.55000159144402L74.76975,80.09999920427799L74.95574625,84.55000159144402L75.0022453125,84.55000159144402L75.048744375,84.55000159144402L75.46723593749999,84.55000159144402L75.69973125,88.99999734759331L76.35071812499999,82.32499708235264L76.44371625,84.55000159144402L77.37369749999999,97.90000212192535L77.42019656250001,100.125L77.6061928125,106.80000026524067L77.652691875,104.57499907165766L77.6991909375,104.57499907165766L78.53617406250001,86.77499946951866L78.768669375,88.99999734759331L79.09416281249999,100.125L79.140661875,100.125L79.41965625,102.35000119358301L79.512654375,106.80000026524067L79.74514968749999,104.57499907165766L79.8381478125,104.57499907165766L80.1171421875,102.35000119358301L80.9541253125,80.09999920427799L81.0471234375,77.87500132620335L81.1401215625,75.64999681711197L81.5121140625,71.20000106096268L81.65161124999999,68.97500318288803L82.02360374999999,57.85000053048134L82.1631009375,53.399998143315315L82.30259812499999,44.5L82.9070859375,46.724997878074646L83.232579375,60.074998408555984L83.51157375,57.85000053048134L83.69757,57.85000053048134L83.790568125,60.074998408555984L83.83706718750001,62.30000291764736L84.11606156250001,75.64999681711197L84.58105218749999,84.55000159144402L84.8135475,86.77499946951866L84.86004656249999,88.99999734759331L84.99954375,100.125L85.278538125,104.57499907165766L85.37153625,100.125L85.51103343749999,100.125L85.650530625,93.44999973475933L85.7900278125,93.44999973475933L85.836526875,91.22500185668468L86.67351000000001,97.90000212192535L87.3709959375,95.67499761283398L88.06848187499999,91.22500185668468L88.2079790625,88.99999734759331L88.25447812499999,91.22500185668468L88.34747625,91.22500185668468L88.3939753125,84.55000159144402L89.370455625,68.97500318288803L89.41695468750001,68.97500318288803L89.64945,64.52500079572201L89.7889471875,60.074998408555984L89.97494343749999,62.30000291764736L90.0679415625,55.62500265240669L90.2539378125,60.074998408555984L90.4399340625,62.30000291764736L90.62593031249999,66.74999867379665L91.788406875,84.55000159144402L91.8349059375,84.55000159144402L92.34639562499999,80.09999920427799L92.71838812499999,75.64999681711197L92.76488718750001,77.87500132620335L92.90438437499999,80.09999920427799L92.9973825,77.87500132620335L93.0438815625,73.42499893903732L93.462373125,57.85000053048134L93.7878665625,51.17500026524067L94.4853525,42.275002121925354L94.53185156250001,42.275002121925354L94.67134874999999,37.82500636577606L94.9968421875,44.5L95.5548309375,40.05000424385071L95.78732625,42.275002121925354L95.8338253125,42.275002121925354L95.92682343749999,42.275002121925354L96.252316875,46.724997878074646L96.57781031249999,51.17500026524067L96.62430937500001,51.17500026524067L97.0428009375,51.17500026524067L97.22879718749999,46.724997878074646L97.3217953125,42.275002121925354L97.5077915625,46.724997878074646L97.926283125,40.05000424385071L98.2517765625,42.275002121925354L98.29827562499999,40.05000424385071L98.53077093750001,42.275002121925354L98.9027634375,48.95000238716602L99.321255,53.399998143315315L99.36775406250001,51.17500026524067L99.5537503125,53.399998143315315L99.78624562499999,55.62500265240669L99.9257428125,62.30000291764736L100.01874093750001,66.74999867379665L100.158238125,75.64999681711197L100.29773531250001,73.42499893903732L100.4837315625,80.09999920427799L100.85572406249999,86.77499946951866L101.22771656249999,91.22500185668468L101.4137128125,95.67499761283398L101.55321,100.125L101.5997090625,97.90000212192535L101.8787034375,97.90000212192535L101.9252025,97.90000212192535L102.297195,102.35000119358301L102.48319125,109.02500145882368L102.5296903125,109.02500145882368L102.57618937500001,106.80000026524067L102.6691875,106.80000026524067L102.8086846875,106.80000026524067L103.13417812499999,102.35000119358301L103.1806771875,104.57499907165766L103.5526696875,106.80000026524067L103.59916874999999,100.125L104.0176603125,109.02500145882368L104.2036565625,106.80000026524067L104.29665468750001,102.35000119358301L104.436151875,106.80000026524067L104.6686471875,102.35000119358301L104.71514625,102.35000119358301L104.808144375,97.90000212192535L104.8546434375,97.90000212192535L104.90114249999999,97.90000212192535L105.13363781250001,88.99999734759331L105.7846246875,86.77499946951866L106.20311625000001,86.77499946951866L106.482110625,93.44999973475933L106.80760406249999,80.09999920427799L106.85410312500001,77.87500132620335L107.2725946875,75.64999681711197L107.598088125,73.42499893903732L108.0165796875,75.64999681711197L108.15607687500001,68.97500318288803L108.4815703125,71.20000106096268L108.5745684375,68.97500318288803L108.76056468750001,68.97500318288803L109.2255553125,64.52500079572201L109.272054375,62.30000291764736L109.41155156250001,62.30000291764736L109.644046875,71.20000106096268L109.830043125,75.64999681711197L110.4345309375,84.55000159144402L110.52752906250001,88.99999734759331L110.574028125,88.99999734759331L110.8530225,86.77499946951866L110.89952156250001,86.77499946951866L110.946020625,86.77499946951866L111.03901875,84.55000159144402L111.690005625,73.42499893903732L112.52698875,71.20000106096268L112.80598312500001,64.52500079572201L113.1314765625,71.20000106096268L113.4104709375,66.74999867379665L113.5964671875,68.97500318288803L113.6894653125,75.64999681711197L113.7824634375,77.87500132620335L114.0614578125,88.99999734759331L114.200955,91.22500185668468L114.29395312499999,97.90000212192535L114.4334503125,95.67499761283398L114.5729475,102.35000119358301L114.7124446875,102.35000119358301L115.13093624999999,102.35000119358301L115.223934375,106.80000026524067L115.78192312499999,106.80000026524067L115.82842218750001,106.80000026524067L115.87492125,106.80000026524067L116.525908125,97.90000212192535L116.711904375,100.125L116.897900625,102.35000119358301L117.08389687500001,102.35000119358301L117.1303959375,104.57499907165766L117.269893125,106.80000026524067L117.36289125,102.35000119358301L117.455889375,102.35000119358301L117.827881875,106.80000026524067L117.92088000000001,104.57499907165766L118.0603771875,100.125L118.19987437500001,106.80000026524067L118.33937156249999,104.57499907165766L118.4323696875,106.80000026524067L118.57186687500001,100.125L118.7113640625,100.125L119.4553490625,93.44999973475933L119.78084249999999,91.22500185668468L120.0133378125,86.77499946951866L120.059836875,86.77499946951866L120.1063359375,86.77499946951866L120.1993340625,86.77499946951866L120.24583312499999,88.99999734759331L120.33883125,88.99999734759331L120.43182937499999,88.99999734759331L120.617825625,86.77499946951866L120.803821875,84.55000159144402L121.0363171875,77.87500132620335L121.12931531250001,80.09999920427799L121.45480875,80.09999920427799L121.547806875,75.64999681711197L121.59430593750001,73.42499893903732L121.82680125,71.20000106096268L122.0127975,73.42499893903732L122.2452928125,71.20000106096268L122.33829093749999,71.20000106096268L122.38479,73.42499893903732L122.84978062500001,68.97500318288803L122.8962796875,68.97500318288803L123.0822759375,71.20000106096268L123.221773125,68.97500318288803L123.3612703125,62.30000291764736L123.407769375,62.30000291764736L123.5472665625,64.52500079572201L123.593765625,64.52500079572201L123.68676375000001,66.74999867379665L123.9192590625,71.20000106096268L123.96575812500001,71.20000106096268L124.2912515625,73.42499893903732L124.33775062500001,75.64999681711197L124.52374687499999,73.42499893903732L124.616745,71.20000106096268L124.70974312499999,71.20000106096268L124.89573937499999,62.30000291764736L125.36072999999999,46.724997878074646L125.453728125,48.95000238716602L125.54672624999999,51.17500026524067L125.59322531250001,51.17500026524067L125.7792215625,51.17500026524067L125.91871875,46.724997878074646L126.29071125,53.399998143315315L126.4767075,53.399998143315315L127.127694375,37.82500636577606L127.313690625,42.275002121925354L127.40668875,42.275002121925354L127.6391840625,48.95000238716602L127.685683125,46.724997878074646L127.77868125,46.724997878074646L127.871679375,44.5L127.91817843749999,46.724997878074646L128.0111765625,46.724997878074646L128.1041746875,48.95000238716602L128.15067375,46.724997878074646L128.47616718749998,44.5L128.615664375,42.275002121925354L128.8481596875,40.05000424385071L129.4061484375,35.59999522566795L129.5921446875,37.82500636577606L129.731641875,44.5L130.1966325,42.275002121925354L130.475626875,46.724997878074646L130.5221259375,48.95000238716602L130.6151240625,46.724997878074646L130.75462124999999,44.5L130.8941184375,42.275002121925354L130.9406175,44.5L130.9871165625,46.724997878074646L131.4521071875,35.59999522566795L131.49860625,33.37499734759331L131.5451053125,28.925001591444016L131.6381034375,31.14999946951866L132.1960921875,28.925001591444016L132.24259125,26.70000371336937L132.2890903125,26.70000371336937L132.335589375,28.925001591444016L132.707581875,33.37499734759331L133.1260734375,24.475005835294724L133.9165575,35.59999522566795L134.567544375,35.59999522566795L134.753540625,37.82500636577606L134.8000396875,37.82500636577606L134.8930378125,42.275002121925354L135.2650303125,37.82500636577606L135.3580284375,35.59999522566795L135.5440246875,33.37499734759331L136.0090153125,31.14999946951866L136.3810078125,31.14999946951866L136.427506875,26.70000371336937L136.9389965625,28.925001591444016L137.3109890625,33.37499734759331L137.5899834375,33.37499734759331L137.6364825,31.14999946951866L137.729480625,26.70000371336937L137.82247875,33.37499734759331L138.05497406249998,33.37499734759331L138.93845625,60.074998408555984L139.217450625,71.20000106096268L139.2639496875,68.97500318288803L139.7289403125,62.30000291764736L139.82193843750002,64.52500079572201L139.961435625,66.74999867379665L140.0079346875,66.74999867379665L140.05443375,62.30000291764736L140.519424375,66.74999867379665L140.56592343749998,64.52500079572201L140.70542062500002,64.52500079572201L140.98441499999998,55.62500265240669L141.2169103125,44.5L141.30990843749998,46.724997878074646L141.4029065625,44.5L141.4959046875,48.95000238716602L141.91439625,31.14999946951866L142.1003925,31.14999946951866L142.28638875,37.82500636577606L142.37938687500002,37.82500636577606L142.5188840625,44.5L142.93737562500002,42.275002121925354L142.9838746875,44.5L143.16987093749998,46.724997878074646L143.4488653125,53.399998143315315L143.54186343749998,55.62500265240669L144.0998521875,60.074998408555984L144.14635125,60.074998408555984L144.1928503125,57.85000053048134L144.239349375,60.074998408555984L144.3788465625,62.30000291764736L144.56484281250002,62.30000291764736L144.8438371875,66.74999867379665L144.89033625000002,68.97500318288803L145.0298334375,71.20000106096268L145.4018259375,71.20000106096268L145.63432125,77.87500132620335L145.7738184375,73.42499893903732L145.913315625,73.42499893903732L145.9598146875,73.42499893903732L146.2388090625,71.20000106096268L146.3318071875,73.42499893903732L146.6108015625,75.64999681711197L146.75029875,71.20000106096268L146.8897959375,73.42499893903732L146.936295,75.64999681711197L147.12229125000002,75.64999681711197L148.0057734375,80.09999920427799L148.1917696875,84.55000159144402L148.28476781249998,82.32499708235264L148.517263125,86.77499946951866L148.74975843750002,93.44999973475933L149.35424625,95.67499761283398L149.54024249999998,95.67499761283398L149.67973968750002,91.22500185668468L150.377225625,97.90000212192535L150.8887153125,97.90000212192535L150.93521437500002,97.90000212192535L151.0747115625,97.90000212192535L151.3537059375,86.77499946951866L151.679199375,80.09999920427799L151.72569843749997,80.09999920427799L151.7721975,80.09999920427799L151.8186965625,82.32499708235264L151.865195625,82.32499708235264L151.9116946875,82.32499708235264L152.2836871875,86.77499946951866L153.353165625,88.99999734759331L153.39966468749998,84.55000159144402L153.44616375,84.55000159144402L153.77165718749998,80.09999920427799L154.28314687499997,82.32499708235264L154.376145,77.87500132620335L154.93413375,75.64999681711197L154.9806328125,75.64999681711197L155.12013000000002,73.42499893903732L155.213128125,73.42499893903732L155.2596271875,73.42499893903732L155.3526253125,68.97500318288803L156.2361075,68.97500318288803L156.46860281250002,66.74999867379665L156.6081,68.97500318288803L156.7475971875,66.74999867379665L157.16608875,73.42499893903732L157.21258781249998,71.20000106096268L157.4915821875,66.74999867379665L157.58458031249998,62.30000291764736L157.63107937499998,64.52500079572201L157.91007375,57.85000053048134L158.0495709375,55.62500265240669L158.3285653125,53.399998143315315L158.4215634375,51.17500026524067L158.51456156249998,46.724997878074646L158.65405875000002,46.724997878074646L159.0725503125,42.275002121925354L159.305045625,42.275002121925354L159.39804374999997,37.82500636577606L159.4445428125,37.82500636577606L159.491041875,40.05000424385071L160.0025315625,37.82500636577606L160.4675221875,44.5L160.8395146875,51.17500026524067L161.62999875,57.85000053048134L161.95549218750003,57.85000053048134L162.00199125,62.30000291764736L162.1414884375,57.85000053048134L162.6064790625,62.30000291764736L162.8854734375,57.85000053048134L163.07146968749998,62.30000291764736L163.303965,60.074998408555984L163.396963125,55.62500265240669L163.48996125,51.17500026524067L163.582959375,44.5L163.6759575,48.95000238716602L163.86195375,44.5L163.9084528125,44.5L164.04795,42.275002121925354L164.326944375,44.5L164.4199425,42.275002121925354L164.5594396875,42.275002121925354L164.93143218749998,44.5L165.02443031250002,42.275002121925354L165.070929375,40.05000424385071L165.1174284375,37.82500636577606L165.4894209375,44.5L166.18690687499998,42.275002121925354L166.279905,44.5L166.372903125,46.724997878074646L166.46590125,42.275002121925354L166.55889937499998,42.275002121925354L166.9773909375,48.95000238716602L167.1633871875,53.399998143315315L167.767875,48.95000238716602L167.95387125000002,48.95000238716602L168.8373534375,44.5L169.534839375,55.62500265240669L169.5813384375,51.17500026524067L169.8603328125,48.95000238716602L169.906831875,46.724997878074646L169.99983,46.724997878074646L170.13932718750002,46.724997878074646L170.37182249999998,42.275002121925354L170.51131968750002,44.5L170.55781875,44.5L170.650816875,44.5L171.394801875,53.399998143315315L171.72029531249999,55.62500265240669L171.9062915625,57.85000053048134L172.231785,55.62500265240669L172.2782840625,55.62500265240669L172.60377749999998,64.52500079572201L172.7432746875,60.074998408555984L173.85925218749998,88.99999734759331L173.99874937500002,86.77499946951866L174.32424281250002,91.22500185668468L174.46374,91.22500185668468L174.5102390625,91.22500185668468L174.60323718749999,86.77499946951866L174.64973625,84.55000159144402L174.9752296875,75.64999681711197L175.0682278125,75.64999681711197L175.5797175,75.64999681711197L175.8122128125,68.97500318288803L176.230704375,60.074998408555984L176.3237025,62.30000291764736L176.41670062499998,62.30000291764736L176.602696875,60.074998408555984L176.7421940625,62.30000291764736L177.346681875,64.52500079572201L177.3931809375,64.52500079572201L177.43968,68.97500318288803L177.71867437499998,73.42499893903732L178.09066687499998,75.64999681711197L178.36966125,71.20000106096268L178.41616031249998,71.20000106096268L178.462659375,71.20000106096268L178.648655625,75.64999681711197L178.8811509375,73.42499893903732L179.206644375,66.74999867379665L179.578636875,64.52500079572201L179.764633125,64.52500079572201L179.950629375,62.30000291764736L180.0436275,60.074998408555984L180.322621875,64.52500079572201L180.4621190625,66.74999867379665L180.5551171875,62.30000291764736L180.64811531249998,60.074998408555984L180.74111343750002,62.30000291764736L180.880610625,60.074998408555984L181.1131059375,64.52500079572201L181.67109468750002,57.85000053048134L181.90358999999998,55.62500265240669L182.1360853125,55.62500265240669L182.97306843750002,57.85000053048134L183.1590646875,62.30000291764736L183.29856187500002,66.74999867379665L183.53105718749998,66.74999867379665L183.8100515625,66.74999867379665L183.856550625,66.74999867379665L184.042546875,73.42499893903732L184.135545,71.20000106096268L184.414539375,75.64999681711197L184.46103843749998,77.87500132620335L184.7400328125,73.42499893903732L185.06552625,64.52500079572201L185.344520625,62.30000291764736L185.4840178125,64.52500079572201L185.76301218749998,55.62500265240669L186.274501875,55.62500265240669L186.3675,57.85000053048134L186.6929934375,55.62500265240669L186.832490625,55.62500265240669L186.9719878125,55.62500265240669L187.06498593749998,53.399998143315315L187.29748125,53.399998143315315L188.04146625,62.30000291764736L188.134464375,64.52500079572201L188.1809634375,60.074998408555984L188.36695968749999,60.074998408555984L188.41345875000002,60.074998408555984L188.599455,66.74999867379665L188.692453125,64.52500079572201L188.9714475,64.52500079572201L189.0179465625,57.85000053048134L189.34344000000002,51.17500026524067L189.90142875,55.62500265240669L190.1339240625,51.17500026524067L190.27342125,46.724997878074646L190.6919128125,48.95000238716602L190.738411875,48.95000238716602L191.01740625000002,55.62500265240669L191.0639053125,51.17500026524067L191.7148921875,53.399998143315315L191.90088843750002,57.85000053048134L191.9938865625,57.85000053048134L192.0868846875,57.85000053048134L192.22638187500002,53.399998143315315L192.3658790625,57.85000053048134L192.784370625,48.95000238716602L193.06336499999998,55.62500265240669L193.156363125,57.85000053048134L193.6678528125,55.62500265240669L193.714351875,55.62500265240669L193.99334625,62.30000291764736L194.31883968749997,60.074998408555984L195.4348171875,66.74999867379665L195.574314375,66.74999867379665L195.7138115625,57.85000053048134L195.8068096875,60.074998408555984L196.78329,62.30000291764736L196.9227871875,57.85000053048134L197.1087834375,60.074998408555984L197.1552825,55.62500265240669L197.2017815625,55.62500265240669L197.4807759375,57.85000053048134L197.62027312499998,53.399998143315315L197.71327125,51.17500026524067L198.1317628125,64.52500079572201L198.31775906250002,66.74999867379665L198.45725625,66.74999867379665L198.68975156250002,68.97500318288803L199.06174406250003,60.074998408555984L199.2477403125,57.85000053048134L199.3407384375,55.62500265240669L199.4337365625,57.85000053048134L200.038224375,55.62500265240669L200.1312225,51.17500026524067L200.2707196875,51.17500026524067L200.8287084375,40.05000424385071L201.0147046875,37.82500636577606L201.24720000000002,44.5L201.340198125,44.5L201.80518875,46.724997878074646L201.898186875,48.95000238716602L201.991185,53.399998143315315L202.5956728125,57.85000053048134L202.87466718750002,62.30000291764736L203.3396578125,64.52500079572201L203.572153125,62.30000291764736L203.8976465625,64.52500079572201L204.03714374999998,57.85000053048134L204.130141875,53.399998143315315L205.06012312500002,42.275002121925354L205.1066221875,40.05000424385071L205.15312125,40.05000424385071L205.3856165625,40.05000424385071L205.4786146875,40.05000424385071L205.7576090625,44.5L205.9436053125,51.17500026524067L206.31559781250002,53.399998143315315L206.36209687500002,55.62500265240669L206.59459218749998,48.95000238716602L206.64109125,53.399998143315315L206.8270875,57.85000053048134L207.3385771875,66.74999867379665L207.61757156250002,68.97500318288803L207.8965659375,77.87500132620335L208.036063125,75.64999681711197L208.54755281250002,60.074998408555984L208.7335490625,57.85000053048134L208.91954531250002,55.62500265240669L209.0125434375,53.399998143315315L209.24503875,55.62500265240669L209.431035,53.399998143315315L209.6635303125,46.724997878074646L209.896025625,44.5L210.08202187499998,48.95000238716602L210.1285209375,48.95000238716602L210.22151906250002,44.5L210.640010625,28.925001591444016L210.6865096875,28.925001591444016L211.197999375,31.14999946951866L211.2909975,26.70000371336937L211.33749656249998,24.475005835294724L211.66299,17.799998939037323L211.755988125,17.799998939037323L211.8024871875,20.02499681711197L211.84898625000002,22.249994695186615L211.8954853125,17.799998939037323L212.0814815625,17.799998939037323L212.1744796875,17.799998939037323L213.1974590625,26.70000371336937L213.33695625,26.70000371336937L213.98794312500002,31.14999946951866L214.2204384375,42.275002121925354L214.26693749999998,42.275002121925354L214.359935625,40.05000424385071L214.731928125,48.95000238716602L214.96442343750002,35.59999522566795L215.28991687500002,42.275002121925354L216.59189062500002,33.37499734759331L216.9173840625,33.37499734759331L217.42887375,42.275002121925354L217.6613690625,46.724997878074646L218.079860625,48.95000238716602L218.12635968749998,48.95000238716602L218.5913503125,57.85000053048134L218.63784937499997,60.074998408555984L218.6843484375,57.85000053048134L218.77734656250001,57.85000053048134L218.8703446875,60.074998408555984L218.9633428125,60.074998408555984L219.00984187499998,60.074998408555984L219.05634093749998,60.074998408555984L219.14933906250002,57.85000053048134L219.9863221875,48.95000238716602L220.2188175,42.275002121925354L220.45131281250002,46.724997878074646L220.59081,46.724997878074646L220.7303071875,46.724997878074646L220.9628025,51.17500026524067L221.4742921875,46.724997878074646L221.89278375,40.05000424385071L222.0322809375,42.275002121925354L222.07878000000002,40.05000424385071L222.49727156249998,40.05000424385071L222.7762659375,40.05000424385071L223.473751875,53.399998143315315L223.5202509375,51.17500026524067L223.7992453125,48.95000238716602L223.9852415625,46.724997878074646L224.12473874999998,46.724997878074646L224.403733125,42.275002121925354L224.49673124999998,44.5L224.9152228125,55.62500265240669L225.1012190625,64.52500079572201L225.3802134375,57.85000053048134L225.61270875,57.85000053048134L225.891703125,42.275002121925354L226.077699375,40.05000424385071L226.31019468750003,42.275002121925354L226.635688125,37.82500636577606L226.82168437500002,37.82500636577606L227.2401759375,42.275002121925354L227.379673125,35.59999522566795L227.937661875,17.799998939037323L228.2631553125,20.02499681711197L228.4026525,22.249994695186615L228.49565062500002,24.475005835294724L228.5421496875,24.475005835294724L228.7281459375,28.925001591444016L228.774645,31.14999946951866L228.8211440625,31.14999946951866L229.37913281250002,37.82500636577606L229.65812718749999,35.59999522566795L229.70462625,40.05000424385071L229.797624375,40.05000424385071L230.0301196875,37.82500636577606L230.07661875,40.05000424385071L230.2161159375,42.275002121925354L230.4951103125,46.724997878074646L230.68110656250002,42.275002121925354L231.0066,44.5L231.471590625,31.14999946951866L231.750585,24.475005835294724L231.93658125000002,22.249994695186615L232.0760784375,15.575001060962677L232.4480709375,4.4499984085559845L232.5410690625,0.000002652406692504883L233.14555687499998,-6.675004243850708L233.331553125,-2.2249952256679535L233.3780521875,0.000002652406692504883L234.261534375,20.02499681711197L234.3080334375,20.02499681711197L234.447530625,24.475005835294724L234.77302406249999,31.14999946951866L234.86602218750002,31.14999946951866L235.2380146875,46.724997878074646L235.3310128125,48.95000238716602L235.377511875,48.95000238716602L235.9819996875,53.399998143315315L236.0749978125,57.85000053048134L236.121496875,55.62500265240669L236.5399884375,51.17500026524067L236.679485625,51.17500026524067L236.77248375,44.5L237.1909753125,40.05000424385071L237.33047249999998,35.59999522566795L237.42347062500002,35.59999522566795L237.51646875,35.59999522566795L238.0744575,35.59999522566795L238.8649415625,28.925001591444016L239.097436875,26.70000371336937L239.5624275,42.275002121925354L239.84142187499998,48.95000238716602L240.1669153125,42.275002121925354L240.4459096875,46.724997878074646L240.5389078125,42.275002121925354L240.7249040625,40.05000424385071L241.0503975,33.37499734759331L241.0968965625,35.59999522566795L241.14339562499998,35.59999522566795L241.60838625,46.724997878074646L242.35237125,40.05000424385071L242.5848665625,37.82500636577606L242.817361875,35.59999522566795L243.0498571875,33.37499734759331L243.09635625,33.37499734759331L243.189354375,31.14999946951866L243.32885156249998,33.37499734759331L243.7938421875,44.5L243.9798384375,44.5L244.0263375,44.5L244.305331875,37.82500636577606L244.491328125,35.59999522566795L244.5378271875,35.59999522566795L244.9098196875,26.70000371336937L245.00281781249998,26.70000371336937L245.049316875,28.925001591444016L245.09581593750002,31.14999946951866L245.1888140625,28.925001591444016L245.32831124999998,31.14999946951866L245.3748103125,33.37499734759331L245.421309375,35.59999522566795L245.4678084375,35.59999522566795L245.6538046875,33.37499734759331L245.7468028125,26.70000371336937L245.88629999999998,33.37499734759331L245.93279906249998,33.37499734759331L245.979298125,33.37499734759331L246.02579718750002,35.59999522566795L246.1187953125,28.925001591444016L246.25829249999998,28.925001591444016L246.3047915625,28.925001591444016L246.5837859375,22.249994695186615L246.8627803125,24.475005835294724L246.95577843750002,31.14999946951866L247.095275625,33.37499734759331L247.65326437500002,42.275002121925354L248.025256875,35.59999522566795L248.07175593749997,35.59999522566795L248.118255,33.37499734759331L248.397249375,35.59999522566795L248.7227428125,31.14999946951866L248.95523812500002,31.14999946951866L249.2807315625,35.59999522566795L249.4667278125,37.82500636577606L249.699223125,33.37499734759331L249.88521937500002,35.59999522566795L250.16421375,40.05000424385071L250.25721187500002,37.82500636577606L250.3967090625,35.59999522566795L250.7222025,35.59999522566795L251.00119687499998,42.275002121925354L251.14069406250002,44.5L251.2336921875,46.724997878074646L251.28019125,46.724997878074646L251.51268656250002,48.95000238716602" style="fill: none;" fill="none"></path></g></g></g></g></g></g><g transform="translate(51, 178)" clip-path="url(#clip_1)"><clipPath id="clip_1"><rect width="278" height="22"></rect></clipPath><g><g><line x1="0" y1="0" x2="0" y2="5" style="visibility: inherit;" fill="rgb(0, 0, 0)" stroke="rgb(204, 204, 204)" stroke-width="1px"></line><line x1="23.203125" y1="0" x2="23.203125" y2="5" style="visibility: inherit;" fill="rgb(0, 0, 0)" stroke="rgb(204, 204, 204)" stroke-width="1px"></line><line x1="46.40625" y1="0" x2="46.40625" y2="5" style="visibility: inherit;" fill="rgb(0, 0, 0)" stroke="rgb(204, 204, 204)" stroke-width="1px"></line><line x1="69.609375" y1="0" x2="69.609375" y2="5" style="visibility: inherit;" fill="rgb(0, 0, 0)" stroke="rgb(204, 204, 204)" stroke-width="1px"></line><line x1="92.8125" y1="0" x2="92.8125" y2="5" style="visibility: inherit;" fill="rgb(0, 0, 0)" stroke="rgb(204, 204, 204)" stroke-width="1px"></line><line x1="116.015625" y1="0" x2="116.015625" y2="5" style="visibility: inherit;" fill="rgb(0, 0, 0)" stroke="rgb(204, 204, 204)" stroke-width="1px"></line><line x1="139.21875" y1="0" x2="139.21875" y2="5" style="visibility: inherit;" fill="rgb(0, 0, 0)" stroke="rgb(204, 204, 204)" stroke-width="1px"></line><line x1="162.421875" y1="0" x2="162.421875" y2="5" style="visibility: inherit;" fill="rgb(0, 0, 0)" stroke="rgb(204, 204, 204)" stroke-width="1px"></line><line x1="185.625" y1="0" x2="185.625" y2="5" style="visibility: inherit;" fill="rgb(0, 0, 0)" stroke="rgb(204, 204, 204)" stroke-width="1px"></line><line x1="208.828125" y1="0" x2="208.828125" y2="5" style="visibility: inherit;" fill="rgb(0, 0, 0)" stroke="rgb(204, 204, 204)" stroke-width="1px"></line><line x1="232.03125" y1="0" x2="232.03125" y2="5" style="visibility: inherit;" fill="rgb(0, 0, 0)" stroke="rgb(204, 204, 204)" stroke-width="1px"></line><line x1="255.234375" y1="0" x2="255.234375" y2="5" style="visibility: inherit;" fill="rgb(0, 0, 0)" stroke="rgb(204, 204, 204)" stroke-width="1px"></line><line x1="278.4375" y1="0" x2="278.4375" y2="5" style="visibility: inherit;" fill="rgb(0, 0, 0)" stroke="rgb(204, 204, 204)" stroke-width="1px"></line></g><g transform="translate(0, 8)"><text x="0" y="0" dx="0em" dy="0.95em" style="text-anchor: middle; visibility: hidden; font-family: Roboto, sans-serif; font-size: 12px; font-weight: 200;" fill="rgb(50, 49, 63)" stroke="none" stroke-width="1px">-500k</text><text x="23.203125" y="0" dx="0em" dy="0.95em" style="text-anchor: middle; visibility: inherit; font-family: Roboto, sans-serif; font-size: 12px; font-weight: 200;" fill="rgb(50, 49, 63)" stroke="none" stroke-width="1px">0</text><text x="46.40625" y="0" dx="0em" dy="0.95em" style="text-anchor: middle; visibility: hidden; font-family: Roboto, sans-serif; font-size: 12px; font-weight: 200;" fill="rgb(50, 49, 63)" stroke="none" stroke-width="1px">500k</text><text x="69.609375" y="0" dx="0em" dy="0.95em" style="text-anchor: middle; visibility: inherit; font-family: Roboto, sans-serif; font-size: 12px; font-weight: 200;" fill="rgb(50, 49, 63)" stroke="none" stroke-width="1px">1M</text><text x="92.8125" y="0" dx="0em" dy="0.95em" style="text-anchor: middle; visibility: hidden; font-family: Roboto, sans-serif; font-size: 12px; font-weight: 200;" fill="rgb(50, 49, 63)" stroke="none" stroke-width="1px">1.5M</text><text x="116.015625" y="0" dx="0em" dy="0.95em" style="text-anchor: middle; visibility: inherit; font-family: Roboto, sans-serif; font-size: 12px; font-weight: 200;" fill="rgb(50, 49, 63)" stroke="none" stroke-width="1px">2M</text><text x="139.21875" y="0" dx="0em" dy="0.95em" style="text-anchor: middle; visibility: hidden; font-family: Roboto, sans-serif; font-size: 12px; font-weight: 200;" fill="rgb(50, 49, 63)" stroke="none" stroke-width="1px">2.5M</text><text x="162.421875" y="0" dx="0em" dy="0.95em" style="text-anchor: middle; visibility: inherit; font-family: Roboto, sans-serif; font-size: 12px; font-weight: 200;" fill="rgb(50, 49, 63)" stroke="none" stroke-width="1px">3M</text><text x="185.625" y="0" dx="0em" dy="0.95em" style="text-anchor: middle; visibility: hidden; font-family: Roboto, sans-serif; font-size: 12px; font-weight: 200;" fill="rgb(50, 49, 63)" stroke="none" stroke-width="1px">3.5M</text><text x="208.828125" y="0" dx="0em" dy="0.95em" style="text-anchor: middle; visibility: inherit; font-family: Roboto, sans-serif; font-size: 12px; font-weight: 200;" fill="rgb(50, 49, 63)" stroke="none" stroke-width="1px">4M</text><text x="232.03125" y="0" dx="0em" dy="0.95em" style="text-anchor: middle; visibility: hidden; font-family: Roboto, sans-serif; font-size: 12px; font-weight: 200;" fill="rgb(50, 49, 63)" stroke="none" stroke-width="1px">4.5M</text><text x="255.234375" y="0" dx="0em" dy="0.95em" style="text-anchor: middle; visibility: inherit; font-family: Roboto, sans-serif; font-size: 12px; font-weight: 200;" fill="rgb(50, 49, 63)" stroke="none" stroke-width="1px">5M</text><text x="278.4375" y="0" dx="0em" dy="0.95em" style="text-anchor: middle; visibility: hidden; font-family: Roboto, sans-serif; font-size: 12px; font-weight: 200;" fill="rgb(50, 49, 63)" stroke="none" stroke-width="1px">5.5M</text></g><line x1="0" y1="0" x2="278.4375" y2="0" fill="rgb(0, 0, 0)" stroke="rgb(204, 204, 204)" stroke-width="1px"></line></g></g></g></g></svg>