<svg viewBox="0 0 330 200" xmlns="http://www.w3.org/2000/svg"><g><g><g><g><g><line x1="61.953125" y1="178" x2="56.953125" y2="178" style="visibility: inherit;" fill="rgb(0, 0, 0)" stroke="rgb(204, 204, 204)" stroke-width="1px"></line><line x1="61.953125" y1="158.2222222222222" x2="56.953125" y2="158.2222222222222" style="visibility: inherit;" fill="rgb(0, 0, 0)" stroke="rgb(204, 204, 204)" stroke-width="1px"></line><line x1="61.953125" y1="138.44444444444446" x2="56.953125" y2="138.44444444444446" style="visibility: inherit;" fill="rgb(0, 0, 0)" stroke="rgb(204, 204, 204)" stroke-width="1px"></line><line x1="61.953125" y1="118.66666666666669" x2="56.953125" y2="118.66666666666669" style="visibility: inherit;" fill="rgb(0, 0, 0)" stroke="rgb(204, 204, 204)" stroke-width="1px"></line><line x1="61.953125" y1="98.8888888888889" x2="56.953125" y2="98.8888888888889" style="visibility: inherit;" fill="rgb(0, 0, 0)" stroke="rgb(204, 204, 204)" stroke-width="1px"></line><line x1="61.953125" y1="79.1111111111111" x2="56.953125" y2="79.1111111111111" style="visibility: inherit;" fill="rgb(0, 0, 0)" stroke="rgb(204, 204, 204)" stroke-width="1px"></line><line x1="61.953125" y1="59.33333333333332" x2="56.953125" y2="59.33333333333332" style="visibility: inherit;" fill="rgb(0, 0, 0)" stroke="rgb(204, 204, 204)" stroke-width="1px"></line><line x1="61.953125" y1="39.55555555555557" x2="56.953125" y2="39.55555555555557" style="visibility: inherit;" fill="rgb(0, 0, 0)" stroke="rgb(204, 204, 204)" stroke-width="1px"></line><line x1="61.953125" y1="19.777777777777768" x2="56.953125" y2="19.777777777777768" style="visibility: inherit;" fill="rgb(0, 0, 0)" stroke="rgb(204, 204, 204)" stroke-width="1px"></line><line x1="61.953125" y1="0" x2="56.953125" y2="0" style="visibility: inherit;" fill="rgb(0, 0, 0)" stroke="rgb(204, 204, 204)" stroke-width="1px"></line></g><g transform="translate(51.953125, 0)"><text x="0" y="178" dx="0em" dy="0.3em" style="text-anchor: end; visibility: hidden; font-family: Roboto, sans-serif; font-size: 12px; font-weight: 200;" fill="rgb(50, 49, 63)" stroke="none" stroke-width="1px">-0.02</text><text x="0" y="158.2222222222222" dx="0em" dy="0.3em" style="text-anchor: end; visibility: inherit; font-family: Roboto, sans-serif; font-size: 12px; font-weight: 200;" fill="rgb(50, 49, 63)" stroke="none" stroke-width="1px">0</text><text x="0" y="138.44444444444446" dx="0em" dy="0.3em" style="text-anchor: end; visibility: hidden; font-family: Roboto, sans-serif; font-size: 12px; font-weight: 200;" fill="rgb(50, 49, 63)" stroke="none" stroke-width="1px">0.02</text><text x="0" y="118.66666666666669" dx="0em" dy="0.3em" style="text-anchor: end; visibility: inherit; font-family: Roboto, sans-serif; font-size: 12px; font-weight: 200;" fill="rgb(50, 49, 63)" stroke="none" stroke-width="1px">0.04</text><text x="0" y="98.8888888888889" dx="0em" dy="0.3em" style="text-anchor: end; visibility: hidden; font-family: Roboto, sans-serif; font-size: 12px; font-weight: 200;" fill="rgb(50, 49, 63)" stroke="none" stroke-width="1px">0.06</text><text x="0" y="79.1111111111111" dx="0em" dy="0.3em" style="text-anchor: end; visibility: inherit; font-family: Roboto, sans-serif; font-size: 12px; font-weight: 200;" fill="rgb(50, 49, 63)" stroke="none" stroke-width="1px">0.08</text><text x="0" y="59.33333333333332" dx="0em" dy="0.3em" style="text-anchor: end; visibility: hidden; font-family: Roboto, sans-serif; font-size: 12px; font-weight: 200;" fill="rgb(50, 49, 63)" stroke="none" stroke-width="1px">0.1</text><text x="0" y="39.55555555555557" dx="0em" dy="0.3em" style="text-anchor: end; visibility: inherit; font-family: Roboto, sans-serif; font-size: 12px; font-weight: 200;" fill="rgb(50, 49, 63)" stroke="none" stroke-width="1px">0.12</text><text x="0" y="19.777777777777768" dx="0em" dy="0.3em" style="text-anchor: end; visibility: hidden; font-family: Roboto, sans-serif; font-size: 12px; font-weight: 200;" fill="rgb(50, 49, 63)" stroke="none" stroke-width="1px">0.14</text><text x="0" y="0" dx="0em" dy="0.3em" style="text-anchor: end; visibility: hidden; font-family: Roboto, sans-serif; font-size: 12px; font-weight: 200;" fill="rgb(50, 49, 63)" stroke="none" stroke-width="1px">0.16</text></g><line x1="61.953125" y1="0" x2="61.953125" y2="178" fill="rgb(0, 0, 0)" stroke="rgb(204, 204, 204)" stroke-width="1px"></line></g></g><g transform="translate(61, 0)" clip-path="url(#clip_0)"><clipPath id="clip_0"><rect width="268" height="178"></rect></clipPath><g><g><g><line x1="0" y1="0" x2="0" y2="178" fill="rgb(0, 0, 0)" stroke="rgb(60, 60, 60)" stroke-width="1px" opacity="0.25"></line><line x1="22.337239583333332" y1="0" x2="22.337239583333332" y2="178" fill="rgb(0, 0, 0)" stroke="rgb(60, 60, 60)" stroke-width="1px" opacity="0.25"></line><line x1="44.674479166666664" y1="0" x2="44.674479166666664" y2="178" fill="rgb(0, 0, 0)" stroke="rgb(60, 60, 60)" stroke-width="1px" opacity="0.25"></line><line x1="67.01171875" y1="0" x2="67.01171875" y2="178" fill="rgb(0, 0, 0)" stroke="rgb(60, 60, 60)" stroke-width="1px" opacity="0.25"></line><line x1="89.34895833333333" y1="0" x2="89.34895833333333" y2="178" fill="rgb(0, 0, 0)" stroke="rgb(60, 60, 60)" stroke-width="1px" opacity="0.25"></line><line x1="111.68619791666667" y1="0" x2="111.68619791666667" y2="178" fill="rgb(0, 0, 0)" stroke="rgb(60, 60, 60)" stroke-width="1px" opacity="0.25"></line><line x1="134.0234375" y1="0" x2="134.0234375" y2="178" fill="rgb(0, 0, 0)" stroke="rgb(60, 60, 60)" stroke-width="1px" opacity="0.25"></line><line x1="156.36067708333334" y1="0" x2="156.36067708333334" y2="178" fill="rgb(0, 0, 0)" stroke="rgb(60, 60, 60)" stroke-width="1px" opacity="0.25"></line><line x1="178.69791666666666" y1="0" x2="178.69791666666666" y2="178" fill="rgb(0, 0, 0)" stroke="rgb(60, 60, 60)" stroke-width="1px" opacity="0.25"></line><line x1="201.03515625" y1="0" x2="201.03515625" y2="178" fill="rgb(0, 0, 0)" stroke="rgb(60, 60, 60)" stroke-width="1px" opacity="0.25"></line><line x1="223.37239583333334" y1="0" x2="223.37239583333334" y2="178" fill="rgb(0, 0, 0)" stroke="rgb(60, 60, 60)" stroke-width="1px" opacity="0.25"></line><line x1="245.70963541666666" y1="0" x2="245.70963541666666" y2="178" fill="rgb(0, 0, 0)" stroke="rgb(60, 60, 60)" stroke-width="1px" opacity="0.25"></line><line x1="268.046875" y1="0" x2="268.046875" y2="178" fill="rgb(0, 0, 0)" stroke="rgb(60, 60, 60)" stroke-width="1px" opacity="0.25"></line></g><g><line x1="0" y1="178" x2="268.046875" y2="178" fill="rgb(0, 0, 0)" stroke="rgb(60, 60, 60)" stroke-width="1px" opacity="0.25"></line><line x1="0" y1="158.2222222222222" x2="268.046875" y2="158.2222222222222" fill="rgb(0, 0, 0)" stroke="rgb(60, 60, 60)" stroke-width="1px" opacity="0.25"></line><line x1="0" y1="138.44444444444446" x2="268.046875" y2="138.44444444444446" fill="rgb(0, 0, 0)" stroke="rgb(60, 60, 60)" stroke-width="1px" opacity="0.25"></line><line x1="0" y1="118.66666666666669" x2="268.046875" y2="118.66666666666669" fill="rgb(0, 0, 0)" stroke="rgb(60, 60, 60)" stroke-width="1px" opacity="0.25"></line><line x1="0" y1="98.8888888888889" x2="268.046875" y2="98.8888888888889" fill="rgb(0, 0, 0)" stroke="rgb(60, 60, 60)" stroke-width="1px" opacity="0.25"></line><line x1="0" y1="79.1111111111111" x2="268.046875" y2="79.1111111111111" fill="rgb(0, 0, 0)" stroke="rgb(60, 60, 60)" stroke-width="1px" opacity="0.25"></line><line x1="0" y1="59.33333333333332" x2="268.046875" y2="59.33333333333332" fill="rgb(0, 0, 0)" stroke="rgb(60, 60, 60)" stroke-width="1px" opacity="0.25"></line><line x1="0" y1="39.55555555555557" x2="268.046875" y2="39.55555555555557" fill="rgb(0, 0, 0)" stroke="rgb(60, 60, 60)" stroke-width="1px" opacity="0.25"></line><line x1="0" y1="19.777777777777768" x2="268.046875" y2="19.777777777777768" fill="rgb(0, 0, 0)" stroke="rgb(60, 60, 60)" stroke-width="1px" opacity="0.25"></line><line x1="0" y1="0" x2="268.046875" y2="0" fill="rgb(0, 0, 0)" stroke="rgb(60, 60, 60)" stroke-width="1px" opacity="0.25"></line></g></g></g><g><g><line x1="0" y1="158.2222222222222" x2="268.046875" y2="158.2222222222222" fill="rgb(0, 0, 0)" stroke="rgb(153, 153, 153)" stroke-width="1.5px"></line></g></g><g><g><line x1="22.337239583333332" y1="0" x2="22.337239583333332" y2="178" fill="rgb(0, 0, 0)" stroke="rgb(153, 153, 153)" stroke-width="1.5px"></line></g></g><g><g><g><g><g><path stroke="rgb(238, 51, 119)" stroke-width="2px" d="M23.007892864583333,158.2222222222222L23.589822630208335,158.2222222222222L23.85840559895833,156.21498621853928L24.574626848958335,155.67480868798566L24.664154505208334,155.39141500852978L24.798445989583335,155.24761634145509L24.887973645833334,155.1623404734642L25.156556614583334,155.13868408764083L25.29084809895833,155.12028470100188L25.962305520833333,155.10556521379203L26.096597005208334,155.09352201707608L26.32041614583333,155.08348603823046L26.678526770833333,154.86851116021873L26.991873567708332,154.68424737870293L27.349984192708334,154.46296035165062L27.484275677083335,154.20716566830728L27.529039505208335,153.93057508899602L27.842386302083334,153.31674034189723L28.066205442708334,152.69349547962548L28.424316067708332,151.73314712134726L29.00624583333333,150.75458883890403L29.498647942708335,149.85854558381783L29.722467083333335,148.89525925765054L29.856758567708333,147.99937804853874L30.25963302083333,147.19522559116828L30.304396848958334,146.452934111085L30.752035130208334,145.75689110628863L30.975854270833334,145.3112639527406L31.065381927083333,144.97920683649005L31.110145755208336,144.66928836074402L31.289201067708333,144.42239636715038L31.64731169270833,144.0491331405488L32.00542231770833,143.65139042618245L32.05018614583334,143.277046402994L32.27400528645833,142.66440984637083L32.76640739583333,142.02146449590157L33.03499036458333,141.34703401370137L33.25880950520833,140.6674414020379L33.39310098958333,140.1783427588723L33.93026692708333,139.16136266148135L34.198849895833334,138.2613905710961L34.42266903645833,137.4149775107448L34.73601583333333,136.4931294497434L34.91507114583334,135.70710899213884L35.004598802083336,134.91721928362796L35.85511153645834,133.68585019377613L36.07893067708333,132.41414161357645L36.12369450520833,131.08338311771456L36.34751364583333,129.83698960545368L36.571332786458335,128.7251900233801L36.66086044270833,127.69928358218709L37.018971067708335,126.76109429985053L37.063734895833335,125.80820962842091L37.37708169270833,124.47179290266486L37.556137005208335,122.97328623194154L37.959011458333336,121.499304809579L38.31712208333334,120.12779478625528L39.033343333333335,118.68655487133644L39.21239864583333,117.35717764296365L39.480981614583335,116.01094814494647L39.66003692708333,114.73480396631997L39.74956458333333,113.49807885779607L41.62964536458333,112.44962105080081L41.67440919270833,111.45035298861319L41.76393684895833,110.48397860547796L42.032519817708334,109.39174892337799L42.435394270833335,108.36740059738635L42.524921927083334,107.34078582864103L42.56968575520833,106.26962154742948L42.70397723958333,105.32509756279627L42.972560208333334,104.44869807210733L43.375434661458335,103.45392275856497L43.50972614583333,102.4425902856475L43.55448997395834,101.48839633539411L44.00212825520833,100.53598894550498L44.76311333333333,99.7480879063642L44.852640989583335,98.9809664229896L45.47933458333333,98.21877443389309L45.70315372395834,97.38609760528054L45.792681380208336,96.5338275566596L45.926972864583334,95.6469214414262L46.28508348958333,94.77401736314256L46.55366645833333,93.82085797242374L46.64319411458333,92.99043223174993L46.77748559895833,92.17453020988735L47.04606856770833,91.31359899412709L47.269887708333336,90.49889290201611L47.717525989583336,89.69303830204998L47.98610895833333,88.93104156617589L48.254691927083336,88.22135801054756L48.43374723958333,87.58345745225829L48.702330208333336,87.18383632226313L48.791857864583335,86.78374062834366L48.836621692708334,86.41388496306958L48.92614934895833,86.05245376927029L49.01567700520833,85.7480103760374L49.06044083333333,85.44984894083204L49.28425997395833,85.2045838276873L49.329023802083334,84.98668148938694L49.731898255208336,84.81735840487146L50.00048122395833,84.5580143038701L50.09000888020833,84.30151089537176L50.313828020833334,84.03164815161168L50.53764716145833,83.75885214020262L50.62717481770834,83.52928228639813L51.164340755208336,83.28150612779515L51.47768755208333,83.01139337394677L51.52245138020833,82.7362334576697L51.61197903645833,82.4644830550866L51.70150669270833,82.1998214153891L51.74627052083333,81.94914053620751L51.83579817708333,81.67212877343441L52.37296411458333,81.39414856178257L52.50725559895833,81.09721751429714L52.686310911458335,80.89788448848752L52.82060239583333,80.73335280729333L52.95489388020833,80.58313243670469L53.133949192708336,80.44027568481486L53.178713020833335,80.28447549550374L53.35776833333333,80.12584650628908L53.581587473958336,79.9786775249428L53.626351302083336,79.86088285039624L54.07398958333333,79.66398713244732L54.253044895833334,79.44314455531432L54.38733638020833,79.26114635131387L54.745447005208334,78.89335247851676L54.92450231770833,78.46083789197017L55.05879380208333,78.02209124429059L55.103557630208336,77.52752638429828L55.148321458333335,77.04058069147526L55.46166825520833,76.4489869563807L55.730251223958334,75.8340965156378L55.81977888020833,75.24653748728181L55.86454270833333,74.67601272045131L56.043598020833336,74.11886572174157L56.222653333333334,73.50302368146679L56.35694481770834,72.91562387596313L56.40170864583334,72.36653827294032L56.44647247395834,71.81693871566922L56.62552778645833,71.28195104689603L57.02840223958333,70.73738604139001L57.20745755208333,70.25135336615259L57.25222138020833,69.80669393615878L57.29698520833333,69.36893804930278L57.38651286458333,68.92759264228745L57.43127669270833,68.49761523868432L57.69985966145833,68.11331837451615L57.87891497395833,67.7713864437134L57.92367880208333,67.45431112026843L58.013206458333336,67.15890261480887L58.102734114583335,66.88954860418055L58.23702559895833,66.5763454926331L58.28178942708333,66.26346402835367L58.32655325520833,65.95587298192903L58.37131708333334,65.65421883093656L58.505608567708336,65.32763199385697L58.68466388020833,64.97978133537423L58.90848302083334,64.59279567296329L58.95324684895834,64.20683087813461L58.998010677083336,63.83206200749012L59.26659364583333,63.487827240629095L60.027578723958335,63.19836681411069L60.20663403645833,62.89745590137948L60.29616169270833,62.62159486867361L60.519980833333335,62.3886743004362L61.594312708333334,62.199951129766035L61.68384036458334,61.990983232658245L61.90765950520833,61.749986109274275L61.99718716145833,61.52052531843479L62.17624247395833,61.28052502788392L62.26577013020833,61.04714957610714L62.62388075520833,60.86269665669856L62.892463723958336,60.699474108446985L63.071519036458334,60.48296290325043L63.384865833333336,60.263460711717315L63.474393489583335,60.06579155502303L63.74297645833334,59.9209811429201L63.83250411458334,59.73420826570935L63.966795598958335,59.549497432238546L64.01155942708334,59.361291800730896L64.10108708333334,59.17859052008522L64.45919770833333,59.05475812521797L64.50396153645833,58.92495922770233L64.63825302083333,58.776605157224495L64.95159981770833,58.64341587170991L65.08589130208333,58.513239806048375L65.48876575520833,58.324128333496304L65.66782106770833,58.18352011500633L65.80211255208333,58.05870873168422L65.84687638020833,57.943150217142644L66.24975083333334,57.782207425798234L66.29451466145834,57.63040022506905L66.47356997395833,57.48324131328768L66.51833380208333,57.37851753888039L66.56309763020833,57.30041678873161L66.60786145833333,57.22311549826645L66.78691677083334,57.12161449558528L66.83168059895834,57.017094493759274L66.96597208333333,56.90717889502877L67.01073591145833,56.79633916984788L67.36884653645834,56.66005750520093L67.54790184895833,56.4782563057037L67.63742950520833,56.31182266423435L67.72695716145833,56.14819551878892L67.77172098958334,55.96317116191371L68.17459544270834,55.80412937557719L68.30888692708332,55.65027397746091L68.66699755208333,55.48458751497681L68.75652520833333,55.3094878277794L68.93558052083333,55.1809058400772L68.98034434895834,55.05605703116659L69.20416348958332,54.91089545550176L69.51751028645833,54.776180805548215L70.00991239583333,54.69375541550958L70.09944005208334,54.613512715873675L70.36802302083333,54.60374182909405L70.50231450520835,54.58094456122177L70.59184216145835,54.576486393973994L70.77089747395834,54.568218805614315L70.94995278645833,54.51144359484752L71.03948044270832,54.464968164971935L71.26329958333334,54.436294741186956L71.30806341145832,54.40983850896071L71.35282723958333,54.38798063547913L71.71093786458334,54.35066784023174L71.97952083333334,54.31719038749202L72.15857614583334,54.27626476601503L72.20333997395834,54.234036448505876L72.24810380208334,54.1910629737768L72.65097825520833,54.153406724270226L72.87479739583334,54.1126973184141L73.50149098958333,54.014162729536864L73.59101864583333,53.954875975437425L74.48629520833333,53.84258292376306L74.53105903645833,53.73367971534855L74.71011434895834,53.635616889834324L74.75487817708333,53.53452293869413L74.79964200520834,53.44981630965333L75.60539091145834,53.33798775028758L75.82921005208333,53.20838259229408L76.14255684895832,53.113471373623305L76.18732067708333,53.01468251016016L76.45590364583333,52.90065215513086L76.54543130208333,52.786196873065165L76.76925044270833,52.70195028202183L76.85877809895833,52.635528963456224L77.12736106770834,52.57839419644587L77.93310997395834,52.50140899498779L78.02263763020834,52.43017158949033L78.11216528645834,52.34693599182685L78.47027591145833,52.26457641327892L78.60456739583333,52.204089901236216L78.96267802083332,52.1401599604655L79.09696950520834,52.068753522914136L79.23126098958333,51.9727447182728L79.81319075520834,51.85304746217912L80.12653755208333,51.73755739912136L80.39512052083333,51.60511746268991L80.57417583333333,51.42356973193406L80.66370348958333,51.21740349974145L80.70846731770834,51.03044014455378L80.97705028645834,50.84278712726959L81.42468856770833,50.654941371379145L81.64850770833334,50.47681582464918L81.69327153645833,50.305982424670866L81.82756302083334,50.144234483776515L82.09614598958333,50.02496052708413L82.18567364583333,49.912349625683156L82.31996513020833,49.82755278680884L82.45425661458334,49.74245269235914L82.58854809895833,49.647126907803184L82.63331192708334,49.5375638055638L83.43906083333334,49.43736390837207L84.11051825520833,49.346693016167855L84.78197567708332,49.225730131037324L84.91626716145834,49.085569672868566L84.96103098958334,48.94412853877748L85.05055864583333,48.78391303961901L85.09532247395833,48.6322853414334L86.03536286458333,48.480274813336706L86.08012669270833,48.329353251722615L86.30394583333333,48.141942149270164L86.43823731770833,47.93312260414749L86.61729263020833,47.75368989457075L86.70682028645832,47.57358048242417L86.88587559895832,47.39468814308612L87.06493091145833,47.22285295949427L87.24398622395833,47.06343604414506L88.36308192708334,46.96148223979791L88.40784575520833,46.86798920678515L88.90024786458332,46.73809141999775L89.25835848958333,46.61047328912027L89.30312231770833,46.477363684906905L89.43741380208333,46.35110756420301L89.52694145833333,46.214949839521616L89.57170528645834,46.08083827535041L89.97457973958333,45.92916622375956L90.28792653645834,45.79906587919694L90.95938395833333,45.70078150580478L91.00414778645833,45.612072357565346L91.13843927083333,45.518801896375855L91.45178606770833,45.499897012088134L91.98895200520833,45.476844661117084L92.21277114583333,45.46720152845694L92.25753497395833,45.45762211456116L92.34706263020833,45.437378876089184L92.66040942708334,45.4356067659867L92.97375622395833,45.42193227763117L93.01852005208333,45.397366643906246L93.42139450520833,45.30141225640456L93.60044981770834,45.17990441365978L93.68997747395834,45.07451893584706L93.86903278645833,44.96410219386688L94.27190723958333,44.84531148768697L94.58525403645834,44.735290616237634L94.63001786458332,44.622531844138074L94.85383700520833,44.50124991946904L95.21194763020834,44.35728497572321L95.61482208333334,44.161662510865014L95.65958591145834,43.96688274354442L95.83864122395833,43.7962041885598L96.06246036458333,43.617474987401664L96.19675184895834,43.45729258157378L96.28627950520834,43.29186232141477L96.42057098958334,43.13013392057853L96.55486247395834,42.939213420912395L96.73391778645832,42.73660332084787L97.09202841145833,42.50212314928291L97.45013903645832,42.26155642955678L97.62919434895832,41.994792017858536L97.76348583333333,41.763907478753936L97.80824966145833,41.53020090796139L98.07683263020833,41.320704432504364L98.12159645833334,41.10524804951881L98.47970708333334,40.896213314246154L98.65876239583334,40.71651451214633L98.70352622395833,40.526574687742716L98.74829005208333,40.329722045958405L98.83781770833333,40.127075233969926L98.97210919270833,39.93093239159552L99.28545598958333,39.73432573096149L99.33021981770834,39.54581034869266L99.68833044270833,39.39772858964033L99.73309427083333,39.23857991323157L100.13596872395834,39.11262667363715L100.31502403645834,39.00273035408295L100.40455169270834,38.888253637279995L100.53884317708334,38.79820030687592L100.76266231770833,38.711847033073994L100.80742614583333,38.618841797979L100.89695380208333,38.51395535960464L100.94171763020834,38.384033913339536L100.98648145833333,38.256536818924324L101.21030059895834,38.16483823688577L101.83699419270833,38.075098373866L102.23986864583334,37.939126915218544L102.50845161458334,37.81936873395056L102.82179841145833,37.660559098642224L102.86656223958333,37.49281623642051L103.26943669270833,37.27865413422129L103.58278348958333,37.0783215938212L103.98565794270833,36.788478700023816L104.11994942708334,36.491684066354445L104.43329622395834,36.22554247414073L104.52282388020834,35.95362510683286L104.70187919270833,35.69857072540421L105.14951747395834,35.47419153388158L105.19428130208333,35.2479597147445L105.32857278645834,35.03232774089531L105.55239192708333,34.83503879432534L105.73144723958333,34.6563710514487L106.31337700520834,34.47531616506416L106.40290466145834,34.30917779229873L106.44766848958334,34.12787497668119L106.71625145833333,34.00263840290242L106.76101528645835,33.87930432209121L106.80577911458333,33.75663221078371L106.89530677083333,33.6377800863108L107.52200036458333,33.4605127166095L108.32774927083334,33.292234173560324L108.59633223958333,33.10960416564222L108.90967903645833,32.9672320061215L109.17826200520834,32.853428853166356L109.35731731770834,32.7384936744367L109.44684497395833,32.639695834742426L109.53637263020833,32.529326517883L109.80495559895833,32.473903512504876L109.93924708333333,32.45802846209284L110.02877473958333,32.43498059227581L110.16306622395834,32.405863479167365L110.29735770833332,32.380747527656034L110.43164919270833,32.34475531088499L110.83452364583333,32.33688120074374L110.92405130208333,32.33366886963032L111.46121723958333,32.340909817072806L111.50598106770833,32.345275289082814L111.55074489583333,32.36177624141313L112.17743848958334,32.36839277294023L112.35649380208334,32.3755233239931L112.53554911458333,32.38302247129329L112.71460442708333,32.37817779985086L112.75936825520833,32.37425600657589L112.89365973958334,32.35574755605182L112.98318739583334,32.3462155803616L113.07271505208334,32.35443072206223L113.43082567708333,32.37506309572759L113.52035333333333,32.40191566137189L113.65464481770833,32.41086323023107L113.78893630208334,32.413597045511146L113.92322778645833,32.41924049632685L114.01275544270833,32.41538653800376L114.14704692708334,32.417351615078616L114.28133841145834,32.42326157286172L114.99755966145834,32.404370373424705L115.31090645833332,32.383213230000194L115.53472559895833,32.36367425003427L115.57948942708333,32.33436115674323L115.62425325520833,32.3076778516262L115.71378091145834,32.27755387105857L115.75854473958333,32.25610231812175L115.84807239583333,32.226929061572655L115.93760005208333,32.20083188563406L116.11665536458332,32.16376351747896L116.29571067708333,32.1408112591989L116.51952981770833,32.12802902589272L116.60905747395834,32.11931118849094L116.92240427083333,32.10900737110043L117.01193192708334,32.089086866191074L117.05669575520834,32.062975105166856L117.28051489583333,32.03144624262553L117.45957020833333,32.01904536502887L117.68338934895833,32.01400807938276L117.77291700520833,32.03279572681161L117.81768083333334,32.052595006550284L118.26531911458333,32.104397045805825L118.31008294270833,32.15595773076175L118.48913825520833,32.2114978387252L118.62342973958334,32.2756608035151L118.75772122395833,32.324532771322644L118.80248505208334,32.37317904224733L118.93677653645832,32.43513351476804L118.98154036458334,32.492838885324595L119.07106802083334,32.55675638516491L119.29488716145833,32.61477642677398L119.33965098958333,32.67840419374419L119.65299778645833,32.76162952265419L119.69776161458334,32.85047511668695L119.87681692708333,32.92967828991118L119.96634458333332,33.01147048199311L120.05587223958332,33.0786687703462L120.23492755208332,33.150041303839565L120.68256583333333,33.21971479553014L120.77209348958333,33.28839712618985L120.86162114583333,33.34383397202912L120.90638497395834,33.396338748534454L121.08544028645834,33.44824810784245L121.21973177083333,33.47359874615834L121.57784239583333,33.492888571542004L121.75689770833333,33.50639757009293L122.38359130208333,33.49621173790666L122.56264661458333,33.4883205359833L122.65217427083333,33.491478090928126L122.87599341145832,33.489214315320105L122.92075723958334,33.48437340662572L123.01028489583334,33.470165098805026L123.09981255208334,33.4506025784552L123.14457638020833,33.42377682233155L123.23410403645833,33.39099281207105L123.32363169270833,33.34610623981398L123.36839552083333,33.308475284327216L123.68174231770833,33.26820796026369L123.81603380208334,33.23034560243114L124.03985294270834,33.209975649505836L124.57701888020833,33.20983709317367L124.75607419270833,33.22004801931021L124.89036567708334,33.21116696444962L125.33800395833333,33.176655985755424L125.60658692708333,33.123820521788915L125.65135075520834,33.07259471517063L125.74087841145834,33.021853406199746L125.87516989583332,32.96981549116622L126.00946138020834,32.92529769637822L126.05422520833334,32.87634450068365L126.09898903645833,32.82762172823591L126.54662731770834,32.74929722922258L126.59139114583333,32.67127983349947L126.63615497395834,32.58881681256283L126.72568263020834,32.48877736953408L127.26284856770835,32.38906562634584L127.30761239583333,32.29117552170555L127.35237622395834,32.19418282804149L127.39714005208333,32.100384319066706L127.75525067708334,32.03839497577556L128.15812513020833,32.00700261228951L128.91911020833334,31.99484272557909L129.54580380208333,32.05042850388031L129.72485911458335,32.1010912909876L129.76962294270834,32.15382715867221L129.85915059895834,32.221876310927605L130.21726122395833,32.29516896910997L130.30678888020833,32.35846924363168L130.48584419270833,32.42175044778824L130.93348247395835,32.462508177415565L131.29159309895834,32.50395594478956L131.33635692708333,32.55426023667112L131.82875903645834,32.61083758358678L132.18686966145833,32.66097649490206L132.45545263020833,32.70509471487544L132.50021645833334,32.744586098682824L132.58974411458334,32.77926429053912L132.67927177083334,32.820000202166185L132.90309091145832,32.85456603464778L133.75360364583332,32.92305361077987L134.02218661458335,33.015778276092334L134.06695044270833,33.10576187789693L134.51458872395833,33.199271737586365L134.60411638020835,33.29399653037094L134.73840786458334,33.387728306433175L134.78317169270835,33.47964006014989L134.82793552083334,33.56813412659261L135.27557380208333,33.648862064121545L135.32033763020831,33.726854961210165L135.45462911458335,33.80395533223844L135.72321208333332,33.857132800605775L135.94703122395833,33.90728405773893L136.03655888020833,33.95821864814619L136.12608653645833,34.00887555013301L136.21561419270833,34.05585745467156L136.61848864583334,34.08002378549866L136.79754395833334,34.08313141453127L136.97659927083333,34.07474348821442L137.06612692708336,34.063409990604534L137.20041841145834,34.05757808983004L137.60329286458335,34.048401301034694L137.64805669270834,34.0429692352197L137.82711200520833,34.04300494067301L138.09569497395833,34.04011758974392L138.18522263020833,34.04022260024532L138.72238856770832,34.05373063871077L138.76715239583334,34.06714832791115L138.81191622395835,34.07197291560413L138.85668005208333,34.0671403690967L138.99097153645835,34.065120808651116L139.17002684895834,34.07333385273263L139.43860981770834,34.09255631072607L139.48337364583332,34.11989787462194L139.61766513020834,34.15570126294605L139.97577575520833,34.16310787049134L140.19959489583334,34.173375095334166L140.33388638020833,34.16895743679212L140.46817786458334,34.1575602238354L140.51294169270832,34.148575090943275L140.78152466145832,34.11167677591429L140.87105231770835,34.056640887552305L141.13963528645832,33.99759983140062L141.27392677083336,33.9383099082547L141.40821825520834,33.87806457554974L141.45298208333335,33.831370599562696L141.63203739583335,33.78205518332766L142.48255013020835,33.68407104967573L142.66160544270835,33.59422348552643L142.75113309895832,33.50504558544021L142.97495223958333,33.42343460855661L143.19877138020834,33.33958169530565L143.78070114583332,33.32234075330594L143.95975645833332,33.289287001616685L144.09404794270836,33.236523092136956L144.76550536458333,33.166435842843235L145.25790747395834,33.132020563092595L145.30267130208333,33.100804883152165L145.43696278645834,33.05779686886582L145.7055457552083,33.00706927982526L146.01889255208334,32.95208132611955L146.06365638020833,32.89708952928479L146.1084202083333,32.83203872853931L146.15318403645833,32.78065413983394L146.19794786458334,32.7241038057756L146.24271169270833,32.65417029842269L146.60082231770832,32.60311436213484L147.63039036458335,32.540453446709904L147.67515419270833,32.47196187559621L147.71991802083332,32.40838762520199L148.03326481770833,32.31787833407293L148.5256669270833,32.19128972332115L148.61519458333333,32.063103487254175L149.15236052083333,31.922301214449515L149.19712434895834,31.784145110185563L149.33141583333332,31.62716643467168L149.42094348958332,31.467535619283012L149.46570731770834,31.31181554155917L149.55523497395833,31.183933380806838L150.40574770833334,31.06412624447999L150.62956684895835,30.949427700861865L150.76385833333333,30.839274068515202L150.89814981770834,30.743407844944322L151.30102427083335,30.675238806573805L151.3457880989583,30.606257841325295L151.61437106770833,30.556505209649522L151.70389872395833,30.503788569065396L151.74866255208332,30.45980693130622L152.01724552083334,30.432531435374734L152.15153700520833,30.403653620927404L152.42011997395832,30.356683282310804L152.50964763020835,30.300113267362978L152.59917528645832,30.2536744395248L152.73346677083336,30.211682797977126L153.1363412239583,30.152216128184655L153.36016036458332,30.117506450031385L153.44968802083332,30.083858897426595L153.49445184895833,30.052485512472426L153.53921567708332,30.01833503483218L154.03161778645833,29.970918399405097L154.47925606770835,29.915292363834215L154.83736669270834,29.862035092322053L155.59835177083332,29.85577212433117L155.91169856770836,29.8384647699501L155.9564623958333,29.81920910746965L156.09075388020833,29.798900951903967L156.53839216145835,29.759180746620704L156.80697513020831,29.721013141431065L156.9860304427083,29.667264302605794L157.20984958333332,29.579186595222044L157.29937723958335,29.476190220007723L157.38890489583332,29.35796676547224L157.47843255208335,29.23421496152415L157.56796020833332,29.110428109307584L157.74701552083334,28.98454483889046L157.79177934895833,28.859075510672053L157.92607083333334,28.73503070921808L158.19465380208334,28.60317950390528L158.28418145833334,28.466829060884397L158.41847294270832,28.32229172340226L158.77658356770831,28.184628730615554L158.86611122395834,28.04762867333391L158.91087505208333,27.89946881429833L158.95563888020834,27.742352306754466L159.31374950520834,27.60355168870263L159.9852069270833,27.51630020905455L160.07473458333334,27.438287880511872L160.16426223958334,27.35920878400667L160.25378989583334,27.289785113329266L160.34331755208333,27.22889393240101L160.74619200520834,27.192438456113184L160.92524731770834,27.167781467559035L161.50717708333335,27.15390191086691L161.68623239583334,27.134353823899545L162.53674513020835,27.109249397928952L163.20820255208332,27.0484461598337L163.25296638020833,26.98342953125792L163.52154934895833,26.905365550219134L163.56631317708334,26.823761867269344L163.65584083333334,26.75878828050198L163.79013231770833,26.68788009222138L164.0139514583333,26.619936026264874L164.14824294270835,26.554943338058038L164.1930067708333,26.50336058253439L164.28253442708333,26.461740419743332L164.99875567708332,26.437761626570662L165.31210247395833,26.436328336032375L165.49115778645833,26.451100823373626L165.8045045833333,26.47248294217757L165.84926841145833,26.49379812869168L166.16261520833334,26.51956738533771L166.29690669270832,26.522152871239868L167.37123856770833,26.497172174524646L167.50553005208334,26.45867876628346L167.81887684895833,26.425908091591477L167.95316833333334,26.386109507296364L167.99793216145835,26.34575822822909L168.08745981770832,26.29532132292649L168.13222364583334,26.24508529264499L168.44557044270832,26.191481058542763L168.53509809895834,26.138127267108775L169.02750020833332,26.094626234235985L169.25131934895833,26.067011324884575L169.6541938020833,26.050140267305096L169.74372145833334,26.034969951024358L169.8332491145833,26.01069318056047L170.0123044270833,25.98130364712335L170.14659591145835,25.95984158725935L170.72852567708333,25.947574493935445L170.77328950520834,25.937737640891086L170.81805333333335,25.931358882983606L171.08663630208332,25.928882210454034L171.44474692708332,25.91121613950569L171.71332989583334,25.90781069037165L171.75809372395832,25.904002603740132L171.80285755208334,25.900187687990208L171.98191286458334,25.9002629935447L172.20573200520835,25.906520023820395L172.51907880208333,25.907815134986684L172.87718942708332,25.917787358921153L173.05624473958332,25.916345360048613L173.23530005208332,25.907192654748062L173.32482770833334,25.881741027888832L173.59341067708334,25.856033375922852L173.72770216145832,25.84286914992016L173.81722981770835,25.828049281486813L173.90675747395832,25.83093280183438L173.99628513020835,25.831791158710345L174.13057661458333,25.823357538245478L174.35439575520834,25.823048225354967L174.89156169270834,25.81637478086777L175.11538083333332,25.82658880251678L175.33919997395833,25.843417493327994L176.14494888020835,25.911098732627373L176.32400419270834,25.98701594482176L176.45829567708333,26.052408713665205L176.6821148177083,26.111585907850344L176.95069778645833,26.17604880307919L176.99546161458335,26.24028980138645L177.17451692708335,26.30179191295611L177.26404458333332,26.360157751566803L177.53262755208334,26.42054626957257L177.57739138020833,26.477730331549264L177.84597434895835,26.533084475315196L178.15932114583333,26.583937939131083L178.42790411458336,26.646324298162746L178.56219559895834,26.702088512310244L178.83077856770834,26.737752302448826L179.32318067708331,26.77549485362214L179.41270833333334,26.809522971844594L179.72605513020832,26.842106264852482L179.8603466145833,26.878054850246144L179.99463809895835,26.920612246539186L180.08416575520832,26.96478665681059L180.30798489583333,27.01621187304849L181.02420614583335,27.034634120223824L181.11373380208332,27.062982377204605L181.15849763020833,27.08340667146091L181.33755294270833,27.09220895716005L181.38231677083334,27.10473812728553L181.56137208333334,27.135654281644147L181.65089973958334,27.167709823017514L181.91948270833333,27.201537621712212L181.96424653645832,27.224204812985505L182.27759333333333,27.235010487895387L182.81475927083335,27.22152241984386L183.03857841145833,27.214485310473993L183.17286989583334,27.202145475943208L183.57574434895832,27.188737463943816L183.62050817708334,27.173802296435177L183.88909114583333,27.162295024375734L183.93385497395832,27.151414074692084L184.56054856770834,27.13036625571109L184.73960388020834,27.106827118795064L184.82913153645833,27.087074390824313L184.91865919270833,27.060126509431587L185.05295067708334,27.025328557776003L185.18724216145833,26.99353910429878L185.59011661458334,26.983531169926298L185.85869958333333,26.981932735374684L185.94822723958333,26.98145541512258L186.44062934895834,26.99095523302279L186.48539317708335,27.00042870522962L186.75397614583332,27.010803220392134L187.06732294270833,27.02983229300747L188.14165481770831,27.070460852841087L188.27594630208336,27.10878483216672L188.41023778645834,27.129099594633185L188.4997654427083,27.149019974775484L189.43980583333334,27.15628802787362L189.57409731770832,27.16312450154368L189.75315263020832,27.17201987226792L189.79791645833333,27.17876848882039L189.84268028645835,27.18551165461808L190.1112632552083,27.207841649505855L190.24555473958333,27.216653914647605L190.33508239583333,27.22594796442679L190.73795684895833,27.23371360696585L190.91701216145833,27.232002700074414L191.05130364583334,27.202197106682515L191.27512278645835,27.170590224581648L191.63323341145835,27.157557331971695L191.81228872395835,27.15874141726254L191.90181638020834,27.154088216593816L191.99134403645834,27.14173969523632L192.57327380208332,27.11326096916674L192.66280145833335,27.082768504452734L192.79709294270833,27.044572498027602L193.33425888020832,27.03674017835975L193.51331419270835,27.027465001882465L193.73713333333333,27.058493626166765L193.82666098958333,27.092336359367803L194.27429927083335,27.12360713603859L194.36382692708332,27.152927045899165L194.45335458333335,27.18575006325943L195.03528434895833,27.234196349664035L195.30386731770835,27.281046491724595L195.75150559895832,27.335703503442247L195.97532473958333,27.37657954453305L196.28867153645834,27.426567449738297L196.42296302083332,27.476110532058616L196.51249067708335,27.522438676737284L197.40776723958334,27.546216822623425L197.45253106770832,27.571620324577523L197.49729489583333,27.597515829154194L197.72111403645835,27.625819208550897L197.81064169270832,27.648152740644107L198.07922466145834,27.67410739391442L198.25827997395834,27.701775939340553L198.61639059895833,27.729569616026986L198.66115442708335,27.76001796541937L198.88497356770833,27.768728806437103L198.92973739583334,27.77934095251175L199.10879270833334,27.795295764800084L199.60119481770832,27.809643247764747L199.86977778645834,27.82606624946757L200.13836075520834,27.849837803765606L200.27265223958332,27.87166416022704L200.76505434895833,27.867812139650486L200.94410966145836,27.857712546743212L201.12316497395835,27.848487248867727L201.21269263020832,27.83839417534318L201.43651177083333,27.829890903667977L201.61556708333333,27.820233980213263L201.83938622395834,27.803886602791202L202.06320536458333,27.768236897769597L202.24226067708332,27.74540800909334L202.28702450520834,27.729826148320722L202.37655216145833,27.712705068943574L202.77942661458331,27.616276307646697L202.82419044270833,27.520094925718396L203.31659255208334,27.422232110546418L203.40612020833333,27.31158809421484L203.45088403645832,27.196059073654347L203.76423083333336,27.05815917666494L203.85375848958333,26.911759558321666L203.89852231770834,26.77106520314685L203.94328614583335,26.636111234057495L203.9880499739583,26.493908096698444L204.16710528645834,26.354465674051735L204.25663294270834,26.208890887890476L205.24143716145832,26.072678049442583L205.3757286458333,25.952558971517224L206.00242223958332,25.861677673217073L206.22624138020834,25.800879073984884L206.27100520833332,25.73972745276666L206.36053286458335,25.684363625816886L206.71864348958334,25.635865202509382L206.94246263020835,25.572992695670955L207.25580942708334,25.532496707988486L208.50919661458335,25.49341912249981L208.82254341145833,25.45549338654802L209.31494552083333,25.435873612980803L209.53876466145834,25.431138956274413L209.94163911458335,25.424943616854833L209.98640294270834,25.42047167197817L210.43404122395833,25.43940365467183L210.47880505208332,25.458608003616774L210.52356888020833,25.47775368568376L210.61309653645833,25.494255038338352L210.70262419270833,25.513895050182793L210.79215184895835,25.534691288068558L210.8369156770833,25.557135323793826L210.88167950520833,25.578199908551824L210.97120716145835,25.603158549901536L211.77695606770834,25.63342504726945L212.00077520833335,25.65965908952609L212.22459434895833,25.687943195258505L212.35888583333335,25.723449518371854L212.49317731770833,25.766726946785347L212.71699645833334,25.79653920780085L213.20939856770835,25.816549890383374L213.61227302083336,25.83389799937415L213.74656450520834,25.843412051957422L213.79132833333335,25.843550152760056L214.19420278645833,25.838868645075458L214.46278575520833,25.825619124669476L215.13424317708333,25.81390707659182L215.17900700520835,25.79701836772467L215.44758997395832,25.79135420233069L215.6266452864583,25.79644935662932L215.76093677083333,25.80221292671168L216.02951973958332,25.79854967867102L216.11904739583332,25.792578998805364L216.52192184895833,25.8029613103989L216.70097716145833,25.82406997479868L216.96956013020835,25.84313014671121L217.19337927083333,25.871353368078342L217.46196223958333,25.88407009791113L217.64101755208333,25.89360260531641L217.86483669270834,25.905394836964522L218.17818348958335,25.909590722710426L218.35723880208334,25.913309919011535L218.76011325520832,25.93448520109L218.89440473958334,25.947270171969308L219.43157067708336,25.947924778734176L219.74491747395834,25.955455255514142L219.87920895833332,25.962079840700127L219.96873661458335,25.970449776935563L220.01350044270833,25.975883592240894L220.19255575520833,25.99150929091018L220.23731958333335,26.00708067845798L220.28208341145833,26.023862877530465L220.81924934895835,26.042554246018483L221.08783231770832,26.039664325448282L221.13259614583333,26.03560517757699L221.22212380208333,26.0243898732317L221.44594294270834,26.004460055173062L221.49070677083333,25.986029623865022L221.62499825520834,25.971741700908037L221.89358122395834,25.939594274999166L222.07263653645833,25.89543229768638L222.38598333333334,25.852069020765544L222.83362161458334,25.77302212482048L223.10220458333333,25.701078120933545L223.28125989583333,25.62876004687898L223.41555138020834,25.556125213170947L223.77366200520834,25.46445526921065L223.8631896614583,25.375562722880538L224.44511942708334,25.308838452430052L224.62417473958334,25.246422555023997L224.66893856770835,25.19284932258122L225.51945130208333,25.175906467865897L225.56421513020834,25.155938711536045L225.69850661458332,25.136092920280483L226.01185341145833,25.10823008988664L226.10138106770833,25.083270176827448L226.45949169270835,25.07403013806637L226.54901934895832,25.059864734524513L226.59378317708334,25.038327796296848L227.17571294270834,25.011574149733658L227.26524059895834,24.992291819475142L227.31000442708333,24.97070298482095L227.71287888020834,24.939522603294222L227.84717036458335,24.91368155186183L227.93669802083332,24.878505024878933L228.33957247395833,24.836974239148248L228.47386395833334,24.792345116888722L228.56339161458334,24.750883219946832L228.65291927083334,24.718464590892662L229.19008520833333,24.69591742549616L229.95107028645833,24.670295631424096L230.17488942708334,24.62336248616098L230.62252770833334,24.585760074903114L230.89111067708333,24.541530621924995L231.20445747395834,24.48298795436389L231.47304044270834,24.41317249536721L231.56256809895834,24.343245486627204L231.74162341145833,24.27846644293216L232.05497020833334,24.206326724557528L232.09973403645836,24.13758927643528L232.14449786458331,24.07291848447126L232.59213614583334,24.024702417314252L233.30835739583335,23.985930109048557L233.5321765364583,23.9527900976791L233.75599567708332,23.914038630852783L233.97981481770833,23.873420802773445L234.02457864583334,23.83520028500025L234.11410630208331,23.803801540473348L234.24839778645833,23.773821346865365L234.69603606770835,23.754554488165983L234.87509138020835,23.72716537236189L234.91985520833333,23.69825869677686L235.18843817708333,23.657827463029086L235.36749348958332,23.612580297825705L235.41225731770834,23.56380517426998L235.77036794270833,23.514494123736178L235.85989559895833,23.463102093673495L235.90465942708335,23.42011398798148L235.94942325520833,23.381815778639762L236.03895091145833,23.341873872656567L236.1732423958333,23.308470663595973L236.21800622395833,23.267169497856994L236.26277005208334,23.226009297809505L236.30753388020835,23.184480848237772L236.48658919270835,23.142876178776742L236.57611684895832,23.112743276661345L236.71040833333333,23.09112800212644L236.75517216145832,23.060129766168853L236.79993598958333,23.0292002463378L236.84469981770835,22.995669288331328L236.93422747395832,22.951967408770294L237.06851895833333,22.912597638091075L237.11328278645834,22.87485801279781L237.38186575520834,22.83192382924837L237.65044872395833,22.79061281668772L237.73997638020833,22.760206713644614L237.87426786458335,22.72379587954786L238.41143380208334,22.713076927538374L238.76954442708333,22.69581922397112L238.81430825520832,22.681745779153577L238.85907208333333,22.669774447061023L239.12765505208336,22.650263294159267L239.44100184895834,22.61730886183962L239.66482098958335,22.574950009540174L239.97816778645833,22.529717852145655L240.15722309895833,22.48467094388642L240.38104223958334,22.418487602339834L240.56009755208333,22.34608922548799L240.82868052083333,22.276662858736973L240.91820817708336,22.205371045126256L241.05249966145834,22.127569363789796L241.36584645833332,22.03916980101334L241.63442942708332,21.95353777039429L241.76872091145833,21.873764745407318L241.85824856770833,21.788452322259317L241.90301239583334,21.701348472679857L242.12683153645835,21.622333171855306" style="fill: none;" fill="none"></path></g></g></g></g><g opacity="0.2"><g><g><g><path stroke="rgb(238, 51, 119)" stroke-width="2px" d="M23.007892864583333,158.2222222222222L23.589822630208335,158.2222222222222L23.85840559895833,152.20653391194838L24.574626848958335,154.0575150013384L24.664154505208334,154.26067139498062L24.798445989583335,154.53077711227039L24.887973645833334,154.65247307707452L25.156556614583334,154.9737504425769L25.29084809895833,154.9737504425769L25.962305520833333,154.9737504425769L26.096597005208334,154.9737504425769L26.32041614583333,154.9737504425769L26.678526770833333,152.30551933517884L26.991873567708332,152.30551933517884L27.349984192708334,151.38807672655415L27.484275677083335,150.40079799956746L27.529039505208335,149.54255471378565L27.842386302083334,142.97496734145614L28.066205442708334,141.5810613143775L28.424316067708332,133.6679043430421L29.00624583333333,131.38762478364836L29.498647942708335,131.24724984334577L29.722467083333335,127.94497403999168L29.856758567708333,127.63956967078978L30.25963302083333,128.13497293078237L30.304396848958334,128.13497293078237L30.752035130208334,127.90206031004587L30.975854270833334,133.4463270770179L31.065381927083333,135.81521728138128L31.110145755208336,135.81521728138128L31.289201067708333,137.12933928353917L31.64731169270833,132.66127363840738L32.00542231770833,131.1314778170652L32.05018614583334,131.1314778170652L32.27400528645833,122.19530784587064L32.76640739583333,119.91887980202833L33.03499036458333,117.5115112811327L33.25880950520833,115.99458515809641L33.39310098958333,121.95058648950523L33.93026692708333,100.28242785235244L34.198849895833334,102.99098083708022L34.42266903645833,103.43118088278506L34.73601583333333,98.59667604333823L34.91507114583334,102.6415004680554L35.004598802083336,100.93297111656929L35.85511153645834,79.5302152401871L36.07893067708333,75.26986803611118L36.12369450520833,70.01606927315393L36.34751364583333,71.4531579547458L36.571332786458335,75.58742742737132L36.66086044270833,77.6908817158805L37.018971067708335,80.13699747787581L37.063734895833335,77.54923583070436L37.37708169270833,55.52138874265882L37.556137005208335,44.24040099978447L37.959011458333336,42.65993500086996L38.31712208333334,45.47256916099125L39.033343333333335,38.874383330345154L39.21239864583333,42.48524454898304L39.480981614583335,38.92081518305674L39.66003692708333,40.4562271071805L39.74956458333333,40.35040344794592L41.62964536458333,49.45185703701443L41.67440919270833,50.46998334593243L41.76393684895833,50.60451193981701L42.032519817708334,40.69044935372141L42.435394270833335,42.97694917519888L42.524921927083334,40.84560040964022L42.56968575520833,35.888193358977645L42.70397723958333,42.38311952352524L42.972560208333334,45.22933609949219L43.375434661458335,35.3092024491893L43.50972614583333,32.22261888451046L43.55448997395834,34.348743882444175L44.00212825520833,32.6376026471456L44.76311333333333,42.84663496083683L44.852640989583335,42.86923936009407L45.47933458333333,41.761940611733344L45.70315372395834,34.93816759188971L45.792681380208336,31.82897226015728L45.926972864583334,27.493790348370876L46.28508348958333,26.89190032747057L46.55366645833333,18.819536328315735L46.64319411458333,26.8824106057485L46.77748559895833,26.472569564978293L47.04606856770833,21.194840199417534L47.269887708333336,23.397413452466335L47.717525989583336,22.581916279262963L47.98610895833333,24.77460194958582L48.254691927083336,27.820213198661804L48.43374723958333,32.70879029565388L48.702330208333336,52.44204035401344L48.791857864583335,51.63577502965927L48.836621692708334,53.58547814355957L48.92614934895833,53.64281433489588L49.01567700520833,58.17164403862423L49.06044083333333,58.17164403862423L49.28425997395833,62.543178657690675L49.329023802083334,64.65592373741997L49.731898255208336,68.86579416857825L50.00048122395833,59.89111088381872L50.09000888020833,59.67294306556383L50.313828020833334,57.87668167882494L50.53764716145833,57.073510828945366L50.62717481770834,60.86550932129223L51.164340755208336,58.59728900260395L51.47768755208333,55.85900327563286L51.52245138020833,54.829265319638765L51.61197903645833,54.65939340657658L51.70150669270833,54.88272605008549L51.74627052083333,55.85051557421684L51.83579817708333,52.58427566289902L52.37296411458333,51.95608997676107L52.50725559895833,49.38707937134638L52.686310911458335,59.43267922600109L52.82060239583333,62.86908576223585L52.95489388020833,64.13897704084712L53.133949192708336,64.67511684695879L53.178713020833335,62.952474481529656L53.35776833333333,62.33833181526924L53.581587473958336,63.34568640589714L53.626351302083336,66.44340271088812L54.07398958333333,57.06217915813127L54.253044895833334,53.89718750450346L54.38733638020833,58.047747174898774L54.745447005208334,35.69937147365677L54.92450231770833,27.284721758630543L55.05879380208333,25.722188976075916L55.103557630208336,18.138810886277103L55.148321458333335,18.138810886277103L55.46166825520833,4.369372023476505L55.730251223958334,0.376660022470684L55.81977888020833,2.6282585925526045L55.86454270833333,3.663610809379158L56.043598020833336,4.28433291779625L56.222653333333334,-4.226562321186066L56.35694481770834,-1.7367481589317322L56.40170864583334,2.1047471894158365L56.44647247395834,1.010658899943047L56.62552778645833,1.8926283319791224L57.02840223958333,-0.3675316174824901L57.20745755208333,6.367032123936558L57.25222138020833,10.974719352192345L57.29698520833333,11.07095750835207L57.38651286458333,9.769451015525398L57.43127669270833,10.491332968076076L57.69985966145833,15.937519629796352L57.87891497395833,21.052288075288143L57.92367880208333,23.858003874619808L58.013206458333336,26.28718107276493L58.102734114583335,29.390821086035842L58.23702559895833,22.703779631190834L58.28178942708333,22.167212492889824L58.32655325520833,22.341298785474567L58.37131708333334,22.622881227069435L58.505608567708336,18.45994365877575L58.68466388020833,14.76298973957699L58.90848302083334,8.395622233549767L58.95324684895834,7.828375591172123L58.998010677083336,8.769361072116432L59.26659364583333,12.618017918533745L60.027578723958335,20.17652232779398L60.20663403645833,17.917865408791446L60.29616169270833,21.15206277370453L60.519980833333335,27.176606714725494L61.594312708333334,33.509478198157424L61.68384036458334,30.045832918749923L61.90765950520833,24.70457841290369L61.99718716145833,26.054491327868575L62.17624247395833,23.98281434509489L62.26577013020833,24.58211090167364L62.62388075520833,31.886382129457264L62.892463723958336,34.920890109406585L63.071519036458334,26.106124844815998L63.384865833333336,25.227294094032708L63.474393489583335,28.348616818586997L63.74297645833334,36.56387186050415L63.83250411458334,29.45232745011648L63.966795598958335,29.4473615553644L64.01155942708334,28.532266510857486L64.10108708333334,29.09861428207821L64.45919770833333,38.56364651852184L64.50396153645833,37.338352511326484L64.63825302083333,33.9805898335245L64.95159981770833,36.2712598277463L65.08589130208333,36.53904238674375L65.48876575520833,26.244418382644653L65.66782106770833,34.21498890717825L65.80211255208333,36.67954626348284L65.84687638020833,38.053279264105704L66.24975083333334,29.947738077905445L66.29451466145834,31.250497096114692L66.47356997395833,31.789642963144512L66.51833380208333,39.00765939884716L66.56309763020833,43.535501817862205L66.60786145833333,43.535501817862205L66.78691677083334,39.06557027830019L66.83168059895834,38.3381772140662L66.96597208333333,37.17384435402023L67.01073591145833,36.80626499321726L67.36884653645834,31.969932940271168L67.54790184895833,23.39268332719803L67.63742950520833,25.886977109644146L67.72695716145833,26.10283880763584L67.77172098958334,21.83797514438629L68.17459544270834,26.341511203183078L68.30888692708332,27.023238665527764L68.66699755208333,24.521518144342632L68.75652520833333,22.44509630070793L68.93558052083333,30.943083160453376L68.98034434895834,31.42075213458803L69.20416348958332,27.312616235680046L69.51751028645833,29.05511481232113L70.00991239583333,38.88967150780889L70.09944005208334,39.16315674119526L70.36802302083333,52.71452356709376L70.50231450520835,50.154685868157294L70.59184216145835,53.70731202430195L70.77089747395834,52.94970362716251L70.94995278645833,43.35116692052948L71.03948044270832,45.29202131099171L71.26329958333334,48.753979365030936L71.30806341145832,49.145725097921165L71.35282723958333,50.02133612169161L71.71093786458334,46.86670358975729L71.97952083333334,47.575765576627525L72.15857614583334,46.0023431910409L72.20333997395834,45.663100375069526L72.24810380208334,45.43467658427027L72.65097825520833,46.45052624411053L72.87479739583334,45.752928548389015L73.50149098958333,33.70165979862213L73.59101864583333,41.68614809049502L74.48629520833333,30.515854120254517L74.53105903645833,31.024954113695355L74.71011434895834,33.109834187560615L74.75487817708333,32.294454899099144L74.79964200520834,35.585936880773964L75.60539091145834,29.666199843088798L75.82921005208333,25.671616421805496L76.14255684895832,32.87335739533108L76.18732067708333,31.870025621520156L76.45590364583333,28.40421420998043L76.54543130208333,28.10872136884266L76.76925044270833,34.47171240382725L76.85877809895833,38.21054487758213L77.12736106770834,40.12553830279246L77.93310997395834,35.66190622912514L78.02263763020834,36.79233985808161L78.11216528645834,34.01041467322245L78.47027591145833,34.05690546830496L78.60456739583333,38.784960385825904L78.96267802083332,37.907411631610664L79.09696950520834,36.11607193284565L79.23126098958333,30.449263976679916L79.81319075520834,24.926290141211624L80.12653755208333,25.66784411006504L80.39512052083333,21.60687684350544L80.57417583333333,10.161948263645172L80.66370348958333,4.2014599442481995L80.70846731770834,8.249548302756423L80.97705028645834,7.759560373094349L81.42468856770833,7.382933358351403L81.64850770833334,9.307033379872646L81.69327153645833,10.69044029712677L81.82756302083334,12.51149431864422L82.09614598958333,22.182935370339298L82.18567364583333,23.5394645664427L82.31996513020833,29.90372286240261L82.45425661458334,29.682350052727603L82.58854809895833,27.10382762220171L82.63331192708334,23.543782095114402L83.43906083333334,25.58866977029377L84.11051825520833,27.697008907794952L84.78197567708332,20.25120231178072L84.91626716145834,15.406154155731201L84.96103098958334,14.849664496050949L85.05055864583333,10.042442606555099L85.09532247395833,11.852607025040532L86.03536286458333,11.492749114831295L86.08012669270833,11.492749114831295L86.30394583333333,2.25757002168232L86.43823731770833,-3.3502218855751797L86.61729263020833,3.5521802571084784L86.70682028645832,3.069810628890991L86.88587559895832,3.0571380191379167L87.06493091145833,4.505307866467381L87.24398622395833,7.313396096229553L88.36308192708334,21.463234285513572L88.40784575520833,23.415729794237347L88.90024786458332,14.05669804414114L89.25835848958333,14.407243059741134L89.30312231770833,12.789024472236633L89.43741380208333,14.303121361467571L89.52694145833333,11.552148289150658L89.57170528645834,11.839109222094232L89.97457973958333,7.091050737433967L90.28792653645834,12.388083729479046L90.95938395833333,20.387491808997268L91.00414778645833,22.699123183886222L91.13843927083333,21.358611577086982L91.45178606770833,40.588906384176674L91.98895200520833,39.471410605642525L92.21277114583333,42.947920057508675L92.25753497395833,42.947920057508675L92.34706263020833,40.11895149283939L92.66040942708334,44.96872240636083L92.97375622395833,41.809160818656295L93.01852005208333,38.88912629087767L93.42139450520833,19.809517655107708L93.60044981770834,12.81019951899847L93.68997747395834,16.92260873979992L93.86903278645833,15.387366274992639L94.27190723958333,12.938634945286656L94.58525403645834,15.103794528378392L94.63001786458332,14.171370426813775L94.85383700520833,11.659953885608253L95.21194763020834,5.2689357532395364L95.61482208333334,-9.094686415460357L99.73309427083333,-6.945264445410843L100.13596872395834,2.4725917908880426L100.31502403645834,6.955866409672642L100.40455169270834,5.424720439645977L100.53884317708334,12.410408152474309L100.76266231770833,13.347297138637963L100.80742614583333,11.234817299577923L100.89695380208333,7.557785901758404L100.94171763020834,-0.05241096682018265L100.98648145833333,0.44767084386613853L101.21030059895834,10.907495578130092L101.83699419270833,11.337008635203057L102.23986864583334,-2.6690396401617043L102.50845161458334,1.9694597125053406L102.82179841145833,-9.990610453817558L109.35731731770834,-3.81082704332138L109.44684497395833,1.1547582613097385L109.53637263020833,-2.7183007266786188L109.80495559895833,14.73630358113184L109.93924708333333,27.36659271187252L110.02877473958333,25.02744998534521L110.16306622395834,23.02796267138588L110.29735770833332,24.274520138899497L110.43164919270833,20.703850249449424L110.83452364583333,29.78485083580017L110.92405130208333,31.29037161005869L111.46121723958333,34.697498523526725L111.50598106770833,33.76897198624081L111.55074489583333,37.754279351896706L112.17743848958334,34.53511965937084L112.35649380208334,34.7153654297193L112.53554911458333,34.84884779651961L112.71460442708333,30.781934718290977L112.75936825520833,31.07946107122633L112.89365973958334,26.232733057604904L112.98318739583334,29.18645315037834L113.07271505208334,35.083158456616935L113.43082567708333,39.24203636911181L113.52035333333333,41.35701389114063L113.65464481770833,35.400754686858924L113.78893630208334,33.32893771595425L113.92322778645833,34.312538531091484L114.01275544270833,31.119880802101555L114.14704692708334,33.07921362585491L114.28133841145834,34.417721192042045L114.99755966145834,26.016576647758484L115.31090645833332,25.215240379174556L115.53472559895833,25.731030331717605L115.57948942708333,22.364492608441257L115.62425325520833,23.21466263135275L115.71378091145834,21.99221259355545L115.75854473958333,24.917714026239185L115.84807239583333,22.227849456999035L115.93760005208333,23.238946888181896L116.11665536458332,19.41002100043827L116.29571067708333,24.22882506582472L116.51952981770833,27.713439093695754L116.60905747395834,29.102740248044338L116.92240427083333,28.536922958162098L117.01193192708334,25.170134729809227L117.05669575520834,22.976609130700435L117.28051489583333,21.039512316385917L117.45957020833333,27.68765180640751L117.68338934895833,30.25130602386263L117.77291700520833,38.61936916245356L117.81768083333334,39.00666474633747L118.26531911458333,50.33230133520233L118.31008294270833,50.33230133520233L118.48913825520833,51.82658621999952L118.62342973958334,54.97752011815706L118.75772122395833,49.64772990345955L118.80248505208334,49.64772990345955L118.93677653645832,54.475390060080414L118.98154036458334,53.05859965748257L119.07106802083334,55.377547254165L119.29488716145833,53.367214543951896L119.33965098958333,55.47740299834145L119.65299778645833,62.6361160410775L119.69776161458334,64.79927158355713L119.87681692708333,61.46171140339638L119.96634458333332,62.52841359376907L120.05587223958332,57.37188447846306L120.23492755208332,58.99780978096855L120.68256583333333,58.496541755066964L120.77209348958333,58.24933745132551L120.86162114583333,53.526255796353034L120.90638497395834,52.54464428623518L121.08544028645834,52.41233339905739L121.21973177083333,42.75103043516478L121.57784239583333,40.5644895070129L121.75689770833333,38.46730521321297L122.38359130208333,29.74923490815693L122.56264661458333,30.580469694402485L122.65217427083333,34.65700511468783L122.87599341145832,32.652176148361626L122.92075723958334,31.691386030779952L123.01028489583334,28.198726369274997L123.09981255208334,26.18040696779888L123.14457638020833,23.437450057930413L123.23410403645833,21.166061586803856L123.32363169270833,16.580109357833862L123.36839552083333,19.22905318604576L123.68174231770833,18.17724131213295L123.81603380208334,19.017052213350944L124.03985294270834,25.5505193206999L124.57701888020833,33.15765118598938L124.75607419270833,37.07224980990093L124.89036567708334,29.855154348744296L125.33800395833333,20.11405815018549L125.60658692708333,13.09251874023014L125.65135075520834,13.619802455107385L125.74087841145834,13.721625400914098L125.87516989583332,13.144211199548511L126.00946138020834,15.937224917941627L126.05422520833334,14.165490925312042L126.09898903645833,14.174789084328557L126.54662731770834,2.715596450699711L126.59139114583333,2.7073150475819974L126.63615497395834,0.8667216300964355L126.72568263020834,-6.056118779712257L127.39714005208333,-4.269811285866623L127.75525067708334,7.96425249179205L128.15812513020833,19.796314564016132L128.91911020833334,27.257593532403316L129.54580380208333,53.73941351307764L129.72485911458335,51.90002104640007L129.76962294270834,52.79498727122944L129.85915059895834,58.898101392719475L130.21726122395833,61.071409758594285L130.30678888020833,57.249873770607834L130.48584419270833,57.34399000141355L130.93348247395835,48.53892075684336L131.29159309895834,48.877603620290756L131.33635692708333,52.45699698064062L131.82875903645834,55.02962517407204L132.18686966145833,52.55875361628002L132.45545263020833,50.24010809924868L132.50021645833334,48.46439549658033L132.58974411458334,46.60399007466105L132.67927177083334,49.08413768808048L132.90309091145832,46.67598081297344L133.75360364583332,60.349373082319886L134.02218661458335,70.2035060127576L134.06695044270833,69.24797650178272L134.51458872395833,70.81367743677562L134.60411638020835,71.45363686150974L134.73840786458334,71.20321283075545L134.78317169270835,70.61558686362372L134.82793552083334,69.37585197554694L135.27557380208333,66.36212118135558L135.32033763020831,65.37810776962174L135.45462911458335,65.13873543341953L135.72321208333332,55.50078838401369L135.94703122395833,54.348936571015265L136.03655888020833,54.749280522267014L136.12608653645833,54.716515931818215L136.21561419270833,53.28895381093025L136.61848864583334,43.987302458948555L136.79754395833334,35.35897191365561L136.97659927083333,30.62613529629177L137.06612692708336,29.39709844854143L137.20041841145834,31.65299981170231L137.60329286458335,30.259292715125618L137.64805669270834,31.79687813917797L137.82711200520833,34.05778960386913L138.09569497395833,32.84285471836727L138.18522263020833,34.083827396233886L138.72238856770832,39.670724232991546L138.76715239583334,39.65439719623989L138.81191622395835,36.08378624916077L138.85668005208333,32.04919569359886L138.99097153645835,33.22063110934364L139.17002684895834,37.512431436114845L139.43860981770834,42.152846415837615L139.48337364583332,45.600510944922775L139.61766513020834,49.21013437377083L139.97577575520833,37.28168678945965L140.19959489583334,38.50236118833225L140.33388638020833,32.30378252930111L140.46817786458334,29.3389812707901L140.51294169270832,30.344611797067852L140.78152466145832,18.46909446186489L140.87105231770835,10.693210588561172L141.13963528645832,8.900006837315026L141.27392677083336,8.700899508264332L141.40821825520834,8.19943255186081L141.45298208333335,13.902047998375359L141.63203739583335,12.705665224128303L142.48255013020835,-8.248332911067543L143.19877138020834,-2.7366023328569025L143.78070114583332,25.89493432972166L143.95975645833332,19.030933141708374L144.09404794270836,10.445873664485092L144.76550536458333,2.8534626563390164L145.25790747395834,18.22779913081064L145.30267130208333,19.564567897054882L145.43696278645834,14.383666111363317L145.7055457552083,10.952439135975304L146.01889255208334,9.014163474241906L146.06365638020833,8.92650143305462L146.1084202083333,4.440161810980912L146.15318403645833,10.324585000673943L146.19794786458334,7.978722843858929L146.24271169270833,2.0132981008953474L146.60082231770832,10.204681482579975L147.63039036458335,5.015763534439945L147.67515419270833,2.3477371136347585L147.71991802083332,4.411368462774487L148.03326481770833,-7.591434922483215L150.89814981770834,-12.166468077235756L151.30102427083335,0.12507924768659584L151.3457880989583,-0.3457671470112227L151.61437106770833,8.204928927951393L151.70389872395833,6.7916382286283685L151.74866255208332,10.652540352609424L152.01724552083334,18.1339628762669L152.15153700520833,17.366768976052608L152.42011997395832,9.12621292140749L152.50964763020835,4.69967033465704L152.59917528645832,9.212666643990422L152.73346677083336,11.162730779912739L153.1363412239583,3.1435180637571527L153.36016036458332,14.334080841806202L153.44968802083332,14.765096929338245L153.49445184895833,15.752027988433838L153.53921567708332,14.433487150404186L154.03161778645833,8.306221392419605L154.47925606770835,4.469559318489495L154.83736669270834,5.471034407615662L155.59835177083332,26.98404198884964L155.91169856770836,21.893248352739544L155.9564623958333,20.969194067849063L156.09075388020833,20.454199837313766L156.53839216145835,11.460713936222936L156.80697513020831,12.11725827058157L156.9860304427083,4.848190373844567L157.20984958333332,-11.138910988966638L160.34331755208333,-1.568379276328621L160.74619200520834,9.932367728816146L160.92524731770834,15.480819404125214L161.50717708333335,20.56795861323675L161.68623239583334,17.848401824633292L162.53674513020835,15.17070885499319L163.20820255208332,-1.8986775875091553L164.14824294270835,-4.62387810813057L164.1930067708333,1.7308757305145264L164.28253442708333,6.452174378765965L164.99875567708332,14.897142575846786L165.31210247395833,25.745765924453735L165.49115778645833,33.57615675528845L165.8045045833333,36.79653950201141L165.84926841145833,36.79653950201141L166.16261520833334,38.988481024901084L166.29690669270832,27.774518125587043L167.37123856770833,14.384093443552667L167.50553005208334,7.773529715008202L167.81887684895833,10.50180997451147L167.95316833333334,7.026553048027897L167.99793216145835,6.696667333443966L168.08745981770832,1.7091996735996626L168.13222364583334,1.7311851779619984L168.44557044270832,0.00659034649532364L168.53509809895834,0.04833628071680107L169.02750020833332,4.800609144899578L169.25131934895833,12.535277565320339L169.6541938020833,17.774473355876083L169.74372145833334,18.585844563113326L169.8332491145833,14.077666792604656L170.0123044270833,11.520230995284194L170.14659591145835,15.38858932918972L170.72852567708333,19.8991395301289L170.77328950520834,21.082584453953647L170.81805333333335,22.779785818523827L171.08663630208332,24.703974253601494L171.44474692708332,17.16505344708761L171.71332989583334,24.220116330517673L171.75809372395832,24.01484952370327L171.80285755208334,24.005728191799584L171.98191286458334,25.937697019841938L172.20573200520835,29.019999894830914L172.51907880208333,26.552908016575717L172.87718942708332,30.889931877454128L173.05624473958332,25.196644061141548L173.23530005208332,21.334504147370662L173.32482770833334,13.153406209415856L173.59341067708334,12.986835069126549L173.72770216145832,19.246323300732517L173.81722981770835,18.394488155841827L173.90675747395832,27.278724372386932L173.99628513020835,26.26319152779049L174.13057661458333,21.58052960369322L174.35439575520834,25.667284157541065L174.89156169270834,22.452449361483268L175.11538083333332,30.98029053211212L175.33919997395833,34.34301173686981L176.14494888020835,60.12800027264488L176.32400419270834,64.40515342023636L176.45829567708333,59.176854600508996L176.6821148177083,56.116699321402436L176.95069778645833,58.89292919966909L176.99546161458335,58.87612325615353L177.17451692708335,57.57640713784429L177.26404458333332,56.068565507729836L177.53262755208334,57.18809479806158L177.57739138020833,55.64062179128328L177.84597434895835,54.78981813788414L178.15932114583333,52.568044407500174L178.42790411458336,58.55373059047592L178.56219559895834,55.24979703293905L178.83077856770834,45.01270078288185L179.32318067708331,46.134013079934654L179.41270833333334,44.279413481553405L179.72605513020832,43.586052268743515L179.8603466145833,45.36880111694336L179.99463809895835,48.831333859099296L180.08416575520832,49.729416661792335L180.30798489583333,53.54231022463905L181.02420614583335,36.546078632275275L181.11373380208332,41.71293003029293L181.15849763020833,37.64821992317837L181.33755294270833,31.649581154187526L181.38231677083334,33.59772966305416L181.56137208333334,43.17219577895271L181.65089973958334,43.810659541024116L181.91948270833333,44.78085833456782L181.96424653645832,39.01454828845131L182.27759333333333,32.86075846354168L182.81475927083335,20.192790422174664L183.03857841145833,23.544032600190906L183.17286989583334,20.75997812218136L183.57574434895832,20.18251971403759L183.62050817708334,19.362469242678756L183.88909114583333,21.138329201274452L183.93385497395832,21.450149079163875L184.56054856770834,16.091992848449287L184.73960388020834,14.750729726420516L184.82913153645833,16.70916367901697L184.91865919270833,12.889182296064167L185.05295067708334,8.709844013055172L185.18724216145833,10.246515830357875L185.59011661458334,21.7065189215872L185.85869958333333,26.138351586129932L185.94822723958333,26.729322532812766L186.44062934895834,32.01347661680645L186.48539317708335,32.01347661680645L186.75397614583332,32.50552752945158L187.06732294270833,37.11725967791346L188.14165481770831,48.62695855564541L188.27594630208336,47.460481666856346L188.41023778645834,37.926626844538596L188.4997654427083,37.74624108605915L189.43980583333334,31.026132961114254L189.57409731770832,30.806366331047478L189.75315263020832,31.91661956575182L189.79791645833333,30.781477914916152L189.84268028645835,30.788447850280342L190.1112632552083,39.14934212300512L190.24555473958333,31.933314992321872L190.33508239583333,32.20478881729975L190.73795684895833,31.397381484508514L190.91701216145833,26.313881966802807L191.05130364583334,11.193896558549671L191.27512278645835,10.180235134230728L191.63323341145835,20.145680732197228L191.81228872395835,27.79634153842926L191.90181638020834,24.646313879224987L191.99134403645834,20.481003880500793L192.57327380208332,11.738877720303002L192.66280145833335,10.607257876131268L192.79709294270833,6.389209191004449L193.33425888020832,22.797645356920032L193.51331419270835,22.003205345736617L193.73713333333333,43.880543089575234L193.82666098958333,45.45550534460279L194.27429927083335,44.10549664828512L194.36382692708332,43.08874811728796L194.45335458333335,45.04051421417132L195.03528434895833,53.609607676665L195.30386731770835,52.80877241823408L195.75150559895832,57.142060806353875L195.97532473958333,49.686241375075454L196.28867153645834,54.73203251096937L196.42296302083332,54.56102595726648L196.51249067708335,52.870720850096816L197.40776723958334,40.56709033913082L197.45253106770832,41.49400332901212L197.49729489583333,41.8012183341715L197.72111403645835,43.162993401288986L197.81064169270832,39.91822324858772L198.07922466145834,41.94529559214911L198.25827997395834,42.92777650223839L198.61639059895833,43.03690093424586L198.66115442708335,44.543055338992026L198.88497356770833,32.57401856448916L198.92973739583334,33.638223071893066L199.10879270833334,36.61095207929611L199.60119481770832,35.74359298745792L199.86977778645834,36.91507260998091L200.13836075520834,41.016356458266586L200.27265223958332,39.97049776381916L200.76505434895833,25.73083876901203L200.94410966145836,22.25030650032892L201.12316497395835,22.722405420409316L201.21269263020832,22.225653853681354L201.43651177083333,23.097470462322235L201.61556708333333,22.441486080487575L201.83938622395834,18.691439820660495L202.06320536458333,7.880436440308896L202.24226067708332,14.999849657217675L202.28702450520834,19.023476931783886L202.37655216145833,18.13878141509163L202.77942661458331,-26.34806146886612L206.94246263020835,-10.13245526949566L207.25580942708334,2.5172701080640225L208.50919661458335,3.2674886054462813L208.82254341145833,3.868376606040535L209.31494552083333,14.259975545936165L209.53876466145834,22.73213091161516L209.94163911458335,21.890610681639785L209.98640294270834,22.867388917340183L210.43404122395833,36.25598638587528L210.47880505208332,36.43901718325085L210.52356888020833,36.43279876311621L210.61309653645833,34.94327347477278L210.70262419270833,36.76854924360912L210.79215184895835,37.46077581577831L210.8369156770833,38.4377382463879L210.88167950520833,37.67609229683876L210.97120716145835,39.948099662860244L211.77695606770834,43.041888932387046L212.00077520833335,40.759883466694085L212.22459434895833,41.980152636766434L212.35888583333335,46.19081878993246L212.49317731770833,50.73198218478098L212.71699645833334,43.00678875048956L213.20939856770835,37.376908189720574L213.61227302083336,35.86337125301361L213.74656450520834,31.347781479358673L213.79132833333335,25.923506644037037L214.19420278645833,23.126440637641487L214.46278575520833,18.143393655618038L215.13424317708333,19.018216325177097L215.17900700520835,15.990597234831924L215.44758997395832,22.500089532799187L215.6266452864583,28.759209374586753L215.76093677083333,29.156053622563686L216.02951973958332,23.665365470780277L216.11904739583332,22.313242216904964L216.52192184895833,31.857441425323486L216.70097716145833,38.1424369679557L216.96956013020835,36.973978141943626L217.19337927083333,42.3649947444598L217.46196223958333,33.32099523146948L217.64101755208333,31.47229723797905L217.86483669270834,32.81142369906109L218.17818348958335,28.368613017929935L218.35723880208334,28.094501521852283L218.76011325520832,38.36185731159317L218.89440473958334,33.45579643381968L219.43157067708336,26.332640376355915L219.74491747395834,30.384250541528072L219.87920895833332,29.860827551947708L219.96873661458335,30.899819460180073L220.01350044270833,29.178289632002524L220.19255575520833,35.20687849322956L220.23731958333335,35.196791980001656L220.28208341145833,35.93501570489672L220.81924934895835,37.08884945511818L221.08783231770832,24.3305890692605L221.13259614583333,23.633403970135593L221.22212380208333,19.382612797949047L221.44594294270834,14.193783263365441L221.49070677083333,15.056419597731704L221.62499825520834,17.49292038546669L221.89358122395834,6.849445958932248L222.07263653645833,-0.34722597069210037L222.38598333333334,0.06647579537498505L222.83362161458334,-21.2634862528907L224.66893856770835,-6.858191827933007L225.51945130208333,15.032783706982936L225.56421513020834,13.193914353847504L225.69850661458332,13.23919683032566L226.01185341145833,8.394251823425293L226.10138106770833,10.100692404641057L226.45949169270835,19.52386818991768L226.54901934895832,16.54556912846035L226.59378317708334,12.084707346227436L227.17571294270834,8.90967338614994L227.26524059895834,13.379405995210018L227.31000442708333,11.960147380828857L227.71287888020834,6.136243270503159L227.84717036458335,9.320044908258648L227.93669802083332,3.6375140746434598L228.33957247395833,-0.25738306177986114L228.56339161458334,-0.33456809653175323L228.65291927083334,5.091637101438312L229.19008520833333,11.036579370498657L229.95107028645833,9.138237165080184L230.17488942708334,-3.8461777302953712L230.62252770833334,1.761466821034756L230.89111067708333,-2.3226500617133334L232.59213614583334,-5.411407126320724L233.30835739583335,0.30021176735561417L233.5321765364583,3.6949386795361905L233.75599567708332,0.21098775333827957L233.97981481770833,-0.9869569937388234L234.02457864583334,0.42732099029752724L234.11410630208331,4.561730451054039L234.24839778645833,5.389502373006611L234.69603606770835,11.932385524113979L234.87509138020835,6.910613404379959L234.91985520833333,5.938815799024372L235.18843817708333,-1.1975286139382169L236.03895091145833,-1.3197750912772372L236.1732423958333,2.671315994527607L236.21800622395833,-2.26524019241333L236.48658919270835,-2.6246412992477417L236.57611684895832,4.438732458485508L236.71040833333333,9.68747691313427L236.75517216145832,3.82635069555706L236.79993598958333,3.82635069555706L236.84469981770835,2.1650157637066267L236.93422747395832,-4.213742355505639L237.65044872395833,-2.95116729868782L237.73997638020833,3.8020811743206404L237.87426786458335,0.00806390576892868L238.41143380208334,16.02179248465433L238.76954442708333,11.91626478566065L238.81430825520832,13.885883053143825L238.85907208333333,15.18324884441164L239.12765505208336,10.441261423958684L239.44100184895834,1.9839448001649667L239.66482098958335,-3.9624857637617104" style="fill: none;" fill="none"></path></g></g></g></g></g></g><g transform="translate(61, 178)" clip-path="url(#clip_1)"><clipPath id="clip_1"><rect width="268" height="22"></rect></clipPath><g><g><line x1="0" y1="0" x2="0" y2="5" style="visibility: inherit;" fill="rgb(0, 0, 0)" stroke="rgb(204, 204, 204)" stroke-width="1px"></line><line x1="22.337239583333332" y1="0" x2="22.337239583333332" y2="5" style="visibility: inherit;" fill="rgb(0, 0, 0)" stroke="rgb(204, 204, 204)" stroke-width="1px"></line><line x1="44.674479166666664" y1="0" x2="44.674479166666664" y2="5" style="visibility: inherit;" fill="rgb(0, 0, 0)" stroke="rgb(204, 204, 204)" stroke-width="1px"></line><line x1="67.01171875" y1="0" x2="67.01171875" y2="5" style="visibility: inherit;" fill="rgb(0, 0, 0)" stroke="rgb(204, 204, 204)" stroke-width="1px"></line><line x1="89.34895833333333" y1="0" x2="89.34895833333333" y2="5" style="visibility: inherit;" fill="rgb(0, 0, 0)" stroke="rgb(204, 204, 204)" stroke-width="1px"></line><line x1="111.68619791666667" y1="0" x2="111.68619791666667" y2="5" style="visibility: inherit;" fill="rgb(0, 0, 0)" stroke="rgb(204, 204, 204)" stroke-width="1px"></line><line x1="134.0234375" y1="0" x2="134.0234375" y2="5" style="visibility: inherit;" fill="rgb(0, 0, 0)" stroke="rgb(204, 204, 204)" stroke-width="1px"></line><line x1="156.36067708333334" y1="0" x2="156.36067708333334" y2="5" style="visibility: inherit;" fill="rgb(0, 0, 0)" stroke="rgb(204, 204, 204)" stroke-width="1px"></line><line x1="178.69791666666666" y1="0" x2="178.69791666666666" y2="5" style="visibility: inherit;" fill="rgb(0, 0, 0)" stroke="rgb(204, 204, 204)" stroke-width="1px"></line><line x1="201.03515625" y1="0" x2="201.03515625" y2="5" style="visibility: inherit;" fill="rgb(0, 0, 0)" stroke="rgb(204, 204, 204)" stroke-width="1px"></line><line x1="223.37239583333334" y1="0" x2="223.37239583333334" y2="5" style="visibility: inherit;" fill="rgb(0, 0, 0)" stroke="rgb(204, 204, 204)" stroke-width="1px"></line><line x1="245.70963541666666" y1="0" x2="245.70963541666666" y2="5" style="visibility: inherit;" fill="rgb(0, 0, 0)" stroke="rgb(204, 204, 204)" stroke-width="1px"></line><line x1="268.046875" y1="0" x2="268.046875" y2="5" style="visibility: inherit;" fill="rgb(0, 0, 0)" stroke="rgb(204, 204, 204)" stroke-width="1px"></line></g><g transform="translate(0, 8)"><text x="0" y="0" dx="0em" dy="0.95em" style="text-anchor: middle; visibility: hidden; font-family: Roboto, sans-serif; font-size: 12px; font-weight: 200;" fill="rgb(50, 49, 63)" stroke="none" stroke-width="1px">-500k</text><text x="22.337239583333332" y="0" dx="0em" dy="0.95em" style="text-anchor: middle; visibility: inherit; font-family: Roboto, sans-serif; font-size: 12px; font-weight: 200;" fill="rgb(50, 49, 63)" stroke="none" stroke-width="1px">0</text><text x="44.674479166666664" y="0" dx="0em" dy="0.95em" style="text-anchor: middle; visibility: hidden; font-family: Roboto, sans-serif; font-size: 12px; font-weight: 200;" fill="rgb(50, 49, 63)" stroke="none" stroke-width="1px">500k</text><text x="67.01171875" y="0" dx="0em" dy="0.95em" style="text-anchor: middle; visibility: inherit; font-family: Roboto, sans-serif; font-size: 12px; font-weight: 200;" fill="rgb(50, 49, 63)" stroke="none" stroke-width="1px">1M</text><text x="89.34895833333333" y="0" dx="0em" dy="0.95em" style="text-anchor: middle; visibility: hidden; font-family: Roboto, sans-serif; font-size: 12px; font-weight: 200;" fill="rgb(50, 49, 63)" stroke="none" stroke-width="1px">1.5M</text><text x="111.68619791666667" y="0" dx="0em" dy="0.95em" style="text-anchor: middle; visibility: inherit; font-family: Roboto, sans-serif; font-size: 12px; font-weight: 200;" fill="rgb(50, 49, 63)" stroke="none" stroke-width="1px">2M</text><text x="134.0234375" y="0" dx="0em" dy="0.95em" style="text-anchor: middle; visibility: hidden; font-family: Roboto, sans-serif; font-size: 12px; font-weight: 200;" fill="rgb(50, 49, 63)" stroke="none" stroke-width="1px">2.5M</text><text x="156.36067708333334" y="0" dx="0em" dy="0.95em" style="text-anchor: middle; visibility: inherit; font-family: Roboto, sans-serif; font-size: 12px; font-weight: 200;" fill="rgb(50, 49, 63)" stroke="none" stroke-width="1px">3M</text><text x="178.69791666666666" y="0" dx="0em" dy="0.95em" style="text-anchor: middle; visibility: hidden; font-family: Roboto, sans-serif; font-size: 12px; font-weight: 200;" fill="rgb(50, 49, 63)" stroke="none" stroke-width="1px">3.5M</text><text x="201.03515625" y="0" dx="0em" dy="0.95em" style="text-anchor: middle; visibility: inherit; font-family: Roboto, sans-serif; font-size: 12px; font-weight: 200;" fill="rgb(50, 49, 63)" stroke="none" stroke-width="1px">4M</text><text x="223.37239583333334" y="0" dx="0em" dy="0.95em" style="text-anchor: middle; visibility: hidden; font-family: Roboto, sans-serif; font-size: 12px; font-weight: 200;" fill="rgb(50, 49, 63)" stroke="none" stroke-width="1px">4.5M</text><text x="245.70963541666666" y="0" dx="0em" dy="0.95em" style="text-anchor: middle; visibility: inherit; font-family: Roboto, sans-serif; font-size: 12px; font-weight: 200;" fill="rgb(50, 49, 63)" stroke="none" stroke-width="1px">5M</text><text x="268.046875" y="0" dx="0em" dy="0.95em" style="text-anchor: middle; visibility: hidden; font-family: Roboto, sans-serif; font-size: 12px; font-weight: 200;" fill="rgb(50, 49, 63)" stroke="none" stroke-width="1px">5.5M</text></g><line x1="0" y1="0" x2="268.046875" y2="0" fill="rgb(0, 0, 0)" stroke="rgb(204, 204, 204)" stroke-width="1px"></line></g></g></g></g></svg>