<svg viewBox="0 0 330 200" xmlns="http://www.w3.org/2000/svg"><g><g><g><g><g><line x1="41.171875" y1="178" x2="36.171875" y2="178" style="visibility: inherit;" fill="rgb(0, 0, 0)" stroke="rgb(204, 204, 204)" stroke-width="1px"></line><line x1="41.171875" y1="161.8181818181818" x2="36.171875" y2="161.8181818181818" style="visibility: inherit;" fill="rgb(0, 0, 0)" stroke="rgb(204, 204, 204)" stroke-width="1px"></line><line x1="41.171875" y1="145.6363636363636" x2="36.171875" y2="145.6363636363636" style="visibility: inherit;" fill="rgb(0, 0, 0)" stroke="rgb(204, 204, 204)" stroke-width="1px"></line><line x1="41.171875" y1="129.45454545454547" x2="36.171875" y2="129.45454545454547" style="visibility: inherit;" fill="rgb(0, 0, 0)" stroke="rgb(204, 204, 204)" stroke-width="1px"></line><line x1="41.171875" y1="113.27272727272725" x2="36.171875" y2="113.27272727272725" style="visibility: inherit;" fill="rgb(0, 0, 0)" stroke="rgb(204, 204, 204)" stroke-width="1px"></line><line x1="41.171875" y1="97.09090909090908" x2="36.171875" y2="97.09090909090908" style="visibility: inherit;" fill="rgb(0, 0, 0)" stroke="rgb(204, 204, 204)" stroke-width="1px"></line><line x1="41.171875" y1="80.90909090909089" x2="36.171875" y2="80.90909090909089" style="visibility: inherit;" fill="rgb(0, 0, 0)" stroke="rgb(204, 204, 204)" stroke-width="1px"></line><line x1="41.171875" y1="64.7272727272727" x2="36.171875" y2="64.7272727272727" style="visibility: inherit;" fill="rgb(0, 0, 0)" stroke="rgb(204, 204, 204)" stroke-width="1px"></line><line x1="41.171875" y1="48.545454545454525" x2="36.171875" y2="48.545454545454525" style="visibility: inherit;" fill="rgb(0, 0, 0)" stroke="rgb(204, 204, 204)" stroke-width="1px"></line><line x1="41.171875" y1="32.363636363636395" x2="36.171875" y2="32.363636363636395" style="visibility: inherit;" fill="rgb(0, 0, 0)" stroke="rgb(204, 204, 204)" stroke-width="1px"></line><line x1="41.171875" y1="16.181818181818187" x2="36.171875" y2="16.181818181818187" style="visibility: inherit;" fill="rgb(0, 0, 0)" stroke="rgb(204, 204, 204)" stroke-width="1px"></line><line x1="41.171875" y1="0" x2="36.171875" y2="0" style="visibility: inherit;" fill="rgb(0, 0, 0)" stroke="rgb(204, 204, 204)" stroke-width="1px"></line></g><g transform="translate(31.171875, 0)"><text x="0" y="178" dx="0em" dy="0.3em" style="text-anchor: end; visibility: hidden; font-family: Roboto, sans-serif; font-size: 12px; font-weight: 200;" fill="rgb(50, 49, 63)" stroke="none" stroke-width="1px">2.8</text><text x="0" y="161.8181818181818" dx="0em" dy="0.3em" style="text-anchor: end; visibility: inherit; font-family: Roboto, sans-serif; font-size: 12px; font-weight: 200;" fill="rgb(50, 49, 63)" stroke="none" stroke-width="1px">3</text><text x="0" y="145.6363636363636" dx="0em" dy="0.3em" style="text-anchor: end; visibility: hidden; font-family: Roboto, sans-serif; font-size: 12px; font-weight: 200;" fill="rgb(50, 49, 63)" stroke="none" stroke-width="1px">3.2</text><text x="0" y="129.45454545454547" dx="0em" dy="0.3em" style="text-anchor: end; visibility: inherit; font-family: Roboto, sans-serif; font-size: 12px; font-weight: 200;" fill="rgb(50, 49, 63)" stroke="none" stroke-width="1px">3.4</text><text x="0" y="113.27272727272725" dx="0em" dy="0.3em" style="text-anchor: end; visibility: hidden; font-family: Roboto, sans-serif; font-size: 12px; font-weight: 200;" fill="rgb(50, 49, 63)" stroke="none" stroke-width="1px">3.6</text><text x="0" y="97.09090909090908" dx="0em" dy="0.3em" style="text-anchor: end; visibility: inherit; font-family: Roboto, sans-serif; font-size: 12px; font-weight: 200;" fill="rgb(50, 49, 63)" stroke="none" stroke-width="1px">3.8</text><text x="0" y="80.90909090909089" dx="0em" dy="0.3em" style="text-anchor: end; visibility: hidden; font-family: Roboto, sans-serif; font-size: 12px; font-weight: 200;" fill="rgb(50, 49, 63)" stroke="none" stroke-width="1px">4</text><text x="0" y="64.7272727272727" dx="0em" dy="0.3em" style="text-anchor: end; visibility: inherit; font-family: Roboto, sans-serif; font-size: 12px; font-weight: 200;" fill="rgb(50, 49, 63)" stroke="none" stroke-width="1px">4.2</text><text x="0" y="48.545454545454525" dx="0em" dy="0.3em" style="text-anchor: end; visibility: hidden; font-family: Roboto, sans-serif; font-size: 12px; font-weight: 200;" fill="rgb(50, 49, 63)" stroke="none" stroke-width="1px">4.4</text><text x="0" y="32.363636363636395" dx="0em" dy="0.3em" style="text-anchor: end; visibility: inherit; font-family: Roboto, sans-serif; font-size: 12px; font-weight: 200;" fill="rgb(50, 49, 63)" stroke="none" stroke-width="1px">4.6</text><text x="0" y="16.181818181818187" dx="0em" dy="0.3em" style="text-anchor: end; visibility: hidden; font-family: Roboto, sans-serif; font-size: 12px; font-weight: 200;" fill="rgb(50, 49, 63)" stroke="none" stroke-width="1px">4.8</text><text x="0" y="0" dx="0em" dy="0.3em" style="text-anchor: end; visibility: hidden; font-family: Roboto, sans-serif; font-size: 12px; font-weight: 200;" fill="rgb(50, 49, 63)" stroke="none" stroke-width="1px">5</text></g><line x1="41.171875" y1="0" x2="41.171875" y2="178" fill="rgb(0, 0, 0)" stroke="rgb(204, 204, 204)" stroke-width="1px"></line></g></g><g transform="translate(41, 0)" clip-path="url(#clip_0)"><clipPath id="clip_0"><rect width="288" height="178"></rect></clipPath><g><g><g><line x1="0" y1="0" x2="0" y2="178" fill="rgb(0, 0, 0)" stroke="rgb(60, 60, 60)" stroke-width="1px" opacity="0.25"></line><line x1="24.069010416666664" y1="0" x2="24.069010416666664" y2="178" fill="rgb(0, 0, 0)" stroke="rgb(60, 60, 60)" stroke-width="1px" opacity="0.25"></line><line x1="48.13802083333333" y1="0" x2="48.13802083333333" y2="178" fill="rgb(0, 0, 0)" stroke="rgb(60, 60, 60)" stroke-width="1px" opacity="0.25"></line><line x1="72.20703125" y1="0" x2="72.20703125" y2="178" fill="rgb(0, 0, 0)" stroke="rgb(60, 60, 60)" stroke-width="1px" opacity="0.25"></line><line x1="96.27604166666666" y1="0" x2="96.27604166666666" y2="178" fill="rgb(0, 0, 0)" stroke="rgb(60, 60, 60)" stroke-width="1px" opacity="0.25"></line><line x1="120.34505208333334" y1="0" x2="120.34505208333334" y2="178" fill="rgb(0, 0, 0)" stroke="rgb(60, 60, 60)" stroke-width="1px" opacity="0.25"></line><line x1="144.4140625" y1="0" x2="144.4140625" y2="178" fill="rgb(0, 0, 0)" stroke="rgb(60, 60, 60)" stroke-width="1px" opacity="0.25"></line><line x1="168.48307291666669" y1="0" x2="168.48307291666669" y2="178" fill="rgb(0, 0, 0)" stroke="rgb(60, 60, 60)" stroke-width="1px" opacity="0.25"></line><line x1="192.55208333333331" y1="0" x2="192.55208333333331" y2="178" fill="rgb(0, 0, 0)" stroke="rgb(60, 60, 60)" stroke-width="1px" opacity="0.25"></line><line x1="216.62109375" y1="0" x2="216.62109375" y2="178" fill="rgb(0, 0, 0)" stroke="rgb(60, 60, 60)" stroke-width="1px" opacity="0.25"></line><line x1="240.69010416666669" y1="0" x2="240.69010416666669" y2="178" fill="rgb(0, 0, 0)" stroke="rgb(60, 60, 60)" stroke-width="1px" opacity="0.25"></line><line x1="264.7591145833333" y1="0" x2="264.7591145833333" y2="178" fill="rgb(0, 0, 0)" stroke="rgb(60, 60, 60)" stroke-width="1px" opacity="0.25"></line><line x1="288.828125" y1="0" x2="288.828125" y2="178" fill="rgb(0, 0, 0)" stroke="rgb(60, 60, 60)" stroke-width="1px" opacity="0.25"></line></g><g><line x1="0" y1="178" x2="288.828125" y2="178" fill="rgb(0, 0, 0)" stroke="rgb(60, 60, 60)" stroke-width="1px" opacity="0.25"></line><line x1="0" y1="161.8181818181818" x2="288.828125" y2="161.8181818181818" fill="rgb(0, 0, 0)" stroke="rgb(60, 60, 60)" stroke-width="1px" opacity="0.25"></line><line x1="0" y1="145.6363636363636" x2="288.828125" y2="145.6363636363636" fill="rgb(0, 0, 0)" stroke="rgb(60, 60, 60)" stroke-width="1px" opacity="0.25"></line><line x1="0" y1="129.45454545454547" x2="288.828125" y2="129.45454545454547" fill="rgb(0, 0, 0)" stroke="rgb(60, 60, 60)" stroke-width="1px" opacity="0.25"></line><line x1="0" y1="113.27272727272725" x2="288.828125" y2="113.27272727272725" fill="rgb(0, 0, 0)" stroke="rgb(60, 60, 60)" stroke-width="1px" opacity="0.25"></line><line x1="0" y1="97.09090909090908" x2="288.828125" y2="97.09090909090908" fill="rgb(0, 0, 0)" stroke="rgb(60, 60, 60)" stroke-width="1px" opacity="0.25"></line><line x1="0" y1="80.90909090909089" x2="288.828125" y2="80.90909090909089" fill="rgb(0, 0, 0)" stroke="rgb(60, 60, 60)" stroke-width="1px" opacity="0.25"></line><line x1="0" y1="64.7272727272727" x2="288.828125" y2="64.7272727272727" fill="rgb(0, 0, 0)" stroke="rgb(60, 60, 60)" stroke-width="1px" opacity="0.25"></line><line x1="0" y1="48.545454545454525" x2="288.828125" y2="48.545454545454525" fill="rgb(0, 0, 0)" stroke="rgb(60, 60, 60)" stroke-width="1px" opacity="0.25"></line><line x1="0" y1="32.363636363636395" x2="288.828125" y2="32.363636363636395" fill="rgb(0, 0, 0)" stroke="rgb(60, 60, 60)" stroke-width="1px" opacity="0.25"></line><line x1="0" y1="16.181818181818187" x2="288.828125" y2="16.181818181818187" fill="rgb(0, 0, 0)" stroke="rgb(60, 60, 60)" stroke-width="1px" opacity="0.25"></line><line x1="0" y1="0" x2="288.828125" y2="0" fill="rgb(0, 0, 0)" stroke="rgb(60, 60, 60)" stroke-width="1px" opacity="0.25"></line></g></g></g><g><g><line x1="0" y1="404.5454545454545" x2="288.828125" y2="404.5454545454545" fill="rgb(0, 0, 0)" stroke="rgb(153, 153, 153)" stroke-width="1.5px"></line></g></g><g><g><line x1="24.069010416666664" y1="0" x2="24.069010416666664" y2="178" fill="rgb(0, 0, 0)" stroke="rgb(153, 153, 153)" stroke-width="1.5px"></line></g></g><g><g><g><g><g><path stroke="rgb(238, 51, 119)" stroke-width="2px" d="M24.791658385416667,85.1020539890636L25.41870424479167,85.102053989059L25.708110026041666,85.10205398906325L26.479858776041667,61.12083438277753L26.576327369791667,46.732112221093615L26.72103026041667,37.13963878169919L26.81749885416667,30.287878897888426L27.106904635416665,24.30198493223057L27.251607526041667,19.64629583940022L27.97512197916667,15.921750157540778L28.119824869791668,12.874399683657035L28.360996354166666,10.334945615738139L28.746870729166666,8.186181090860952L29.084510807291668,6.344386921223949L29.47038518229167,4.748169035768019L29.61508807291667,3.3514818811943217L29.66332236979167,2.119114152048663L30.000962447916667,1.6836719029220322L30.242133932291665,-0.6828873232929067L35.596140885416666,-0.2289308095487188L35.83731236979167,0.9232407335661912L35.98201526041667,2.2555296197620036L36.56082682291667,3.5211958267654397L36.85023260416666,4.725114184825343L37.091404088541665,5.871695254643966L37.429044166666664,6.964939312208943L37.62198135416667,8.449412796572538L37.71844994791667,9.86789926928528L38.63490158854167,12.024915391434046L38.87607307291666,14.090127744848179L38.92430736979166,16.497931426340234L39.165478854166665,18.80743891263134L39.40665033854167,21.02454797560943L39.50311893229166,23.15469381682207L39.88899330729166,25.202893545393522L39.937227604166665,27.173785620704795L40.274867682291664,29.07166491255955L40.46780486979167,30.900513936594844L40.901913541666666,33.30415688852569L41.28778791666667,35.62343982399274L42.059536666666666,37.862726192362224L42.25247385416667,40.026083615931796L42.54187963541666,42.11730854218225L42.73481682291666,44.213079705537744L42.83128541666667,46.241224708557574L44.857125885416664,50.32620648135566L44.905360182291666,54.28349098321315L45.00182877604166,58.1189719348468L45.291234557291666,61.838185861789L45.72534322916667,63.43607690287433L45.821811822916665,64.98695381437557L45.87004611979167,66.49286068911427L46.014749010416665,67.95572481461107L46.30415479166667,69.37736489881155L46.73826346354167,70.17499478434901L46.88296635416667,70.95076247852951L46.93120065104167,71.7055542865421L47.41354361979166,72.44020924396688L48.23352666666666,73.15552222661823L48.329995260416666,73.85224681806281L49.00527541666667,74.53109795655705L49.24644690104167,75.1927543809543L49.34291549479167,76.55990722621236L49.48761838541667,77.89328541670457L49.87349276041666,79.95583043821014L50.162898541666664,80.34699538440765L50.25936713541667,80.72884159258318L50.404070026041666,81.10169795946072L50.69347580729166,81.46587808424177L50.934647291666664,81.8216811477763L51.41699026041667,82.16939273178501L51.706396041666665,82.50928558285591L51.99580182291667,82.84162032550813L52.18873901041667,83.16664612823794L52.47814479166667,83.48460132613044L52.57461338541667,83.79571400330022L52.62284768229167,84.10020253815571L52.71931627604166,84.39827611422561L52.81578486979166,84.69013519905998L52.864019166666665,84.97597199350565L53.10519065104167,86.03403103687586L53.15342494791666,87.07069820347573L53.587533619791664,88.0866152499395L53.87693940104167,89.08239851679936L53.973407994791664,90.05864017437482L54.214579479166666,91.01590939608238L54.45575096354167,91.95475346405779L54.55221955729167,92.87569881159497L55.13103111979167,93.77925200658474L55.46867119791666,94.66590067980317L55.516905494791665,95.53611440163117L55.61337408854166,96.39034551051101L55.709842682291665,97.2290298962181L55.75807697916667,98.05258774079064L55.85454557291666,100.19037380354052L56.433357135416664,101.85603433298765L56.57806002604167,103.49244190430625L56.77099721354167,105.10035963883794L56.91570010416667,106.68052434340106L57.060402994791666,108.23364763484312L57.253340182291666,109.76041700741295L57.30157447916667,111.2614968463149L57.49451166666667,112.73752939058531L57.73568315104167,114.18913564822432L57.78391744791667,115.61691626631898L58.26626041666666,117.02145235872437L58.45919760416666,118.4033062936922L58.60390049479167,119.76302244369629L58.98977486979167,121.10112789955008L59.18271205729167,122.41813315078683L59.327414947916665,124.25800856284175L59.37564924479167,126.0693201048766L59.42388354166667,127.85272694410934L59.76152361979167,126.7773829310882L60.05092940104167,125.71835514805169L60.14739799479167,124.67527555913303L60.19563229166667,123.64778711460572L60.38856947916667,122.63554334398948L60.58150666666667,121.63820796710867L60.72620955729167,120.65545452218207L60.77444385416667,119.68696601008473L60.82267815104167,118.73243455396334L61.015615338541664,117.79156107344262L61.449724010416666,116.86405497269249L61.64266119791667,115.94963384167691L61.69089549479166,115.04802316993592L61.73912979166666,114.15895607229716L61.83559838541667,113.28217302593286L61.88383268229167,112.41742161822577L62.173238463541665,111.56445630492541L62.366175651041665,110.72303817810771L62.41440994791667,109.89293474348007L62.51087854166667,109.07391970659441L62.60734713541667,108.26577276755273L62.752050026041665,108.16649552596756L62.80028432291667,108.06851850974563L62.84851861979167,107.97181638974585L62.89675291666667,107.87636449048233L63.04145580729167,107.78213876917339L63.23439299479167,108.37915477212425L63.47556447916667,108.96859817741746L63.52379877604167,109.55061186473723L63.57203307291667,110.12533514177879L63.861438854166664,110.35635441422026L64.68142190104166,110.00768935731601L64.87435908854167,109.66331170282571L64.97082768229167,109.32314302235591L65.21199916666667,108.98710678880545L66.36962229166667,108.65512831909791L66.46609088541668,108.32713471897144L66.70726236979166,108.00305482974011L66.80373096354167,107.68281917694517L66.99666815104166,107.36635992081956L67.09313674479166,107.05361080848924L67.47901111979166,107.80533686342424L67.76841690104166,108.54835113288466L67.96135408854167,108.88405630438751L68.29899416666667,109.2159152165407L68.39546276041666,109.54399343091708L68.68486854166667,109.8683550274748L68.78133713541666,110.18906264617394L68.92604002604168,110.2709006602553L68.97427432291667,110.35182694760663L69.07074291666667,110.4318566198071L69.45661729166666,110.5110044563131L69.50485158854167,110.58928491353414L69.64955447916667,110.66671213360969L69.98719455729166,110.74329995290452L70.13189744791667,110.81906191022681L70.56600611979167,110.89401125478577L70.75894330729167,110.96816095389225L70.90364619791667,111.0415237004175L70.95188049479167,111.11411192001486L71.38598916666668,111.18593777811515L71.43422346354167,111.25701318670308L71.62716065104166,111.3273498108832L71.67539494791667,111.39695907524278L71.72362924479167,111.46585217001909L71.77186354166668,111.53404005707822L71.96480072916667,112.6195870044797L72.01303502604166,113.69413353720849L72.15773791666666,114.75784549204894L72.20597221354166,115.81088538905679L72.59184658854167,116.85341251406501L72.78478377604166,117.88558299873796L72.88125236979167,118.90754989826108L72.97772096354167,119.91946326674443L73.02595526041668,120.92147023042016L73.46006393229166,121.91371505870669L73.60476682291666,122.89633923321418L73.99064119791666,123.86948151475951L74.08710979166666,124.83327800845659L74.28004697916666,126.03757213523303L74.32828127604166,127.2304093906961L74.56945276041667,128.41195190213338L74.90709283854167,129.5868825543416L75.43767010416667,130.75079121667332L75.53413869791666,131.90383168609316L75.82354447916667,133.08650601370468L75.96824736979167,134.25823792460014L76.06471596354167,135.41917800431446L76.25765315104168,136.5712995229797L76.45059033854166,136.64110334665526L76.54705893229166,136.71027292476407L76.78823041666666,136.77881682830346L76.83646471354166,136.84674347453145L76.88469901041667,136.9140611303986L77.27057338541667,136.9807779158875L77.55997916666666,137.04690180726504L77.75291635416667,137.11244064024757L77.80115065104167,137.17740211308336L77.84938494791668,137.2417937895537L78.28349361979167,137.30562310189643L78.52466510416667,137.3688973536532L79.19994526041665,137.43162372244285L79.29641385416666,137.49380926266394L80.26109979166667,137.01762835282193L80.30933408854168,136.545518460727L80.50227127604167,136.07742783529352L80.55050557291666,135.6133055988685L80.59873986979167,135.1531017288819L81.46695721354168,134.6967670399579L81.70812869791666,134.2442531664735L82.04576877604165,133.79551254555074L82.09400307291666,133.35049840047202L82.38340885416667,132.90916472450277L82.47987744791666,132.47146626511395L82.72104893229167,132.03735850858973L82.81751752604166,131.60679766501138L83.10692330729167,131.76885845843643L83.97514065104167,132.69144788097373L84.07160924479166,133.60658912101886L84.16807783854166,134.51437155863346L84.55395221354166,135.5028069472524L84.69865510416666,136.45109407692416L85.08452947916666,137.35402883406746L85.22923236979167,138.2498160980632L85.37393526041666,139.13853995897318L86.00098111979167,140.02028319295928L86.33862119791667,140.80880335557046L86.62802697916666,140.49339965823245L86.82096416666667,140.18044496655548L86.91743276041666,139.86991102208924L86.96566705729167,139.56176999946038L87.25507283854168,139.25599449810792L87.73741580729165,138.95255753420633L87.97858729166667,138.65143253277418L88.02682158854167,138.35259331995843L88.17152447916666,138.05601411549586L88.46093026041667,137.76166952534143L88.55739885416666,137.46953453446358L88.70210174479166,137.1795844997983L88.84680463541667,136.89179514336186L88.99150752604166,136.60614254551504L89.03974182291667,136.3226031383745L89.90795916666667,136.77192861509457L90.63147361979166,137.21795405409202L91.35498807291667,137.66071545688382L91.49969096354167,138.4465197587034L91.54792526041666,139.22661450772083L91.64439385416667,140.00106131979095L91.69262815104167,140.76992092739448L92.70554838541666,141.42097010316309L92.75378268229167,142.06735532085065L92.99495416666667,142.70912619871734L93.13965705729166,143.34633165371102L93.33259424479166,143.9790199138145L93.42906283854165,144.60723853013218L93.62200002604166,145.23103438872405L93.81493721354165,145.8504537221914L94.00787440104166,146.4655421210222L95.21373182291667,146.40188755067274L95.26196611979167,146.33867502097942L95.79254338541666,146.27589997464662L96.17841776041666,146.21355791680656L96.22665205729167,146.15164441395464L96.37135494791666,146.09015509290532L96.46782354166666,146.0290856397697L96.51605783854167,145.96843179895447L96.95016651041666,145.90818937217986L97.28780658854167,145.96128552620175L98.01132104166666,145.49445461511306L98.05955533854167,144.60088096595302L98.20425822916667,143.7132890417966L98.54189830729166,142.8316194188797L99.12070986979165,141.9558134579013L99.36188135416667,141.08581329112155L99.41011565104166,140.22156180971328L99.50658424479167,139.36300265136157L99.84422432291667,138.51008018810532L100.18186440104166,137.66273951441588L100.23009869791667,136.82092643550737L100.66420736979167,135.98458745587334L100.85714455729166,135.45314287804754L100.95361315104167,134.92513234877566L101.14655033854167,134.40052295215702L101.58065901041665,134.187650710739L101.91829908854167,133.9151948614102L101.96653338541667,133.64447761994853L102.20770486979167,133.37548253175925L102.59357924479167,133.10819334922093L103.02768791666666,132.7304636438733L103.07592221354167,132.3273621634578L103.26885940104167,131.92679356791112L103.51003088541667,131.5287342575645L103.65473377604167,131.13316092500037L103.75120236979167,130.7400505505435L103.89590526041667,130.34938039783302L104.04060815104168,129.96112800947841L104.23354533854166,129.57527120279246L104.61941971354166,129.1917880656051L105.00529408854166,128.8106569521513L105.19823127604167,128.43185647903476L105.34293416666667,128.05536552126523L105.39116846354166,127.68116320836586L105.68057424479166,127.3092289205525L105.72880854166667,126.93954228498042L106.11468291666667,127.61016073135946L106.30762010416667,127.82677126509512L106.35585440104167,128.04208422911594L106.40408869791668,128.2561111411202L106.50055729166667,128.46886338290645L106.64526018229166,128.68035220237243L106.98290026041666,128.89058871547763L107.03113455729167,129.09958390817275L107.41700893229167,128.643093632884L107.46524322916666,128.18928328952614L107.89935190104167,127.73812957257013L108.09228908854168,127.28960944590976L108.18875768229167,126.84370013898007L108.33346057291666,126.40037914294146L108.57463205729167,125.95962420693063L108.62286635416666,125.52141333437476L108.71933494791666,125.0857247793692L108.76756924479167,124.65253704311714L108.81580354166667,124.22182887042923L109.05697502604167,123.79357924628297L109.73225518229165,123.3677673924396L110.16636385416666,124.03249681402647L110.45576963541667,124.69328707681652L110.79340971354166,125.35034672151114L110.84164401041667,126.00370692597228L111.27575268229167,126.65339852164881L111.61339276041667,127.29945199837428L112.04750143229167,127.92864411407245L112.19220432291668,128.55433190014998L112.52984440104167,129.1765442411663L112.62631299479166,129.79530970514537L112.81925018229167,130.41065654789915L113.30159315104167,131.02261271728182L113.34982744791667,131.63120585737326L113.49453033854167,132.23646331259621L113.73570182291667,132.83841213176495L113.92863901041666,133.4370790720695L114.55568486979168,134.03249060299544L114.65215346354168,134.62467291017973L114.70038776041666,135.21365189920704L114.98979354166667,135.77314479642882L115.03802783854168,136.32962693297912L115.08626213541666,136.88312226976254L115.18273072916666,137.43365451413624L115.85801088541668,137.98124712325443L116.72622822916667,137.84345398398813L117.01563401041668,137.7063928369281L117.35327408854167,137.57005793278765L117.64267986979166,137.4344435823232L117.83561705729167,137.29954415555258L117.93208565104166,137.16535408098517L118.02855424479166,137.03186784486422L118.31796002604166,136.89907999042148L118.46266291666666,136.76698511714187L118.55913151041666,136.63557788004147L118.70383440104168,136.5048529889548L118.84853729166666,136.3748052078341L118.99324018229167,136.24542935405918L119.42734885416667,136.26088954218275L119.52381744791666,136.27627024630567L120.10262901041666,136.29157207018264L120.15086330729167,136.30679561147014L120.19909760416667,136.32194146180285L120.87437776041666,136.33701020687005L121.06731494791667,136.35200242648918L121.26025213541666,136.50281858535226L121.45318932291667,137.02170051263573L121.50142361979167,137.5379664906354L121.64612651041666,138.05163599567265L121.74259510416667,138.56272831124045L121.83906369791667,139.07126253038405L122.22493807291667,139.57725755804654L122.32140666666668,140.0807321133797L122.46610955729166,140.58170473202034L122.61081244791667,141.08019376833437L122.75551533854167,141.57621739762715L122.85198393229166,142.069793618322L122.99668682291667,142.56094025410655L123.14138971354167,143.04967495604834L123.91313846354167,142.71545228146945L124.25077854166666,142.38286322555905L124.49195002604166,142.05189600552333L124.54018432291666,141.72253895158823L124.58841861979167,141.39478050564813L124.68488721354167,141.06860921993274L124.73312151041667,140.744013755694L124.82959010416666,140.42098288191113L124.92605869791666,140.099505474014L125.11899588541667,139.7795705126253L125.31193307291666,139.4611670823198L125.55310455729168,139.14428437040112L125.64957315104168,138.82891166569658L125.98721322916667,138.51503835736816L126.08368182291666,138.20265393374004L126.13191611979167,137.89174798114337L126.37308760416667,137.58231018277647L126.56602479166666,137.27433031758068L126.80719627604167,137.148495728145L126.90366486979165,137.02325135979478L126.95189916666666,136.8985931318864L127.43424213541667,137.34974817412908L127.48247643229166,137.7988012101419L127.67541361979167,138.201567307983L127.82011651041667,138.60246515491022L127.96481940104167,139.00150752055112L128.01305369791666,139.3987070584509L128.15775658854167,139.79407630738896L128.20599088541667,140.18762769267724L128.30245947916669,140.5793735274406L128.54363096354166,140.9693260138802L128.59186526041668,141.33671057496022L128.92950533854167,141.7024206092743L128.97773963541667,142.0664673576561L129.17067682291665,142.42886196058L129.26714541666666,142.7896154592784L129.36361401041665,143.14873879684444L129.55655119791666,143.5062428193204L130.03889416666667,143.86213827677045L130.13536276041665,144.2164358243409L130.23183135416667,144.56914602330497L130.28006565104167,144.92027934209477L130.47300283854167,145.26984615731888L130.61770572916666,145.61785675476702L131.00358010416667,145.96432133040207L131.19651729166665,146.309249991338L131.87179744791666,146.0967853299441L132.06473463541667,145.8852586010113L132.16120322916666,145.67466371258698L132.40237471354166,145.4649946253457L132.45060901041666,145.2562453520223L132.54707760416667,145.0484099568516L132.64354619791666,144.84148255501654L132.69178049479166,144.63545731210198L132.78824908854165,144.43032844355676L132.88471768229167,144.20930306311143L132.93295197916666,143.98923537318439L133.27059205729165,143.77011927223356L133.41529494791666,143.5519487104217L133.65646643229167,143.3347176890697L134.23527799479166,143.11842026011703L134.42821518229167,142.90305052558895L134.57291807291668,142.68860263707018L135.05526104166665,142.4750707951858L135.34466682291665,142.26244924908767L135.39290111979167,142.05073229594876L135.48936971354166,141.83991428046198L135.63407260416668,141.62998959434702L135.77877549479166,141.5549946266576L135.82700979166665,141.48031617940183L135.87524408854168,141.40595229010222L136.35758705729168,141.33190101246527L136.40582135416668,141.25816041621545L136.45405565104167,141.18472858693042L136.55052424479166,141.11160362587876L137.12933580729168,141.03878364985965L137.17757010416668,141.52783269076838L137.22580440104167,142.0148500226221L137.27403869791667,142.49984803775908L137.65991307291668,142.98283902797837L138.09402174479166,143.463835185558L138.91400479166668,143.8649509353362L139.58928494791667,144.1042285432003L139.78222213541667,144.34252362418184L139.83045643229167,144.5798420990565L139.92692502604166,144.81618984114243L140.31279940104167,145.05157267677495L140.40926799479166,145.28599638577532L140.60220518229167,145.51946670191418L141.08454815104167,145.7519893133692L141.47042252604166,145.9835698631773L141.51865682291665,146.21421394968175L142.04923408854168,146.4462766246099L142.43510846354167,146.41680088671777L142.72451424479166,146.38744366772585L142.77274854166666,146.35820426884487L142.86921713541668,146.32908199676586L142.96568572916667,146.30007616360652L143.20685721354167,146.27118608685814L144.12330885416668,146.2424110893333L144.41271463541668,146.21375049911404L144.46094893229167,146.1852036495006L144.94329190104168,146.15676987896111L145.0397604947917,146.37558806629613L145.18446338541668,146.593542679042L145.23269768229167,146.8106387108848L145.28093197916667,147.0268811171012L145.76327494791667,147.17698538101266L145.81150924479164,147.32650159473098L145.95621213541668,147.4754331327341L146.24561791666665,147.62378334374324L146.48678940104168,147.7715555509677L146.58325799479167,147.91875305234774L146.67972658854166,148.0653791207942L146.77619518229164,148.21143700442556L147.21030385416665,148.33792640358175L147.40324104166666,148.46392741512895L147.59617822916667,148.5894427994842L147.69264682291669,148.71447529631138L147.83734971354167,148.8390276247162L148.27145838541668,148.77251572622924L148.31969268229165,148.70625834553084L148.51262986979165,148.6402540574569L148.80203565104168,148.57450144745818L148.89850424479167,148.5089991115015L149.47731580729166,148.44374565597187L149.52555010416668,148.37873969757655L149.57378440104168,148.31397986324944L149.62201869791664,148.24946479005638L149.76672158854169,148.18519312510247L149.9596587760417,148.12116352543939L150.24906455729166,148.05737465797415L150.29729885416668,147.9938251993791L150.44200174479167,147.93051383600252L150.82787611979165,147.8674392637802L151.06904760416668,148.02336249489088L151.21375049479167,148.17870457479563L151.35845338541665,148.3334686692028L151.40668768229168,148.48765792088344L151.69609346354164,148.63877720235007L151.79256205729166,148.78933710607154L152.08196783854166,148.93934065723118L152.22667072916667,148.87202071212795L152.37137361979168,148.80494868034194L152.41960791666668,148.73812322832163L152.61254510416668,148.67154303205658L153.52899674479167,148.56799949304406L153.72193393229168,148.32412516249138L153.81840252604167,148.08114133637983L154.05957401041667,147.8390432670471L154.30074549479167,147.5978262404976L154.92779135416666,147.3574855761055L155.12072854166667,147.118016626319L155.26543143229168,146.8794147763695L155.98894588541668,146.64167544398242L156.51952315104165,146.41963343272144L156.56775744791668,146.19839140676896L156.71246033854166,145.97794516068686L157.00186611979166,145.75829051844187L157.33950619791668,145.53942333314905L157.38774049479164,145.32133948681755L157.43597479166667,145.10403489010002L157.48420908854166,144.88750548204322L157.53244338541668,144.67174722984254L157.58067768229165,144.45675612859807L157.96655205729166,144.2425282010739L159.07594088541668,144.02905949745977L159.12417518229165,143.8163460951346L159.17240947916667,143.6043840984334L159.51004955729167,143.42015063322322L160.04062682291666,143.23656586113123L160.13709541666668,143.0536264534688L160.71590697916668,142.87132910426547L160.76414127604167,142.6896705300755L160.90884416666668,142.50864746978618L161.00531276041664,142.40780351468533L161.05354705729167,142.30731122216167L161.15001565104168,142.20716880597686L162.06646729166667,142.23724134399188L162.30763877604167,142.3230679537459L162.45234166666668,142.08563227112236L162.59704455729167,141.84901800416318L163.03115322916668,141.5660390124076L163.07938752604164,141.28403590092083L163.36879330729167,141.00300377068157L163.46526190104166,140.72293775537798L163.51349619791665,140.44383302113533L163.80290197916668,140.16568476624624L163.94760486979166,139.88848822090304L164.23701065104166,139.61223864693372L164.33347924479168,139.33693133753988L164.42994783854166,139.06256161703743L164.57465072916668,138.78912484059992L165.00875940104166,138.5166163940044L165.24993088541666,138.24503169337947L165.34639947916665,137.97436618495655L165.39463377604167,137.70461534482268L165.44286807291667,137.43577467867672L165.97344533854167,137.29314866410633L166.45578830729167,137.21819649094735L166.84166268229168,137.10936295513838L167.66164572916665,137.00028318359867L167.99928580729167,136.89156865236282L168.04752010416667,136.78321758419224L168.19222299479165,136.67522821334933L168.67456596354168,136.3455296227477L168.96397174479165,136.01692829738963L169.15690893229166,135.68941893233188L169.39808041666666,135.36299625674027L169.49454901041668,135.03765503361666L169.59101760416667,134.71339005952697L169.68748619791668,134.39019616433313L169.78395479166667,134.0680682109273L169.97689197916665,133.74700109496797L170.02512627604168,133.42698974461962L170.16982916666666,133.10802912029376L170.45923494791668,132.7901142143936L170.55570354166667,132.4732400510602L170.70040643229166,132.15740168592123L171.08628080729167,131.8425942058428L171.18274940104166,131.67582886633986L171.23098369791666,131.50960623790482L171.27921799479165,131.34392375838152L171.66509236979167,131.18250045017984L172.38860682291664,131.02160015675224L172.48507541666666,130.86122042048248L172.58154401041665,130.7013587991115L172.67801260416667,130.54201286561747L172.77448119791666,130.38318020809734L173.20858986979167,130.22485842964886L173.40152705729167,130.0670451482545L174.0285729166667,130.02174688523473L174.22151010416667,129.97659369020735L175.13796174479168,129.8411169443839L175.86147619791666,129.70607281347844L175.90971049479168,129.57145929587125L176.19911627604165,129.39737883180211L176.24735057291667,129.22385186440505L176.3438191666667,129.0508758445059L176.48852205729168,128.87844823854212L176.72969354166665,128.70656652844406L176.8743964322917,128.53522821151583L176.92263072916666,128.36443080031893L177.01909932291667,128.19417182255555L177.79084807291667,128.02444882095398L178.12848815104167,127.85525935315401L178.32142533854167,127.68660099159472L178.65906541666666,127.51847132340194L178.70729971354166,127.35086795027746L179.04493979166665,127.26208890974515L179.18964268229166,127.17358699469955L180.34726580729165,127.08536095367222L180.4919686979167,126.9974095427093L180.82960877604168,126.76650968296819L180.97431166666667,126.53632656775628L181.02254596354166,126.30685697960836L181.11901455729165,126.07809772026363L181.16724885416667,125.85004561052222L181.50488893229166,125.62045014120334L181.60135752604168,125.39156244762546L182.13193479166668,125.16337937605668L182.37310627604168,124.93589779144946L182.80721494791666,124.70911457730219L182.90368354166668,124.48302663552231L183.00015213541664,124.25763088629091L183.19308932291665,124.0329242679276L183.3377922135417,123.80890373675753L183.96483807291665,123.58556626697917L184.01307236979167,123.36290885053293L184.06130666666667,123.1409284969718L184.35071244791666,123.08047861340057L184.73658682291665,123.02021205040279L185.02599260416667,122.96012800535937L185.07422690104164,122.90022568032329L185.12246119791666,122.8405042819854L185.31539838541667,122.78096302164131L185.55656986979167,122.72160111515723L185.89420994791666,122.66241778293748L186.28008432291665,122.64424106309339L186.47302151041666,122.62611887709218L186.66595869791666,122.51617024183464L186.76242729166668,122.40655059745276L187.05183307291668,122.29725852415015L187.19653596354166,122.18829261027629L187.29300455729168,122.07965145226802L187.38947315104167,121.97133365459212L187.4859417447917,121.86333782968727L187.63064463541667,121.75566259790793L187.87181611979167,121.64830658746737L188.45062768229167,121.54126843438202L188.69179916666664,121.4345467824162L188.93297065104167,121.3281402830268L189.8011879947917,121.14723049276746L189.99412518229167,120.9668535421808L190.13882807291668,120.78700717052362L190.37999955729165,120.6076891298034L190.66940533854168,120.42889718468882L190.71763963541667,120.25062911242054L190.91057682291668,120.07288270272299L191.00704541666667,119.8956557577169L191.29645119791667,119.7189460918322L191.34468549479166,119.54275153172235L191.63409127604166,119.36706991617865L191.97173135416665,119.19189909604582L192.26113713541667,119.01723693413814L192.40584002604166,118.84308130515556L192.69524580729166,118.72588060367934L193.22582307291665,118.60901892651314L193.32229166666667,118.49249486298358L193.65993174479166,118.36483960329568L193.80463463541665,118.23755220459117L193.9493375260417,118.11063114250679L194.04580611979165,117.98407490107506L194.28697760416668,117.85788197266726L195.05872635416668,117.73205085793526L195.15519494791667,117.60658006575561L195.20342924479166,117.48146811317235L195.39636643229167,117.35671352534196L195.44460072916667,117.1038127602216L195.63753791666667,116.85163256490806L195.73400651041666,116.60016998986804L196.0234122916667,116.34942210161472L196.07164658854165,116.09938598259924L196.40928666666667,115.8500587311018L196.98809822916667,115.60143746112514L197.22926971354164,115.35351930228775L197.37397260416668,115.10630139971848L197.80808127604166,114.85978091395184L197.85631557291666,114.61395502082436L198.14572135416668,114.36882091137146L198.19395565104165,114.12437579172517L198.8692358072917,114.0907031996683L199.06217299479167,114.05712501823494L199.15864158854166,113.94721254155431L199.25511018229167,113.83760748333002L199.39981307291666,113.72830861024522L199.54451596354167,113.61931469555836L199.97862463541668,113.51062451905929L200.26803041666665,113.40223686702635L200.36449901041667,113.2941505321827L200.89507627604166,113.18636431365388L200.9433105729167,113.07887701692565L201.23271635416666,112.97168745380127L201.57035643229165,112.84638913678697L202.72797955729166,112.72143705489992L202.87268244791667,112.59682983727993L203.01738533854166,112.47256612027921L203.11385393229165,112.34864454741503L204.12677416666668,112.22506376932257L204.27147705729166,112.156378164975L204.46441424479167,112.08788100216506L204.51264854166666,112.0195715406025L204.5608828385417,111.95144904386132L204.85028861979166,111.88351277935472L204.99499151041664,111.81576201830984L205.09146010416666,111.7481960357432L205.52556877604167,111.6597830243555L205.71850596354167,111.57161057632462L205.86320885416666,111.4836777551101L206.1043803385417,111.3959836290162L206.49025471354167,111.30852727115975L206.68319190104168,111.2213077594401L206.77966049479167,111.13432417650745L206.8761290885417,111.0475756097327L207.50317494791665,110.96106115117723L207.59964354166667,110.81875167233609L207.74434643229168,110.67682535189859L208.32315799479167,110.53528071525187L208.51609518229168,110.39411629532277L208.75726666666668,110.25333063252975L208.85373526041667,110.11292227473501L209.33607822916667,109.97288977719695L209.43254682291666,109.83323170252346L209.52901541666668,109.69394662062497L210.15606127604167,109.55503310866824L210.44546705729167,109.41648975103016L210.92781002604167,109.27336496413203L211.16898151041667,109.13062068205812L211.50662158854166,108.98825546059368L211.65132447916665,108.84626786280569L211.74779307291666,108.70465645899701L212.71247901041667,108.56341982666072L212.76071330729164,108.42255655043503L212.80894760416666,108.28206522205868L213.05011908854166,108.14194444032613L213.14658768229165,107.95712863605092L213.43599346354168,107.77279918621754L213.62893065104166,107.58895426543371L214.01480502604167,107.39257445128871L214.06303932291667,107.19670968403068L214.30421080729167,107.00135803773242L214.35244510416666,106.80651759603225L214.54538229166667,106.6121864520748L215.07595955729167,106.41836270845181L215.36536533854166,106.22504447714385L215.65477111979166,106.03222987946212L215.79947401041665,105.83991704599119L216.33005127604167,105.64810411653156L216.52298846354168,105.45678924004307L216.7159256510417,105.41413051216443L216.81239424479168,105.37158230566813L217.05356572916668,105.32914421281012L217.24650291666669,105.28681582784395L217.4876744010417,105.24459674700871L217.72884588541666,105.21366706812042L217.92178307291667,105.18473980099009L217.97001736979166,105.15588698736096L218.06648596354168,105.12710835454304L218.50059463541666,105.09840363117272L218.54882893229166,105.06977254720466L219.07940619791665,105.04121483390375L219.17587479166667,105.01273022383721L219.22410908854167,104.98431845086668L219.5617491666667,105.09874740565334L219.65821776041668,105.21288439011359L219.70645205729167,105.32673046337827L219.75468635416667,105.4402866794763L219.80292065104166,105.55355408736598L219.99585783854167,105.66653373096476L220.09232643229169,105.7792266491802L221.15348096354165,105.93601251856369L221.29818385416664,106.0924013400382L221.97346401041668,106.12130614678672L222.21463549479168,106.02853896318135L222.26286979166665,105.93600595458145L222.35933838541666,105.84370628154008L222.74521276041668,105.75163910860546L222.98638424479168,105.65980360429742L223.32402432291667,105.5681989410836L224.67458463541666,105.4768242953561L225.01222471354168,105.53566172534329L225.54280197916665,105.594351727155L225.78397346354168,105.64526850110269L226.2180821354167,105.69605796172577L226.26631643229166,105.7467205606083L226.74865940104166,105.79725674720761L226.79689369791666,105.84766696886751L226.84512799479165,105.89795167082988L226.94159658854167,105.94811129624775L227.03806518229166,105.99814628619681L227.13453377604168,106.04805707968865L227.18276807291664,106.09784411368128L227.23100236979167,106.14750782309277L227.32747096354169,106.19704864081193L228.19568830729168,106.24646699771067L228.43685979166668,106.29576332265566L228.67803127604168,106.3582253756579L228.82273416666666,106.4205335047854L228.96743705729168,106.48268824723463L229.20860854166668,106.54469013771372L229.73918580729168,106.60653970845644L230.17329447916669,106.61182619264358L230.31799736979167,106.6170997161129L230.36623166666666,106.62236032383959L230.80034033854164,106.6276080605915L231.08974611979167,106.63284297093065L231.81326057291668,106.63806509921422L231.86149486979167,106.6432744895958L232.15090065104167,106.64847118602663L232.34383783854165,106.65365523225668L232.48854072916666,106.65882667183568L232.77794651041665,106.70485188982133L232.87441510416664,106.7507654085789L233.30852377604165,106.72527989823155L233.50146096354166,106.69985611465997L233.79086674479169,106.67449384655724L234.03203822916666,106.64919288357657L234.32144401041668,106.62395301632533L234.51438119791666,106.5987740363602L234.7555526822917,106.5736557361814L235.09319276041668,106.5485979092274L235.28612994791666,106.52360034986991L235.72023861979164,106.49866285340812L235.86494151041668,106.47378521606397L236.44375307291668,106.74238956778305L236.78139315104167,107.01035044709988L236.92609604166665,107.13802935896537L237.02256463541667,107.26540300521245L237.07079893229167,107.39247241579426L237.26373611979164,107.51923861605331L237.31197041666667,107.64570262674748L237.36020471354166,107.77186546407569L237.93901627604168,107.89772813970288L238.22842205729165,108.02329166078607L238.27665635416668,108.14855702999877L238.37312494791666,108.2735252455561L238.61429643229167,108.39819730123982L238.66253072916666,108.5225741864226L238.80723361979167,108.64665688609273L239.09663940104167,108.77044638087801L239.28957658854168,108.8939436470703L239.62721666666667,109.00846832628643L240.10955963541664,109.12272317089143L240.39896541666667,109.14245841935379L240.59190260416668,109.16214725871498L240.73660549479166,109.18178984266552L241.12247986979168,109.20138632422089L241.21894846354166,109.22093685572503L241.84599432291665,109.24044158885438L242.03893151041666,109.2599006746212L242.08716580729168,109.27931426337734L243.00361744791667,109.29868250481792L243.05185174479166,109.3180055479847L243.19655463541667,109.50206532436118L243.53419471354167,109.68569639029484L243.63066330729168,109.86890015027939L244.01653768229167,110.05167800270652L244.11300627604166,110.23403133989889L244.16124057291668,110.41596154814299L244.78828643229167,110.373704446691L244.88475502604166,110.33154521286302L244.93298932291668,110.28948352808712L245.3670979947917,110.24751907516648L245.51180088541668,110.20565153827197L245.60826947916667,110.1638806029347L246.04237815104167,110.1222059560391L246.18708104166666,110.08062728581488L246.28354963541668,110.03914428183056L246.38001822916667,109.99775663498602L246.95882979166666,109.95646403750516L247.77881283854168,109.92623757087509L248.01998432291668,109.8960803923113L248.50232729166666,109.86599227888503L248.79173307291666,109.83597300861865L249.12937315104168,109.80602236048013L249.41877893229167,109.6459992931931L249.5152475260417,109.4863413535415L249.70818471354167,109.32704737290733L250.04582479166666,109.16811618763118L250.09405908854168,109.00954663898574L250.14229338541665,108.85133757314968L250.62463635416668,108.69348784118178L251.39638510416668,108.53599629899513L251.63755658854166,108.37886180733155L251.87872807291666,108.2220832317359L252.11989955729166,108.065659442531L252.16813385416668,108.34500146613033L252.26460244791667,108.62371249395171L252.40930533854166,108.90179452256078L252.89164830729166,108.90391143098468L253.08458549479167,108.79585571121814L253.1328197916667,108.68804319180808L253.42222557291666,108.58047310640148L253.61516276041667,108.47314469184573L253.66339705729166,108.36605718817218L254.04927143229168,108.2592098385793L254.14574002604166,108.15260188941653L254.19397432291666,108.04623259016734L254.24220861979168,107.94010119343352L254.33867721354167,107.83420695491861L254.48338010416666,107.72854913341196L254.53161440104165,107.62312699077269L254.57984869791667,107.51793979191395L254.62808299479167,107.41298680478695L254.82102018229168,107.30826730036534L254.91748877604167,107.20378055262947L255.06219166666665,107.09952583855123L255.11042596354167,106.9955024380784L255.15866026041667,106.89170963411948L255.2068945572917,106.78814671252817L255.30336315104165,106.68481296208866L255.44806604166666,106.5817076745004L255.49630033854166,106.478830144363L255.78570611979168,106.42514682739896L256.0751119010417,106.37158188789866L256.17158049479167,106.31813496146154L256.3162833854167,106.26480568517319L256.8950949479167,106.21159369759754L257.2809693229167,106.1584986387697L257.32920361979166,106.10552015018789L257.3774379166667,106.0526578748067L257.6668436979167,105.99991145702911L258.0044837760417,105.95727192432562L258.2456552604167,105.91472568229031L258.5832953385417,105.87227244631747L258.77623252604167,105.82991193295162L259.01740401041667,105.78764385988151L259.2103411979167,105.74546794593427L259.4997469791667,105.70338391106971L259.59621557291666,105.6613914763749L259.7409184635417,105.61949036405801L260.07855854166667,105.57768029744297L260.36796432291663,105.53596100096398L260.5126672135417,105.49433220015969L260.60913580729164,105.46103236527838L260.65737010416666,105.4278046397881L260.89854158854166,105.39464880629393" style="fill: none;" fill="none"></path></g></g></g></g><g opacity="0.2"><g><g><g><path stroke="rgb(238, 51, 119)" stroke-width="2px" d="M24.791658385416667,85.1020539890636L25.41870424479167,85.1020539890636L25.708110026041666,85.1020539890636L26.479858776041667,-10.679033019325932L32.65384877604166,-42.87855581803755L33.13619174479167,14.600119590759277L33.37736322916667,14.600119590759277L33.473831822916665,14.600119590759277L33.52206611979167,14.600119590759277L33.71500330729167,14.600119590759277L34.10087768229167,14.600119590759277L34.48675205729167,42.75324648076838L34.53498635416667,42.75324648076838L34.776157838541664,42.75324648076838L35.30673510416666,42.75324648076838L35.596140885416666,42.75324648076838L35.83731236979167,42.75324648076838L35.98201526041667,51.90734819932417L36.56082682291667,51.90734819932417L36.85023260416666,51.90734819932417L37.091404088541665,51.90734819932417L37.429044166666664,51.90734819932417L37.62198135416667,70.89692115783691L37.71844994791667,70.89692115783691L38.63490158854167,106.89052365042944L38.87607307291666,106.89052365042944L38.92430736979166,126.98988285931672L39.165478854166665,126.98988285931672L39.40665033854167,126.98988285931672L39.50311893229166,126.98988285931672L39.88899330729166,126.98988285931672L39.937227604166665,126.98988285931672L40.274867682291664,126.98988285931672L40.46780486979167,126.98988285931672L40.901913541666666,161.86866435137662L41.28778791666667,161.86866435137662L42.059536666666666,161.86866435137662L42.25247385416667,161.86866435137662L42.54187963541666,161.86866435137662L42.73481682291666,166.19843374599108L42.83128541666667,166.19843374599108L44.857125885416664,295.7769208604639L45.291234557291666,295.7769208604639L45.72534322916667,165.43928601525045L45.821811822916665,165.43928601525045L45.87004611979167,165.43928601525045L46.014749010416665,165.43928601525045L46.30415479166667,165.43928601525045L46.73826346354167,124.81473575938831L46.88296635416667,124.81473575938831L46.93120065104167,124.81473575938831L47.41354361979166,124.81473575938831L48.23352666666666,124.81473575938831L48.329995260416666,124.81473575938831L49.00527541666667,124.81473575938831L49.24644690104167,124.81473575938831L49.34291549479167,180.3549744866111L49.87349276041666,240.351372198625L50.162898541666664,111.12661968577991L50.25936713541667,111.12661968577991L50.404070026041666,111.12661968577991L50.69347580729166,111.12661968577991L50.934647291666664,111.12661968577991L51.41699026041667,111.12661968577991L51.706396041666665,111.12661968577991L51.99580182291667,111.12661968577991L52.18873901041667,111.12661968577991L52.47814479166667,111.12661968577991L52.57461338541667,111.12661968577991L52.62284768229167,111.12661968577991L52.71931627604166,111.12661968577991L52.81578486979166,111.12661968577991L52.864019166666665,111.12661968577991L53.10519065104167,183.79397890784523L62.60734713541667,-4.24223032864658L62.752050026041665,94.2600330439481L62.80028432291667,94.2600330439481L62.84851861979167,94.2600330439481L62.89675291666667,94.2600330439481L63.04145580729167,94.2600330439481L63.23439299479167,194.56622232090342L63.57203307291667,194.56622232090342L63.861438854166664,144.49557412754405L64.68142190104166,58.186395385048606L64.87435908854167,58.186395385048606L64.97082768229167,58.186395385048606L65.21199916666667,58.186395385048606L66.36962229166667,58.186395385048606L66.46609088541668,58.186395385048606L66.70726236979166,58.186395385048606L66.80373096354167,58.186395385048606L66.99666815104166,58.186395385048606L67.09313674479166,58.186395385048606L67.47901111979166,225.8964501727711L67.76841690104166,225.8964501727711L67.96135408854167,162.1860658038746L68.29899416666667,162.1860658038746L68.39546276041666,162.1860658038746L68.68486854166667,162.1860658038746L68.78133713541666,162.1860658038746L68.92604002604168,123.6079582301053L68.97427432291667,123.6079582301053L69.07074291666667,123.6079582301053L69.45661729166666,123.6079582301053L69.50485158854167,123.6079582301053L69.64955447916667,123.6079582301053L69.98719455729166,123.6079582301053L70.13189744791667,123.6079582301053L70.56600611979167,123.6079582301053L70.75894330729167,123.6079582301053L70.90364619791667,123.6079582301053L70.95188049479167,123.6079582301053L71.38598916666668,123.6079582301053L71.43422346354167,123.6079582301053L71.62716065104166,123.6079582301053L71.67539494791667,123.6079582301053L71.72362924479167,123.6079582301053L71.77186354166668,123.6079582301053L71.96480072916667,305.7278634201396L76.25765315104168,362.1178657358343L76.45059033854166,150.36240837790749L76.54705893229166,150.36240837790749L76.78823041666666,150.36240837790749L76.83646471354166,150.36240837790749L76.88469901041667,150.36240837790749L77.27057338541667,150.36240837790749L77.55997916666666,150.36240837790749L77.75291635416667,150.36240837790749L77.80115065104167,150.36240837790749L77.84938494791668,150.36240837790749L78.28349361979167,150.36240837790749L78.52466510416667,150.36240837790749L79.19994526041665,150.36240837790749L79.29641385416666,150.36240837790749L80.26109979166667,38.10017282312566L80.30933408854168,38.10017282312566L80.50227127604167,38.10017282312566L80.55050557291666,38.10017282312566L80.59873986979167,38.10017282312566L81.46695721354168,38.10017282312566L81.70812869791666,38.10017282312566L82.04576877604165,38.10017282312566L82.09400307291666,38.10017282312566L82.38340885416667,38.10017282312566L82.47987744791666,38.10017282312566L82.72104893229167,38.10017282312566L82.81751752604166,38.10017282312566L83.10692330729167,167.09095413034612L83.97514065104167,334.4957796010104L86.33862119791667,318.8024247776378L86.62802697916666,69.05304518612947L86.82096416666667,69.05304518612947L86.91743276041666,69.05304518612947L86.96566705729167,69.05304518612947L87.25507283854168,69.05304518612947L87.73741580729165,69.05304518612947L87.97858729166667,69.05304518612947L88.02682158854167,69.05304518612947L88.17152447916666,69.05304518612947L88.46093026041667,69.05304518612947L88.55739885416666,69.05304518612947L88.70210174479166,69.05304518612947L88.84680463541667,69.05304518612947L88.99150752604166,69.05304518612947L89.03974182291667,69.05304518612947L89.90795916666667,243.71640823104164L94.00787440104166,299.83564322645014L95.21373182291667,130.48212831670585L95.26196611979167,130.48212831670585L95.79254338541666,130.48212831670585L96.17841776041666,130.48212831670585L96.22665205729167,130.48212831670585L96.37135494791666,130.48212831670585L96.46782354166666,130.48212831670585L96.51605783854167,130.48212831670585L96.95016651041666,130.48212831670585L97.28780658854167,159.59687319668856L98.01132104166666,25.261444178494532L98.05955533854167,-86.20290886272085L101.14655033854167,-6.123760830272317L101.58065901041665,77.01107545332475L101.91829908854167,60.53571397607976L101.96653338541667,60.53571397607976L102.20770486979167,60.53571397607976L102.59357924479167,60.53571397607976L103.02768791666666,29.89715662869541L103.07592221354167,22.293873700228612L103.26885940104167,22.293873700228612L103.51003088541667,22.293873700228612L103.65473377604167,22.293873700228612L103.75120236979167,22.293873700228612L103.89590526041667,22.293873700228612L104.04060815104168,22.293873700228612L104.23354533854166,22.293873700228612L104.61941971354166,22.293873700228612L105.00529408854166,22.293873700228612L105.19823127604167,22.293873700228612L105.34293416666667,22.293873700228612L105.39116846354166,22.293873700228612L105.68057424479166,22.293873700228612L105.72880854166667,22.293873700228612L106.11468291666667,317.91947234760624L115.85801088541668,310.24522066116333L116.72622822916667,94.40160404552113L117.01563401041668,94.40160404552113L117.35327408854167,94.40160404552113L117.64267986979166,94.40160404552113L117.83561705729167,94.40160404552113L117.93208565104166,94.40160404552113L118.02855424479166,94.40160404552113L118.31796002604166,94.40160404552113L118.46266291666666,94.40160404552113L118.55913151041666,94.40160404552113L118.70383440104168,94.40160404552113L118.84853729166666,94.40160404552113L118.99324018229167,94.40160404552113L119.42734885416667,141.27159790559247L119.52381744791666,141.27159790559247L120.10262901041666,141.27159790559247L120.15086330729167,141.27159790559247L120.19909760416667,141.27159790559247L120.87437776041666,141.27159790559247L121.06731494791667,141.27159790559247L121.26025213541666,186.09329722144386L123.14138971354167,307.98513867638326L123.91313846354167,29.702749685807664L124.25077854166666,29.702749685807664L124.49195002604166,29.702749685807664L124.54018432291666,29.702749685807664L124.58841861979167,29.702749685807664L124.68488721354167,29.702749685807664L124.73312151041667,29.702749685807664L124.82959010416666,29.702749685807664L124.92605869791666,29.702749685807664L125.11899588541667,29.702749685807664L125.31193307291666,29.702749685807664L125.55310455729168,29.702749685807664L125.64957315104168,29.702749685807664L125.98721322916667,29.702749685807664L126.08368182291666,29.702749685807664L126.13191611979167,29.702749685807664L126.37308760416667,29.702749685807664L126.56602479166666,29.702749685807664L126.80719627604167,93.11508070338856L126.90366486979165,93.11508070338856L126.95189916666666,93.11508070338856L127.43424213541667,296.1004662513733L131.19651729166665,272.9773537679152L131.87179744791666,67.93918869712137L132.06473463541667,67.93918869712137L132.16120322916666,67.93918869712137L132.40237471354166,67.93918869712137L132.45060901041666,67.93918869712137L132.54707760416667,67.93918869712137L132.64354619791666,67.93918869712137L132.69178049479166,67.93918869712137L132.78824908854165,67.93918869712137L132.88471768229167,61.65207819505171L132.93295197916666,61.65207819505171L133.27059205729165,61.65207819505171L133.41529494791666,61.65207819505171L133.65646643229167,61.65207819505171L134.23527799479166,61.65207819505171L134.42821518229167,61.65207819505171L134.57291807291668,61.65207819505171L135.05526104166665,61.65207819505171L135.34466682291665,61.65207819505171L135.39290111979167,61.65207819505171L135.48936971354166,61.65207819505171L135.63407260416668,61.65207819505171L135.77877549479166,112.93677633458917L135.82700979166665,112.93677633458917L135.87524408854168,112.93677633458917L136.35758705729168,112.93677633458917L136.40582135416668,112.93677633458917L136.45405565104167,112.93677633458917L136.55052424479166,112.93677633458917L137.12933580729168,112.93677633458917L137.17757010416668,330.5569170821796L142.04923408854168,238.40116847645152L142.43510846354167,134.71926602450284L142.72451424479166,134.71926602450284L142.77274854166666,134.71926602450284L142.86921713541668,134.71926602450284L142.96568572916667,134.71926602450284L143.20685721354167,134.71926602450284L144.12330885416668,134.71926602450284L144.41271463541668,134.71926602450284L144.46094893229167,134.71926602450284L144.94329190104168,134.71926602450284L145.0397604947917,234.52593478289518L147.83734971354167,200.19378055225718L148.27145838541668,121.3096622987227L148.31969268229165,121.3096622987227L148.51262986979165,121.3096622987227L148.80203565104168,121.3096622987227L148.89850424479167,121.3096622987227L149.47731580729166,121.3096622987227L149.52555010416668,121.3096622987227L149.57378440104168,121.3096622987227L149.62201869791664,121.3096622987227L149.76672158854169,121.3096622987227L149.9596587760417,121.3096622987227L150.24906455729166,121.3096622987227L150.29729885416668,121.3096622987227L150.44200174479167,121.3096622987227L150.82787611979165,121.3096622987227L151.06904760416668,213.76551866531372L152.08196783854166,212.70391941070557L152.22667072916667,120.21654280749233L152.37137361979168,120.21654280749233L152.41960791666668,120.21654280749233L152.61254510416668,120.21654280749233L153.52899674479167,104.25644267689097L153.72193393229168,43.818607330322266L153.81840252604167,43.818607330322266L154.05957401041667,43.818607330322266L154.30074549479167,43.818607330322266L154.92779135416666,43.818607330322266L155.12072854166667,43.818607330322266L155.26543143229168,43.818607330322266L155.98894588541668,43.818607330322266L156.51952315104165,50.25992393493652L156.56775744791668,50.25992393493652L156.71246033854166,50.25992393493652L157.00186611979166,50.25992393493652L157.33950619791668,50.25992393493652L157.38774049479164,50.25992393493652L157.43597479166667,50.25992393493652L157.48420908854166,50.25992393493652L157.53244338541668,50.25992393493652L157.58067768229165,50.25992393493652L157.96655205729166,50.25992393493652L159.07594088541668,50.25992393493652L159.12417518229165,50.25992393493652L159.17240947916667,50.25992393493652L159.51004955729167,62.18394843014803L160.04062682291666,62.18394843014803L160.13709541666668,62.18394843014803L160.71590697916668,62.18394843014803L160.76414127604167,62.18394843014803L160.90884416666668,62.18394843014803L161.00531276041664,97.604688947851L161.05354705729167,97.604688947851L161.15001565104168,97.604688947851L162.06646729166667,155.64791224219582L162.30763877604167,180.64440510489723L162.45234166666668,35.94009139321067L162.59704455729167,35.94009139321067L163.03115322916668,14.748152819546778L163.07938752604164,14.748152819546778L163.36879330729167,14.748152819546778L163.46526190104166,14.748152819546778L163.51349619791665,14.748152819546778L163.80290197916668,14.748152819546778L163.94760486979166,14.748152819546778L164.23701065104166,14.748152819546778L164.33347924479168,14.748152819546778L164.42994783854166,14.748152819546778L164.57465072916668,14.748152819546778L165.00875940104166,14.748152819546778L165.24993088541666,14.748152819546778L165.34639947916665,14.748152819546778L165.39463377604167,14.748152819546778L165.44286807291667,14.748152819546778L165.97344533854167,72.12721347808838L166.45578830729167,102.93185970999976L166.84166268229168,87.26529901677911L167.66164572916665,86.98443326083095L167.99928580729167,86.98443326083095L168.04752010416667,86.98443326083095L168.19222299479165,86.98443326083095L168.67456596354168,-15.541367097334424L171.08628080729167,-15.541367097334424L171.18274940104166,53.512488278475665L171.23098369791666,53.512488278475665L171.27921799479165,53.512488278475665L171.66509236979167,55.26643319563433L172.38860682291664,55.26643319563433L172.48507541666666,55.26643319563433L172.58154401041665,55.26643319563433L172.67801260416667,55.26643319563433L172.77448119791666,55.26643319563433L173.20858986979167,55.26643319563433L173.40152705729167,55.26643319563433L174.0285729166667,108.52741544896905L174.22151010416667,108.52741544896905L175.13796174479168,65.41444475000554L175.86147619791666,65.41444475000554L175.90971049479168,65.41444475000554L176.19911627604165,46.33941607041792L176.24735057291667,46.33941607041792L176.3438191666667,46.33941607041792L176.48852205729168,46.33941607041792L176.72969354166665,46.33941607041792L176.8743964322917,46.33941607041792L176.92263072916666,46.33941607041792L177.01909932291667,46.33941607041792L177.79084807291667,46.33941607041792L178.12848815104167,46.33941607041792L178.32142533854167,46.33941607041792L178.65906541666666,46.33941607041792L178.70729971354166,46.33941607041792L179.04493979166665,84.30476947264236L179.18964268229166,84.30476947264236L180.34726580729165,84.30476947264236L180.4919686979167,84.30476947264236L180.82960877604168,14.566438848322093L180.97431166666667,14.566438848322093L181.02254596354166,14.566438848322093L181.11901455729165,14.566438848322093L181.16724885416667,14.566438848322093L181.50488893229166,13.466394164345482L181.60135752604168,13.466394164345482L182.13193479166668,13.466394164345482L182.37310627604168,13.466394164345482L182.80721494791666,13.466394164345482L182.90368354166668,13.466394164345482L183.00015213541664,13.466394164345482L183.19308932291665,13.466394164345482L183.3377922135417,13.466394164345482L183.96483807291665,13.466394164345482L184.01307236979167,13.466394164345482L184.06130666666667,13.466394164345482L184.35071244791666,93.18329095840454L184.73658682291665,93.18329095840454L185.02599260416667,93.18329095840454L185.07422690104164,93.18329095840454L185.12246119791666,93.18329095840454L185.31539838541667,93.18329095840454L185.55656986979167,93.18329095840454L185.89420994791666,93.18329095840454L186.28008432291665,113.58134009621358L186.47302151041666,113.58134009621358L186.66595869791666,67.58586883544922L186.76242729166668,67.58586883544922L187.05183307291668,67.58586883544922L187.19653596354166,67.58586883544922L187.29300455729168,67.58586883544922L187.38947315104167,67.58586883544922L187.4859417447917,67.58586883544922L187.63064463541667,67.58586883544922L187.87181611979167,67.58586883544922L188.45062768229167,67.58586883544922L188.69179916666664,67.58586883544922L188.93297065104167,67.58586883544922L189.8011879947917,29.686545892195266L189.99412518229167,29.686545892195266L190.13882807291668,29.686545892195266L190.37999955729165,29.686545892195266L190.66940533854168,29.686545892195266L190.71763963541667,29.686545892195266L190.91057682291668,29.686545892195266L191.00704541666667,29.686545892195266L191.29645119791667,29.686545892195266L191.34468549479166,29.686545892195266L191.63409127604166,29.686545892195266L191.97173135416665,29.686545892195266L192.26113713541667,29.686545892195266L192.40584002604166,29.686545892195266L192.69524580729166,58.669538497924805L193.22582307291665,58.669538497924805L193.32229166666667,58.669538497924805L193.65993174479166,52.76518474925647L193.80463463541665,52.76518474925647L193.9493375260417,52.76518474925647L194.04580611979165,52.76518474925647L194.28697760416668,52.76518474925647L195.05872635416668,52.76518474925647L195.15519494791667,52.76518474925647L195.20342924479166,52.76518474925647L195.39636643229167,52.76518474925647L195.44460072916667,-13.95694472573022L198.19395565104165,-13.95694472573022L198.8692358072917,96.4313606782393L199.06217299479167,96.4313606782393L199.15864158854166,56.20015751231799L199.25511018229167,56.20015751231799L199.39981307291666,56.20015751231799L199.54451596354167,56.20015751231799L199.97862463541668,56.20015751231799L200.26803041666665,56.20015751231799L200.36449901041667,56.20015751231799L200.89507627604166,56.20015751231799L200.9433105729167,56.20015751231799L201.23271635416666,56.20015751231799L201.57035643229165,46.424987532875754L202.72797955729166,46.424987532875754L202.87268244791667,46.424987532875754L203.01738533854166,46.424987532875754L203.11385393229165,46.424987532875754L204.12677416666668,46.424987532875754L204.27147705729166,75.55296551097523L204.46441424479167,75.55296551097523L204.51264854166666,75.55296551097523L204.5608828385417,75.55296551097523L204.85028861979166,75.55296551097523L204.99499151041664,75.55296551097523L205.09146010416666,75.55296551097523L205.52556877604167,64.25579634579744L205.71850596354167,64.25579634579744L205.86320885416666,64.25579634579744L206.1043803385417,64.25579634579744L206.49025471354167,64.25579634579744L206.68319190104168,64.25579634579744L206.77966049479167,64.25579634579744L206.8761290885417,64.25579634579744L207.50317494791665,64.25579634579744L207.59964354166667,33.9269243587147L207.74434643229168,33.9269243587147L208.32315799479167,33.9269243587147L208.51609518229168,33.9269243587147L208.75726666666668,33.9269243587147L208.85373526041667,33.9269243587147L209.33607822916667,33.9269243587147L209.43254682291666,33.9269243587147L209.52901541666668,33.9269243587147L210.15606127604167,33.9269243587147L210.44546705729167,33.9269243587147L210.92781002604167,31.22247262434526L211.16898151041667,31.22247262434526L211.50662158854166,31.22247262434526L211.65132447916665,31.22247262434526L211.74779307291666,31.22247262434526L212.71247901041667,31.22247262434526L212.76071330729164,31.22247262434526L212.80894760416666,31.22247262434526L213.05011908854166,31.22247262434526L213.14658768229165,6.419094259088695L213.43599346354168,6.419094259088695L213.62893065104166,6.419094259088695L214.01480502604167,-0.763353000987649L216.52298846354168,-0.763353000987649L216.7159256510417,81.71059998598965L216.81239424479168,81.71059998598965L217.05356572916668,81.71059998598965L217.24650291666669,81.71059998598965L217.4876744010417,81.71059998598965L217.72884588541666,87.95901428569447L217.92178307291667,89.03440605510364L217.97001736979166,89.03440605510364L218.06648596354168,89.03440605510364L218.50059463541666,89.03440605510364L218.54882893229166,89.03440605510364L219.07940619791665,89.03440605510364L219.17587479166667,89.03440605510364L219.22410908854167,89.03440605510364L219.5617491666667,169.3873981996016L219.65821776041668,169.3873981996016L219.70645205729167,169.3873981996016L219.75468635416667,169.3873981996016L219.80292065104166,169.3873981996016L219.99585783854167,169.3873981996016L220.09232643229169,169.3873981996016L221.15348096354165,194.5000568303195L221.29818385416664,194.5000568303195L221.97346401041668,122.47392416000366L222.21463549479168,53.50619966333562L222.26286979166665,53.50619966333562L222.35933838541666,53.50619966333562L222.74521276041668,53.50619966333562L222.98638424479168,53.50619966333562L223.32402432291667,53.50619966333562L224.67458463541666,53.50619966333562L225.01222471354168,139.02559778907082L225.54280197916665,139.02559778907082L225.78397346354168,134.6705581925132L226.2180821354167,134.6705581925132L226.26631643229166,134.6705581925132L226.74865940104166,134.6705581925132L226.79689369791666,134.6705581925132L226.84512799479165,134.6705581925132L226.94159658854167,134.6705581925132L227.03806518229166,134.6705581925132L227.13453377604168,134.6705581925132L227.18276807291664,134.6705581925132L227.23100236979167,134.6705581925132L227.32747096354169,134.6705581925132L228.19568830729168,134.6705581925132L228.43685979166668,134.6705581925132L228.67803127604168,142.33761462298307L228.82273416666666,142.33761462298307L228.96743705729168,142.33761462298307L229.20860854166668,142.33761462298307L229.73918580729168,142.33761462298307L230.17329447916669,109.66810464859009L230.31799736979167,109.66810464859009L230.36623166666666,109.66810464859009L230.80034033854164,109.66810464859009L231.08974611979167,109.66810464859009L231.81326057291668,109.66810464859009L231.86149486979167,109.66810464859009L232.15090065104167,109.66810464859009L232.34383783854165,109.66810464859009L232.48854072916666,109.66810464859009L232.77794651041665,133.50627704100174L232.87441510416664,133.50627704100174L233.30852377604165,91.86331835660069L233.50146096354166,91.86331835660069L233.79086674479169,91.86331835660069L234.03203822916666,91.86331835660069L234.32144401041668,91.86331835660069L234.51438119791666,91.86331835660069L234.7555526822917,91.86331835660069L235.09319276041668,91.86331835660069L235.28612994791666,91.86331835660069L235.72023861979164,91.86331835660069L235.86494151041668,91.86331835660069L236.44375307291668,264.6024809100411L239.28957658854168,182.2805252942172L239.62721666666667,177.10956681858409L240.10955963541664,177.10956681858409L240.39896541666667,120.8938035097989L240.59190260416668,120.8938035097989L240.73660549479166,120.8938035097989L241.12247986979168,120.8938035097989L241.21894846354166,120.8938035097989L241.84599432291665,120.8938035097989L242.03893151041666,120.8938035097989L242.08716580729168,120.8938035097989L243.00361744791667,120.8938035097989L243.05185174479166,120.8938035097989L243.19655463541667,219.83981934460724L244.16124057291668,219.83981934460724L244.78828643229167,84.94092269377273L244.88475502604166,84.94092269377273L244.93298932291668,84.94092269377273L245.3670979947917,84.94092269377273L245.51180088541668,84.94092269377273L245.60826947916667,84.94092269377273L246.04237815104167,84.94092269377273L246.18708104166666,84.94092269377273L246.28354963541668,84.94092269377273L246.38001822916667,84.94092269377273L246.95882979166666,84.94092269377273L247.77881283854168,91.60280379382046L248.01998432291668,91.60280379382046L248.50232729166666,91.60280379382046L248.79173307291666,91.60280379382046L249.12937315104168,91.60280379382046L249.41877893229167,12.325569933111012L249.5152475260417,12.325569933111012L249.70818471354167,12.325569933111012L250.04582479166666,12.325569933111012L250.09405908854168,12.325569933111012L250.14229338541665,12.325569933111012L250.62463635416668,12.325569933111012L251.39638510416668,12.325569933111012L251.63755658854166,12.325569933111012L251.87872807291666,12.325569933111012L252.11989955729166,12.325569933111012L252.16813385416668,279.426000660116L252.40930533854166,279.426000660116L252.89164830729166,110.20284912802954L253.08458549479167,42.451084310358226L253.1328197916667,42.451084310358226L253.42222557291666,42.451084310358226L253.61516276041667,42.451084310358226L253.66339705729166,42.451084310358226L254.04927143229168,42.451084310358226L254.14574002604166,42.451084310358226L254.19397432291666,42.451084310358226L254.24220861979168,42.451084310358226L254.33867721354167,42.451084310358226L254.48338010416666,42.451084310358226L254.53161440104165,42.451084310358226L254.57984869791667,42.451084310358226L254.62808299479167,42.451084310358226L254.82102018229168,42.451084310358226L254.91748877604167,42.451084310358226L255.06219166666665,42.451084310358226L255.11042596354167,42.451084310358226L255.15866026041667,42.451084310358226L255.2068945572917,42.451084310358226L255.30336315104165,42.451084310358226L255.44806604166666,42.451084310358226L255.49630033854166,42.451084310358226L255.78570611979168,72.99411643635142L256.0751119010417,72.99411643635142L256.17158049479167,72.99411643635142L256.3162833854167,72.99411643635142L256.8950949479167,72.99411643635142L257.2809693229167,72.99411643635142L257.32920361979166,72.99411643635142L257.3774379166667,72.99411643635142L257.6668436979167,72.99411643635142L258.0044837760417,79.25989194349808L258.2456552604167,79.25989194349808L258.5832953385417,79.25989194349808L258.77623252604167,79.25989194349808L259.01740401041667,79.25989194349808L259.2103411979167,79.25989194349808L259.4997469791667,79.25989194349808L259.59621557291666,79.25989194349808L259.7409184635417,79.25989194349808L260.07855854166667,79.25989194349808L260.36796432291663,79.25989194349808L260.5126672135417,79.25989194349808L260.60913580729164,84.46321942589499L260.65737010416666,84.46321942589499L260.89854158854166,84.46321942589499" style="fill: none;" fill="none"></path></g></g></g></g></g></g><g transform="translate(41, 178)" clip-path="url(#clip_1)"><clipPath id="clip_1"><rect width="288" height="22"></rect></clipPath><g><g><line x1="0" y1="0" x2="0" y2="5" style="visibility: inherit;" fill="rgb(0, 0, 0)" stroke="rgb(204, 204, 204)" stroke-width="1px"></line><line x1="24.069010416666664" y1="0" x2="24.069010416666664" y2="5" style="visibility: inherit;" fill="rgb(0, 0, 0)" stroke="rgb(204, 204, 204)" stroke-width="1px"></line><line x1="48.13802083333333" y1="0" x2="48.13802083333333" y2="5" style="visibility: inherit;" fill="rgb(0, 0, 0)" stroke="rgb(204, 204, 204)" stroke-width="1px"></line><line x1="72.20703125" y1="0" x2="72.20703125" y2="5" style="visibility: inherit;" fill="rgb(0, 0, 0)" stroke="rgb(204, 204, 204)" stroke-width="1px"></line><line x1="96.27604166666666" y1="0" x2="96.27604166666666" y2="5" style="visibility: inherit;" fill="rgb(0, 0, 0)" stroke="rgb(204, 204, 204)" stroke-width="1px"></line><line x1="120.34505208333334" y1="0" x2="120.34505208333334" y2="5" style="visibility: inherit;" fill="rgb(0, 0, 0)" stroke="rgb(204, 204, 204)" stroke-width="1px"></line><line x1="144.4140625" y1="0" x2="144.4140625" y2="5" style="visibility: inherit;" fill="rgb(0, 0, 0)" stroke="rgb(204, 204, 204)" stroke-width="1px"></line><line x1="168.48307291666669" y1="0" x2="168.48307291666669" y2="5" style="visibility: inherit;" fill="rgb(0, 0, 0)" stroke="rgb(204, 204, 204)" stroke-width="1px"></line><line x1="192.55208333333331" y1="0" x2="192.55208333333331" y2="5" style="visibility: inherit;" fill="rgb(0, 0, 0)" stroke="rgb(204, 204, 204)" stroke-width="1px"></line><line x1="216.62109375" y1="0" x2="216.62109375" y2="5" style="visibility: inherit;" fill="rgb(0, 0, 0)" stroke="rgb(204, 204, 204)" stroke-width="1px"></line><line x1="240.69010416666669" y1="0" x2="240.69010416666669" y2="5" style="visibility: inherit;" fill="rgb(0, 0, 0)" stroke="rgb(204, 204, 204)" stroke-width="1px"></line><line x1="264.7591145833333" y1="0" x2="264.7591145833333" y2="5" style="visibility: inherit;" fill="rgb(0, 0, 0)" stroke="rgb(204, 204, 204)" stroke-width="1px"></line><line x1="288.828125" y1="0" x2="288.828125" y2="5" style="visibility: inherit;" fill="rgb(0, 0, 0)" stroke="rgb(204, 204, 204)" stroke-width="1px"></line></g><g transform="translate(0, 8)"><text x="0" y="0" dx="0em" dy="0.95em" style="text-anchor: middle; visibility: hidden; font-family: Roboto, sans-serif; font-size: 12px; font-weight: 200;" fill="rgb(50, 49, 63)" stroke="none" stroke-width="1px">-500k</text><text x="24.069010416666664" y="0" dx="0em" dy="0.95em" style="text-anchor: middle; visibility: inherit; font-family: Roboto, sans-serif; font-size: 12px; font-weight: 200;" fill="rgb(50, 49, 63)" stroke="none" stroke-width="1px">0</text><text x="48.13802083333333" y="0" dx="0em" dy="0.95em" style="text-anchor: middle; visibility: hidden; font-family: Roboto, sans-serif; font-size: 12px; font-weight: 200;" fill="rgb(50, 49, 63)" stroke="none" stroke-width="1px">500k</text><text x="72.20703125" y="0" dx="0em" dy="0.95em" style="text-anchor: middle; visibility: inherit; font-family: Roboto, sans-serif; font-size: 12px; font-weight: 200;" fill="rgb(50, 49, 63)" stroke="none" stroke-width="1px">1M</text><text x="96.27604166666666" y="0" dx="0em" dy="0.95em" style="text-anchor: middle; visibility: hidden; font-family: Roboto, sans-serif; font-size: 12px; font-weight: 200;" fill="rgb(50, 49, 63)" stroke="none" stroke-width="1px">1.5M</text><text x="120.34505208333334" y="0" dx="0em" dy="0.95em" style="text-anchor: middle; visibility: inherit; font-family: Roboto, sans-serif; font-size: 12px; font-weight: 200;" fill="rgb(50, 49, 63)" stroke="none" stroke-width="1px">2M</text><text x="144.4140625" y="0" dx="0em" dy="0.95em" style="text-anchor: middle; visibility: hidden; font-family: Roboto, sans-serif; font-size: 12px; font-weight: 200;" fill="rgb(50, 49, 63)" stroke="none" stroke-width="1px">2.5M</text><text x="168.48307291666669" y="0" dx="0em" dy="0.95em" style="text-anchor: middle; visibility: inherit; font-family: Roboto, sans-serif; font-size: 12px; font-weight: 200;" fill="rgb(50, 49, 63)" stroke="none" stroke-width="1px">3M</text><text x="192.55208333333331" y="0" dx="0em" dy="0.95em" style="text-anchor: middle; visibility: hidden; font-family: Roboto, sans-serif; font-size: 12px; font-weight: 200;" fill="rgb(50, 49, 63)" stroke="none" stroke-width="1px">3.5M</text><text x="216.62109375" y="0" dx="0em" dy="0.95em" style="text-anchor: middle; visibility: inherit; font-family: Roboto, sans-serif; font-size: 12px; font-weight: 200;" fill="rgb(50, 49, 63)" stroke="none" stroke-width="1px">4M</text><text x="240.69010416666669" y="0" dx="0em" dy="0.95em" style="text-anchor: middle; visibility: hidden; font-family: Roboto, sans-serif; font-size: 12px; font-weight: 200;" fill="rgb(50, 49, 63)" stroke="none" stroke-width="1px">4.5M</text><text x="264.7591145833333" y="0" dx="0em" dy="0.95em" style="text-anchor: middle; visibility: inherit; font-family: Roboto, sans-serif; font-size: 12px; font-weight: 200;" fill="rgb(50, 49, 63)" stroke="none" stroke-width="1px">5M</text><text x="288.828125" y="0" dx="0em" dy="0.95em" style="text-anchor: middle; visibility: hidden; font-family: Roboto, sans-serif; font-size: 12px; font-weight: 200;" fill="rgb(50, 49, 63)" stroke="none" stroke-width="1px">5.5M</text></g><line x1="0" y1="0" x2="288.828125" y2="0" fill="rgb(0, 0, 0)" stroke="rgb(204, 204, 204)" stroke-width="1px"></line></g></g></g></g></svg>