<svg viewBox="0 0 330 200" xmlns="http://www.w3.org/2000/svg"><g><g><g><g><g><line x1="60" y1="178" x2="55" y2="178" style="visibility: inherit;" fill="rgb(0, 0, 0)" stroke="rgb(204, 204, 204)" stroke-width="1px"></line><line x1="60" y1="158.2222222222222" x2="55" y2="158.2222222222222" style="visibility: inherit;" fill="rgb(0, 0, 0)" stroke="rgb(204, 204, 204)" stroke-width="1px"></line><line x1="60" y1="138.44444444444446" x2="55" y2="138.44444444444446" style="visibility: inherit;" fill="rgb(0, 0, 0)" stroke="rgb(204, 204, 204)" stroke-width="1px"></line><line x1="60" y1="118.66666666666669" x2="55" y2="118.66666666666669" style="visibility: inherit;" fill="rgb(0, 0, 0)" stroke="rgb(204, 204, 204)" stroke-width="1px"></line><line x1="60" y1="98.8888888888889" x2="55" y2="98.8888888888889" style="visibility: inherit;" fill="rgb(0, 0, 0)" stroke="rgb(204, 204, 204)" stroke-width="1px"></line><line x1="60" y1="79.11111111111113" x2="55" y2="79.11111111111113" style="visibility: inherit;" fill="rgb(0, 0, 0)" stroke="rgb(204, 204, 204)" stroke-width="1px"></line><line x1="60" y1="59.33333333333334" x2="55" y2="59.33333333333334" style="visibility: inherit;" fill="rgb(0, 0, 0)" stroke="rgb(204, 204, 204)" stroke-width="1px"></line><line x1="60" y1="39.55555555555557" x2="55" y2="39.55555555555557" style="visibility: inherit;" fill="rgb(0, 0, 0)" stroke="rgb(204, 204, 204)" stroke-width="1px"></line><line x1="60" y1="19.777777777777786" x2="55" y2="19.777777777777786" style="visibility: inherit;" fill="rgb(0, 0, 0)" stroke="rgb(204, 204, 204)" stroke-width="1px"></line><line x1="60" y1="0" x2="55" y2="0" style="visibility: inherit;" fill="rgb(0, 0, 0)" stroke="rgb(204, 204, 204)" stroke-width="1px"></line></g><g transform="translate(50, 0)"><text x="0" y="178" dx="0em" dy="0.3em" style="text-anchor: end; visibility: hidden; font-family: Roboto, sans-serif; font-size: 12px; font-weight: 200;" fill="rgb(50, 49, 63)" stroke="none" stroke-width="1px">-2e-3</text><text x="0" y="158.2222222222222" dx="0em" dy="0.3em" style="text-anchor: end; visibility: inherit; font-family: Roboto, sans-serif; font-size: 12px; font-weight: 200;" fill="rgb(50, 49, 63)" stroke="none" stroke-width="1px">0</text><text x="0" y="138.44444444444446" dx="0em" dy="0.3em" style="text-anchor: end; visibility: hidden; font-family: Roboto, sans-serif; font-size: 12px; font-weight: 200;" fill="rgb(50, 49, 63)" stroke="none" stroke-width="1px">2e-3</text><text x="0" y="118.66666666666669" dx="0em" dy="0.3em" style="text-anchor: end; visibility: inherit; font-family: Roboto, sans-serif; font-size: 12px; font-weight: 200;" fill="rgb(50, 49, 63)" stroke="none" stroke-width="1px">4e-3</text><text x="0" y="98.8888888888889" dx="0em" dy="0.3em" style="text-anchor: end; visibility: hidden; font-family: Roboto, sans-serif; font-size: 12px; font-weight: 200;" fill="rgb(50, 49, 63)" stroke="none" stroke-width="1px">6e-3</text><text x="0" y="79.11111111111113" dx="0em" dy="0.3em" style="text-anchor: end; visibility: inherit; font-family: Roboto, sans-serif; font-size: 12px; font-weight: 200;" fill="rgb(50, 49, 63)" stroke="none" stroke-width="1px">8e-3</text><text x="0" y="59.33333333333334" dx="0em" dy="0.3em" style="text-anchor: end; visibility: hidden; font-family: Roboto, sans-serif; font-size: 12px; font-weight: 200;" fill="rgb(50, 49, 63)" stroke="none" stroke-width="1px">0.01</text><text x="0" y="39.55555555555557" dx="0em" dy="0.3em" style="text-anchor: end; visibility: inherit; font-family: Roboto, sans-serif; font-size: 12px; font-weight: 200;" fill="rgb(50, 49, 63)" stroke="none" stroke-width="1px">0.012</text><text x="0" y="19.777777777777786" dx="0em" dy="0.3em" style="text-anchor: end; visibility: hidden; font-family: Roboto, sans-serif; font-size: 12px; font-weight: 200;" fill="rgb(50, 49, 63)" stroke="none" stroke-width="1px">0.014</text><text x="0" y="0" dx="0em" dy="0.3em" style="text-anchor: end; visibility: hidden; font-family: Roboto, sans-serif; font-size: 12px; font-weight: 200;" fill="rgb(50, 49, 63)" stroke="none" stroke-width="1px">0.016</text></g><line x1="60" y1="0" x2="60" y2="178" fill="rgb(0, 0, 0)" stroke="rgb(204, 204, 204)" stroke-width="1px"></line></g></g><g transform="translate(60, 0)" clip-path="url(#clip_0)"><clipPath id="clip_0"><rect width="270" height="178"></rect></clipPath><g><g><g><line x1="0" y1="0" x2="0" y2="178" fill="rgb(0, 0, 0)" stroke="rgb(60, 60, 60)" stroke-width="1px" opacity="0.25"></line><line x1="22.5" y1="0" x2="22.5" y2="178" fill="rgb(0, 0, 0)" stroke="rgb(60, 60, 60)" stroke-width="1px" opacity="0.25"></line><line x1="45" y1="0" x2="45" y2="178" fill="rgb(0, 0, 0)" stroke="rgb(60, 60, 60)" stroke-width="1px" opacity="0.25"></line><line x1="67.5" y1="0" x2="67.5" y2="178" fill="rgb(0, 0, 0)" stroke="rgb(60, 60, 60)" stroke-width="1px" opacity="0.25"></line><line x1="90" y1="0" x2="90" y2="178" fill="rgb(0, 0, 0)" stroke="rgb(60, 60, 60)" stroke-width="1px" opacity="0.25"></line><line x1="112.5" y1="0" x2="112.5" y2="178" fill="rgb(0, 0, 0)" stroke="rgb(60, 60, 60)" stroke-width="1px" opacity="0.25"></line><line x1="135" y1="0" x2="135" y2="178" fill="rgb(0, 0, 0)" stroke="rgb(60, 60, 60)" stroke-width="1px" opacity="0.25"></line><line x1="157.5" y1="0" x2="157.5" y2="178" fill="rgb(0, 0, 0)" stroke="rgb(60, 60, 60)" stroke-width="1px" opacity="0.25"></line><line x1="180" y1="0" x2="180" y2="178" fill="rgb(0, 0, 0)" stroke="rgb(60, 60, 60)" stroke-width="1px" opacity="0.25"></line><line x1="202.5" y1="0" x2="202.5" y2="178" fill="rgb(0, 0, 0)" stroke="rgb(60, 60, 60)" stroke-width="1px" opacity="0.25"></line><line x1="225" y1="0" x2="225" y2="178" fill="rgb(0, 0, 0)" stroke="rgb(60, 60, 60)" stroke-width="1px" opacity="0.25"></line><line x1="247.5" y1="0" x2="247.5" y2="178" fill="rgb(0, 0, 0)" stroke="rgb(60, 60, 60)" stroke-width="1px" opacity="0.25"></line><line x1="270" y1="0" x2="270" y2="178" fill="rgb(0, 0, 0)" stroke="rgb(60, 60, 60)" stroke-width="1px" opacity="0.25"></line></g><g><line x1="0" y1="178" x2="270" y2="178" fill="rgb(0, 0, 0)" stroke="rgb(60, 60, 60)" stroke-width="1px" opacity="0.25"></line><line x1="0" y1="158.2222222222222" x2="270" y2="158.2222222222222" fill="rgb(0, 0, 0)" stroke="rgb(60, 60, 60)" stroke-width="1px" opacity="0.25"></line><line x1="0" y1="138.44444444444446" x2="270" y2="138.44444444444446" fill="rgb(0, 0, 0)" stroke="rgb(60, 60, 60)" stroke-width="1px" opacity="0.25"></line><line x1="0" y1="118.66666666666669" x2="270" y2="118.66666666666669" fill="rgb(0, 0, 0)" stroke="rgb(60, 60, 60)" stroke-width="1px" opacity="0.25"></line><line x1="0" y1="98.8888888888889" x2="270" y2="98.8888888888889" fill="rgb(0, 0, 0)" stroke="rgb(60, 60, 60)" stroke-width="1px" opacity="0.25"></line><line x1="0" y1="79.11111111111113" x2="270" y2="79.11111111111113" fill="rgb(0, 0, 0)" stroke="rgb(60, 60, 60)" stroke-width="1px" opacity="0.25"></line><line x1="0" y1="59.33333333333334" x2="270" y2="59.33333333333334" fill="rgb(0, 0, 0)" stroke="rgb(60, 60, 60)" stroke-width="1px" opacity="0.25"></line><line x1="0" y1="39.55555555555557" x2="270" y2="39.55555555555557" fill="rgb(0, 0, 0)" stroke="rgb(60, 60, 60)" stroke-width="1px" opacity="0.25"></line><line x1="0" y1="19.777777777777786" x2="270" y2="19.777777777777786" fill="rgb(0, 0, 0)" stroke="rgb(60, 60, 60)" stroke-width="1px" opacity="0.25"></line><line x1="0" y1="0" x2="270" y2="0" fill="rgb(0, 0, 0)" stroke="rgb(60, 60, 60)" stroke-width="1px" opacity="0.25"></line></g></g></g><g><g><line x1="0" y1="158.2222222222222" x2="270" y2="158.2222222222222" fill="rgb(0, 0, 0)" stroke="rgb(153, 153, 153)" stroke-width="1.5px"></line></g></g><g><g><line x1="22.5" y1="0" x2="22.5" y2="178" fill="rgb(0, 0, 0)" stroke="rgb(153, 153, 153)" stroke-width="1.5px"></line></g></g><g><g><g><g><g><path stroke="rgb(238, 51, 119)" stroke-width="2px" d="M23.17554,158.2222222222222L23.76171,158.2222222222222L24.032249999999998,157.57690904436544L24.753690000000002,157.40324550864705L24.843870000000003,157.3121363083237L24.97914,157.2659059916832L25.06932,157.23849036536987L25.339859999999998,157.23088500002976L25.47513,157.22496972377124L26.15148,157.22023750986983L26.28675,157.21636570495545L26.5122,157.21313920678128L26.87292,156.76084441395935L27.18855,156.37316400378262L27.54927,155.8428490125193L27.684540000000002,155.33324915503934L27.72963,154.70915595892484L28.04526,154.03732749561902L28.27071,153.37902494362248L28.63143,152.63377686822108L29.217599999999997,151.99827250391863L29.71359,151.4852545497001L29.939040000000002,150.92695246581056L30.07431,150.29271681506765L30.48012,149.82562182368213L30.525209999999998,149.3944590145441L30.97611,148.8872213748435L31.20156,148.48463639110065L31.29174,148.14956211160847L31.336830000000003,147.83682763046104L31.517190000000003,147.56132869807362L31.87791,147.1717852036651L32.23863,146.730942571569L32.28372,146.31603414325315L32.50917,145.6775270418989L33.00516,145.07435257104893L33.2757,144.57627664868082L33.50115,143.98426331931657L33.63642,143.55410644708923L34.177499999999995,142.6447149813391L34.44804,141.7159457301625L34.67349,140.9028085831107L34.98912,139.93554568113714L35.16948,139.055822928138L35.259660000000004,138.127394551026L36.11637,136.7418159596154L36.34182,135.43820872521795L36.38691,134.16702557197857L36.612359999999995,132.90526961920074L36.83781,131.84273598862342L36.92799,130.87561606773386L37.28871,130.02522903684326L37.3338,129.18677204065395L37.64943,128.2601224115982L37.82979,127.33310650620146L38.235600000000005,126.35611786855542L38.596320000000006,125.66059549693097L39.31776,124.96653162707143L39.49812,124.2628802999947L39.76866,123.56648111401742L39.94902,122.87229086332657L40.0392,122.16970614548278L41.93298,121.33389349844892L41.978069999999995,120.40259286761567L42.06825,119.4546857036109L42.338789999999996,118.31804682620293L42.7446,117.02716815989525L42.83478,115.72984225794856L42.879870000000004,114.46484499930112L43.01514,113.25672599528632L43.28568,112.14799769871236L43.69149,111.13906254093311L43.82676,110.11061106361679L43.87185,109.09858403288159L44.32275,108.12167904169493L45.08928,107.56629070757513L45.17946,107.0696399423229L45.81072,106.58006457176982L46.036170000000006,106.01397219529828L46.12635,105.44822513133475L46.26162,104.86923651136999L46.622339999999994,104.25130500342834L46.89288,103.70653211495637L46.983059999999995,103.21262926097586L47.11833,102.73079520140155L47.38887,102.20679208479746L47.61432,101.68445169635974L48.065220000000004,101.11003231081736L48.33576,100.67273912556261L48.606300000000005,100.17627904640321L48.786660000000005,99.7475593526246L49.0572,99.37027599034955L49.147380000000005,99.06119347338011L49.19247,98.7580872272743L49.28265,98.4734356395125L49.37282999999999,98.20786583229136L49.417919999999995,97.94777585619627L49.64337,97.64734059307823L49.68846,97.33003119650208L50.09427,97.03187970748459L50.36481,96.75494883382443L50.45499,96.54991118545058L50.68044,96.28895465686881L50.90589,95.94160798448122L50.99607,95.59149247853527L51.537150000000004,95.23231390327037L51.852779999999996,94.83282409645155L51.89787,94.43047607367133L51.988049999999994,94.01768064166535L52.07823,93.54963498055619L52.12332,93.10207471500415L52.213499999999996,92.64931537789266L52.75458,92.20488423514547L52.88985,91.77353004563552L53.07021,91.27069937292966L53.20548,90.80319981371882L53.34075,90.26050748702002L53.52111,89.75986057333549L53.5662,89.26847695642252L53.74656,88.75158222843633L53.972010000000004,88.27240628478394L54.0171,87.804773463022L54.467999999999996,87.40594717268812L54.64836,87.0296702082731L54.783629999999995,86.7071040818642L55.144349999999996,86.34332968840147L55.324709999999996,85.99441914952776L55.45998,85.64336746195016L55.505069999999996,85.2902573963371L55.55016,84.9425872736652L55.86579,84.67067350817811L56.13633,84.40584732736085L56.226510000000005,84.13977780045091L56.2716,83.90826319627813L56.45196,83.70418572692526L56.63232,83.49507687356832L56.767590000000006,83.27890044569716L56.81268,83.05294552614282L56.85777,82.82193571270909L57.038129999999995,82.56373570198758L57.44394,82.26395348777204L57.6243,81.97910524195748L57.66939,81.69491316053747L57.71448,81.40030536775792L57.80466,81.12130937220196L57.84975,80.88383806753517L58.12029,80.66063820043347L58.30065,80.43651669006033L58.34574,80.21081764312511L58.43592,79.98211987458306L58.5261,79.73857396004513L58.66137,79.49718461138399L58.70646,79.27254021325344L58.75155,79.06601938835124L58.796640000000004,78.85510429208745L58.93191,78.67201957235845L59.11227,78.47881848694934L59.337720000000004,78.30260419798597L59.382810000000006,78.12865767806686L59.4279,77.96958936282039L59.69844,77.85715785928515L60.46497,77.75314552687868L60.64533,77.62114750347729L60.73551,77.47793244712923L60.96096,77.33071382937754L62.04312,77.18663329172576L62.133300000000006,77.01972330230493L62.35874999999999,76.81311109325146L62.44893,76.61129409288596L62.62929,76.41822195429901L62.71947,76.22727035705812L63.08019,76.03814074241025L63.35073,75.88745072634164L63.53109,75.74383168347589L63.84672,75.56330409466035L63.9369,75.3560061382385L64.20744,75.10142798321831L64.29762000000001,74.8611789933986L64.43289,74.63428706805672L64.47798,74.41709735860908L64.56816,74.20520244908742L64.92887999999999,73.97549031411585L64.97397,73.74751293615186L65.10924,73.51680602251632L65.42487,73.28416069560559L65.56014,73.06528609083144L65.96595,72.83147817643145L66.14631,72.57774663418145L66.28158,72.3566659636918L66.32667000000001,72.13009758767909L66.73248,71.97735516565072L66.77757,71.84829242168331L66.95793,71.73069125620889L67.00302,71.60554703910324L67.04811000000001,71.4879995410299L67.0932,71.37165528985801L67.27356,71.26440941025494L67.31865,71.14308312416047L67.45392,71.01448486083284L67.49901,70.90289573462813L67.85973,70.7683821965658L68.04008999999999,70.64344504641757L68.13027,70.51431507029064L68.22045,70.3809650979161L68.26554,70.23785630633071L68.67135,70.11637666218085L68.80662,69.99612439442129L69.16734,69.85040143855592L69.25752,69.71589628030505L69.43787999999999,69.5739070403656L69.48297000000001,69.4563320327269L69.70841999999999,69.31874397420162L70.02405,69.20259608600131L70.52004,69.11087965785639L70.61022,69.00940022784208L70.88076,68.91998158216123L71.01603,68.82339448657147L71.10621,68.73492115381924L71.28657000000001,68.6361024697908L71.46692999999999,68.55366998002425L71.55711,68.47407651620624L71.78256,68.35846092386336L71.82764999999999,68.24812143516398L71.87274000000001,68.14481474930011L72.23346000000001,67.97047109508603L72.504,67.7823723016876L72.68436,67.59567990582258L72.72945,67.41396189811267L72.77454,67.23438355213078L73.18035,67.04933458143705L73.4058,66.84556123457101L74.03706,66.61925746546989L74.12723999999999,66.40829351786678L75.02904,66.27070204631823L75.07413,66.15129485514113L75.25449,66.07334432743855L75.29957999999999,65.98489130220797L75.34467000000001,65.8971539672738L76.15629000000001,65.80426220375992L76.38174,65.7198465164437L76.69736999999999,65.65050992649053L76.74246,65.58203337955123L77.013,65.50898513807894L77.10318,65.44008743914324L77.32862999999999,65.38358248415679L77.41881,65.32130614339466L77.68934999999999,65.26636138549135L78.50097,65.10933820519962L78.59115,64.96123132462941L78.68133,64.80254380516303L79.04205,64.61481091928326L79.17732,64.43239359246984L79.53804,64.2471632655314L79.67331,64.04819799042698L79.80857999999999,63.85700183884636L80.39475,63.61620680553719L80.71038,63.398913152512314L80.98092,63.22067931493468L81.16128,63.052057646634694L81.25146,62.88946951379639L81.29655000000001,62.744039265208094L81.56709000000001,62.640026249736344L82.01799,62.5739804434528L82.24344,62.49206361949183L82.28853,62.402887710687956L82.4238,62.30291200334429L82.69434,62.20215562144467L82.78452,62.08938439320697L82.91978999999999,62.00631502266013L83.05506,61.94710083709394L83.19033,61.8890614536713L83.23542,61.8393684308362L84.04704000000001,61.76025387582366L84.72339,61.65050945957529L85.39974,61.61574146526017L85.53501,61.57034176101147L85.5801,61.52224194299206L85.67027999999999,61.481224097473074L85.71537000000001,61.43415869133432L86.66226,61.357113664079435L86.70735,61.28062056867675L86.9328,61.21712908580801L87.06806999999999,61.15018701923595L87.24843,61.095979693320906L87.33860999999999,61.01907354086496L87.51897,60.922925612941846L87.69932999999999,60.81468578022775L87.87969,60.69859156394797L89.00694,60.58763428710544L89.05203,60.47747562331282L89.54802,60.38095631534093L89.90874,60.276475326317836L89.95383,60.180275049870716L90.08909999999999,60.10730662164522L90.17927999999999,60.039639287481194L90.22437000000001,59.96642787245068L90.63018,59.91573900521794L90.94581000000001,59.85770789334413L91.62216,59.84718520449964L91.66725000000001,59.84506292317371L91.80252,59.8279467848355L92.11814999999999,59.78556901370987L92.65923,59.74330358134581L92.88468,59.68878643355918L92.92976999999999,59.6346295178069L93.01995,59.58211958657609L93.33558000000001,59.55471876470059L93.65120999999999,59.51715365099888L93.69630000000001,59.47263736807957L94.10211,59.41418555427069L94.28247,59.34472355382168L94.37265,59.26943826523138L94.55301,59.2147318874945L94.95881999999999,59.18199137504169L95.27445,59.15229419881813L95.31953999999999,59.12985105453503L95.54499,59.11503857677626L95.90571,59.103581415358626L96.31152,59.099626322611655L96.35661,59.103003553672856L96.53697000000001,59.105553163337404L96.76241999999999,59.11114972166389L96.89769000000001,59.119558432526134L96.98787,59.111832535880076L97.12314,59.11487467798675L97.25841000000001,59.113577516442334L97.43876999999999,59.114169655723565L97.79948999999999,59.09958475675878L98.16020999999999,59.06819683065271L98.34057,59.03443939459116L98.47584,59.00797772389046L98.52092999999999,58.980462214955665L98.79147,58.92685342444679L98.83656,58.88028483772231L99.19728,58.81758793202597L99.37764,58.77132382369104L99.42273,58.72420283197613L99.46782,58.6824706701215L99.558,58.64587438419169L99.69327,58.61151721910923L100.0089,58.57293408674102L100.05399,58.529490881385236L100.41471,58.49161845409759L100.45979999999999,58.45447576765562L100.86561,58.406852041415206L101.04597,58.34480953108112L101.13615,58.27611159283435L101.27141999999999,58.20464699773763L101.49687,58.13508574812357L101.54196,58.072265884757094L101.63213999999999,58.010599957265114L101.67723000000001,57.95202555953233L101.72232,57.90365615418477L101.94777,57.85731089793662L102.57902999999999,57.7957340055902L102.98484,57.73858554503526L103.25538,57.686405093964204L103.57101,57.65651478689538L103.6161,57.62670187955473L104.02190999999999,57.61116139651948L104.33754,57.593824347201746L104.74334999999999,57.561374070286L104.87862000000001,57.53147909067048L105.19425,57.50533605905431L105.28443,57.479535846851235L105.46479000000001,57.4661857951544L105.91569,57.42783259763896L105.96078,57.3962408637088L106.09605,57.35667611798604L106.3215,57.30774157763433L106.50186,57.27740572802755L107.08803,57.24150381131802L107.17821,57.20764474847665L107.2233,57.17358608481899L107.49384,57.151464271307255L107.53893000000001,57.13707321053297L107.58402,57.122759390723154L107.6742,57.088162109230595L108.30546,57.055240065214974L109.11708,57.036825881378455L109.38762,56.99604821996093L109.70325,56.96524757917499L109.97379,56.92178565963664L110.15415,56.860937703271055L110.24433,56.79782264002223L110.33451,56.74096986006524L110.60505,56.68332177373658L110.74032,56.62647329802823L110.8305,56.56856110682746L110.96577,56.508370590330586L111.10104,56.452561283003874L111.23631,56.39257004826892L111.64211999999999,56.301025366878335L111.7323,56.228625545985054L112.27338,56.12654803959099L112.31847,56.017570402343445L112.36355999999999,55.90948547335209L112.99482,55.817622358978554L113.17518,55.741785279487864L113.35554,55.66273689415066L113.5359,55.58264332471144L113.58099,55.50269401491608L113.71626,55.42171652482846L113.80644000000001,55.34041078743795L113.89662,55.26281205345079L114.25734,55.18834490281695L114.34752,55.11433068442296L114.48279,55.0325621062569L114.61806,54.95302254518009L114.75332999999999,54.87545000015512L114.84351,54.812282478480356L114.97878,54.76026442765195L115.11404999999999,54.711911786636755L115.83549000000001,54.67968528016879L116.15111999999999,54.67220749025377L116.37657,54.65026605859773L116.42165999999999,54.62094068446665L116.46675,54.59805015028567L116.55693000000001,54.587572870437356L116.60202,54.575818103634866L116.6922,54.56185640947386L116.78237999999999,54.553998629550854L116.96274,54.54049496431531L117.1431,54.522711057861976L117.36855,54.49970612316263L117.45873,54.487932133967334L117.77436,54.48443425284551L117.86454,54.47176014425779L117.90963,54.45619366450771L118.13508,54.43731440767019L118.31544,54.419996951024665L118.54088999999999,54.401092640338234L118.63107,54.37689386415882L118.67616,54.34877747729026L119.12706,54.33335340065564L119.17215,54.31800118735434L119.35251,54.31160437174701L119.48778,54.29835576424448L119.62304999999999,54.29042829927797L119.66814000000001,54.2825374443399L119.80341,54.266626735769L119.8485,54.24796791107221L119.93868,54.242862442326256L120.16413,54.23210817128552L120.20922,54.216436244762605L120.52485,54.18358959000229L120.56994,54.153623713535985L120.7503,54.1327284218798L120.84048,54.110474309975366L120.93065999999999,54.083338003113L121.11102,54.03471907484524L121.56192,53.988202069264986L121.65209999999999,53.94720215889534L121.74228,53.900981007002315L121.78737000000001,53.85480260016976L121.96773,53.820270074693205L122.103,53.78234566378749L122.46372,53.75653041335449L122.64408,53.720664540925476L123.27534,53.70031486294871L123.45570000000001,53.673621531018384L123.54588,53.648441772666544L123.77132999999999,53.62173322542936L123.81642000000001,53.5913607137277L123.9066,53.552878294880344L123.99678,53.51695870173386L124.04186999999999,53.48393112531255L124.13204999999999,53.44706121649952L124.22223,53.40794679973906L124.26732,53.368981978164555L124.58295,53.332956707354704L124.71822,53.30161014331543L124.94367,53.27248613173296L125.48475,53.21726355866686L125.66511,53.15984649415529L125.80038,53.10140920683048L126.25128,53.03760979649967L126.52181999999999,52.984896666334045L126.56691000000001,52.940020056038705L126.65709,52.89691019717795L126.79236,52.834170855637524L126.92763000000001,52.76553009310071L126.97272,52.69845220647122L127.01781,52.629486825439216L127.46871,52.547239347824984L127.5138,52.46544358550545L127.55889,52.38116074390054L127.64907000000001,52.29457145220903L128.19015000000002,52.206388076109164L128.23524,52.113730995279184L128.28033000000002,52.0215883815625L128.32542,51.92791604343283L128.68614,51.848664611895174L129.09195,51.7640267379161L129.85848000000001,51.69483897138638L130.48974,51.5993475078408L130.67010000000002,51.497267826679206L130.71519,51.40046716498364L130.80537,51.31152864706362L131.16609,51.22689921397709L131.25627,51.14367575102304L131.43663,51.05766336694894L131.88753,50.97186187584652L132.24825,50.89321745796454L132.29334,50.809803917369926L132.78933,50.720861953061416L133.15005,50.658960008878836L133.42059,50.60038204983382L133.46568,50.53792243487973L133.55586,50.48190250046964L133.64604,50.4345245376602L133.87149,50.38194955243188L134.72820000000002,50.382464439758174L134.99874,50.39464396143504L135.04383,50.402538517529536L135.49473,50.426950606994275L135.58491,50.45778227358816L135.72018,50.48328774524703L135.76527000000002,50.51344926565211L135.81036,50.539390996961274L136.26126000000002,50.575083288714694L136.30634999999998,50.60821905038416L136.44162,50.64017494913795L136.71215999999998,50.662804991340025L136.93761,50.68193993250363L137.02778999999998,50.70608669589129L137.11797,50.73296025348266L137.20815,50.75884270557774L137.61396,50.771712840669345L137.79432,50.775485266361315L137.97468,50.78190514154272L138.06486,50.79732241299254L138.20013,50.81389780008542L138.60594,50.814342953761205L138.65103,50.82334488276143L138.83139,50.8305293553714L139.10193,50.850071239267784L139.19210999999999,50.86865363746789L139.73319,50.86393162900344L139.77828,50.85810969844216L139.82337,50.845359268379035L139.86846,50.831607962971944L140.00373000000002,50.80018807985575L140.18409,50.765622192189625L140.45463,50.74752415036083L140.49972,50.7365206172374L140.63499,50.72108999760752L140.99571,50.70914671710187L141.22116,50.67483911811466L141.35643,50.618821219495665L141.49169999999998,50.56167116135156L141.53679,50.49772205692932L141.80732999999998,50.4339673750493L141.89751,50.37891912673732L142.16805,50.32709492674581L142.30332,50.288137002306534L142.43859,50.25438816547978L142.48368000000002,50.2229161591289L142.66404,50.20720132916058L143.52075,50.210384302784036L143.70111,50.21040267477369L143.79129,50.22368999006012L144.01674,50.26636404896839L144.24219,50.32433217300753L144.82835999999998,50.38751098145092L145.00871999999998,50.42650526164502L145.14399,50.459583688724784L145.82034000000002,50.48527869016861L146.31633,50.51641258174766L146.36142,50.54972214011323L146.49669,50.58761085595917L146.76722999999998,50.61046230405553L147.08286,50.62172863528941L147.12795,50.63744355619498L147.17304,50.65293956499606L147.21813,50.664198416046005L147.26322000000002,50.672954288130896L147.30830999999998,50.67507151896857L147.66903,50.692061452961546L148.70610000000002,50.724531476881666L148.75118999999998,50.752033666773876L148.79628,50.77959144235353L149.11191,50.7936606234017L149.60789999999997,50.805977034522776L149.69808,50.818468909559144L150.23916,50.8427731362583L150.28425000000001,50.867481166136784L150.41952,50.88810546350924L150.50969999999998,50.90312105941882L150.55479,50.92053139030057L150.64497,50.94134323014176L151.50168,50.95410728460091L151.72713000000002,50.96631069506343L151.8624,50.971660776286505L151.99767,50.97090114841924L152.40348,50.96887699520067L152.44857,50.97703217254648L152.71911,50.97584066884009L152.80928999999998,50.97184764315065L152.85438,50.97009160365265L153.12492,50.939300608948734L153.26019,50.90925978315584L153.53072999999998,50.87175442333883L153.62091,50.839207908170486L153.71108999999998,50.80465873601821L153.84636,50.774655161526304L154.25216999999998,50.75606336912676L154.47762,50.72497528571933L154.56779999999998,50.69191453711079L154.61289,50.66194646447515L154.65798,50.63211281429293L155.15397,50.59031910910261L155.60487,50.56730704862414L155.96559000000002,50.557208489465154L156.73211999999998,50.528861007858715L157.04775,50.50908664217149L157.09284,50.49496750855063L157.22811,50.483085078827024L157.67901,50.46120994912321L157.94955,50.429071986885916L158.12991,50.403813650913776L158.35536,50.3794543084096L158.44554000000002,50.35079693445128L158.53572,50.32227604933652L158.6259,50.29158577209367L158.71608,50.26634492200469L158.89643999999998,50.2481407794103L158.94153,50.22999649753278L159.0768,50.21084789697226L159.34734,50.19399041226516L159.43752,50.17660663669381L159.57279,50.15902159478811L159.93350999999998,50.143117157321036L160.02369000000002,50.11963897791391L160.06877999999998,50.09502358897857L160.11387,50.0710841702377L160.47459,50.063672046154124L161.15094,50.050650641475606L161.24112,50.02689980412129L161.3313,50.00230066247853L161.42148,49.979778424249325L161.51165999999998,49.96040310433612L161.91747,49.945117066231326L162.09783,49.93610522045699L162.684,49.94505790006344L162.86436,49.952563720277766L163.72107,49.958271306582276L164.39742,49.98511144337835L164.44251,50.004531506361076L164.71304999999998,50.028068429375516L164.75814,50.04710754830532L164.84832,50.07197159442783L164.98359000000002,50.09919010965728L165.20904,50.113932530121616L165.34431,50.134990052373595L165.3894,50.15944204722837L165.47958,50.17940352071941L166.20102,50.201120484914235L166.51665,50.2179839490648L166.69701,50.22791362550216L167.01264,50.23616015980167L167.05773,50.244380880035315L167.37336,50.25073514233834L167.50862999999998,50.25476266934736L168.59079,50.24222884582343L168.72606000000002,50.22505043380366L169.04169000000002,50.207531837020646L169.17696,50.18498459571375L169.22205,50.16355590459728L169.31223,50.148907046043774L169.35732,50.135483264828025L169.67295,50.12048295074968L169.76313000000002,50.1093303162497L170.25912,50.10477366669987L170.48457000000002,50.103990583555046L170.89038,50.105488467482616L170.98056,50.10937173391624L171.07074,50.11756602159807L171.25109999999998,50.128514719587L171.38637,50.13900597707338L171.97253999999998,50.12728381260181L172.01763,50.1169222833065L172.06272,50.09651786111624L172.33326,50.079000554257114L172.69397999999998,50.06779717606136L172.96452000000002,50.05676207542709L173.00960999999998,50.05119002341379L173.0547,50.04310252830776L173.23506,50.02068314188162L173.46051,49.99053711218737L173.77614,49.955677905633664L174.13685999999998,49.91474761396241L174.31722,49.8779966838334L174.49758,49.84068130706622L174.58776,49.81128208355163L174.85829999999999,49.78114857028069L174.99357,49.73959354454L175.08375,49.69521092700993L175.17392999999998,49.64229669908897L175.26411000000002,49.589190635420934L175.39938,49.53228951280664L175.62483,49.47574040891084L176.16591,49.432262701136914L176.39136,49.39804365080463L176.61681,49.38216857072927L177.42843000000002,49.37297359979202L177.60879000000003,49.38009984211899L177.74406000000002,49.3877986300858L177.96950999999999,49.400860263779045L178.24005,49.413272926164986L178.28514,49.43078215530797L178.46550000000002,49.451927965433285L178.55568,49.47296099851791L178.82622,49.507764668774136L178.87131,49.548007951210046L179.14185,49.57778189677809L179.45748,49.60761048943656L179.72802000000001,49.638436701684476L179.86329,49.668299234800145L180.13383,49.682805488853504L180.62982,49.699402301500065L180.72,49.70788170397518L181.03563,49.70235456307424L181.1709,49.689881300920696L181.30617,49.67347408726284L181.39634999999998,49.66458080354137L181.6218,49.63989305749633L182.34324,49.59548469309714L182.43341999999998,49.55845277982214L182.47851,49.522332959725496L182.65887,49.47850000061972L182.70396,49.43825400336445L182.88432,49.384836231329665L182.9745,49.327963787030285L183.24504000000002,49.27131365166385L183.29012999999998,49.212633953673276L183.60576,49.16926353672296L184.14684,49.125217470344225L184.37229,49.07928608629689L184.50756,49.027398018568626L184.91337,48.97761820053679L184.95846,48.92799421314199L185.229,48.87227624804374L185.27409,48.81602918397417L185.90535,48.771275481434394L186.08571,48.72078443750546L186.17588999999998,48.67227092245868L186.26607,48.62059617610001L186.40134,48.571407752198205L186.53661,48.53333786198325L186.94242,48.499742950100526L187.21295999999998,48.48611876455003L187.30314,48.469935039380715L187.79913,48.45001032011098L187.84422,48.43014085774734L188.11476,48.43811365752773L188.43039,48.454077948100455L189.51254999999998,48.45994785502015L189.64782000000002,48.467134770756196L189.78309000000002,48.46652443221532L189.87327,48.46499339798608L190.82016,48.464563188963105L190.95542999999998,48.46571142534643L191.13579,48.46879690913639L191.18088,48.47662886000448L191.22597000000002,48.483574778111276L191.49651,48.49577709546782L191.63178,48.51244333062087L191.72196,48.52491706437785L192.12777,48.52465398895756L192.30813,48.5260059571162L192.4434,48.52535995756184L192.66885000000002,48.52785831484341L193.02957,48.50453279114304L193.20993,48.48586669832759L193.30011,48.465237060054655L193.39029000000002,48.44461121400741L193.97646,48.418831685542465L194.06664,48.39315164246737L194.20191,48.376055558768755L194.74299,48.38324891237071L194.92335,48.38944329940781L195.14880000000002,48.38116487691684L195.23898,48.377907491921015L195.68988000000002,48.39175473356448L195.78006,48.40815240119534L195.87024000000002,48.43004215176846L196.45641,48.44879402849446L196.72695000000002,48.4621851377582L197.17785,48.45613248416465L197.4033,48.433515125931635L197.71893,48.407128180629364L197.8542,48.37811713318115L197.94438,48.34432427635576L198.84618,48.28015992151821L198.89127,48.21071216666261L198.93635999999998,48.14138399845211L199.16181,48.07307640945323L199.25198999999998,48.010195142605525L199.52253,47.95271747105143L199.70289,47.89260956911246L200.06361,47.832855870042735L200.1087,47.77504986095119L200.33415,47.726780687533044L200.37924,47.67866248765585L200.5596,47.634490234402186L201.05559,47.59577708599227L201.32613,47.564059131284054L201.59667,47.556084421674015L201.73193999999998,47.55355928751017L202.22793000000001,47.53648435871925L202.40829000000002,47.51201796380256L202.58865,47.493857827989004L202.67883,47.47373110595498L202.90428,47.45832009104966L203.08464,47.45027744770006L203.31009,47.44824554150783L203.53554,47.443341572548974L203.7159,47.43874864183756L203.76099,47.43556786052732L203.85117000000002,47.43216417051754L204.25698,47.41595976426595L204.30207000000001,47.399796928970275L204.79806,47.39330215389414L204.88824,47.391738843923186L204.93332999999998,47.390729266127636L205.24896,47.39373468578416L205.33914,47.39905834205341L205.38423,47.406274602353626L205.42932000000002,47.41537415184822L205.47440999999998,47.42131161038221L205.65476999999998,47.42044071727013L205.74495000000002,47.41270198428551L206.73693,47.41345992407002L206.8722,47.417298253241675L207.50346,47.43081073185992L207.72891,47.43753241532112L207.774,47.44342901598589L207.86418,47.45070273434639L208.2249,47.44294716118031L208.45035000000001,47.439440931015895L208.76598,47.43199895664227L210.0285,47.40077370409702L210.34413,47.36974838274571L210.84011999999998,47.33835146984433L211.06557,47.31441036198688L211.47138,47.30052537237224L211.51647,47.29016874200108L211.96737000000002,47.27957833442632L212.01245999999998,47.270395640952934L212.05755,47.26193341094968L212.14773,47.25460079479384L212.23791,47.25683068022591L212.32809,47.259298984076445L212.37318,47.2625578467127L212.41827,47.27236527868806L212.50845,47.290488118914325L213.32007,47.324628145043796L213.54552,47.36341162845609L213.77097,47.39404562865645L213.90624,47.42799949679446L214.04151,47.46411252356568L214.26696,47.49466347388946L214.76295,47.52449447527192L215.16876000000002,47.543391750021804L215.30403,47.55719623466113L215.34912,47.5731334007667L215.75493,47.58732452618786L216.02547,47.584348881945175L216.70182,47.562516672890354L216.74691,47.53485752024042L217.01745,47.498025259902796L217.19781,47.45425952411407L217.33308,47.41042275543318L217.60362,47.36014825022858L217.69379999999998,47.312010617577386L218.09960999999998,47.24792580810425L218.27997,47.18535492012445L218.55051,47.12173032175036L218.77596,47.06628648792297L219.0465,47.00853497691492L219.22686000000002,46.95328392595894L219.45231,46.90066170994729L219.76794,46.84636342529829L219.94830000000002,46.78654856595033L220.35411,46.73695207547055L220.48938,46.6933738088116L221.03046,46.6453213021329L221.34609,46.60308404092963L221.48136,46.56055524526864L221.57154000000003,46.51710235342795L221.61663,46.47698111242567L221.79699,46.43597738356973L221.84208,46.396274110280075L221.88717,46.35669417567035L222.42825000000002,46.33513468933696L222.69879,46.32409123482928L222.74388,46.30970810797777L222.83406,46.30074411819167L223.05951,46.29207295717713L223.1046,46.28398005500022L223.23987,46.272177485483475L223.51041,46.27114921334608L223.69077000000001,46.27630753785994L224.0064,46.2732627245005L224.4573,46.27984125505316L224.72784000000001,46.2898250106685L224.90820000000002,46.290057002796345L225.04347,46.29792432439899L225.40419,46.306073454294555L225.49436999999998,46.31336100934155L226.08053999999998,46.32205497439161L226.2609,46.326147471015624L226.30599,46.33349269063493L227.1627,46.3291507567319L227.20779000000002,46.318321637723855L227.34306,46.309313205169346L227.65869,46.297674046436605L227.74887,46.28439119506647L228.10959,46.268983399890395L228.19977,46.25214561783759L228.24486000000002,46.23594300256355L228.83103,46.22856392764438L228.92121,46.22462442648569L228.96630000000002,46.217915701879235L229.37211000000002,46.22352439298071L229.50738,46.223826896669635L229.59756,46.222840534657564L230.00337,46.226643730022644L230.13863999999998,46.235888482781874L230.22882,46.247606566312996L230.319,46.256522312897964L230.86007999999998,46.267683732311596L231.62661,46.27535673996952L231.85206000000002,46.27822928804823L232.30296,46.28460525741794L232.5735,46.28299432830287L232.88913000000002,46.28420441998013L233.15967,46.283248452279466L233.24985,46.28385522339895L233.43021000000002,46.28150989627864L233.74584000000002,46.25923722741442L233.79093,46.233920974110255L233.83602,46.20948901982654L234.28692,46.169445869777164L235.00836,46.12547220868983L235.23380999999998,46.08684887808811L235.45926,46.05498165355802L235.68471,46.025654545937876L235.7298,45.99155359043815L235.81998,45.961434602011245L235.95524999999998,45.931899016425085L236.40615,45.906827903428876L236.58651,45.89219689044617L236.63160000000002,45.87737995737132L236.90214,45.880229739559L237.0825,45.88000050143637L237.12759,45.882286797759534L237.48831,45.87668356113645L237.57849,45.868343432201904L237.62358,45.85879628092489L237.66867000000002,45.85101814901815L237.75885,45.8482096255989L237.89412,45.840534487309554L237.93921,45.83142459718929L237.9843,45.82070344146873L238.02939,45.80997943291104L238.20975,45.79617753077695L238.29993,45.78779614116959L238.43519999999998,45.77426089322077L238.48029,45.76252696883374L238.52538,45.7508190559215L238.57047,45.741518102116736L238.66065,45.73121398658088L238.79592,45.711110496763204L238.84100999999998,45.691133323063L239.11155000000002,45.673477467317205L239.38209,45.655864927255664L239.47227,45.63860461835316L239.60754,45.62208982977163L240.14862,45.62032505502284L240.50934,45.628102949309024L240.55443,45.6354324666906L240.59951999999998,45.64510737951952L240.87006,45.65630087326845L241.18569,45.66707367614771L241.41114000000002,45.68541541607453L241.72677000000002,45.71227496641648L241.90713,45.736814842810865L242.13258000000002,45.76010665436986L242.31294000000003,45.77377884221459L242.58348,45.78248749201183L242.67366,45.78329415113794L242.80893,45.77709565769649L243.12456,45.75589596820447L243.39509999999999,45.735278963081335L243.53037,45.71468479316244L243.62055,45.68956253902209L243.66564,45.66337474428924L243.89109000000002,45.63372444344768" style="fill: none;" fill="none"></path></g></g></g></g><g opacity="0.2"><g><g><g><path stroke="rgb(238, 51, 119)" stroke-width="2px" d="M23.17554,158.2222222222222L23.76171,158.2222222222222L24.032249999999998,156.28821798287228L24.753690000000002,156.88329618822578L24.843870000000003,156.94860968839689L24.97914,157.03544693931732L25.06932,157.07457137705447L25.339859999999998,157.1778599675098L25.47513,157.1778599675098L26.15148,157.1778599675098L26.28675,157.1778599675098L26.5122,157.1778599675098L26.87292,151.3684568604351L27.18855,151.3684568604351L27.54927,148.4738816378845L27.684540000000002,147.75011882506726L27.72963,144.80811859387904L28.04526,142.71848721233093L28.27071,141.6415133928466L28.63143,138.61481458631656L29.217599999999997,139.4207997041651L29.71359,140.82959835013997L29.939040000000002,138.7845732195096L30.07431,135.87906890714336L30.48012,138.75440209338237L30.525209999999998,138.75440209338237L30.97611,135.87560834528674L31.20156,137.7657082890057L31.29174,138.9023060005986L31.336830000000003,138.9023060005986L31.517190000000003,139.42323798427566L31.87791,135.28723224438727L32.23863,132.85435595197808L32.28372,132.85435595197808L32.50917,124.34405151816708L33.00516,124.3389746459822L33.2757,126.97342463727628L33.50115,122.49100468287038L33.63642,127.52299547567964L34.177499999999995,107.87887088706097L34.44804,105.3169591534469L34.67349,108.25505215012366L34.98912,100.17212365195155L35.16948,102.04842969940769L35.259660000000004,98.18265285715461L36.11637,75.80404432449077L36.34182,76.86056790418097L36.38691,75.8335707684358L36.612359999999995,73.80182724197707L36.83781,81.05960859565272L36.92799,83.7327970787883L37.28871,87.76453813910486L37.3338,86.72300342015096L37.64943,80.45103322052294L37.82979,78.62685893724364L38.235600000000005,74.09957831270167L38.596320000000006,87.8013172575997L39.31776,86.53105390527183L39.49812,84.63249250791141L39.76866,83.68806074021592L39.94902,82.46661824857196L40.0392,80.61444173422124L41.93298,71.11315257185036L41.978069999999995,63.569938182002986L42.06825,60.71950354261532L42.338789999999996,46.82340673440035L42.7446,34.6224464658234L42.83478,31.70034158726536L42.879870000000004,31.347516238689444L43.01514,32.74908293204176L43.28568,37.22990039073761L43.69149,42.02435573107668L43.82676,38.70201373431419L43.87185,37.889640506770895L44.32275,38.476826248069614L45.08928,67.45668100979596L45.17946,70.74171432769963L45.81072,70.31639907260737L46.036170000000006,63.558969375160025L46.12635,62.49636736346617L46.26162,60.377619371645984L46.622339999999994,56.19734353654915L46.89288,60.839948593742335L46.983059999999995,63.89431462685268L47.11833,63.930251053637946L47.38887,59.52922682960829L47.61432,58.66303184959625L48.065220000000004,53.27270597798958L48.33576,63.85476797984707L48.606300000000005,57.92257752435076L48.786660000000005,62.86743721779852L49.0572,66.5704548334082L49.147380000000005,71.90863512621986L49.19247,71.85436209622358L49.28265,72.94864563230013L49.37282999999999,74.15265407578813L49.417919999999995,74.15265407578813L49.64337,69.88845904005899L49.68846,67.72438068108427L50.09427,68.94366809229058L50.36481,70.41532094859416L50.45499,76.86290717952782L50.68044,70.9971742472715L50.90589,61.96360200809109L50.99607,61.027118250727675L51.537150000000004,59.44984803348782L51.852779999999996,54.67513838741516L51.89787,53.62397487958273L51.988049999999994,51.781077183783076L52.07823,45.24022386057511L52.12332,46.50614942279129L52.213499999999996,45.106940424276736L52.75458,45.13969948887827L52.88985,45.70794999351105L53.07021,37.12330679678257L53.20548,40.0437539211578L53.34075,30.85367126762869L53.52111,34.510262556374094L53.5662,34.604478252430766L53.74656,30.790722657409002L53.972010000000004,34.116094660427855L54.0171,34.53874829908213L54.467999999999996,41.624376485745124L54.64836,43.50384608076679L54.783629999999995,49.10934844530293L55.144349999999996,43.62139927181934L55.324709999999996,44.71052535043823L55.45998,43.79696464952497L55.505069999999996,42.88782462643253L55.55016,42.88782462643253L55.86579,51.5407765052385L56.13633,51.90720464785895L56.226510000000005,51.255403332412264L56.2716,55.091971466938666L56.45196,58.12448277407223L56.63232,57.102035252584365L56.767590000000006,55.80513731638592L56.81268,54.13942591349285L56.85777,53.06036608666184L57.038129999999995,49.07450797822742L57.44394,43.12080355733635L57.6243,44.53854256371658L57.66939,44.09404340883097L57.71448,42.166020035743735L57.80466,43.724557630717776L57.84975,48.84767194754549L58.12029,50.356900565326235L58.30065,49.814179475108794L58.34574,49.17830180956259L58.43592,48.34027023116749L58.5261,45.83277888347706L58.66137,45.68407833327851L58.70646,47.61206486738392L58.75155,49.78259925792616L58.796640000000004,48.76780503491562L58.93191,52.39797356393604L59.11227,50.58771520604691L59.337720000000004,52.713167892562026L59.382810000000006,52.720029152929804L59.4279,54.598568563659995L59.69844,61.24242368009357L60.46497,62.29402925570807L60.64533,57.890334205494995L60.73551,55.948754087090514L60.96096,55.07474924292831L62.04312,55.28291711956265L62.133300000000006,51.50401120136183L62.35874999999999,45.053256817989904L62.44893,45.41795352846386L62.62929,46.413471754226435L62.71947,46.390981555812914L63.08019,46.32714881002905L63.35073,52.08819456564056L63.53109,52.94053808848064L63.84672,46.7481262750096L63.9369,42.09383405082758L64.20744,34.039395900236244L64.29762000000001,35.90910316507023L64.43289,37.65794173048603L64.47798,38.84033490137922L64.56816,39.31878117803072L64.92887999999999,35.96397482852142L64.97397,35.83303066756992L65.10924,34.956272109515155L65.42487,34.20611071255474L65.56014,36.11844988912346L65.96595,33.169738055931205L66.14631,29.32584817376404L66.28158,34.48736712916031L66.32667000000001,33.13326746390926L66.73248,45.56110981189545L66.77757,49.420748358799365L66.95793,51.19780558430489L67.00302,49.652493183811515L67.04811000000001,50.7707681068116L67.0932,50.7707681068116L67.27356,52.18640729122694L67.31865,49.460691024859756L67.45392,47.92701974262795L67.49901,50.77766620616119L67.85973,46.39858880556294L68.04008999999999,47.90642675177919L68.13027,46.90875344557896L68.22045,45.895128860241854L68.26554,43.84340939588019L68.67135,47.61217538432943L68.80662,47.62144038826229L69.16734,42.618061972161144L69.25752,44.470675949421214L69.43787999999999,42.808805010385L69.48297000000001,47.19804076022574L69.70841999999999,43.16035020434197L70.02405,47.026481621795256L70.52004,51.52535018159285L70.61022,49.47001128726538L70.88076,51.63072808914717L71.01603,50.07029328660833L71.10621,51.485960100260066L71.28657000000001,49.29073438213932L71.46692999999999,52.34995395110714L71.55711,52.76455827222931L71.78256,45.446503739390124L71.82764999999999,46.29338588317236L71.87274000000001,47.506779057284206L72.23346000000001,33.00172466950285L72.504,29.904524110257647L72.68436,29.852129868335208L72.72945,30.53128412779837L72.77454,30.643035179211044L73.18035,29.196119699213256L73.4058,25.000242555307025L74.03706,19.967660036351948L74.12723999999999,22.751673991481457L75.02904,37.68871149006819L75.07413,41.25225672043034L75.25449,49.75731850663822L75.29957999999999,47.4007104188204L75.34467000000001,47.39412545081644L76.15629000000001,46.14100143478977L76.38174,47.78433315621483L76.69736999999999,50.8642654427224L76.74246,50.92539052334099L77.013,49.81648191147383L77.10318,50.58519173579084L77.32862999999999,53.156396102574156L77.41881,51.796503507428724L77.68934999999999,53.29083075705503L78.50097,30.762577675282976L78.59115,32.44923203935228L78.68133,29.844218696984996L79.04205,23.111701361007157L79.17732,23.962516066100886L79.53804,23.00926136225462L79.67331,19.598008482820454L79.80857999999999,20.994196684824104L80.39475,9.447634879913597L80.71038,14.348950896826057L80.98092,22.849914346304207L81.16128,24.72823272314339L81.25146,25.811455354922373L81.29655000000001,29.46673885981243L81.56709000000001,38.75969437013071L82.01799,47.35971784177755L82.24344,43.55880063192713L82.28853,41.72337203969559L82.4238,39.04227699008255L82.69434,38.68267326884802L82.78452,35.678951626022666L82.91978999999999,42.48837033659222L83.05506,47.988918441865195L83.19033,48.16350758655205L83.23542,50.04972792499598L84.04704000000001,42.93010656783979L84.72339,35.44659895781015L85.39974,53.287681024107684L85.53501,50.6611629260911L85.5801,49.92775405612259L85.67027999999999,51.56276016765173L85.71537000000001,50.017705640031245L86.66226,42.61035341521105L86.70735,42.61035341521105L86.9328,45.67233590781691L87.06806999999999,44.71009249240162L87.24843,47.742530121571505L87.33860999999999,42.01610379914444L87.51897,37.093154090146236L87.69932999999999,33.90669267790186L87.87969,31.750912299586677L89.00694,32.837653054131415L89.05203,32.84472613864477L89.54802,36.09735957201986L89.90874,33.91168435994123L89.95383,35.83321486247912L90.08909999999999,41.5855021501581L90.17927999999999,42.8130046543148L90.22437000000001,41.27389041251608L90.63018,46.936023501886275L90.94581000000001,44.9547770097852L91.62216,57.13705070482361L91.66725000000001,59.29689258088669L91.80252,55.39429057141146L92.11814999999999,48.77694110241203L92.65923,48.73261459751263L92.88468,45.446107720335334L92.92976999999999,45.446107720335334L93.01995,45.78638939559462L93.33558000000001,52.33563279691671L93.65120999999999,49.59252853112089L93.69630000000001,47.67881710247862L94.10211,43.88547951314186L94.28247,40.84003772338232L94.37265,39.15827373415234L94.55301,44.56083014772999L94.95881999999999,50.388029504981326L95.27445,51.15406850311493L95.31953999999999,53.068949569430636L95.54499,55.10404544323685L95.90571,55.992813509371565L96.31152,58.022890071902026L96.35661,60.02487691077923L96.53697000000001,59.803364112973235L96.76241999999999,60.64694916788076L96.89769000000001,61.43315750857195L96.98787,56.98051266123852L97.12314,59.95630114608341L97.25841000000001,58.753858359323615L97.43876999999999,59.27880464080309L97.79948999999999,55.03396849003105L98.16020999999999,50.296042567325976L98.34057,49.57577600412901L98.47584,51.57453022234972L98.52092999999999,51.231218540834064L98.79147,43.790453359484694L98.83656,45.69830739001434L99.19728,41.025347011784724L99.37764,45.60932282937899L99.42273,45.28475297987463L99.46782,46.75018925799265L99.558,48.155974014765704L99.69327,48.73896011213463L100.0089,47.45858445929157L100.05399,45.98425156705912L100.41471,47.52817329598799L100.45979999999999,47.675925242404155L100.86561,44.55302028357985L101.04597,40.25259410921072L101.13615,38.194510710736125L101.27141999999999,37.26380146377619L101.49687,37.70285765909489L101.54196,39.57588043229448L101.63213999999999,39.81052632712658L101.67723000000001,40.623157427542765L101.72232,43.55985975265505L101.94777,44.08121423340508L102.57902999999999,39.4488319936726L102.98484,40.67107573317158L103.25538,42.06605745851996L103.57101,48.687864444322074L103.6161,48.66043782234194L104.02190999999999,52.92649322665402L104.33754,52.355489008128664L104.74334999999999,47.73401110702093L104.87862000000001,48.45716032054691L105.19425,49.55170172949633L105.28443,49.612274225387324L105.46479000000001,53.3860871543487L105.91569,45.67957476774853L105.96078,47.69725501288971L106.09605,45.18251559552221L106.3215,42.21664600653782L106.50186,47.901075889666885L107.08803,46.12002163463171L107.17821,46.69564914537802L107.2233,46.57617111752432L107.49384,50.253005426791L107.53893000000001,52.639480719135875L107.58402,52.639480719135875L107.6742,46.228107207351286L108.30546,46.698485746979735L109.11708,51.23141194548874L109.38762,44.11225107560556L109.70325,47.21267504576181L109.97379,43.13054746803312L110.15415,37.51132258276146L110.24433,36.68428744044571L110.33451,38.58442370427981L110.60505,38.233606080214194L110.74032,38.394067475365276L110.8305,37.95572043044701L110.96577,37.12249633918207L111.10104,38.43998726622927L111.23631,36.98970101939308L111.64211999999999,26.63103060341545L111.7323,32.7146937424938L112.27338,22.9051083508465L112.31847,20.477060267494792L112.36355999999999,20.587383808361167L112.99482,25.735051306585483L113.17518,30.85636051330303L113.35554,29.6705136878623L113.5359,29.19307127346598L113.58099,29.107125928832435L113.71626,28.632529325783274L113.80644000000001,28.388305295672705L113.89662,29.487746289206886L114.25734,30.403802831139853L114.34752,30.431229453119983L114.48279,27.709031309518565L114.61806,28.321451753377936L114.75332999999999,28.85095685886013L114.84351,33.57855865690445L114.97878,37.23994822303455L115.11404999999999,38.39413194358351L115.83549000000001,43.7827448025346L116.15111999999999,52.13875606821644L116.37657,47.20209304822817L116.42165999999999,44.64689521905451L116.46675,46.797518139912036L116.55693000000001,51.01027674724659L116.60202,50.55461538086336L116.6922,49.77651161617705L116.78237999999999,51.8556024440461L116.96274,49.89442398730253L117.1431,48.39233292225336L117.36855,46.554509796202204L117.45873,50.413862840996856L117.77436,53.2718034229345L117.86454,50.06968544340798L117.90963,49.03937279929718L118.13508,47.855423181421244L118.31544,48.37133470260437L118.54088999999999,47.785889603197596L118.63107,45.89328691114983L118.67616,44.47350334127745L119.12706,48.90598805579876L119.17215,48.90598805579876L119.35251,52.05244233376452L119.48778,49.610791456368254L119.62304999999999,51.48045267247494L119.66814000000001,51.48045267247494L119.80341,48.60640424572762L119.8485,47.59810289326643L119.93868,52.42003090431294L120.16413,50.38555208345255L120.20922,48.60089681794247L120.52485,42.39298500286209L120.56994,43.377921231091044L120.7503,46.605439688596476L120.84048,46.079471125370944L120.93065999999999,44.27314532879328L121.11102,36.42723423490923L121.56192,37.11231036070322L121.65209999999999,39.046771345867064L121.74228,37.07363863951632L121.78737000000001,37.01370161606207L121.96773,41.20447656098341L122.103,39.90336056136425L122.46372,44.292725247641414L122.64408,40.54964523928034L123.27534,46.214449154833964L123.45570000000001,43.83732175413107L123.54588,44.35400689393284L123.77132999999999,43.74616369356713L123.81642000000001,42.34191696428593L123.9066,39.2754769548774L123.99678,40.167836821741545L124.04186999999999,41.188875252174014L124.13204999999999,39.69852661258646L124.22223,38.79796086251738L124.26732,38.79050096869471L124.58295,39.831782419648455L124.71822,41.53430517514548L124.94367,42.32135160267355L125.48475,32.4182136166427L125.66511,31.498528434998473L125.80038,31.01886647194626L126.25128,28.889177302519492L126.52181999999999,32.99997481786545L126.56691000000001,35.89830934339102L126.65709,36.49942021982538L126.79236,28.93149608290859L126.92763000000001,26.572088232470893L126.97272,27.059992917709906L127.01781,26.22705432855423L127.46871,21.009263828396797L127.5138,21.05033008340332L127.55889,19.959012085364932L127.64907000000001,18.93197811063793L128.19015000000002,18.175480408800983L128.23524,16.299565775526904L128.28033000000002,16.3498417759935L128.32542,15.606642946600914L128.68614,21.070628362397347L129.09195,18.842431755529518L129.85848000000001,24.740665879514506L130.48974,14.33958458569315L130.67010000000002,11.604704622593193L130.71519,13.512061326868L130.80537,16.44637832790613L131.16609,17.9996018997497L131.25627,18.417926958037757L131.43663,17.183130335476665L131.88753,17.12846128642559L132.24825,19.82529579102993L132.29334,17.80749581919777L132.78933,15.477586783468723L133.15005,26.092988063891756L133.42059,27.31827101939257L133.46568,25.675455043713264L133.55586,28.14912820607426L133.64604,31.518495163155936L133.87149,29.359436115456962L134.72820000000002,50.58865460008385L134.99874,55.27930689934229L135.04383,53.57341337700686L135.49473,60.246730469167254L135.58491,62.8782402492232L135.72018,60.77330687559315L135.76527000000002,62.69988431864315L135.81036,61.03630036695137L136.26126000000002,65.03861629052295L136.30634999999998,64.05544833342236L136.44162,63.627545139855826L136.71215999999998,59.873413436942634L136.93761,58.48134199115967L137.02778999999998,60.562587899466365L137.11797,61.718392535216296L137.20815,61.354404975142764L137.61396,56.04797988467747L137.79432,52.3242587612735L137.97468,53.421369689206294L138.06486,57.145035554137515L138.20013,57.648173158367484L138.60594,50.99814751247566L138.65103,54.54552963955536L138.83139,53.80542528463736L139.10193,58.95326776802542L139.19210999999999,58.58485032038557L139.73319,48.90039774030449L139.77828,48.433804406060126L139.82337,45.52853494220312L139.86846,45.089423488411654L140.00373000000002,37.66180061383381L140.18409,36.29163915250038L140.45463,43.15872007939552L140.49972,46.116181170774844L140.63499,44.2328987411327L140.99571,45.68038522534903L141.22116,36.209672417905615L141.35643,26.967563912272475L141.49169999999998,26.399442344076117L141.53679,23.424105136758747L141.80732999999998,23.40596193820238L141.89751,27.010241872734507L142.16805,28.29729459103613L142.30332,33.705266334944326L142.43859,35.86947363035547L142.48368000000002,36.79043896661865L142.66404,43.491007695595435L143.52075,51.57254091733034L143.70111,50.21827547666101L143.79129,55.92517713871269L144.01674,68.60180234081217L144.24219,75.26405852867498L144.82835999999998,77.60497321022882L145.00871999999998,67.24741717345186L145.14399,64.74735809034773L145.82034000000002,61.59845402008959L146.31633,63.99956359797054L146.36142,64.99393981529607L146.49669,67.03893616547188L146.76722999999998,60.54549461189245L147.08286,55.52630306283634L147.12795,57.48748151957991L147.17304,57.41628097742798L147.21813,55.58453628338047L147.26322000000002,54.504362077348766L147.30830999999998,51.60272125320303L147.66903,58.14560993015768L148.70610000000002,64.98744694474672L148.75118999999998,62.848152010805094L148.79628,62.91556734757292L149.11191,56.99734807593956L149.60789999999997,56.2436685562134L149.69808,56.34059191743534L150.23916,61.60016703274517L150.28425000000001,61.81735125018492L150.41952,60.0396493424972L150.50969999999998,57.574274160795746L150.55479,58.665279027488516L150.64497,60.21073878390923L151.50168,56.64616206205555L151.72713000000002,56.415098758207435L151.8624,53.36341276102596L151.99767,50.630890492763804L152.40348,50.06174664282139L152.44857,54.63629168106451L152.71911,50.44055268334019L152.80928999999998,49.17576912956106L152.85438,50.17925378514662L153.12492,37.05558753841456L153.26019,37.347333855099166L153.53072999999998,33.91942975587317L153.62091,36.110465039809554L153.71108999999998,35.15074509465035L153.84636,37.163930984006996L154.25216999999998,42.31200371103155L154.47762,36.58838636096983L154.56779999999998,35.64030753407215L154.61289,37.00205128805506L154.65798,37.01728420704605L155.15397,31.49474322961437L155.60487,40.04060418821045L155.96559000000002,45.93222571495508L156.73211999999998,37.53081961390047L157.04775,41.43134943064718L157.09284,44.0057311596142L157.22811,45.01544160313078L157.67901,40.383685626089594L157.94955,35.60632357332443L158.12991,38.74051968008282L158.35536,39.11819292191004L158.44554000000002,37.0871861750881L158.53572,37.10654506004521L158.6259,36.054184285302966L158.71608,38.54345875647335L158.89643999999998,41.78365903347733L158.94153,41.78365903347733L159.0768,41.28677484641474L159.34734,42.32869176980524L159.43752,42.056497742732375L159.57279,41.93554615560507L159.93350999999998,42.69710921744507L160.02369000000002,39.11535632030832L160.06877999999998,38.54467444287407L160.11387,38.82524012857016L160.47459,46.57781045221623L161.15094,43.91990554167166L161.24112,38.83197245250147L161.3313,38.394546382129214L161.42148,39.34019383622542L161.51165999999998,40.79723082648384L161.91747,42.707847780651534L162.09783,45.66465498010319L162.684,54.19316477825245L162.86436,53.51806280679175L163.72107,52.6725437053376L164.39742,62.76312764071756L164.44251,59.26016411599188L164.71304999999998,61.25809866686663L164.75814,59.14106368770203L164.84832,61.961143006053256L164.98359000000002,63.128367726173686L165.20904,57.17862349583044L165.34431,60.236876041524944L165.3894,61.90244929823612L165.47958,59.77620457361143L166.20102,60.65315653632086L166.51665,58.34283662918543L166.69701,55.01718833380276L167.01264,54.21788373506733L167.05773,54.21788373506733L167.37336,53.3253580927849L167.50862999999998,52.20562803000214L168.59079,44.164608478546164L168.72606000000002,41.886449002557356L169.04169000000002,41.694803409278414L169.17696,39.2171424271332L169.22205,39.72883588489561L169.31223,43.00813153137764L169.35732,43.585020777252005L169.67295,42.79304713590279L169.76313000000002,44.65573657469618L170.25912,47.87426632063257L170.48457000000002,49.72026770065229L170.89038,50.840237216817016L170.98056,52.016183565888156L171.07074,54.145393828550986L171.25109999999998,55.51580395301184L171.38637,55.306530906922305L171.97253999999998,44.347532442874396L172.01763,45.00280583235954L172.06272,40.015240549213374L172.33326,41.41532447354662L172.69397999999998,44.52120061301525L172.96452000000002,44.587916009128115L173.00960999999998,47.286951642897414L173.0547,46.02691110803023L173.23506,38.87611476249167L173.46051,34.989961358408145L173.77614,32.59236069354748L174.13685999999998,29.506930189000244L174.31722,31.53561607996624L174.49758,31.19793155292671L174.58776,35.10875786509781L174.85829999999999,34.69637309263151L174.99357,28.916521036790485L175.08375,27.433144174516222L175.17392999999998,23.074503199093876L175.26411000000002,22.898689158260822L175.39938,20.90618835720751L175.62483,20.998691040608616L176.16591,27.51617923958435L176.39136,32.1320944544342L176.61681,41.36421038624315L177.42843000000002,44.72436759786474L177.60879000000003,52.986356572144565L177.74406000000002,53.28758892665308L177.96950999999999,56.02361089819008L178.24005,55.71307670076689L178.28514,58.32585385855703L178.46550000000002,60.20484454681477L178.55568,60.17884543538096L178.82622,67.2400033283565L178.87131,70.07139221413269L179.14185,64.77654377371074L179.45748,64.84884027557241L179.72802000000001,65.40445500943397L179.86329,64.95600487374598L180.13383,57.116144582629225L180.62982,58.21206745339766L180.72,54.06117070631849L181.03563,46.862060036096324L181.1709,43.274053721792185L181.30617,41.22620235052376L181.39634999999998,45.081558365788744L181.6218,36.90548710690605L182.34324,26.667353839510042L182.43341999999998,30.420923747950155L182.47851,30.838742270237884L182.65887,26.784041314489325L182.70396,28.581571804152603L182.88432,21.676463838252754L182.9745,19.800300541851254L183.24504000000002,19.831889968779354L183.29012999999998,18.690378857983493L183.60576,26.589365714954013L184.14684,26.172486586703204L184.37229,25.122151955962202L184.50756,21.93857319404682L184.91337,22.965690056482945L184.95846,22.97384989096058L185.229,19.704362623393536L185.27409,19.344390512340603L185.90535,25.300526306033156L186.08571,22.21716799421442L186.17588999999998,23.183693941268654L186.26607,21.44666226953268L186.40134,22.68167071623934L186.53661,28.47771350459921L186.94242,30.78572176562416L187.21295999999998,41.29589249442022L187.30314,39.9212735162841L187.79913,37.91587907158669L187.84422,37.91587907158669L188.11476,52.66080127987598L188.43039,56.916845690872954L189.51254999999998,51.57437365667688L189.64782000000002,52.28369904226729L189.78309000000002,48.14212255759373L189.87327,47.65051555467978L190.82016,48.235500166813544L190.95542999999998,49.07762087219294L191.13579,50.11452769405314L191.18088,52.65766996641955L191.22597000000002,52.19484341806837L191.49651,55.02125904129612L191.63178,57.43284930951067L191.72196,55.207120914426135L192.12777,48.38360208355721L192.30813,49.251510076224825L192.4434,48.17839974496101L192.66885000000002,49.87085624867018L193.02957,35.95507821440699L193.20993,38.43464561386242L193.30011,37.347195708917255L193.39029000000002,37.31912440475492L193.97646,34.501623815132525L194.06664,34.517860596378654L194.20191,39.13095762911772L194.74299,52.27651544080841L194.92335,51.74487367437946L195.14880000000002,43.89304992391005L195.23898,46.6104405803813L195.68988000000002,55.91162960314089L195.78006,57.32053646362492L195.87024000000002,60.33742804245817L196.45641,58.65780071417492L196.72695000000002,55.75873861875801L197.17785,45.15541131463318L197.4033,36.0892273667786L197.71893,33.99348531911772L197.8542,32.517945950229986L197.94438,29.854680967827665L198.84618,13.143864913119222L198.89127,10.149887180990639L198.93635999999998,10.114834889769554L199.16181,10.575543196664924L199.25198999999998,13.463148368729497L199.52253,16.348570831120014L199.70289,14.81523109972477L200.06361,14.923583755062694L200.1087,15.91255385180315L200.33415,21.099344348741894L200.37924,21.112983981768284L200.5596,23.227596797876892L201.05559,26.187968168821623L201.32613,30.010344085594046L201.59667,43.13907569232916L201.73193999999998,46.15382140047022L202.22793000000001,38.06387968113026L202.40829000000002,33.9280040288965L202.58865,37.40308965411453L202.67883,36.2812966083487L202.90428,38.88145641485851L203.08464,42.97065707710056L203.31009,46.315608998967555L203.53554,44.707578231891006L203.7159,44.87447723911869L203.76099,45.65830946548119L203.85117000000002,45.52885728329422L204.25698,38.34750300231909L204.30207000000001,38.34750300231909L204.79806,43.75293285648029L204.88824,46.51480658352377L204.93332999999998,46.82396852887341L205.24896,49.08224416441389L205.33914,50.39233045611118L205.38423,51.46683145893946L205.42932000000002,52.539619449112166L205.47440999999998,50.76747101793688L205.65476999999998,46.929254338973124L205.74495000000002,43.04466659161781L206.73693,47.84159935348566L206.8722,49.5871316202813L207.50346,55.07536629587414L207.72891,51.243172790441264L207.774,50.784481417801665L207.86418,51.575184114277384L208.2249,43.04188524848887L208.45035000000001,45.44824438128208L208.76598,43.20247558007639L210.0285,29.640968824426345L210.34413,29.710308997995337L210.84011999999998,29.45390968438654L211.06557,33.66669592095747L211.47138,39.37938130315809L211.51647,41.37745400021475L211.96737000000002,41.22886396696171L212.01245999999998,42.0200363604559L212.05755,42.41989587909647L212.14773,43.05579196413359L212.23791,48.53466032859354L212.32809,48.674805025259666L212.37318,49.13281487673523L212.41827,52.90500689049563L212.50845,57.70656294458443L213.32007,66.96104013837048L213.54552,69.68705111659237L213.77097,65.03984118666916L213.90624,67.00046705868512L214.04151,68.29647164957392L214.26696,65.13134921756058L214.76295,64.75814270228149L215.16876000000002,58.46848518649738L215.30403,55.54380157921051L215.34912,56.80030557182102L215.75493,55.809548784461306L216.02547,45.859035867783774L216.70182,34.89479705856907L216.74691,31.474583096802256L217.01745,26.095981231166267L217.19781,22.005104395250473L217.33308,21.901660534242783L217.60362,18.084276299509735L217.69379999999998,19.260425262980995L218.09960999999998,9.876652452680798L218.27997,10.670910110904122L218.55051,9.965940934916343L218.77596,14.664928053816165L219.0465,13.234626954628373L219.22686000000002,14.61879643880659L219.45231,16.08286967459652L219.76794,15.024550194541607L219.94830000000002,11.707015684909287L220.35411,17.629710892836247L220.48938,21.100154806342392L221.03046,18.404628085593377L221.34609,21.762667055759163L221.48136,21.531207732856274L221.57154000000003,20.926062987910385L221.61663,22.83162379182047L221.79699,22.253730683690968L221.84208,22.964732242955094L221.88717,22.98176106231081L222.42825000000002,33.59382841487728L222.69879,39.79308306922516L222.74388,37.797782505551986L222.83406,40.99221034761934L223.05951,41.153426941898154L223.1046,41.48472911533384L223.23987,39.26822888520031L223.51041,45.660529014137076L223.69077000000001,49.34157217707901L224.0064,44.46269110010731L224.4573,50.194366977446634L224.72784000000001,52.234647937946875L224.90820000000002,46.42829023467171L225.04347,50.988864089051894L225.40419,51.16832518908714L225.49436999999998,50.66447843445673L226.08053999999998,51.51637988951473L226.2609,48.77290723390051L226.30599,50.72788753194943L227.1627,43.729779556393645L227.20779000000002,39.83095354255705L227.34306,40.90905555586021L227.65869,39.315732752283424L227.74887,38.31115213698813L228.10959,37.01407000588047L228.19977,36.13158298614954L228.24486000000002,36.49070780062016L228.83103,41.78740739987957L228.92121,43.85203892737629L228.96630000000002,42.1748890206218L229.37211000000002,49.60583661331072L229.50738,46.40637104047671L229.59756,45.62723578429886L230.00337,48.52466775476935L230.13863999999998,51.82554183486437L230.22882,53.33733076188301L230.319,51.65427740828859L230.86007999999998,53.02940292242502L231.62661,50.92677198515999L231.85206000000002,48.02071048319342L232.30296,50.154755862222785L232.5735,45.30454472286835L232.88913000000002,47.019666410154784L233.15967,45.70186235176193L233.24985,46.65310933109789L233.43021000000002,44.85333166354235L233.74584000000002,32.687690768804835L233.79093,30.797943097849714L233.83602,31.303180524044592L234.28692,21.722936213844356L235.00836,19.26228563156393L235.23380999999998,22.477149898807202L235.45926,26.562804809047126L235.68471,28.075827841957437L235.7298,25.106670373843784L235.81998,27.503635566267718L235.95524999999998,27.820220566458186L236.40615,30.523161132302572L236.58651,36.90894997119906L236.63160000000002,36.7742758633362L236.90214,47.63215132223236L237.0825,45.73898683571156L237.12759,47.28955800086262L237.48831,42.42560592128172L237.57849,40.72839718891516L237.62358,39.971319273114226L237.66867000000002,41.051475059655L237.75885,44.114120653933966L237.89412,41.098684214883406L237.93921,40.19968412154253L237.9843,39.18879483060705L238.02939,39.17222649852436L238.20975,37.24808042827581L238.29993,40.593667822579555L238.43519999999998,37.381041523483084L238.48029,38.48186397883629L238.52538,38.48186397883629L238.57047,39.963426521254924L238.66065,39.32602924770781L238.79592,33.20690858860813L238.84100999999998,33.25796741743885L239.11155000000002,34.6783772500025L239.38209,34.681112544404144L239.47227,34.87684726466736L239.60754,35.31896109547882L240.14862,44.518667933013724L240.50934,50.4863527475132L240.55443,50.21635984960531L240.59951999999998,51.695518648458865L240.87006,52.660571036239475L241.18569,52.41211973296272L241.41114000000002,57.1763486887018L241.72677000000002,62.54954443375271L241.90713,61.1290977622072L242.13258000000002,60.3782180051009L242.31294000000003,54.35962171769806L242.58348,51.25456524557539L242.67366,46.29045718411606L242.80893,41.87768132487934L243.12456,32.41152734143868L243.39509999999999,32.750068374806006L243.53037,32.73625375661587L243.62055,29.84827098498743L243.66564,29.140538885361632L243.89109000000002,26.91535386525925" style="fill: none;" fill="none"></path></g></g></g></g></g></g><g transform="translate(60, 178)" clip-path="url(#clip_1)"><clipPath id="clip_1"><rect width="270" height="22"></rect></clipPath><g><g><line x1="0" y1="0" x2="0" y2="5" style="visibility: inherit;" fill="rgb(0, 0, 0)" stroke="rgb(204, 204, 204)" stroke-width="1px"></line><line x1="22.5" y1="0" x2="22.5" y2="5" style="visibility: inherit;" fill="rgb(0, 0, 0)" stroke="rgb(204, 204, 204)" stroke-width="1px"></line><line x1="45" y1="0" x2="45" y2="5" style="visibility: inherit;" fill="rgb(0, 0, 0)" stroke="rgb(204, 204, 204)" stroke-width="1px"></line><line x1="67.5" y1="0" x2="67.5" y2="5" style="visibility: inherit;" fill="rgb(0, 0, 0)" stroke="rgb(204, 204, 204)" stroke-width="1px"></line><line x1="90" y1="0" x2="90" y2="5" style="visibility: inherit;" fill="rgb(0, 0, 0)" stroke="rgb(204, 204, 204)" stroke-width="1px"></line><line x1="112.5" y1="0" x2="112.5" y2="5" style="visibility: inherit;" fill="rgb(0, 0, 0)" stroke="rgb(204, 204, 204)" stroke-width="1px"></line><line x1="135" y1="0" x2="135" y2="5" style="visibility: inherit;" fill="rgb(0, 0, 0)" stroke="rgb(204, 204, 204)" stroke-width="1px"></line><line x1="157.5" y1="0" x2="157.5" y2="5" style="visibility: inherit;" fill="rgb(0, 0, 0)" stroke="rgb(204, 204, 204)" stroke-width="1px"></line><line x1="180" y1="0" x2="180" y2="5" style="visibility: inherit;" fill="rgb(0, 0, 0)" stroke="rgb(204, 204, 204)" stroke-width="1px"></line><line x1="202.5" y1="0" x2="202.5" y2="5" style="visibility: inherit;" fill="rgb(0, 0, 0)" stroke="rgb(204, 204, 204)" stroke-width="1px"></line><line x1="225" y1="0" x2="225" y2="5" style="visibility: inherit;" fill="rgb(0, 0, 0)" stroke="rgb(204, 204, 204)" stroke-width="1px"></line><line x1="247.5" y1="0" x2="247.5" y2="5" style="visibility: inherit;" fill="rgb(0, 0, 0)" stroke="rgb(204, 204, 204)" stroke-width="1px"></line><line x1="270" y1="0" x2="270" y2="5" style="visibility: inherit;" fill="rgb(0, 0, 0)" stroke="rgb(204, 204, 204)" stroke-width="1px"></line></g><g transform="translate(0, 8)"><text x="0" y="0" dx="0em" dy="0.95em" style="text-anchor: middle; visibility: hidden; font-family: Roboto, sans-serif; font-size: 12px; font-weight: 200;" fill="rgb(50, 49, 63)" stroke="none" stroke-width="1px">-500k</text><text x="22.5" y="0" dx="0em" dy="0.95em" style="text-anchor: middle; visibility: inherit; font-family: Roboto, sans-serif; font-size: 12px; font-weight: 200;" fill="rgb(50, 49, 63)" stroke="none" stroke-width="1px">0</text><text x="45" y="0" dx="0em" dy="0.95em" style="text-anchor: middle; visibility: hidden; font-family: Roboto, sans-serif; font-size: 12px; font-weight: 200;" fill="rgb(50, 49, 63)" stroke="none" stroke-width="1px">500k</text><text x="67.5" y="0" dx="0em" dy="0.95em" style="text-anchor: middle; visibility: inherit; font-family: Roboto, sans-serif; font-size: 12px; font-weight: 200;" fill="rgb(50, 49, 63)" stroke="none" stroke-width="1px">1M</text><text x="90" y="0" dx="0em" dy="0.95em" style="text-anchor: middle; visibility: hidden; font-family: Roboto, sans-serif; font-size: 12px; font-weight: 200;" fill="rgb(50, 49, 63)" stroke="none" stroke-width="1px">1.5M</text><text x="112.5" y="0" dx="0em" dy="0.95em" style="text-anchor: middle; visibility: inherit; font-family: Roboto, sans-serif; font-size: 12px; font-weight: 200;" fill="rgb(50, 49, 63)" stroke="none" stroke-width="1px">2M</text><text x="135" y="0" dx="0em" dy="0.95em" style="text-anchor: middle; visibility: hidden; font-family: Roboto, sans-serif; font-size: 12px; font-weight: 200;" fill="rgb(50, 49, 63)" stroke="none" stroke-width="1px">2.5M</text><text x="157.5" y="0" dx="0em" dy="0.95em" style="text-anchor: middle; visibility: inherit; font-family: Roboto, sans-serif; font-size: 12px; font-weight: 200;" fill="rgb(50, 49, 63)" stroke="none" stroke-width="1px">3M</text><text x="180" y="0" dx="0em" dy="0.95em" style="text-anchor: middle; visibility: hidden; font-family: Roboto, sans-serif; font-size: 12px; font-weight: 200;" fill="rgb(50, 49, 63)" stroke="none" stroke-width="1px">3.5M</text><text x="202.5" y="0" dx="0em" dy="0.95em" style="text-anchor: middle; visibility: inherit; font-family: Roboto, sans-serif; font-size: 12px; font-weight: 200;" fill="rgb(50, 49, 63)" stroke="none" stroke-width="1px">4M</text><text x="225" y="0" dx="0em" dy="0.95em" style="text-anchor: middle; visibility: hidden; font-family: Roboto, sans-serif; font-size: 12px; font-weight: 200;" fill="rgb(50, 49, 63)" stroke="none" stroke-width="1px">4.5M</text><text x="247.5" y="0" dx="0em" dy="0.95em" style="text-anchor: middle; visibility: inherit; font-family: Roboto, sans-serif; font-size: 12px; font-weight: 200;" fill="rgb(50, 49, 63)" stroke="none" stroke-width="1px">5M</text><text x="270" y="0" dx="0em" dy="0.95em" style="text-anchor: middle; visibility: hidden; font-family: Roboto, sans-serif; font-size: 12px; font-weight: 200;" fill="rgb(50, 49, 63)" stroke="none" stroke-width="1px">5.5M</text></g><line x1="0" y1="0" x2="270" y2="0" fill="rgb(0, 0, 0)" stroke="rgb(204, 204, 204)" stroke-width="1px"></line></g></g></g></g></svg>