<svg viewBox="0 0 330 200" xmlns="http://www.w3.org/2000/svg"><g><g><g><g><g><line x1="30.78125" y1="178" x2="25.78125" y2="178" style="visibility: inherit;" fill="rgb(0, 0, 0)" stroke="rgb(204, 204, 204)" stroke-width="1px"></line><line x1="30.78125" y1="165.28571428571428" x2="25.78125" y2="165.28571428571428" style="visibility: inherit;" fill="rgb(0, 0, 0)" stroke="rgb(204, 204, 204)" stroke-width="1px"></line><line x1="30.78125" y1="152.57142857142858" x2="25.78125" y2="152.57142857142858" style="visibility: inherit;" fill="rgb(0, 0, 0)" stroke="rgb(204, 204, 204)" stroke-width="1px"></line><line x1="30.78125" y1="139.85714285714286" x2="25.78125" y2="139.85714285714286" style="visibility: inherit;" fill="rgb(0, 0, 0)" stroke="rgb(204, 204, 204)" stroke-width="1px"></line><line x1="30.78125" y1="127.14285714285714" x2="25.78125" y2="127.14285714285714" style="visibility: inherit;" fill="rgb(0, 0, 0)" stroke="rgb(204, 204, 204)" stroke-width="1px"></line><line x1="30.78125" y1="114.42857142857142" x2="25.78125" y2="114.42857142857142" style="visibility: inherit;" fill="rgb(0, 0, 0)" stroke="rgb(204, 204, 204)" stroke-width="1px"></line><line x1="30.78125" y1="101.71428571428571" x2="25.78125" y2="101.71428571428571" style="visibility: inherit;" fill="rgb(0, 0, 0)" stroke="rgb(204, 204, 204)" stroke-width="1px"></line><line x1="30.78125" y1="89" x2="25.78125" y2="89" style="visibility: inherit;" fill="rgb(0, 0, 0)" stroke="rgb(204, 204, 204)" stroke-width="1px"></line><line x1="30.78125" y1="76.28571428571429" x2="25.78125" y2="76.28571428571429" style="visibility: inherit;" fill="rgb(0, 0, 0)" stroke="rgb(204, 204, 204)" stroke-width="1px"></line><line x1="30.78125" y1="63.57142857142856" x2="25.78125" y2="63.57142857142856" style="visibility: inherit;" fill="rgb(0, 0, 0)" stroke="rgb(204, 204, 204)" stroke-width="1px"></line><line x1="30.78125" y1="50.857142857142854" x2="25.78125" y2="50.857142857142854" style="visibility: inherit;" fill="rgb(0, 0, 0)" stroke="rgb(204, 204, 204)" stroke-width="1px"></line><line x1="30.78125" y1="38.142857142857146" x2="25.78125" y2="38.142857142857146" style="visibility: inherit;" fill="rgb(0, 0, 0)" stroke="rgb(204, 204, 204)" stroke-width="1px"></line><line x1="30.78125" y1="25.428571428571438" x2="25.78125" y2="25.428571428571438" style="visibility: inherit;" fill="rgb(0, 0, 0)" stroke="rgb(204, 204, 204)" stroke-width="1px"></line><line x1="30.78125" y1="12.714285714285708" x2="25.78125" y2="12.714285714285708" style="visibility: inherit;" fill="rgb(0, 0, 0)" stroke="rgb(204, 204, 204)" stroke-width="1px"></line><line x1="30.78125" y1="0" x2="25.78125" y2="0" style="visibility: inherit;" fill="rgb(0, 0, 0)" stroke="rgb(204, 204, 204)" stroke-width="1px"></line></g><g transform="translate(20.78125, 0)"><text x="0" y="178" dx="0em" dy="0.3em" style="text-anchor: end; visibility: hidden; font-family: Roboto, sans-serif; font-size: 12px; font-weight: 200;" fill="rgb(50, 49, 63)" stroke="none" stroke-width="1px">-2</text><text x="0" y="165.28571428571428" dx="0em" dy="0.3em" style="text-anchor: end; visibility: inherit; font-family: Roboto, sans-serif; font-size: 12px; font-weight: 200;" fill="rgb(50, 49, 63)" stroke="none" stroke-width="1px">-1</text><text x="0" y="152.57142857142858" dx="0em" dy="0.3em" style="text-anchor: end; visibility: hidden; font-family: Roboto, sans-serif; font-size: 12px; font-weight: 200;" fill="rgb(50, 49, 63)" stroke="none" stroke-width="1px">0</text><text x="0" y="139.85714285714286" dx="0em" dy="0.3em" style="text-anchor: end; visibility: inherit; font-family: Roboto, sans-serif; font-size: 12px; font-weight: 200;" fill="rgb(50, 49, 63)" stroke="none" stroke-width="1px">1</text><text x="0" y="127.14285714285714" dx="0em" dy="0.3em" style="text-anchor: end; visibility: hidden; font-family: Roboto, sans-serif; font-size: 12px; font-weight: 200;" fill="rgb(50, 49, 63)" stroke="none" stroke-width="1px">2</text><text x="0" y="114.42857142857142" dx="0em" dy="0.3em" style="text-anchor: end; visibility: inherit; font-family: Roboto, sans-serif; font-size: 12px; font-weight: 200;" fill="rgb(50, 49, 63)" stroke="none" stroke-width="1px">3</text><text x="0" y="101.71428571428571" dx="0em" dy="0.3em" style="text-anchor: end; visibility: hidden; font-family: Roboto, sans-serif; font-size: 12px; font-weight: 200;" fill="rgb(50, 49, 63)" stroke="none" stroke-width="1px">4</text><text x="0" y="89" dx="0em" dy="0.3em" style="text-anchor: end; visibility: inherit; font-family: Roboto, sans-serif; font-size: 12px; font-weight: 200;" fill="rgb(50, 49, 63)" stroke="none" stroke-width="1px">5</text><text x="0" y="76.28571428571429" dx="0em" dy="0.3em" style="text-anchor: end; visibility: hidden; font-family: Roboto, sans-serif; font-size: 12px; font-weight: 200;" fill="rgb(50, 49, 63)" stroke="none" stroke-width="1px">6</text><text x="0" y="63.57142857142856" dx="0em" dy="0.3em" style="text-anchor: end; visibility: inherit; font-family: Roboto, sans-serif; font-size: 12px; font-weight: 200;" fill="rgb(50, 49, 63)" stroke="none" stroke-width="1px">7</text><text x="0" y="50.857142857142854" dx="0em" dy="0.3em" style="text-anchor: end; visibility: hidden; font-family: Roboto, sans-serif; font-size: 12px; font-weight: 200;" fill="rgb(50, 49, 63)" stroke="none" stroke-width="1px">8</text><text x="0" y="38.142857142857146" dx="0em" dy="0.3em" style="text-anchor: end; visibility: inherit; font-family: Roboto, sans-serif; font-size: 12px; font-weight: 200;" fill="rgb(50, 49, 63)" stroke="none" stroke-width="1px">9</text><text x="0" y="25.428571428571438" dx="0em" dy="0.3em" style="text-anchor: end; visibility: hidden; font-family: Roboto, sans-serif; font-size: 12px; font-weight: 200;" fill="rgb(50, 49, 63)" stroke="none" stroke-width="1px">10</text><text x="0" y="12.714285714285708" dx="0em" dy="0.3em" style="text-anchor: end; visibility: inherit; font-family: Roboto, sans-serif; font-size: 12px; font-weight: 200;" fill="rgb(50, 49, 63)" stroke="none" stroke-width="1px">11</text><text x="0" y="0" dx="0em" dy="0.3em" style="text-anchor: end; visibility: hidden; font-family: Roboto, sans-serif; font-size: 12px; font-weight: 200;" fill="rgb(50, 49, 63)" stroke="none" stroke-width="1px">12</text></g><line x1="30.78125" y1="0" x2="30.78125" y2="178" fill="rgb(0, 0, 0)" stroke="rgb(204, 204, 204)" stroke-width="1px"></line></g></g><g transform="translate(30, 0)" clip-path="url(#clip_0)"><clipPath id="clip_0"><rect width="299" height="178"></rect></clipPath><g><g><g><line x1="0" y1="0" x2="0" y2="178" fill="rgb(0, 0, 0)" stroke="rgb(60, 60, 60)" stroke-width="1px" opacity="0.25"></line><line x1="24.934895833333332" y1="0" x2="24.934895833333332" y2="178" fill="rgb(0, 0, 0)" stroke="rgb(60, 60, 60)" stroke-width="1px" opacity="0.25"></line><line x1="49.869791666666664" y1="0" x2="49.869791666666664" y2="178" fill="rgb(0, 0, 0)" stroke="rgb(60, 60, 60)" stroke-width="1px" opacity="0.25"></line><line x1="74.8046875" y1="0" x2="74.8046875" y2="178" fill="rgb(0, 0, 0)" stroke="rgb(60, 60, 60)" stroke-width="1px" opacity="0.25"></line><line x1="99.73958333333333" y1="0" x2="99.73958333333333" y2="178" fill="rgb(0, 0, 0)" stroke="rgb(60, 60, 60)" stroke-width="1px" opacity="0.25"></line><line x1="124.67447916666667" y1="0" x2="124.67447916666667" y2="178" fill="rgb(0, 0, 0)" stroke="rgb(60, 60, 60)" stroke-width="1px" opacity="0.25"></line><line x1="149.609375" y1="0" x2="149.609375" y2="178" fill="rgb(0, 0, 0)" stroke="rgb(60, 60, 60)" stroke-width="1px" opacity="0.25"></line><line x1="174.54427083333334" y1="0" x2="174.54427083333334" y2="178" fill="rgb(0, 0, 0)" stroke="rgb(60, 60, 60)" stroke-width="1px" opacity="0.25"></line><line x1="199.47916666666666" y1="0" x2="199.47916666666666" y2="178" fill="rgb(0, 0, 0)" stroke="rgb(60, 60, 60)" stroke-width="1px" opacity="0.25"></line><line x1="224.4140625" y1="0" x2="224.4140625" y2="178" fill="rgb(0, 0, 0)" stroke="rgb(60, 60, 60)" stroke-width="1px" opacity="0.25"></line><line x1="249.34895833333334" y1="0" x2="249.34895833333334" y2="178" fill="rgb(0, 0, 0)" stroke="rgb(60, 60, 60)" stroke-width="1px" opacity="0.25"></line><line x1="274.28385416666663" y1="0" x2="274.28385416666663" y2="178" fill="rgb(0, 0, 0)" stroke="rgb(60, 60, 60)" stroke-width="1px" opacity="0.25"></line><line x1="299.21875" y1="0" x2="299.21875" y2="178" fill="rgb(0, 0, 0)" stroke="rgb(60, 60, 60)" stroke-width="1px" opacity="0.25"></line></g><g><line x1="0" y1="178" x2="299.21875" y2="178" fill="rgb(0, 0, 0)" stroke="rgb(60, 60, 60)" stroke-width="1px" opacity="0.25"></line><line x1="0" y1="165.28571428571428" x2="299.21875" y2="165.28571428571428" fill="rgb(0, 0, 0)" stroke="rgb(60, 60, 60)" stroke-width="1px" opacity="0.25"></line><line x1="0" y1="152.57142857142858" x2="299.21875" y2="152.57142857142858" fill="rgb(0, 0, 0)" stroke="rgb(60, 60, 60)" stroke-width="1px" opacity="0.25"></line><line x1="0" y1="139.85714285714286" x2="299.21875" y2="139.85714285714286" fill="rgb(0, 0, 0)" stroke="rgb(60, 60, 60)" stroke-width="1px" opacity="0.25"></line><line x1="0" y1="127.14285714285714" x2="299.21875" y2="127.14285714285714" fill="rgb(0, 0, 0)" stroke="rgb(60, 60, 60)" stroke-width="1px" opacity="0.25"></line><line x1="0" y1="114.42857142857142" x2="299.21875" y2="114.42857142857142" fill="rgb(0, 0, 0)" stroke="rgb(60, 60, 60)" stroke-width="1px" opacity="0.25"></line><line x1="0" y1="101.71428571428571" x2="299.21875" y2="101.71428571428571" fill="rgb(0, 0, 0)" stroke="rgb(60, 60, 60)" stroke-width="1px" opacity="0.25"></line><line x1="0" y1="89" x2="299.21875" y2="89" fill="rgb(0, 0, 0)" stroke="rgb(60, 60, 60)" stroke-width="1px" opacity="0.25"></line><line x1="0" y1="76.28571428571429" x2="299.21875" y2="76.28571428571429" fill="rgb(0, 0, 0)" stroke="rgb(60, 60, 60)" stroke-width="1px" opacity="0.25"></line><line x1="0" y1="63.57142857142856" x2="299.21875" y2="63.57142857142856" fill="rgb(0, 0, 0)" stroke="rgb(60, 60, 60)" stroke-width="1px" opacity="0.25"></line><line x1="0" y1="50.857142857142854" x2="299.21875" y2="50.857142857142854" fill="rgb(0, 0, 0)" stroke="rgb(60, 60, 60)" stroke-width="1px" opacity="0.25"></line><line x1="0" y1="38.142857142857146" x2="299.21875" y2="38.142857142857146" fill="rgb(0, 0, 0)" stroke="rgb(60, 60, 60)" stroke-width="1px" opacity="0.25"></line><line x1="0" y1="25.428571428571438" x2="299.21875" y2="25.428571428571438" fill="rgb(0, 0, 0)" stroke="rgb(60, 60, 60)" stroke-width="1px" opacity="0.25"></line><line x1="0" y1="12.714285714285708" x2="299.21875" y2="12.714285714285708" fill="rgb(0, 0, 0)" stroke="rgb(60, 60, 60)" stroke-width="1px" opacity="0.25"></line><line x1="0" y1="0" x2="299.21875" y2="0" fill="rgb(0, 0, 0)" stroke="rgb(60, 60, 60)" stroke-width="1px" opacity="0.25"></line></g></g></g><g><g><line x1="0" y1="152.57142857142858" x2="299.21875" y2="152.57142857142858" fill="rgb(0, 0, 0)" stroke="rgb(153, 153, 153)" stroke-width="1.5px"></line></g></g><g><g><line x1="24.934895833333332" y1="0" x2="24.934895833333332" y2="178" fill="rgb(0, 0, 0)" stroke="rgb(153, 153, 153)" stroke-width="1.5px"></line></g></g><g><g><g><g><g><path stroke="rgb(238, 51, 119)" stroke-width="2px" d="M25.683541145833335,152.57142857142858L26.333145052083335,152.57142857142858L26.632962239583332,149.23372171599516L27.432474739583334,148.33549429283144L27.532413802083333,147.86425677620966L27.682322395833335,147.62514297094205L27.782261458333334,147.48334309727923L28.08207864583333,147.44400637362196L28.231987239583333,147.41341118494512L28.981530208333336,147.3889350707545L29.131438802083334,147.36890919255393L29.38128645833333,147.3522209913457L29.78104270833333,147.1658956501604L30.130829427083334,147.00618856123654L30.530585677083334,146.6925129012046L30.680494270833336,146.06115665754263L30.730463802083335,145.19507940186813L31.08025052083333,144.04407077129187L31.330098177083332,142.8393108026607L31.729854427083335,140.95378930304L32.37945833333333,138.67985278241198L32.92912317708333,136.49973026121882L33.17897083333333,133.84297856910862L33.328879427083336,131.35756545689728L33.77860520833333,129.37138374336706L33.82857473958333,127.5379928852807L34.32827005208333,125.78614990159092L34.57811770833333,124.59141837834089L34.67805677083334,123.61686596662271L34.728026302083336,122.70728811632775L34.927904427083334,122.14864942453342L35.32766067708333,121.58319512684946L35.72741692708333,120.9962918484124L35.77738645833333,120.44391533330109L36.02723411458334,119.60996479451217L36.57689895833333,119.21402554503442L36.876716145833335,118.92676412086846L37.12656380208333,118.49303580573847L37.27647239583333,118.32188262509456L37.87610677083333,117.35031370252487L38.17592395833333,116.53992984914225L38.42577161458333,115.80051550477964L38.775558333333336,115.03201777120456L38.975436458333334,114.34265393848635L39.07537552083333,113.60505844560895L40.02479661458334,112.27506816510787L40.27464427083333,110.99475427653628L40.32461380208333,109.68179548048982L40.57446145833333,108.18109682594994L40.82430911458333,106.96482706652286L40.92424817708333,105.78399909433972L41.32400442708333,104.49948484077373L41.37397395833333,103.23187247238725L41.723760677083334,101.69672092894517L41.92363880208333,99.9500650498152L42.373364583333334,98.01949947569913L42.77312083333334,96.34040409406917L43.57263333333333,94.93985724670387L43.772511458333334,93.64393679750015L44.07232864583333,92.48279958186492L44.272206770833336,91.46062985381754L44.372145833333335,90.48969153682349L46.470866145833334,89.44702323938544L46.52083567708333,88.35092073544868L46.62077473958333,87.34380487872956L46.92059192708333,86.11422974382059L47.37031770833333,84.6550137234585L47.47025677083333,83.22024929833967L47.52022630208334,81.79027822682829L47.670134895833336,80.46071737018278L47.96995208333333,79.17068813028102L48.419677864583335,78.16190833941135L48.56958645833334,77.20147577091595L48.61955598958334,76.32397921424682L49.11925130208333,75.37740028032438L49.96873333333333,74.65264806104447L50.06867239583333,74.0177707125232L50.76824583333333,73.41774407571295L51.018093489583336,72.76580375199067L51.118032552083335,72.11596892534153L51.26794114583333,71.39006028194244L51.66769739583333,70.69220866524893L51.96751458333333,70.05652643482405L52.06745364583333,69.4741262952288L52.21736223958333,68.85832697751317L52.517179427083335,68.0327204911946L52.76702708333333,67.26331820588257L53.266722395833334,66.35332020400331L53.56653958333334,65.43216716696429L53.866356770833335,64.40503179909255L54.06623489583334,63.450500441024964L54.36605208333334,62.60680294732822L54.465991145833335,61.778401452317226L54.515960677083335,60.96860220446851L54.61589973958333,60.14807588241163L54.71583880208333,59.373648171010935L54.76580833333333,58.61520018683231L55.01565598958333,57.8737090233112L55.06562552083333,57.18833718586496L55.51535130208333,56.79742328505251L55.815168489583336,56.408164521122096L55.915107552083334,56.175804564487585L56.16495520833333,55.769158009607935L56.414802864583336,55.29969204278159L56.514741927083335,54.81284134846953L57.114376302083336,54.48878551812213L57.46416302083333,54.2228035566737L57.51413255208333,53.93520549107002L57.61407161458333,53.66296311197197L57.71401067708333,53.38003587652548L57.76398020833333,53.112499182385754L57.86391927083333,52.83235991966503L58.46355364583333,52.55436218708486L58.613462239583335,52.24275623014539L58.81334036458333,51.89543765166425L58.96324895833333,51.594311861236L59.11315755208334,51.29715423460587L59.313035677083334,51.13870226800116L59.363005208333334,50.94114342933868L59.56288333333333,50.75235593296968L59.812730989583336,50.57611424386567L59.862700520833336,50.38622766892514L60.36239583333333,50.130163391364476L60.56227395833333,49.88739501290753L60.71218255208333,49.67925107422905L61.11193880208333,49.45902094646971L61.311816927083335,49.242211333369326L61.46172552083333,48.92854101684411L61.51169505208333,48.69172589147586L61.56166458333333,48.45855909249381L61.911451302083336,48.21993484462703L62.21126848958333,47.99976765686746L62.31120755208333,47.76801589826152L62.36117708333334,47.57898781517089L62.561055208333336,47.430297075806926L62.760933333333334,47.33349424450048L62.91084192708334,47.22455391386862L62.96081145833334,47.07456974753495L63.01078098958334,46.91106673553236L63.21065911458333,46.749564792021935L63.66038489583333,46.52933740366209L63.86026302083333,46.246902508042005L63.91023255208333,45.95453748921477L63.96020208333333,45.66208930260108L64.06014114583333,45.40864021391246L64.11011067708333,45.1442839187901L64.40992786458334,44.840384001416936L64.60980598958334,44.52870308135879L64.65977552083334,44.18651028969461L64.75971458333333,43.868108497720954L64.85965364583333,43.52468760519246L65.00956223958333,43.10279380098209L65.05953177083333,42.676121705585395L65.10950130208333,42.25969214511478L65.15947083333333,41.8366137535835L65.30937942708333,41.438990430368584L65.50925755208334,41.06210169207546L65.75910520833334,40.662606877853705L65.80907473958334,40.255034036052756L65.85904427083334,39.87755975766129L66.15886145833333,39.58411617733171L67.00834348958332,39.42331441818636L67.20822161458334,39.249642758409934L67.30816067708334,39.10229210318596L67.55800833333333,39.006096676754694L68.75727708333334,38.99381020285807L68.85721614583333,38.98608921995538L69.10706380208333,38.9211748753425L69.20700286458333,38.88483992353944L69.40688098958333,38.76380840759011L69.50682005208333,38.63634802599965L69.90657630208334,38.50327824371111L70.20639348958333,38.4481320912494L70.40627161458333,38.38937196091248L70.75605833333333,38.298967160795584L70.85599739583334,38.18447610047254L71.15581458333334,37.99456697230451L71.25575364583334,37.80216715512078L71.40566223958334,37.606936122632014L71.45563177083334,37.405963646936414L71.55557083333333,37.20277399191829L71.95532708333333,36.97924346663923L72.00529661458333,36.76323418205494L72.15520520833333,36.57309503810601L72.50499192708332,36.37576104465806L72.65490052083334,36.188081814036906L73.10462630208333,35.93909849344696L73.30450442708333,35.6279635027077L73.45441302083333,35.3787507527356L73.50438255208333,35.15454628449014L73.95410833333334,34.90341943384295L74.00407786458334,34.72843478799204L74.20395598958333,34.531657927930326L74.25392552083333,34.34834639806704L74.30389505208333,34.17479814271238L74.35386458333333,34.00302637264179L74.55374270833333,33.83412756538043L74.60371223958333,33.6774642039176L74.75362083333333,33.483548614745736L74.80359036458333,33.29386585935283L75.20334661458332,33.011015790717146L75.40322473958334,32.80153655244451L75.50316380208334,32.598182614048326L75.60310286458333,32.38447904798209L75.65307239583333,32.162886192961935L76.10279817708333,32.015486475540015L76.25270677083333,31.91069144220002L76.65246302083332,31.80500840284518L76.75240208333332,31.72270052468748L76.95228020833332,31.675599281570037L77.00224973958333,31.627032449105517L77.25209739583333,31.57864716228909L77.60188411458334,31.551114505860514L78.15154895833334,31.58164821721558L78.25148802083334,31.624685779070493L78.55130520833333,31.648033647709553L78.70121380208334,31.63459617312102L78.80115286458334,31.6249540975492L79.00103098958334,31.58238872798436L79.20090911458333,31.509528367702963L79.30084817708332,31.40611668811545L79.55069583333334,31.190442183115657L79.60066536458332,30.969560692306594L79.65063489583333,30.759139399135616L80.05039114583333,30.444385060416746L80.35020833333334,30.11805249847931L80.55008645833334,29.793358661268314L80.60005598958332,29.484324225607143L80.65002552083334,29.18260609077859L81.09975130208333,28.929577882294897L81.34959895833335,28.655882856433028L82.04917239583332,28.40900872718116L82.14911145833332,28.209895300659987L83.14850208333333,28.179064783968748L83.19847161458334,28.152432217972255L83.39834973958334,28.163060727102682L83.44831927083332,28.16681645082229L83.49828880208334,28.171968895500097L84.39774036458334,28.163348485576744L84.64758802083334,28.108068896632737L84.99737473958332,28.021127225789606L85.04734427083334,27.93349731831283L85.34716145833333,27.8100711982075L85.44710052083333,27.680487694129578L85.69694817708333,27.53752915585504L85.79688723958333,27.388952815008697L86.09670442708332,27.248487406857457L86.99615598958333,27.12983212799891L87.09609505208333,27.03579907068966L87.19603411458333,26.9317682298564L87.59579036458334,26.880707068509984L87.74569895833332,26.84520397602748L88.14545520833333,26.88093515530699L88.29536380208333,26.91780503648098L88.44527239583333,26.978618629898527L89.09487630208334,27.04322045802275L89.44466302083333,27.08118349149059L89.74448020833333,27.12671703614381L89.94435833333333,27.169815496194474L90.04429739583333,27.194035168141134L90.09426692708334,27.20767469644207L90.39408411458334,27.18160172464634L90.89377942708333,27.146894475999133L91.14362708333333,27.06969429936794L91.19359661458333,26.98636372916673L91.34350520833334,26.87912741233185L91.64332239583334,26.778473443978335L91.74326145833334,26.68357815048326L91.89317005208333,26.6092428393025L92.04307864583333,26.561405303294997L92.19298723958333,26.52215210730059L92.24295677083335,26.487930665372975L93.14240833333334,26.468876753950223L93.89195130208333,26.488576751535447L94.64149427083333,26.536253616584524L94.79140286458333,26.563743418586096L94.84137239583333,26.58212400958665L94.94131145833333,26.593574759176985L94.99128098958334,26.613530264357298L96.04064114583333,26.578708667122978L96.09061067708335,26.544136523349113L96.34045833333333,26.5074342388253L96.49036692708333,26.477596713121038L96.69024505208333,26.443623669641394L96.79018411458333,26.418535359228915L96.99006223958332,26.36227741861686L97.18994036458332,26.28989700345837L97.38981848958333,26.216612800584542L98.63905677083334,26.097806234562825L98.68902630208333,25.98152348252377L99.23869114583333,25.856411639235695L99.63844739583332,25.729123968443748L99.68841692708334,25.602254520022186L99.83832552083332,25.485072090898477L99.93826458333332,25.380772252346127L99.98823411458334,25.288832121572018L100.43795989583333,25.222770881362607L100.78774661458334,25.16241198333398L101.53728958333333,25.212575524493058L101.58725911458335,25.280309586853416L101.73716770833333,25.362017357112748L102.08695442708333,25.451250913116155L102.68658880208332,25.571617222679468L102.93643645833333,25.682472743418824L102.98640598958333,25.79259576601068L103.08634505208333,25.898511026981524L103.43613177083334,26.047537931975036L103.78591848958332,26.1806780127539L103.83588802083334,26.30680773291356L104.28561380208333,26.38671077273182L104.48549192708333,26.460835336086067L104.58543098958333,26.540222935909053L104.78530911458333,26.601294610291625L105.23503489583332,26.673893844978014L105.58482161458333,26.74225701045063L105.63479114583333,26.832563187828853L105.88463880208333,26.909997870907542L106.28439505208334,26.961439988366045L106.73412083333334,26.9799867952133L106.78409036458334,27.011817681047066L106.98396848958333,27.020537380394913L107.23381614583333,27.031023504835908L107.38372473958334,27.015551935465282L107.48366380208334,26.97427326745738L107.63357239583333,26.912810262934713L107.78348098958334,26.845344308191933L107.98335911458332,26.762239371613944L108.38311536458333,26.60250790606213L108.78287161458333,26.42062899208332L108.98274973958333,26.226072405900407L109.13265833333334,26.025738336647173L109.18262786458332,25.835117528884197L109.48244505208334,25.619254940162143L109.53241458333333,25.404224831777128L109.93217083333334,25.177946583190636L110.13204895833334,24.96221650447152L110.18201848958333,24.75700576994709L110.23198802083334,24.544380224151105L110.33192708333334,24.319004632559746L110.48183567708334,24.10306088276292L110.83162239583332,23.915905471479437L110.88159192708333,23.719341031707987L111.28134817708333,23.52752445051384L111.33131770833333,23.358271258410827L111.78104348958334,23.13974504988552L111.98092161458334,22.922833278952005L112.08086067708334,22.735318271031794L112.23076927083333,22.54338575064002L112.48061692708333,22.372310470594847L112.53058645833333,22.22424633509009L112.63052552083333,22.08555036452824L112.68049505208334,21.942132058320944L112.73046458333333,21.808965034923354L112.98031223958334,21.7054266027883L113.67988567708332,21.61452350329017L114.12961145833333,21.528463271026656L114.42942864583334,21.461959222536706L114.77921536458332,21.41951894213682L114.82918489583334,21.38060241912682L115.27891067708333,21.350289941938588L115.62869739583334,21.318175382964192L116.07842317708334,21.255836298380558L116.22833177083334,21.190868754171213L116.57811848958333,21.164450007809318L116.67805755208333,21.140317423180164L116.87793567708333,21.137822722985934L117.37763098958334,21.135439223485424L117.42760052083332,21.144736819484823L117.57750911458334,21.155367896549482L117.82735677083333,21.08844865607302L118.02723489583333,21.02708115083001L118.67683880208334,20.909847681682013L118.77677786458334,20.779115455332487L118.82674739583334,20.64749060623287L119.12656458333333,20.544899979430163L119.17653411458335,20.439553642549594L119.22650364583333,20.334772729774684L119.32644270833333,20.204609528908385L120.02601614583334,20.088672366859218L120.92546770833334,20.064347866672485L121.22528489583334,20.02614056796703L121.57507161458334,20.015530853031L121.87488880208333,19.969545614738703L122.07476692708333,19.887351077202418L122.17470598958333,19.784505463300878L122.27464505208333,19.701376011993215L122.57446223958334,19.57441226260024L122.72437083333332,19.452013421499885L122.82430989583332,19.321271893015197L122.97421848958334,19.18789175186458L123.12412708333333,19.03746731265988L123.27403567708333,18.889177554696868L123.72376145833333,18.711881221420043L123.82370052083333,18.539979107220766L124.42333489583334,18.36529549046254L124.47330442708333,18.184902927375205L124.52327395833333,18.00430521726577L125.22284739583333,17.910811015492385L125.42272552083334,17.828510164001507L125.62260364583334,17.752178133044694L125.82248177083333,17.647404374389748L125.87245130208333,17.548856244088928L126.02235989583333,17.44394454535794L126.12229895833333,17.348258369651564L126.22223802083333,17.260690167788905L126.62199427083334,17.176830609265483L126.72193333333334,17.079668211473205L126.87184192708332,16.978941528074728L127.02175052083334,16.864027301223704L127.17165911458333,16.770355986050937L127.27159817708333,16.676672015900206L127.42150677083335,16.606636659203794L127.57141536458333,16.53957452426296L128.37092786458334,16.518798852161165L128.72071458333332,16.521333523733993L128.97056223958333,16.491572463796686L129.02053177083332,16.46171106799228L129.07050130208333,16.43774839899885L129.17044036458333,16.42428461865095L129.22040989583334,16.402766859678973L129.32034895833334,16.378936637339525L129.42028802083334,16.36364143425099L129.62016614583334,16.34819279100034L129.82004427083334,16.32847633372846L130.06989192708335,16.330301432101578L130.16983098958335,16.336310041691252L130.51961770833333,16.356455616016923L130.61955677083333,16.37342689631834L130.66952630208334,16.386178479177303L130.91937395833332,16.403188059040495L131.11925208333332,16.42615706605618L131.36909973958333,16.453796883620214L131.46903880208333,16.496138376894194L131.51900833333335,16.531488863899163L132.01870364583334,16.630206965438973L132.06867317708333,16.728465122957367L132.26855130208332,16.816793447494447L132.41845989583334,16.882181987987718L132.56836848958332,16.994709070464566L132.61833802083333,17.1067164887477L132.76824661458332,17.219823818720407L132.81821614583333,17.32583023892891L132.91815520833333,17.432572837681015L133.16800286458334,17.50754974130683L133.21797239583333,17.584406958929396L133.56775911458334,17.638568762849008L133.61772864583335,17.698489291992853L133.81760677083332,17.760864105706297L133.91754583333332,17.827542842504414L134.01748489583332,17.863882846372814L134.21736302083332,17.906840817182808L134.71705833333334,17.968825125310058L134.81699739583334,18.02633895822303L134.91693645833334,18.080141383907836L134.96690598958332,18.125873449970374L135.16678411458335,18.178726464676302L135.31669270833333,18.248409721365476L135.71644895833333,18.280067141380222L135.91632708333333,18.29739944295859L136.61590052083332,18.353904294428272L136.81577864583335,18.398657518849387L136.91571770833335,18.45368943028313L137.16556536458333,18.506301460016456L137.21553489583334,18.55648321237295L137.31547395833334,18.597506236839855L137.41541302083334,18.6339347296692L137.46538255208333,18.670797629964166L137.56532161458333,18.694409102530464L137.66526067708332,18.70724932286387L137.71523020833334,18.724312321386822L138.06501692708332,18.74239887214588L138.21492552083333,18.767652644246198L138.46477317708332,18.82263559062792L139.06440755208334,18.880986523948053L139.26428567708334,18.938536290839977L139.41419427083335,18.982787371402726L139.91388958333332,19.028676180770802L140.21370677083334,19.076607268844988L140.26367630208333,19.12689521510191L140.36361536458332,19.18499503187865L140.51352395833334,19.241643406503314L140.66343255208335,19.309701848609894L140.71340208333334,19.375725820580765L140.76337161458335,19.438549509575154L141.26306692708334,19.52179763375357L141.31303645833333,19.6106213288896L141.36300598958334,19.70378139487L141.46294505208334,19.79068518116313L142.06257942708334,19.871452260474552L142.11254895833332,19.946678881429456L142.16251848958333,20.019084770375773L142.21248802083332,20.091816376258958L142.61224427083334,20.181801481039617L143.06197005208332,20.29482498903294L143.91145208333333,20.394611961546797L144.61102552083335,20.509987788244L144.81090364583335,20.612490998573694L144.86087317708333,20.720682225002385L144.96081223958333,20.837404976777343L145.36056848958333,20.96219497322583L145.46050755208333,21.08163616163876L145.66038567708333,21.200351880886004L146.16008098958335,21.304369022830222L146.55983723958335,21.39627637353773L146.60980677083333,21.49127114394031L147.15947161458334,21.544792637373302L147.55922786458333,21.592620375049375L147.85904505208333,21.623924624466238L147.90901458333335,21.65044456982555L148.00895364583334,21.688236417723587L148.10889270833334,21.718964326863905L148.35874036458333,21.740276555288823L149.30816145833333,21.76893261203608L149.60797864583333,21.82216454065384L149.65794817708334,21.874333095663186L150.15764348958334,21.969604696407988L150.25758255208333,22.062466008783417L150.40749114583335,22.141423579315642L150.45746067708336,22.219430799979484L150.50743020833332,22.302809433914703L151.00712552083334,22.398499072184226L151.05709505208333,22.491758237849904L151.20700364583334,22.58733480826049L151.50682083333334,22.676899689427284L151.75666848958335,22.774006213508276L151.85660755208332,22.874595812158088L151.95654661458335,22.97827345106997L152.05648567708332,23.07279600957285L152.50621145833333,23.15932334376586L152.70608958333332,23.219001846149094L152.90596770833332,23.267890905729015L153.00590677083335,23.307554540157824L153.15581536458333,23.34721350398834L153.60554114583334,23.401671490306974L153.65551067708333,23.459912429180726L153.85538880208333,23.512779811778525L154.15520598958335,23.56511083804606L154.25514505208332,23.615166002349383L154.85477942708332,23.653396344735448L154.90474895833333,23.690261107108874L154.95471848958334,23.714555916655755L155.00468802083333,23.731913103664475L155.15459661458334,23.753210192551887L155.35447473958334,23.761201791097207L155.65429192708334,23.79028545039711L155.70426145833335,23.824041350442638L155.85417005208333,23.854859877484664L156.25392630208333,23.85414217932419L156.50377395833334,23.818273080075848L156.65368255208332,23.76146684677171L156.80359114583334,23.69028683299713L156.85356067708332,23.61796258464251L157.15337786458332,23.534974798563194L157.25331692708335,23.458658060078296L157.55313411458332,23.377354062183723L157.70304270833336,23.305627773414482L157.85295130208334,23.23106282833577L157.90292083333335,23.16027314915162L158.10279895833335,23.086844274186685L159.05222005208333,23.01782143803273L159.25209817708335,22.94345819160149L159.35203723958332,22.879106745291054L159.60188489583334,22.859726471139567L159.85173255208335,22.84559163809564L160.50133645833333,22.873794418372487L160.70121458333332,22.88000518736524L160.85112317708334,22.895446618789606L161.60066614583334,22.905559156925158L162.15033098958332,22.933712965032296L162.20030052083334,22.970086657204433L162.35020911458332,23.00647804655758L162.65002630208332,23.03260074707898L162.99981302083333,23.07403407207409L163.04978255208331,23.115547098803383L163.09975208333333,23.154878867983186L163.14972161458334,23.170594936879294L163.19969114583336,23.18654980203386L163.2496606770833,23.196856658788573L163.6494169270833,23.21541264481492L164.79871614583334,23.242280712811294L164.84868567708332,23.273013915225366L164.89865520833334,23.30479440084636L165.24844192708332,23.304935635533162L165.79810677083333,23.275544301922935L165.89804583333333,23.25266883541864L166.49768020833335,23.2459397780032L166.54764973958333,23.242892246424468L166.69755833333335,23.234611711214306L166.79749739583332,23.209306822638368L166.84746692708333,23.190717148611554L166.94740598958336,23.18393240910507L167.89682708333333,23.170280624597886L168.14667473958335,23.181552942704755L168.29658333333333,23.201575438818548L168.44649192708334,23.230506212499876L168.89621770833335,23.243387990559285L168.9461872395833,23.25788264176215L169.24600442708334,23.276400717608865L169.3459434895833,23.30214170105349L169.39591302083332,23.329728697134477L169.69573020833334,23.352510448029832L169.84563880208333,23.388794388636278L170.14545598958333,23.42190949099214L170.24539505208335,23.464083903815723L170.34533411458332,23.514386938233876L170.49524270833334,23.567619986052136L170.94496848958332,23.62921235151277L171.19481614583333,23.69360528394778L171.29475520833333,23.76420187459144L171.3447247395833,23.837040920018353L171.39469427083333,23.900136435879823L171.94435911458334,23.985624748535056L172.44405442708336,24.070007527192292L172.84381067708335,24.165393425198413L173.69329270833333,24.240571250038215L174.04307942708334,24.30447153530156L174.09304895833333,24.360634362121115L174.2429575520833,24.41640642847906L174.74265286458333,24.454022445416165L175.04247005208333,24.494687048299866L175.24234817708333,24.53045460360731L175.49219583333334,24.570525819888772L175.59213489583334,24.604834982827246L175.69207395833334,24.636758082603162L175.79201302083334,24.677347197875008L175.89195208333334,24.713607683192883L176.09183020833333,24.7665610090809L176.14179973958335,24.8193402084462L176.29170833333333,24.876762873435336L176.59152552083336,24.937275421663447L176.69146458333333,25.00281467385002L176.8413731770833,25.057715093063972L177.24112942708334,25.101711409026723L177.34106848958334,25.14164249530165L177.39103802083332,25.18548061715875L177.44100755208333,25.23346995110043L177.84076380208333,25.282634390591074L178.5903067708333,25.33594953100592L178.69024583333334,25.367621548041747L178.79018489583333,25.397053920549574L178.89012395833333,25.428964277984086L178.99006302083333,25.462834192429483L179.43978880208334,25.49826196523642L179.63966692708334,25.532539135508742L180.28927083333335,25.595222465855027L180.48914895833335,25.65548895763497L181.43857005208335,25.69775992777398L182.18811302083333,25.737821587216512L182.23808255208334,25.775293869143105L182.53789973958334,25.806045744719174L182.58786927083332,25.83434126251502L182.68780833333335,25.872455842697768L182.83771692708333,25.905785539644764L183.08756458333332,25.949164809499134L183.23747317708333,25.994822546927825L183.28744270833332,26.044818557657308L183.38738177083334,26.10084988360827L184.18689427083333,26.137945656566725L184.53668098958332,26.167719921082096L184.73655911458334,26.176256398370356L185.08634583333333,26.193038942114455L185.13631536458334,26.209768951584795L185.48610208333332,26.213419629931003L185.6360106770833,26.215496259312026L186.83527942708332,26.181914371538646L186.98518802083333,26.139894553142966L187.33497473958334,26.082324524389076L187.48488333333333,26.02272072121638L187.53485286458334,25.960152241227885L187.6347919270833,25.92320710690433L187.68476145833333,25.88902932535995L188.03454817708334,25.85568156620085L188.13448723958334,25.821583377157214L188.68415208333334,25.77832274490941L188.93399973958336,25.74869128546599L189.3837255208333,25.733453505813127L189.48366458333334,25.714985778060562L189.5836036458333,25.694507259937865L189.78348177083333,25.674879124611703L189.93339036458335,25.657743983818285L190.58299427083332,25.639895574274746L190.63296380208334,25.62319391373637L190.68293333333335,25.601781298241303L190.98275052083332,25.588513870289074L191.38250677083332,25.596794533340464L191.68232395833334,25.600540882300834L191.73229348958333,25.604411132976004L191.7822630208333,25.608030815620918L191.98214114583334,25.604701272629907L192.23198880208332,25.604377325929825L192.58177552083333,25.61804915564688L192.98153177083333,25.618131682018223L193.18140989583333,25.62924257101223L193.38128802083332,25.630176121794833L193.48122708333335,25.635789775183117L193.78104427083332,25.647519545497214L193.93095286458333,25.648569530364558L194.03089192708333,25.64746734355714L194.13083098958333,25.65359024895628L194.23077005208333,25.65268045102754L194.38067864583334,25.650103834174757L194.63052630208335,25.659983859657974L195.23016067708335,25.683940212735944L195.48000833333333,25.713698026289862L195.72985598958334,25.771791843653574L196.62930755208336,25.849229738334127L196.82918567708336,25.931006744644332L196.97909427083334,26.010183729215516L197.22894192708333,26.096739643831274L197.52875911458332,26.174873760842306L197.57872864583334,26.251159949663073L197.77860677083333,26.328302693306846L197.87854583333333,26.405937858678406L198.17836302083333,26.490672060988594L198.22833255208332,26.577072430935008L198.52814973958334,26.667012579345595L198.87793645833332,26.767050504339522L199.17775364583335,26.863593656097045L199.32766223958333,26.9576051175786L199.62747942708333,27.0361925853729L200.1771442708333,27.118090698816154L200.27708333333334,27.188618549000388L200.62687005208332,27.252752729602978L200.77677864583333,27.31301940625591L200.92668723958334,27.37346178302234L201.02662630208332,27.440400075659532L201.27647395833333,27.489779124338508L202.07598645833335,27.516928678874006L202.17592552083332,27.54485054919554L202.22589505208333,27.573542113966603L202.42577317708333,27.599346224846087L202.47574270833334,27.628766034301954L202.67562083333334,27.643928138955317L202.7755598958333,27.65867957964532L203.07537708333334,27.672071470243473L203.12534661458332,27.68234320044696L203.47513333333333,27.706570793081404L204.07476770833335,27.728114256615864L204.3246153645833,27.759467372006945L204.47452395833335,27.795587049469574L204.92424973958333,27.82376651296246L204.97421927083334,27.850779339101088L205.27403645833334,27.87253839849358L205.32400598958333,27.899919969999928L206.02357942708335,27.931092430000966L206.22345755208335,27.9612253197828L206.32339661458332,27.993213236980736L206.42333567708334,28.021962168927175L206.57324427083333,28.052881106794125L206.72315286458334,28.08307832615362L207.17287864583335,28.128336663140313L207.47269583333332,28.18017039745656L207.57263489583335,28.228388354766363L208.12229973958333,28.292894103897353L208.17226927083334,28.35722096026327L208.47208645833334,28.43110246391797L208.82187317708332,28.520012414872948L210.02114192708333,28.593821467980845L210.17105052083335,28.65121730700243L210.32095911458333,28.70427769867606L210.42089817708333,28.75670860265203L211.47025833333333,28.787331662404984L211.62016692708332,28.826033603437576L211.82004505208332,28.860225375310723L211.87001458333333,28.899645556263195L211.91998411458334,28.94093802699905L212.21980130208334,28.990500864118594L212.36970989583332,29.043946216379492L212.46964895833332,29.091372314914977L212.91937473958333,29.1090558945635L213.11925286458336,29.137513897883245L213.26916145833334,29.16111060955446L213.51900911458335,29.16045912779996L213.91876536458335,29.139973513421744L214.11864348958335,29.114104566889505L214.21858255208332,29.086398531324708L214.31852161458335,29.059715956315515L214.96812552083333,29.01460291249346L215.06806458333335,28.972358105320563L215.21797317708334,28.936146862078058L215.81760755208333,28.945503780468734L216.01748567708333,28.960892478934568L216.26733333333334,28.95605158214294L216.36727239583334,28.958940326839276L216.86696770833336,29.00538559289042L216.96690677083333,29.06269683904871L217.06684583333336,29.12315080587961L217.71644973958334,29.16970957290498L218.01626692708334,29.20875566125218L218.51596223958333,29.23173049903331L218.76580989583334,29.223242079036087L219.11559661458332,29.191840579768588L219.2655052083333,29.16783793747528L219.36544427083334,29.15099132703493L220.36483489583335,29.09950921604557L220.4148044270833,29.050449015124478L220.46477395833332,28.999345252353365L220.71462161458334,28.96000129165974L220.8145606770833,28.937798802805094L221.11437786458333,28.914396319436076L221.31425598958333,28.882347622615825L221.71401223958333,28.852153359706804L221.76398177083334,28.823216546142362L222.01382942708332,28.830178344304077L222.06379895833334,28.83209789301991L222.26367708333333,28.81988733920825L222.81334192708331,28.768617881773338L223.11315911458334,28.722360410661427L223.41297630208334,28.68970317954515L223.56288489583332,28.66422694503379L224.11254973958336,28.6363940665482L224.31242786458336,28.604642678255516L224.51230598958335,28.59364376094833L224.61224505208332,28.56912170442451L224.86209270833334,28.542852498037856L225.06197083333333,28.537769292596256L225.31181848958335,28.564545481419415L225.56166614583333,28.60179929300929L225.76154427083333,28.632843290399123L225.81151380208334,28.66416194996636L225.91145286458334,28.695407166922926L226.36117864583332,28.718346382589583L226.41114817708333,28.74122674974868L226.96081302083334,28.773616192147312L227.06075208333334,28.810213805038654L227.11072161458333,28.84843758837154L227.46050833333334,28.90394370643314L227.56044739583334,28.96066842679L227.61041692708335,29.018022305876116L227.66038645833333,29.076317967144952L227.71035598958332,29.13569016201738L227.91023411458332,29.182684089325747L228.01017317708335,29.226977145567812L229.10950286458333,29.277595051057933L229.25941145833332,29.326489178463977L229.95898489583334,29.36452992074391L230.20883255208335,29.38147655662332L230.2588020833333,29.398375649841178L230.35874114583333,29.415444819814866L230.75849739583333,29.400111005499202L231.00834505208334,29.400092955479543L231.35813177083335,29.393744189506155L232.75727864583334,29.40980897583553L233.10706536458335,29.426098409277188L233.65673020833333,29.441914584753444L233.90657786458334,29.457905945237297L234.35630364583335,29.46947468546798L234.40627317708334,29.48378910792011L234.90596848958333,29.486083094325267L234.95593802083332,29.477773844072992L235.00590755208333,29.474004411793096L235.10584661458336,29.47239691747941L235.20578567708333,29.474081064497813L235.30572473958335,29.471726509409056L235.3556942708333,29.47273529648256L235.40566380208332,29.473121540931793L235.50560286458335,29.482134328996732L236.40505442708334,29.51316370747671L236.65490208333333,29.551154040220613L236.90474973958334,29.58216470964552L237.05465833333335,29.62036958113756L237.20456692708333,29.655980899252942L237.45441458333335,29.67744871479856L238.00407942708333,29.719523631377392L238.45380520833334,29.74791042944136L238.60371380208335,29.77562068965391L238.65368333333333,29.806556867435244L239.10340911458331,29.842132243016714L239.40322630208334,29.866020516903006L240.15276927083335,29.850262472503363L240.20273880208333,29.833572403836673L240.50255598958333,29.813482011856255L240.70243411458333,29.787659526391284L240.8523427083333,29.76257725946348L241.15215989583334,29.711803740406694L241.2520989583333,29.665441892295178L241.70182473958332,29.580737355499085L241.90170286458334,29.4804235365934L242.20152005208334,29.382771775490546L242.45136770833332,29.295550810654326L242.75118489583335,29.224706692040137L242.95106302083335,29.15762759297809L243.20091067708336,29.10416056202562L243.55069739583334,29.043178821410876L243.75057552083334,28.960112872487898L244.20030130208332,28.912016949457435L244.35020989583333,28.876163056667767L244.94984427083335,28.87008603103873L245.29963098958333,28.864958138076048L245.44953958333332,28.85971608702645L245.54947864583335,28.852239371555857L245.59944817708333,28.845140546674507L245.79932630208333,28.833213921324475L245.84929583333334,28.819577520263177L245.89926536458333,28.806497139076704L246.49889973958335,28.815939122078696L246.79871692708332,28.84519010848784L246.84868645833333,28.868800749883L246.94862552083333,28.897116957719362L247.19847317708332,28.916827177368813L247.24844270833333,28.934865548018706L247.39835130208334,28.934876786797805L247.69816848958334,28.932613974969964L247.89804661458334,28.946364244410447L248.24783333333335,28.95342375601533L248.7475286458333,28.966104665305245L249.04734583333334,28.993209477603965L249.24722395833334,29.016675290528784L249.39713255208332,29.041576136149803L249.79688880208334,29.079789192408416L249.89682786458332,29.117437183021188L250.54643177083332,29.17035122136986L250.74630989583332,29.213144702031375L250.79627942708333,29.25797059405121L251.74570052083334,29.252233737671006L251.79567005208335,29.235926560065735L251.94557864583334,29.205368704841003L252.29536536458332,29.15155196467245L252.39530442708335,29.09367934095142L252.79506067708334,29.018059943654837L252.89499973958334,28.939287408145372L252.94496927083333,28.859833372228678L253.59457317708333,28.807519253019652L253.69451223958333,28.752418521370373L253.74448177083335,28.694197930618383L254.19420755208336,28.669554261924482L254.34411614583334,28.642458134025798L254.4440552083333,28.61957349379513L254.89378098958332,28.61248958308324L255.04368958333333,28.615091667437092L255.14362864583333,28.61817409745519L255.24356770833333,28.615979638712442L255.84320208333332,28.648557689190685L256.69268411458336,28.684232491364288L256.94253177083334,28.70544244903179L257.4422270833333,28.713058409992005L257.74204427083333,28.72252725197564L258.09183098958334,28.73217264842461L258.3916481770833,28.732071343296578L258.49158723958334,28.734926042218603L258.69146536458334,28.73009677936573L259.04125208333335,28.718284549942428L259.09122161458333,28.70361569862625L259.1411911458333,28.68913416268464L259.64088645833334,28.645840299177962L260.44039895833333,28.606718557378333L260.6902466145833,28.569518063151065L260.9400942708333,28.54153683463996L261.18994192708334,28.519067986185192L261.2399114583333,28.49246913999821L261.33985052083335,28.48231584025006L261.4897591145833,28.473028833784745L261.98945442708333,28.464789528156285L262.18933255208333,28.459184077411944L262.23930208333337,28.451201836450533L262.53911927083334,28.466611276153905L262.73899739583334,28.475013580125193L262.7889669270833,28.48808304104574L263.1887231770833,28.5088436923021L263.28866223958335,28.522244756008988L263.33863177083333,28.530994234163256L263.3886013020833,28.540531363343444L263.48854036458334,28.55262068605943L263.6384489583333,28.556948375242573L263.68841848958334,28.560167342784816L263.7383880208333,28.559331427915023L263.78835755208337,28.55840398430012L263.98823567708337,28.562165395735743L264.08817473958334,28.57529997111491L264.2380833333333,28.57461478216759L264.28805286458334,28.572987592991247L264.3380223958333,28.571364010927855L264.38799192708336,28.56971820502974L264.48793098958333,28.571889752322495L264.63783958333335,28.563809266128963L264.68780911458333,28.55538656780085L264.98762630208336,28.539076574769332L265.2874434895833,28.532999172224116L265.38738255208335,28.526624968065708L265.53729114583336,28.510102726571724L266.13692552083336,28.505604421894493L266.53668177083335,28.51155616150191L266.58665130208334,28.51696807893564L266.6366208333333,28.527087332349836L266.93643802083335,28.537195241533112L267.28622473958336,28.554634692614034L267.53607239583334,28.576670040688846L267.88585911458335,28.616086361596498L268.08573723958335,28.64126886970368L268.33558489583334,28.662751974347866L268.53546302083333,28.673553480542502L268.83528020833336,28.67083079432888L268.93521927083333,28.641491137712926L269.08512786458334,28.58798105566565L269.43491458333335,28.533237473824563L269.7347317708333,28.472531222929828L269.88464036458333,28.411044066915814L269.9845794270833,28.340284055969494L270.03454895833335,28.27056189378064L270.28439661458333,28.181058963801163" style="fill: none;" fill="none"></path></g></g></g></g><g opacity="0.2"><g><g><g><path stroke="rgb(238, 51, 119)" stroke-width="2px" d="M25.683541145833335,152.57142857142858L26.333145052083335,152.57142857142858L26.632962239583332,142.56831778798784L27.432474739583334,145.64619779586792L27.532413802083333,145.98401437486922L27.682322395833335,146.4331558729921L27.782261458333334,146.63551669461387L28.08207864583333,147.16974853617805L28.231987239583333,147.16974853617805L28.981530208333336,147.16974853617805L29.131438802083334,147.16974853617805L29.38128645833333,147.16974853617805L29.78104270833333,144.94447177648544L30.130829427083334,144.94447177648544L30.530585677083334,142.33384730986185L30.680494270833336,136.6662233386721L30.730463802083335,131.4550429412297L31.08025052083333,124.6520926611764L31.330098177083332,121.35848256519861L31.729854427083335,105.48498950685773L32.37945833333333,93.67563826697213L32.92912317708333,91.2174241202218L33.17897083333333,76.06191784994942L33.328879427083336,74.8740337235587L33.77860520833333,82.29433393478394L33.82857473958333,82.29433393478394L34.32827005208333,80.84803567613874L34.57811770833333,92.78138617106848L34.67805677083334,96.72152873447962L34.728026302083336,96.72152873447962L34.927904427083334,105.64676206452506L35.32766067708333,104.33179279736109L35.72741692708333,102.5220936025892L35.77738645833333,102.5220936025892L36.02723411458334,91.74643223626273L36.57689895833333,105.60278970854623L36.876716145833335,108.77445578575134L37.12656380208333,102.74637201854162L37.27647239583333,111.94333607809884L37.87610677083333,80.2074385370527L38.17592395833333,84.78053324563163L38.42577161458333,86.11275679724557L38.775558333333336,83.43967648914882L38.975436458333334,85.34311022077289L39.07537552083333,81.87071881975446L40.02479661458334,53.78207145418439L40.27464427083333,53.46380083901541L40.32461380208333,49.43129389626639L40.57446145833333,37.885049274989534L40.82430911458333,48.83397797175815L40.92424817708333,48.22385774339948L41.32400442708333,40.66448048182895L41.37397395833333,39.033471652439665L41.723760677083334,22.492893763950896L41.92363880208333,8.179197720118928L42.373364583333334,-5.24134962899346L42.77312083333334,4.942424910409116L43.57263333333333,17.38116346086774L43.772511458333334,20.656324931553435L44.07232864583333,25.9917425428118L44.272206770833336,31.964756284441258L44.372145833333335,33.062313079833984L46.470866145833334,26.797128404889797L46.52083567708333,21.46122578212192L46.62077473958333,24.93987383161273L46.92059192708333,8.773894582475926L47.37031770833333,-8.495716231209897L47.96995208333333,-7.998130798339844L48.419677864583335,9.057844570704866L48.56958645833334,10.515643664768767L48.61955598958334,14.580961636134553L49.11925130208333,7.8945323399135106L49.96873333333333,22.31174196515765L50.06867239583333,27.57914883749826L50.76824583333333,28.972768783569336L51.018093489583336,23.8724968773978L51.118032552083335,22.780117579868865L51.26794114583333,15.608567646571565L51.66769739583333,16.423192977905273L51.96751458333333,20.036552974155974L52.06745364583333,23.110774176461362L52.21736223958333,19.269992283412385L52.517179427083335,0.7909931455339676L52.76702708333333,3.89318738664899L53.266722395833334,-9.430806296212339L55.06562552083333,-6.758332252502441L55.51535130208333,19.970264026096892L55.815168489583336,19.38473388126919L55.915107552083334,33.86540726252964L56.16495520833333,16.357170786176418L56.414802864583336,9.375781740461086L56.514741927083335,6.749589920043945L57.114376302083336,22.205354690551758L57.46416302083333,27.485650743756985L57.51413255208333,24.766748973301482L57.61407161458333,25.80753517150879L57.71401067708333,24.177653993879055L57.76398020833333,25.25899927956717L57.86391927083333,23.416101046970915L58.46355364583333,23.11444813864572L58.613462239583335,18.96544143131802L58.81334036458333,14.494387081691194L58.96324895833333,18.89914035797119L59.11315755208334,18.76823575156076L59.313035677083334,33.65251146044049L59.363005208333334,28.963699068341946L59.56288333333333,29.583083016531802L59.812730989583336,30.657335008893703L59.862700520833336,28.757072040012908L60.36239583333333,20.736351830618716L60.56227395833333,21.805171694074367L60.71218255208333,25.418349811009L61.11193880208333,23.59503391810825L61.311816927083335,23.588801520211362L61.46172552083333,11.538108553205227L61.51169505208333,20.254311016627717L61.56166458333333,20.254311016627717L61.911451302083336,19.146023341587615L62.21126848958333,20.981537273951936L62.31120755208333,19.125082969665527L62.36117708333334,24.05093261173794L62.561055208333336,28.792938641139436L62.760933333333334,35.11535467420306L62.91084192708334,33.37937722887311L62.96081145833334,27.88237803322928L63.01078098958334,25.846566472734715L63.21065911458333,25.80233342306955L63.66038489583333,17.77381665366037L63.86026302083333,9.123551504952573L63.91023255208333,7.272323199680876L63.96020208333333,6.715408733912874L64.06014114583333,11.436207635062075L64.11011067708333,9.481186866760254L64.40992786458334,3.580039705548976L64.60980598958334,1.9428833552769196L64.65977552083334,-2.863326072692871L66.15886145833333,-3.7799493244716156L67.00834348958332,15.52371488298688L67.20822161458334,13.289533615112305L67.30816067708334,16.951419012887143L67.55800833333333,24.463628905160093L68.75727708333334,37.125969886779785L68.85721614583333,37.80577414376395L69.10706380208333,28.94272232055664L69.20700286458333,33.268818855285645L69.40688098958333,19.954670906066895L69.50682005208333,18.72059549604144L69.90657630208334,17.598909378051758L70.20639348958333,29.738614082336426L70.40627161458333,29.059658595493865L70.75605833333333,23.868871416364406L70.85599739583334,19.813714436122346L71.15581458333334,7.363287108285093L71.25575364583334,6.607978684561587L71.40566223958334,5.790334156581331L71.45563177083334,4.485665321350098L71.55557083333333,3.7495876039777514L71.95532708333333,-0.00937284742083433L72.00529661458333,0.8391426631382477L72.15520520833333,4.793089866638184L72.50499192708332,3.229049001421239L72.65490052083334,4.507139205932617L73.10462630208333,-6.2969044276646144L73.95410833333334,-8.528054373604917L74.00407786458334,4.32093116215298L74.20395598958333,0.17488302503313902L74.25392552083333,2.1914638791765455L74.30389505208333,3.58767863682339L74.35386458333333,3.58767863682339L74.55374270833333,3.78866740635464L74.60371223958333,5.679933411734439L74.75362083333333,-1.3304471969604492L75.65307239583333,-8.706865991864873L76.10279817708333,4.70957088470459L76.25270677083333,12.412050792149138L76.65246302083332,12.055227824619841L76.75240208333332,16.274367196219302L76.95228020833332,22.796971729823518L77.00224973958333,22.432776587350034L77.25209739583333,22.379582950047087L77.60188411458334,26.294304847717285L78.15154895833334,37.43612262180874L78.25148802083334,39.91136673518589L78.55130520833333,36.162385395595L78.70121380208334,29.025610787527896L78.80115286458334,29.74511323656354L79.00103098958334,23.249523844037746L79.20090911458333,17.18740136282785L79.30084817708332,10.995550428118015L79.55069583333334,-11.550549098423533L82.14911145833332,-12.99439198630195L83.14850208333333,21.77461596897671L83.19847161458334,22.598953655787874L83.39834973958334,30.387741361345554L83.44831927083332,28.955902508326936L83.49828880208334,29.258573940822053L84.39774036458334,26.338586398533415L84.64758802083334,16.363003049577976L84.99737473958332,9.48054422651019L85.04734427083334,9.177290780203677L85.34716145833333,1.2951989855085129L85.44710052083333,-0.25875364031109926L86.09670442708332,-3.366768019539975L86.99615598958333,1.175546646118164L87.09609505208333,6.393930980137419L87.19603411458333,4.014125006539487L87.59579036458334,15.59234401157925L87.74569895833332,18.968727384294773L88.14545520833333,34.83578191484723L88.29536380208333,35.154786109924316L88.44527239583333,40.61195373535156L89.09487630208334,41.57586560930524L89.44466302083333,35.6506255013602L89.74448020833333,37.440269470214844L89.94435833333333,36.96510369437082L90.04429739583333,32.717300142560696L90.09426692708334,30.328666959490086L90.39408411458334,21.19551222664969L90.89377942708333,19.151758602687288L91.14362708333333,9.226580074855256L91.19359661458333,7.662357330322266L91.34350520833334,1.9292181559971344L91.64332239583334,3.2828974042619947L91.74326145833334,4.459595952715184L91.89317005208333,9.143449102129246L92.04307864583333,15.284967967442107L92.19298723958333,17.239285469055176L92.24295677083335,18.368913650512695L93.14240833333334,21.933833122253418L93.89195130208333,31.192387580871582L94.64149427083333,37.956406593322754L94.79140286458333,33.16931874411447L94.84137239583333,31.012775693620945L94.94131145833333,29.362463406154085L94.99128098958334,31.454051290239597L96.04064114583333,18.105843407767154L96.09061067708335,18.105843407767154L96.34045833333333,17.52151366642544L96.49036692708333,19.149891308375764L96.69024505208333,18.074693543570376L96.79018411458333,20.219390187944676L96.99006223958332,12.419034957885742L97.18994036458332,8.296412876674104L97.38981848958333,7.943457875932958L98.63905677083334,-3.6152515411376953L99.93826458333332,-1.1717029299054658L99.98823411458334,1.8144280569894058L100.43795989583333,8.306707245962954L100.78774661458334,9.661683900015689L101.53728958333333,38.1322717666626L101.58725911458335,42.77554157802036L101.73716770833333,46.527081353323794L102.08695442708333,48.63177667345319L102.68658880208332,56.92858968462262L102.93643645833333,54.6436277117048L102.98640598958333,54.6436277117048L103.08634505208333,53.72521597998483L103.43613177083334,65.31052221570697L103.78591848958332,61.356011186327244L103.83588802083334,59.722698552267886L104.28561380208333,47.61429527827671L104.48549192708333,46.20762852260044L104.58543098958333,47.74724905831473L104.78530911458333,42.96023396083286L105.23503489583332,46.173738343375064L105.58482161458333,45.15424415043423L105.63479114583333,51.220270974295474L105.88463880208333,47.87812941414969L106.28439505208334,40.92864200047085L106.73412083333334,32.029177938188816L106.78409036458334,35.70060593741281L106.98396848958333,29.407060214451384L107.23381614583333,29.908610616411472L107.38372473958334,22.75865582057407L107.48366380208334,15.586851256234311L107.63357239583333,9.91275010790143L107.78348098958334,8.1361893245152L107.98335911458332,3.6562228884015795L108.38311536458333,-17.92346695491247L114.12961145833333,-4.173608916146421L114.42942864583334,1.5538071223667633L114.77921536458332,8.685222353254055L114.82918489583334,9.67641612461636L115.27891067708333,12.212614059448242L115.62869739583334,11.61486162458148L116.07842317708334,2.3768352781023268L116.22833177083334,1.4706276484898102L116.57811848958333,13.126933506556917L116.67805755208333,13.78156566619873L116.87793567708333,20.375382014683318L117.37763098958334,20.405331475394107L117.42760052083332,23.999194008963443L117.57750911458334,24.4265740258353L117.82735677083333,0.4509879520961273L118.02723489583333,2.0593588692801257L118.67683880208334,-15.406038965497686L120.02601614583334,-16.383325031825493L120.92546770833334,12.395596776689793L121.22528489583334,7.954455511910581L121.57507161458334,16.656119755336213L121.87488880208333,5.377613612583708L122.07476692708333,-6.250464575631284L127.57141536458333,-6.092181069510318L128.37092786458334,9.4937971660069L128.72071458333332,17.380072184971404L128.97056223958333,6.388971737452913L129.02053177083332,6.305355753217433L129.07050130208333,8.271859169006348L129.17044036458333,11.827296665736604L129.22040989583334,9.041730063302182L129.32034895833334,8.211172103881836L129.42028802083334,11.111201422555112L129.62016614583334,11.032932690211702L129.82004427083334,9.531919070652556L130.06989192708335,16.960634231567383L130.16983098958335,18.41542625427246L130.51961770833333,23.340439251491L130.61955677083333,22.26803030286517L130.66952630208334,20.823472023010254L130.91937395833332,22.333252225603367L131.11925208333332,24.448799678257537L131.36909973958333,26.125823974609375L131.46903880208333,31.340219088963103L131.51900833333335,28.94758456093924L132.01870364583334,51.36675657544818L132.06867317708333,51.36675657544818L132.26855130208332,48.01168945857456L132.41845989583334,40.01766913277762L132.56836848958332,56.88114949635098L132.61833802083333,56.88114949635098L132.76824661458332,57.457670552389956L132.81821614583333,55.105722427368164L132.91815520833333,55.54342712674823L133.16800286458334,44.32506847381592L133.21797239583333,45.12376117706299L133.56775911458334,37.080439431326724L133.61772864583335,39.24585819244385L133.81760677083332,40.230674062456394L133.91754583333332,41.89038344791958L134.01748489583332,31.00135367257254L134.21736302083332,33.46419361659458L134.71705833333334,40.456095286778044L134.81699739583334,38.928357533046174L134.91693645833334,37.667533738272525L134.96690598958332,34.80419554029193L135.16678411458335,37.4875580923898L135.31669270833333,43.75000245230539L135.71644895833333,29.885596820286345L135.91632708333333,24.662338120596743L136.61590052083332,39.139871052333284L136.81577864583335,34.889897074018215L136.91571770833335,38.76724883488247L137.16556536458333,37.95976529802594L137.21553489583334,37.142921039036345L137.31547395833334,33.81750025068011L137.41541302083334,32.172183581760954L137.46538255208333,32.393615586417056L137.56532161458333,27.498964309692383L137.66526067708332,23.50331824166434L137.71523020833334,25.108342579432893L138.06501692708332,25.52068723951068L138.21492552083333,28.247761453901028L138.46477317708332,39.49717903137207L139.06440755208334,40.85830320630755L139.26428567708334,40.649918011256624L139.41419427083335,35.70458303179059L139.91388958333332,36.39784635816302L140.21370677083334,37.24853229522705L140.26367630208333,38.22353880746024L140.36361536458332,41.28414331163678L140.51352395833334,40.82375826154437L140.66343255208335,45.280929156712126L140.71340208333334,44.611358642578125L140.76337161458335,43.48972102573941L141.26306692708334,51.44347327096121L141.31303645833333,53.72493709836688L141.36300598958334,55.540844440460205L141.46294505208334,53.27445234571185L142.06257942708334,51.04033170427594L142.11254895833332,49.023556845528745L142.16251848958333,48.05002961839948L142.21248802083332,48.29335989270892L142.61224427083334,55.128360339573454L143.06197005208332,64.25758041654315L143.91145208333333,59.26962505068097L144.61102552083335,65.52841969898769L144.81090364583335,60.670568670545315L144.86087317708333,63.067428861345554L144.96081223958333,66.59436586924961L145.36056848958333,69.95737504959106L145.46050755208333,68.04918820517403L145.66038567708333,67.9545442717416L146.16008098958335,62.33272130148752L146.55983723958335,57.70362595149448L146.60980677083333,59.07565682274954L147.15947161458334,42.75269753592355L147.55922786458333,40.57320131574359L147.85904505208333,34.06595952170236L147.90901458333335,32.20688615526471L148.00895364583334,36.75424494062152L148.10889270833334,33.98732703072684L148.35874036458333,30.26213550567627L149.30816145833333,33.24444702693393L149.60797864583333,43.17111696515765L149.65794817708334,42.82800769805908L150.15764348958334,60.292671952928806L150.25758255208333,59.47140802655902L150.40749114583335,53.99634953907559L150.45746067708336,53.737401894160676L150.50743020833332,56.04064880098615L151.00712552083334,61.17466538293021L151.05709505208333,60.33840247562954L151.20700364583334,61.43112734385898L151.50682083333334,59.13052374976022L151.75666848958335,62.3546256337847L151.85660755208332,63.93440512248447L151.95654661458335,65.35984788622174L152.05648567708332,61.76772533144269L152.50621145833333,58.63224717548916L152.70608958333332,47.720076288495754L152.90596770833332,43.368116515023374L153.00590677083335,39.63815975189209L153.15581536458333,39.69918632507324L153.60554114583334,45.88744817461286L153.65551067708333,47.54181030818393L153.85538880208333,45.403734070914126L154.15520598958335,45.264584268842434L154.25514505208332,44.400184631347656L154.85477942708332,39.55056667327881L154.90474895833333,39.04108633313861L154.95471848958334,33.84529141017368L155.00468802083333,30.979819161551333L155.15459661458334,32.65869862692697L155.35447473958334,27.10757214682443L155.65429192708334,35.985538073948454L155.70426145833335,37.99800845554898L155.85417005208333,36.81328296661377L156.25392630208333,23.551952770778108L156.50377395833334,8.694728578839992L156.65368255208332,-0.22263240814208984L159.35203723958332,-4.733615330287405L159.60188489583334,14.532751492091585L159.85173255208335,16.764337948390413L160.50133645833333,35.023566246032715L160.70121458333332,25.55913652692523L160.85112317708334,29.565161841256284L161.60066614583334,27.27926622118268L162.15033098958332,35.12627955845425L162.20030052083334,38.74302250998361L162.35020911458332,38.80766241891043L162.65002630208332,34.38986233302524L162.99981302083333,41.11121245792935L163.04978255208331,41.210821696690154L163.09975208333333,40.32150459289551L163.14972161458334,30.0388240814209L163.19969114583336,30.168103899274563L163.2496606770833,27.7127331324986L163.6494169270833,31.355994088309146L164.79871614583334,35.04445811680386L164.84868567708332,36.79020854404995L164.89865520833334,37.30038002559116L165.24844192708332,23.367211886814665L165.79810677083333,10.299280030386782L165.89804583333333,13.14040470123291L166.49768020833335,20.267563956124448L166.54764973958333,21.892316137041355L166.69755833333335,19.560320172991062L166.79749739583332,11.96681022644043L166.84746692708333,14.921354838779997L166.94740598958336,20.1620739528111L167.89682708333333,17.082347869873047L168.14667473958335,28.214610917227603L168.29658333333333,32.1526254926409L168.44649192708334,36.1799670628139L168.89621770833335,29.016395568847656L168.9461872395833,29.761688504900242L169.24600442708334,31.595723152160645L169.3459434895833,34.880536351885105L169.39591302083332,35.75361769539969L169.69573020833334,33.62484155382428L169.84563880208333,39.76917348589215L170.14545598958333,38.3898492540632L170.24539505208335,42.549877847943996L170.34533411458332,46.30623136247907L170.49524270833334,47.71608706883023L170.94496848958332,51.60336337770734L171.19481614583333,52.974806172507144L171.29475520833333,55.904797077178955L171.3447247395833,57.038165909903384L171.39469427083333,52.69428764070783L171.94435911458334,63.045300211225246L172.44405442708336,62.67030750002179L172.84381067708335,67.85064874376569L173.69329270833333,58.711516244070864L174.04307942708334,53.63891424451556L174.09304895833333,50.17339788164411L174.2429575520833,50.0796572821481L174.74265286458333,41.783123152596616L175.04247005208333,43.250113214765285L175.24234817708333,41.046487671988345L175.49219583333334,43.0953460420881L175.59213489583334,40.48428658076694L175.69207395833334,39.42897428785052L175.79201302083334,43.50687830788748L175.89195208333334,41.554464476449155L176.09183020833333,49.38856438228061L176.14179973958335,49.38856438228061L176.29170833333333,51.63819932937622L176.59152552083336,53.170981202806736L176.69146458333333,55.61675480433872L176.8413731770833,50.73136724744525L177.24112942708334,45.69954259055002L177.34106848958334,43.8574446269444L177.39103802083332,45.75576754978726L177.44100755208333,47.777065140860415L177.84076380208333,48.404269899640774L178.5903067708333,50.437814031328465L178.69024583333334,40.29618699210031L178.79018489583333,39.28549575805664L178.89012395833333,40.503529412405825L178.99006302083333,41.48093673161099L179.43978880208334,42.271760123116636L179.63966692708334,41.77929156167166L180.28927083333335,55.338885647909976L180.48914895833335,54.28395530155728L181.43857005208335,45.799939973013736L182.18811302083333,44.81032248905728L182.23808255208334,43.63464246477399L182.53789973958334,40.478502818516326L182.58786927083332,39.34957790374756L182.68780833333335,44.0975980758667L182.83771692708333,41.860312734331394L183.08756458333332,46.73687308175223L183.23747317708333,47.89812401362827L183.28744270833332,50.05527332850864L183.38738177083334,53.03881556647165L184.18689427083333,43.99156243460519L184.53668098958332,40.51302351270404L184.73655911458334,30.293564251491L185.08634583333333,34.296255111694336L185.13631536458334,34.296255111694336L185.48610208333332,27.979865346636082L185.6360106770833,27.221380097525454L186.83527942708332,9.898139136178159L186.98518802083333,5.74298490796771L187.33497473958334,-1.8924057824271179L187.53485286458334,-4.507624217442087L187.6347919270833,7.913823672703337L187.68476145833333,9.211144583565854L188.03454817708334,9.565784999302458L188.13448723958334,9.147705078125L188.68415208333334,4.601983206612729L188.93399973958336,11.228816713605617L189.3837255208333,18.25894941602435L189.48366458333334,16.646722657339907L189.5836036458333,15.628477369035984L189.78348177083333,16.016886711120605L189.93339036458335,17.217738832746242L190.58299427083332,16.839526857648586L190.63296380208334,17.379793303353452L190.68293333333335,15.022382736206055L190.98275052083332,19.026734760829378L191.38250677083332,29.696405955723357L191.68232395833334,27.457180568150115L191.73229348958333,27.52440316336496L191.7822630208333,27.405538967677522L191.98214114583334,23.94960158211844L192.23198880208332,25.44318240029471L192.58177552083333,32.42796652657645L192.98153177083333,25.659279278346467L193.18140989583333,31.174684660775327L193.38128802083332,26.09657778058734L193.48122708333335,28.44317259107318L193.78104427083332,31.519418716430664L193.93095286458333,26.174713134765625L194.03089192708333,25.09461675371442L194.13083098958333,28.727850096566343L194.23077005208333,25.195426395961213L194.38067864583334,24.353846549987793L194.63052630208335,30.635376112801694L195.23016067708335,37.75977080208914L195.48000833333333,40.728635379246306L195.72985598958334,55.11298547472272L196.62930755208336,64.99870225361416L196.82918567708336,67.31451095853534L196.97909427083334,66.11696904046195L197.22894192708333,69.98391730444771L197.52875911458332,65.83031511306763L197.57872864583334,65.00621386936733L197.77860677083333,65.55638061250959L197.87854583333333,65.92249761308942L198.17836302083333,69.66218491962978L198.22833255208332,70.63978018079486L198.52814973958334,72.57892894744873L198.87793645833332,77.8824691772461L199.17775364583335,76.24043846130371L199.32766223958333,75.08545630318778L199.62747942708333,67.30622332436698L200.1771442708333,69.12442234584263L200.27708333333334,63.39731550216675L200.62687005208332,60.21011086872647L200.77677864583333,58.31217595509121L200.92668723958334,58.492284979139065L201.02662630208332,61.93606070109775L201.27647395833333,52.96042558125088L202.07598645833335,41.534300122942234L202.17592552083332,41.97444806780133L202.22589505208333,42.41474151611328L202.42577317708333,40.9593917301723L202.47574270833334,42.87499318804059L202.67562083333334,35.508674757821225L202.7755598958333,35.317495346069336L203.07537708333334,34.63144656590054L203.12534661458332,33.02518544878278L203.47513333333333,40.32015868595669L204.07476770833335,38.95457240513394L204.3246153645833,44.11279106140137L204.47452395833335,46.65232345036099L204.92424973958333,42.54865319388254L204.97421927083334,41.97892229897635L205.27403645833334,39.26323372977121L205.32400598958333,42.24697603498187L206.02357942708335,44.279259136744905L206.22345755208335,43.77849687848773L206.32339661458332,44.79938547951834L206.42333567708334,43.140015602111816L206.57324427083333,44.32669326237271L206.72315286458334,43.991295678274966L207.17287864583335,51.99228198187692L207.47269583333332,55.53566087995257L207.57263489583335,53.698358467647004L208.12229973958333,62.396864073617124L208.17226927083334,62.396864073617124L208.47208645833334,67.56146063123431L208.82187317708332,75.65171936580113L210.02114192708333,67.75505903788975L210.17105052083335,59.13089963368008L210.32095911458333,56.9064792224339L210.42089817708333,56.64884110859463L211.47025833333333,45.09245368412564L211.62016692708332,49.45077923366001L211.82004505208332,47.09738213675363L211.87001458333333,49.94387831006732L211.91998411458334,51.0038891519819L212.21980130208334,55.49541704995291L212.36970989583332,57.64994124003818L212.46964895833332,54.49762712206159L212.91937473958333,38.59037726266043L213.11925286458336,44.40887846265521L213.26916145833334,41.83467987605503L213.51900911458335,28.810253552028108L213.91876536458335,18.118429456438328L214.11864348958335,15.184328079223633L214.21858255208332,14.154636519295835L214.31852161458335,14.667257308959961L214.96812552083333,4.660099710736964L215.06806458333335,6.146890367780421L215.21797317708334,9.354089600699282L215.81760755208333,34.00975881304059L216.01748567708333,37.29677881513324L216.26733333333334,26.33157798222134L216.36727239583334,30.526381901332307L216.86696770833336,54.22792434692383L216.96690677083333,60.21223885672433L217.06684583333336,62.00834560394287L217.71644973958334,54.51750653130667L218.01626692708334,50.484205382210874L218.51596223958333,41.76070349557059L218.76580989583334,24.59036241258893L219.11559661458332,12.039040565490723L219.2655052083333,16.045732770647312L219.36544427083334,19.933427401951384L220.36483489583335,0.90799004690988L220.4148044270833,2.1630179541451673L220.46477395833332,0.9688953672136551L220.71462161458334,7.362086704799104L220.8145606770833,16.739723614283967L221.11437786458333,16.046520914350246L221.31425598958333,11.245949745178223L221.71401223958333,12.222702298845554L221.76398177083334,12.873333113534116L222.01382942708332,32.67061778477261L222.06379895833334,29.89186559404645L222.26367708333333,22.073079926627017L222.81334192708331,0.4173524039132339L223.11315911458334,3.122019086565282L223.41297630208334,10.601611954825259L223.56288489583332,14.542184965951108L224.11254973958336,13.1956353868757L224.31242786458336,10.975919587271548L224.51230598958335,22.48204163142612L224.61224505208332,14.932449477059507L224.86209270833334,13.922958646501804L225.06197083333333,25.706507274082732L225.31181848958335,43.49027878897531L225.56166614583333,49.3844781603132L225.76154427083333,45.96496513911655L225.81151380208334,46.16343184879849L225.91145286458334,46.16739681788852L226.36117864583332,41.555798258100246L226.41114817708333,41.555798258100246L226.96081302083334,46.92813737051828L227.06075208333334,49.33949334280832L227.11072161458333,50.30665479387555L227.46050833333334,60.08847604479108L227.56044739583334,60.85463660103934L227.61041692708335,61.29078926358905L227.66038645833333,61.90445613861084L227.71035598958332,62.59593704768589L227.91023411458332,55.687402793339324L228.01017317708335,54.227663653237485L229.10950286458333,57.87026378086636L229.25941145833332,56.9666691507612L229.95898489583334,50.88571609769549L230.20883255208335,38.97621604374478L230.2588020833333,38.97351210457938L230.35874114583333,39.0943284715925L230.75849739583333,20.698617935180664L231.00834505208334,29.389842305864597L231.35813177083335,25.785527774265837L232.75727864583334,38.546883855547215L233.10706536458335,38.69795281546457L233.65673020833333,38.45119108472552L233.90657786458334,38.57383837018695L234.35630364583335,36.06923893519809L234.40627317708334,37.65605109078543L234.90596848958333,30.79672731672015L234.95593802083332,24.72682040078299L235.00590755208333,27.317157745361328L235.10584661458336,28.551912171500064L235.20578567708333,30.43917683192661L235.30572473958335,28.12145233154297L235.3556942708333,30.0516768864223L235.40566380208332,29.694950921194888L235.50560286458335,34.66222054617746L236.40505442708334,47.360416003635954L236.65490208333333,51.418258735111785L236.90474973958334,47.444929259164L237.05465833333335,51.64329801286969L237.20456692708333,50.19892161233084L237.45441458333335,42.0705530984061L238.00407942708333,54.02659606933594L238.45380520833334,46.15918799809048L238.60371380208335,45.8074334008353L238.65368333333333,47.717736107962466L239.10340911458331,50.45421954563687L239.40322630208334,43.71671853746686L240.15276927083335,20.70696013314383L240.20273880208333,20.142491613115574L240.50255598958333,18.139600208827424L240.70243411458333,14.772250175476074L240.8523427083333,15.167122295924592L241.15215989583334,0.14534582410540464L241.2520989583333,2.648672103881836L241.70182473958332,-19.814999716622495L243.75057552083334,-19.755452428545283L244.20030130208332,0.6854303904942047L244.35020989583333,7.819416182381772L244.94984427083335,25.29858834402902L245.29963098958333,25.849161284310483L245.44953958333332,25.77462714059012L245.54947864583335,24.448920931134914L245.59944817708333,24.66146509987967L245.79932630208333,21.799400057111477L245.84929583333334,20.77183042253766L245.89926536458333,21.08154664720807L246.49889973958335,34.395997728620266L246.79871692708332,46.143982887268066L246.84868645833333,42.841563769749236L246.94862552083333,45.666161673409604L247.19847317708332,40.59736701420376L247.24844270833333,39.631975855146145L247.39835130208334,28.941546167646145L247.69816848958334,27.588885443551206L247.89804661458334,37.11727605547223L248.24783333333335,33.151300566537046L248.7475286458333,36.511824062892366L249.04734583333334,45.132758140563965L249.24722395833334,42.99885300227573L249.39713255208332,43.888861247471404L249.79688880208334,51.87995331627982L249.89682786458332,51.595597130911685L250.54643177083332,60.78454637527466L250.74630989583332,54.79786137172153L250.79627942708333,56.07577575956073L251.74570052083334,25.81776891435895L251.79567005208335,19.466834204537534L251.94557864583334,10.886944225856233L252.29536536458332,-3.1313070569719756L253.74448177083335,-6.3925608226231105L254.19420755208336,13.808229173932766L254.34411614583334,12.291452680315281L254.4440552083333,14.800914355686736L254.89378098958332,24.332142284938264L255.04368958333333,30.18838950565884L255.14362864583333,30.4831188746861L255.24356770833333,27.287414414542056L255.84320208333332,48.384723935808445L256.69268411458336,50.31047425951276L256.94253177083334,41.571355002267026L257.4422270833333,33.33587169647217L257.74204427083333,34.47373294830322L258.09183098958334,34.59439168657575L258.3916481770833,28.67046110970633L258.49158723958334,30.47216973985944L258.69146536458334,25.789335114615298L259.04125208333335,21.520663942609524L259.09122161458333,19.7596356528146L259.1411911458333,19.853727885654997L259.64088645833334,2.214756556919646L260.44039895833333,4.707533836364746L260.6902466145833,5.829571587698794L260.9400942708333,11.426301274980808L261.18994192708334,14.766878673008513L261.2399114583333,12.202198437282014L261.33985052083335,22.260076114109587L261.4897591145833,22.778092656816746L261.98945442708333,23.409141131809783L262.18933255208333,25.0175120489938L262.23930208333337,23.54713903154645L262.53911927083334,37.93966157095773L262.73899739583334,33.64361149924142L262.7889669270833,36.53265530722482L263.1887231770833,41.29549258095877L263.28866223958335,36.78119945526123L263.33863177083333,33.92656721387591L263.3886013020833,34.42547430310931L263.48854036458334,36.01702744620187L263.6384489583333,31.23067923954556L263.68841848958334,30.550135340009426L263.7383880208333,28.042249952043797L263.78835755208337,27.984351703098845L263.98823567708337,30.891765322004055L264.08817473958334,36.71508026123047L264.2380833333333,28.149728502546047L264.28805286458334,27.563349587576724L264.3380223958333,27.563349587576724L264.38799192708336,27.547283581324983L264.48793098958333,29.92175442831857L264.63783958333335,23.53781468527658L264.68780911458333,23.31336348397391L264.98762630208336,18.382105963570737L265.2874434895833,24.746038981846404L265.38738255208335,24.552325384957456L265.53729114583336,18.20232432229178L266.13692552083336,25.697546686444973L266.53668177083335,32.229148183550144L266.58665130208334,31.899400983537937L266.6366208333333,34.8553763798305L266.93643802083335,34.862166540963315L267.28622473958336,39.473789351327085L267.53607239583334,42.38161523001535L267.88585911458335,53.32473591395786L268.08573723958335,44.43663324628558L268.33558489583334,42.14570563180106L268.53546302083333,35.45666939871652L268.83528020833336,26.960031645638608L268.93521927083333,10.19505105699811L269.08512786458334,-5.074711799621582" style="fill: none;" fill="none"></path></g></g></g></g></g></g><g transform="translate(30, 178)" clip-path="url(#clip_1)"><clipPath id="clip_1"><rect width="299" height="22"></rect></clipPath><g><g><line x1="0" y1="0" x2="0" y2="5" style="visibility: inherit;" fill="rgb(0, 0, 0)" stroke="rgb(204, 204, 204)" stroke-width="1px"></line><line x1="24.934895833333332" y1="0" x2="24.934895833333332" y2="5" style="visibility: inherit;" fill="rgb(0, 0, 0)" stroke="rgb(204, 204, 204)" stroke-width="1px"></line><line x1="49.869791666666664" y1="0" x2="49.869791666666664" y2="5" style="visibility: inherit;" fill="rgb(0, 0, 0)" stroke="rgb(204, 204, 204)" stroke-width="1px"></line><line x1="74.8046875" y1="0" x2="74.8046875" y2="5" style="visibility: inherit;" fill="rgb(0, 0, 0)" stroke="rgb(204, 204, 204)" stroke-width="1px"></line><line x1="99.73958333333333" y1="0" x2="99.73958333333333" y2="5" style="visibility: inherit;" fill="rgb(0, 0, 0)" stroke="rgb(204, 204, 204)" stroke-width="1px"></line><line x1="124.67447916666667" y1="0" x2="124.67447916666667" y2="5" style="visibility: inherit;" fill="rgb(0, 0, 0)" stroke="rgb(204, 204, 204)" stroke-width="1px"></line><line x1="149.609375" y1="0" x2="149.609375" y2="5" style="visibility: inherit;" fill="rgb(0, 0, 0)" stroke="rgb(204, 204, 204)" stroke-width="1px"></line><line x1="174.54427083333334" y1="0" x2="174.54427083333334" y2="5" style="visibility: inherit;" fill="rgb(0, 0, 0)" stroke="rgb(204, 204, 204)" stroke-width="1px"></line><line x1="199.47916666666666" y1="0" x2="199.47916666666666" y2="5" style="visibility: inherit;" fill="rgb(0, 0, 0)" stroke="rgb(204, 204, 204)" stroke-width="1px"></line><line x1="224.4140625" y1="0" x2="224.4140625" y2="5" style="visibility: inherit;" fill="rgb(0, 0, 0)" stroke="rgb(204, 204, 204)" stroke-width="1px"></line><line x1="249.34895833333334" y1="0" x2="249.34895833333334" y2="5" style="visibility: inherit;" fill="rgb(0, 0, 0)" stroke="rgb(204, 204, 204)" stroke-width="1px"></line><line x1="274.28385416666663" y1="0" x2="274.28385416666663" y2="5" style="visibility: inherit;" fill="rgb(0, 0, 0)" stroke="rgb(204, 204, 204)" stroke-width="1px"></line><line x1="299.21875" y1="0" x2="299.21875" y2="5" style="visibility: inherit;" fill="rgb(0, 0, 0)" stroke="rgb(204, 204, 204)" stroke-width="1px"></line></g><g transform="translate(0, 8)"><text x="0" y="0" dx="0em" dy="0.95em" style="text-anchor: middle; visibility: hidden; font-family: Roboto, sans-serif; font-size: 12px; font-weight: 200;" fill="rgb(50, 49, 63)" stroke="none" stroke-width="1px">-500k</text><text x="24.934895833333332" y="0" dx="0em" dy="0.95em" style="text-anchor: middle; visibility: inherit; font-family: Roboto, sans-serif; font-size: 12px; font-weight: 200;" fill="rgb(50, 49, 63)" stroke="none" stroke-width="1px">0</text><text x="49.869791666666664" y="0" dx="0em" dy="0.95em" style="text-anchor: middle; visibility: hidden; font-family: Roboto, sans-serif; font-size: 12px; font-weight: 200;" fill="rgb(50, 49, 63)" stroke="none" stroke-width="1px">500k</text><text x="74.8046875" y="0" dx="0em" dy="0.95em" style="text-anchor: middle; visibility: inherit; font-family: Roboto, sans-serif; font-size: 12px; font-weight: 200;" fill="rgb(50, 49, 63)" stroke="none" stroke-width="1px">1M</text><text x="99.73958333333333" y="0" dx="0em" dy="0.95em" style="text-anchor: middle; visibility: hidden; font-family: Roboto, sans-serif; font-size: 12px; font-weight: 200;" fill="rgb(50, 49, 63)" stroke="none" stroke-width="1px">1.5M</text><text x="124.67447916666667" y="0" dx="0em" dy="0.95em" style="text-anchor: middle; visibility: inherit; font-family: Roboto, sans-serif; font-size: 12px; font-weight: 200;" fill="rgb(50, 49, 63)" stroke="none" stroke-width="1px">2M</text><text x="149.609375" y="0" dx="0em" dy="0.95em" style="text-anchor: middle; visibility: hidden; font-family: Roboto, sans-serif; font-size: 12px; font-weight: 200;" fill="rgb(50, 49, 63)" stroke="none" stroke-width="1px">2.5M</text><text x="174.54427083333334" y="0" dx="0em" dy="0.95em" style="text-anchor: middle; visibility: inherit; font-family: Roboto, sans-serif; font-size: 12px; font-weight: 200;" fill="rgb(50, 49, 63)" stroke="none" stroke-width="1px">3M</text><text x="199.47916666666666" y="0" dx="0em" dy="0.95em" style="text-anchor: middle; visibility: hidden; font-family: Roboto, sans-serif; font-size: 12px; font-weight: 200;" fill="rgb(50, 49, 63)" stroke="none" stroke-width="1px">3.5M</text><text x="224.4140625" y="0" dx="0em" dy="0.95em" style="text-anchor: middle; visibility: inherit; font-family: Roboto, sans-serif; font-size: 12px; font-weight: 200;" fill="rgb(50, 49, 63)" stroke="none" stroke-width="1px">4M</text><text x="249.34895833333334" y="0" dx="0em" dy="0.95em" style="text-anchor: middle; visibility: hidden; font-family: Roboto, sans-serif; font-size: 12px; font-weight: 200;" fill="rgb(50, 49, 63)" stroke="none" stroke-width="1px">4.5M</text><text x="274.28385416666663" y="0" dx="0em" dy="0.95em" style="text-anchor: middle; visibility: inherit; font-family: Roboto, sans-serif; font-size: 12px; font-weight: 200;" fill="rgb(50, 49, 63)" stroke="none" stroke-width="1px">5M</text><text x="299.21875" y="0" dx="0em" dy="0.95em" style="text-anchor: middle; visibility: hidden; font-family: Roboto, sans-serif; font-size: 12px; font-weight: 200;" fill="rgb(50, 49, 63)" stroke="none" stroke-width="1px">5.5M</text></g><line x1="0" y1="0" x2="299.21875" y2="0" fill="rgb(0, 0, 0)" stroke="rgb(204, 204, 204)" stroke-width="1px"></line></g></g></g></g></svg>