<svg viewBox="0 0 330 200" xmlns="http://www.w3.org/2000/svg"><g><g><g><g><g><line x1="51.5625" y1="178" x2="46.5625" y2="178" style="visibility: inherit;" fill="rgb(0, 0, 0)" stroke="rgb(204, 204, 204)" stroke-width="1px"></line><line x1="51.5625" y1="163.16666666666669" x2="46.5625" y2="163.16666666666669" style="visibility: inherit;" fill="rgb(0, 0, 0)" stroke="rgb(204, 204, 204)" stroke-width="1px"></line><line x1="51.5625" y1="148.33333333333334" x2="46.5625" y2="148.33333333333334" style="visibility: inherit;" fill="rgb(0, 0, 0)" stroke="rgb(204, 204, 204)" stroke-width="1px"></line><line x1="51.5625" y1="133.5" x2="46.5625" y2="133.5" style="visibility: inherit;" fill="rgb(0, 0, 0)" stroke="rgb(204, 204, 204)" stroke-width="1px"></line><line x1="51.5625" y1="118.66666666666669" x2="46.5625" y2="118.66666666666669" style="visibility: inherit;" fill="rgb(0, 0, 0)" stroke="rgb(204, 204, 204)" stroke-width="1px"></line><line x1="51.5625" y1="103.83333333333331" x2="46.5625" y2="103.83333333333331" style="visibility: inherit;" fill="rgb(0, 0, 0)" stroke="rgb(204, 204, 204)" stroke-width="1px"></line><line x1="51.5625" y1="89" x2="46.5625" y2="89" style="visibility: inherit;" fill="rgb(0, 0, 0)" stroke="rgb(204, 204, 204)" stroke-width="1px"></line><line x1="51.5625" y1="74.16666666666666" x2="46.5625" y2="74.16666666666666" style="visibility: inherit;" fill="rgb(0, 0, 0)" stroke="rgb(204, 204, 204)" stroke-width="1px"></line><line x1="51.5625" y1="59.33333333333332" x2="46.5625" y2="59.33333333333332" style="visibility: inherit;" fill="rgb(0, 0, 0)" stroke="rgb(204, 204, 204)" stroke-width="1px"></line><line x1="51.5625" y1="44.5" x2="46.5625" y2="44.5" style="visibility: inherit;" fill="rgb(0, 0, 0)" stroke="rgb(204, 204, 204)" stroke-width="1px"></line><line x1="51.5625" y1="29.66666666666666" x2="46.5625" y2="29.66666666666666" style="visibility: inherit;" fill="rgb(0, 0, 0)" stroke="rgb(204, 204, 204)" stroke-width="1px"></line><line x1="51.5625" y1="14.83333333333332" x2="46.5625" y2="14.83333333333332" style="visibility: inherit;" fill="rgb(0, 0, 0)" stroke="rgb(204, 204, 204)" stroke-width="1px"></line><line x1="51.5625" y1="0" x2="46.5625" y2="0" style="visibility: inherit;" fill="rgb(0, 0, 0)" stroke="rgb(204, 204, 204)" stroke-width="1px"></line></g><g transform="translate(41.5625, 0)"><text x="0" y="178" dx="0em" dy="0.3em" style="text-anchor: end; visibility: hidden; font-family: Roboto, sans-serif; font-size: 12px; font-weight: 200;" fill="rgb(50, 49, 63)" stroke="none" stroke-width="1px">-1.2</text><text x="0" y="163.16666666666669" dx="0em" dy="0.3em" style="text-anchor: end; visibility: inherit; font-family: Roboto, sans-serif; font-size: 12px; font-weight: 200;" fill="rgb(50, 49, 63)" stroke="none" stroke-width="1px">-1</text><text x="0" y="148.33333333333334" dx="0em" dy="0.3em" style="text-anchor: end; visibility: hidden; font-family: Roboto, sans-serif; font-size: 12px; font-weight: 200;" fill="rgb(50, 49, 63)" stroke="none" stroke-width="1px">-0.8</text><text x="0" y="133.5" dx="0em" dy="0.3em" style="text-anchor: end; visibility: inherit; font-family: Roboto, sans-serif; font-size: 12px; font-weight: 200;" fill="rgb(50, 49, 63)" stroke="none" stroke-width="1px">-0.6</text><text x="0" y="118.66666666666669" dx="0em" dy="0.3em" style="text-anchor: end; visibility: hidden; font-family: Roboto, sans-serif; font-size: 12px; font-weight: 200;" fill="rgb(50, 49, 63)" stroke="none" stroke-width="1px">-0.4</text><text x="0" y="103.83333333333331" dx="0em" dy="0.3em" style="text-anchor: end; visibility: inherit; font-family: Roboto, sans-serif; font-size: 12px; font-weight: 200;" fill="rgb(50, 49, 63)" stroke="none" stroke-width="1px">-0.2</text><text x="0" y="89" dx="0em" dy="0.3em" style="text-anchor: end; visibility: hidden; font-family: Roboto, sans-serif; font-size: 12px; font-weight: 200;" fill="rgb(50, 49, 63)" stroke="none" stroke-width="1px">0</text><text x="0" y="74.16666666666666" dx="0em" dy="0.3em" style="text-anchor: end; visibility: inherit; font-family: Roboto, sans-serif; font-size: 12px; font-weight: 200;" fill="rgb(50, 49, 63)" stroke="none" stroke-width="1px">0.2</text><text x="0" y="59.33333333333332" dx="0em" dy="0.3em" style="text-anchor: end; visibility: hidden; font-family: Roboto, sans-serif; font-size: 12px; font-weight: 200;" fill="rgb(50, 49, 63)" stroke="none" stroke-width="1px">0.4</text><text x="0" y="44.5" dx="0em" dy="0.3em" style="text-anchor: end; visibility: inherit; font-family: Roboto, sans-serif; font-size: 12px; font-weight: 200;" fill="rgb(50, 49, 63)" stroke="none" stroke-width="1px">0.6</text><text x="0" y="29.66666666666666" dx="0em" dy="0.3em" style="text-anchor: end; visibility: hidden; font-family: Roboto, sans-serif; font-size: 12px; font-weight: 200;" fill="rgb(50, 49, 63)" stroke="none" stroke-width="1px">0.8</text><text x="0" y="14.83333333333332" dx="0em" dy="0.3em" style="text-anchor: end; visibility: inherit; font-family: Roboto, sans-serif; font-size: 12px; font-weight: 200;" fill="rgb(50, 49, 63)" stroke="none" stroke-width="1px">1</text><text x="0" y="0" dx="0em" dy="0.3em" style="text-anchor: end; visibility: hidden; font-family: Roboto, sans-serif; font-size: 12px; font-weight: 200;" fill="rgb(50, 49, 63)" stroke="none" stroke-width="1px">1.2</text></g><line x1="51.5625" y1="0" x2="51.5625" y2="178" fill="rgb(0, 0, 0)" stroke="rgb(204, 204, 204)" stroke-width="1px"></line></g></g><g transform="translate(51, 0)" clip-path="url(#clip_0)"><clipPath id="clip_0"><rect width="278" height="178"></rect></clipPath><g><g><g><line x1="0" y1="0" x2="0" y2="178" fill="rgb(0, 0, 0)" stroke="rgb(60, 60, 60)" stroke-width="1px" opacity="0.25"></line><line x1="23.203125" y1="0" x2="23.203125" y2="178" fill="rgb(0, 0, 0)" stroke="rgb(60, 60, 60)" stroke-width="1px" opacity="0.25"></line><line x1="46.40625" y1="0" x2="46.40625" y2="178" fill="rgb(0, 0, 0)" stroke="rgb(60, 60, 60)" stroke-width="1px" opacity="0.25"></line><line x1="69.609375" y1="0" x2="69.609375" y2="178" fill="rgb(0, 0, 0)" stroke="rgb(60, 60, 60)" stroke-width="1px" opacity="0.25"></line><line x1="92.8125" y1="0" x2="92.8125" y2="178" fill="rgb(0, 0, 0)" stroke="rgb(60, 60, 60)" stroke-width="1px" opacity="0.25"></line><line x1="116.015625" y1="0" x2="116.015625" y2="178" fill="rgb(0, 0, 0)" stroke="rgb(60, 60, 60)" stroke-width="1px" opacity="0.25"></line><line x1="139.21875" y1="0" x2="139.21875" y2="178" fill="rgb(0, 0, 0)" stroke="rgb(60, 60, 60)" stroke-width="1px" opacity="0.25"></line><line x1="162.421875" y1="0" x2="162.421875" y2="178" fill="rgb(0, 0, 0)" stroke="rgb(60, 60, 60)" stroke-width="1px" opacity="0.25"></line><line x1="185.625" y1="0" x2="185.625" y2="178" fill="rgb(0, 0, 0)" stroke="rgb(60, 60, 60)" stroke-width="1px" opacity="0.25"></line><line x1="208.828125" y1="0" x2="208.828125" y2="178" fill="rgb(0, 0, 0)" stroke="rgb(60, 60, 60)" stroke-width="1px" opacity="0.25"></line><line x1="232.03125" y1="0" x2="232.03125" y2="178" fill="rgb(0, 0, 0)" stroke="rgb(60, 60, 60)" stroke-width="1px" opacity="0.25"></line><line x1="255.234375" y1="0" x2="255.234375" y2="178" fill="rgb(0, 0, 0)" stroke="rgb(60, 60, 60)" stroke-width="1px" opacity="0.25"></line><line x1="278.4375" y1="0" x2="278.4375" y2="178" fill="rgb(0, 0, 0)" stroke="rgb(60, 60, 60)" stroke-width="1px" opacity="0.25"></line></g><g><line x1="0" y1="178" x2="278.4375" y2="178" fill="rgb(0, 0, 0)" stroke="rgb(60, 60, 60)" stroke-width="1px" opacity="0.25"></line><line x1="0" y1="163.16666666666669" x2="278.4375" y2="163.16666666666669" fill="rgb(0, 0, 0)" stroke="rgb(60, 60, 60)" stroke-width="1px" opacity="0.25"></line><line x1="0" y1="148.33333333333334" x2="278.4375" y2="148.33333333333334" fill="rgb(0, 0, 0)" stroke="rgb(60, 60, 60)" stroke-width="1px" opacity="0.25"></line><line x1="0" y1="133.5" x2="278.4375" y2="133.5" fill="rgb(0, 0, 0)" stroke="rgb(60, 60, 60)" stroke-width="1px" opacity="0.25"></line><line x1="0" y1="118.66666666666669" x2="278.4375" y2="118.66666666666669" fill="rgb(0, 0, 0)" stroke="rgb(60, 60, 60)" stroke-width="1px" opacity="0.25"></line><line x1="0" y1="103.83333333333331" x2="278.4375" y2="103.83333333333331" fill="rgb(0, 0, 0)" stroke="rgb(60, 60, 60)" stroke-width="1px" opacity="0.25"></line><line x1="0" y1="89" x2="278.4375" y2="89" fill="rgb(0, 0, 0)" stroke="rgb(60, 60, 60)" stroke-width="1px" opacity="0.25"></line><line x1="0" y1="74.16666666666666" x2="278.4375" y2="74.16666666666666" fill="rgb(0, 0, 0)" stroke="rgb(60, 60, 60)" stroke-width="1px" opacity="0.25"></line><line x1="0" y1="59.33333333333332" x2="278.4375" y2="59.33333333333332" fill="rgb(0, 0, 0)" stroke="rgb(60, 60, 60)" stroke-width="1px" opacity="0.25"></line><line x1="0" y1="44.5" x2="278.4375" y2="44.5" fill="rgb(0, 0, 0)" stroke="rgb(60, 60, 60)" stroke-width="1px" opacity="0.25"></line><line x1="0" y1="29.66666666666666" x2="278.4375" y2="29.66666666666666" fill="rgb(0, 0, 0)" stroke="rgb(60, 60, 60)" stroke-width="1px" opacity="0.25"></line><line x1="0" y1="14.83333333333332" x2="278.4375" y2="14.83333333333332" fill="rgb(0, 0, 0)" stroke="rgb(60, 60, 60)" stroke-width="1px" opacity="0.25"></line><line x1="0" y1="0" x2="278.4375" y2="0" fill="rgb(0, 0, 0)" stroke="rgb(60, 60, 60)" stroke-width="1px" opacity="0.25"></line></g></g></g><g><g><line x1="0" y1="89" x2="278.4375" y2="89" fill="rgb(0, 0, 0)" stroke="rgb(153, 153, 153)" stroke-width="1.5px"></line></g></g><g><g><line x1="23.203125" y1="0" x2="23.203125" y2="178" fill="rgb(0, 0, 0)" stroke="rgb(153, 153, 153)" stroke-width="1.5px"></line></g></g><g><g><g><g><g><path stroke="rgb(238, 51, 119)" stroke-width="2px" d="M23.899775625,89L24.5042634375,89L24.783257812499997,89L25.5272428125,89L25.6202409375,89L25.759738125000002,89L25.852736250000003,89L26.131730625,89L26.271227812499998,89L26.968713750000003,89L27.1082109375,89L27.340706249999997,89L27.712698749999998,89L28.0381921875,89L28.410184687500003,89L28.549681875,89L28.5961809375,89L28.921674375,89L29.154169687499998,89L29.5261621875,89L30.13065,89L30.6421396875,89L30.874635,89L31.0141321875,89L31.432623749999998,89L31.479122812499998,89L31.9441134375,89L32.17660875,89L32.269606875,89L32.3161059375,89L32.5021021875,89L32.8740946875,89L33.2460871875,89L33.29258625,89L33.5250815625,89L34.03657125,89L34.315565625,89L34.5480609375,89L34.687558125,89L35.245546874999995,89L35.52454125,89L35.7570365625,89L36.08253,89L36.26852625,89L36.361524375,89L37.2450065625,89L37.477501874999994,89L37.5240009375,89L37.75649625,89L37.9889915625,89L38.0819896875,89L38.453982187499996,89L38.50048125,89L38.8259746875,89L39.0119709375,89L39.430462500000004,89L39.802455,89L40.54644,89L40.73243625,89L41.011430624999996,89L41.197426875,89L41.290425,89L43.243385624999995,89L43.2898846875,89L43.3828828125,89L43.6618771875,89L44.08036875,89L44.173366875,89L44.2198659375,89L44.359363125,89L44.638357500000005,89L45.0568490625,89L45.196346250000005,89L45.2428453125,89L45.7078359375,89L46.49832,89L46.591318125,89L47.242305,89L47.4748003125,89L47.5677984375,89L47.707295625,89L48.079288125,89L48.358282499999994,89L48.451280624999995,89L48.5907778125,89L48.8697721875,89L49.102267499999996,89L49.567258125,89L49.8462525,89L50.125246875,89L50.311243125000004,89L50.5902375,89L50.683235625,89L50.729734687500006,89L50.82273281249999,89L50.915730937499994,89L50.96223,89L51.1947253125,89L51.241224374999994,89L51.659715937499996,89L51.9387103125,89L52.0317084375,89L52.26420375,89L52.4966990625,89L52.5896971875,89L53.1476859375,89L53.473179374999994,89L53.5196784375,89L53.6126765625,89L53.7056746875,89L53.75217375,89L53.845171875,89L54.403160625,89L54.542657812499996,89L54.7286540625,89L54.86815125,89L55.0076484375,89L55.193644687500004,89L55.24014375,89L55.426140000000004,89L55.6586353125,89L55.705134375,89L56.170125,89L56.356121249999994,89L56.4956184375,89L56.8676109375,89L57.0536071875,89L57.193104375,89L57.2396034375,89L57.2861025,89L57.6115959375,89L57.8905903125,89L57.9835884375,89L58.0300875,89L58.21608375,89L58.402080000000005,89L58.5415771875,89L58.58807625,89L58.634575312500004,89L58.8205715625,89L59.239063124999994,89L59.425059375,89L59.4715584375,89L59.5180575,89L59.611055625,89L59.657554687499996,89L59.9365490625,89L60.1225453125,89L60.169044375,89L60.2620425,89L60.355040625,89L60.4945378125,89L60.541036875,89L60.5875359375,89L60.634035000000004,89L60.7735321875,89L60.959528437500005,89L61.192023750000004,89L61.2385228125,89L61.285021875000005,89L61.564016249999995,89L62.3545003125,89L62.540496562499996,89L62.6334946875,89L62.865990000000004,89L63.9819675,89L64.074965625,89L64.3074609375,89L64.40045906249999,89L64.5864553125,89L64.6794534375,89L65.0514459375,89L65.3304403125,89L65.5164365625,89L65.84193,89L65.934928125,89L66.2139225,89L66.306920625,89L66.4464178125,89L66.492916875,89L66.585915,89L66.95790749999999,89L67.0044065625,89L67.14390374999999,89L67.4693971875,89L67.60889437499999,89L68.0273859375,89L68.2133821875,89L68.352879375,89L68.3993784375,89L68.81787,89L68.8643690625,89L69.0503653125,89L69.096864375,89L69.1433634375,89L69.1898625,89L69.37585875,89L69.42235781250001,89L69.561855,89L69.6083540625,89L69.9803465625,89L70.16634281249999,89L70.2593409375,89L70.3523390625,89L70.39883812500001,89L70.8173296875,89L70.95682687499999,89L71.328819375,89L71.42181749999999,89L71.60781374999999,89L71.6543128125,89L71.886808125,89L72.2123015625,89L72.72379124999999,89L72.816789375,89L73.09578375,89L73.23528093750001,89L73.3282790625,89L73.5142753125,89L73.70027156249999,89L73.79326968749999,89L74.025765,89L74.0722640625,89L74.118763125,89L74.490755625,89L74.76975,89L74.95574625,89L75.0022453125,89L75.048744375,89L75.46723593749999,89L75.69973125,89L76.35071812499999,89L76.44371625,89L77.37369749999999,89L77.42019656250001,89L77.6061928125,89L77.652691875,89L77.6991909375,89L78.53617406250001,89L78.768669375,89L79.09416281249999,89L79.140661875,89L79.41965625,89L79.512654375,89L79.74514968749999,89L79.8381478125,89L80.1171421875,89L80.9541253125,89L81.0471234375,89L81.1401215625,89L81.5121140625,89L81.65161124999999,89L82.02360374999999,89L82.1631009375,89L82.30259812499999,89L82.9070859375,89L83.232579375,89L83.51157375,89L83.69757,89L83.790568125,89L83.83706718750001,89L84.11606156250001,89L84.58105218749999,89L84.8135475,89L84.86004656249999,89L84.99954375,89L85.278538125,89L85.37153625,89L85.51103343749999,89L85.650530625,89L85.7900278125,89L85.836526875,89L86.67351000000001,89L87.3709959375,89L88.06848187499999,89L88.2079790625,89L88.25447812499999,89L88.34747625,89L88.3939753125,89L89.370455625,89L89.41695468750001,89L89.64945,89L89.7889471875,89L89.97494343749999,89L90.0679415625,89L90.2539378125,89L90.4399340625,89L90.62593031249999,89L91.788406875,89L91.8349059375,89L92.34639562499999,89L92.71838812499999,89L92.76488718750001,89L92.90438437499999,89L92.9973825,89L93.0438815625,89L93.462373125,89L93.7878665625,89L94.4853525,89L94.53185156250001,89L94.67134874999999,89L94.9968421875,89L95.5548309375,89L95.78732625,89L95.8338253125,89L95.92682343749999,89L96.252316875,89L96.57781031249999,89L96.62430937500001,89L97.0428009375,89L97.22879718749999,89L97.3217953125,89L97.5077915625,89L97.926283125,89L98.2517765625,89L98.29827562499999,89L98.53077093750001,89L98.9027634375,89L99.321255,89L99.36775406250001,89L99.5537503125,89L99.78624562499999,89L99.9257428125,89L100.01874093750001,89L100.158238125,89L100.29773531250001,89L100.4837315625,89L100.85572406249999,89L101.22771656249999,89L101.4137128125,89L101.55321,89L101.5997090625,89L101.8787034375,89L101.9252025,89L102.297195,89L102.48319125,89L102.5296903125,89L102.57618937500001,89L102.6691875,89L102.8086846875,89L103.13417812499999,89L103.1806771875,89L103.5526696875,89L103.59916874999999,89L104.0176603125,89L104.2036565625,89L104.29665468750001,89L104.436151875,89L104.6686471875,89L104.71514625,89L104.808144375,89L104.8546434375,89L104.90114249999999,89L105.13363781250001,89L105.7846246875,89L106.20311625000001,89L106.482110625,89L106.80760406249999,89L106.85410312500001,89L107.2725946875,89L107.598088125,89L108.0165796875,89L108.15607687500001,89L108.4815703125,89L108.5745684375,89L108.76056468750001,89L109.2255553125,89L109.272054375,89L109.41155156250001,89L109.644046875,89L109.830043125,89L110.4345309375,89L110.52752906250001,89L110.574028125,89L110.8530225,89L110.89952156250001,89L110.946020625,89L111.03901875,89L111.690005625,89L112.52698875,89L112.80598312500001,89L113.1314765625,89L113.4104709375,89L113.5964671875,89L113.6894653125,89L113.7824634375,89L114.0614578125,89L114.200955,89L114.29395312499999,89L114.4334503125,89L114.5729475,89L114.7124446875,89L115.13093624999999,89L115.223934375,89L115.78192312499999,89L115.82842218750001,89L115.87492125,89L116.525908125,89L116.711904375,89L116.897900625,89L117.08389687500001,89L117.1303959375,89L117.269893125,89L117.36289125,89L117.455889375,89L117.827881875,89L117.92088000000001,89L118.0603771875,89L118.19987437500001,89L118.33937156249999,89L118.4323696875,89L118.57186687500001,89L118.7113640625,89L119.4553490625,89L119.78084249999999,89L120.0133378125,89L120.059836875,89L120.1063359375,89L120.1993340625,89L120.24583312499999,89L120.33883125,89L120.43182937499999,89L120.617825625,89L120.803821875,89L121.0363171875,89L121.12931531250001,89L121.45480875,89L121.547806875,89L121.59430593750001,89L121.82680125,89L122.0127975,89L122.2452928125,89L122.33829093749999,89L122.38479,89L122.84978062500001,89L122.8962796875,89L123.0822759375,89L123.221773125,89L123.3612703125,89L123.407769375,89L123.5472665625,89L123.593765625,89L123.68676375000001,89L123.9192590625,89L123.96575812500001,89L124.2912515625,89L124.33775062500001,89L124.52374687499999,89L124.616745,89L124.70974312499999,89L124.89573937499999,89L125.36072999999999,89L125.453728125,89L125.54672624999999,89L125.59322531250001,89L125.7792215625,89L125.91871875,89L126.29071125,89L126.4767075,89L127.127694375,89L127.313690625,89L127.40668875,89L127.6391840625,89L127.685683125,89L127.77868125,89L127.871679375,89L127.91817843749999,89L128.0111765625,89L128.1041746875,89L128.15067375,89L128.47616718749998,89L128.615664375,89L128.8481596875,89L129.4061484375,89L129.5921446875,89L129.731641875,89L130.1966325,89L130.475626875,89L130.5221259375,89L130.6151240625,89L130.75462124999999,89L130.8941184375,89L130.9406175,89L130.9871165625,89L131.4521071875,89L131.49860625,89L131.5451053125,89L131.6381034375,89L132.1960921875,89L132.24259125,89L132.2890903125,89L132.335589375,89L132.707581875,89L133.1260734375,89L133.9165575,89L134.567544375,89L134.753540625,89L134.8000396875,89L134.8930378125,89L135.2650303125,89L135.3580284375,89L135.5440246875,89L136.0090153125,89L136.3810078125,89L136.427506875,89L136.9389965625,89L137.3109890625,89L137.5899834375,89L137.6364825,89L137.729480625,89L137.82247875,89L138.05497406249998,89L138.93845625,89L139.217450625,89L139.2639496875,89L139.7289403125,89L139.82193843750002,89L139.961435625,89L140.0079346875,89L140.05443375,89L140.519424375,89L140.56592343749998,89L140.70542062500002,89L140.98441499999998,89L141.2169103125,89L141.30990843749998,89L141.4029065625,89L141.4959046875,89L141.91439625,89L142.1003925,89L142.28638875,89L142.37938687500002,89L142.5188840625,89L142.93737562500002,89L142.9838746875,89L143.16987093749998,89L143.4488653125,89L143.54186343749998,89L144.0998521875,89L144.14635125,89L144.1928503125,89L144.239349375,89L144.3788465625,89L144.56484281250002,89L144.8438371875,89L144.89033625000002,89L145.0298334375,89L145.4018259375,89L145.63432125,89L145.7738184375,89L145.913315625,89L145.9598146875,89L146.2388090625,89L146.3318071875,89L146.6108015625,89L146.75029875,89L146.8897959375,89L146.936295,89L147.12229125000002,89L148.0057734375,89L148.1917696875,89L148.28476781249998,89L148.517263125,89L148.74975843750002,89L149.35424625,89L149.54024249999998,89L149.67973968750002,89L150.377225625,89L150.8887153125,89L150.93521437500002,89L151.0747115625,89L151.3537059375,89L151.679199375,89L151.72569843749997,89L151.7721975,89L151.8186965625,89L151.865195625,89L151.9116946875,89L152.2836871875,89L153.353165625,89L153.39966468749998,89L153.44616375,89L153.77165718749998,89L154.28314687499997,89L154.376145,89L154.93413375,89L154.9806328125,89L155.12013000000002,89L155.213128125,89L155.2596271875,89L155.3526253125,89L156.2361075,89L156.46860281250002,89L156.6081,89L156.7475971875,89L157.16608875,89L157.21258781249998,89L157.4915821875,89L157.58458031249998,89L157.63107937499998,89L157.91007375,89L158.0495709375,89L158.3285653125,89L158.4215634375,89L158.51456156249998,89L158.65405875000002,89L159.0725503125,89L159.305045625,89L159.39804374999997,89L159.4445428125,89L159.491041875,89L160.0025315625,89L160.4675221875,89L160.8395146875,89L161.62999875,89L161.95549218750003,89L162.00199125,89L162.1414884375,89L162.6064790625,89L162.8854734375,89L163.07146968749998,89L163.303965,89L163.396963125,89L163.48996125,89L163.582959375,89L163.6759575,89L163.86195375,89L163.9084528125,89L164.04795,89L164.326944375,89L164.4199425,89L164.5594396875,89L164.93143218749998,89L165.02443031250002,89L165.070929375,89L165.1174284375,89L165.4894209375,89L166.18690687499998,89L166.279905,89L166.372903125,89L166.46590125,89L166.55889937499998,89L166.9773909375,89L167.1633871875,89L167.767875,89L167.95387125000002,89L168.8373534375,89L169.534839375,89L169.5813384375,89L169.8603328125,89L169.906831875,89L169.99983,89L170.13932718750002,89L170.37182249999998,89L170.51131968750002,89L170.55781875,89L170.650816875,89L171.394801875,89L171.72029531249999,89L171.9062915625,89L172.231785,89L172.2782840625,89L172.60377749999998,89L172.7432746875,89L173.85925218749998,89L173.99874937500002,89L174.32424281250002,89L174.46374,89L174.5102390625,89L174.60323718749999,89L174.64973625,89L174.9752296875,89L175.0682278125,89L175.5797175,89L175.8122128125,89L176.230704375,89L176.3237025,89L176.41670062499998,89L176.602696875,89L176.7421940625,89L177.346681875,89L177.3931809375,89L177.43968,89L177.71867437499998,89L178.09066687499998,89L178.36966125,89L178.41616031249998,89L178.462659375,89L178.648655625,89L178.8811509375,89L179.206644375,89L179.578636875,89L179.764633125,89L179.950629375,89L180.0436275,89L180.322621875,89L180.4621190625,89L180.5551171875,89L180.64811531249998,89L180.74111343750002,89L180.880610625,89L181.1131059375,89L181.67109468750002,89L181.90358999999998,89L182.1360853125,89L182.97306843750002,89L183.1590646875,89L183.29856187500002,89L183.53105718749998,89L183.8100515625,89L183.856550625,89L184.042546875,89L184.135545,89L184.414539375,89L184.46103843749998,89L184.7400328125,89L185.06552625,89L185.344520625,89L185.4840178125,89L185.76301218749998,89L186.274501875,89L186.3675,89L186.6929934375,89L186.832490625,89L186.9719878125,89L187.06498593749998,89L187.29748125,89L188.04146625,89L188.134464375,89L188.1809634375,89L188.36695968749999,89L188.41345875000002,89L188.599455,89L188.692453125,89L188.9714475,89L189.0179465625,89L189.34344000000002,89L189.90142875,89L190.1339240625,89L190.27342125,89L190.6919128125,89L190.738411875,89L191.01740625000002,89L191.0639053125,89L191.7148921875,89L191.90088843750002,89L191.9938865625,89L192.0868846875,89L192.22638187500002,89L192.3658790625,89L192.784370625,89L193.06336499999998,89L193.156363125,89L193.6678528125,89L193.714351875,89L193.99334625,89L194.31883968749997,89L195.4348171875,89L195.574314375,89L195.7138115625,89L195.8068096875,89L196.78329,89L196.9227871875,89L197.1087834375,89L197.1552825,89L197.2017815625,89L197.4807759375,89L197.62027312499998,89L197.71327125,89L198.1317628125,89L198.31775906250002,89L198.45725625,89L198.68975156250002,89L199.06174406250003,89L199.2477403125,89L199.3407384375,89L199.4337365625,89L200.038224375,89L200.1312225,89L200.2707196875,89L200.8287084375,89L201.0147046875,89L201.24720000000002,89L201.340198125,89L201.80518875,89L201.898186875,89L201.991185,89L202.5956728125,89L202.87466718750002,89L203.3396578125,89L203.572153125,89L203.8976465625,89L204.03714374999998,89L204.130141875,89L205.06012312500002,89L205.1066221875,89L205.15312125,89L205.3856165625,89L205.4786146875,89L205.7576090625,89L205.9436053125,89L206.31559781250002,89L206.36209687500002,89L206.59459218749998,89L206.64109125,89L206.8270875,89L207.3385771875,89L207.61757156250002,89L207.8965659375,89L208.036063125,89L208.54755281250002,89L208.7335490625,89L208.91954531250002,89L209.0125434375,89L209.24503875,89L209.431035,89L209.6635303125,89L209.896025625,89L210.08202187499998,89L210.1285209375,89L210.22151906250002,89L210.640010625,89L210.6865096875,89L211.197999375,89L211.2909975,89L211.33749656249998,89L211.66299,89L211.755988125,89L211.8024871875,89L211.84898625000002,89L211.8954853125,89L212.0814815625,89L212.1744796875,89L213.1974590625,89L213.33695625,89L213.98794312500002,89L214.2204384375,89L214.26693749999998,89L214.359935625,89L214.731928125,89L214.96442343750002,89L215.28991687500002,89L216.59189062500002,89L216.9173840625,89L217.42887375,89L217.6613690625,89L218.079860625,89L218.12635968749998,89L218.5913503125,89L218.63784937499997,89L218.6843484375,89L218.77734656250001,89L218.8703446875,89L218.9633428125,89L219.00984187499998,89L219.05634093749998,89L219.14933906250002,89L219.9863221875,89L220.2188175,89L220.45131281250002,89L220.59081,89L220.7303071875,89L220.9628025,89L221.4742921875,89L221.89278375,89L222.0322809375,89L222.07878000000002,89L222.49727156249998,89L222.7762659375,89L223.473751875,89L223.5202509375,89L223.7992453125,89L223.9852415625,89L224.12473874999998,89L224.403733125,89L224.49673124999998,89L224.9152228125,89L225.1012190625,89L225.3802134375,89L225.61270875,89L225.891703125,89L226.077699375,89L226.31019468750003,89L226.635688125,89L226.82168437500002,89L227.2401759375,89L227.379673125,89L227.937661875,89L228.2631553125,89L228.4026525,89L228.49565062500002,89L228.5421496875,89L228.7281459375,89L228.774645,89L228.8211440625,89L229.37913281250002,89L229.65812718749999,89L229.70462625,89L229.797624375,89L230.0301196875,89L230.07661875,89L230.2161159375,89L230.4951103125,89L230.68110656250002,89L231.0066,89L231.471590625,89L231.750585,89L231.93658125000002,89L232.0760784375,89L232.4480709375,89L232.5410690625,89L233.14555687499998,89L233.331553125,89L233.3780521875,89L234.261534375,89L234.3080334375,89L234.447530625,89L234.77302406249999,89L234.86602218750002,89L235.2380146875,89L235.3310128125,89L235.377511875,89L235.9819996875,89L236.0749978125,89L236.121496875,89L236.5399884375,89L236.679485625,89L236.77248375,89L237.1909753125,89L237.33047249999998,89L237.42347062500002,89L237.51646875,89L238.0744575,89L238.8649415625,89L239.097436875,89L239.5624275,89L239.84142187499998,89L240.1669153125,89L240.4459096875,89L240.5389078125,89L240.7249040625,89L241.0503975,89L241.0968965625,89L241.14339562499998,89L241.60838625,89L242.35237125,89L242.5848665625,89L242.817361875,89L243.0498571875,89L243.09635625,89L243.189354375,89L243.32885156249998,89L243.7938421875,89L243.9798384375,89L244.0263375,89L244.305331875,89L244.491328125,89L244.5378271875,89L244.9098196875,89L245.00281781249998,89L245.049316875,89L245.09581593750002,89L245.1888140625,89L245.32831124999998,89L245.3748103125,89L245.421309375,89L245.4678084375,89L245.6538046875,89L245.7468028125,89L245.88629999999998,89L245.93279906249998,89L245.979298125,89L246.02579718750002,89L246.1187953125,89L246.25829249999998,89L246.3047915625,89L246.5837859375,89L246.8627803125,89L246.95577843750002,89L247.095275625,89L247.65326437500002,89L248.025256875,89L248.07175593749997,89L248.118255,89L248.397249375,89L248.7227428125,89L248.95523812500002,89L249.2807315625,89L249.4667278125,89L249.699223125,89L249.88521937500002,89L250.16421375,89L250.25721187500002,89L250.3967090625,89L250.7222025,89L251.00119687499998,89L251.14069406250002,89L251.2336921875,89L251.28019125,89L251.51268656250002,89" style="fill: none;" fill="none"></path></g></g></g></g><g opacity="0.2"><g><g><g><path stroke="rgb(238, 51, 119)" stroke-width="2px" d="M23.899775625,89L24.5042634375,89L24.783257812499997,89L25.5272428125,89L25.6202409375,89L25.759738125000002,89L25.852736250000003,89L26.131730625,89L26.271227812499998,89L26.968713750000003,89L27.1082109375,89L27.340706249999997,89L27.712698749999998,89L28.0381921875,89L28.410184687500003,89L28.549681875,89L28.5961809375,89L28.921674375,89L29.154169687499998,89L29.5261621875,89L30.13065,89L30.6421396875,89L30.874635,89L31.0141321875,89L31.432623749999998,89L31.479122812499998,89L31.9441134375,89L32.17660875,89L32.269606875,89L32.3161059375,89L32.5021021875,89L32.8740946875,89L33.2460871875,89L33.29258625,89L33.5250815625,89L34.03657125,89L34.315565625,89L34.5480609375,89L34.687558125,89L35.245546874999995,89L35.52454125,89L35.7570365625,89L36.08253,89L36.26852625,89L36.361524375,89L37.2450065625,89L37.477501874999994,89L37.5240009375,89L37.75649625,89L37.9889915625,89L38.0819896875,89L38.453982187499996,89L38.50048125,89L38.8259746875,89L39.0119709375,89L39.430462500000004,89L39.802455,89L40.54644,89L40.73243625,89L41.011430624999996,89L41.197426875,89L41.290425,89L43.243385624999995,89L43.2898846875,89L43.3828828125,89L43.6618771875,89L44.08036875,89L44.173366875,89L44.2198659375,89L44.359363125,89L44.638357500000005,89L45.0568490625,89L45.196346250000005,89L45.2428453125,89L45.7078359375,89L46.49832,89L46.591318125,89L47.242305,89L47.4748003125,89L47.5677984375,89L47.707295625,89L48.079288125,89L48.358282499999994,89L48.451280624999995,89L48.5907778125,89L48.8697721875,89L49.102267499999996,89L49.567258125,89L49.8462525,89L50.125246875,89L50.311243125000004,89L50.5902375,89L50.683235625,89L50.729734687500006,89L50.82273281249999,89L50.915730937499994,89L50.96223,89L51.1947253125,89L51.241224374999994,89L51.659715937499996,89L51.9387103125,89L52.0317084375,89L52.26420375,89L52.4966990625,89L52.5896971875,89L53.1476859375,89L53.473179374999994,89L53.5196784375,89L53.6126765625,89L53.7056746875,89L53.75217375,89L53.845171875,89L54.403160625,89L54.542657812499996,89L54.7286540625,89L54.86815125,89L55.0076484375,89L55.193644687500004,89L55.24014375,89L55.426140000000004,89L55.6586353125,89L55.705134375,89L56.170125,89L56.356121249999994,89L56.4956184375,89L56.8676109375,89L57.0536071875,89L57.193104375,89L57.2396034375,89L57.2861025,89L57.6115959375,89L57.8905903125,89L57.9835884375,89L58.0300875,89L58.21608375,89L58.402080000000005,89L58.5415771875,89L58.58807625,89L58.634575312500004,89L58.8205715625,89L59.239063124999994,89L59.425059375,89L59.4715584375,89L59.5180575,89L59.611055625,89L59.657554687499996,89L59.9365490625,89L60.1225453125,89L60.169044375,89L60.2620425,89L60.355040625,89L60.4945378125,89L60.541036875,89L60.5875359375,89L60.634035000000004,89L60.7735321875,89L60.959528437500005,89L61.192023750000004,89L61.2385228125,89L61.285021875000005,89L61.564016249999995,89L62.3545003125,89L62.540496562499996,89L62.6334946875,89L62.865990000000004,89L63.9819675,89L64.074965625,89L64.3074609375,89L64.40045906249999,89L64.5864553125,89L64.6794534375,89L65.0514459375,89L65.3304403125,89L65.5164365625,89L65.84193,89L65.934928125,89L66.2139225,89L66.306920625,89L66.4464178125,89L66.492916875,89L66.585915,89L66.95790749999999,89L67.0044065625,89L67.14390374999999,89L67.4693971875,89L67.60889437499999,89L68.0273859375,89L68.2133821875,89L68.352879375,89L68.3993784375,89L68.81787,89L68.8643690625,89L69.0503653125,89L69.096864375,89L69.1433634375,89L69.1898625,89L69.37585875,89L69.42235781250001,89L69.561855,89L69.6083540625,89L69.9803465625,89L70.16634281249999,89L70.2593409375,89L70.3523390625,89L70.39883812500001,89L70.8173296875,89L70.95682687499999,89L71.328819375,89L71.42181749999999,89L71.60781374999999,89L71.6543128125,89L71.886808125,89L72.2123015625,89L72.72379124999999,89L72.816789375,89L73.09578375,89L73.23528093750001,89L73.3282790625,89L73.5142753125,89L73.70027156249999,89L73.79326968749999,89L74.025765,89L74.0722640625,89L74.118763125,89L74.490755625,89L74.76975,89L74.95574625,89L75.0022453125,89L75.048744375,89L75.46723593749999,89L75.69973125,89L76.35071812499999,89L76.44371625,89L77.37369749999999,89L77.42019656250001,89L77.6061928125,89L77.652691875,89L77.6991909375,89L78.53617406250001,89L78.768669375,89L79.09416281249999,89L79.140661875,89L79.41965625,89L79.512654375,89L79.74514968749999,89L79.8381478125,89L80.1171421875,89L80.9541253125,89L81.0471234375,89L81.1401215625,89L81.5121140625,89L81.65161124999999,89L82.02360374999999,89L82.1631009375,89L82.30259812499999,89L82.9070859375,89L83.232579375,89L83.51157375,89L83.69757,89L83.790568125,89L83.83706718750001,89L84.11606156250001,89L84.58105218749999,89L84.8135475,89L84.86004656249999,89L84.99954375,89L85.278538125,89L85.37153625,89L85.51103343749999,89L85.650530625,89L85.7900278125,89L85.836526875,89L86.67351000000001,89L87.3709959375,89L88.06848187499999,89L88.2079790625,89L88.25447812499999,89L88.34747625,89L88.3939753125,89L89.370455625,89L89.41695468750001,89L89.64945,89L89.7889471875,89L89.97494343749999,89L90.0679415625,89L90.2539378125,89L90.4399340625,89L90.62593031249999,89L91.788406875,89L91.8349059375,89L92.34639562499999,89L92.71838812499999,89L92.76488718750001,89L92.90438437499999,89L92.9973825,89L93.0438815625,89L93.462373125,89L93.7878665625,89L94.4853525,89L94.53185156250001,89L94.67134874999999,89L94.9968421875,89L95.5548309375,89L95.78732625,89L95.8338253125,89L95.92682343749999,89L96.252316875,89L96.57781031249999,89L96.62430937500001,89L97.0428009375,89L97.22879718749999,89L97.3217953125,89L97.5077915625,89L97.926283125,89L98.2517765625,89L98.29827562499999,89L98.53077093750001,89L98.9027634375,89L99.321255,89L99.36775406250001,89L99.5537503125,89L99.78624562499999,89L99.9257428125,89L100.01874093750001,89L100.158238125,89L100.29773531250001,89L100.4837315625,89L100.85572406249999,89L101.22771656249999,89L101.4137128125,89L101.55321,89L101.5997090625,89L101.8787034375,89L101.9252025,89L102.297195,89L102.48319125,89L102.5296903125,89L102.57618937500001,89L102.6691875,89L102.8086846875,89L103.13417812499999,89L103.1806771875,89L103.5526696875,89L103.59916874999999,89L104.0176603125,89L104.2036565625,89L104.29665468750001,89L104.436151875,89L104.6686471875,89L104.71514625,89L104.808144375,89L104.8546434375,89L104.90114249999999,89L105.13363781250001,89L105.7846246875,89L106.20311625000001,89L106.482110625,89L106.80760406249999,89L106.85410312500001,89L107.2725946875,89L107.598088125,89L108.0165796875,89L108.15607687500001,89L108.4815703125,89L108.5745684375,89L108.76056468750001,89L109.2255553125,89L109.272054375,89L109.41155156250001,89L109.644046875,89L109.830043125,89L110.4345309375,89L110.52752906250001,89L110.574028125,89L110.8530225,89L110.89952156250001,89L110.946020625,89L111.03901875,89L111.690005625,89L112.52698875,89L112.80598312500001,89L113.1314765625,89L113.4104709375,89L113.5964671875,89L113.6894653125,89L113.7824634375,89L114.0614578125,89L114.200955,89L114.29395312499999,89L114.4334503125,89L114.5729475,89L114.7124446875,89L115.13093624999999,89L115.223934375,89L115.78192312499999,89L115.82842218750001,89L115.87492125,89L116.525908125,89L116.711904375,89L116.897900625,89L117.08389687500001,89L117.1303959375,89L117.269893125,89L117.36289125,89L117.455889375,89L117.827881875,89L117.92088000000001,89L118.0603771875,89L118.19987437500001,89L118.33937156249999,89L118.4323696875,89L118.57186687500001,89L118.7113640625,89L119.4553490625,89L119.78084249999999,89L120.0133378125,89L120.059836875,89L120.1063359375,89L120.1993340625,89L120.24583312499999,89L120.33883125,89L120.43182937499999,89L120.617825625,89L120.803821875,89L121.0363171875,89L121.12931531250001,89L121.45480875,89L121.547806875,89L121.59430593750001,89L121.82680125,89L122.0127975,89L122.2452928125,89L122.33829093749999,89L122.38479,89L122.84978062500001,89L122.8962796875,89L123.0822759375,89L123.221773125,89L123.3612703125,89L123.407769375,89L123.5472665625,89L123.593765625,89L123.68676375000001,89L123.9192590625,89L123.96575812500001,89L124.2912515625,89L124.33775062500001,89L124.52374687499999,89L124.616745,89L124.70974312499999,89L124.89573937499999,89L125.36072999999999,89L125.453728125,89L125.54672624999999,89L125.59322531250001,89L125.7792215625,89L125.91871875,89L126.29071125,89L126.4767075,89L127.127694375,89L127.313690625,89L127.40668875,89L127.6391840625,89L127.685683125,89L127.77868125,89L127.871679375,89L127.91817843749999,89L128.0111765625,89L128.1041746875,89L128.15067375,89L128.47616718749998,89L128.615664375,89L128.8481596875,89L129.4061484375,89L129.5921446875,89L129.731641875,89L130.1966325,89L130.475626875,89L130.5221259375,89L130.6151240625,89L130.75462124999999,89L130.8941184375,89L130.9406175,89L130.9871165625,89L131.4521071875,89L131.49860625,89L131.5451053125,89L131.6381034375,89L132.1960921875,89L132.24259125,89L132.2890903125,89L132.335589375,89L132.707581875,89L133.1260734375,89L133.9165575,89L134.567544375,89L134.753540625,89L134.8000396875,89L134.8930378125,89L135.2650303125,89L135.3580284375,89L135.5440246875,89L136.0090153125,89L136.3810078125,89L136.427506875,89L136.9389965625,89L137.3109890625,89L137.5899834375,89L137.6364825,89L137.729480625,89L137.82247875,89L138.05497406249998,89L138.93845625,89L139.217450625,89L139.2639496875,89L139.7289403125,89L139.82193843750002,89L139.961435625,89L140.0079346875,89L140.05443375,89L140.519424375,89L140.56592343749998,89L140.70542062500002,89L140.98441499999998,89L141.2169103125,89L141.30990843749998,89L141.4029065625,89L141.4959046875,89L141.91439625,89L142.1003925,89L142.28638875,89L142.37938687500002,89L142.5188840625,89L142.93737562500002,89L142.9838746875,89L143.16987093749998,89L143.4488653125,89L143.54186343749998,89L144.0998521875,89L144.14635125,89L144.1928503125,89L144.239349375,89L144.3788465625,89L144.56484281250002,89L144.8438371875,89L144.89033625000002,89L145.0298334375,89L145.4018259375,89L145.63432125,89L145.7738184375,89L145.913315625,89L145.9598146875,89L146.2388090625,89L146.3318071875,89L146.6108015625,89L146.75029875,89L146.8897959375,89L146.936295,89L147.12229125000002,89L148.0057734375,89L148.1917696875,89L148.28476781249998,89L148.517263125,89L148.74975843750002,89L149.35424625,89L149.54024249999998,89L149.67973968750002,89L150.377225625,89L150.8887153125,89L150.93521437500002,89L151.0747115625,89L151.3537059375,89L151.679199375,89L151.72569843749997,89L151.7721975,89L151.8186965625,89L151.865195625,89L151.9116946875,89L152.2836871875,89L153.353165625,89L153.39966468749998,89L153.44616375,89L153.77165718749998,89L154.28314687499997,89L154.376145,89L154.93413375,89L154.9806328125,89L155.12013000000002,89L155.213128125,89L155.2596271875,89L155.3526253125,89L156.2361075,89L156.46860281250002,89L156.6081,89L156.7475971875,89L157.16608875,89L157.21258781249998,89L157.4915821875,89L157.58458031249998,89L157.63107937499998,89L157.91007375,89L158.0495709375,89L158.3285653125,89L158.4215634375,89L158.51456156249998,89L158.65405875000002,89L159.0725503125,89L159.305045625,89L159.39804374999997,89L159.4445428125,89L159.491041875,89L160.0025315625,89L160.4675221875,89L160.8395146875,89L161.62999875,89L161.95549218750003,89L162.00199125,89L162.1414884375,89L162.6064790625,89L162.8854734375,89L163.07146968749998,89L163.303965,89L163.396963125,89L163.48996125,89L163.582959375,89L163.6759575,89L163.86195375,89L163.9084528125,89L164.04795,89L164.326944375,89L164.4199425,89L164.5594396875,89L164.93143218749998,89L165.02443031250002,89L165.070929375,89L165.1174284375,89L165.4894209375,89L166.18690687499998,89L166.279905,89L166.372903125,89L166.46590125,89L166.55889937499998,89L166.9773909375,89L167.1633871875,89L167.767875,89L167.95387125000002,89L168.8373534375,89L169.534839375,89L169.5813384375,89L169.8603328125,89L169.906831875,89L169.99983,89L170.13932718750002,89L170.37182249999998,89L170.51131968750002,89L170.55781875,89L170.650816875,89L171.394801875,89L171.72029531249999,89L171.9062915625,89L172.231785,89L172.2782840625,89L172.60377749999998,89L172.7432746875,89L173.85925218749998,89L173.99874937500002,89L174.32424281250002,89L174.46374,89L174.5102390625,89L174.60323718749999,89L174.64973625,89L174.9752296875,89L175.0682278125,89L175.5797175,89L175.8122128125,89L176.230704375,89L176.3237025,89L176.41670062499998,89L176.602696875,89L176.7421940625,89L177.346681875,89L177.3931809375,89L177.43968,89L177.71867437499998,89L178.09066687499998,89L178.36966125,89L178.41616031249998,89L178.462659375,89L178.648655625,89L178.8811509375,89L179.206644375,89L179.578636875,89L179.764633125,89L179.950629375,89L180.0436275,89L180.322621875,89L180.4621190625,89L180.5551171875,89L180.64811531249998,89L180.74111343750002,89L180.880610625,89L181.1131059375,89L181.67109468750002,89L181.90358999999998,89L182.1360853125,89L182.97306843750002,89L183.1590646875,89L183.29856187500002,89L183.53105718749998,89L183.8100515625,89L183.856550625,89L184.042546875,89L184.135545,89L184.414539375,89L184.46103843749998,89L184.7400328125,89L185.06552625,89L185.344520625,89L185.4840178125,89L185.76301218749998,89L186.274501875,89L186.3675,89L186.6929934375,89L186.832490625,89L186.9719878125,89L187.06498593749998,89L187.29748125,89L188.04146625,89L188.134464375,89L188.1809634375,89L188.36695968749999,89L188.41345875000002,89L188.599455,89L188.692453125,89L188.9714475,89L189.0179465625,89L189.34344000000002,89L189.90142875,89L190.1339240625,89L190.27342125,89L190.6919128125,89L190.738411875,89L191.01740625000002,89L191.0639053125,89L191.7148921875,89L191.90088843750002,89L191.9938865625,89L192.0868846875,89L192.22638187500002,89L192.3658790625,89L192.784370625,89L193.06336499999998,89L193.156363125,89L193.6678528125,89L193.714351875,89L193.99334625,89L194.31883968749997,89L195.4348171875,89L195.574314375,89L195.7138115625,89L195.8068096875,89L196.78329,89L196.9227871875,89L197.1087834375,89L197.1552825,89L197.2017815625,89L197.4807759375,89L197.62027312499998,89L197.71327125,89L198.1317628125,89L198.31775906250002,89L198.45725625,89L198.68975156250002,89L199.06174406250003,89L199.2477403125,89L199.3407384375,89L199.4337365625,89L200.038224375,89L200.1312225,89L200.2707196875,89L200.8287084375,89L201.0147046875,89L201.24720000000002,89L201.340198125,89L201.80518875,89L201.898186875,89L201.991185,89L202.5956728125,89L202.87466718750002,89L203.3396578125,89L203.572153125,89L203.8976465625,89L204.03714374999998,89L204.130141875,89L205.06012312500002,89L205.1066221875,89L205.15312125,89L205.3856165625,89L205.4786146875,89L205.7576090625,89L205.9436053125,89L206.31559781250002,89L206.36209687500002,89L206.59459218749998,89L206.64109125,89L206.8270875,89L207.3385771875,89L207.61757156250002,89L207.8965659375,89L208.036063125,89L208.54755281250002,89L208.7335490625,89L208.91954531250002,89L209.0125434375,89L209.24503875,89L209.431035,89L209.6635303125,89L209.896025625,89L210.08202187499998,89L210.1285209375,89L210.22151906250002,89L210.640010625,89L210.6865096875,89L211.197999375,89L211.2909975,89L211.33749656249998,89L211.66299,89L211.755988125,89L211.8024871875,89L211.84898625000002,89L211.8954853125,89L212.0814815625,89L212.1744796875,89L213.1974590625,89L213.33695625,89L213.98794312500002,89L214.2204384375,89L214.26693749999998,89L214.359935625,89L214.731928125,89L214.96442343750002,89L215.28991687500002,89L216.59189062500002,89L216.9173840625,89L217.42887375,89L217.6613690625,89L218.079860625,89L218.12635968749998,89L218.5913503125,89L218.63784937499997,89L218.6843484375,89L218.77734656250001,89L218.8703446875,89L218.9633428125,89L219.00984187499998,89L219.05634093749998,89L219.14933906250002,89L219.9863221875,89L220.2188175,89L220.45131281250002,89L220.59081,89L220.7303071875,89L220.9628025,89L221.4742921875,89L221.89278375,89L222.0322809375,89L222.07878000000002,89L222.49727156249998,89L222.7762659375,89L223.473751875,89L223.5202509375,89L223.7992453125,89L223.9852415625,89L224.12473874999998,89L224.403733125,89L224.49673124999998,89L224.9152228125,89L225.1012190625,89L225.3802134375,89L225.61270875,89L225.891703125,89L226.077699375,89L226.31019468750003,89L226.635688125,89L226.82168437500002,89L227.2401759375,89L227.379673125,89L227.937661875,89L228.2631553125,89L228.4026525,89L228.49565062500002,89L228.5421496875,89L228.7281459375,89L228.774645,89L228.8211440625,89L229.37913281250002,89L229.65812718749999,89L229.70462625,89L229.797624375,89L230.0301196875,89L230.07661875,89L230.2161159375,89L230.4951103125,89L230.68110656250002,89L231.0066,89L231.471590625,89L231.750585,89L231.93658125000002,89L232.0760784375,89L232.4480709375,89L232.5410690625,89L233.14555687499998,89L233.331553125,89L233.3780521875,89L234.261534375,89L234.3080334375,89L234.447530625,89L234.77302406249999,89L234.86602218750002,89L235.2380146875,89L235.3310128125,89L235.377511875,89L235.9819996875,89L236.0749978125,89L236.121496875,89L236.5399884375,89L236.679485625,89L236.77248375,89L237.1909753125,89L237.33047249999998,89L237.42347062500002,89L237.51646875,89L238.0744575,89L238.8649415625,89L239.097436875,89L239.5624275,89L239.84142187499998,89L240.1669153125,89L240.4459096875,89L240.5389078125,89L240.7249040625,89L241.0503975,89L241.0968965625,89L241.14339562499998,89L241.60838625,89L242.35237125,89L242.5848665625,89L242.817361875,89L243.0498571875,89L243.09635625,89L243.189354375,89L243.32885156249998,89L243.7938421875,89L243.9798384375,89L244.0263375,89L244.305331875,89L244.491328125,89L244.5378271875,89L244.9098196875,89L245.00281781249998,89L245.049316875,89L245.09581593750002,89L245.1888140625,89L245.32831124999998,89L245.3748103125,89L245.421309375,89L245.4678084375,89L245.6538046875,89L245.7468028125,89L245.88629999999998,89L245.93279906249998,89L245.979298125,89L246.02579718750002,89L246.1187953125,89L246.25829249999998,89L246.3047915625,89L246.5837859375,89L246.8627803125,89L246.95577843750002,89L247.095275625,89L247.65326437500002,89L248.025256875,89L248.07175593749997,89L248.118255,89L248.397249375,89L248.7227428125,89L248.95523812500002,89L249.2807315625,89L249.4667278125,89L249.699223125,89L249.88521937500002,89L250.16421375,89L250.25721187500002,89L250.3967090625,89L250.7222025,89L251.00119687499998,89L251.14069406250002,89L251.2336921875,89L251.28019125,89L251.51268656250002,89" style="fill: none;" fill="none"></path></g></g></g></g></g><g><g opacity="0.845454"><span fill="rgb(0, 0, 0)" stroke="none" stroke-width="1px">Alt + Scroll to Zoom</span></g></g></g><g transform="translate(51, 178)" clip-path="url(#clip_1)"><clipPath id="clip_1"><rect width="278" height="22"></rect></clipPath><g><g><line x1="0" y1="0" x2="0" y2="5" style="visibility: inherit;" fill="rgb(0, 0, 0)" stroke="rgb(204, 204, 204)" stroke-width="1px"></line><line x1="23.203125" y1="0" x2="23.203125" y2="5" style="visibility: inherit;" fill="rgb(0, 0, 0)" stroke="rgb(204, 204, 204)" stroke-width="1px"></line><line x1="46.40625" y1="0" x2="46.40625" y2="5" style="visibility: inherit;" fill="rgb(0, 0, 0)" stroke="rgb(204, 204, 204)" stroke-width="1px"></line><line x1="69.609375" y1="0" x2="69.609375" y2="5" style="visibility: inherit;" fill="rgb(0, 0, 0)" stroke="rgb(204, 204, 204)" stroke-width="1px"></line><line x1="92.8125" y1="0" x2="92.8125" y2="5" style="visibility: inherit;" fill="rgb(0, 0, 0)" stroke="rgb(204, 204, 204)" stroke-width="1px"></line><line x1="116.015625" y1="0" x2="116.015625" y2="5" style="visibility: inherit;" fill="rgb(0, 0, 0)" stroke="rgb(204, 204, 204)" stroke-width="1px"></line><line x1="139.21875" y1="0" x2="139.21875" y2="5" style="visibility: inherit;" fill="rgb(0, 0, 0)" stroke="rgb(204, 204, 204)" stroke-width="1px"></line><line x1="162.421875" y1="0" x2="162.421875" y2="5" style="visibility: inherit;" fill="rgb(0, 0, 0)" stroke="rgb(204, 204, 204)" stroke-width="1px"></line><line x1="185.625" y1="0" x2="185.625" y2="5" style="visibility: inherit;" fill="rgb(0, 0, 0)" stroke="rgb(204, 204, 204)" stroke-width="1px"></line><line x1="208.828125" y1="0" x2="208.828125" y2="5" style="visibility: inherit;" fill="rgb(0, 0, 0)" stroke="rgb(204, 204, 204)" stroke-width="1px"></line><line x1="232.03125" y1="0" x2="232.03125" y2="5" style="visibility: inherit;" fill="rgb(0, 0, 0)" stroke="rgb(204, 204, 204)" stroke-width="1px"></line><line x1="255.234375" y1="0" x2="255.234375" y2="5" style="visibility: inherit;" fill="rgb(0, 0, 0)" stroke="rgb(204, 204, 204)" stroke-width="1px"></line><line x1="278.4375" y1="0" x2="278.4375" y2="5" style="visibility: inherit;" fill="rgb(0, 0, 0)" stroke="rgb(204, 204, 204)" stroke-width="1px"></line></g><g transform="translate(0, 8)"><text x="0" y="0" dx="0em" dy="0.95em" style="text-anchor: middle; visibility: hidden; font-family: Roboto, sans-serif; font-size: 12px; font-weight: 200;" fill="rgb(50, 49, 63)" stroke="none" stroke-width="1px">-500k</text><text x="23.203125" y="0" dx="0em" dy="0.95em" style="text-anchor: middle; visibility: inherit; font-family: Roboto, sans-serif; font-size: 12px; font-weight: 200;" fill="rgb(50, 49, 63)" stroke="none" stroke-width="1px">0</text><text x="46.40625" y="0" dx="0em" dy="0.95em" style="text-anchor: middle; visibility: hidden; font-family: Roboto, sans-serif; font-size: 12px; font-weight: 200;" fill="rgb(50, 49, 63)" stroke="none" stroke-width="1px">500k</text><text x="69.609375" y="0" dx="0em" dy="0.95em" style="text-anchor: middle; visibility: inherit; font-family: Roboto, sans-serif; font-size: 12px; font-weight: 200;" fill="rgb(50, 49, 63)" stroke="none" stroke-width="1px">1M</text><text x="92.8125" y="0" dx="0em" dy="0.95em" style="text-anchor: middle; visibility: hidden; font-family: Roboto, sans-serif; font-size: 12px; font-weight: 200;" fill="rgb(50, 49, 63)" stroke="none" stroke-width="1px">1.5M</text><text x="116.015625" y="0" dx="0em" dy="0.95em" style="text-anchor: middle; visibility: inherit; font-family: Roboto, sans-serif; font-size: 12px; font-weight: 200;" fill="rgb(50, 49, 63)" stroke="none" stroke-width="1px">2M</text><text x="139.21875" y="0" dx="0em" dy="0.95em" style="text-anchor: middle; visibility: hidden; font-family: Roboto, sans-serif; font-size: 12px; font-weight: 200;" fill="rgb(50, 49, 63)" stroke="none" stroke-width="1px">2.5M</text><text x="162.421875" y="0" dx="0em" dy="0.95em" style="text-anchor: middle; visibility: inherit; font-family: Roboto, sans-serif; font-size: 12px; font-weight: 200;" fill="rgb(50, 49, 63)" stroke="none" stroke-width="1px">3M</text><text x="185.625" y="0" dx="0em" dy="0.95em" style="text-anchor: middle; visibility: hidden; font-family: Roboto, sans-serif; font-size: 12px; font-weight: 200;" fill="rgb(50, 49, 63)" stroke="none" stroke-width="1px">3.5M</text><text x="208.828125" y="0" dx="0em" dy="0.95em" style="text-anchor: middle; visibility: inherit; font-family: Roboto, sans-serif; font-size: 12px; font-weight: 200;" fill="rgb(50, 49, 63)" stroke="none" stroke-width="1px">4M</text><text x="232.03125" y="0" dx="0em" dy="0.95em" style="text-anchor: middle; visibility: hidden; font-family: Roboto, sans-serif; font-size: 12px; font-weight: 200;" fill="rgb(50, 49, 63)" stroke="none" stroke-width="1px">4.5M</text><text x="255.234375" y="0" dx="0em" dy="0.95em" style="text-anchor: middle; visibility: inherit; font-family: Roboto, sans-serif; font-size: 12px; font-weight: 200;" fill="rgb(50, 49, 63)" stroke="none" stroke-width="1px">5M</text><text x="278.4375" y="0" dx="0em" dy="0.95em" style="text-anchor: middle; visibility: hidden; font-family: Roboto, sans-serif; font-size: 12px; font-weight: 200;" fill="rgb(50, 49, 63)" stroke="none" stroke-width="1px">5.5M</text></g><line x1="0" y1="0" x2="278.4375" y2="0" fill="rgb(0, 0, 0)" stroke="rgb(204, 204, 204)" stroke-width="1px"></line></g></g></g></g></svg>