<svg viewBox="0 0 330 200" xmlns="http://www.w3.org/2000/svg"><g><g><g><g><g><line x1="41.171875" y1="178" x2="36.171875" y2="178" style="visibility: inherit;" fill="rgb(0, 0, 0)" stroke="rgb(204, 204, 204)" stroke-width="1px"></line><line x1="41.171875" y1="161.8181818181818" x2="36.171875" y2="161.8181818181818" style="visibility: inherit;" fill="rgb(0, 0, 0)" stroke="rgb(204, 204, 204)" stroke-width="1px"></line><line x1="41.171875" y1="145.63636363636363" x2="36.171875" y2="145.63636363636363" style="visibility: inherit;" fill="rgb(0, 0, 0)" stroke="rgb(204, 204, 204)" stroke-width="1px"></line><line x1="41.171875" y1="129.45454545454547" x2="36.171875" y2="129.45454545454547" style="visibility: inherit;" fill="rgb(0, 0, 0)" stroke="rgb(204, 204, 204)" stroke-width="1px"></line><line x1="41.171875" y1="113.27272727272727" x2="36.171875" y2="113.27272727272727" style="visibility: inherit;" fill="rgb(0, 0, 0)" stroke="rgb(204, 204, 204)" stroke-width="1px"></line><line x1="41.171875" y1="97.09090909090908" x2="36.171875" y2="97.09090909090908" style="visibility: inherit;" fill="rgb(0, 0, 0)" stroke="rgb(204, 204, 204)" stroke-width="1px"></line><line x1="41.171875" y1="80.90909090909092" x2="36.171875" y2="80.90909090909092" style="visibility: inherit;" fill="rgb(0, 0, 0)" stroke="rgb(204, 204, 204)" stroke-width="1px"></line><line x1="41.171875" y1="64.72727272727273" x2="36.171875" y2="64.72727272727273" style="visibility: inherit;" fill="rgb(0, 0, 0)" stroke="rgb(204, 204, 204)" stroke-width="1px"></line><line x1="41.171875" y1="48.54545454545454" x2="36.171875" y2="48.54545454545454" style="visibility: inherit;" fill="rgb(0, 0, 0)" stroke="rgb(204, 204, 204)" stroke-width="1px"></line><line x1="41.171875" y1="32.36363636363635" x2="36.171875" y2="32.36363636363635" style="visibility: inherit;" fill="rgb(0, 0, 0)" stroke="rgb(204, 204, 204)" stroke-width="1px"></line><line x1="41.171875" y1="16.181818181818187" x2="36.171875" y2="16.181818181818187" style="visibility: inherit;" fill="rgb(0, 0, 0)" stroke="rgb(204, 204, 204)" stroke-width="1px"></line><line x1="41.171875" y1="0" x2="36.171875" y2="0" style="visibility: inherit;" fill="rgb(0, 0, 0)" stroke="rgb(204, 204, 204)" stroke-width="1px"></line></g><g transform="translate(31.171875, 0)"><text x="0" y="178" dx="0em" dy="0.3em" style="text-anchor: end; visibility: hidden; font-family: Roboto, sans-serif; font-size: 12px; font-weight: 200;" fill="rgb(50, 49, 63)" stroke="none" stroke-width="1px">590</text><text x="0" y="161.8181818181818" dx="0em" dy="0.3em" style="text-anchor: end; visibility: inherit; font-family: Roboto, sans-serif; font-size: 12px; font-weight: 200;" fill="rgb(50, 49, 63)" stroke="none" stroke-width="1px">592</text><text x="0" y="145.63636363636363" dx="0em" dy="0.3em" style="text-anchor: end; visibility: hidden; font-family: Roboto, sans-serif; font-size: 12px; font-weight: 200;" fill="rgb(50, 49, 63)" stroke="none" stroke-width="1px">594</text><text x="0" y="129.45454545454547" dx="0em" dy="0.3em" style="text-anchor: end; visibility: inherit; font-family: Roboto, sans-serif; font-size: 12px; font-weight: 200;" fill="rgb(50, 49, 63)" stroke="none" stroke-width="1px">596</text><text x="0" y="113.27272727272727" dx="0em" dy="0.3em" style="text-anchor: end; visibility: hidden; font-family: Roboto, sans-serif; font-size: 12px; font-weight: 200;" fill="rgb(50, 49, 63)" stroke="none" stroke-width="1px">598</text><text x="0" y="97.09090909090908" dx="0em" dy="0.3em" style="text-anchor: end; visibility: inherit; font-family: Roboto, sans-serif; font-size: 12px; font-weight: 200;" fill="rgb(50, 49, 63)" stroke="none" stroke-width="1px">600</text><text x="0" y="80.90909090909092" dx="0em" dy="0.3em" style="text-anchor: end; visibility: hidden; font-family: Roboto, sans-serif; font-size: 12px; font-weight: 200;" fill="rgb(50, 49, 63)" stroke="none" stroke-width="1px">602</text><text x="0" y="64.72727272727273" dx="0em" dy="0.3em" style="text-anchor: end; visibility: inherit; font-family: Roboto, sans-serif; font-size: 12px; font-weight: 200;" fill="rgb(50, 49, 63)" stroke="none" stroke-width="1px">604</text><text x="0" y="48.54545454545454" dx="0em" dy="0.3em" style="text-anchor: end; visibility: hidden; font-family: Roboto, sans-serif; font-size: 12px; font-weight: 200;" fill="rgb(50, 49, 63)" stroke="none" stroke-width="1px">606</text><text x="0" y="32.36363636363635" dx="0em" dy="0.3em" style="text-anchor: end; visibility: inherit; font-family: Roboto, sans-serif; font-size: 12px; font-weight: 200;" fill="rgb(50, 49, 63)" stroke="none" stroke-width="1px">608</text><text x="0" y="16.181818181818187" dx="0em" dy="0.3em" style="text-anchor: end; visibility: hidden; font-family: Roboto, sans-serif; font-size: 12px; font-weight: 200;" fill="rgb(50, 49, 63)" stroke="none" stroke-width="1px">610</text><text x="0" y="0" dx="0em" dy="0.3em" style="text-anchor: end; visibility: hidden; font-family: Roboto, sans-serif; font-size: 12px; font-weight: 200;" fill="rgb(50, 49, 63)" stroke="none" stroke-width="1px">612</text></g><line x1="41.171875" y1="0" x2="41.171875" y2="178" fill="rgb(0, 0, 0)" stroke="rgb(204, 204, 204)" stroke-width="1px"></line></g></g><g transform="translate(41, 0)" clip-path="url(#clip_0)"><clipPath id="clip_0"><rect width="288" height="178"></rect></clipPath><g><g><g><line x1="0" y1="0" x2="0" y2="178" fill="rgb(0, 0, 0)" stroke="rgb(60, 60, 60)" stroke-width="1px" opacity="0.25"></line><line x1="24.069010416666664" y1="0" x2="24.069010416666664" y2="178" fill="rgb(0, 0, 0)" stroke="rgb(60, 60, 60)" stroke-width="1px" opacity="0.25"></line><line x1="48.13802083333333" y1="0" x2="48.13802083333333" y2="178" fill="rgb(0, 0, 0)" stroke="rgb(60, 60, 60)" stroke-width="1px" opacity="0.25"></line><line x1="72.20703125" y1="0" x2="72.20703125" y2="178" fill="rgb(0, 0, 0)" stroke="rgb(60, 60, 60)" stroke-width="1px" opacity="0.25"></line><line x1="96.27604166666666" y1="0" x2="96.27604166666666" y2="178" fill="rgb(0, 0, 0)" stroke="rgb(60, 60, 60)" stroke-width="1px" opacity="0.25"></line><line x1="120.34505208333334" y1="0" x2="120.34505208333334" y2="178" fill="rgb(0, 0, 0)" stroke="rgb(60, 60, 60)" stroke-width="1px" opacity="0.25"></line><line x1="144.4140625" y1="0" x2="144.4140625" y2="178" fill="rgb(0, 0, 0)" stroke="rgb(60, 60, 60)" stroke-width="1px" opacity="0.25"></line><line x1="168.48307291666669" y1="0" x2="168.48307291666669" y2="178" fill="rgb(0, 0, 0)" stroke="rgb(60, 60, 60)" stroke-width="1px" opacity="0.25"></line><line x1="192.55208333333331" y1="0" x2="192.55208333333331" y2="178" fill="rgb(0, 0, 0)" stroke="rgb(60, 60, 60)" stroke-width="1px" opacity="0.25"></line><line x1="216.62109375" y1="0" x2="216.62109375" y2="178" fill="rgb(0, 0, 0)" stroke="rgb(60, 60, 60)" stroke-width="1px" opacity="0.25"></line><line x1="240.69010416666669" y1="0" x2="240.69010416666669" y2="178" fill="rgb(0, 0, 0)" stroke="rgb(60, 60, 60)" stroke-width="1px" opacity="0.25"></line><line x1="264.7591145833333" y1="0" x2="264.7591145833333" y2="178" fill="rgb(0, 0, 0)" stroke="rgb(60, 60, 60)" stroke-width="1px" opacity="0.25"></line><line x1="288.828125" y1="0" x2="288.828125" y2="178" fill="rgb(0, 0, 0)" stroke="rgb(60, 60, 60)" stroke-width="1px" opacity="0.25"></line></g><g><line x1="0" y1="178" x2="288.828125" y2="178" fill="rgb(0, 0, 0)" stroke="rgb(60, 60, 60)" stroke-width="1px" opacity="0.25"></line><line x1="0" y1="161.8181818181818" x2="288.828125" y2="161.8181818181818" fill="rgb(0, 0, 0)" stroke="rgb(60, 60, 60)" stroke-width="1px" opacity="0.25"></line><line x1="0" y1="145.63636363636363" x2="288.828125" y2="145.63636363636363" fill="rgb(0, 0, 0)" stroke="rgb(60, 60, 60)" stroke-width="1px" opacity="0.25"></line><line x1="0" y1="129.45454545454547" x2="288.828125" y2="129.45454545454547" fill="rgb(0, 0, 0)" stroke="rgb(60, 60, 60)" stroke-width="1px" opacity="0.25"></line><line x1="0" y1="113.27272727272727" x2="288.828125" y2="113.27272727272727" fill="rgb(0, 0, 0)" stroke="rgb(60, 60, 60)" stroke-width="1px" opacity="0.25"></line><line x1="0" y1="97.09090909090908" x2="288.828125" y2="97.09090909090908" fill="rgb(0, 0, 0)" stroke="rgb(60, 60, 60)" stroke-width="1px" opacity="0.25"></line><line x1="0" y1="80.90909090909092" x2="288.828125" y2="80.90909090909092" fill="rgb(0, 0, 0)" stroke="rgb(60, 60, 60)" stroke-width="1px" opacity="0.25"></line><line x1="0" y1="64.72727272727273" x2="288.828125" y2="64.72727272727273" fill="rgb(0, 0, 0)" stroke="rgb(60, 60, 60)" stroke-width="1px" opacity="0.25"></line><line x1="0" y1="48.54545454545454" x2="288.828125" y2="48.54545454545454" fill="rgb(0, 0, 0)" stroke="rgb(60, 60, 60)" stroke-width="1px" opacity="0.25"></line><line x1="0" y1="32.36363636363635" x2="288.828125" y2="32.36363636363635" fill="rgb(0, 0, 0)" stroke="rgb(60, 60, 60)" stroke-width="1px" opacity="0.25"></line><line x1="0" y1="16.181818181818187" x2="288.828125" y2="16.181818181818187" fill="rgb(0, 0, 0)" stroke="rgb(60, 60, 60)" stroke-width="1px" opacity="0.25"></line><line x1="0" y1="0" x2="288.828125" y2="0" fill="rgb(0, 0, 0)" stroke="rgb(60, 60, 60)" stroke-width="1px" opacity="0.25"></line></g></g></g><g><g><line x1="0" y1="4951.636363636363" x2="288.828125" y2="4951.636363636363" fill="rgb(0, 0, 0)" stroke="rgb(153, 153, 153)" stroke-width="1.5px"></line></g></g><g><g><line x1="24.069010416666664" y1="0" x2="24.069010416666664" y2="178" fill="rgb(0, 0, 0)" stroke="rgb(153, 153, 153)" stroke-width="1.5px"></line></g></g><g><g><g><g><g><path stroke="rgb(238, 51, 119)" stroke-width="2px" d="M30.62800830729167,-0.1885443359226806L31.255054166666664,5.595495791873171L31.785631432291666,9.950578416587462L32.02680291666667,16.004029211458278L32.171505807291666,22.31687311070461L32.60561447916667,28.209829020051245L32.65384877604166,33.52656581351971L33.13619174479167,35.38332748867058L33.37736322916667,36.93464798078954L33.473831822916665,37.56698831247113L33.52206611979167,37.72483318162881L33.71500330729167,37.19956999322587L34.10087768229167,35.26916812350881L34.48675205729167,36.858799441077L34.53498635416667,38.354914797335745L34.776157838541664,38.78742742645115L35.30673510416666,35.90255418264436L35.596140885416666,32.55472019793541L35.83731236979167,29.760482353185466L35.98201526041667,27.323099122537617L36.56082682291667,25.640758155291014L36.85023260416666,25.377219008194555L37.091404088541665,24.524580025655684L37.429044166666664,23.140951103696313L37.62198135416667,21.192741467643998L37.71844994791667,18.991136908991905L38.63490158854167,19.218280578647466L38.87607307291666,19.331841448751845L38.92430736979166,19.130063876419626L39.165478854166665,18.17549930052426L39.40665033854167,16.406835981686907L39.50311893229166,15.358129371271408L39.88899330729166,14.099197552245812L39.937227604166665,13.255938563747899L40.274867682291664,13.231571458369634L40.46780486979167,13.513348774291538L40.901913541666666,13.510354478857113L41.28778791666667,13.921982970770614L42.059536666666666,17.05621232106144L42.25247385416667,19.838566425150077L42.54187963541666,21.968510937094226L42.73481682291666,24.33198595788309L42.83128541666667,26.77255197051384L44.857125885416664,29.233627594519458L44.905360182291666,31.945189926924666L45.00182877604166,34.71721376987059L45.291234557291666,38.490326646812186L45.72534322916667,42.128300066429745L45.821811822916665,45.339396783480936L45.87004611979167,48.539861153333355L46.014749010416665,51.282813177461286L46.30415479166667,54.023984955099515L46.73826346354167,57.218652689897816L46.88296635416667,60.08337626575631L46.93120065104167,62.47835298527034L47.41354361979166,65.39254514103304L48.23352666666666,66.66087128824995L48.329995260416666,67.41610059286181L49.00527541666667,68.14764692771037L49.24644690104167,67.80347614350445L49.34291549479167,67.76979506780832L49.48761838541667,67.81489948989328L49.87349276041666,68.1547403175524L50.162898541666664,67.57258597404994L50.25936713541667,67.25523604328423L50.404070026041666,66.76572909854902L50.69347580729166,66.44954085146118L50.934647291666664,66.9306618182523L51.41699026041667,67.51892658371717L51.706396041666665,68.03792914785186L51.99580182291667,69.5131796124971L52.18873901041667,70.93367260685692L52.47814479166667,72.09508570705668L52.57461338541667,73.10310181575947L52.62284768229167,74.10227629259997L52.71931627604166,74.86980829560922L52.81578486979166,75.4057679247897L52.864019166666665,75.93066843437326L53.10519065104167,77.0824480406384L53.15342494791666,77.9441112984111L53.587533619791664,78.46899596034888L53.87693940104167,78.63917358412583L53.973407994791664,78.59334968810212L54.214579479166666,78.74011426947733L54.45575096354167,79.13213428525519L54.55221955729167,79.16212533321034L55.13103111979167,78.54426081252917L55.46867119791666,78.3316532259902L55.516905494791665,78.00607303365446L55.61337408854166,77.28473995405623L55.709842682291665,76.74034694272488L55.75807697916667,76.27043363870813L55.85454557291666,75.68908918288498L56.433357135416664,75.0582537489591L56.57806002604167,74.17653954477628L56.77099721354167,73.54467046747833L56.91570010416667,72.97760791126053L57.060402994791666,72.2744969614631L57.253340182291666,71.36825246378574L57.30157447916667,70.43977217282837L57.49451166666667,69.82715656730919L57.73568315104167,69.27293161181295L57.78391744791667,68.46375270755341L58.26626041666666,67.90602014262653L58.45919760416666,67.42317380002957L58.60390049479167,67.19720775385726L58.98977486979167,66.46454535559104L59.18271205729167,66.08721904956879L59.327414947916665,65.79387458414607L59.37564924479167,65.66077905775852L59.42388354166667,65.52973397439018L59.76152361979167,65.44613978656862L60.05092940104167,65.23759518305165L60.14739799479167,65.04777574734011L60.19563229166667,64.88981286759854L60.38856947916667,64.69320764096523L60.58150666666667,64.68648041095503L60.72620955729167,64.72280398349956L60.77444385416667,64.6544514695737L60.82267815104167,64.44437700483583L61.015615338541664,64.29611717306084L61.449724010416666,63.96056061477898L61.64266119791667,63.671890890747704L61.69089549479166,63.362382592072L61.73912979166666,63.15125022780281L61.83559838541667,63.12038021509576L61.88383268229167,63.13875162361408L62.173238463541665,63.11664613947562L62.366175651041665,62.770927256249955L62.41440994791667,62.362091476116255L62.51087854166667,62.03825744171744L62.60734713541667,61.60619969959371L62.752050026041665,61.186145434224976L62.80028432291667,60.66499549634417L62.84851861979167,60.10189889356553L62.89675291666667,59.602405610132884L63.04145580729167,59.28625418485755L63.23439299479167,59.07599703987031L63.47556447916667,58.83963508075897L63.52379877604167,58.65081313025598L63.57203307291667,58.457245620573474L63.861438854166664,58.74520167528825L64.68142190104166,58.867374293855185L64.87435908854167,59.08482637894965L64.97082768229167,59.50386195479617L65.21199916666667,60.12728904187363L66.36962229166667,60.88382990381766L66.46609088541668,61.568716537129454L66.70726236979166,61.88146101038715L66.80373096354167,62.06722751286187L66.99666815104166,62.15769023707278L67.09313674479166,62.17660291817034L67.47901111979166,62.51208753063904L67.76841690104166,62.78564950464615L67.96135408854167,63.15429906337099L68.29899416666667,63.2995988435307L68.39546276041666,63.396137703705186L68.68486854166667,63.4561860010543L68.78133713541666,63.622193210503234L68.92604002604168,63.825815432527826L68.97427432291667,63.97758392797257L69.07074291666667,64.10031711686607L69.45661729166666,63.93349154563407L69.50485158854167,63.82797525772022L69.64955447916667,63.96420831737364L69.98719455729166,64.52320964079975L70.13189744791667,65.10906079822512L70.56600611979167,65.19075196234111L70.75894330729167,65.2989381869023L70.90364619791667,65.5412227234017L70.95188049479167,65.74776861862387L71.38598916666668,66.46751630982835L71.43422346354167,67.02234613727181L71.62716065104166,67.35300711299915L71.67539494791667,67.63071790882022L71.72362924479167,67.93661180836726L71.77186354166668,68.16167607162238L71.96480072916667,68.43374822915132L72.01303502604166,68.85343694518299L72.15773791666666,69.40334529800539L72.20597221354166,70.0226886986534L72.59184658854167,70.68825734861947L72.78478377604166,71.1049107930046L72.88125236979167,71.46418403660783L72.97772096354167,71.65470388930017L73.02595526041668,71.89615398193733L73.46006393229166,72.27513026843944L73.60476682291666,72.50683522278888L73.99064119791666,72.37628310472887L74.08710979166666,72.33531636261478L74.28004697916666,72.2008097289995L74.32828127604166,72.1368808131544L74.56945276041667,72.27210350198963L74.90709283854167,72.51987218997401L75.43767010416667,72.7455877686935L75.53413869791666,72.8784798381037L75.82354447916667,73.1125479891652L75.96824736979167,73.1794469644647L76.06471596354167,73.27462944258004L76.25765315104168,73.52683878708142L76.45059033854166,73.75340313586709L76.54705893229166,74.06763981477825L76.78823041666666,74.21004349268038L76.83646471354166,74.33781485523578L76.88469901041667,74.38988699252052L77.27057338541667,74.17417154128906L77.55997916666666,73.82963653942426L77.75291635416667,73.73067552634582L77.80115065104167,73.57070459738837L77.84938494791668,73.29833743008214L78.28349361979167,73.00000799342733L78.52466510416667,72.68623812930416L79.19994526041665,72.16309515439757L79.29641385416666,71.69115290044941L80.26109979166667,71.51088126598263L80.30933408854168,71.2846515248885L80.50227127604167,71.21000004273914L80.55050557291666,71.03671591326683L80.59873986979167,70.79921658618294L81.46695721354168,70.67403901215829L81.70812869791666,70.64352749683258L82.04576877604165,70.50564586245967L82.09400307291666,70.39374094738768L82.38340885416667,70.34311745270946L82.47987744791666,70.33923028768682L82.72104893229167,70.49838848529436L82.81751752604166,70.54350971462567L83.10692330729167,70.47260305616773L83.97514065104167,70.47370375162534L84.07160924479166,70.44874665923237L84.16807783854166,70.42654758350763L84.55395221354166,70.20851565688186L84.69865510416666,70.00202651805546L85.08452947916666,70.0091915609113L85.22923236979167,70.00043574935881L85.37393526041666,70.11678851985646L86.00098111979167,70.48180297967394L86.33862119791667,70.95494130988043L86.62802697916666,71.23910613357089L86.82096416666667,71.36405057693788L86.91743276041666,71.56008867428183L86.96566705729167,71.834180839927L87.25507283854168,72.1370463759062L87.73741580729165,72.64497454789507L87.97858729166667,73.01553593456906L88.02682158854167,73.39683374624774L88.17152447916666,73.75412633621416L88.46093026041667,74.11666422778633L88.55739885416666,74.50640920764515L88.70210174479166,74.76259670523037L88.84680463541667,74.90784493767443L88.99150752604166,75.13139577827614L89.03974182291667,75.40389265442735L89.90795916666667,76.06469083780961L90.63147361979166,76.89947945645098L91.35498807291667,77.85900943696664L91.49969096354167,78.89972895957796L91.54792526041666,79.94993460267938L91.64439385416667,81.0188625133323L91.69262815104167,82.00566735637766L92.70554838541666,83.03670906906045L92.75378268229167,84.06036464947141L92.99495416666667,85.22185482865653L93.13965705729166,86.4059253893242L93.33259424479166,87.56262867481172L93.42906283854165,88.6452846881673L93.62200002604166,89.6227770345018L93.81493721354165,90.60475615053561L94.00787440104166,91.47968169297917L95.21373182291667,92.13519882091714L95.26196611979167,92.74279178808005L95.79254338541666,93.06270270779142L96.17841776041666,93.26990471857702L96.22665205729167,93.51930717828498L96.37135494791666,93.56189825605986L96.46782354166666,93.61179594264665L96.51605783854167,93.71880316413433L96.95016651041666,94.02431362798116L97.28780658854167,94.2380028763007L98.01132104166666,94.04719542597194L98.05955533854167,93.82584295088314L98.20425822916667,93.4889801004562L98.54189830729166,93.0963453920682L99.12070986979165,92.83409958195607L99.36188135416667,92.64917746460078L99.41011565104166,92.46547725398686L99.50658424479167,92.2483193119039L99.84422432291667,92.14364271502173L100.18186440104166,92.22423176491615L100.23009869791667,92.45976459034402L100.66420736979167,92.80147560992866L100.85714455729166,93.25806869713206L100.95361315104167,93.75395716318512L101.14655033854167,94.24454468621487L101.58065901041665,94.78240074181527L101.91829908854167,95.24677646979121L101.96653338541667,95.70311497900514L102.20770486979167,96.16161082946427L102.59357924479167,96.35177036193828L103.02768791666666,96.41340094581246L103.07592221354167,96.43329880766021L103.26885940104167,96.44983029745079L103.51003088541667,96.55056943162045L103.65473377604167,96.66415792779298L103.75120236979167,96.7749933576046L103.89590526041667,96.80848412488938L104.04060815104168,96.92840132642205L104.23354533854166,97.02959939793459L104.61941971354166,97.20913152747657L105.00529408854166,97.38987079227918L105.19823127604167,97.74099261589322L105.34293416666667,98.09140832544797L105.39116846354166,98.49036429232892L105.68057424479166,98.97884875692118L105.72880854166667,99.44814600022619L106.11468291666667,99.87285058981001L106.30762010416667,100.2686478821823L106.35585440104167,100.65331089994822L106.40408869791668,101.0943300405102L106.50055729166667,101.50515527847551L106.64526018229166,101.79288636162592L106.98290026041666,102.12649732962173L107.03113455729167,102.48047539228914L107.41700893229167,102.9716356157639L107.46524322916666,103.44157476756841L107.89935190104167,103.84667503491771L108.09228908854168,104.13078740357328L108.18875768229167,104.48275854945223L108.33346057291666,104.70968100395567L108.57463205729167,104.91058423647921L108.62286635416666,105.1385349655773L108.71933494791666,105.43183752107318L108.76756924479167,105.67194309793759L108.81580354166667,105.92073523709803L109.05697502604167,106.27634770214183L109.73225518229165,106.6607896028592L110.16636385416666,106.93855371575212L110.45576963541667,107.30849087636254L110.79340971354166,107.71772707595444L110.84164401041667,108.13055890749933L111.27575268229167,108.40597738308894L111.61339276041667,108.62967838216476L112.04750143229167,108.64682361584653L112.19220432291668,108.71913452350789L112.52984440104167,108.75764454675426L112.62631299479166,108.76023692563929L112.81925018229167,108.8670441701217L113.30159315104167,108.7887067167491L113.34982744791667,108.70686048512725L113.49453033854167,108.6967517288481L113.73570182291667,108.80019369811805L113.92863901041666,108.8566260553733L114.55568486979168,109.25042242818529L114.65215346354168,109.62052161286078L114.70038776041666,110.00235705096463L114.98979354166667,110.14574603561432L115.03802783854168,110.31287953482926L115.08626213541666,110.47911598045623L115.18273072916666,110.58202552553588L115.85801088541668,110.63208486253909L116.72622822916667,110.473380422121L117.01563401041668,110.32547504638491L117.35327408854167,110.15440933331301L117.64267986979166,109.98780658446104L117.83561705729167,109.88270101275941L117.93208565104166,109.77536446631491L118.02855424479166,109.77213833281375L118.31796002604166,109.90023285230927L118.46266291666666,110.00200644647505L118.55913151041666,110.0387531958681L118.70383440104168,110.0152043107819L118.84853729166666,110.15147063331294L118.99324018229167,110.28753216513535L119.42734885416667,110.32035753320702L119.52381744791666,110.3363747210949L120.10262901041666,110.27696454470231L120.15086330729167,110.1965880609368L120.19909760416667,110.1538925714973L120.87437776041666,110.28925662394533L121.06731494791667,110.40402210201243L121.26025213541666,110.4804278522028L121.45318932291667,110.5121351449856L121.50142361979167,110.62577536609741L121.64612651041666,110.79980213758348L121.74259510416667,110.93718516992881L121.83906369791667,111.06270872558507L122.22493807291667,111.22105265292687L122.32140666666668,111.45407644441157L122.46610955729166,111.60941676794975L122.61081244791667,111.81554461665426L122.75551533854167,111.98145902454314L122.85198393229166,112.25118716936397L122.99668682291667,112.5231793601992L123.14138971354167,112.7206895160296L123.91313846354167,112.91079149881712L124.25077854166666,113.10520202523692L124.49195002604166,113.2076447577776L124.54018432291666,113.35892481708179L124.58841861979167,113.51420552831341L124.68488721354167,113.68669155586811L124.73312151041667,113.90126436732453L124.82959010416666,114.13975240974098L124.92605869791666,114.37356911181853L125.11899588541667,114.64448404507839L125.31193307291666,114.98829052313961L125.55310455729168,115.44024349786203L125.64957315104168,115.92828010826013L125.98721322916667,116.38420832003094L126.08368182291666,116.684205638097L126.13191611979167,117.034948148784L126.37308760416667,117.33312326704606L126.56602479166666,117.65299184133347L126.80719627604167,118.12029614370549L126.90366486979165,118.54950836034891L126.95189916666666,118.97303719071009L127.43424213541667,119.38977285248937L127.48247643229166,119.83088690002467L127.67541361979167,120.20758325263508L127.82011651041667,120.59849475411814L127.96481940104167,120.96324175783498L128.01305369791666,121.32630431409662L128.15775658854167,121.66206589177705L128.20599088541667,121.9276890674641L128.30245947916669,122.08588231170866L128.54363096354166,122.19891210086594L128.59186526041668,122.24229843270079L128.92950533854167,122.28436204837753L128.97773963541667,122.36729519335358L129.17067682291665,122.37414765440428L129.26714541666666,122.3510099170087L129.36361401041665,122.35185665240385L129.55655119791666,122.22214130767428L130.03889416666667,122.1661821172044L130.13536276041665,122.10514460542761L130.23183135416667,122.10266972263805L130.28006565104167,122.06082471428168L130.47300283854167,122.09956102448866L130.61770572916666,122.15708602529692L131.00358010416667,122.17495628037459L131.19651729166665,122.17736767843913L131.87179744791666,122.25302991850792L132.06473463541667,122.39076636839684L132.16120322916666,122.48614262581877L132.40237471354166,122.63936636836809L132.45060901041666,122.77274753088523L132.54707760416667,122.87422599369243L132.64354619791666,122.98611734583069L132.69178049479166,123.0524344959407L132.78824908854165,123.11759668289729L132.88471768229167,123.20688795569346L132.93295197916666,123.23195356601691L133.27059205729165,123.21836843528452L133.41529494791666,123.21709472718355L133.65646643229167,123.12805457807532L134.23527799479166,123.08224690730962L134.42821518229167,122.96540778815908L134.57291807291668,122.80080727170103L135.05526104166665,122.62539775283498L135.34466682291665,122.48053395947557L135.39290111979167,122.33777415170816L135.48936971354166,122.17992112265141L135.63407260416668,121.98757661964646L135.77877549479166,121.73556392922906L135.82700979166665,121.45125725551793L135.87524408854168,121.2067219126646L136.35758705729168,120.99920246374192L136.40582135416668,120.79108269108208L136.45405565104167,120.64257292356469L136.55052424479166,120.48442102923893L137.12933580729168,120.31333699183699L137.17757010416668,120.21019320831358L137.22580440104167,120.14395761757078L137.27403869791667,120.11192150807301L137.65991307291668,120.2628821990719L138.09402174479166,120.4671636988354L138.91400479166668,120.82948766940054L139.58928494791667,121.03354469670582L139.78222213541667,121.1869961853014L139.83045643229167,121.34126224237987L139.92692502604166,121.52660053341386L140.31279940104167,121.7510590573783L140.40926799479166,121.92945111654922L140.60220518229167,122.03724060400158L141.08454815104167,122.06500049110745L141.47042252604166,122.00766226384671L141.51865682291665,121.9364810465587L142.04923408854168,121.77922879181959L142.43510846354167,121.80706158520657L142.72451424479166,121.82219303326757L142.77274854166666,121.84233252566048L142.86921713541668,121.91968390915417L142.96568572916667,121.91768766695084L143.20685721354167,121.79197265090761L144.12330885416668,121.73185500625459L144.41271463541668,121.73295106101322L144.46094893229167,121.71495446421336L144.94329190104168,121.7082650672288L145.0397604947917,121.62266587144143L145.18446338541668,121.59781887804782L145.23269768229167,121.60223461109477L145.28093197916667,121.60164640058429L145.76327494791667,121.62356696317913L145.81150924479164,121.62829820118615L145.95621213541668,121.65247248106994L146.24561791666665,121.70173723156131L146.48678940104168,121.80229355549397L146.58325799479167,121.89830605467382L146.67972658854166,121.94576941012654L146.77619518229164,122.00980817728104L147.21030385416665,121.99839197403344L147.40324104166666,121.98190817498399L147.59617822916667,122.02379402494739L147.69264682291669,122.00729565937279L147.83734971354167,122.0339273523392L148.27145838541668,121.97229566048395L148.31969268229165,121.9354955483642L148.51262986979165,121.78324420769157L148.80203565104168,121.67459098057934L148.89850424479167,121.6547950860817L149.47731580729166,121.81967091668444L149.52555010416668,122.02675848348322L149.57378440104168,122.20964122210323L149.62201869791664,122.36593042285904L149.76672158854169,122.53379088029585L149.9596587760417,122.6618879100135L150.24906455729166,122.85399010479232L150.29729885416668,123.05133041399237L150.44200174479167,123.24485924561903L150.82787611979165,123.45280957220218L151.06904760416668,123.70343984699925L151.21375049479167,124.02138738777494L151.35845338541665,124.32860594191943L151.40668768229168,124.6194307761798L151.69609346354164,124.92136327872197L151.79256205729166,125.25222138986278L152.08196783854166,125.40203179332859L152.22667072916667,125.4492668155322L152.37137361979168,125.49689658033616L152.41960791666668,125.57045060496978L152.61254510416668,125.55855298231059L153.52899674479167,125.46955252021225L153.72193393229168,125.36863422753665L153.81840252604167,125.2774904476452L154.05957401041667,125.01440013671372L154.30074549479167,124.81024334588334L154.92779135416666,124.56185755420314L155.12072854166667,124.46276649285426L155.26543143229168,124.39113271417584L155.98894588541668,124.2835496697786L156.51952315104165,124.26619810747682L156.56775744791668,124.26361479811983L156.71246033854166,124.3110511343649L157.00186611979166,124.36388816629794L157.33950619791668,124.39966093589032L157.38774049479164,124.3975269870685L157.43597479166667,124.38189943748314L157.48420908854166,124.34342194049161L157.53244338541668,124.34253126135218L157.58067768229165,124.36909580301194L157.96655205729166,124.44708810950219L159.07594088541668,124.56027225785033L159.12417518229165,124.65360067069885L159.17240947916667,124.75979816978129L159.51004955729167,124.8791686135528L160.04062682291666,125.07783913568626L160.13709541666668,125.28311632603531L160.71590697916668,125.43806343581592L160.76414127604167,125.6230699717918L160.90884416666668,125.73847818654012L161.00531276041664,125.83567674679341L161.05354705729167,125.93507730213928L161.15001565104168,126.02398061796055L162.06646729166667,126.12814408844577L162.30763877604167,126.18005551448523L162.45234166666668,126.24858093277669L162.59704455729167,126.21424528325683L163.03115322916668,126.2236210854583L163.07938752604164,126.23908219450102L163.36879330729167,126.27102183857517L163.46526190104166,126.29764723357773L163.51349619791665,126.31844482287613L163.80290197916668,126.28760714774567L163.94760486979166,126.27100172471887L164.23701065104166,126.21730219937035L164.33347924479168,126.18109051442515L164.42994783854166,126.21128392177252L164.57465072916668,126.2129008158294L165.00875940104166,126.18322786539689L165.24993088541666,126.08849916244726L165.34639947916665,126.0091634144646L165.39463377604167,125.95117257803001L165.44286807291667,125.97139326645731L165.97344533854167,126.07229589153279L166.45578830729167,126.19650772394073L166.84166268229168,126.41743200754911L167.66164572916665,126.71614346391436L167.99928580729167,127.07206570523806L168.04752010416667,127.45982178441079L168.19222299479165,127.82645723741591L168.67456596354168,128.29123581054353L168.96397174479165,128.78369954853193L169.15690893229166,129.24532878524903L169.39808041666666,129.7193971017399L169.49454901041668,130.1458436089121L169.59101760416667,130.54038845572043L169.68748619791668,130.92980186063028L169.78395479166667,131.35547842114957L169.97689197916665,131.70526463549652L170.02512627604168,132.05390064716838L170.16982916666666,132.30559144142515L170.45923494791668,132.63190305456314L170.55570354166667,132.8999355752793L170.70040643229166,133.26532781788043L171.08628080729167,133.59848542757467L171.18274940104166,133.89317796744933L171.23098369791666,134.18347003250136L171.27921799479165,134.4367268910082L171.66509236979167,134.65688697891295L172.38860682291664,134.69267533478975L172.48507541666666,134.72046918827934L172.58154401041665,134.72250827143554L172.67801260416667,134.72300213363962L172.77448119791666,134.78051516144743L173.20858986979167,134.89803980739123L173.40152705729167,135.02217157121865L174.0285729166667,134.9646914376795L174.22151010416667,135.01430357908487L175.13796174479168,135.16138002059432L175.86147619791666,135.30900432135292L175.90971049479168,135.41905770151712L176.19911627604165,135.50659262027568L176.24735057291667,135.54229299106998L176.3438191666667,135.64896773546437L176.48852205729168,135.81450768664314L176.72969354166665,136.10925910733056L176.8743964322917,136.3227967361348L176.92263072916666,136.54675595034075L177.01909932291667,136.7706815668731L177.79084807291667,136.8677447636052L178.12848815104167,136.9442250096494L178.32142533854167,137.01192745971048L178.65906541666666,136.97323071879538L178.70729971354166,136.93465511000434L179.04493979166665,137.0078350520972L179.18964268229166,137.0812871237098L180.34726580729165,136.98799552265686L180.4919686979167,136.90281175212866L180.82960877604168,136.8632550202486L180.97431166666667,136.72422805731833L181.02254596354166,136.54650019064863L181.11901455729165,136.38373310035527L181.16724885416667,136.25605218924795L181.50488893229166,136.13917903736544L181.60135752604168,136.04115974781763L182.13193479166668,135.8937920195156L182.37310627604168,135.78774222720742L182.80721494791666,135.67592757592718L182.90368354166668,135.7096550737664L183.00015213541664,135.76331961937856L183.19308932291665,135.79204187690996L183.3377922135417,135.88690425906648L183.96483807291665,135.92858223408666L184.01307236979167,135.95900792369397L184.06130666666667,136.04621490948347L184.35071244791666,136.1902987882135L184.73658682291665,136.28974633316759L185.02599260416667,136.3507675122493L185.07422690104164,136.3533337991455L185.12246119791666,136.37800583614714L185.31539838541667,136.48154760675456L185.55656986979167,136.5416131667854L185.89420994791666,136.58950201866853L186.28008432291665,136.53440946362826L186.47302151041666,136.55746311998445L186.66595869791666,136.68033142699312L186.76242729166668,136.8879235402145L187.05183307291668,136.9742412344647L187.19653596354166,137.1100938297416L187.29300455729168,137.3218472819653L187.38947315104167,137.51833594021502L187.4859417447917,137.73014622346764L187.63064463541667,137.9851457874054L187.87181611979167,138.20283027833068L188.45062768229167,138.36844833130698L188.69179916666664,138.53165632651664L188.93297065104167,138.7217219610035L189.8011879947917,138.7594904540023L189.99412518229167,138.8565062767284L190.13882807291668,138.82777930225976L190.37999955729165,138.80948886467783L190.66940533854168,138.88130437719727L190.71763963541667,138.95259222472984L190.91057682291668,138.97841375095527L191.00704541666667,138.96465755476186L191.29645119791667,139.07599189606952L191.34468549479166,139.18367620901844L191.63409127604166,139.33945274245337L191.97173135416665,139.44894597432184L192.26113713541667,139.51028095318577L192.40584002604166,139.54825114900038L192.69524580729166,139.61164047792622L193.22582307291665,139.73671960222427L193.32229166666667,139.88534473689L193.65993174479166,139.9596854230048L193.80463463541665,139.98247476061331L193.9493375260417,140.03452860332638L194.04580611979165,140.08846998337984L194.28697760416668,140.12440934019278L195.05872635416668,140.37514719073582L195.15519494791667,140.61813610253645L195.20342924479166,140.82842580557062L195.39636643229167,141.020958557658L195.44460072916667,141.1755436379262L195.63753791666667,141.2289631176825L195.73400651041666,141.24287919980475L196.0234122916667,141.19413246848592L196.07164658854165,141.162136080717L196.40928666666667,141.13891644229264L196.98809822916667,141.24980789926994L197.22926971354164,141.33143361429345L197.37397260416668,141.40014462573677L197.80808127604166,141.3961813592246L197.85631557291666,141.41955870064493L198.14572135416668,141.41093795059206L198.19395565104165,141.43686462335165L198.8692358072917,141.3535452832925L199.06217299479167,141.21292212633887L199.15864158854166,141.05470857674234L199.25511018229167,140.89663104397889L199.39981307291666,140.68882343144386L199.54451596354167,140.47423791885797L199.97862463541668,140.1086267091956L200.26803041666665,139.71603053095018L200.36449901041667,139.2993008016725L200.89507627604166,138.78230454248308L200.9433105729167,138.2667420607743L201.23271635416666,137.80048518170705L201.57035643229165,137.40148205037664L202.72797955729166,137.2140821973832L202.87268244791667,137.0355633562319L203.01738533854166,136.9187683774687L203.11385393229165,136.85132783963198L204.12677416666668,136.9020744482988L204.27147705729166,136.93192075970964L204.46441424479167,136.94094238826736L204.51264854166666,136.97913545521757L204.5608828385417,137.00180694595255L204.85028861979166,137.16531228586692L204.99499151041664,137.32791807579065L205.09146010416666,137.4744024721541L205.52556877604167,137.53613968601348L205.71850596354167,137.5563234340429L205.86320885416666,137.61103571693266L206.1043803385417,137.62864149202568L206.49025471354167,137.6454491862992L206.68319190104168,137.63926436423267L206.77966049479167,137.58844138703225L206.8761290885417,137.5624602237435L207.50317494791665,137.58023059755413L207.59964354166667,137.6133477894399L207.74434643229168,137.60889190152446L208.32315799479167,137.63623089636053L208.51609518229168,137.70151403833256L208.75726666666668,137.66219828240625L208.85373526041667,137.62045789134794L209.33607822916667,137.50358013669197L209.43254682291666,137.46012051711338L209.52901541666668,137.34224725139046L210.15606127604167,137.19858025107325L210.44546705729167,137.11369384379444L210.92781002604167,137.05583842052056L211.16898151041667,136.96484321430626L211.50662158854166,136.9237675928035L211.65132447916665,136.95370959081066L211.74779307291666,137.05397916672064L212.71247901041667,137.32329481246347L212.76071330729164,137.61812850298915L212.80894760416666,137.9316196222644L213.05011908854166,138.18072774731888L213.14658768229165,138.40345455551426L213.43599346354168,138.58226629814035L213.62893065104166,138.74475762544608L214.01480502604167,138.85696394147934L214.06303932291667,138.96609201628323L214.30421080729167,139.082840557877L214.35244510416666,139.234684311927L214.54538229166667,139.38423091695515L215.07595955729167,139.45306003926225L215.36536533854166,139.5009876062253L215.65477111979166,139.57022460829012L215.79947401041665,139.72451504380078L216.33005127604167,139.88175249038096L216.52298846354168,140.0833850432844L216.7159256510417,140.38652884258426L216.81239424479168,140.71023697222512L217.05356572916668,141.076932299141L217.24650291666669,141.38656372285246L217.4876744010417,141.77435964899993L217.72884588541666,142.19865196612147L217.92178307291667,142.60362383729844L217.97001736979166,143.00668614831716L218.06648596354168,143.4530528229548L218.50059463541666,143.80201212811826L218.54882893229166,144.15007620937243L219.07940619791665,144.44364628609657L219.17587479166667,144.74035261704844L219.22410908854167,145.01946705274267L219.5617491666667,145.16101322992515L219.65821776041668,145.31742454207247L219.70645205729167,145.42233936074825L219.75468635416667,145.5420462311758L219.80292065104166,145.6356527369612L219.99585783854167,145.68033268586393L220.09232643229169,145.7400668537408L221.15348096354165,145.74774737739196L221.29818385416664,145.8127000595551L221.97346401041668,145.758996008456L222.21463549479168,145.72625446519223L222.26286979166665,145.69516422122908L222.35933838541666,145.6913572356559L222.74521276041668,145.65909432145472L222.98638424479168,145.6738448953467L223.32402432291667,145.73645004726745L224.67458463541666,145.87913090264766L225.01222471354168,146.072962684597L225.54280197916665,146.3403230090292L225.78397346354168,146.5129366747603L226.2180821354167,146.72929085688935L226.26631643229166,146.9373238727394L226.74865940104166,147.07599194672684L226.79689369791666,147.21120707278436L226.84512799479165,147.32914676925785L226.94159658854167,147.45553812355138L227.03806518229166,147.55695004688965L227.13453377604168,147.6643072628909L227.18276807291664,147.7784350872686L227.23100236979167,147.85880966379906L227.32747096354169,147.85719764415154L228.19568830729168,147.89420650120525L228.43685979166668,147.88509885103664L228.67803127604168,147.95902300350926L228.82273416666666,147.9953542093843L228.96743705729168,148.02543533978672L229.20860854166668,148.05656202529735L229.73918580729168,148.15220418427157L230.17329447916669,148.32235497436963L230.31799736979167,148.48971554080467L230.36623166666666,148.64173905685456L230.80034033854164,148.81876229144703L231.08974611979167,149.01875573648599L231.81326057291668,149.1944568328182L231.86149486979167,149.37557228576807L232.15090065104167,149.47020361455552L232.34383783854165,149.51904395864065L232.48854072916666,149.5526364123871L232.77794651041665,149.4904409076486L232.87441510416664,149.36851873089884L233.30852377604165,149.28124151386368L233.50146096354166,149.14517953726119L233.79086674479169,148.94623911260067L234.03203822916666,148.75289332824195L234.32144401041668,148.5466177842334L234.51438119791666,148.3440139538L234.7555526822917,148.19292857240626L235.09319276041668,148.04069109605604L235.28612994791666,147.90245441055845L235.72023861979164,147.80859110779338L235.86494151041668,147.7134396222251L236.44375307291668,147.58745653665773L236.78139315104167,147.55269412915618L236.92609604166665,147.54120919698516L237.02256463541667,147.5564950256019L237.07079893229167,147.5838051014008L237.26373611979164,147.4569719589041L237.31197041666667,147.3245561371473L237.36020471354166,147.19642249449026L237.93901627604168,147.11629297334522L238.22842205729165,147.14807655354002L238.27665635416668,147.20093989840132L238.37312494791666,147.25463269050232L238.61429643229167,147.28066551118263L238.66253072916666,147.34028002601084L238.80723361979167,147.38001698020125L239.09663940104167,147.42401278366432L239.28957658854168,147.4696718523752L239.62721666666667,147.43603104317071L240.10955963541664,147.61341400673234L240.39896541666667,147.8063861775614L240.59190260416668,148.03631910372482L240.73660549479166,148.2269682037099L241.12247986979168,148.39808209002433L241.21894846354166,148.56974184488564L241.84599432291665,148.75478877859175L242.03893151041666,148.92481116945905L242.08716580729168,149.09038578837158L243.00361744791667,149.19634288614006L243.05185174479166,149.28681647679608L243.19655463541667,149.3530943777159L243.53419471354167,149.4252775001863L243.63066330729168,149.4589412393237L244.01653768229167,149.41305208247365L244.11300627604166,149.40489755921396L244.16124057291668,149.46404524792095L244.78828643229167,149.37475485889638L244.88475502604166,149.2509336168774L244.93298932291668,149.15487622520672L245.3670979947917,149.05676323575437L245.51180088541668,148.93853113209968L245.60826947916667,148.82618991453808L246.04237815104167,148.77907696196203L246.18708104166666,148.6945323606754L246.28354963541668,148.58214592585404L246.38001822916667,148.49430060506543L246.95882979166666,148.3651893029562L247.77881283854168,148.27954659026884L248.01998432291668,148.18145043144492L248.50232729166666,147.9974781292523L248.79173307291666,147.7939781795352L249.12937315104168,147.60569568015882L249.41877893229167,147.45450154190698L249.5152475260417,147.2857335524093L249.70818471354167,147.087504143954L250.04582479166666,146.94368016211214L250.09405908854168,146.81555078671053L250.14229338541665,146.6468028459268L250.62463635416668,146.5060908467325L251.39638510416668,146.2979976873493L251.63755658854166,146.07095155019266L251.87872807291666,145.93620084049618L252.11989955729166,145.80584631449736L252.16813385416668,145.6393845893277L252.26460244791667,145.5262861146096L252.40930533854166,145.48167764807934L252.89164830729166,145.4140009450267L253.08458549479167,145.38541864077067L253.1328197916667,145.3383623345502L253.42222557291666,145.4132171573194L253.61516276041667,145.4720150898186L253.66339705729166,145.5794997832229L254.04927143229168,145.66143107065267L254.14574002604166,145.80910799910558L254.19397432291666,145.98212787448597L254.24220861979168,146.1467755217599L254.33867721354167,146.37398355766862L254.48338010416666,146.60016163159526L254.53161440104165,146.82687995753975L254.57984869791667,147.03167740938628L254.62808299479167,147.25324581557896L254.82102018229168,147.52101346034578L254.91748877604167,147.7763247356822L255.06219166666665,148.02481646898644L255.11042596354167,148.27405842515037L255.15866026041667,148.5227478678815L255.2068945572917,148.76971589364874L255.30336315104165,148.9371280183655L255.44806604166666,149.11793639550237L255.49630033854166,149.27809764220103L255.78570611979168,149.4611240996628L256.0751119010417,149.60796709103008L256.17158049479167,149.7379034542466L256.3162833854167,149.9107999663507L256.8950949479167,150.08435166857373L257.2809693229167,150.22286281753802L257.32920361979166,150.36145719996537L257.3774379166667,150.51318186873075L257.6668436979167,150.6235221553593L258.0044837760417,150.75323091835753L258.2456552604167,150.82089360038555L258.5832953385417,150.94523711980435L258.77623252604167,151.10949079788838L259.01740401041667,151.31354479752767L259.2103411979167,151.44743279576943L259.4997469791667,151.54284723140705L259.59621557291666,151.56970032337563L259.7409184635417,151.59636648296328L260.07855854166667,151.54212487262245L260.36796432291663,151.43426083315882L260.5126672135417,151.31483813997485L260.60913580729164,151.17594509897344L260.65737010416666,151.07333022838665L260.89854158854166,150.9151474197591" style="fill: none;" fill="none"></path></g></g></g></g><g opacity="0.2"><g><g><g><path stroke="rgb(238, 51, 119)" stroke-width="2px" d="M25.41870424479167,-88.26468727805396L25.708110026041666,12.885503595525563L26.479858776041667,-95.94966819069604L27.251607526041667,-52.67189719460229L27.97512197916667,81.5565019087358L28.119824869791668,60.196383389559664L28.360996354166666,-5.016324129971584L28.746870729166666,2.9126087535511456L29.084510807291668,41.99183793501421L29.47038518229167,35.43822132457385L29.61508807291667,49.67830033735796L29.66332236979167,45.47086958451704L30.000962447916667,102.91612659801137L30.242133932291665,98.95166015625L30.62800830729167,82.04193670099431L31.255054166666664,120.06930819424717L31.785631432291666,100.40796453302558L32.02680291666667,147.6590909090909L32.171505807291666,165.7826482599432L32.60561447916667,167.88636363636365L32.65384877604166,164.73079057173297L33.13619174479167,83.01280628551136L33.37736322916667,78.23895263671875L33.473831822916665,55.01808305220171L33.52206611979167,42.23430841619319L33.71500330729167,21.683577104048293L34.10087768229167,-23.625316273082376L34.48675205729167,86.89628462357955L34.53498635416667,86.89628462357955L34.776157838541664,53.23832009055398L35.30673510416666,-63.270968350497164L36.56082682291667,-38.67478249289771L36.85023260416666,15.048972389914772L37.091404088541665,-9.709189675071041L37.71844994791667,-75.73079057173295L38.63490158854167,29.208063299005687L38.87607307291666,24.434703480113644L38.92430736979166,9.870672052556813L39.165478854166665,-26.538418856534083L39.937227604166665,-29.45102761008521L40.274867682291664,11.974387428977272L40.46780486979167,28.318181818181813L40.901913541666666,13.350197531960228L41.28778791666667,36.32810280539773L42.059536666666666,190.62179842862216L42.25247385416667,176.54369562322444L42.54187963541666,143.93709494850853L42.73481682291666,161.899169921875L42.83128541666667,171.1229248046875L44.857125885416664,177.11011851917615L44.905360182291666,197.41837935014203L47.41354361979166,273.149169921875L48.23352666666666,158.25816206498578L48.329995260416666,122.65796453302558L49.00527541666667,122.33450594815342L49.24644690104167,41.99183793501421L49.34291549479167,65.21270751953125L49.48761838541667,71.28088933771306L49.87349276041666,94.5827470259233L50.162898541666664,21.76456520774148L50.25936713541667,41.99183793501421L50.404070026041666,27.34731223366477L50.69347580729166,40.697509765625L50.934647291666664,106.55713445490058L51.41699026041667,116.50928844105113L51.706396041666665,111.73543479225852L51.99580182291667,195.07169966264203L52.18873901041667,193.12996049360797L52.47814479166667,173.0646639737216L52.57461338541667,161.65620561079547L52.62284768229167,162.78905140269887L52.71931627604166,143.69462446732953L52.81578486979166,123.95278653231533L52.864019166666665,123.95278653231533L53.10519065104167,183.50175892223012L53.15342494791666,158.33915016867897L53.587533619791664,127.9172529740767L53.87693940104167,94.82521750710227L53.973407994791664,74.1934980912642L54.214579479166666,92.96446644176137L54.45575096354167,117.48015802556817L54.55221955729167,82.1229248046875L55.13103111979167,16.990711558948856L55.46867119791666,56.95982222123579L55.516905494791665,44.98543479225852L55.61337408854166,3.4790316495028337L55.709842682291665,20.550731312144894L55.75807697916667,27.34731223366477L55.85454557291666,14.644525701349437L56.433357135416664,8.252885298295459L56.57806002604167,-19.984308416193166L56.77099721354167,5.501758922230104L56.91570010416667,11.407964533025563L57.060402994791666,-4.6928655450994174L57.30157447916667,-32.849071155894876L57.49451166666667,1.1328457919034163L57.73568315104167,6.634604714133521L57.78391744791667,-23.706304376775584L58.26626041666666,3.883478338068187L58.45919760416666,11.569940740411937L58.60390049479167,40.85899214311079L58.98977486979167,-19.579861727627833L59.18271205729167,21.441106622869313L59.327414947916665,30.826343883167606L59.37564924479167,49.67830033735796L59.42388354166667,49.67830033735796L59.76152361979167,55.26104736328125L60.05092940104167,39.64565207741477L60.14739799479167,41.58739124644885L60.19563229166667,45.22839910333806L60.38856947916667,40.0500987659801L60.58150666666667,63.83739124644885L60.72620955729167,69.33915016867898L60.77444385416667,55.90796453302556L60.82267815104167,37.37996049360796L61.015615338541664,45.06642289595171L61.449724010416666,20.146284623579543L61.64266119791667,25.729031649502833L61.69089549479166,22.411976207386356L61.73912979166666,35.03377463600852L61.83559838541667,58.98254949396306L61.88383268229167,65.61715420809658L62.173238463541665,60.11539528586648L62.366175651041665,15.534407182173291L62.41440994791667,6.149169921875L62.51087854166667,17.233675870028417L62.60734713541667,1.4563043767755628L62.752050026041665,2.346185857599437L62.80028432291667,-12.783774636008541L62.89675291666667,-11.650928844105124L63.04145580729167,13.916126598011354L63.23439299479167,28.722628506747167L63.47556447916667,24.515691583806813L63.52379877604167,31.069308194247167L63.57203307291667,30.017450506036937L63.861438854166664,101.29833984375L64.68142190104166,77.02561257102273L64.87435908854167,91.58915016867898L64.97082768229167,122.49648215553977L65.21199916666667,154.37468372691762L66.36962229166667,175.89628462357953L66.46609088541668,166.26808305220172L66.70726236979166,109.9556718306108L66.80373096354167,90.77976296164773L66.99666815104166,76.21622536399148L67.09313674479166,65.13171941583806L67.47901111979166,115.21446644176137L67.76841690104166,105.99071155894887L67.96135408854167,121.68709494850852L68.29899416666667,86.4918379350142L68.39546276041666,78.88636363636364L68.68486854166667,73.14164040305398L68.78133713541666,90.53729248046875L68.92604002604168,97.00992098721592L68.97427432291667,88.83802379261364L69.07074291666667,84.30713445490056L69.45661729166666,36.32810280539773L69.50485158854167,46.27976296164773L69.64955447916667,86.73430841619319L69.98719455729166,158.42013827237216L70.13189744791667,164.00288529829547L70.56600611979167,79.04833984375L70.75894330729167,83.74071155894886L70.90364619791667,107.04256924715908L70.95188049479167,101.29833984375L71.38598916666668,190.94525701349434L71.43422346354167,163.43646240234375L71.62716065104166,125.08563232421875L71.67539494791667,116.34731223366477L71.72362924479167,121.84907115589488L71.77186354166668,108.01343883167613L71.96480072916667,116.8327470259233L72.01303502604166,143.8566006747159L72.15773791666666,168.1293279474432L72.20597221354166,181.72199596058238L72.59184658854167,191.26920942826703L72.78478377604166,146.93069180575284L72.88125236979167,137.14100785688922L72.97772096354167,106.63812255859375L73.02595526041668,116.42830033735795L73.46006393229166,142.48079057173297L73.60476682291666,115.6189131303267L73.99064119791666,47.979031649502836L74.08710979166666,64.64628462357955L74.28004697916666,46.84618585759944L74.32828127604166,60.03440718217329L74.56945276041667,97.98079057173295L74.90709283854167,119.82634388316762L75.43767010416667,116.02385364879262L75.53413869791666,98.46622536399148L75.82354447916667,118.37003950639205L75.96824736979167,86.16837935014205L76.06471596354167,91.83162064985795L76.25765315104168,122.90092884410512L76.45059033854166,118.28905140269887L76.54705893229166,136.08915016867897L76.78823041666666,102.43069180575283L76.83646471354166,99.76104736328125L76.88469901041667,84.79256924715908L77.27057338541667,30.907331986860793L77.55997916666666,4.449901234019896L77.75291635416667,53.7237548828125L77.80115065104167,41.101956454190336L77.84938494791668,17.800098765980106L78.28349361979167,11.974387428977272L78.52466510416667,8.252885298295459L79.19994526041665,-35.680691805752836L79.29641385416666,-25.971995960582376L80.26109979166667,34.06290505149148L80.30933408854168,24.110751065340917L80.50227127604167,55.584505948153414L80.55050557291666,34.62932794744319L80.59873986979167,20.71270751953125L81.46695721354168,44.176541415127836L81.70812869791666,64.16084983132102L82.04576877604165,41.101956454190336L82.09400307291666,46.441739169034086L82.38340885416667,59.467984286221586L82.47987744791666,69.50112637606533L82.72104893229167,104.93885387073863L82.81751752604166,80.3426680131392L83.10692330729167,55.01808305220171L83.97514065104167,70.71446644176136L84.07160924479166,64.97023703835227L84.16807783854166,65.53616610440342L84.55395221354166,22.007035688920457L84.69865510416666,24.191739169034083L85.08452947916666,71.60434792258523L85.22923236979167,68.0443281693892L85.37393526041666,96.20102761008523L86.00098111979167,152.5944269353693L86.33862119791667,177.75703568892047L86.62802697916666,135.60371537642047L86.82096416666667,99.76104736328125L86.91743276041666,116.26632412997158L86.96566705729167,134.55185768821022L87.25507283854168,141.67189719460228L87.73741580729165,189.65092884410512L87.97858729166667,158.66260875355113L88.02682158854167,161.8181818181818L88.17152447916666,156.8828457919034L88.46093026041667,158.7435968572443L88.55739885416666,165.7826482599432L88.70210174479166,134.95630437677556L88.84680463541667,109.14628462357955L88.99150752604166,127.99824107776988L89.03974182291667,140.05361661044034L89.90795916666667,233.3420354669744L95.26196611979167,245.15444668856534L95.79254338541666,173.5500987659801L96.17841776041666,145.55537553267047L96.22665205729167,156.63988148082387L96.37135494791666,104.3729248046875L96.46782354166666,106.31466397372158L96.51605783854167,121.0401777787642L96.95016651041666,172.25527676669034L97.28780658854167,149.11539528586647L98.01132104166666,44.904446688565336L98.05955533854167,36.65205522017046L98.20425822916667,6.230158025568187L98.54189830729166,-8.899802468039791L99.12070986979165,24.515691583806813L99.36188135416667,44.33802379261365L99.41011565104166,44.33802379261365L99.50658424479167,35.19525701349431L99.84422432291667,64.56529651988636L100.18186440104166,113.51569158380683L100.23009869791667,154.86011851917613L100.66420736979167,183.58274702592328L102.20770486979167,220.31529651988637L102.59357924479167,147.98254949396306L103.02768791666666,113.19173916903408L103.07592221354167,101.8647627397017L103.26885940104167,100.97438742897727L103.51003088541667,124.19525701349433L103.65473377604167,127.9172529740767L103.75120236979167,127.350830078125L103.89590526041667,106.07169966264205L104.04060815104168,130.18294455788353L104.23354533854166,125.16612659801137L104.61941971354166,147.25464422052556L105.00529408854166,147.90205522017047L105.19823127604167,196.12355735085228L108.18875768229167,207.37003950639203L108.33346057291666,171.2034190784801L108.57463205729167,163.92189719460228L108.62286635416666,172.25527676669034L108.71933494791666,191.99711470170453L108.76756924479167,176.70567183061078L108.81580354166667,179.69926868785512L111.27575268229167,191.43069180575284L111.61339276041667,176.22023703835228L112.04750143229167,113.83915016867898L112.19220432291668,130.66837935014203L112.52984440104167,120.4737548828125L112.62631299479166,109.55073131214488L112.81925018229167,141.5099209872159L113.30159315104167,84.79256924715908L113.34982744791667,83.57922918146306L113.49453033854167,105.58626487038352L113.73570182291667,140.70102761008522L113.92863901041666,126.29897238991477L114.55568486979168,231.238320090554L114.70038776041666,228.81114612926137L114.98979354166667,154.86011851917613L115.03802783854168,162.54658092151988L115.08626213541666,162.54658092151988L115.18273072916666,142.88523726029828L115.85801088541668,126.37996049360795L116.72622822916667,60.43885387073865L117.01563401041668,63.59442693536931L117.35327408854167,55.98895263671875L117.64267986979166,57.121798428622164L117.83561705729167,76.45918967507102L117.93208565104166,75.56930819424717L118.02855424479166,108.7418379350142L118.31796002604166,150.89565207741478L118.46266291666666,142.6427667791193L118.55913151041666,121.84907115589488L118.70383440104168,102.43069180575283L118.84853729166666,154.13171941583806L118.99324018229167,154.29369562322444L119.42734885416667,120.95918967507102L119.52381744791666,115.53841885653408L120.10262901041666,90.94173916903408L120.15086330729167,83.98367587002842L120.19909760416667,96.20102761008523L120.87437776041666,154.6171542080966L121.06731494791667,148.06353759765625L121.26025213541666,135.60371537642047L121.45318932291667,120.95918967507102L121.50142361979167,148.14452570134944L121.64612651041666,168.37179842862216L121.74259510416667,156.47839910333806L121.83906369791667,152.7564031427557L122.22493807291667,163.92189719460228L122.32140666666668,189.1654940518466L122.46610955729166,163.51745050603694L122.61081244791667,180.83162064985797L122.75551533854167,167.6433993252841L122.85198393229166,202.92013827237216L123.14138971354167,179.37531627308238L123.91313846354167,177.1911066228693L124.25077854166666,178.97086958451703L124.49195002604166,147.98254949396306L124.54018432291666,164.81177867542613L124.58841861979167,166.43005925958806L124.68488721354167,172.57922918146306L124.73312151041667,187.30474298650566L128.30245947916669,178.56642289595172L128.54363096354166,162.6270751953125L128.59186526041668,137.7884188565341L128.92950533854167,137.3834783380682L128.97773963541667,152.18998024680397L129.17067682291665,124.8426680131392L129.26714541666666,114.00112637606533L129.36361401041665,122.65796453302558L129.55655119791666,75.24535577947444L130.03889416666667,101.8647627397017L130.13536276041665,99.92252974076705L130.23183135416667,121.20166015625L130.28006565104167,106.80009876598012L130.47300283854167,136.25112637606534L130.61770572916666,143.20918967507103L131.00358010416667,128.72614635120738L131.19651729166665,123.06290505149148L131.87179744791666,150.08626487038353L132.06473463541667,173.14565207741478L132.16120322916666,157.6917391690341L132.40237471354166,179.29432816938922L132.45060901041666,172.17478249289772L132.54707760416667,160.52385364879262L132.64354619791666,164.56930819424716L132.69178049479166,147.7400790127841L132.78824908854165,147.41612659801137L132.88471768229167,156.5588933771307L132.93295197916666,132.61011851917613L133.27059205729165,118.1270751953125L133.41529494791666,122.73895263671875L133.65646643229167,89.64741099964488L134.23527799479166,105.82922918146308L134.42821518229167,78.88636363636364L134.57291807291668,60.600830078125L135.05526104166665,56.23191694779829L135.34466682291665,67.55889337713069L135.39290111979167,68.12531627308239L135.48936971354166,62.13812255859375L135.63407260416668,48.707430752840914L135.77877549479166,25.56705544211648L135.82700979166665,12.783774636008522L135.87524408854168,27.58978271484375L136.35758705729168,41.4254150390625L136.40582135416668,40.85899214311079L136.45405565104167,63.51343883167615L136.55052424479166,59.54897238991477L137.12933580729168,54.29017777876421L137.17757010416668,80.3426680131392L137.22580440104167,94.50175892223012L137.27403869791667,107.68998024680398L137.65991307291668,178.88988148082387L140.40926799479166,192.07810280539772L140.60220518229167,164.48832009055397L141.08454815104167,133.01456520774147L141.47042252604166,99.35660067471592L141.51865682291665,93.77385364879262L142.04923408854168,59.467984286221586L142.43510846354167,132.85258900035512L142.72451424479166,127.83626487038352L142.77274854166666,129.85899214311078L142.86921713541668,152.7564031427557L142.96568572916667,121.12067205255683L143.20685721354167,71.52385364879261L144.12330885416668,97.6573319868608L144.41271463541668,122.17252974076705L144.46094893229167,114.48656116832387L144.94329190104168,119.01745050603692L145.0397604947917,87.13924893465908L145.18446338541668,111.57345858487217L145.23269768229167,123.38636363636363L145.28093197916667,121.36363636363637L145.76327494791667,130.50640314275566L145.81150924479164,123.54833984375L145.95621213541668,131.47727272727272L146.24561791666665,141.75288529829547L146.48678940104168,162.78905140269887L146.58325799479167,161.08978271484375L146.67972658854166,141.34794477982953L146.77619518229164,148.22551380504262L147.21030385416665,117.31818181818183L147.40324104166666,115.21446644176137L147.59617822916667,139.24472323330966L147.69264682291669,115.21446644176137L147.83734971354167,133.01456520774147L148.27145838541668,96.52448619495738L148.31969268229165,106.71911066228692L148.51262986979165,58.740079012784086L148.80203565104168,76.62067205255681L148.89850424479167,113.43470348011363L149.47731580729166,190.37932794744316L149.76672158854169,192.72551380504262L149.9596587760417,176.3007313121449L150.24906455729166,203.40557306463066L152.08196783854166,189.0845059481534L152.22667072916667,145.55537553267047L152.37137361979168,145.79833984375L152.41960791666668,156.9638338955966L152.61254510416668,120.4737548828125L153.52899674479167,87.38171941583806L153.72193393229168,82.1229248046875L153.81840252604167,86.16837935014205L154.05957401041667,11.974387428977272L154.30074549479167,36.9755138050426L154.92779135416666,17.557134454900563L155.12072854166667,81.71798428622158L155.26543143229168,93.44990123401988L155.98894588541668,77.75351784446023L156.51952315104165,116.75175892223012L156.56775744791668,123.14339932528408L156.71246033854166,144.90796453302556L157.00186611979166,147.33563232421875L157.33950619791668,139.97262850674716L157.38774049479164,123.46735174005683L157.43597479166667,117.56114612926137L157.48420908854166,107.52800403941762L157.53244338541668,123.95278653231533L157.58067768229165,136.00816206498578L157.96655205729166,158.66260875355113L159.07594088541668,174.2780040394176L159.12417518229165,165.70166015625L159.17240947916667,171.52737149325284L159.51004955729167,177.51456520774147L160.04062682291666,212.790810324929L160.76414127604167,207.612509987571L160.90884416666668,176.94814231178978L161.00531276041664,169.01920942826703L161.05354705729167,170.15205522017047L161.15001565104168,165.6206720525568L162.06646729166667,172.57922918146306L162.30763877604167,149.35835959694603L162.45234166666668,156.8828457919034L162.59704455729167,110.84555331143467L163.03115322916668,130.4254150390625L163.07938752604164,133.17654141512784L163.36879330729167,140.62003950639203L163.46526190104166,138.27385364879262L163.51349619791665,135.68470348011363L163.80290197916668,112.38284579190342L163.94760486979166,118.77448619495738L164.23701065104166,101.94525701349433L164.33347924479168,109.79369562322442L164.42994783854166,139.89164040305397L164.57465072916668,126.94638338955967L165.00875940104166,112.70630437677558L165.24993088541666,83.01280628551136L165.34639947916665,89.88988148082387L165.39463377604167,99.5180830522017L165.44286807291667,135.19926868785512L165.97344533854167,172.17478249289772L166.45578830729167,183.0163241299716L171.66509236979167,238.19638338955966L172.38860682291664,151.5425692471591L172.48507541666666,147.82106711647728L172.58154401041665,135.68470348011363L172.67801260416667,134.95630437677556L172.77448119791666,161.9801580255682L173.20858986979167,190.54081032492897L173.40152705729167,193.85835959694603L174.0285729166667,107.68998024680398L174.22151010416667,158.58162064985797L175.13796174479168,205.10434792258525L175.90971049479168,187.87067205255684L176.19911627604165,177.27160089666194L176.24735057291667,152.5944269353693L176.3438191666667,186.65733198686078L177.79084807291667,183.58274702592328L178.12848815104167,173.7925692471591L178.32142533854167,169.66612659801135L178.65906541666666,118.28905140269887L178.70729971354166,118.28905140269887L179.04493979166665,172.41725297407672L179.18964268229166,172.66021728515625L180.34726580729165,91.75112637606533L180.4919686979167,95.55361661044033L180.82960877604168,117.64164040305398L180.97431166666667,69.09618585759944L181.02254596354166,50.0017589222301L181.11901455729165,57.04081032492898L181.16724885416667,73.95102761008523L181.50488893229166,79.04833984375L181.60135752604168,88.11011851917614L182.13193479166668,63.75640314275569L182.37310627604168,83.82169966264205L182.80721494791666,80.82810280539773L182.90368354166668,152.27096835049716L183.00015213541664,162.14164040305397L183.19308932291665,149.92478249289772L183.3377922135417,182.61187744140625L183.96483807291665,156.47839910333806L184.01307236979167,150.97614635120738L184.06130666666667,179.1328457919034L184.73658682291665,185.52448619495738L185.02599260416667,166.59203546697444L185.07422690104164,137.62644264914772L185.12246119791666,148.62996049360797L185.31539838541667,187.95166015625L185.55656986979167,166.43005925958806L185.89420994791666,160.44286554509944L186.28008432291665,109.06529651988637L186.47302151041666,148.06353759765625L186.66595869791666,198.06529651988637L188.93297065104167,234.71735174005684L189.8011879947917,157.85371537642047L189.99412518229167,187.95166015625L190.13882807291668,124.2762451171875L190.37999955729165,129.53553355823863L190.66940533854168,175.32986172762784L190.71763963541667,175.16837935014203L190.91057682291668,152.10899214311078L191.00704541666667,131.96270751953125L191.29645119791667,195.80009876598012L191.97173135416665,195.39565207741478L192.26113713541667,170.87996049360797L192.40584002604166,158.98656116832387L192.69524580729166,172.09379438920453L193.22582307291665,203.89100785688922L193.65993174479166,178.16197620738637L193.80463463541665,151.70454545454547L193.9493375260417,166.8345059481534L194.04580611979165,167.88636363636365L194.28697760416668,158.66260875355113L195.05872635416668,269.83162064985794L195.44460072916667,221.2861661044034L195.63753791666667,168.93822132457385L195.73400651041666,148.4679842862216L196.0234122916667,115.86187744140625L196.07164658854165,124.51920942826705L196.40928666666667,129.05009876598012L196.98809822916667,199.0361661044034L197.22926971354164,183.90620561079547L197.37397260416668,177.27160089666194L197.80808127604166,139.32521750710228L197.85631557291666,153.64628462357953L198.14572135416668,136.89804354580966L198.19395565104165,155.02160089666194L198.8692358072917,97.6573319868608L199.06217299479167,67.39741099964489L199.15864158854166,57.930691805752836L199.25511018229167,57.76920942826704L199.39981307291666,31.311778675426144L199.54451596354167,27.428300337357957L199.97862463541668,-52.67189719460229L201.57035643229165,-74.11250998757104L202.72797955729166,37.78440718217329L202.87268244791667,42.23430841619319L203.01738533854166,74.84090909090908L203.11385393229165,100.97438742897727L204.12677416666668,163.92189719460228L204.27147705729166,152.83739124644887L204.46441424479167,141.75288529829547L204.51264854166666,157.36828058416194L204.5608828385417,149.11539528586647L204.85028861979166,224.60371537642047L205.09146010416666,215.94638338955966L205.52556877604167,170.63749001242897L205.71850596354167,148.38749001242897L205.86320885416666,166.99648215553978L206.1043803385417,147.09266801313922L206.49025471354167,146.68822132457387L206.68319190104168,134.3088933771307L206.77966049479167,110.19814231178977L206.8761290885417,123.54833984375L207.50317494791665,147.17365611683238L207.59964354166667,155.50703568892047L207.74434643229168,135.19926868785512L208.32315799479167,152.43294455788353L208.51609518229168,173.0646639737216L208.75726666666668,116.34731223366477L208.85373526041667,114.97199596058238L209.33607822916667,74.03201571377842L209.43254682291666,113.83915016867898L209.52901541666668,73.22262850674717L210.15606127604167,58.98254949396306L210.44546705729167,90.86075106534092L210.92781002604167,105.50527676669033L211.16898151041667,87.30073131214489L211.50662158854166,114.48656116832387L211.65132447916665,153.32282603870738L211.74779307291666,191.91612659801137L214.54538229166667,222.0145652077415L215.07595955729167,177.51456520774147L215.36536533854166,166.02561257102272L215.65477111979166,177.9190118963068L215.79947401041665,225.25112637606534L219.80292065104166,198.3892489346591L219.99585783854167,170.87996049360797L220.09232643229169,179.4563043767756L221.15348096354165,150.08626487038353L221.29818385416664,182.5308893377131L221.97346401041668,115.37644264914773L222.21463549479168,127.18885387073863L222.26286979166665,128.0792291814631L222.35933838541666,143.5326482599432L222.74521276041668,127.350830078125L222.98638424479168,154.05073131214488L223.32402432291667,181.31705544211647L227.23100236979167,194.01984197443184L227.32747096354169,146.93069180575284L228.19568830729168,169.18069180575284L228.43685979166668,142.6427667791193L228.67803127604168,190.54081032492897L228.82273416666666,168.93822132457385L228.96743705729168,165.37820157137784L229.20860854166668,166.02561257102272L229.73918580729168,203.40557306463066L232.15090065104167,204.4574307528409L232.34383783854165,177.9190118963068L232.48854072916666,169.10019753196022L232.77794651041665,113.27272727272727L232.87441510416664,78.31994074041194L233.30852377604165,98.3852372602983L233.50146096354166,69.74359685724431L233.79086674479169,32.76808305220171L234.03203822916666,35.76167990944602L234.32144401041668,27.91373512961648L234.51438119791666,29.774486194957394L234.7555526822917,59.71094859730115L235.09319276041668,58.82106711647727L235.28612994791666,66.83098810369319L235.72023861979164,92.72199596058238L235.86494151041668,91.83162064985795L236.44375307291668,73.54658092151989L236.78139315104167,127.10835959694602L236.92609604166665,140.7820157137784L237.02256463541667,156.5588933771307L237.07079893229167,163.67893288352272L237.26373611979164,72.65620561079545L237.31197041666667,69.17717396129261L237.36020471354166,71.52385364879261L237.93901627604168,99.76104736328125L238.22842205729165,165.94462446732953L238.27665635416668,178.48543479225853L238.37312494791666,179.05185768821022L238.61429643229167,162.7080632990057L238.66253072916666,182.6928655450994L238.80723361979167,170.96094859730115L239.09663940104167,173.5500987659801L239.28957658854168,174.60195645419034L239.62721666666667,127.43181818181817L240.10955963541664,253.16436767578125L243.53419471354167,192.72551380504262L243.63066330729168,169.66612659801135L244.01653768229167,121.84907115589488L244.11300627604166,144.50351784446022L244.16124057291668,185.03905140269887L244.78828643229167,95.63460471413352L244.88475502604166,74.67893288352273L244.93298932291668,91.26569158380683L245.3670979947917,89.88988148082387L245.51180088541668,77.59203546697444L245.60826947916667,80.99007901278408L246.04237815104167,120.31177867542613L246.18708104166666,97.57634388316762L246.28354963541668,80.58563232421875L246.38001822916667,95.31114612926137L246.95882979166666,70.14804354580967L247.77881283854168,96.36250998757102L248.01998432291668,88.67654141512783L248.50232729166666,36.32810280539773L248.79173307291666,24.191739169034083L249.12937315104168,33.17252974076704L249.41877893229167,55.50351784446023L249.5152475260417,44.58098810369319L249.70818471354167,26.37644264914773L250.04582479166666,59.30650190873579L250.09405908854168,68.69173916903408L250.14229338541665,43.69110662286931L250.62463635416668,60.600830078125L251.39638510416668,19.1754150390625L251.63755658854166,7.282015713778416L251.87872807291666,63.51343883167615L252.11989955729166,66.02160089666194L252.16813385416668,43.69110662286931L252.26460244791667,76.21622536399148L252.40930533854166,118.1270751953125L252.89164830729166,103.88749001242898L253.08458549479167,127.83626487038352L253.1328197916667,116.42830033735795L253.42222557291666,191.43069180575284L259.4997469791667,211.49648215553975L259.59621557291666,168.45278653231534L259.7409184635417,168.37179842862216L260.07855854166667,117.399169921875L260.36796432291663,83.49824107776989L260.5126672135417,76.05474298650569L260.60913580729164,63.59442693536931L260.65737010416666,86.32986172762783L260.89854158854166,51.053616610440336" style="fill: none;" fill="none"></path></g></g></g></g></g></g><g transform="translate(41, 178)" clip-path="url(#clip_1)"><clipPath id="clip_1"><rect width="288" height="22"></rect></clipPath><g><g><line x1="0" y1="0" x2="0" y2="5" style="visibility: inherit;" fill="rgb(0, 0, 0)" stroke="rgb(204, 204, 204)" stroke-width="1px"></line><line x1="24.069010416666664" y1="0" x2="24.069010416666664" y2="5" style="visibility: inherit;" fill="rgb(0, 0, 0)" stroke="rgb(204, 204, 204)" stroke-width="1px"></line><line x1="48.13802083333333" y1="0" x2="48.13802083333333" y2="5" style="visibility: inherit;" fill="rgb(0, 0, 0)" stroke="rgb(204, 204, 204)" stroke-width="1px"></line><line x1="72.20703125" y1="0" x2="72.20703125" y2="5" style="visibility: inherit;" fill="rgb(0, 0, 0)" stroke="rgb(204, 204, 204)" stroke-width="1px"></line><line x1="96.27604166666666" y1="0" x2="96.27604166666666" y2="5" style="visibility: inherit;" fill="rgb(0, 0, 0)" stroke="rgb(204, 204, 204)" stroke-width="1px"></line><line x1="120.34505208333334" y1="0" x2="120.34505208333334" y2="5" style="visibility: inherit;" fill="rgb(0, 0, 0)" stroke="rgb(204, 204, 204)" stroke-width="1px"></line><line x1="144.4140625" y1="0" x2="144.4140625" y2="5" style="visibility: inherit;" fill="rgb(0, 0, 0)" stroke="rgb(204, 204, 204)" stroke-width="1px"></line><line x1="168.48307291666669" y1="0" x2="168.48307291666669" y2="5" style="visibility: inherit;" fill="rgb(0, 0, 0)" stroke="rgb(204, 204, 204)" stroke-width="1px"></line><line x1="192.55208333333331" y1="0" x2="192.55208333333331" y2="5" style="visibility: inherit;" fill="rgb(0, 0, 0)" stroke="rgb(204, 204, 204)" stroke-width="1px"></line><line x1="216.62109375" y1="0" x2="216.62109375" y2="5" style="visibility: inherit;" fill="rgb(0, 0, 0)" stroke="rgb(204, 204, 204)" stroke-width="1px"></line><line x1="240.69010416666669" y1="0" x2="240.69010416666669" y2="5" style="visibility: inherit;" fill="rgb(0, 0, 0)" stroke="rgb(204, 204, 204)" stroke-width="1px"></line><line x1="264.7591145833333" y1="0" x2="264.7591145833333" y2="5" style="visibility: inherit;" fill="rgb(0, 0, 0)" stroke="rgb(204, 204, 204)" stroke-width="1px"></line><line x1="288.828125" y1="0" x2="288.828125" y2="5" style="visibility: inherit;" fill="rgb(0, 0, 0)" stroke="rgb(204, 204, 204)" stroke-width="1px"></line></g><g transform="translate(0, 8)"><text x="0" y="0" dx="0em" dy="0.95em" style="text-anchor: middle; visibility: hidden; font-family: Roboto, sans-serif; font-size: 12px; font-weight: 200;" fill="rgb(50, 49, 63)" stroke="none" stroke-width="1px">-500k</text><text x="24.069010416666664" y="0" dx="0em" dy="0.95em" style="text-anchor: middle; visibility: inherit; font-family: Roboto, sans-serif; font-size: 12px; font-weight: 200;" fill="rgb(50, 49, 63)" stroke="none" stroke-width="1px">0</text><text x="48.13802083333333" y="0" dx="0em" dy="0.95em" style="text-anchor: middle; visibility: hidden; font-family: Roboto, sans-serif; font-size: 12px; font-weight: 200;" fill="rgb(50, 49, 63)" stroke="none" stroke-width="1px">500k</text><text x="72.20703125" y="0" dx="0em" dy="0.95em" style="text-anchor: middle; visibility: inherit; font-family: Roboto, sans-serif; font-size: 12px; font-weight: 200;" fill="rgb(50, 49, 63)" stroke="none" stroke-width="1px">1M</text><text x="96.27604166666666" y="0" dx="0em" dy="0.95em" style="text-anchor: middle; visibility: hidden; font-family: Roboto, sans-serif; font-size: 12px; font-weight: 200;" fill="rgb(50, 49, 63)" stroke="none" stroke-width="1px">1.5M</text><text x="120.34505208333334" y="0" dx="0em" dy="0.95em" style="text-anchor: middle; visibility: inherit; font-family: Roboto, sans-serif; font-size: 12px; font-weight: 200;" fill="rgb(50, 49, 63)" stroke="none" stroke-width="1px">2M</text><text x="144.4140625" y="0" dx="0em" dy="0.95em" style="text-anchor: middle; visibility: hidden; font-family: Roboto, sans-serif; font-size: 12px; font-weight: 200;" fill="rgb(50, 49, 63)" stroke="none" stroke-width="1px">2.5M</text><text x="168.48307291666669" y="0" dx="0em" dy="0.95em" style="text-anchor: middle; visibility: inherit; font-family: Roboto, sans-serif; font-size: 12px; font-weight: 200;" fill="rgb(50, 49, 63)" stroke="none" stroke-width="1px">3M</text><text x="192.55208333333331" y="0" dx="0em" dy="0.95em" style="text-anchor: middle; visibility: hidden; font-family: Roboto, sans-serif; font-size: 12px; font-weight: 200;" fill="rgb(50, 49, 63)" stroke="none" stroke-width="1px">3.5M</text><text x="216.62109375" y="0" dx="0em" dy="0.95em" style="text-anchor: middle; visibility: inherit; font-family: Roboto, sans-serif; font-size: 12px; font-weight: 200;" fill="rgb(50, 49, 63)" stroke="none" stroke-width="1px">4M</text><text x="240.69010416666669" y="0" dx="0em" dy="0.95em" style="text-anchor: middle; visibility: hidden; font-family: Roboto, sans-serif; font-size: 12px; font-weight: 200;" fill="rgb(50, 49, 63)" stroke="none" stroke-width="1px">4.5M</text><text x="264.7591145833333" y="0" dx="0em" dy="0.95em" style="text-anchor: middle; visibility: inherit; font-family: Roboto, sans-serif; font-size: 12px; font-weight: 200;" fill="rgb(50, 49, 63)" stroke="none" stroke-width="1px">5M</text><text x="288.828125" y="0" dx="0em" dy="0.95em" style="text-anchor: middle; visibility: hidden; font-family: Roboto, sans-serif; font-size: 12px; font-weight: 200;" fill="rgb(50, 49, 63)" stroke="none" stroke-width="1px">5.5M</text></g><line x1="0" y1="0" x2="288.828125" y2="0" fill="rgb(0, 0, 0)" stroke="rgb(204, 204, 204)" stroke-width="1px"></line></g></g></g></g></svg>