<svg viewBox="0 0 330 200" xmlns="http://www.w3.org/2000/svg"><g><g><g><g><g><line x1="50" y1="178" x2="45" y2="178" style="visibility: inherit;" fill="rgb(0, 0, 0)" stroke="rgb(204, 204, 204)" stroke-width="1px"></line><line x1="50" y1="161.81818181818184" x2="45" y2="161.81818181818184" style="visibility: inherit;" fill="rgb(0, 0, 0)" stroke="rgb(204, 204, 204)" stroke-width="1px"></line><line x1="50" y1="145.63636363636363" x2="45" y2="145.63636363636363" style="visibility: inherit;" fill="rgb(0, 0, 0)" stroke="rgb(204, 204, 204)" stroke-width="1px"></line><line x1="50" y1="129.45454545454547" x2="45" y2="129.45454545454547" style="visibility: inherit;" fill="rgb(0, 0, 0)" stroke="rgb(204, 204, 204)" stroke-width="1px"></line><line x1="50" y1="113.27272727272727" x2="45" y2="113.27272727272727" style="visibility: inherit;" fill="rgb(0, 0, 0)" stroke="rgb(204, 204, 204)" stroke-width="1px"></line><line x1="50" y1="97.09090909090912" x2="45" y2="97.09090909090912" style="visibility: inherit;" fill="rgb(0, 0, 0)" stroke="rgb(204, 204, 204)" stroke-width="1px"></line><line x1="50" y1="80.90909090909092" x2="45" y2="80.90909090909092" style="visibility: inherit;" fill="rgb(0, 0, 0)" stroke="rgb(204, 204, 204)" stroke-width="1px"></line><line x1="50" y1="64.72727272727273" x2="45" y2="64.72727272727273" style="visibility: inherit;" fill="rgb(0, 0, 0)" stroke="rgb(204, 204, 204)" stroke-width="1px"></line><line x1="50" y1="48.54545454545456" x2="45" y2="48.54545454545456" style="visibility: inherit;" fill="rgb(0, 0, 0)" stroke="rgb(204, 204, 204)" stroke-width="1px"></line><line x1="50" y1="32.363636363636374" x2="45" y2="32.363636363636374" style="visibility: inherit;" fill="rgb(0, 0, 0)" stroke="rgb(204, 204, 204)" stroke-width="1px"></line><line x1="50" y1="16.18181818181821" x2="45" y2="16.18181818181821" style="visibility: inherit;" fill="rgb(0, 0, 0)" stroke="rgb(204, 204, 204)" stroke-width="1px"></line><line x1="50" y1="0" x2="45" y2="0" style="visibility: inherit;" fill="rgb(0, 0, 0)" stroke="rgb(204, 204, 204)" stroke-width="1px"></line></g><g transform="translate(40, 0)"><text x="0" y="178" dx="0em" dy="0.3em" style="text-anchor: end; visibility: hidden; font-family: Roboto, sans-serif; font-size: 12px; font-weight: 200;" fill="rgb(50, 49, 63)" stroke="none" stroke-width="1px">0.45</text><text x="0" y="161.81818181818184" dx="0em" dy="0.3em" style="text-anchor: end; visibility: inherit; font-family: Roboto, sans-serif; font-size: 12px; font-weight: 200;" fill="rgb(50, 49, 63)" stroke="none" stroke-width="1px">0.5</text><text x="0" y="145.63636363636363" dx="0em" dy="0.3em" style="text-anchor: end; visibility: hidden; font-family: Roboto, sans-serif; font-size: 12px; font-weight: 200;" fill="rgb(50, 49, 63)" stroke="none" stroke-width="1px">0.55</text><text x="0" y="129.45454545454547" dx="0em" dy="0.3em" style="text-anchor: end; visibility: inherit; font-family: Roboto, sans-serif; font-size: 12px; font-weight: 200;" fill="rgb(50, 49, 63)" stroke="none" stroke-width="1px">0.6</text><text x="0" y="113.27272727272727" dx="0em" dy="0.3em" style="text-anchor: end; visibility: hidden; font-family: Roboto, sans-serif; font-size: 12px; font-weight: 200;" fill="rgb(50, 49, 63)" stroke="none" stroke-width="1px">0.65</text><text x="0" y="97.09090909090912" dx="0em" dy="0.3em" style="text-anchor: end; visibility: inherit; font-family: Roboto, sans-serif; font-size: 12px; font-weight: 200;" fill="rgb(50, 49, 63)" stroke="none" stroke-width="1px">0.7</text><text x="0" y="80.90909090909092" dx="0em" dy="0.3em" style="text-anchor: end; visibility: hidden; font-family: Roboto, sans-serif; font-size: 12px; font-weight: 200;" fill="rgb(50, 49, 63)" stroke="none" stroke-width="1px">0.75</text><text x="0" y="64.72727272727273" dx="0em" dy="0.3em" style="text-anchor: end; visibility: inherit; font-family: Roboto, sans-serif; font-size: 12px; font-weight: 200;" fill="rgb(50, 49, 63)" stroke="none" stroke-width="1px">0.8</text><text x="0" y="48.54545454545456" dx="0em" dy="0.3em" style="text-anchor: end; visibility: hidden; font-family: Roboto, sans-serif; font-size: 12px; font-weight: 200;" fill="rgb(50, 49, 63)" stroke="none" stroke-width="1px">0.85</text><text x="0" y="32.363636363636374" dx="0em" dy="0.3em" style="text-anchor: end; visibility: inherit; font-family: Roboto, sans-serif; font-size: 12px; font-weight: 200;" fill="rgb(50, 49, 63)" stroke="none" stroke-width="1px">0.9</text><text x="0" y="16.18181818181821" dx="0em" dy="0.3em" style="text-anchor: end; visibility: hidden; font-family: Roboto, sans-serif; font-size: 12px; font-weight: 200;" fill="rgb(50, 49, 63)" stroke="none" stroke-width="1px">0.95</text><text x="0" y="0" dx="0em" dy="0.3em" style="text-anchor: end; visibility: hidden; font-family: Roboto, sans-serif; font-size: 12px; font-weight: 200;" fill="rgb(50, 49, 63)" stroke="none" stroke-width="1px">1</text></g><line x1="50" y1="0" x2="50" y2="178" fill="rgb(0, 0, 0)" stroke="rgb(204, 204, 204)" stroke-width="1px"></line></g></g><g transform="translate(50, 0)" clip-path="url(#clip_0)"><clipPath id="clip_0"><rect width="280" height="178"></rect></clipPath><g><g><g><line x1="0" y1="0" x2="0" y2="178" fill="rgb(0, 0, 0)" stroke="rgb(60, 60, 60)" stroke-width="1px" opacity="0.25"></line><line x1="23.333333333333332" y1="0" x2="23.333333333333332" y2="178" fill="rgb(0, 0, 0)" stroke="rgb(60, 60, 60)" stroke-width="1px" opacity="0.25"></line><line x1="46.666666666666664" y1="0" x2="46.666666666666664" y2="178" fill="rgb(0, 0, 0)" stroke="rgb(60, 60, 60)" stroke-width="1px" opacity="0.25"></line><line x1="70" y1="0" x2="70" y2="178" fill="rgb(0, 0, 0)" stroke="rgb(60, 60, 60)" stroke-width="1px" opacity="0.25"></line><line x1="93.33333333333333" y1="0" x2="93.33333333333333" y2="178" fill="rgb(0, 0, 0)" stroke="rgb(60, 60, 60)" stroke-width="1px" opacity="0.25"></line><line x1="116.66666666666667" y1="0" x2="116.66666666666667" y2="178" fill="rgb(0, 0, 0)" stroke="rgb(60, 60, 60)" stroke-width="1px" opacity="0.25"></line><line x1="140" y1="0" x2="140" y2="178" fill="rgb(0, 0, 0)" stroke="rgb(60, 60, 60)" stroke-width="1px" opacity="0.25"></line><line x1="163.33333333333334" y1="0" x2="163.33333333333334" y2="178" fill="rgb(0, 0, 0)" stroke="rgb(60, 60, 60)" stroke-width="1px" opacity="0.25"></line><line x1="186.66666666666666" y1="0" x2="186.66666666666666" y2="178" fill="rgb(0, 0, 0)" stroke="rgb(60, 60, 60)" stroke-width="1px" opacity="0.25"></line><line x1="210" y1="0" x2="210" y2="178" fill="rgb(0, 0, 0)" stroke="rgb(60, 60, 60)" stroke-width="1px" opacity="0.25"></line><line x1="233.33333333333334" y1="0" x2="233.33333333333334" y2="178" fill="rgb(0, 0, 0)" stroke="rgb(60, 60, 60)" stroke-width="1px" opacity="0.25"></line><line x1="256.66666666666663" y1="0" x2="256.66666666666663" y2="178" fill="rgb(0, 0, 0)" stroke="rgb(60, 60, 60)" stroke-width="1px" opacity="0.25"></line><line x1="280" y1="0" x2="280" y2="178" fill="rgb(0, 0, 0)" stroke="rgb(60, 60, 60)" stroke-width="1px" opacity="0.25"></line></g><g><line x1="0" y1="178" x2="280" y2="178" fill="rgb(0, 0, 0)" stroke="rgb(60, 60, 60)" stroke-width="1px" opacity="0.25"></line><line x1="0" y1="161.81818181818184" x2="280" y2="161.81818181818184" fill="rgb(0, 0, 0)" stroke="rgb(60, 60, 60)" stroke-width="1px" opacity="0.25"></line><line x1="0" y1="145.63636363636363" x2="280" y2="145.63636363636363" fill="rgb(0, 0, 0)" stroke="rgb(60, 60, 60)" stroke-width="1px" opacity="0.25"></line><line x1="0" y1="129.45454545454547" x2="280" y2="129.45454545454547" fill="rgb(0, 0, 0)" stroke="rgb(60, 60, 60)" stroke-width="1px" opacity="0.25"></line><line x1="0" y1="113.27272727272727" x2="280" y2="113.27272727272727" fill="rgb(0, 0, 0)" stroke="rgb(60, 60, 60)" stroke-width="1px" opacity="0.25"></line><line x1="0" y1="97.09090909090912" x2="280" y2="97.09090909090912" fill="rgb(0, 0, 0)" stroke="rgb(60, 60, 60)" stroke-width="1px" opacity="0.25"></line><line x1="0" y1="80.90909090909092" x2="280" y2="80.90909090909092" fill="rgb(0, 0, 0)" stroke="rgb(60, 60, 60)" stroke-width="1px" opacity="0.25"></line><line x1="0" y1="64.72727272727273" x2="280" y2="64.72727272727273" fill="rgb(0, 0, 0)" stroke="rgb(60, 60, 60)" stroke-width="1px" opacity="0.25"></line><line x1="0" y1="48.54545454545456" x2="280" y2="48.54545454545456" fill="rgb(0, 0, 0)" stroke="rgb(60, 60, 60)" stroke-width="1px" opacity="0.25"></line><line x1="0" y1="32.363636363636374" x2="280" y2="32.363636363636374" fill="rgb(0, 0, 0)" stroke="rgb(60, 60, 60)" stroke-width="1px" opacity="0.25"></line><line x1="0" y1="16.18181818181821" x2="280" y2="16.18181818181821" fill="rgb(0, 0, 0)" stroke="rgb(60, 60, 60)" stroke-width="1px" opacity="0.25"></line><line x1="0" y1="0" x2="280" y2="0" fill="rgb(0, 0, 0)" stroke="rgb(60, 60, 60)" stroke-width="1px" opacity="0.25"></line></g></g></g><g><g><line x1="0" y1="323.6363636363636" x2="280" y2="323.6363636363636" fill="rgb(0, 0, 0)" stroke="rgb(153, 153, 153)" stroke-width="1.5px"></line></g></g><g><g><line x1="23.333333333333332" y1="0" x2="23.333333333333332" y2="178" fill="rgb(0, 0, 0)" stroke="rgb(153, 153, 153)" stroke-width="1.5px"></line></g></g><g><g><g><g><g><path stroke="rgb(238, 51, 119)" stroke-width="2px" d="M24.03389333333333,0L24.641773333333337,-4.5847770024920464e-12L25.997813333333333,-2.4504842599526455e-12L26.27837333333333,1.2845280394913061e-12L26.41865333333333,9.28812582401406e-13L27.120053333333335,-1.0671463712697005e-12L27.260333333333335,1.0869083411080283e-12L27.49413333333333,3.5571545708990016e-13L27.868213333333333,0.5008960068935053L28.195533333333334,0.9302345102123151L28.569613333333336,1.5195987117289267L28.709893333333333,2.239086191043902L28.756653333333336,3.065828104401347L29.083973333333333,3.800707720929428L29.31777333333333,4.458229613815141L29.691853333333334,5.376718805338182L30.299733333333332,6.0520708781842725L30.814093333333332,6.6660251570670725L31.047893333333334,7.368855397109736L31.188173333333335,8.149519555370235L31.609013333333333,8.605698485304861L31.655773333333332,9.02678497205216L32.12337333333333,9.538108904574251L32.357173333333336,9.895755321319456L32.450693333333334,10.115566076190934L32.49745333333333,10.320721788169452L32.684493333333336,10.618613751491313L33.058573333333335,11.103311033492394L33.432653333333334,11.55863029188113L33.47941333333333,11.987163705225555L33.713213333333336,12.673354244816705L34.22757333333333,13.22993746244528L34.50813333333333,13.66737778189604L34.741933333333336,14.255299337127209L34.88221333333333,14.7284967244536L35.44333333333333,15.755514489541653L35.72389333333333,16.73242730794631L35.95769333333333,17.584166922567807L36.28501333333333,18.780566766486317L36.472053333333335,19.92257660694416L36.56557333333333,21.160849842544867L37.454013333333336,22.99283630113222L37.68781333333333,24.81730759054004L37.73457333333333,26.56574553353473L37.96837333333333,28.310451779476637L38.202173333333334,29.786376544123844L38.29569333333333,31.139351821131598L38.66977333333333,32.567956098434955L38.71653333333333,33.94263885501202L39.04385333333333,35.266395731027366L39.230893333333334,36.48155798891616L39.65173333333333,37.653310843411425L40.02581333333334,38.43363812460658L40.77397333333333,39.01483466885249L40.961013333333334,39.63278443914418L41.241573333333335,40.17458326676257L41.42861333333333,40.589286231327904L41.522133333333336,41.04441576539382L43.48605333333333,41.802974248099304L43.53281333333333,42.69435524698559L43.626333333333335,43.60970089533097L43.90689333333333,44.750535633025L44.327733333333335,46.30654762841392L44.42125333333333,47.86598394934353L44.46801333333333,49.283167805470406L44.608293333333336,50.65984484781474L44.88885333333334,51.95052954750993L45.309693333333335,53.019088434185996L45.44997333333334,54.10430866404609L45.49673333333334,55.20553690651L45.96433333333333,56.277385830933824L46.759253333333334,57.011607049632694L46.85277333333333,57.639451334783104L47.50741333333333,58.251189190752584L47.741213333333334,58.93260344878374L47.83473333333333,59.59697359492221L47.97501333333334,60.2449308927092L48.34909333333333,61.00034119238021L48.62965333333333,61.615698397762515L48.72317333333333,62.2163959240438L48.86345333333333,62.7235573665791L49.14401333333333,63.297426659464534L49.377813333333336,63.93574093553275L49.84541333333333,64.6363397266062L50.125973333333334,65.24520945345904L50.406533333333336,65.8781239441956L50.59357333333334,66.45992958526705L50.87413333333334,67.24989830636369L50.96765333333334,67.98644114623927L51.01441333333334,68.70730167886734L51.10793333333333,69.41297513521002L51.20145333333333,70.24529335296069L51.24821333333333,71.06043731689003L51.48201333333333,71.92823736023071L51.52877333333333,72.81281124214807L51.94961333333333,73.67967933101014L52.23017333333333,74.42834960662574L52.32369333333333,75.09560999491393L52.55749333333333,75.84905643190217L52.791293333333336,76.68624959514172L52.884813333333334,77.57238912545478L53.445933333333336,78.47395712267277L53.77325333333333,79.29490108140696L53.82001333333333,80.1006279936788L53.91353333333333,80.82890843934186L54.00705333333333,81.54393442217496L54.05381333333333,82.21527422503286L54.14733333333333,82.90514363052294L54.70845333333333,83.52224071597435L54.848733333333335,84.0984762446657L55.03577333333333,84.75401188571927L55.176053333333336,85.39823283081492L55.31633333333333,86.09002342413493L55.503373333333336,86.74101240011592L55.550133333333335,87.38104778774488L55.73717333333334,87.98179669056456L55.97097333333333,88.57260403420209L56.01773333333334,89.18187965458158L56.48533333333333,89.6694356816889L56.67237333333333,90.09364153964474L56.81265333333333,90.48352163365142L57.18673333333333,90.8398804289227L57.37377333333333,91.13637404214715L57.51405333333333,91.42822876048815L57.560813333333336,91.68882396632685L57.607573333333335,91.94540449462284L57.934893333333335,92.09267730410274L58.215453333333336,92.2115561287414L58.308973333333334,92.3286447240754L58.35573333333333,92.4439831699331L58.542773333333336,92.55761035859257L58.72981333333334,92.64412430400075L58.87009333333334,92.72937333843295L58.916853333333336,92.86357609072847L58.963613333333335,92.99584482387684L59.15065333333333,93.1509823738903L59.57149333333333,93.32851346764296L59.75853333333333,93.50354000753185L59.80529333333333,93.70039186392822L59.85205333333333,93.8945050372932L59.94557333333333,94.06197033181311L59.992333333333335,94.20332425751774L60.272893333333336,94.39007736466445L60.45993333333333,94.62133119734432L60.50669333333333,94.89621155747729L60.600213333333336,95.14419638120748L60.693733333333334,95.41197169652933L60.83401333333333,95.65327648441037L60.88077333333334,95.86861937092688L60.927533333333336,96.10382471015978L60.974293333333335,96.3359891792196L61.11457333333333,96.54277547334901L61.301613333333336,96.74692223612952L61.53541333333334,96.92634573821525L61.58217333333334,97.10350767285222L61.628933333333336,97.25657197154187L61.90949333333333,97.38597764687044L62.704413333333335,97.62192950727766L62.89145333333333,97.8549799568441L62.984973333333336,98.12795497039332L63.21877333333333,98.35507946132866L64.34101333333334,98.60061068859738L64.43453333333333,98.82216177253036L64.66833333333334,99.0829050631316L64.76185333333333,99.36135966209142L64.94889333333333,99.59514672125549L65.04241333333333,99.82619287905479L65.41649333333334,100.07501715067428L65.69705333333333,100.25986935855754L65.88409333333334,100.42233597808892L66.21141333333334,100.64339014825532L66.30493333333334,100.94210541242914L66.58549333333333,101.29726069825581L66.67901333333333,101.6285762177267L66.81929333333333,101.9364425249109L66.86605333333334,102.22124137839285L66.95957333333334,102.50288482989868L67.33365333333333,102.82030614924454L67.38041333333334,103.11490513755373L67.52069333333333,103.40629307154978L67.84801333333333,103.73282834887276L67.98829333333333,104.03678310356679L68.40913333333333,104.31851098416837L68.59617333333334,104.67273288400644L68.73645333333333,104.98562704679371L68.78321333333334,105.27652345474496L69.20405333333333,105.45273154160842L69.25081333333334,105.60858100339728L69.43785333333334,105.7628105075295L69.48461333333334,105.91544510508574L69.53137333333333,106.06650933327933L69.57813333333334,106.21602722856552L69.76517333333334,106.36402233935002L69.81193333333334,106.49250897763174L69.95221333333333,106.65555385445036L69.99897333333332,106.81696292718985L70.37305333333333,107.04782310782203L70.56009333333333,107.20564498866841L70.65361333333333,107.3971219288035L70.74713333333334,107.62177476068796L70.79389333333334,107.84422829175968L71.21473333333333,107.99500911964184L71.35501333333333,108.14432799972623L71.72909333333332,108.2749801085088L71.82261333333332,108.37007383061409L72.00965333333333,108.49841539246566L72.05641333333334,108.60853029099331L72.29021333333333,108.73453619308064L72.61753333333334,108.8424922356285L73.13189333333334,108.91585255078363L73.22541333333334,108.98852785165639L73.50597333333333,109.06052765244446L73.64625333333333,109.18161139106314L73.73977333333335,109.33461037682325L73.92681333333334,109.53554981647419L74.11385333333332,109.73465526500522L74.20737333333332,109.96458092901621L74.44117333333334,110.22492468473975L74.48793333333333,110.49910784385469L74.53469333333334,110.75471345304355L74.90877333333333,111.10437048532569L75.18933333333334,111.4988966427604L75.37637333333333,111.88993206733544L75.42313333333333,112.26165557645905L75.46989333333333,112.63011858831854L75.89073333333333,112.96387501897941L76.12453333333335,113.27904543056681L76.77917333333333,113.49774525843367L76.87269333333333,113.69899544256627L77.80789333333333,113.68144824890223L77.85465333333333,113.64860467925281L78.04169333333334,113.56987571316938L78.08845333333333,113.50714496862038L78.13521333333334,113.44494383033627L78.97689333333334,113.45935121332244L79.21069333333334,113.4584769958484L79.53801333333332,113.4425046647688L79.58477333333333,113.42666497268642L79.86533333333334,113.4259517521782L79.95885333333334,113.42524440638816L80.19265333333333,113.45431736718038L80.28617333333332,113.49798663503817L80.56673333333333,113.55608141250963L81.40841333333333,113.73153224612659L81.50193333333333,113.90556664270756L81.59545333333334,114.0782015998526L81.96953333333333,114.26402709995L82.10981333333332,114.44837008303095L82.48389333333333,114.6891358390188L82.62417333333333,114.94241757915903L82.76445333333332,115.1505855880111L83.37233333333333,115.414410122263L83.69965333333333,115.63334834955788L83.98021333333332,115.79367815834732L84.16725333333333,115.8818762729504L84.26077333333333,115.95526258983324L84.30753333333334,116.04216557854093L84.58809333333335,116.07226079424261L85.05569333333332,116.07414891731854L85.28949333333334,116.10390694255501L85.33625333333333,116.14733525567745L85.47653333333334,116.21813633038028L85.75709333333333,116.32981978145149L85.85061333333334,116.44066484214324L85.99089333333333,116.50953363955067L86.13117333333334,116.5642176795182L86.27145333333333,116.6321233193448L86.31821333333333,116.6859426100156L87.15989333333334,116.76644652965169L87.86129333333334,116.87335449382685L88.56269333333333,116.89875008561295L88.70297333333333,116.93737313557575L88.74973333333332,116.96234495798272L88.84325333333334,116.97380712288204L88.89001333333334,117.01176144146683L89.87197333333333,117.15541334282922L89.91873333333334,117.29803615687966L90.15253333333334,117.4001460871479L90.29281333333333,117.47528037908965L90.47985333333332,117.53679739216479L90.57337333333332,117.59787981659245L90.76041333333333,117.68454327932498L90.94745333333333,117.79653150318944L91.13449333333332,117.95944690211977L92.30349333333334,118.10833816375407L92.35025333333333,118.25619546992189L92.86461333333332,118.36459177556891L93.23869333333333,118.49778998430398L93.28545333333334,118.61733527575437L93.42573333333333,118.71066169694808L93.51925333333332,118.77802507128081L93.56601333333333,118.85755611629229L93.98685333333333,118.87359967780452L94.31417333333334,118.92719478225985L95.01557333333334,118.98042874828042L95.06233333333334,119.02082363086164L95.20261333333333,119.07339410641347L95.52993333333333,119.15043503922985L96.09105333333332,119.23933913181276L96.32485333333334,119.33999455331654L96.37161333333333,119.43998487569588L96.46513333333333,119.53931661983759L96.79245333333334,119.61352120597226L97.11977333333333,119.66283304103487L97.16653333333333,119.72399303898493L97.58737333333333,119.72407352538254L97.77441333333333,119.7362565528707L97.86793333333333,119.7604308514737L98.05497333333334,119.7844494334919L98.47581333333332,119.82031828154497L98.80313333333334,119.83201340808493L98.84989333333333,119.83169407414506L99.08369333333333,119.83137677163087L99.45777333333334,119.80730950679128L99.87861333333333,119.75970559364686L99.92537333333334,119.70058876995677L100.11241333333334,119.64184340634668L100.34621333333334,119.58346604180879L100.48649333333334,119.53717312419371L100.58001333333334,119.5145469596538L100.72029333333333,119.46874362885178L100.86057333333333,119.4115952523348L101.04761333333333,119.3200041831004L101.42169333333332,119.2752507340887L101.79577333333333,119.26538835449188L101.98281333333333,119.25558628395635L102.12309333333334,119.23436400937263L102.16985333333334,119.20181987510898L102.45041333333333,119.20373848359452L102.49717333333334,119.1942525043083L102.87125333333334,119.1961880338232L103.05829333333334,119.19811193500153L103.10505333333333,119.18871672840704L103.15181333333334,119.17937763884409L103.24533333333333,119.17009416966638L103.38561333333334,119.16086583007083L103.71293333333332,119.1852803212339L103.75969333333333,119.20955065948208L104.13377333333334,119.21139553299312L104.18053333333333,119.20211543606413L104.60137333333334,119.23723827292031L104.78841333333334,119.30533711274614L104.88193333333334,119.3951068469412L105.02221333333333,119.49536263504442L105.25601333333334,119.61699970682722L105.30277333333333,119.72698013307665L105.39629333333333,119.82539896639226L105.44305333333334,119.91235030968949L105.48981333333333,119.98792713533594L105.72361333333333,120.08477493906508L106.37825333333332,120.17024572658148L106.79909333333333,120.25523131818996L107.07965333333334,120.35051099973346L107.40697333333333,120.41300226194325L107.45373333333333,120.47514167985472L107.87457333333333,120.49413010196194L108.20189333333335,120.53436402264313L108.62273333333333,120.53176759608871L108.76301333333333,120.52918563051412L109.09033333333333,120.53722084341351L109.18385333333333,120.52405402807221L109.37089333333333,120.50040514633064L109.83849333333333,120.46635551362127L109.88525333333332,120.42198568726138L110.02553333333334,120.3673752894315L110.25933333333333,120.34444449210044L110.44637333333333,120.31120161322833L111.05425333333334,120.29896730324461L111.14777333333333,120.30758099716665L111.19453333333333,120.3161480966502L111.47509333333333,120.3350140839658L111.52185333333334,120.35377854904073L111.56861333333333,120.3724422998316L111.66213333333333,120.42183855633229L112.31677333333333,120.4914813390138L113.15845333333334,120.55052026166149L113.43901333333334,120.60924555453428L113.76633333333334,120.67784859812801L114.04689333333333,120.7765903500822L114.23393333333334,120.8951022594679L114.32745333333334,121.02311472541452L114.42097333333334,121.13025127863146L114.70153333333333,121.22674645624859L114.84181333333332,121.33279763074073L114.93533333333333,121.40818144348421L115.07561333333334,121.483173817786L115.21589333333333,121.55777775738646L115.35617333333333,121.62202065815906L115.77701333333333,121.70584214943611L115.87053333333333,121.75943002236278L116.43165333333333,121.87222537514124L116.47841333333334,121.99433697401162L116.52517333333333,122.12569838330097L117.17981333333333,122.2366854847554L117.36685333333334,122.356941628149L117.55389333333333,122.49621393873726L117.74093333333333,122.64457518360278L117.78769333333332,122.79218846352316L117.92797333333334,122.92930606300212L118.02149333333334,123.08520308213649L118.11501333333334,123.24031981247556L118.48909333333334,123.404356826341L118.58261333333334,123.57725220456099L118.72289333333333,123.7396321501954L118.86317333333334,123.8915699255666L119.00345333333333,124.03313813609506L119.09697333333334,124.15480943540311L119.23725333333334,124.27588181859556L119.37753333333333,124.39635963683095L120.12569333333333,124.44944642822037L120.45301333333333,124.46417608741243L120.68681333333333,124.48833990546127L120.73357333333333,124.50289855891896L120.78033333333333,124.49844802879727L120.87385333333333,124.47511693386966L120.92061333333334,124.46133150210304L121.01413333333333,124.44761251782981L121.10765333333333,124.42456253060263L121.29469333333333,124.40162313706398L121.48173333333332,124.39751626646144L121.71553333333334,124.41211635560526L121.80905333333334,124.3986686524589L122.13637333333334,124.36666776885876L122.22989333333334,124.34410980962284L122.27665333333334,124.3216586139984L122.51045333333333,124.29931343698688L122.69749333333334,124.29555218244995L122.93129333333333,124.3194753099265L123.02481333333333,124.36169660627002L123.07157333333333,124.40372030802618L123.53917333333334,124.44554777817737L123.58593333333333,124.48718036720214L123.77297333333333,124.51948153465719L123.91325333333334,124.56075411744142L124.05353333333333,124.59273098745946L124.10029333333334,124.62456018427736L124.24057333333333,124.66531452049819L124.28733333333334,124.70588147283273L124.38085333333333,124.73722308345714L124.61465333333334,124.77744426584076L124.66141333333334,124.82648866662592L124.98873333333333,124.90228231626548L125.03549333333333,124.97773124878115L125.22253333333333,125.04387865116132L125.31605333333333,125.11866981282253L125.40957333333333,125.19312301062412L125.59661333333332,125.27615233370483L126.06421333333333,125.39439305672637L126.15773333333333,125.50322216399968L126.25125333333332,125.60269844026082L126.29801333333333,125.7105798376736L126.48505333333334,125.8179799461153L126.62533333333333,125.9160826496772L126.99941333333334,126.04016182805587L127.18645333333333,126.17247991836244L127.84109333333333,126.28666483008179L128.02813333333333,126.40910459662155L128.12165333333334,126.53100497821038L128.35545333333332,126.64364031883018L128.40221333333332,126.76449589224524L128.49573333333333,126.87612273879398L128.58925333333335,126.98726190886858L128.63601333333332,127.08924613209871L128.72953333333334,127.19078664249781L128.82305333333332,127.29188627904755L128.86981333333333,127.40117484849766L129.19713333333334,127.50999084608614L129.33741333333333,127.60973891351549L129.57121333333333,127.70047330594224L130.13233333333332,127.82509759142906L130.31937333333335,127.97485495328309L130.45965333333334,128.10688768160318L130.92725333333334,128.22130071869182L131.20781333333332,128.30968424142011L131.25457333333333,128.38919168608913L131.34809333333334,128.45987529647851L131.48837333333333,128.54720440233496L131.62865333333335,128.64262301601138L131.67541333333332,128.72919371698592L131.72217333333333,128.81539976786726L132.18977333333333,128.875989097121L132.23653333333334,128.93632422445606L132.28329333333335,128.9964067162676L132.37681333333333,129.0478601683883L132.93793333333335,129.12419292872113L132.98469333333333,129.20855933535623L133.03145333333333,129.29257524954986L133.07821333333334,129.37624280911862L133.45229333333333,129.46787614851337L133.87313333333333,129.59232707046164L134.66805333333335,129.74112312150152L135.32269333333335,129.95549207455997L135.50973333333334,130.18550135102433L135.55649333333332,130.40632048478227L135.65001333333333,130.61800165570182L136.02409333333333,130.82059660227762L136.11761333333334,131.02236602473107L136.30465333333333,131.23151163717483L136.77225333333334,131.4316240490445L137.14633333333333,131.63092570867332L137.19309333333334,131.8457400318748L137.70745333333335,132.06783426746648L138.08153333333334,132.25649549353238L138.36209333333335,132.4362758615162L138.40885333333333,132.61533471214818L138.50237333333334,132.79367629117587L138.59589333333332,132.97130481111463L138.82969333333332,133.1482244515725L139.71813333333333,133.26800853082082L139.99869333333334,133.37121725561917L140.04545333333334,133.4820540019198L140.51305333333332,133.57640032279727L140.60657333333336,133.67838743278804L140.74685333333335,133.80397809212553L140.79361333333335,133.92108377529456L140.84037333333333,134.02975047504881L141.30797333333334,134.13799067964197L141.35473333333331,134.2537620613297L141.49501333333333,134.3690807247891L141.77557333333334,134.4918813634784L142.00937333333334,134.63796539329024L142.10289333333333,134.77557212212062L142.19641333333334,134.91264465019358L142.28993333333332,135.04129961538305L142.71077333333332,135.19308220920573L142.89781333333332,135.34427875598746L143.08485333333334,135.4791873759016L143.17837333333335,135.61357697027694L143.31865333333334,135.73962020370536L143.73949333333334,135.84954191080482L143.78625333333332,135.93561865534153L143.97329333333332,136.02916368858308L144.25385333333335,136.09120754282137L144.34737333333334,136.1607904249284L144.90849333333333,136.2378732417095L144.95525333333333,136.31466369426093L145.00201333333334,136.39890604646942L145.04877333333332,136.4750981268573L145.18905333333333,136.56644504479956L145.37609333333336,136.66515841349798L145.65665333333334,136.74040116185745L145.70341333333334,136.80767227349764L145.84369333333333,136.89004867305826L146.21777333333333,136.949112573859L146.45157333333333,137.03092889636952L146.59185333333335,137.13538187898337L146.73213333333334,137.23944622054665L146.77889333333334,137.3431240342783L147.05945333333332,137.4388013335028L147.15297333333334,137.51891287079482L147.43353333333332,137.56834620734256L147.57381333333333,137.6175971889123L147.71409333333332,137.65909165744284L147.76085333333333,137.70043357809234L147.94789333333335,137.73406887583343L148.83633333333333,137.7223119344123L149.02337333333335,137.7105979959833L149.11689333333334,137.6838771831783L149.35069333333334,137.6196795136108L149.58449333333334,137.52569578365998L150.1923733333333,137.45453861448638L150.37941333333333,137.383639532074L150.51969333333335,137.29804642415414L151.22109333333333,137.2052971307373L151.73545333333334,137.15016185720864L151.78221333333335,137.09522522811017L151.92249333333334,137.0479226691787L152.20305333333332,137.05277783476993L152.53037333333333,137.07245004998074L152.5771333333333,137.0920518571375L152.6238933333333,137.1115836237987L152.67065333333335,137.13843433643697L152.71741333333335,137.15781026796455L152.76417333333333,137.18448702652026L153.13825333333332,137.20370876828318L154.21373333333335,137.18610758020444L154.26049333333333,137.16856866917053L154.30725333333334,137.15109171397137L154.63457333333332,137.12635334563248L155.14893333333333,137.07244682402214L155.24245333333334,137.01142514756845L155.80357333333333,136.928731315136L155.85033333333334,136.83904094196015L155.99061333333333,136.74966434136113L156.0841333333333,136.66059991416105L156.13089333333332,136.5718460720226L156.22441333333336,136.4906513034297L157.11285333333333,136.41697985937543L157.34665333333334,136.34356409486983L157.48693333333335,136.27762593617902L157.62721333333334,136.21913022359314L158.04805333333334,136.18245302481532L158.09481333333332,136.1459023108849L158.37537333333333,136.13104100518882L158.4688933333333,136.12340991891392L158.51565333333332,136.11580502510188L158.79621333333336,136.15835776171636L158.93649333333335,136.20791787123346L159.21705333333333,136.2573086712632L159.31057333333334,136.30653100333637L159.40409333333332,136.37696708861944L159.54437333333334,136.4400450842944L159.96521333333334,136.4815788240155L160.19901333333334,136.53717484209878L160.29253333333332,136.59258269263742L160.33929333333333,136.64071868105805L160.38605333333334,136.68869225247002L160.90041333333332,136.7082328783153L161.36801333333335,136.699469920896L161.74209333333334,136.6554806841465L162.53701333333333,136.63276746164948L162.86433333333335,136.6030957331486L162.91109333333333,136.5664968931634L163.05137333333332,136.53703832115758L163.51897333333335,136.5497373960772L163.79953333333333,136.56939594610566L163.98657333333333,136.57500196580833L164.22037333333333,136.56661840019197L164.31389333333334,136.55826260969175L164.40741333333332,136.5499344606671L164.50093333333334,136.53467245533696L164.59445333333332,136.5125074659623L164.78149333333334,136.4834701270276L164.82825333333335,136.45452827163L164.96853333333334,136.43261091279288L165.24909333333335,136.3900006992535L165.34261333333333,136.33370253981502L165.48289333333332,136.2775884077876L165.85697333333331,136.21475940046238L165.95049333333336,136.16591567116316L165.99725333333333,136.11034839119233L166.04401333333334,136.04121224265683L166.41809333333333,135.98603442290522L167.1194933333333,135.96533193986036L167.21301333333335,135.9515480687554L167.30653333333333,135.930964738774L167.40005333333335,135.9172841750588L167.49357333333333,135.91047649077532L167.91441333333333,135.93097550331657L168.10145333333332,135.9650360232946L168.70933333333335,136.00579343591158L168.89637333333334,136.02602439036454L169.78481333333335,136.07335531120023L170.48621333333332,136.07983282458667L170.53297333333333,136.09306596017686L170.81353333333334,136.0994880868368L170.86029333333335,136.099128301082L170.95381333333336,136.09876965764576L171.09409333333335,136.10515895399348L171.32789333333332,136.11826751466762L171.46817333333334,136.1111380174554L171.51493333333332,136.1107559688786L171.60845333333333,136.1170928246667L172.35661333333334,136.10327824740514L172.68393333333333,136.08280381125712L172.87097333333332,136.06908975947528L173.1982933333333,136.06210769896006L173.24505333333335,136.0551474943376L173.57237333333333,136.06155850194546L173.71265333333332,136.06794949746953L174.83489333333333,136.03435703897884L174.97517333333334,135.98756206242962L175.30249333333333,135.97414516857225L175.44277333333332,135.9674094905198L175.48953333333333,135.97395979980666L175.5830533333333,135.9672386301576L175.62981333333335,135.960538237252L175.95713333333333,135.94063496904104L176.05065333333334,135.9141881855225L176.56501333333333,135.90101882511067L176.79881333333333,135.9076634622314L177.21965333333333,135.9274563647584L177.31317333333334,135.94718858617088L177.40669333333332,135.96686039526543L177.59373333333332,135.9930360408166L177.73401333333334,136.03224628329795L178.34189333333333,136.0778874875921L178.38865333333334,136.1168458996L178.43541333333334,136.16876011772138L178.71597333333332,136.2270471629415L179.09005333333332,136.25906210558543L179.37061333333335,136.31704895107148L179.41737333333333,136.36834980439536L179.46413333333334,136.4194957105781L179.65117333333333,136.47698481953114L179.88497333333333,136.54079170946406L180.21229333333332,136.61089106657417L180.58637333333334,136.6872577421364L180.77341333333334,136.7504524424953L180.96045333333333,136.81345779844915L181.05397333333335,136.86335756023328L181.33453333333333,136.91310820897377L181.47481333333332,136.98204749443548L181.56833333333333,137.07009926767128L181.6618533333333,137.17075486996967L181.75537333333335,137.27753787154498L181.89565333333334,137.37116332613152L182.12945333333334,137.45168329723313L182.69057333333333,137.52555718123145L182.92437333333334,137.58640984054045L183.15817333333334,137.6342925022593L183.99985333333333,137.68203394950154L184.18689333333336,137.71686940991154L184.32717333333335,137.73884938962524L184.56097333333332,137.7416538806248L184.84153333333333,137.76354257395298L184.88829333333334,137.78536713188578L185.07533333333333,137.7944240809329L185.16885333333332,137.8034545610053L185.44941333333335,137.80611901120656L185.49617333333333,137.80244209553948L185.77673333333334,137.8051034277542L186.10405333333333,137.80775702212858L186.38461333333333,137.81671839620336L186.52489333333335,137.8256537816439L186.80545333333333,137.86608080780684L187.31981333333331,137.87490321177262L187.41333333333333,137.8962832826575L187.74065333333334,137.93017298958506L187.88093333333333,137.96396503738796L188.02121333333335,138.00393365792874L188.11473333333333,138.03751944862395L188.34853333333334,138.09605715545257L189.09669333333335,138.14191454833144L189.19021333333333,138.18764062668714L189.23697333333334,138.23323593096208L189.42401333333333,138.2724622159824L189.47077333333334,138.30534359665253L189.65781333333334,138.369267480772L189.75133333333332,138.44545244682374L190.03189333333333,138.52142088606786L190.0786533333333,138.59096362943424L190.40597333333335,138.641696195206L190.96709333333334,138.6736891619839L191.2008933333333,138.71797761256266L191.34117333333336,138.76832829646665L191.76201333333333,138.79999186343815L191.80877333333333,138.83156621559056L192.08933333333334,138.86922217968L192.13609333333332,138.9067723054776L192.79073333333335,138.9257390728758L192.97777333333335,138.9631139351292L193.07129333333333,139.00038413447103L193.16481333333334,139.03140741470148L193.30509333333333,139.06234403043356L193.44537333333332,139.08706265945793L193.86621333333335,139.1117124039797L194.14677333333333,139.11181060884985L194.24029333333334,139.1057932673848L194.75465333333332,139.12423198709683L194.80141333333333,139.14261957100166L195.08197333333334,139.13656016868887L195.40929333333332,139.1183302471865L196.53153333333333,139.13059197819567L196.67181333333335,139.1489027552606L196.81209333333334,139.16716305560854L196.90561333333332,139.17930086671674L197.88757333333334,139.17927150630962L198.02785333333333,139.1792422265498L198.21489333333332,139.18526933442666L198.26165333333333,139.1973309611963L198.30841333333333,139.20935957497116L198.5889733333333,139.19719317251005L198.72925333333333,139.17902465125493L198.82277333333334,139.16090568149795L199.24361333333334,139.1548858814556L199.43065333333334,139.14888246071408L199.57093333333333,139.14289535550682L199.80473333333336,139.13692450239725L200.17881333333335,139.17900367668062L200.36585333333335,139.23296710087234L200.45937333333333,139.28678455399688L200.55289333333334,139.3404566007051L201.16077333333334,139.39996758846823L201.25429333333335,139.46529687102435L201.39457333333334,139.52447661057494L201.95569333333333,139.57155997921063L202.14273333333333,139.60658974143496L202.37653333333336,139.6713182557819L202.47005333333334,139.73587329797616L202.93765333333334,139.75266713863286L203.03117333333333,139.76347251379653L203.12469333333334,139.762371842353L203.73257333333333,139.77907502621247L204.01313333333334,139.7779476065342L204.48073333333332,139.78274695811382L204.71453333333335,139.81712786377187L205.04185333333334,139.8514174701717L205.18213333333333,139.88561612340828L205.27565333333334,139.91972416783366L206.21085333333335,139.97733926782823L206.25761333333332,140.04659103288606L206.30437333333333,140.1156599394604L206.53817333333333,140.1727770308567L206.63169333333332,140.2238636433913L206.91225333333333,140.28069102123902L207.09929333333335,140.34910987268097L207.47337333333334,140.40561777783776L207.52013333333335,140.46197747926618L207.75393333333332,140.50062111815012L207.80069333333333,140.5391636326962L207.98773333333332,140.5659120580169L208.50209333333333,140.57506473062747L208.78265333333334,140.58419353212383L209.06321333333332,140.55247051075918L209.2034933333333,140.51500214557353L209.71785333333335,140.4718079427263L209.90489333333335,140.43454447925703L210.09193333333334,140.39737766557298L210.18545333333333,140.36030714467194L210.41925333333333,140.32913726406997L210.60629333333333,140.30384806145932L210.84009333333336,140.26703314517408L211.07389333333333,140.24189505078476L211.26093333333333,140.21103536575237L211.30769333333333,140.18603691460712L211.40121333333335,140.1668799974682L211.82205333333332,140.13622681811776L211.86881333333332,140.10565227675926L212.38317333333333,140.0578649836336L212.47669333333334,139.9986815772065L212.52345333333332,139.9338947893297L212.85077333333334,139.8635232435189L212.94429333333332,139.7933312536888L212.99105333333333,139.72331816849487L213.03781333333333,139.65348333973014L213.0845733333333,139.5838261223061L213.27161333333333,139.53725807145L213.36513333333335,139.49653183745133L214.39385333333334,139.4673473271758L214.53413333333333,139.43823672438202L215.18877333333333,139.4377522026719L215.42257333333333,139.46579953385196L215.4693333333333,139.48807429658996L215.56285333333335,139.51029289024532L215.93693333333334,139.52676238376384L216.17073333333335,139.51474653584071L216.49805333333333,139.49707638518746L217.80733333333333,139.4624100770899L218.13465333333335,139.42783072353862L218.64901333333333,139.4160245067716L218.88281333333333,139.40991519155153L219.30365333333336,139.41514734451408L219.35041333333334,139.4147075756635L219.81801333333334,139.45385128021618L219.86477333333332,139.50419822976906L219.91153333333332,139.55441981716982L220.00505333333334,139.59887448255785L220.09857333333332,139.6375808930259L220.19209333333333,139.68182484151257L220.2388533333333,139.72032963719505L220.28561333333332,139.75311376952655L220.37913333333336,139.7914379143849L221.22081333333333,139.8296673251141L221.45461333333333,139.86780233348L221.68841333333336,139.91706078590693L221.82869333333335,139.9661978518039L221.96897333333334,140.00961339514268L222.20277333333334,140.05851864166988L222.71713333333332,140.0681570572208L223.13797333333335,140.10012508501381L223.27825333333334,140.12643048762007L223.32501333333335,140.14151102696164L223.74585333333332,140.134250015365L224.02641333333335,140.13815102088762L224.72781333333333,140.15317873390512L224.77457333333334,140.16816979107566L225.05513333333332,140.20536478527887L225.2421733333333,140.26469372891182L225.38245333333333,140.31832625613046L225.66301333333334,140.3718284905119L225.75653333333332,140.41411244519765L226.17737333333332,140.47291467471126L226.36441333333332,140.53711081670755L226.64497333333335,140.6011516295111L226.87877333333333,140.64845223821715L227.15933333333334,140.6735404088459L227.34637333333333,140.69304741086265L227.58017333333333,140.71802415564747L227.90749333333335,140.73742789902747L228.09453333333335,140.75678497367693L228.51537333333332,140.79261092228637L228.65565333333333,140.82284960397388L229.21677333333335,140.8860003519981L229.54409333333334,140.94350621262444L229.68437333333333,141.00087444753004L229.77789333333334,141.06359147552234L229.82465333333332,141.1206765587253L230.0116933333333,141.1885820940406L230.05845333333332,141.25632575383915L230.10521333333335,141.3239080824738L230.66633333333334,141.3694617046343L230.94689333333332,141.40398061757284L230.99365333333333,141.4329581116983L231.0871733333333,141.44549971595004L231.32097333333334,141.44165569705805L231.36773333333335,141.43237254201503L231.50801333333334,141.43400037643445L231.78857333333335,141.39753870467862L231.97561333333334,141.33941467356323L232.30293333333333,141.29229456620192L232.77053333333333,141.2127071295862L233.05109333333334,141.12788095545062L233.23813333333334,141.0649437838012L233.37841333333333,141.0021544717928L233.75249333333335,140.93409746832577L233.84601333333333,140.87161146472081L234.45389333333333,140.81467962321608L234.64093333333332,140.7686893702349L234.68769333333333,140.72820718771126L235.57613333333333,140.7202011918225L235.62289333333334,140.71760721073127L235.76317333333333,140.71501927726615L236.0904933333333,140.70166505992538L236.18401333333335,140.6937244979746L236.55809333333335,140.69118140929103L236.65161333333333,140.69401968151388L236.69837333333334,140.6914794640706L237.30625333333336,140.67284001903485L237.39977333333334,140.6596086022818L237.44653333333335,140.64640780069996L237.86737333333335,140.62787969934575L238.00765333333334,140.6201029676697L238.10117333333332,140.6123441793561L238.52201333333335,140.60460327624503L238.66229333333334,140.59688020042626L238.75581333333335,140.59985552551595L238.84933333333333,140.60816085737443L239.41045333333332,140.58978016047624L240.20537333333334,140.57677159961827L240.43917333333334,140.55846634108104L240.90677333333332,140.54020300474141L241.18733333333333,140.52730110533878L241.51465333333334,140.50379627573105L241.79521333333332,140.4590940011303L241.88873333333333,140.41449372454832L242.07577333333333,140.38060707222184L242.40309333333335,140.3733105560643L242.44985333333335,140.37132984478546L242.49661333333333,140.3746494629787L242.96421333333333,140.3832540002259L243.71237333333335,140.40241724082043L243.94617333333332,140.41096551288504L244.17997333333332,140.43005925608358L244.41377333333332,140.44383069563287L244.46053333333333,140.4628467640954L244.55405333333331,140.48709228903036L244.69433333333333,140.51655219261653L245.16193333333334,140.5512114598039L245.34897333333333,140.57000518217063L245.39573333333334,140.59401580204542L245.67629333333332,140.59694875359838L245.86333333333334,140.59987511587613L245.91009333333335,140.597545546428L246.28417333333334,140.58997510114514L246.37769333333333,140.58242161807863L246.42445333333333,140.58012463997773L246.47121333333334,140.57783279923203L246.56473333333332,140.57031295897536L246.7050133333333,140.57849958954506L246.75177333333332,140.58144128458883L246.79853333333332,140.58437642377126L246.84529333333333,140.58730502751936L247.03233333333336,140.5850100572551L247.12585333333334,140.5879340559076L247.26613333333333,140.59606224532328L247.31289333333334,140.59896489316415L247.35965333333334,140.60186110648672L247.40641333333335,140.59954973045961L247.49993333333333,140.59724346920427L247.64021333333332,140.61572181882775L247.68697333333333,140.63415935015848L247.96753333333334,140.63699037755558L248.24809333333334,140.63981516223404L248.34161333333336,140.64781606790268L248.48189333333335,140.65579936156243L249.04301333333333,140.68964574279997L249.41709333333336,140.7078986823517L249.4638533333333,140.720941588072L249.51061333333334,140.73395588297575L249.79117333333335,140.73145036991593L250.11849333333333,140.71862896712176L250.35229333333334,140.68004747824355L250.67961333333335,140.63639576704188L250.86665333333335,140.58768785722253L251.10045333333335,140.5287893162223L251.28749333333334,140.47001919455806L251.56805333333332,140.41137710200726L251.66157333333334,140.35800201120975L251.80185333333333,140.28933397376878L252.12917333333334,140.23621512545316L252.40973333333332,140.1934722700583L252.55001333333334,140.15594945037913L252.64353333333332,140.12363227980975L252.69029333333333,140.08626375258856L252.92409333333333,140.0643311474686" style="fill: none;" fill="none"></path></g></g></g></g><g opacity="0.2"><g><g><g><path stroke="rgb(238, 51, 119)" stroke-width="2px" d="M24.03389333333333,0L24.641773333333337,0L24.92233333333333,0L25.670493333333333,0L25.764013333333335,0L25.904293333333335,0L25.997813333333333,0L26.27837333333333,0L26.41865333333333,0L27.120053333333335,0L27.260333333333335,0L27.49413333333333,0L27.868213333333333,6.472721099853516L28.195533333333334,6.472721099853516L28.569613333333336,9.709081649780273L28.709893333333333,12.945461489937523L28.756653333333336,16.1818220398643L29.083973333333333,16.1818220398643L29.31777333333333,16.1818220398643L29.691853333333334,22.654543139717816L30.299733333333332,19.41818258979106L30.814093333333332,19.41818258979106L31.047893333333334,22.654543139717816L31.188173333333335,25.890903689644574L31.609013333333333,19.41818258979106L31.655773333333332,19.41818258979106L32.12337333333333,22.654543139717816L32.357173333333336,19.41818258979106L32.450693333333334,16.1818220398643L32.49745333333333,16.1818220398643L32.684493333333336,19.41818258979106L33.058573333333335,25.890903689644574L33.432653333333334,25.890903689644574L33.47941333333333,25.890903689644574L33.713213333333336,35.60000462965534L34.22757333333333,32.36364407972858L34.50813333333333,29.127264239571332L34.741933333333336,35.60000462965534L34.88221333333333,32.36364407972858L35.44333333333333,55.01818721944636L35.72389333333333,55.01818721944636L35.95769333333333,51.7818266695196L36.28501333333333,67.96362941915339L36.472053333333335,67.96362941915339L36.56557333333333,74.4363698092374L37.454013333333336,103.56363404880871L37.68781333333333,106.79999459873547L37.73457333333333,106.79999459873547L37.96837333333333,110.03635514866222L38.202173333333334,100.32727349888195L38.29569333333333,97.0909129489552L38.66977333333333,103.56363404880871L38.71653333333333,103.56363404880871L39.04385333333333,103.56363404880871L39.230893333333334,100.32727349888195L39.65173333333333,100.32727349888195L40.02581333333334,80.90909090909092L40.77397333333333,71.20000925931065L40.961013333333334,74.4363698092374L41.241573333333335,71.20000925931065L41.42861333333333,64.72726886922663L41.522133333333336,67.96362941915339L43.48605333333333,87.38181200894444L43.53281333333333,97.0909129489552L43.626333333333335,100.32727349888195L43.90689333333333,116.50909553874624L44.327733333333335,145.63635977831754L44.42125333333333,148.8727203282443L44.46801333333333,142.39999922839078L44.608293333333336,142.39999922839078L44.88885333333334,139.16363867846403L45.309693333333335,126.21817718852651L45.44997333333334,129.45453773845327L45.49673333333334,132.6909175786105L45.96433333333333,132.6909175786105L46.759253333333334,110.03635514866222L46.85277333333333,103.56363404880871L47.50741333333333,103.56363404880871L47.741213333333334,110.03635514866222L47.83473333333333,110.03635514866222L47.97501333333334,110.03635514866222L48.34909333333333,119.745456088673L48.62965333333333,110.03635514866222L48.72317333333333,110.03635514866222L48.86345333333333,103.56363404880871L49.14401333333333,110.03635514866222L49.377813333333336,116.50909553874624L49.84541333333333,122.98181663859975L50.125973333333334,116.50909553874624L50.406533333333336,119.745456088673L50.59357333333334,116.50909553874624L50.87413333333334,135.92727812853727L50.96765333333334,132.6909175786105L51.01441333333334,132.6909175786105L51.10793333333333,132.6909175786105L51.20145333333333,145.63635977831754L51.24821333333333,145.63635977831754L51.48201333333333,152.10910016840157L51.52877333333333,155.34546071832833L51.94961333333333,155.34546071832833L52.23017333333333,145.63635977831754L52.32369333333333,139.16363867846403L52.55749333333333,148.8727203282443L52.791293333333336,158.58182126825508L52.884813333333334,165.0545423681086L53.445933333333336,168.29091256315058L53.77325333333333,161.81818181818184L53.82001333333333,161.81818181818184L53.91353333333333,155.34546071832833L54.00705333333333,155.34546071832833L54.05381333333333,152.10910016840157L54.14733333333333,155.34546071832833L54.70845333333333,148.8727203282443L54.848733333333335,145.63635977831754L55.03577333333333,155.34546071832833L55.176053333333336,155.34546071832833L55.31633333333333,161.81818181818184L55.503373333333336,158.58182126825508L55.550133333333335,158.58182126825508L55.73717333333334,155.34546071832833L55.97097333333333,155.34546071832833L56.01773333333334,158.58182126825508L56.48533333333333,145.63635977831754L56.67237333333333,139.16363867846403L56.81265333333333,135.92727812853727L57.18673333333333,132.6909175786105L57.37377333333333,126.21817718852651L57.51405333333333,126.21817718852651L57.560813333333336,122.98181663859975L57.607573333333335,122.98181663859975L57.934893333333335,110.03635514866222L58.215453333333336,106.79999459873547L58.308973333333334,106.79999459873547L58.35573333333333,106.79999459873547L58.542773333333336,106.79999459873547L58.72981333333334,103.56363404880871L58.87009333333334,103.56363404880871L58.916853333333336,110.03635514866222L58.963613333333335,110.03635514866222L59.15065333333333,113.27273498881948L59.57149333333333,116.50909553874624L59.75853333333333,116.50909553874624L59.80529333333333,119.745456088673L59.85205333333333,119.745456088673L59.94557333333333,116.50909553874624L59.992333333333335,113.27273498881948L60.272893333333336,119.745456088673L60.45993333333333,126.21817718852651L60.50669333333333,132.6909175786105L60.600213333333336,129.45453773845327L60.693733333333334,132.6909175786105L60.83401333333333,129.45453773845327L60.88077333333334,126.21817718852651L60.927533333333336,129.45453773845327L60.974293333333335,129.45453773845327L61.11457333333333,126.21817718852651L61.301613333333336,126.21817718852651L61.53541333333334,122.98181663859975L61.58217333333334,122.98181663859975L61.628933333333336,119.745456088673L61.90949333333333,116.50909553874624L62.704413333333335,132.6909175786105L62.89145333333333,132.6909175786105L62.984973333333336,139.16363867846403L63.21877333333333,132.6909175786105L64.34101333333334,135.92727812853727L64.43453333333333,132.6909175786105L64.66833333333334,139.16363867846403L64.76185333333333,142.39999922839078L64.94889333333333,135.92727812853727L65.04241333333333,135.92727812853727L65.41649333333334,139.16363867846403L65.69705333333333,129.45453773845327L65.88409333333334,126.21817718852651L66.21141333333334,135.92727812853727L66.30493333333334,148.8727203282443L66.58549333333333,158.58182126825508L66.67901333333333,155.34546071832833L66.81929333333333,152.10910016840157L66.86605333333334,148.8727203282443L66.95957333333334,148.8727203282443L67.33365333333333,155.34546071832833L67.38041333333334,152.10910016840157L67.52069333333333,152.10910016840157L67.84801333333333,158.58182126825508L67.98829333333333,155.34546071832833L68.40913333333333,152.10910016840157L68.59617333333334,165.0545423681086L68.73645333333333,158.58182126825508L68.78321333333334,155.34546071832833L69.20405333333333,135.92727812853727L69.25081333333334,132.6909175786105L69.43785333333334,132.6909175786105L69.48461333333334,132.6909175786105L69.53137333333333,132.6909175786105L69.57813333333334,132.6909175786105L69.76517333333334,132.6909175786105L69.81193333333334,129.45453773845327L69.95221333333333,135.92727812853727L69.99897333333332,135.92727812853727L70.37305333333333,148.8727203282443L70.56009333333333,135.92727812853727L70.65361333333333,142.39999922839078L70.74713333333334,148.8727203282443L70.79389333333334,148.8727203282443L71.21473333333333,135.92727812853727L71.35501333333333,135.92727812853727L71.72909333333332,132.6909175786105L71.82261333333332,126.21817718852651L72.00965333333333,132.6909175786105L72.05641333333334,129.45453773845327L72.29021333333333,132.6909175786105L72.61753333333334,129.45453773845327L73.13189333333334,122.98181663859975L73.22541333333334,122.98181663859975L73.50597333333333,122.98181663859975L73.64625333333333,132.6909175786105L73.73977333333335,139.16363867846403L73.92681333333334,148.8727203282443L74.11385333333332,148.8727203282443L74.20737333333332,155.34546071832833L74.44117333333334,161.81818181818184L74.48793333333333,165.0545423681086L74.53469333333334,161.81818181818184L74.90877333333333,181.23636440797284L76.12453333333335,178.00000385804609L76.77917333333333,158.58182126825508L76.87269333333333,155.34546071832833L77.80789333333333,110.03635514866222L77.85465333333333,106.79999459873547L78.04169333333334,97.0909129489552L78.08845333333333,100.32727349888195L78.13521333333334,100.32727349888195L78.97689333333334,116.50909553874624L79.21069333333334,113.27273498881948L79.53801333333332,110.03635514866222L79.58477333333333,110.03635514866222L79.86533333333334,113.27273498881948L79.95885333333334,113.27273498881948L80.19265333333333,119.745456088673L80.28617333333332,122.98181663859975L80.56673333333333,126.21817718852651L81.40841333333333,152.10910016840157L81.50193333333333,152.10910016840157L81.59545333333334,152.10910016840157L81.96953333333333,155.34546071832833L82.10981333333332,155.34546071832833L82.48389333333333,168.29091256315058L82.62417333333333,171.52727311307734L82.76445333333332,161.81818181818184L83.37233333333333,174.7636336630041L83.69965333333333,165.0545423681086L83.98021333333332,152.10910016840157L84.16725333333333,135.92727812853727L84.26077333333333,132.6909175786105L84.30753333333334,135.92727812853727L84.58809333333335,122.98181663859975L85.05569333333332,116.50909553874624L85.28949333333334,122.98181663859975L85.33625333333333,126.21817718852651L85.47653333333334,132.6909175786105L85.75709333333333,142.39999922839078L85.85061333333334,142.39999922839078L85.99089333333333,132.6909175786105L86.13117333333334,129.45453773845327L86.27145333333333,132.6909175786105L86.31821333333333,129.45453773845327L87.15989333333334,135.92727812853727L87.86129333333334,142.39999922839078L88.56269333333333,122.98181663859975L88.70297333333333,126.21817718852651L88.74973333333332,122.98181663859975L88.84325333333334,119.745456088673L88.89001333333334,126.21817718852651L89.87197333333333,152.10910016840157L89.91873333333334,152.10910016840157L90.15253333333334,142.39999922839078L90.29281333333333,135.92727812853727L90.47985333333332,132.6909175786105L90.57337333333332,132.6909175786105L90.76041333333333,139.16363867846403L90.94745333333333,145.63635977831754L91.13449333333332,158.58182126825508L92.30349333333334,155.34546071832833L92.35025333333333,155.34546071832833L92.86461333333332,145.63635977831754L93.23869333333333,152.10910016840157L93.28545333333334,148.8727203282443L93.42573333333333,142.39999922839078L93.51925333333332,135.92727812853727L93.56601333333333,139.16363867846403L93.98685333333333,122.98181663859975L94.31417333333334,132.6909175786105L95.01557333333334,132.6909175786105L95.06233333333334,129.45453773845327L95.20261333333333,132.6909175786105L95.52993333333333,139.16363867846403L96.09105333333332,142.39999922839078L96.32485333333334,145.63635977831754L96.37161333333333,145.63635977831754L96.46513333333333,145.63635977831754L96.79245333333334,139.16363867846403L97.11977333333333,132.6909175786105L97.16653333333333,135.92727812853727L97.58737333333333,119.745456088673L97.77441333333333,122.98181663859975L97.86793333333333,126.21817718852651L98.05497333333334,126.21817718852651L98.47581333333332,129.45453773845327L98.80313333333334,122.98181663859975L98.84989333333333,119.745456088673L99.08369333333333,119.745456088673L99.45777333333334,113.27273498881948L99.87861333333333,106.79999459873547L99.92537333333334,103.56363404880871L100.11241333333334,103.56363404880871L100.34621333333334,103.56363404880871L100.48649333333334,106.79999459873547L100.58001333333334,113.27273498881948L100.72029333333333,106.79999459873547L100.86057333333333,103.56363404880871L101.04761333333333,93.85455239902844L101.42169333333332,106.79999459873547L101.79577333333333,116.50909553874624L101.98281333333333,116.50909553874624L102.12309333333334,113.27273498881948L102.16985333333334,110.03635514866222L102.45041333333333,119.745456088673L102.49717333333334,116.50909553874624L102.87125333333334,119.745456088673L103.05829333333334,119.745456088673L103.10505333333333,116.50909553874624L103.15181333333334,116.50909553874624L103.24533333333333,116.50909553874624L103.38561333333334,116.50909553874624L103.71293333333332,126.21817718852651L103.75969333333333,126.21817718852651L104.13377333333334,119.745456088673L104.18053333333333,116.50909553874624L104.60137333333334,129.45453773845327L104.78841333333334,139.16363867846403L104.88193333333334,145.63635977831754L105.02221333333333,148.8727203282443L105.25601333333334,155.34546071832833L105.30277333333333,152.10910016840157L105.39629333333333,148.8727203282443L105.44305333333334,145.63635977831754L105.48981333333333,142.39999922839078L105.72361333333333,148.8727203282443L106.37825333333332,145.63635977831754L106.79909333333333,145.63635977831754L107.07965333333334,148.8727203282443L107.40697333333333,139.16363867846403L107.45373333333333,139.16363867846403L107.87457333333333,126.21817718852651L108.20189333333335,132.6909175786105L108.62273333333333,119.745456088673L108.76301333333333,119.745456088673L109.09033333333333,122.98181663859975L109.18385333333333,116.50909553874624L109.37089333333333,113.27273498881948L109.83849333333333,110.03635514866222L109.88525333333332,106.79999459873547L110.02553333333334,103.56363404880871L110.25933333333333,113.27273498881948L110.44637333333333,110.03635514866222L111.05425333333334,116.50909553874624L111.14777333333333,122.98181663859975L111.19453333333333,122.98181663859975L111.47509333333333,126.21817718852651L111.52185333333334,126.21817718852651L111.56861333333333,126.21817718852651L111.66213333333333,135.92727812853727L112.31677333333333,142.39999922839078L113.15845333333334,139.16363867846403L113.43901333333334,139.16363867846403L113.76633333333334,142.39999922839078L114.04689333333333,152.10910016840157L114.23393333333334,158.58182126825508L114.32745333333334,161.81818181818184L114.42097333333334,155.34546071832833L114.70153333333333,152.10910016840157L114.84181333333332,155.34546071832833L114.93533333333333,145.63635977831754L115.07561333333334,145.63635977831754L115.21589333333333,145.63635977831754L115.35617333333333,142.39999922839078L115.77701333333333,148.8727203282443L115.87053333333333,139.16363867846403L116.43165333333333,158.58182126825508L116.47841333333334,161.81818181818184L116.52517333333333,165.0545423681086L117.17981333333333,158.58182126825508L117.36685333333334,161.81818181818184L117.55389333333333,168.29091256315058L117.74093333333333,171.52727311307734L117.78769333333332,171.52727311307734L117.92797333333334,168.29091256315058L118.02149333333334,174.7636336630041L118.11501333333334,174.7636336630041L118.48909333333334,178.00000385804609L118.72289333333333,178.00000385804609L118.86317333333334,174.7636336630041L119.00345333333333,171.52727311307734L119.09697333333334,165.0545423681086L119.23725333333334,165.0545423681086L119.37753333333333,165.0545423681086L120.12569333333333,142.39999922839078L120.45301333333333,129.45453773845327L120.68681333333333,132.6909175786105L120.73357333333333,129.45453773845327L120.78033333333333,122.98181663859975L120.87385333333333,116.50909553874624L120.92061333333334,119.745456088673L121.01413333333333,119.745456088673L121.10765333333333,116.50909553874624L121.29469333333333,116.50909553874624L121.48173333333332,122.98181663859975L121.71553333333334,129.45453773845327L121.80905333333334,119.745456088673L122.13637333333334,113.27273498881948L122.22989333333334,116.50909553874624L122.27665333333334,116.50909553874624L122.51045333333333,116.50909553874624L122.69749333333334,122.98181663859975L122.93129333333333,132.6909175786105L123.02481333333333,139.16363867846403L123.07157333333333,139.16363867846403L123.53917333333334,139.16363867846403L123.58593333333333,139.16363867846403L123.77297333333333,135.92727812853727L123.91325333333334,139.16363867846403L124.05353333333333,135.92727812853727L124.10029333333334,135.92727812853727L124.24057333333333,139.16363867846403L124.28733333333334,139.16363867846403L124.38085333333333,135.92727812853727L124.61465333333334,139.16363867846403L124.66141333333334,142.39999922839078L124.98873333333333,152.10910016840157L125.03549333333333,152.10910016840157L125.22253333333333,148.8727203282443L125.31605333333333,152.10910016840157L125.40957333333333,152.10910016840157L125.59661333333332,155.34546071832833L126.06421333333333,168.29091256315058L126.15773333333333,165.0545423681086L126.25125333333332,161.81818181818184L126.29801333333333,165.0545423681086L126.48505333333334,165.0545423681086L126.62533333333333,161.81818181818184L126.99941333333334,171.52727311307734L127.18645333333333,174.7636336630041L127.84109333333333,168.29091256315058L128.02813333333333,171.52727311307734L128.12165333333334,171.52727311307734L128.35545333333332,168.29091256315058L128.40221333333332,171.52727311307734L128.49573333333333,168.29091256315058L128.58925333333335,168.29091256315058L128.63601333333332,165.0545423681086L128.72953333333334,165.0545423681086L128.82305333333332,165.0545423681086L128.86981333333333,168.29091256315058L129.19713333333334,168.29091256315058L129.33741333333333,165.0545423681086L129.57121333333333,161.81818181818184L130.13233333333332,174.7636336630041L130.31937333333335,184.4727249578996L130.45965333333334,178.00000385804609L130.92725333333334,171.52727311307734L131.20781333333332,161.81818181818184L131.25457333333333,158.58182126825508L131.34809333333334,155.34546071832833L131.48837333333333,161.81818181818184L131.62865333333335,165.0545423681086L131.67541333333332,161.81818181818184L131.72217333333333,161.81818181818184L132.18977333333333,152.10910016840157L132.23653333333334,152.10910016840157L132.28329333333335,152.10910016840157L132.37681333333333,148.8727203282443L132.93793333333335,158.58182126825508L132.98469333333333,161.81818181818184L133.03145333333333,161.81818181818184L133.07821333333334,161.81818181818184L133.45229333333333,165.0545423681086L133.87313333333333,178.00000385804609L139.71813333333333,181.23636440797284L139.99869333333334,174.7636336630041L140.04545333333334,178.00000385804609L140.51305333333332,171.52727311307734L140.60657333333336,174.7636336630041L140.74685333333335,184.4727249578996L143.73949333333334,181.23636440797284L143.78625333333332,171.52727311307734L143.97329333333332,174.7636336630041L144.25385333333335,161.81818181818184L144.34737333333334,165.0545423681086L144.90849333333333,168.29091256315058L144.95525333333333,168.29091256315058L145.00201333333334,171.52727311307734L145.04877333333332,168.29091256315058L145.18905333333333,174.7636336630041L145.37609333333336,178.00000385804609L145.65665333333334,168.29091256315058L145.70341333333334,165.0545423681086L145.84369333333333,171.52727311307734L146.21777333333333,161.81818181818184L146.45157333333333,171.52727311307734L146.59185333333335,181.23636440797284L147.05945333333332,178.00000385804609L147.15297333333334,171.52727311307734L147.43353333333332,158.58182126825508L147.57381333333333,158.58182126825508L147.71409333333332,155.34546071832833L147.76085333333333,155.34546071832833L147.94789333333335,152.10910016840157L148.83633333333333,132.6909175786105L149.02337333333335,132.6909175786105L149.11689333333334,126.21817718852651L149.35069333333334,110.03635514866222L149.58449333333334,97.0909129489552L150.1923733333333,106.79999459873547L150.37941333333333,106.79999459873547L150.51969333333335,100.32727349888195L151.22109333333333,97.0909129489552L151.73545333333334,113.27273498881948L151.78221333333335,113.27273498881948L151.92249333333334,116.50909553874624L152.20305333333332,139.16363867846403L152.53037333333333,145.63635977831754L152.5771333333333,145.63635977831754L152.6238933333333,145.63635977831754L152.67065333333335,148.8727203282443L152.71741333333335,145.63635977831754L152.76417333333333,148.8727203282443L153.13825333333332,145.63635977831754L154.21373333333335,129.45453773845327L154.26049333333333,129.45453773845327L154.30725333333334,129.45453773845327L154.63457333333332,126.21817718852651L155.14893333333333,113.27273498881948L155.24245333333334,110.03635514866222L155.80357333333333,100.32727349888195L155.85033333333334,97.0909129489552L155.99061333333333,97.0909129489552L156.0841333333333,97.0909129489552L156.13089333333332,97.0909129489552L156.22441333333336,100.32727349888195L157.11285333333333,103.56363404880871L157.34665333333334,103.56363404880871L157.48693333333335,106.79999459873547L157.62721333333334,110.03635514866222L158.04805333333334,119.745456088673L158.09481333333332,119.745456088673L158.37537333333333,129.45453773845327L158.4688933333333,132.6909175786105L158.51565333333332,132.6909175786105L158.79621333333336,155.34546071832833L158.93649333333335,158.58182126825508L159.21705333333333,158.58182126825508L159.31057333333334,158.58182126825508L159.40409333333332,168.29091256315058L159.54437333333334,165.0545423681086L159.96521333333334,155.34546071832833L160.19901333333334,161.81818181818184L160.29253333333332,161.81818181818184L160.33929333333333,158.58182126825508L160.38605333333334,158.58182126825508L160.90041333333332,145.63635977831754L161.36801333333335,132.6909175786105L161.74209333333334,116.50909553874624L162.53701333333333,126.21817718852651L162.86433333333335,122.98181663859975L162.91109333333333,119.745456088673L163.05137333333332,122.98181663859975L163.51897333333335,142.39999922839078L163.79953333333333,145.63635977831754L163.98657333333333,139.16363867846403L164.22037333333333,132.6909175786105L164.31389333333334,132.6909175786105L164.40741333333332,132.6909175786105L164.50093333333334,129.45453773845327L164.59445333333332,126.21817718852651L164.78149333333334,122.98181663859975L164.82825333333335,122.98181663859975L164.96853333333334,126.21817718852651L165.24909333333335,116.50909553874624L165.34261333333333,110.03635514866222L165.48289333333332,110.03635514866222L165.85697333333331,106.79999459873547L165.95049333333336,113.27273498881948L165.99725333333333,110.03635514866222L166.04401333333334,103.56363404880871L166.41809333333333,110.03635514866222L167.1194933333333,126.21817718852651L167.21301333333335,129.45453773845327L167.30653333333333,126.21817718852651L167.40005333333335,129.45453773845327L167.49357333333333,132.6909175786105L167.91441333333333,145.63635977831754L168.10145333333332,152.10910016840157L168.70933333333335,155.34546071832833L168.89637333333334,145.63635977831754L169.78481333333335,158.58182126825508L170.48621333333332,139.16363867846403L170.53297333333333,142.39999922839078L170.81353333333334,139.16363867846403L170.86029333333335,135.92727812853727L170.95381333333336,135.92727812853727L171.09409333333335,139.16363867846403L171.32789333333332,142.39999922839078L171.46817333333334,132.6909175786105L171.51493333333332,135.92727812853727L171.60845333333333,139.16363867846403L172.35661333333334,129.45453773845327L172.68393333333333,126.21817718852651L172.87097333333332,129.45453773845327L173.1982933333333,132.6909175786105L173.24505333333335,132.6909175786105L173.57237333333333,139.16363867846403L173.71265333333332,139.16363867846403L174.83489333333333,119.745456088673L174.97517333333334,113.27273498881948L175.30249333333333,129.45453773845327L175.44277333333332,132.6909175786105L175.48953333333333,139.16363867846403L175.5830533333333,132.6909175786105L175.62981333333335,132.6909175786105L175.95713333333333,126.21817718852651L176.05065333333334,122.98181663859975L176.56501333333333,129.45453773845327L176.79881333333333,139.16363867846403L177.21965333333333,145.63635977831754L177.31317333333334,145.63635977831754L177.40669333333332,145.63635977831754L177.59373333333332,148.8727203282443L177.73401333333334,155.34546071832833L178.34189333333333,158.58182126825508L178.38865333333334,155.34546071832833L178.43541333333334,161.81818181818184L178.71597333333332,165.0545423681086L179.09005333333332,152.10910016840157L179.37061333333335,165.0545423681086L179.41737333333333,161.81818181818184L179.46413333333334,161.81818181818184L179.65117333333333,165.0545423681086L179.88497333333333,168.29091256315058L180.21229333333332,171.52727311307734L180.58637333333334,174.7636336630041L180.77341333333334,168.29091256315058L180.96045333333333,168.29091256315058L181.05397333333335,161.81818181818184L181.33453333333333,161.81818181818184L181.47481333333332,171.52727311307734L181.56833333333333,181.23636440797284L182.12945333333334,178.00000385804609L182.69057333333333,174.7636336630041L182.92437333333334,168.29091256315058L183.15817333333334,161.81818181818184L183.99985333333333,161.81818181818184L184.18689333333336,155.34546071832833L184.32717333333335,148.8727203282443L184.56097333333332,139.16363867846403L184.84153333333333,148.8727203282443L184.88829333333334,148.8727203282443L185.07533333333333,142.39999922839078L185.16885333333332,142.39999922839078L185.44941333333335,139.16363867846403L185.49617333333333,135.92727812853727L185.77673333333334,139.16363867846403L186.10405333333333,139.16363867846403L186.38461333333333,142.39999922839078L186.52489333333335,142.39999922839078L186.80545333333333,158.58182126825508L187.31981333333331,142.39999922839078L187.41333333333333,148.8727203282443L187.74065333333334,155.34546071832833L187.88093333333333,155.34546071832833L188.02121333333335,158.58182126825508L188.11473333333333,155.34546071832833L188.34853333333334,168.29091256315058L189.09669333333335,161.81818181818184L189.19021333333333,161.81818181818184L189.23697333333334,161.81818181818184L189.42401333333333,158.58182126825508L189.47077333333334,155.34546071832833L189.65781333333334,171.52727311307734L189.75133333333332,178.00000385804609L190.03189333333333,178.00000385804609L190.0786533333333,174.7636336630041L190.40597333333335,165.0545423681086L190.96709333333334,155.34546071832833L191.2008933333333,161.81818181818184L191.34117333333336,165.0545423681086L191.76201333333333,155.34546071832833L191.80877333333333,155.34546071832833L192.08933333333334,158.58182126825508L192.13609333333332,158.58182126825508L192.79073333333335,148.8727203282443L192.97777333333335,158.58182126825508L193.07129333333333,158.58182126825508L193.16481333333334,155.34546071832833L193.30509333333333,155.34546071832833L193.44537333333332,152.10910016840157L193.86621333333335,152.10910016840157L194.14677333333333,139.16363867846403L194.24029333333334,135.92727812853727L194.75465333333332,148.8727203282443L194.80141333333333,148.8727203282443L195.08197333333334,135.92727812853727L195.40929333333332,129.45453773845327L196.53153333333333,145.63635977831754L196.67181333333335,148.8727203282443L196.81209333333334,148.8727203282443L196.90561333333332,145.63635977831754L197.88757333333334,139.16363867846403L198.02785333333333,139.16363867846403L198.21489333333332,142.39999922839078L198.26165333333333,145.63635977831754L198.30841333333333,145.63635977831754L198.5889733333333,132.6909175786105L198.72925333333333,129.45453773845327L198.82277333333334,129.45453773845327L199.24361333333334,135.92727812853727L199.43065333333334,135.92727812853727L199.57093333333333,135.92727812853727L199.80473333333336,135.92727812853727L200.17881333333335,161.81818181818184L200.36585333333335,168.29091256315058L200.45937333333333,168.29091256315058L200.55289333333334,168.29091256315058L201.16077333333334,171.52727311307734L201.25429333333335,174.7636336630041L201.39457333333334,171.52727311307734L201.95569333333333,165.0545423681086L202.14273333333333,158.58182126825508L202.37653333333336,174.7636336630041L202.47005333333334,174.7636336630041L202.93765333333334,148.8727203282443L203.03117333333333,145.63635977831754L203.12469333333334,139.16363867846403L203.73257333333333,148.8727203282443L204.01313333333334,139.16363867846403L204.48073333333332,142.39999922839078L204.71453333333335,158.58182126825508L205.04185333333334,158.58182126825508L205.18213333333333,158.58182126825508L205.27565333333334,158.58182126825508L206.21085333333335,171.52727311307734L206.25761333333332,178.00000385804609L206.30437333333333,178.00000385804609L206.53817333333333,171.52727311307734L206.63169333333332,168.29091256315058L206.91225333333333,171.52727311307734L207.09929333333335,178.00000385804609L207.47337333333334,171.52727311307734L207.52013333333335,171.52727311307734L207.75393333333332,161.81818181818184L207.80069333333333,161.81818181818184L207.98773333333332,155.34546071832833L208.50209333333333,145.63635977831754L208.78265333333334,145.63635977831754L209.06321333333332,122.98181663859975L209.2034933333333,119.745456088673L209.71785333333335,116.50909553874624L209.90489333333335,119.745456088673L210.09193333333334,119.745456088673L210.18545333333333,119.745456088673L210.41925333333333,122.98181663859975L210.60629333333333,126.21817718852651L210.84009333333336,119.745456088673L211.07389333333333,126.21817718852651L211.26093333333333,122.98181663859975L211.30769333333333,126.21817718852651L211.40121333333335,129.45453773845327L211.82205333333332,122.98181663859975L211.86881333333332,122.98181663859975L212.38317333333333,113.27273498881948L212.47669333333334,106.79999459873547L212.52345333333332,103.56363404880871L212.85077333333334,100.32727349888195L212.94429333333332,100.32727349888195L212.99105333333333,100.32727349888195L213.03781333333333,100.32727349888195L213.0845733333333,100.32727349888195L213.27161333333333,113.27273498881948L213.36513333333335,116.50909553874624L214.39385333333334,122.98181663859975L214.53413333333333,122.98181663859975L215.18877333333333,139.16363867846403L215.42257333333333,155.34546071832833L215.4693333333333,152.10910016840157L215.56285333333335,152.10910016840157L215.93693333333334,148.8727203282443L216.17073333333335,132.6909175786105L216.49805333333333,129.45453773845327L217.80733333333333,119.745456088673L218.13465333333335,119.745456088673L218.64901333333333,132.6909175786105L218.88281333333333,135.92727812853727L219.30365333333336,142.39999922839078L219.35041333333334,139.16363867846403L219.81801333333334,161.81818181818184L219.86477333333332,168.29091256315058L219.91153333333332,168.29091256315058L220.00505333333334,165.0545423681086L220.09857333333332,161.81818181818184L220.19209333333333,165.0545423681086L220.2388533333333,161.81818181818184L220.28561333333332,158.58182126825508L220.37913333333336,161.81818181818184L221.22081333333333,161.81818181818184L221.45461333333333,161.81818181818184L221.68841333333336,168.29091256315058L221.82869333333335,168.29091256315058L221.96897333333334,165.0545423681086L222.20277333333334,168.29091256315058L222.71713333333332,145.63635977831754L223.13797333333335,158.58182126825508L223.27825333333334,155.34546071832833L223.32501333333335,148.8727203282443L223.74585333333332,135.92727812853727L224.02641333333335,142.39999922839078L224.72781333333333,148.8727203282443L224.77457333333334,148.8727203282443L225.05513333333332,161.81818181818184L225.2421733333333,174.7636336630041L225.38245333333333,171.52727311307734L225.66301333333334,171.52727311307734L225.75653333333332,165.0545423681086L226.17737333333332,174.7636336630041L226.36441333333332,178.00000385804609L226.64497333333335,178.00000385804609L226.87877333333333,168.29091256315058L227.15933333333334,155.34546071832833L227.34637333333333,152.10910016840157L227.58017333333333,155.34546071832833L227.90749333333335,152.10910016840157L228.09453333333335,152.10910016840157L228.51537333333332,161.81818181818184L228.65565333333333,158.58182126825508L229.21677333333335,178.00000385804609L229.54409333333334,174.7636336630041L229.68437333333333,174.7636336630041L229.77789333333334,178.00000385804609L229.82465333333332,174.7636336630041L230.0116933333333,181.23636440797284L230.10521333333335,181.23636440797284L230.66633333333334,168.29091256315058L230.94689333333332,161.81818181818184L230.99365333333333,158.58182126825508L231.0871733333333,148.8727203282443L231.32097333333334,139.16363867846403L231.36773333333335,135.92727812853727L231.50801333333334,142.39999922839078L231.78857333333335,119.745456088673L231.97561333333334,106.79999459873547L232.30293333333333,113.27273498881948L232.77053333333333,93.85455239902844L233.05109333333334,90.6181725588712L233.23813333333334,103.56363404880871L233.37841333333333,103.56363404880871L233.75249333333335,100.32727349888195L233.84601333333333,103.56363404880871L234.45389333333333,106.79999459873547L234.64093333333332,113.27273498881948L234.68769333333333,116.50909553874624L235.57613333333333,135.92727812853727L235.62289333333334,139.16363867846403L235.76317333333333,139.16363867846403L236.0904933333333,132.6909175786105L236.18401333333335,135.92727812853727L236.55809333333335,139.16363867846403L236.65161333333333,142.39999922839078L236.69837333333334,139.16363867846403L237.30625333333336,129.45453773845327L237.39977333333334,132.6909175786105L237.44653333333335,132.6909175786105L237.86737333333335,129.45453773845327L238.00765333333334,135.92727812853727L238.10117333333332,135.92727812853727L238.52201333333335,135.92727812853727L238.66229333333334,135.92727812853727L238.75581333333335,142.39999922839078L238.84933333333333,145.63635977831754L239.41045333333332,129.45453773845327L240.20537333333334,132.6909175786105L240.43917333333334,129.45453773845327L240.90677333333332,129.45453773845327L241.18733333333333,132.6909175786105L241.51465333333334,126.21817718852651L241.79521333333332,113.27273498881948L241.88873333333333,113.27273498881948L242.07577333333333,119.745456088673L242.40309333333335,135.92727812853727L242.44985333333335,139.16363867846403L242.49661333333333,142.39999922839078L242.96421333333333,145.63635977831754L243.71237333333335,152.10910016840157L243.94617333333332,145.63635977831754L244.17997333333332,152.10910016840157L244.41377333333332,148.8727203282443L244.46053333333333,152.10910016840157L244.55405333333331,155.34546071832833L244.69433333333333,158.58182126825508L245.16193333333334,161.81818181818184L245.34897333333333,152.10910016840157L245.39573333333334,155.34546071832833L245.67629333333332,142.39999922839078L245.86333333333334,142.39999922839078L245.91009333333335,139.16363867846403L246.28417333333334,135.92727812853727L246.37769333333333,135.92727812853727L246.42445333333333,139.16363867846403L246.47121333333334,139.16363867846403L246.56473333333332,135.92727812853727L246.7050133333333,145.63635977831754L246.75177333333332,142.39999922839078L246.79853333333332,142.39999922839078L246.84529333333333,142.39999922839078L247.03233333333336,139.16363867846403L247.12585333333334,142.39999922839078L247.26613333333333,145.63635977831754L247.31289333333334,142.39999922839078L247.35965333333334,142.39999922839078L247.40641333333335,139.16363867846403L247.49993333333333,139.16363867846403L247.64021333333332,152.10910016840157L247.68697333333333,152.10910016840157L247.96753333333334,142.39999922839078L248.24809333333334,142.39999922839078L248.34161333333336,145.63635977831754L248.48189333333335,145.63635977831754L249.04301333333333,161.81818181818184L249.41709333333336,152.10910016840157L249.4638533333333,148.8727203282443L249.51061333333334,148.8727203282443L249.79117333333335,139.16363867846403L250.11849333333333,132.6909175786105L250.35229333333334,116.50909553874624L250.67961333333335,113.27273498881948L250.86665333333335,110.03635514866222L251.10045333333335,103.56363404880871L251.28749333333334,103.56363404880871L251.56805333333332,103.56363404880871L251.66157333333334,106.79999459873547L251.80185333333333,97.0909129489552L252.12917333333334,106.79999459873547L252.40973333333332,113.27273498881948L252.55001333333334,116.50909553874624L252.64353333333332,119.745456088673L252.69029333333333,116.50909553874624L252.92409333333333,126.21817718852651" style="fill: none;" fill="none"></path></g></g></g></g></g></g><g transform="translate(50, 178)" clip-path="url(#clip_1)"><clipPath id="clip_1"><rect width="280" height="22"></rect></clipPath><g><g><line x1="0" y1="0" x2="0" y2="5" style="visibility: inherit;" fill="rgb(0, 0, 0)" stroke="rgb(204, 204, 204)" stroke-width="1px"></line><line x1="23.333333333333332" y1="0" x2="23.333333333333332" y2="5" style="visibility: inherit;" fill="rgb(0, 0, 0)" stroke="rgb(204, 204, 204)" stroke-width="1px"></line><line x1="46.666666666666664" y1="0" x2="46.666666666666664" y2="5" style="visibility: inherit;" fill="rgb(0, 0, 0)" stroke="rgb(204, 204, 204)" stroke-width="1px"></line><line x1="70" y1="0" x2="70" y2="5" style="visibility: inherit;" fill="rgb(0, 0, 0)" stroke="rgb(204, 204, 204)" stroke-width="1px"></line><line x1="93.33333333333333" y1="0" x2="93.33333333333333" y2="5" style="visibility: inherit;" fill="rgb(0, 0, 0)" stroke="rgb(204, 204, 204)" stroke-width="1px"></line><line x1="116.66666666666667" y1="0" x2="116.66666666666667" y2="5" style="visibility: inherit;" fill="rgb(0, 0, 0)" stroke="rgb(204, 204, 204)" stroke-width="1px"></line><line x1="140" y1="0" x2="140" y2="5" style="visibility: inherit;" fill="rgb(0, 0, 0)" stroke="rgb(204, 204, 204)" stroke-width="1px"></line><line x1="163.33333333333334" y1="0" x2="163.33333333333334" y2="5" style="visibility: inherit;" fill="rgb(0, 0, 0)" stroke="rgb(204, 204, 204)" stroke-width="1px"></line><line x1="186.66666666666666" y1="0" x2="186.66666666666666" y2="5" style="visibility: inherit;" fill="rgb(0, 0, 0)" stroke="rgb(204, 204, 204)" stroke-width="1px"></line><line x1="210" y1="0" x2="210" y2="5" style="visibility: inherit;" fill="rgb(0, 0, 0)" stroke="rgb(204, 204, 204)" stroke-width="1px"></line><line x1="233.33333333333334" y1="0" x2="233.33333333333334" y2="5" style="visibility: inherit;" fill="rgb(0, 0, 0)" stroke="rgb(204, 204, 204)" stroke-width="1px"></line><line x1="256.66666666666663" y1="0" x2="256.66666666666663" y2="5" style="visibility: inherit;" fill="rgb(0, 0, 0)" stroke="rgb(204, 204, 204)" stroke-width="1px"></line><line x1="280" y1="0" x2="280" y2="5" style="visibility: inherit;" fill="rgb(0, 0, 0)" stroke="rgb(204, 204, 204)" stroke-width="1px"></line></g><g transform="translate(0, 8)"><text x="0" y="0" dx="0em" dy="0.95em" style="text-anchor: middle; visibility: hidden; font-family: Roboto, sans-serif; font-size: 12px; font-weight: 200;" fill="rgb(50, 49, 63)" stroke="none" stroke-width="1px">-500k</text><text x="23.333333333333332" y="0" dx="0em" dy="0.95em" style="text-anchor: middle; visibility: inherit; font-family: Roboto, sans-serif; font-size: 12px; font-weight: 200;" fill="rgb(50, 49, 63)" stroke="none" stroke-width="1px">0</text><text x="46.666666666666664" y="0" dx="0em" dy="0.95em" style="text-anchor: middle; visibility: hidden; font-family: Roboto, sans-serif; font-size: 12px; font-weight: 200;" fill="rgb(50, 49, 63)" stroke="none" stroke-width="1px">500k</text><text x="70" y="0" dx="0em" dy="0.95em" style="text-anchor: middle; visibility: inherit; font-family: Roboto, sans-serif; font-size: 12px; font-weight: 200;" fill="rgb(50, 49, 63)" stroke="none" stroke-width="1px">1M</text><text x="93.33333333333333" y="0" dx="0em" dy="0.95em" style="text-anchor: middle; visibility: hidden; font-family: Roboto, sans-serif; font-size: 12px; font-weight: 200;" fill="rgb(50, 49, 63)" stroke="none" stroke-width="1px">1.5M</text><text x="116.66666666666667" y="0" dx="0em" dy="0.95em" style="text-anchor: middle; visibility: inherit; font-family: Roboto, sans-serif; font-size: 12px; font-weight: 200;" fill="rgb(50, 49, 63)" stroke="none" stroke-width="1px">2M</text><text x="140" y="0" dx="0em" dy="0.95em" style="text-anchor: middle; visibility: hidden; font-family: Roboto, sans-serif; font-size: 12px; font-weight: 200;" fill="rgb(50, 49, 63)" stroke="none" stroke-width="1px">2.5M</text><text x="163.33333333333334" y="0" dx="0em" dy="0.95em" style="text-anchor: middle; visibility: inherit; font-family: Roboto, sans-serif; font-size: 12px; font-weight: 200;" fill="rgb(50, 49, 63)" stroke="none" stroke-width="1px">3M</text><text x="186.66666666666666" y="0" dx="0em" dy="0.95em" style="text-anchor: middle; visibility: hidden; font-family: Roboto, sans-serif; font-size: 12px; font-weight: 200;" fill="rgb(50, 49, 63)" stroke="none" stroke-width="1px">3.5M</text><text x="210" y="0" dx="0em" dy="0.95em" style="text-anchor: middle; visibility: inherit; font-family: Roboto, sans-serif; font-size: 12px; font-weight: 200;" fill="rgb(50, 49, 63)" stroke="none" stroke-width="1px">4M</text><text x="233.33333333333334" y="0" dx="0em" dy="0.95em" style="text-anchor: middle; visibility: hidden; font-family: Roboto, sans-serif; font-size: 12px; font-weight: 200;" fill="rgb(50, 49, 63)" stroke="none" stroke-width="1px">4.5M</text><text x="256.66666666666663" y="0" dx="0em" dy="0.95em" style="text-anchor: middle; visibility: inherit; font-family: Roboto, sans-serif; font-size: 12px; font-weight: 200;" fill="rgb(50, 49, 63)" stroke="none" stroke-width="1px">5M</text><text x="280" y="0" dx="0em" dy="0.95em" style="text-anchor: middle; visibility: hidden; font-family: Roboto, sans-serif; font-size: 12px; font-weight: 200;" fill="rgb(50, 49, 63)" stroke="none" stroke-width="1px">5.5M</text></g><line x1="0" y1="0" x2="280" y2="0" fill="rgb(0, 0, 0)" stroke="rgb(204, 204, 204)" stroke-width="1px"></line></g></g></g></g></svg>