<svg viewBox="0 0 330 200" xmlns="http://www.w3.org/2000/svg"><g><g><g><g><g><line x1="60" y1="178" x2="55" y2="178" style="visibility: inherit;" fill="rgb(0, 0, 0)" stroke="rgb(204, 204, 204)" stroke-width="1px"></line><line x1="60" y1="158.2222222222222" x2="55" y2="158.2222222222222" style="visibility: inherit;" fill="rgb(0, 0, 0)" stroke="rgb(204, 204, 204)" stroke-width="1px"></line><line x1="60" y1="138.44444444444446" x2="55" y2="138.44444444444446" style="visibility: inherit;" fill="rgb(0, 0, 0)" stroke="rgb(204, 204, 204)" stroke-width="1px"></line><line x1="60" y1="118.66666666666669" x2="55" y2="118.66666666666669" style="visibility: inherit;" fill="rgb(0, 0, 0)" stroke="rgb(204, 204, 204)" stroke-width="1px"></line><line x1="60" y1="98.8888888888889" x2="55" y2="98.8888888888889" style="visibility: inherit;" fill="rgb(0, 0, 0)" stroke="rgb(204, 204, 204)" stroke-width="1px"></line><line x1="60" y1="79.1111111111111" x2="55" y2="79.1111111111111" style="visibility: inherit;" fill="rgb(0, 0, 0)" stroke="rgb(204, 204, 204)" stroke-width="1px"></line><line x1="60" y1="59.33333333333332" x2="55" y2="59.33333333333332" style="visibility: inherit;" fill="rgb(0, 0, 0)" stroke="rgb(204, 204, 204)" stroke-width="1px"></line><line x1="60" y1="39.55555555555557" x2="55" y2="39.55555555555557" style="visibility: inherit;" fill="rgb(0, 0, 0)" stroke="rgb(204, 204, 204)" stroke-width="1px"></line><line x1="60" y1="19.777777777777768" x2="55" y2="19.777777777777768" style="visibility: inherit;" fill="rgb(0, 0, 0)" stroke="rgb(204, 204, 204)" stroke-width="1px"></line><line x1="60" y1="0" x2="55" y2="0" style="visibility: inherit;" fill="rgb(0, 0, 0)" stroke="rgb(204, 204, 204)" stroke-width="1px"></line></g><g transform="translate(50, 0)"><text x="0" y="178" dx="0em" dy="0.3em" style="text-anchor: end; visibility: hidden; font-family: Roboto, sans-serif; font-size: 12px; font-weight: 200;" fill="rgb(50, 49, 63)" stroke="none" stroke-width="1px">-5e-3</text><text x="0" y="158.2222222222222" dx="0em" dy="0.3em" style="text-anchor: end; visibility: inherit; font-family: Roboto, sans-serif; font-size: 12px; font-weight: 200;" fill="rgb(50, 49, 63)" stroke="none" stroke-width="1px">0</text><text x="0" y="138.44444444444446" dx="0em" dy="0.3em" style="text-anchor: end; visibility: hidden; font-family: Roboto, sans-serif; font-size: 12px; font-weight: 200;" fill="rgb(50, 49, 63)" stroke="none" stroke-width="1px">5e-3</text><text x="0" y="118.66666666666669" dx="0em" dy="0.3em" style="text-anchor: end; visibility: inherit; font-family: Roboto, sans-serif; font-size: 12px; font-weight: 200;" fill="rgb(50, 49, 63)" stroke="none" stroke-width="1px">0.01</text><text x="0" y="98.8888888888889" dx="0em" dy="0.3em" style="text-anchor: end; visibility: hidden; font-family: Roboto, sans-serif; font-size: 12px; font-weight: 200;" fill="rgb(50, 49, 63)" stroke="none" stroke-width="1px">0.015</text><text x="0" y="79.1111111111111" dx="0em" dy="0.3em" style="text-anchor: end; visibility: inherit; font-family: Roboto, sans-serif; font-size: 12px; font-weight: 200;" fill="rgb(50, 49, 63)" stroke="none" stroke-width="1px">0.02</text><text x="0" y="59.33333333333332" dx="0em" dy="0.3em" style="text-anchor: end; visibility: hidden; font-family: Roboto, sans-serif; font-size: 12px; font-weight: 200;" fill="rgb(50, 49, 63)" stroke="none" stroke-width="1px">0.025</text><text x="0" y="39.55555555555557" dx="0em" dy="0.3em" style="text-anchor: end; visibility: inherit; font-family: Roboto, sans-serif; font-size: 12px; font-weight: 200;" fill="rgb(50, 49, 63)" stroke="none" stroke-width="1px">0.03</text><text x="0" y="19.777777777777768" dx="0em" dy="0.3em" style="text-anchor: end; visibility: hidden; font-family: Roboto, sans-serif; font-size: 12px; font-weight: 200;" fill="rgb(50, 49, 63)" stroke="none" stroke-width="1px">0.035</text><text x="0" y="0" dx="0em" dy="0.3em" style="text-anchor: end; visibility: hidden; font-family: Roboto, sans-serif; font-size: 12px; font-weight: 200;" fill="rgb(50, 49, 63)" stroke="none" stroke-width="1px">0.04</text></g><line x1="60" y1="0" x2="60" y2="178" fill="rgb(0, 0, 0)" stroke="rgb(204, 204, 204)" stroke-width="1px"></line></g></g><g transform="translate(60, 0)" clip-path="url(#clip_0)"><clipPath id="clip_0"><rect width="270" height="178"></rect></clipPath><g><g><g><line x1="0" y1="0" x2="0" y2="178" fill="rgb(0, 0, 0)" stroke="rgb(60, 60, 60)" stroke-width="1px" opacity="0.25"></line><line x1="22.5" y1="0" x2="22.5" y2="178" fill="rgb(0, 0, 0)" stroke="rgb(60, 60, 60)" stroke-width="1px" opacity="0.25"></line><line x1="45" y1="0" x2="45" y2="178" fill="rgb(0, 0, 0)" stroke="rgb(60, 60, 60)" stroke-width="1px" opacity="0.25"></line><line x1="67.5" y1="0" x2="67.5" y2="178" fill="rgb(0, 0, 0)" stroke="rgb(60, 60, 60)" stroke-width="1px" opacity="0.25"></line><line x1="90" y1="0" x2="90" y2="178" fill="rgb(0, 0, 0)" stroke="rgb(60, 60, 60)" stroke-width="1px" opacity="0.25"></line><line x1="112.5" y1="0" x2="112.5" y2="178" fill="rgb(0, 0, 0)" stroke="rgb(60, 60, 60)" stroke-width="1px" opacity="0.25"></line><line x1="135" y1="0" x2="135" y2="178" fill="rgb(0, 0, 0)" stroke="rgb(60, 60, 60)" stroke-width="1px" opacity="0.25"></line><line x1="157.5" y1="0" x2="157.5" y2="178" fill="rgb(0, 0, 0)" stroke="rgb(60, 60, 60)" stroke-width="1px" opacity="0.25"></line><line x1="180" y1="0" x2="180" y2="178" fill="rgb(0, 0, 0)" stroke="rgb(60, 60, 60)" stroke-width="1px" opacity="0.25"></line><line x1="202.5" y1="0" x2="202.5" y2="178" fill="rgb(0, 0, 0)" stroke="rgb(60, 60, 60)" stroke-width="1px" opacity="0.25"></line><line x1="225" y1="0" x2="225" y2="178" fill="rgb(0, 0, 0)" stroke="rgb(60, 60, 60)" stroke-width="1px" opacity="0.25"></line><line x1="247.5" y1="0" x2="247.5" y2="178" fill="rgb(0, 0, 0)" stroke="rgb(60, 60, 60)" stroke-width="1px" opacity="0.25"></line><line x1="270" y1="0" x2="270" y2="178" fill="rgb(0, 0, 0)" stroke="rgb(60, 60, 60)" stroke-width="1px" opacity="0.25"></line></g><g><line x1="0" y1="178" x2="270" y2="178" fill="rgb(0, 0, 0)" stroke="rgb(60, 60, 60)" stroke-width="1px" opacity="0.25"></line><line x1="0" y1="158.2222222222222" x2="270" y2="158.2222222222222" fill="rgb(0, 0, 0)" stroke="rgb(60, 60, 60)" stroke-width="1px" opacity="0.25"></line><line x1="0" y1="138.44444444444446" x2="270" y2="138.44444444444446" fill="rgb(0, 0, 0)" stroke="rgb(60, 60, 60)" stroke-width="1px" opacity="0.25"></line><line x1="0" y1="118.66666666666669" x2="270" y2="118.66666666666669" fill="rgb(0, 0, 0)" stroke="rgb(60, 60, 60)" stroke-width="1px" opacity="0.25"></line><line x1="0" y1="98.8888888888889" x2="270" y2="98.8888888888889" fill="rgb(0, 0, 0)" stroke="rgb(60, 60, 60)" stroke-width="1px" opacity="0.25"></line><line x1="0" y1="79.1111111111111" x2="270" y2="79.1111111111111" fill="rgb(0, 0, 0)" stroke="rgb(60, 60, 60)" stroke-width="1px" opacity="0.25"></line><line x1="0" y1="59.33333333333332" x2="270" y2="59.33333333333332" fill="rgb(0, 0, 0)" stroke="rgb(60, 60, 60)" stroke-width="1px" opacity="0.25"></line><line x1="0" y1="39.55555555555557" x2="270" y2="39.55555555555557" fill="rgb(0, 0, 0)" stroke="rgb(60, 60, 60)" stroke-width="1px" opacity="0.25"></line><line x1="0" y1="19.777777777777768" x2="270" y2="19.777777777777768" fill="rgb(0, 0, 0)" stroke="rgb(60, 60, 60)" stroke-width="1px" opacity="0.25"></line><line x1="0" y1="0" x2="270" y2="0" fill="rgb(0, 0, 0)" stroke="rgb(60, 60, 60)" stroke-width="1px" opacity="0.25"></line></g></g></g><g><g><line x1="0" y1="158.2222222222222" x2="270" y2="158.2222222222222" fill="rgb(0, 0, 0)" stroke="rgb(153, 153, 153)" stroke-width="1.5px"></line></g></g><g><g><line x1="22.5" y1="0" x2="22.5" y2="178" fill="rgb(0, 0, 0)" stroke="rgb(153, 153, 153)" stroke-width="1.5px"></line></g></g><g><g><g><g><g><path stroke="rgb(238, 51, 119)" stroke-width="2px" d="M23.17554,158.2222222222222L23.76171,158.2222222222222L24.032249999999998,144.28345750369115L24.753690000000002,137.31407863260304L24.843870000000003,133.13245410049058L24.97914,130.3447067378636L25.06932,128.35346061494016L25.339859999999998,126.86002776682993L25.47513,125.69847043525871L26.15148,124.76922596526255L26.28675,124.00893630368279L26.5122,123.37536274841219L26.87292,116.97397385345351L27.18855,111.4870809864925L27.54927,106.73178494189953L27.684540000000002,102.57091131544975L27.72963,98.89288698366042L28.04526,95.62354129445627L28.27071,92.69834604108193L28.63143,90.06567865813204L29.217599999999997,87.6837494498012L29.71359,85.51836684679206L29.939040000000002,83.54128563968277L30.07431,81.72896815395565L30.48012,80.12074071837633L30.525209999999998,78.6362292771374L30.97611,77.19978679129267L31.20156,75.86595334834949L31.29174,74.62411421970047L31.336830000000003,73.46506997388357L31.517190000000003,72.3808082028513L31.87791,71.36431804955994L32.23863,70.4094384578197L32.28372,69.5107332015788L32.50917,68.66338733776217L33.00516,67.86312091696894L33.2757,67.10611668702974L33.50115,66.38895921179217L33.63642,65.71762847370506L34.177499999999995,65.07045269203402L34.44804,64.45485056871442L34.67349,63.868566842402856L34.98912,63.30955604350815L35.16948,62.775958654218854L35.259660000000004,62.266080447196146L36.11637,61.76575082572397L36.34182,61.28671550260659L36.38691,60.82764358416312L36.612359999999995,60.38731282109443L36.83781,59.964598744044466L36.92799,59.55846507733154L37.28871,59.167955258787224L37.3338,58.792184919613355L37.64943,58.42816465294352L37.82979,58.077384646920315L38.235600000000005,57.739135601832096L38.596320000000006,57.412757993385824L39.31776,57.09763778172078L39.49812,56.79320255679745L39.76866,56.49891806924476L39.94902,56.21428510243706L40.0392,55.938836647271536L41.93298,55.67693442703083L41.978069999999995,55.41827680914039L42.06825,55.16758056378596L42.338789999999996,54.92448381036414L42.7446,54.68864627308244L42.83478,54.45974769237128L42.879870000000004,54.23748637443265L43.01514,54.02157786511363L43.28568,53.811753735846935L43.69149,53.607760470763075L43.82676,53.40935844527217L43.87185,53.21632098746496L44.32275,53.02843351459988L45.08928,52.84896305381398L45.17946,52.674156379672795L45.81072,52.500447968750954L46.036170000000006,52.33113944212281L46.12635,52.16606580409317L46.26162,52.005070206902L46.622339999999994,51.84800345389909L46.89288,51.694723538633816L46.983059999999995,51.54509521686693L47.11833,51.39898960879385L47.38887,51.25628382901868L47.61432,51.11686064204887L48.065220000000004,50.980608141277195L48.33576,50.85088891011602L48.606300000000005,50.7240542115659L48.786660000000005,50.60000895111158L49.0572,50.48146687497052L49.147380000000005,50.3654758708607L49.19247,50.25195452155698L49.28265,50.140824837927596L49.37282999999999,50.032012080387716L49.417919999999995,49.92544459139664L49.64337,49.82105363821106L49.68846,49.71877326516797L50.09427,49.61854015483055L50.36481,49.520293497382596L50.45499,49.42807233517384L50.68044,49.337643413720166L50.90589,49.24895503373806L50.99607,49.1619574654397L51.537150000000004,49.071634832839045L51.852779999999996,48.983002040878226L51.89787,48.896012149506596L51.988049999999994,48.81061994124346L52.07823,48.726781842880094L52.12332,48.644455851413035L52.213499999999996,48.56360146394611L52.75458,48.48126908603094L52.88985,48.40038266037389L53.07021,48.320904466446954L53.20548,48.24279808442964L53.34075,48.16602833962318L53.52111,48.09056124969134L53.5662,48.01636397456099L53.74656,47.94340476882761L53.972010000000004,47.871652936521535L54.0171,47.80107878809771L54.467999999999996,47.731653599524826L54.64836,47.66334957335263L54.783629999999995,47.59613980164925L55.144349999999996,47.52999823070255L55.324709999999996,47.46567362634489L55.45998,47.40235543516021L55.505069999999996,47.340020252156954L55.55016,47.27864539249695L55.86579,47.218208864008744L56.13633,47.158689340949714L56.226510000000005,47.10006613895312L56.2716,47.04231919109547L56.45196,46.98542902502849L56.63232,46.92937674111989L56.767590000000006,46.87414399155132L56.81268,46.819712960325006L56.85777,46.76606634413308L57.038129999999995,46.713187334048115L57.44394,46.661059597991276L57.6243,46.609667263942264L57.66939,46.558994903852636L57.71448,46.50902751823115L57.80466,46.459750521365045L57.84975,46.41291716877965L58.12029,46.366722129483016L58.30065,46.321152464659434L58.34574,46.276195582843705L58.43592,46.23183922834309L58.5261,46.188071470118544L58.66137,46.144880691105385L58.70646,46.103203078368466L58.75155,46.06206778293283L58.796640000000004,46.02146430830265L58.93191,45.98138242712269L59.11227,45.94033230884708L59.337720000000004,45.8998028734811L59.382810000000006,45.85978429678563L59.4279,45.82026700012738L59.69844,45.78124164285131L60.46497,45.741823514136584L60.64533,45.70289009525112L60.73551,45.664432519517774L60.96096,45.626442135208826L62.04312,45.58891049907175L62.133300000000006,45.5518293700874L62.35874999999999,45.5151907034513L62.44893,45.478986644768206L62.62929,45.44320952445202L62.71947,45.4078518523219L63.08019,45.37373581890191L63.35073,45.3400151576557L63.53109,45.30668305178841L63.84672,45.273732840317535L63.9369,45.24115801364623L64.20744,45.20829503185642L64.29762000000001,45.1758022560623L64.43289,45.1436734816602L64.47798,45.11190264192646L64.56816,45.08048380420851L64.92887999999999,45.04941116624124L64.97397,45.018679052585114L65.10924,44.98828191117942L65.42487,44.95821431000799L65.56014,44.928470933871715L65.96595,44.899046581265715L66.14631,44.86913429586272L66.28158,44.83953947028066L66.32667000000001,44.810257091961304L66.73248,44.78128225332122L66.77757,44.7526101490182L66.95793,44.723815104649375L67.00302,44.695317833432775L67.04811000000001,44.66711375420764L67.0932,44.63919837930632L67.27356,44.611567312180796L67.31865,44.58421624510218L67.45392,44.55714095692895L67.49901,44.530337310942215L67.85973,44.50380125274572L68.04008999999999,44.47752880822798L68.13027,44.451516081585076L68.22045,44.42575925340108L68.26554,44.40025457878538L68.67135,44.374998385563195L68.80662,44.349987072519625L69.16734,44.32521710769362L69.25752,44.30068502672144L69.43787999999999,44.276387431227064L69.48297000000001,44.252320987258415L69.70841999999999,44.23034552638041L70.02405,44.209377373784356L70.52004,44.18805942971017L70.61022,44.166940545524625L70.88076,44.146017956474786L71.01603,44.125288948770965L71.10621,44.10475085841751L71.28657000000001,44.08440107007593L71.46692999999999,44.064237015959435L71.55711,44.0442561747568L71.78256,44.02445607058562L71.82764999999999,44.00483427197384L71.87274000000001,43.98538839086847L72.23346000000001,43.96529013007081L72.504,43.94537047710598L72.68436,43.9256270714846L72.72945,43.90605759412913L72.77454,43.88665976646975L73.18035,43.86743134956386L73.4058,43.84837014323825L74.03706,43.828109911242095L74.12723999999999,43.80802436355312L75.02904,43.78811126059284L75.07413,43.76836840090335L75.25449,43.748793620339185L75.29957999999999,43.729384791280616L75.34467000000001,43.710139821865944L76.15629000000001,43.69105665524367L76.38174,43.672133268842835L76.69736999999999,43.654860021832L76.74246,43.63773021701195L77.013,43.6207420834583L77.10318,43.60389387927805L77.32862999999999,43.58718389101728L77.41881,43.570610433082976L77.68934999999999,43.55784969118195L78.50097,43.54408337197381L78.59115,43.53042819002267L78.68133,43.51688281165332L79.04205,43.49949586912556L79.17732,43.482247639735256L79.53804,43.46513647862665L79.67331,43.448160766846755L79.80857999999999,43.43131891083798L80.39475,43.41460934194186L80.71038,43.398030515914705L80.98092,43.38158091245449L81.16128,43.365259034738514L81.25146,43.34906340897217L81.29655000000001,43.33299258394744L81.56709000000001,43.3171285891195L82.01799,43.30577747366344L82.24344,43.294512845208175L82.28853,43.283333724629536L82.4238,43.26886824709138L82.69434,43.254511761561396L82.78452,43.24026304794614L82.91978999999999,43.22612090429432L83.05506,43.21208414646162L83.19033,43.19815160778165L83.23542,43.184322138744484L84.04704000000001,43.170201018272586L84.72339,43.15618360932528L85.39974,43.14226878046946L85.53501,43.128455416669325L85.5801,43.11474241899063L85.67027999999999,43.101128704311L85.71537000000001,43.0876132050366L86.66226,43.074926515501325L86.70735,43.06233071032681L86.9328,43.04982482262539L87.06806999999999,43.03900212881605L87.24843,43.02825615785458L87.33860999999999,43.0175861021034L87.51897,43.00699116522055L87.69932999999999,42.996470561962695L87.87969,42.98602351799274L89.00694,42.973578068025844L89.05203,42.961219043822894L89.54802,42.94894555436232L89.90874,42.936756720828114L89.95383,42.924651676401794L90.08909999999999,42.912629566058186L90.17927999999999,42.900689546365456L90.22437000000001,42.88883078528954L90.63018,42.87705246200199L90.94581000000001,42.86535376669208L91.62216,42.85614324540081L91.66725000000001,42.84699458328164L91.80252,42.836352080045195L92.11814999999999,42.8257805870427L92.65923,42.81437955998727L92.88468,42.802168013730295L92.92976999999999,42.79003715750068L93.01995,42.77798620018258L93.33558000000001,42.766014360967624L93.65120999999999,42.754120869187595L93.69630000000001,42.742304964150584L94.10211,42.73056589497989L94.28247,42.71890292045628L94.37265,42.70731530886318L94.55301,42.69580233783494L94.95881999999999,42.684363294207955L95.27445,42.67299747387442L95.31953999999999,42.66170418163931L95.54499,42.655784507659554L95.90571,42.64956917710211L96.31152,42.64296063042799L96.35661,42.63639373607739L96.53697000000001,42.62986810475382L96.76241999999999,42.62338335199715L96.89769000000001,42.61693909810794L96.98787,42.61053496807459L97.12314,42.6041705915008L97.25841000000001,42.59784560253504L97.43876999999999,42.59155963980078L97.79948999999999,42.581492409001996L98.16020999999999,42.57148692372336L98.34057,42.56154262260617L98.47584,42.55165895107546L98.52092999999999,42.541835361237816L98.79147,42.53133663631486L98.83656,42.520901356692264L99.19728,42.5105289541648L99.37764,42.500218867291274L99.42273,42.48997054129453L99.46782,42.479783427962744L99.558,42.469656985552305L99.69327,42.45959067869333L100.0089,42.44958397829552L100.05399,42.439636361456785L100.41471,42.42974731137288L100.45979999999999,42.419916317248806L100.86561,42.410142874211736L101.04597,42.40042648322537L101.13615,42.3907666510059L101.27141999999999,42.38192825113915L101.49687,42.37314101028547L101.54196,42.36440448990364L101.63213999999999,42.35571825644998L101.67723000000001,42.34742802737289L101.72232,42.33918525150885L101.94777,42.33098952667818L102.57902999999999,42.32284045523245L102.98484,42.31473764399139L103.25538,42.30604386788977L103.57101,42.297399174167616L103.6161,42.28880315262922L104.02190999999999,42.28025539763647L104.33754,42.27175550804578L104.74334999999999,42.263303087145964L104.87862000000001,42.2548977425972L105.19425,42.24653908637095L105.28443,42.238226734691175L105.46479000000001,42.22996030797575L105.91569,42.224915529573124L105.96078,42.2198984749493L106.09605,42.214908918685396L106.3215,42.209946637799284L106.50186,42.20501141171291L107.08803,42.197567890349205L107.17821,42.19016473903988L107.2233,42.18280163392704L107.49384,42.175478254607064L107.53893000000001,42.16819428408492L107.58402,42.16094940872863L107.6742,42.153743318225146L108.30546,42.14657570553639L109.11708,42.13944626685621L109.38762,42.1323547015678L109.70325,42.12709664449926L109.97379,42.11993599713467L110.15415,42.112813098846416L110.24433,42.10572765545115L110.33451,42.09867937581396L110.60505,42.09166797180911L110.74032,42.08469315828098L110.8305,42.07775465300624L110.96577,42.07085217665591L111.10104,42.0639854527586L111.23631,42.057154207663984L111.64211999999999,42.05035817050678L111.7323,42.04359707317169L112.27338,42.03687065025822L112.31847,42.03017863904686L112.36355999999999,42.02352077946476L112.99482,42.01636924785524L113.17518,42.00925403474193L113.35554,42.00217486769871L113.5359,41.99513147701685L113.58099,41.9881235956712L113.71626,41.981150959286914L113.80644000000001,41.97421330610656L113.89662,41.96731037695792L114.25734,41.96044191522219L114.34752,41.95360766680243L114.48279,41.94680738009277L114.61806,41.94004080594791L114.75332999999999,41.93330769765322L114.84351,41.926607810895135L114.97878,41.91994090373183L115.11404999999999,41.913306736564785L115.83549000000001,41.906988933572L116.15111999999999,41.90070201083273L116.37657,41.89444574561708L116.42165999999999,41.88821991733158L116.46675,41.88202430749371L116.55693000000001,41.87585869970647L116.60202,41.86972287963384L116.6922,41.8636166349761L116.78237999999999,41.857539755445764L116.96274,41.85149203274381L117.1431,41.8452944334933L117.36855,41.83912643443622L117.45873,41.832987827083784L117.77436,41.826878404900114L117.86454,41.82079796327954L117.90963,41.814746299524046L118.13508,41.808723212821086L118.31544,41.802728504221726L118.54088999999999,41.79676197661907L118.63107,41.79082343472693L118.67616,41.78491268505905L119.12706,41.779029535908144L119.17215,41.77317379732573L119.35251,41.76734528110174L119.48778,41.76154380074504L119.62304999999999,41.75609685173263L119.66814000000001,41.75067505741461L119.80341,41.745278246635955L119.8485,41.74004472356769L119.93868,41.734835211062446L120.16413,41.72964954685287L120.20922,41.72481597700016L120.52485,41.720004438400146L120.56994,41.715214783160434L120.7503,41.71044686470921L120.84048,41.70570053778018L120.93065999999999,41.700975658398285L121.11102,41.69510600720496L121.56192,41.689262766107774L121.65209999999999,41.683445760166144L121.74228,41.67765481598057L121.78737000000001,41.67188976167604L121.96773,41.66615042688501L122.103,41.66043664273101L122.46372,41.65474824181247L122.64408,41.64908505818653L123.27534,41.64344692735331L123.45570000000001,41.63783368624005L123.54588,41.632245173185865L123.77132999999999,41.62867066507621L123.81642000000001,41.6251118382592L123.9066,41.62156859153991L123.99678,41.61804082459205L124.04186999999999,41.61452843794853L124.13204999999999,41.611031332992404L124.22223,41.60754941194781L124.26732,41.60408257787088L124.58295,41.600630734641044L124.71822,41.59719378695227L124.94367,41.59592938663504L125.48475,41.593648677061466L125.66511,41.591377749395896L125.80038,41.58911654197079L126.25128,41.585038467061366L126.52181999999999,41.5809777771675L126.56691000000001,41.57693436337556L126.65709,41.57290811767921L126.79236,41.568898932970455L126.92763000000001,41.56490670302991L126.97272,41.56093132251797L127.01781,41.55697268696551L127.46871,41.552004055746224L127.5138,41.54705627036904L127.55889,41.54212920238161L127.64907000000001,41.53722272438441L128.19015000000002,41.53233671002005L128.23524,41.52747103396239L128.28033000000002,41.522625571906374L128.32542,41.5178002005574L128.68614,41.51299479762113L129.09195,41.50820924179342L129.85848000000001,41.503436584080205L130.48974,41.49868356189213L130.67010000000002,41.4939500566665L130.71519,41.48923595079266L130.80537,41.48454112760274L131.16609,41.47986547136216L131.25627,41.475208867260186L131.43663,41.470571201401015L131.88753,41.46595236079437L132.24825,41.46135223334668L132.29334,41.45677070785215L132.78933,41.452152682158435L133.15005,41.44755326016916L133.42059,41.442972331981096L133.46568,41.43840978855443L133.55586,41.43386552170462L133.64604,41.429339424093804L133.87149,41.42483138922276L134.72820000000002,41.42034131142248L134.99874,41.415971561070535L135.04383,41.4116191522335L135.49473,41.40827578914582L135.58491,41.40494564519036L135.72018,41.40162864377909L135.76527000000002,41.39930342150598L135.81036,41.39698734204998L136.26126000000002,41.39468035274474L136.30634999999998,41.39238240132738L136.44162,41.39009343593471L136.71215999999998,41.38781340509941L136.93761,41.385542257746266L137.02778999999998,41.38327994318844L137.11797,41.38102641112371L137.20815,41.378781611631L137.61396,41.37654549516658L137.79432,41.37431801256064L137.97468,41.370487311682226L138.06486,41.36667134842087L138.20013,41.362870039790245L138.60594,41.35908330342523L138.65103,41.355311057576834L138.83139,41.35155322110576L139.10193,41.34780971347723L139.19210999999999,41.344080454755115L139.73319,41.340365365596405L139.77828,41.33666436724579L139.82337,41.33297738153024L139.86846,41.3293043308535L140.00373000000002,41.32564513819092L140.18409,41.321999727084126L140.45463,41.318368021635834L140.49972,41.31523003941953L140.63499,41.31210381400775L140.99571,41.30898928100764L141.22116,41.3053012330638L141.35643,41.30162693107362L141.49169999999998,41.29796630015866L141.53679,41.29431926598313L141.80732999999998,41.290685754748694L141.89751,41.28706569318989L142.16805,41.28345900856929L142.30332,41.27986562867259L142.43859,41.27628548180402L142.48368000000002,41.27271849678185L142.66404,41.2691646029334L143.52075,41.26562373009098L143.70111,41.26209580858696L143.79129,41.25858076924959L144.01674,41.255690755184325L144.24219,41.25281125845217L144.82835999999998,41.249942223178756L145.00871999999998,41.24708359388451L145.14399,41.24423531548124L145.82034000000002,41.24142884373588L146.31633,41.238632500148555L146.36142,41.23584623138348L146.49669,41.23306998447831L146.76722999999998,41.23030370684116L147.08286,41.2275473462471L147.12795,41.22480085083515L147.17304,41.22206416910509L147.21813,41.21933724991426L147.26322000000002,41.216620042474446L147.30830999999998,41.21391249634894L147.66903,41.21069761370035L148.70610000000002,41.20749412459796L148.75118999999998,41.20430197017552L148.79628,41.20112109197157L149.11191,41.19795143192546L149.60789999999997,41.194792932374305L149.69808,41.19164553604943L150.23916,41.19031676323282L150.28425000000001,41.18899264647339L150.41952,41.1876731620007L150.50969999999998,41.1851366011714L150.55479,41.182608885825374L150.64497,41.18008997103279L151.50168,41.17757981216735L151.72713000000002,41.17507836490373L151.8624,41.17258558521504L151.99767,41.170101429370334L152.40348,41.167625853932115L152.44857,41.16515881575387L152.71911,41.162700271977684L152.80928999999998,41.1602501800318L152.85438,41.157808497628125L153.12492,41.1553751827601L153.26019,41.1531164719534L153.53072999999998,41.15086547745672L153.62091,41.14862216091712L153.71108999999998,41.14638648423523L153.84636,41.14415840956307L154.25216999999998,41.141937899302114L154.47762,41.13851042517061L154.56779999999998,41.135094551499265L154.61289,41.13169022119497L154.65798,41.12829737753852L155.15397,41.124915964181135L155.60487,41.12154592514182L155.96559000000002,41.118187204804144L156.73211999999998,41.11483974791335L157.04775,41.11166159623725L157.09284,41.10849407001058L157.22811,41.10533711761383L157.67901,41.10219068776113L157.94955,41.099054729497404L158.12991,41.09592919219568L158.35536,41.09281402555453L158.44554000000002,41.08970917959545L158.53572,41.089041087530674L158.6259,41.08837520223922L158.71608,41.08771151313704L158.89643999999998,41.08705000970749L158.94153,41.086390681500966L159.0768,41.08573351813421L159.34734,41.084066425390354L159.43752,41.08240479012697L159.57279,41.079653511119865L159.93350999999998,41.0769112121885L160.02369000000002,41.07417785080425L160.06877999999998,41.07145338470657L160.11387,41.068737771900444L160.47459,41.066030970654644L161.15094,41.063332939499446L161.24112,41.06045546038181L161.3313,41.05758727710689L161.42148,41.054728346129856L161.51165999999998,41.05187862417718L161.91747,41.04903806824444L162.09783,41.04620663559423L162.684,41.04338428375431L162.86436,41.04057097051513L163.72107,41.037766653928145L164.39742,41.03692360632576L164.44251,41.03608324693725L164.71304999999998,41.035245563343906L164.75814,41.03441054320323L164.84832,41.0319010555331L164.98359000000002,41.02939952409878L165.20904,41.026905912368846L165.34431,41.02442018403493L165.3894,41.0219423030099L165.47958,41.01947223342637L166.20102,41.017009939634995L166.51665,41.014555386202595L166.69701,41.012108537910855L167.01264,41.009669359754504L167.05773,41.007237816939615L167.37336,41.00481387488229L167.50862999999998,41.00314339717374L168.59079,41.00165505164791L168.72606000000002,41.00017133904476L169.04169000000002,40.99869223850507L169.17696,40.997217729294285L169.22205,40.995747790802056L169.31223,40.99428240254091L169.35732,40.992821544145485L169.67295,40.99235521872807L169.76313000000002,40.99189033085567L170.25912,40.98965459908872L170.48457000000002,40.987425740472716L170.89038,40.984647727144385L170.98056,40.9818782306541L171.07074,40.97911721327513L171.25109999999998,40.97636463750303L171.38637,40.973620466053866L171.97253999999998,40.97088466186266L172.01763,40.96815718808173L172.06272,40.96543800807919L172.33326,40.962727085437265L172.69397999999998,40.960024383950895L172.96452000000002,40.9573298676259L173.00960999999998,40.954643500677804L173.0547,40.95196524752998L173.23506,40.94929507281237L173.46051,40.946843085864366L173.77614,40.94439847505686L174.13685999999998,40.94196120837424L174.31722,40.939531253985535L174.49758,40.93710858024327L174.58776,40.934707756032076L174.85829999999999,40.9323141060877L174.99357,40.92992759949305L175.08375,40.92754820550802L175.17392999999998,40.9251758935686L175.26411000000002,40.922810633285195L175.39938,40.92045239444157L175.62483,40.91810114699378L176.16591,40.91643005918336L176.39136,40.91476391261263L176.61681,40.913102686227916L177.42843000000002,40.913347637715894L177.60879000000003,40.913591867740045L177.74406000000002,40.91383537936138L177.96950999999999,40.911253419717156L178.24005,40.90867903520378L178.28514,40.90611219381623L178.46550000000002,40.903552863729274L178.55568,40.901001013296174L178.82622,40.89845661104734L178.87131,40.895919625689324L179.14185,40.893390026103305L179.45748,40.89086778134413L179.72802000000001,40.888352860639L179.86329,40.88584523338604L180.13383,40.88334486915364L180.62982,40.88265742325061L180.72,40.881971963380266L181.03563,40.87965730450435L181.1709,40.87734931572329L181.30617,40.87504796939717L181.39634999999998,40.87275323803826L181.6218,40.870441229681425L182.34324,40.86813585019239L182.43341999999998,40.865837072252006L182.47851,40.863544868690624L182.65887,40.86125921248737L182.70396,40.85898007676893L182.88432,40.85670743480856L182.9745,40.85444126002513L183.24504000000002,40.852181525982125L183.29012999999998,40.84992820638668L183.60576,40.84768127508854L184.14684,40.84548593391473L184.37229,40.84329680125572L184.50756,40.8411138519028L184.91337,40.838937060783344L184.95846,40.836766402959796L185.229,40.83460185362887L185.27409,40.83244338812045L185.90535,40.830290981897L186.08571,40.82814461055239L186.17588999999998,40.826004249811206L186.26607,40.823869875527734L186.40134,40.82192053867063L186.53661,40.81997664072277L186.94242,40.81803815992168L187.21295999999998,40.81610507462086L187.30314,40.814177363288515L187.79913,40.812255004507186L187.84422,40.81033797697281L188.11476,40.80842625949396L188.43039,40.806519830991235L189.51254999999998,40.80520907829987L189.64782000000002,40.80390194324938L189.78309000000002,40.802598411535136L189.87327,40.80091690423381L190.82016,40.79890929997765L190.95542999999998,40.79690721022182L191.13579,40.794910613274475L191.18088,40.79291948755722L191.22597000000002,40.79093381160425L191.49651,40.788953564061686L191.63178,40.78697872368681L191.72196,40.78500926934735L192.12777,40.78304518002082L192.30813,40.78108643479368L192.4434,40.77913301286075L192.66885000000002,40.77856644326171L193.02957,40.777328128079816L193.20993,40.775759271572184L193.30011,40.77419465882155L193.39029000000002,40.772634273412L193.97646,40.771078099012094L194.06664,40.76952611937415L194.20191,40.76797831833375L194.74299,40.76643467980928L194.92335,40.764547005769295L195.14880000000002,40.7626643965326L195.23898,40.760786832680935L195.68988000000002,40.75891429489493L195.78006,40.75704676395362L195.87024000000002,40.75518422073358L196.45641,40.75332664620841L196.72695000000002,40.751474021448175L197.17785,40.749626327618785L197.4033,40.74778354598127L197.71893,40.74596512614217L197.8542,40.744151529660755L197.94438,40.742342738275646L198.84618,40.74026802088003L198.89127,40.73819878795685L198.93635999999998,40.73613501881921L199.16181,40.73407669288395L199.25198999999998,40.7320237896708L199.52253,40.729976288801886L199.70289,40.72793417000107L200.06361,40.72589741309327L200.1087,40.72386599800387L200.33415,40.7218399047581L200.37924,40.719819113480334L200.5596,40.7178036043936L201.05559,40.71584980140627L201.32613,40.71390109413868L201.59667,40.71195746365305L201.73193999999998,40.71001889110503L202.22793000000001,40.70808535774338L202.40829000000002,40.70615684490892L202.58865,40.70423333403437L202.67883,40.7023148066437L202.90428,40.70040124435137L203.08464,40.69849262886207L203.31009,40.69840634515809L203.53554,40.696503657632675L203.7159,40.69460587263664L203.76099,40.69271297219248L203.85117000000002,40.69082493841028L204.25698,40.68894175348709L204.30207000000001,40.687063399706545L204.79806,40.68518985943814L204.88824,40.6833211151368L204.93332999999998,40.681457149342435L205.24896,40.67959794467939L205.33914,40.6777434838558L205.38423,40.675893749663274L205.42932000000002,40.67404872497626L205.47440999999998,40.672208392751656L205.65476999999998,40.67037273602823L205.74495000000002,40.66854173792612L206.73693,40.667410414991856L206.8722,40.666281957044106L207.50346,40.665156353776275L207.72891,40.664033594931034L207.774,40.66291367029986L207.86418,40.661796569722966L208.2249,40.6606822830889L208.45035000000001,40.66038156532739L208.76598,40.65922725855292L210.0285,40.65807585021983L210.34413,40.65692732999899L210.84011999999998,40.65578168761017L211.06557,40.654638912821724L211.47138,40.653987631293425L211.51647,40.65333797653391L211.96737000000002,40.651704247188725L212.01245999999998,40.650074590026925L212.05755,40.648448990654714L212.14773,40.64682743474593L212.23791,40.64520990804145L212.32809,40.64359639634907L212.37318,40.641986885542714L212.41827,40.640381361562454L212.50845,40.638779810413894L213.32007,40.63718221816785L213.54552,40.635588570959946L213.77097,40.63399885499025L213.90624,40.63241305652298L214.04151,40.63083116188592L214.26696,40.62925315747036L214.76295,40.62801726557927L215.16876000000002,40.626784406789035L215.30403,40.62600502772986L215.34912,40.62522755750061L215.75493,40.62445198948494L216.02547,40.6236783170971L216.70182,40.621909842366634L216.74691,40.620145681329056L217.01745,40.61838581910028L217.19781,40.6166302408644L217.33308,40.614878931873285L217.60362,40.613131877446115L217.69379999999998,40.61138906296914L218.09960999999998,40.60965047389516L218.27997,40.607916095743235L218.55051,40.60618591409828L218.77596,40.60445991461076L219.0465,40.602877272848446L219.22686000000002,40.60129844896525L219.45231,40.59972342995008L219.76794,40.59815220285067L219.94830000000002,40.59658475477337L220.35411,40.594946665643384L220.48938,40.593312508526786L221.03046,40.591682270098126L221.34609,40.590055937091776L221.48136,40.58843349630184L221.57154000000003,40.586814934581476L221.61663,40.58520023884301L221.79699,40.5835893960571L221.84208,40.58198239325283L221.88717,40.58037921751719L222.42825000000002,40.578779855994675L222.69879,40.57718429588721L222.74388,40.575592524453604L222.83406,40.57400452900934L223.05951,40.57350374569105L223.1046,40.573077439025525L223.23987,40.572224011431864L223.51041,40.57120668514382L223.69077000000001,40.57019176044754L224.0064,40.56900531390376L224.4573,40.56782166277796L224.72784000000001,40.566640797792466L224.90820000000002,40.565462709710594L225.04347,40.5642873893362L225.40419,40.56311482751361L225.49436999999998,40.56194501512715L226.08053999999998,40.56031334333973L226.2609,40.55868549019025L226.30599,40.55706144310097L227.1627,40.55544118954912L227.20779000000002,40.55382471706664L227.34306,40.55221201323971L227.65869,40.55060306570861L227.74887,40.54899786216737L228.10959,40.547396390363474L228.19977,40.5457986380977L228.24486000000002,40.544204593223576L228.83103,40.54323151203575L228.92121,40.54226068450805L228.96630000000002,40.541292103304485L229.37211000000002,40.54032576112076L229.50738,40.53904588503426L229.59756,40.53776896202384L230.00337,40.536494982517745L230.13863999999998,40.53522393698516L230.22882,40.5339558159364L230.319,40.53269060992232L230.86007999999998,40.531428309534355L231.62661,40.53016890540411L231.85206000000002,40.528912388203345L232.30296,40.52795819140302L232.5735,40.52700617785433L232.88913000000002,40.52605634054759L233.15967,40.52510867250295L233.24985,40.52416316677029L233.43021000000002,40.52321981642894L233.74584000000002,40.522278614587655L233.79093,40.521339554384355L233.83602,40.52040262898602L234.28692,40.51982364011615L235.00836,40.51836749020908L235.23380999999998,40.51691464155291L235.45926,40.515465083658505L235.68471,40.51401880608101L235.7298,40.51257579841951L235.81998,40.51113605031682L235.95524999999998,40.50969955145909L236.40615,40.50826629157597L236.58651,40.506836260439876L236.63160000000002,40.50540944786631L236.90214,40.50398584371309L237.0825,40.50269296973633L237.12759,40.5020158331305L237.48831,40.501340215069L237.57849,40.50066611078633L237.62358,40.4999935155368L237.66867000000002,40.499322424594446L237.75885,40.49865283325295L237.89412,40.49798473682546L237.93921,40.49731813064456L237.9843,40.496653010062154L238.02939,40.49598937044935L238.20975,40.49532720719639L238.29993,40.49466651571243L238.43519999999998,40.493614667093496L238.48029,40.49256515224812L238.52538,40.491517963941455L238.57047,40.490473094968266L238.66065,40.48943053815293L238.79592,40.48839028634936L238.84100999999998,40.487352332440466L239.11155000000002,40.486316669338564L239.38209,40.48528328998467L239.47227,40.48425218734883L239.60754,40.48322335442963L240.14862,40.4821967842542L240.50934,40.481172469878125L240.55443,40.4801504043851L240.59951999999998,40.47913058088697L240.87006,40.47811299252356L241.18569,40.47870420295644L241.41114000000002,40.479294119885076L241.72677000000002,40.47988274725557L241.90713,40.480470088998224L242.13258000000002,40.48105614902732L242.31294000000003,40.48164093124139L242.58348,40.482244598974724L242.67366,40.48284695276403L242.80893,40.48248891769308L243.12456,40.48213166058609L243.39509999999999,40.481775179088416L243.53037,40.481419470854796L243.62055,40.48106453354942L243.66564,40.48071036484586L243.89109000000002,40.480356962426946" style="fill: none;" fill="none"></path></g></g></g></g><g opacity="0.2"><g><g><g><path stroke="rgb(238, 51, 119)" stroke-width="2px" d="M23.17554,158.2222222222222L23.76171,158.2222222222222L24.032249999999998,116.44773042201996L24.753690000000002,116.44773042201996L24.843870000000003,116.44773042201996L24.97914,116.44773042201996L25.06932,116.44773042201996L25.339859999999998,116.44773042201996L25.47513,116.44773042201996L26.15148,116.44773042201996L26.28675,116.44773042201996L26.5122,116.44773042201996L26.87292,40.654789219299964L27.18855,40.654789219299964L27.54927,40.654789219299964L27.684540000000002,40.654789219299964L27.72963,40.542216658592224L28.04526,40.542216658592224L28.27071,40.542216658592224L28.63143,40.542216658592224L29.217599999999997,40.542216658592224L29.71359,40.542216658592224L29.939040000000002,40.542216658592224L30.07431,40.542216658592224L30.48012,42.002071830961434L30.525209999999998,42.002071830961434L30.97611,40.35229697161251L31.20156,40.35229697161251L31.29174,40.35229697161251L31.336830000000003,40.35229697161251L31.517190000000003,40.35229697161251L31.87791,40.35229697161251L32.23863,40.35229697161251L32.28372,40.35229697161251L32.50917,40.35229697161251L33.00516,40.35229697161251L33.2757,40.35229697161251L33.50115,40.35229697161251L33.63642,40.6984360449844L34.177499999999995,40.32905894186762L34.44804,40.32905894186762L34.67349,40.32905894186762L34.98912,40.32905894186762L35.16948,40.32905894186762L35.259660000000004,40.32905894186762L36.11637,39.76124497916964L36.34182,39.76124497916964L36.38691,39.76124497916964L36.612359999999995,39.76124497916964L36.83781,39.76124497916964L36.92799,39.76124497916964L37.28871,39.76124497916964L37.3338,39.76124497916964L37.64943,39.647088342242775L37.82979,39.647088342242775L38.235600000000005,39.647088342242775L38.596320000000006,39.647088342242775L39.31776,39.647088342242775L39.49812,39.647088342242775L39.76866,39.647088342242775L39.94902,39.647088342242775L40.0392,39.647088342242775L41.93298,39.94024559193188L41.978069999999995,39.63368632064926L42.06825,39.63368632064926L42.338789999999996,39.63368632064926L42.7446,39.63368632064926L42.83478,39.63368632064926L42.879870000000004,39.63368632064926L43.01514,39.63368632064926L43.28568,39.63368632064926L43.69149,39.63368632064926L43.82676,39.63368632064926L43.87185,39.63368632064926L44.32275,39.63368632064926L45.08928,39.887779513994865L45.17946,39.887779513994865L45.81072,39.63357580370373L46.036170000000006,39.63357580370373L46.12635,39.63357580370373L46.26162,39.63357580370373L46.622339999999994,39.63357580370373L46.89288,39.63357580370373L46.983059999999995,39.63357580370373L47.11833,39.63357580370373L47.38887,39.63357580370373L47.61432,39.63357580370373L48.065220000000004,39.63357580370373L48.33576,39.92915705839794L48.606300000000005,39.92915705839794L48.786660000000005,39.92915705839794L49.0572,40.17579404181904L49.147380000000005,40.17579404181904L49.19247,40.17579404181904L49.28265,40.17579404181904L49.37282999999999,40.17579404181904L49.417919999999995,40.17579404181904L49.64337,40.17579404181904L49.68846,40.17579404181904L50.09427,40.17579404181904L50.36481,40.17579404181904L50.45499,40.573316127061844L50.68044,40.573316127061844L50.90589,40.573316127061844L50.99607,40.573316127061844L51.537150000000004,40.073418511284736L51.852779999999996,40.073418511284736L51.89787,40.073418511284736L51.988049999999994,40.073418511284736L52.07823,40.073418511284736L52.12332,40.073418511284736L52.213499999999996,40.073418511284736L52.75458,39.76228383845753L52.88985,39.76228383845753L53.07021,39.76228383845753L53.20548,39.76228383845753L53.34075,39.76228383845753L53.52111,39.76228383845753L53.5662,39.76228383845753L53.74656,39.76228383845753L53.972010000000004,39.76228383845753L54.0171,39.76228383845753L54.467999999999996,39.76228383845753L54.64836,39.76228383845753L54.783629999999995,39.76228383845753L55.144349999999996,39.76228383845753L55.324709999999996,39.85463916593128L55.45998,39.85463916593128L55.505069999999996,39.85463916593128L55.55016,39.85463916593128L55.86579,39.85463916593128L56.13633,39.85463916593128L56.226510000000005,39.85463916593128L56.2716,39.85463916593128L56.45196,39.85463916593128L56.63232,39.85463916593128L56.767590000000006,39.85463916593128L56.81268,39.85463916593128L56.85777,39.85463916593128L57.038129999999995,39.85463916593128L57.44394,39.85463916593128L57.6243,39.85463916593128L57.66939,39.85463916593128L57.71448,39.85463916593128L57.80466,39.85463916593128L57.84975,40.09484406312308L58.12029,40.09484406312308L58.30065,40.09484406312308L58.34574,40.09484406312308L58.43592,40.09484406312308L58.5261,40.09484406312308L58.66137,40.09484406312308L58.70646,40.22932845022944L58.75155,40.22932845022944L58.796640000000004,40.22932845022944L58.93191,40.22932845022944L59.11227,40.01421089967093L59.337720000000004,40.01421089967093L59.382810000000006,40.01421089967093L59.4279,40.01421089967093L59.69844,40.01421089967093L60.46497,39.88319674465391L60.64533,39.88319674465391L60.73551,39.88319674465391L60.96096,39.88319674465391L62.04312,39.88319674465391L62.133300000000006,39.88319674465391L62.35874999999999,39.88319674465391L62.44893,39.88319674465391L62.62929,39.88319674465391L62.71947,39.88319674465391L63.08019,40.01433615220919L63.35073,40.01433615220919L63.53109,40.01433615220919L63.84672,40.01433615220919L63.9369,40.01433615220919L64.20744,39.907679931985015L64.29762000000001,39.907679931985015L64.43289,39.907679931985015L64.47798,39.907679931985015L64.56816,39.907679931985015L64.92887999999999,39.907679931985015L64.97397,39.907679931985015L65.10924,39.907679931985015L65.42487,39.907679931985015L65.56014,39.907679931985015L65.96595,39.907679931985015L66.14631,39.77018948396048L66.28158,39.77018948396048L66.32667000000001,39.77018948396048L66.73248,39.77018948396048L66.77757,39.77018948396048L66.95793,39.69626838299963L67.00302,39.69626838299963L67.04811000000001,39.69626838299963L67.0932,39.69626838299963L67.27356,39.69626838299963L67.31865,39.69626838299963L67.45392,39.69626838299963L67.49901,39.69626838299963L67.85973,39.69626838299963L68.04008999999999,39.69626838299963L68.13027,39.69626838299963L68.22045,39.69626838299963L68.26554,39.69626838299963L68.67135,39.69626838299963L68.80662,39.69626838299963L69.16734,39.69626838299963L69.25752,39.69626838299963L69.43787999999999,39.69626838299963L69.48297000000001,39.69626838299963L69.70841999999999,40.05234661367205L70.02405,40.20592832896444L70.52004,40.100598312086525L70.61022,40.100598312086525L70.88076,40.100598312086525L71.01603,40.100598312086525L71.10621,40.100598312086525L71.28657000000001,40.100598312086525L71.46692999999999,40.100598312086525L71.55711,40.100598312086525L71.78256,40.100598312086525L71.82764999999999,40.100598312086525L71.87274000000001,40.100598312086525L72.23346000000001,39.93410821755728L72.504,39.93410821755728L72.68436,39.93410821755728L72.72945,39.93410821755728L72.77454,39.93410821755728L73.18035,39.93410821755728L73.4058,39.93410821755728L74.03706,39.65154585904545L74.12723999999999,39.65154585904545L75.02904,39.65154585904545L75.07413,39.65154585904545L75.25449,39.65154585904545L75.29957999999999,39.65154585904545L75.34467000000001,39.65154585904545L76.15629000000001,39.65154585904545L76.38174,39.65154585904545L76.69736999999999,39.97128611803055L76.74246,39.97128611803055L77.013,39.97128611803055L77.10318,39.97128611803055L77.32862999999999,39.97128611803055L77.41881,39.97128611803055L77.68934999999999,40.77657152546778L78.50097,40.532881660593894L78.59115,40.532881660593894L78.68133,40.532881660593894L79.04205,39.65567182501158L79.17732,39.65567182501158L79.53804,39.65567182501158L79.67331,39.65567182501158L79.80857999999999,39.65567182501158L80.39475,39.65567182501158L80.71038,39.65567182501158L80.98092,39.65567182501158L81.16128,39.65567182501158L81.25146,39.65567182501158L81.29655000000001,39.65567182501158L81.56709000000001,39.67491650912496L82.01799,40.69094299607807L82.24344,40.69094299607807L82.28853,40.69094299607807L82.4238,39.90328872534963L82.69434,39.90328872534963L82.78452,39.90328872534963L82.91978999999999,39.90328872534963L83.05506,39.90328872534963L83.19033,39.90328872534963L83.23542,39.90328872534963L84.04704000000001,39.809216701322136L84.72339,39.809216701322136L85.39974,39.809216701322136L85.53501,39.809216701322136L85.5801,39.809216701322136L85.67027999999999,39.809216701322136L85.71537000000001,39.809216701322136L86.66226,39.98797417680424L86.70735,39.98797417680424L86.9328,39.98797417680424L87.06806999999999,40.38109031981892L87.24843,40.38109031981892L87.33860999999999,40.38109031981892L87.51897,40.38109031981892L87.69932999999999,40.38109031981892L87.87969,40.38109031981892L89.00694,39.86101967758602L89.05203,39.86101967758602L89.54802,39.86101967758602L89.90874,39.86101967758602L89.95383,39.86101967758602L90.08909999999999,39.86101967758602L90.17927999999999,39.86101967758602L90.22437000000001,39.86101967758602L90.63018,39.86101967758602L90.94581000000001,39.86101967758602L91.62216,40.48395949270991L91.66725000000001,40.48395949270991L91.80252,40.07958535684481L92.11814999999999,40.07958535684481L92.65923,39.84426530864504L92.88468,39.61188501119614L92.92976999999999,39.61188501119614L93.01995,39.61188501119614L93.33558000000001,39.61188501119614L93.65120999999999,39.61188501119614L93.69630000000001,39.61188501119614L94.10211,39.61188501119614L94.28247,39.61188501119614L94.37265,39.61188501119614L94.55301,39.61188501119614L94.95881999999999,39.61188501119614L95.27445,39.61188501119614L95.31953999999999,39.61188501119614L95.54499,41.05282705028853L95.90571,40.962026327848434L96.31152,40.843846874104614L96.35661,40.843846874104614L96.53697000000001,40.843846874104614L96.76241999999999,40.843846874104614L96.89769000000001,40.843846874104614L96.98787,40.843846874104614L97.12314,40.843846874104614L97.25841000000001,40.843846874104614L97.43876999999999,40.843846874104614L97.79948999999999,39.77519958549076L98.16020999999999,39.77519958549076L98.34057,39.77519958549076L98.47584,39.77519958549076L98.52092999999999,39.77519958549076L98.79147,39.567029866907326L98.83656,39.567029866907326L99.19728,39.567029866907326L99.37764,39.567029866907326L99.42273,39.567029866907326L99.46782,39.567029866907326L99.558,39.567029866907326L99.69327,39.567029866907326L100.0089,39.567029866907326L100.05399,39.567029866907326L100.41471,39.567029866907326L100.45979999999999,39.567029866907326L100.86561,39.567029866907326L101.04597,39.567029866907326L101.13615,39.567029866907326L101.27141999999999,39.79206447137728L101.49687,39.79206447137728L101.54196,39.79206447137728L101.63213999999999,39.79206447137728L101.67723000000001,39.89481575952637L101.72232,39.89481575952637L101.94777,39.89481575952637L102.57902999999999,39.89481575952637L102.98484,39.89481575952637L103.25538,39.70354039801493L103.57101,39.70354039801493L103.6161,39.70354039801493L104.02190999999999,39.70354039801493L104.33754,39.70354039801493L104.74334999999999,39.70354039801493L104.87862000000001,39.70354039801493L105.19425,39.70354039801493L105.28443,39.70354039801493L105.46479000000001,39.70354039801493L105.91569,40.67961132526398L105.96078,40.67961132526398L106.09605,40.67961132526398L106.3215,40.67961132526398L106.50186,40.67961132526398L107.08803,39.89175812403362L107.17821,39.89175812403362L107.2233,39.89175812403362L107.49384,39.89175812403362L107.53893000000001,39.89175812403362L107.58402,39.89175812403362L107.6742,39.89175812403362L108.30546,39.89175812403362L109.11708,39.89175812403362L109.38762,39.89175812403362L109.70325,40.46220975783137L109.97379,39.847735540734405L110.15415,39.847735540734405L110.24433,39.847735540734405L110.33451,39.847735540734405L110.60505,39.847735540734405L110.74032,39.847735540734405L110.8305,39.847735540734405L110.96577,39.847735540734405L111.10104,39.847735540734405L111.23631,39.847735540734405L111.64211999999999,39.847735540734405L111.7323,39.847735540734405L112.27338,39.847735540734405L112.31847,39.847735540734405L112.36355999999999,39.847735540734405L112.99482,39.67444497015742L113.17518,39.67444497015742L113.35554,39.67444497015742L113.5359,39.67444497015742L113.58099,39.67444497015742L113.71626,39.67444497015742L113.80644000000001,39.67444497015742L113.89662,39.67444497015742L114.25734,39.67444497015742L114.34752,39.67444497015742L114.48279,39.67444497015742L114.61806,39.67444497015742L114.75332999999999,39.67444497015742L114.84351,39.67444497015742L114.97878,39.67444497015742L115.11404999999999,39.67444497015742L115.83549000000001,39.770712597502616L116.15111999999999,39.770712597502616L116.37657,39.770712597502616L116.42165999999999,39.770712597502616L116.46675,39.770712597502616L116.55693000000001,39.770712597502616L116.60202,39.770712597502616L116.6922,39.770712597502616L116.78237999999999,39.770712597502616L116.96274,39.770712597502616L117.1431,39.70888941817814L117.36855,39.70888941817814L117.45873,39.70888941817814L117.77436,39.70888941817814L117.86454,39.70888941817814L117.90963,39.70888941817814L118.13508,39.70888941817814L118.31544,39.70888941817814L118.54088999999999,39.70888941817814L118.63107,39.70888941817814L118.67616,39.70888941817814L119.12706,39.70888941817814L119.17215,39.70888941817814L119.35251,39.70888941817814L119.48778,39.70888941817814L119.62304999999999,39.825366910960945L119.66814000000001,39.825366910960945L119.80341,39.825366910960945L119.8485,39.87485639916527L119.93868,39.87485639916527L120.16413,39.87485639916527L120.20922,39.992859025796264L120.52485,39.992859025796264L120.56994,39.992859025796264L120.7503,39.992859025796264L120.84048,39.992859025796264L120.93065999999999,39.992859025796264L121.11102,39.569394929541495L121.56192,39.569394929541495L121.65209999999999,39.569394929541495L121.74228,39.569394929541495L121.78737000000001,39.569394929541495L121.96773,39.569394929541495L122.103,39.569394929541495L122.46372,39.569394929541495L122.64408,39.569394929541495L123.27534,39.569394929541495L123.45570000000001,39.569394929541495L123.54588,39.569394929541495L123.77132999999999,40.306985023948876L123.81642000000001,40.306985023948876L123.9066,40.306985023948876L123.99678,40.306985023948876L124.04186999999999,40.306985023948876L124.13204999999999,40.306985023948876L124.22223,40.306985023948876L124.26732,40.306985023948876L124.58295,40.306985023948876L124.71822,40.306985023948876L124.94367,41.12049289213287L125.48475,40.73464139633709L125.66511,40.73464139633709L125.80038,40.73464139633709L126.25128,40.041464378436416L126.52181999999999,40.041464378436416L126.56691000000001,40.041464378436416L126.65709,40.041464378436416L126.79236,40.041464378436416L126.92763000000001,40.041464378436416L126.97272,40.041464378436416L127.01781,40.041464378436416L127.46871,39.64677152699894L127.5138,39.64677152699894L127.55889,39.64677152699894L127.64907000000001,39.64677152699894L128.19015000000002,39.64677152699894L128.23524,39.64677152699894L128.28033000000002,39.64677152699894L128.32542,39.64677152699894L128.68614,39.64677152699894L129.09195,39.64677152699894L129.85848000000001,39.64410438471371L130.48974,39.64410438471371L130.67010000000002,39.64410438471371L130.71519,39.64410438471371L130.80537,39.64410438471371L131.16609,39.64410438471371L131.25627,39.64410438471371L131.43663,39.64410438471371L131.88753,39.64410438471371L132.24825,39.64410438471371L132.29334,39.64410438471371L132.78933,39.62225886848238L133.15005,39.62225886848238L133.42059,39.62225886848238L133.46568,39.62225886848238L133.55586,39.62225886848238L133.64604,39.62225886848238L133.87149,39.62225886848238L134.72820000000002,39.62225886848238L134.99874,39.66345958577263L135.04383,39.66345958577263L135.49473,40.06340567602053L135.58491,40.06340567602053L135.72018,40.06340567602053L135.76527000000002,40.45982259180811L135.81036,40.45982259180811L136.26126000000002,40.45982259180811L136.30634999999998,40.45982259180811L136.44162,40.45982259180811L136.71215999999998,40.45982259180811L136.93761,40.45982259180811L137.02778999999998,40.45982259180811L137.11797,40.45982259180811L137.20815,40.45982259180811L137.61396,40.45982259180811L137.79432,40.45982259180811L137.97468,39.79553470346662L138.06486,39.79553470346662L138.20013,39.79553470346662L138.60594,39.79553470346662L138.65103,39.79553470346662L138.83139,39.79553470346662L139.10193,39.79553470346662L139.19210999999999,39.79553470346662L139.73319,39.79553470346662L139.77828,39.79553470346662L139.82337,39.79553470346662L139.86846,39.79553470346662L140.00373000000002,39.79553470346662L140.18409,39.79553470346662L140.45463,39.79553470346662L140.49972,39.997603886657295L140.63499,39.997603886657295L140.99571,39.997603886657295L141.22116,39.75030380156306L141.35643,39.75030380156306L141.49169999999998,39.75030380156306L141.53679,39.75030380156306L141.80732999999998,39.75030380156306L141.89751,39.75030380156306L142.16805,39.75030380156306L142.30332,39.75030380156306L142.43859,39.75030380156306L142.48368000000002,39.75030380156306L142.66404,39.75030380156306L143.52075,39.75030380156306L143.70111,39.75030380156306L143.79129,39.75030380156306L144.01674,40.0139603945944L144.24219,40.0139603945944L144.82835999999998,40.0139603945944L145.00871999999998,40.0139603945944L145.14399,40.0139603945944L145.82034000000002,40.0276202890608L146.31633,40.0276202890608L146.36142,40.0276202890608L146.49669,40.0276202890608L146.76722999999998,40.0276202890608L147.08286,40.0276202890608L147.12795,40.0276202890608L147.17304,40.0276202890608L147.21813,40.0276202890608L147.26322000000002,40.0276202890608L147.30830999999998,40.0276202890608L147.66903,39.800316403309516L148.70610000000002,39.800316403309516L148.75118999999998,39.800316403309516L148.79628,39.800316403309516L149.11191,39.800316403309516L149.60789999999997,39.800316403309516L149.69808,39.800316403309516L150.23916,40.60218315323195L150.28425000000001,40.60218315323195L150.41952,40.60218315323195L150.50969999999998,40.05818927619192L150.55479,40.05818927619192L150.64497,40.05818927619192L151.50168,40.05818927619192L151.72713000000002,40.05818927619192L151.8624,40.05818927619192L151.99767,40.05818927619192L152.40348,40.05818927619192L152.44857,40.05818927619192L152.71911,40.05818927619192L152.80928999999998,40.05818927619192L152.85438,40.05818927619192L153.12492,40.05818927619192L153.26019,40.13342184490627L153.53072999999998,40.13342184490627L153.62091,40.13342184490627L153.71108999999998,40.13342184490627L153.84636,40.13342184490627L154.25216999999998,40.13342184490627L154.47762,39.579945613940566L154.56779999999998,39.579945613940566L154.61289,39.579945613940566L154.65798,39.579945613940566L155.15397,39.579945613940566L155.60487,39.579945613940566L155.96559000000002,39.579945613940566L156.73211999999998,39.579945613940566L157.04775,39.65268049968615L157.09284,39.65268049968615L157.22811,39.65268049968615L157.67901,39.65268049968615L157.94955,39.65268049968615L158.12991,39.65268049968615L158.35536,39.65268049968615L158.44554000000002,39.65268049968615L158.53572,40.77946706944042L158.6259,40.77946706944042L158.71608,40.77946706944042L158.89643999999998,40.77946706944042L158.94153,40.77946706944042L159.0768,40.77946706944042L159.34734,40.306240876515716L159.43752,40.306240876515716L159.57279,39.79304438829422L159.93350999999998,39.79304438829422L160.02369000000002,39.79304438829422L160.06877999999998,39.79304438829422L160.11387,39.79304438829422L160.47459,39.79304438829422L161.15094,39.79304438829422L161.24112,39.70415929290983L161.3313,39.70415929290983L161.42148,39.70415929290983L161.51165999999998,39.70415929290983L161.91747,39.70415929290983L162.09783,39.70415929290983L162.684,39.70415929290983L162.86436,39.70415929290983L163.72107,39.70415929290983L164.39742,40.63556663857567L164.44251,40.63556663857567L164.71304999999998,40.63556663857567L164.75814,40.63556663857567L164.84832,39.83194635311764L164.98359000000002,39.83194635311764L165.20904,39.83194635311764L165.34431,39.83194635311764L165.3894,39.83194635311764L165.47958,39.83194635311764L166.20102,39.83194635311764L166.51665,39.83194635311764L166.69701,39.83194635311764L167.01264,39.83194635311764L167.05773,39.83194635311764L167.37336,39.83194635311764L167.50862999999998,40.19399249884817L168.59079,40.279959946870804L168.72606000000002,40.279959946870804L169.04169000000002,40.279959946870804L169.17696,40.279959946870804L169.22205,40.279959946870804L169.31223,40.279959946870804L169.35732,40.279959946870804L169.67295,40.76456201738781L169.76313000000002,40.76456201738781L170.25912,39.895250459512084L170.48457000000002,39.895250459512084L170.89038,39.621964156627655L170.98056,39.621964156627655L171.07074,39.621964156627655L171.25109999999998,39.621964156627655L171.38637,39.621964156627655L171.97253999999998,39.621964156627655L172.01763,39.621964156627655L172.06272,39.621964156627655L172.33326,39.621964156627655L172.69397999999998,39.621964156627655L172.96452000000002,39.621964156627655L173.00960999999998,39.621964156627655L173.0547,39.621964156627655L173.23506,39.621964156627655L173.46051,39.72674158877796L173.77614,39.72674158877796L174.13685999999998,39.72674158877796L174.31722,39.72674158877796L174.49758,39.72674158877796L174.58776,39.734057810571464L174.85829999999999,39.734057810571464L174.99357,39.734057810571464L175.08375,39.734057810571464L175.17392999999998,39.734057810571464L175.26411000000002,39.734057810571464L175.39938,39.734057810571464L175.62483,39.734057810571464L176.16591,40.074074245161476L176.39136,40.074074245161476L176.61681,40.074074245161476L177.42843000000002,41.03718521859911L177.60879000000003,41.03718521859911L177.74406000000002,41.03718521859911L177.96950999999999,39.602100577619346L178.24005,39.602100577619346L178.28514,39.602100577619346L178.46550000000002,39.602100577619346L178.55568,39.602100577619346L178.82622,39.602100577619346L178.87131,39.602100577619346L179.14185,39.602100577619346L179.45748,39.602100577619346L179.72802000000001,39.602100577619346L179.86329,39.602100577619346L180.13383,39.602100577619346L180.62982,40.53005979458492L180.72,40.53005979458492L181.03563,39.69019731879234L181.1709,39.69019731879234L181.30617,39.69019731879234L181.39634999999998,39.69019731879234L181.6218,39.677863627672195L182.34324,39.677863627672195L182.43341999999998,39.677863627672195L182.47851,39.677863627672195L182.65887,39.677863627672195L182.70396,39.677863627672195L182.88432,39.677863627672195L182.9745,39.677863627672195L183.24504000000002,39.677863627672195L183.29012999999998,39.677863627672195L183.60576,39.677863627672195L184.14684,39.70147741503185L184.37229,39.70147741503185L184.50756,39.70147741503185L184.91337,39.70147741503185L184.95846,39.70147741503185L185.229,39.70147741503185L185.27409,39.70147741503185L185.90535,39.70147741503185L186.08571,39.70147741503185L186.17588999999998,39.70147741503185L186.26607,39.70147741503185L186.40134,39.79591046108141L186.53661,39.79591046108141L186.94242,39.79591046108141L187.21295999999998,39.79591046108141L187.30314,39.79591046108141L187.79913,39.79591046108141L187.84422,39.79591046108141L188.11476,39.79591046108141L188.43039,39.79591046108141L189.51254999999998,40.10975648297205L189.64782000000002,40.10975648297205L189.78309000000002,40.10975648297205L189.87327,39.906390567620605L190.82016,39.72996868358719L190.95542999999998,39.72996868358719L191.13579,39.72996868358719L191.18088,39.72996868358719L191.22597000000002,39.72996868358719L191.49651,39.72996868358719L191.63178,39.72996868358719L191.72196,39.72996868358719L192.12777,39.72996868358719L192.30813,39.72996868358719L192.4434,39.72996868358719L192.66885000000002,40.47400559981665L193.02957,40.11109742191103L193.20993,39.930969536304474L193.30011,39.930969536304474L193.39029000000002,39.930969536304474L193.97646,39.930969536304474L194.06664,39.930969536304474L194.20191,39.930969536304474L194.74299,39.930969536304474L194.92335,39.74201503064898L195.14880000000002,39.74201503064898L195.23898,39.74201503064898L195.68988000000002,39.74201503064898L195.78006,39.74201503064898L195.87024000000002,39.74201503064898L196.45641,39.74201503064898L196.72695000000002,39.74201503064898L197.17785,39.74201503064898L197.4033,39.74201503064898L197.71893,39.7526688641972L197.8542,39.7526688641972L197.94438,39.7526688641972L198.84618,39.60415619280604L198.89127,39.60415619280604L198.93635999999998,39.60415619280604L199.16181,39.60415619280604L199.25198999999998,39.60415619280604L199.52253,39.60415619280604L199.70289,39.60415619280604L200.06361,39.60415619280604L200.1087,39.60415619280604L200.33415,39.60415619280604L200.37924,39.60415619280604L200.5596,39.60415619280604L201.05559,39.63542512059212L201.32613,39.63542512059212L201.59667,39.63542512059212L201.73193999999998,39.63542512059212L202.22793000000001,39.63542512059212L202.40829000000002,39.63542512059212L202.58865,39.63542512059212L202.67883,39.63542512059212L202.90428,39.63542512059212L203.08464,39.63542512059212L203.31009,40.65030959910816L203.53554,39.63505673077372L203.7159,39.63505673077372L203.76099,39.63505673077372L203.85117000000002,39.63505673077372L204.25698,39.63505673077372L204.30207000000001,39.63505673077372L204.79806,39.63505673077372L204.88824,39.63505673077372L204.93332999999998,39.63505673077372L205.24896,39.63505673077372L205.33914,39.63505673077372L205.38423,39.63505673077372L205.42932000000002,39.63505673077372L205.47440999999998,39.63505673077372L205.65476999999998,39.63505673077372L205.74495000000002,39.63505673077372L206.73693,40.02835706869762L206.8722,40.02835706869762L207.50346,40.02835706869762L207.72891,40.02835706869762L207.774,40.02835706869762L207.86418,40.02835706869762L208.2249,40.02835706869762L208.45035000000001,40.48960322472784L208.76598,40.00319604410067L210.0285,40.00319604410067L210.34413,40.00319604410067L210.84011999999998,40.00319604410067L211.06557,40.00319604410067L211.47138,40.28244289424685L211.51647,40.28244289424685L211.96737000000002,39.7182907263438L212.01245999999998,39.7182907263438L212.05755,39.7182907263438L212.14773,39.7182907263438L212.23791,39.7182907263438L212.32809,39.7182907263438L212.37318,39.7182907263438L212.41827,39.7182907263438L212.50845,39.7182907263438L213.32007,39.7182907263438L213.54552,39.7182907263438L213.77097,39.7182907263438L213.90624,39.7182907263438L214.04151,39.7182907263438L214.26696,39.7182907263438L214.76295,39.91403097245428L215.16876000000002,39.91403097245428L215.30403,40.17509410116407L215.34912,40.17509410116407L215.75493,40.17509410116407L216.02547,40.17509410116407L216.70182,39.59578637613192L216.74691,39.59578637613192L217.01745,39.59578637613192L217.19781,39.59578637613192L217.33308,39.59578637613192L217.60362,39.59578637613192L217.69379999999998,39.59578637613192L218.09960999999998,39.59578637613192L218.27997,39.59578637613192L218.55051,39.59578637613192L218.77596,39.59578637613192L219.0465,39.67732577853733L219.22686000000002,39.67732577853733L219.45231,39.67732577853733L219.76794,39.67732577853733L219.94830000000002,39.67732577853733L220.35411,39.63358317150011L220.48938,39.63358317150011L221.03046,39.63358317150011L221.34609,39.63358317150011L221.48136,39.63358317150011L221.57154000000003,39.63358317150011L221.61663,39.63358317150011L221.79699,39.63358317150011L221.84208,39.63358317150011L221.88717,39.63358317150011L222.42825000000002,39.63358317150011L222.69879,39.63358317150011L222.74388,39.63358317150011L222.83406,39.63358317150011L223.05951,40.2767328520616L223.1046,40.320269160800514L223.23987,40.065778106451035L223.51041,39.96708647410076L223.69077000000001,39.96708647410076L224.0064,39.8634952571657L224.4573,39.8634952571657L224.72784000000001,39.8634952571657L224.90820000000002,39.8634952571657L225.04347,39.8634952571657L225.40419,39.8634952571657L225.49436999999998,39.8634952571657L226.08053999999998,39.585449357827514L226.2609,39.585449357827514L226.30599,39.585449357827514L227.1627,39.585449357827514L227.20779000000002,39.585449357827514L227.34306,39.585449357827514L227.65869,39.585449357827514L227.74887,39.585449357827514L228.10959,39.585449357827514L228.19977,39.585449357827514L228.24486000000002,39.585449357827514L228.83103,39.957574648989585L228.92121,39.957574648989585L228.96630000000002,39.957574648989585L229.37211000000002,39.957574648989585L229.50738,39.766711884074745L229.59756,39.766711884074745L230.00337,39.766711884074745L230.13863999999998,39.766711884074745L230.22882,39.766711884074745L230.319,39.766711884074745L230.86007999999998,39.766711884074745L231.62661,39.766711884074745L231.85206000000002,39.766711884074745L232.30296,39.948770132329734L232.5735,39.948770132329734L232.88913000000002,39.948770132329734L233.15967,39.948770132329734L233.24985,39.948770132329734L233.43021000000002,39.948770132329734L233.74584000000002,39.948770132329734L233.79093,39.948770132329734L233.83602,39.948770132329734L234.28692,40.16634852687519L235.00836,39.62881620724997L235.23380999999998,39.62881620724997L235.45926,39.62881620724997L235.68471,39.62881620724997L235.7298,39.62881620724997L235.81998,39.62881620724997L235.95524999999998,39.62881620724997L236.40615,39.62881620724997L236.58651,39.62881620724997L236.63160000000002,39.62881620724997L236.90214,39.62881620724997L237.0825,39.707393755515426L237.12759,40.08522172106638L237.48831,40.08522172106638L237.57849,40.08522172106638L237.62358,40.08522172106638L237.66867000000002,40.08522172106638L237.75885,40.08522172106638L237.89412,40.08522172106638L237.93921,40.08522172106638L237.9843,40.08522172106638L238.02939,40.08522172106638L238.20975,40.08522172106638L238.29993,40.08522172106638L238.43519999999998,39.84136239687603L238.48029,39.84136239687603L238.52538,39.84136239687603L238.57047,39.84136239687603L238.66065,39.84136239687603L238.79592,39.84136239687603L238.84100999999998,39.84136239687603L239.11155000000002,39.84136239687603L239.38209,39.84136239687603L239.47227,39.84136239687603L239.60754,39.84136239687603L240.14862,39.84136239687603L240.50934,39.84136239687603L240.55443,39.84136239687603L240.59951999999998,39.84136239687603L240.87006,39.84136239687603L241.18569,40.84887171122762L241.41114000000002,40.84887171122762L241.72677000000002,40.84887171122762L241.90713,40.84887171122762L242.13258000000002,40.84887171122762L242.31294000000003,40.84887171122762L242.58348,40.86155905657345L242.67366,40.86155905657345L242.80893,40.25725239846441L243.12456,40.25725239846441L243.39509999999999,40.25725239846441L243.53037,40.25725239846441L243.62055,40.25725239846441L243.66564,40.25725239846441L243.89109000000002,40.25725239846441" style="fill: none;" fill="none"></path></g></g></g></g></g></g><g transform="translate(60, 178)" clip-path="url(#clip_1)"><clipPath id="clip_1"><rect width="270" height="22"></rect></clipPath><g><g><line x1="0" y1="0" x2="0" y2="5" style="visibility: inherit;" fill="rgb(0, 0, 0)" stroke="rgb(204, 204, 204)" stroke-width="1px"></line><line x1="22.5" y1="0" x2="22.5" y2="5" style="visibility: inherit;" fill="rgb(0, 0, 0)" stroke="rgb(204, 204, 204)" stroke-width="1px"></line><line x1="45" y1="0" x2="45" y2="5" style="visibility: inherit;" fill="rgb(0, 0, 0)" stroke="rgb(204, 204, 204)" stroke-width="1px"></line><line x1="67.5" y1="0" x2="67.5" y2="5" style="visibility: inherit;" fill="rgb(0, 0, 0)" stroke="rgb(204, 204, 204)" stroke-width="1px"></line><line x1="90" y1="0" x2="90" y2="5" style="visibility: inherit;" fill="rgb(0, 0, 0)" stroke="rgb(204, 204, 204)" stroke-width="1px"></line><line x1="112.5" y1="0" x2="112.5" y2="5" style="visibility: inherit;" fill="rgb(0, 0, 0)" stroke="rgb(204, 204, 204)" stroke-width="1px"></line><line x1="135" y1="0" x2="135" y2="5" style="visibility: inherit;" fill="rgb(0, 0, 0)" stroke="rgb(204, 204, 204)" stroke-width="1px"></line><line x1="157.5" y1="0" x2="157.5" y2="5" style="visibility: inherit;" fill="rgb(0, 0, 0)" stroke="rgb(204, 204, 204)" stroke-width="1px"></line><line x1="180" y1="0" x2="180" y2="5" style="visibility: inherit;" fill="rgb(0, 0, 0)" stroke="rgb(204, 204, 204)" stroke-width="1px"></line><line x1="202.5" y1="0" x2="202.5" y2="5" style="visibility: inherit;" fill="rgb(0, 0, 0)" stroke="rgb(204, 204, 204)" stroke-width="1px"></line><line x1="225" y1="0" x2="225" y2="5" style="visibility: inherit;" fill="rgb(0, 0, 0)" stroke="rgb(204, 204, 204)" stroke-width="1px"></line><line x1="247.5" y1="0" x2="247.5" y2="5" style="visibility: inherit;" fill="rgb(0, 0, 0)" stroke="rgb(204, 204, 204)" stroke-width="1px"></line><line x1="270" y1="0" x2="270" y2="5" style="visibility: inherit;" fill="rgb(0, 0, 0)" stroke="rgb(204, 204, 204)" stroke-width="1px"></line></g><g transform="translate(0, 8)"><text x="0" y="0" dx="0em" dy="0.95em" style="text-anchor: middle; visibility: hidden; font-family: Roboto, sans-serif; font-size: 12px; font-weight: 200;" fill="rgb(50, 49, 63)" stroke="none" stroke-width="1px">-500k</text><text x="22.5" y="0" dx="0em" dy="0.95em" style="text-anchor: middle; visibility: inherit; font-family: Roboto, sans-serif; font-size: 12px; font-weight: 200;" fill="rgb(50, 49, 63)" stroke="none" stroke-width="1px">0</text><text x="45" y="0" dx="0em" dy="0.95em" style="text-anchor: middle; visibility: hidden; font-family: Roboto, sans-serif; font-size: 12px; font-weight: 200;" fill="rgb(50, 49, 63)" stroke="none" stroke-width="1px">500k</text><text x="67.5" y="0" dx="0em" dy="0.95em" style="text-anchor: middle; visibility: inherit; font-family: Roboto, sans-serif; font-size: 12px; font-weight: 200;" fill="rgb(50, 49, 63)" stroke="none" stroke-width="1px">1M</text><text x="90" y="0" dx="0em" dy="0.95em" style="text-anchor: middle; visibility: hidden; font-family: Roboto, sans-serif; font-size: 12px; font-weight: 200;" fill="rgb(50, 49, 63)" stroke="none" stroke-width="1px">1.5M</text><text x="112.5" y="0" dx="0em" dy="0.95em" style="text-anchor: middle; visibility: inherit; font-family: Roboto, sans-serif; font-size: 12px; font-weight: 200;" fill="rgb(50, 49, 63)" stroke="none" stroke-width="1px">2M</text><text x="135" y="0" dx="0em" dy="0.95em" style="text-anchor: middle; visibility: hidden; font-family: Roboto, sans-serif; font-size: 12px; font-weight: 200;" fill="rgb(50, 49, 63)" stroke="none" stroke-width="1px">2.5M</text><text x="157.5" y="0" dx="0em" dy="0.95em" style="text-anchor: middle; visibility: inherit; font-family: Roboto, sans-serif; font-size: 12px; font-weight: 200;" fill="rgb(50, 49, 63)" stroke="none" stroke-width="1px">3M</text><text x="180" y="0" dx="0em" dy="0.95em" style="text-anchor: middle; visibility: hidden; font-family: Roboto, sans-serif; font-size: 12px; font-weight: 200;" fill="rgb(50, 49, 63)" stroke="none" stroke-width="1px">3.5M</text><text x="202.5" y="0" dx="0em" dy="0.95em" style="text-anchor: middle; visibility: inherit; font-family: Roboto, sans-serif; font-size: 12px; font-weight: 200;" fill="rgb(50, 49, 63)" stroke="none" stroke-width="1px">4M</text><text x="225" y="0" dx="0em" dy="0.95em" style="text-anchor: middle; visibility: hidden; font-family: Roboto, sans-serif; font-size: 12px; font-weight: 200;" fill="rgb(50, 49, 63)" stroke="none" stroke-width="1px">4.5M</text><text x="247.5" y="0" dx="0em" dy="0.95em" style="text-anchor: middle; visibility: inherit; font-family: Roboto, sans-serif; font-size: 12px; font-weight: 200;" fill="rgb(50, 49, 63)" stroke="none" stroke-width="1px">5M</text><text x="270" y="0" dx="0em" dy="0.95em" style="text-anchor: middle; visibility: hidden; font-family: Roboto, sans-serif; font-size: 12px; font-weight: 200;" fill="rgb(50, 49, 63)" stroke="none" stroke-width="1px">5.5M</text></g><line x1="0" y1="0" x2="270" y2="0" fill="rgb(0, 0, 0)" stroke="rgb(204, 204, 204)" stroke-width="1px"></line></g></g></g></g></svg>