<svg viewBox="0 0 330 200" xmlns="http://www.w3.org/2000/svg"><g><g><g><g><g><line x1="51.5625" y1="178" x2="46.5625" y2="178" style="visibility: inherit;" fill="rgb(0, 0, 0)" stroke="rgb(204, 204, 204)" stroke-width="1px"></line><line x1="51.5625" y1="161.81818181818187" x2="46.5625" y2="161.81818181818187" style="visibility: inherit;" fill="rgb(0, 0, 0)" stroke="rgb(204, 204, 204)" stroke-width="1px"></line><line x1="51.5625" y1="145.63636363636374" x2="46.5625" y2="145.63636363636374" style="visibility: inherit;" fill="rgb(0, 0, 0)" stroke="rgb(204, 204, 204)" stroke-width="1px"></line><line x1="51.5625" y1="129.4545454545456" x2="46.5625" y2="129.4545454545456" style="visibility: inherit;" fill="rgb(0, 0, 0)" stroke="rgb(204, 204, 204)" stroke-width="1px"></line><line x1="51.5625" y1="113.2727272727272" x2="46.5625" y2="113.2727272727272" style="visibility: inherit;" fill="rgb(0, 0, 0)" stroke="rgb(204, 204, 204)" stroke-width="1px"></line><line x1="51.5625" y1="97.09090909090907" x2="46.5625" y2="97.09090909090907" style="visibility: inherit;" fill="rgb(0, 0, 0)" stroke="rgb(204, 204, 204)" stroke-width="1px"></line><line x1="51.5625" y1="80.90909090909093" x2="46.5625" y2="80.90909090909093" style="visibility: inherit;" fill="rgb(0, 0, 0)" stroke="rgb(204, 204, 204)" stroke-width="1px"></line><line x1="51.5625" y1="64.7272727272728" x2="46.5625" y2="64.7272727272728" style="visibility: inherit;" fill="rgb(0, 0, 0)" stroke="rgb(204, 204, 204)" stroke-width="1px"></line><line x1="51.5625" y1="48.54545454545468" x2="46.5625" y2="48.54545454545468" style="visibility: inherit;" fill="rgb(0, 0, 0)" stroke="rgb(204, 204, 204)" stroke-width="1px"></line><line x1="51.5625" y1="32.36363636363625" x2="46.5625" y2="32.36363636363625" style="visibility: inherit;" fill="rgb(0, 0, 0)" stroke="rgb(204, 204, 204)" stroke-width="1px"></line><line x1="51.5625" y1="16.181818181818127" x2="46.5625" y2="16.181818181818127" style="visibility: inherit;" fill="rgb(0, 0, 0)" stroke="rgb(204, 204, 204)" stroke-width="1px"></line><line x1="51.5625" y1="0" x2="46.5625" y2="0" style="visibility: inherit;" fill="rgb(0, 0, 0)" stroke="rgb(204, 204, 204)" stroke-width="1px"></line></g><g transform="translate(41.5625, 0)"><text x="0" y="178" dx="0em" dy="0.3em" style="text-anchor: end; visibility: hidden; font-family: Roboto, sans-serif; font-size: 12px; font-weight: 200;" fill="rgb(50, 49, 63)" stroke="none" stroke-width="1px">7.2</text><text x="0" y="161.81818181818187" dx="0em" dy="0.3em" style="text-anchor: end; visibility: inherit; font-family: Roboto, sans-serif; font-size: 12px; font-weight: 200;" fill="rgb(50, 49, 63)" stroke="none" stroke-width="1px">7.25</text><text x="0" y="145.63636363636374" dx="0em" dy="0.3em" style="text-anchor: end; visibility: hidden; font-family: Roboto, sans-serif; font-size: 12px; font-weight: 200;" fill="rgb(50, 49, 63)" stroke="none" stroke-width="1px">7.3</text><text x="0" y="129.4545454545456" dx="0em" dy="0.3em" style="text-anchor: end; visibility: inherit; font-family: Roboto, sans-serif; font-size: 12px; font-weight: 200;" fill="rgb(50, 49, 63)" stroke="none" stroke-width="1px">7.35</text><text x="0" y="113.2727272727272" dx="0em" dy="0.3em" style="text-anchor: end; visibility: hidden; font-family: Roboto, sans-serif; font-size: 12px; font-weight: 200;" fill="rgb(50, 49, 63)" stroke="none" stroke-width="1px">7.4</text><text x="0" y="97.09090909090907" dx="0em" dy="0.3em" style="text-anchor: end; visibility: inherit; font-family: Roboto, sans-serif; font-size: 12px; font-weight: 200;" fill="rgb(50, 49, 63)" stroke="none" stroke-width="1px">7.45</text><text x="0" y="80.90909090909093" dx="0em" dy="0.3em" style="text-anchor: end; visibility: hidden; font-family: Roboto, sans-serif; font-size: 12px; font-weight: 200;" fill="rgb(50, 49, 63)" stroke="none" stroke-width="1px">7.5</text><text x="0" y="64.7272727272728" dx="0em" dy="0.3em" style="text-anchor: end; visibility: inherit; font-family: Roboto, sans-serif; font-size: 12px; font-weight: 200;" fill="rgb(50, 49, 63)" stroke="none" stroke-width="1px">7.55</text><text x="0" y="48.54545454545468" dx="0em" dy="0.3em" style="text-anchor: end; visibility: hidden; font-family: Roboto, sans-serif; font-size: 12px; font-weight: 200;" fill="rgb(50, 49, 63)" stroke="none" stroke-width="1px">7.6</text><text x="0" y="32.36363636363625" dx="0em" dy="0.3em" style="text-anchor: end; visibility: inherit; font-family: Roboto, sans-serif; font-size: 12px; font-weight: 200;" fill="rgb(50, 49, 63)" stroke="none" stroke-width="1px">7.65</text><text x="0" y="16.181818181818127" dx="0em" dy="0.3em" style="text-anchor: end; visibility: hidden; font-family: Roboto, sans-serif; font-size: 12px; font-weight: 200;" fill="rgb(50, 49, 63)" stroke="none" stroke-width="1px">7.7</text><text x="0" y="0" dx="0em" dy="0.3em" style="text-anchor: end; visibility: hidden; font-family: Roboto, sans-serif; font-size: 12px; font-weight: 200;" fill="rgb(50, 49, 63)" stroke="none" stroke-width="1px">7.75</text></g><line x1="51.5625" y1="0" x2="51.5625" y2="178" fill="rgb(0, 0, 0)" stroke="rgb(204, 204, 204)" stroke-width="1px"></line></g></g><g transform="translate(51, 0)" clip-path="url(#clip_0)"><clipPath id="clip_0"><rect width="278" height="178"></rect></clipPath><g><g><g><line x1="0" y1="0" x2="0" y2="178" fill="rgb(0, 0, 0)" stroke="rgb(60, 60, 60)" stroke-width="1px" opacity="0.25"></line><line x1="23.203125" y1="0" x2="23.203125" y2="178" fill="rgb(0, 0, 0)" stroke="rgb(60, 60, 60)" stroke-width="1px" opacity="0.25"></line><line x1="46.40625" y1="0" x2="46.40625" y2="178" fill="rgb(0, 0, 0)" stroke="rgb(60, 60, 60)" stroke-width="1px" opacity="0.25"></line><line x1="69.609375" y1="0" x2="69.609375" y2="178" fill="rgb(0, 0, 0)" stroke="rgb(60, 60, 60)" stroke-width="1px" opacity="0.25"></line><line x1="92.8125" y1="0" x2="92.8125" y2="178" fill="rgb(0, 0, 0)" stroke="rgb(60, 60, 60)" stroke-width="1px" opacity="0.25"></line><line x1="116.015625" y1="0" x2="116.015625" y2="178" fill="rgb(0, 0, 0)" stroke="rgb(60, 60, 60)" stroke-width="1px" opacity="0.25"></line><line x1="139.21875" y1="0" x2="139.21875" y2="178" fill="rgb(0, 0, 0)" stroke="rgb(60, 60, 60)" stroke-width="1px" opacity="0.25"></line><line x1="162.421875" y1="0" x2="162.421875" y2="178" fill="rgb(0, 0, 0)" stroke="rgb(60, 60, 60)" stroke-width="1px" opacity="0.25"></line><line x1="185.625" y1="0" x2="185.625" y2="178" fill="rgb(0, 0, 0)" stroke="rgb(60, 60, 60)" stroke-width="1px" opacity="0.25"></line><line x1="208.828125" y1="0" x2="208.828125" y2="178" fill="rgb(0, 0, 0)" stroke="rgb(60, 60, 60)" stroke-width="1px" opacity="0.25"></line><line x1="232.03125" y1="0" x2="232.03125" y2="178" fill="rgb(0, 0, 0)" stroke="rgb(60, 60, 60)" stroke-width="1px" opacity="0.25"></line><line x1="255.234375" y1="0" x2="255.234375" y2="178" fill="rgb(0, 0, 0)" stroke="rgb(60, 60, 60)" stroke-width="1px" opacity="0.25"></line><line x1="278.4375" y1="0" x2="278.4375" y2="178" fill="rgb(0, 0, 0)" stroke="rgb(60, 60, 60)" stroke-width="1px" opacity="0.25"></line></g><g><line x1="0" y1="178" x2="278.4375" y2="178" fill="rgb(0, 0, 0)" stroke="rgb(60, 60, 60)" stroke-width="1px" opacity="0.25"></line><line x1="0" y1="161.81818181818187" x2="278.4375" y2="161.81818181818187" fill="rgb(0, 0, 0)" stroke="rgb(60, 60, 60)" stroke-width="1px" opacity="0.25"></line><line x1="0" y1="145.63636363636374" x2="278.4375" y2="145.63636363636374" fill="rgb(0, 0, 0)" stroke="rgb(60, 60, 60)" stroke-width="1px" opacity="0.25"></line><line x1="0" y1="129.4545454545456" x2="278.4375" y2="129.4545454545456" fill="rgb(0, 0, 0)" stroke="rgb(60, 60, 60)" stroke-width="1px" opacity="0.25"></line><line x1="0" y1="113.2727272727272" x2="278.4375" y2="113.2727272727272" fill="rgb(0, 0, 0)" stroke="rgb(60, 60, 60)" stroke-width="1px" opacity="0.25"></line><line x1="0" y1="97.09090909090907" x2="278.4375" y2="97.09090909090907" fill="rgb(0, 0, 0)" stroke="rgb(60, 60, 60)" stroke-width="1px" opacity="0.25"></line><line x1="0" y1="80.90909090909093" x2="278.4375" y2="80.90909090909093" fill="rgb(0, 0, 0)" stroke="rgb(60, 60, 60)" stroke-width="1px" opacity="0.25"></line><line x1="0" y1="64.7272727272728" x2="278.4375" y2="64.7272727272728" fill="rgb(0, 0, 0)" stroke="rgb(60, 60, 60)" stroke-width="1px" opacity="0.25"></line><line x1="0" y1="48.54545454545468" x2="278.4375" y2="48.54545454545468" fill="rgb(0, 0, 0)" stroke="rgb(60, 60, 60)" stroke-width="1px" opacity="0.25"></line><line x1="0" y1="32.36363636363625" x2="278.4375" y2="32.36363636363625" fill="rgb(0, 0, 0)" stroke="rgb(60, 60, 60)" stroke-width="1px" opacity="0.25"></line><line x1="0" y1="16.181818181818127" x2="278.4375" y2="16.181818181818127" fill="rgb(0, 0, 0)" stroke="rgb(60, 60, 60)" stroke-width="1px" opacity="0.25"></line><line x1="0" y1="0" x2="278.4375" y2="0" fill="rgb(0, 0, 0)" stroke="rgb(60, 60, 60)" stroke-width="1px" opacity="0.25"></line></g></g></g><g><g><line x1="0" y1="2508.181818181819" x2="278.4375" y2="2508.181818181819" fill="rgb(0, 0, 0)" stroke="rgb(153, 153, 153)" stroke-width="1.5px"></line></g></g><g><g><line x1="23.203125" y1="0" x2="23.203125" y2="178" fill="rgb(0, 0, 0)" stroke="rgb(153, 153, 153)" stroke-width="1.5px"></line></g></g><g><g><g><g><g><path stroke="rgb(238, 51, 119)" stroke-width="2px" d="M37.01251125,-2.077197334621054L37.198507500000005,5.2281020909794265L37.38450374999999,12.20867030151671L37.477501874999994,20.265053851134684L38.3609840625,27.97855337469961L38.593479375,35.370599124373946L38.6399784375,42.46087194400105L38.87247375,49.26747820992284L39.104969062500004,55.8071041905462L39.1979671875,62.09515259518007L39.5699596875,68.14586366450713L39.61645875,73.97242280659631L39.9419521875,79.58705649074423L40.127948437499995,85.00111786701915L40.54644,90.19903330185966L40.9184325,95.2176625510868L41.662417500000004,100.066121861972L41.84841375,104.75291973197115L42.127408125,109.28600672429816L42.313404375000005,113.67282046259339L42.406402500000006,117.92032634045933L43.010890312499996,118.88211356432497L44.359363125,122.32963294402084L44.4058621875,125.67264578962562L44.4988603125,128.91583149865087L44.7778546875,132.06359420994386L45.196346250000005,135.12008274996234L45.289344375000006,138.0892088693715L45.3358434375,140.97466393852548L45.475340624999994,143.7799342516572L45.754335,146.5083150731747L46.1728265625,149.1629235451039L46.31232375,151.74671056189638L46.3588228125,154.26247170777688L46.8238134375,156.54090417676488L47.6142975,158.70856406605006L47.707295625,160.82131899908978L48.358282499999994,162.88122791216966L48.5907778125,164.89024806571618L48.683775937499995,166.85024124404117L48.823273125,168.76297950691773L49.195265625,170.6301505303221L49.47426,172.45336257019548L49.567258125,174.2341490798736L49.7067553125,175.97397300910512L49.985749687500004,173.64834682072913L50.218245,171.8099558640121L50.683235625,170.0124447261101L50.96223,168.25446572021062L51.241224374999994,166.5347297545817L51.427220625,164.8520031822911L51.706215,163.20510485201441L51.799213125,161.59290334510735L51.8457121875,160.0143143853714L51.9387103125,158.46829840901398L52.0317084375,156.95385828341716L52.0782075,155.47003716414764L52.3107028125,154.01591648054426L52.357201875,152.59061404097005L52.7756934375,151.19328224954168L53.054687812500006,147.67542493065613L53.1476859375,144.22527799088266L53.38018125000001,140.84090684673902L53.6126765625,137.10681489310912L53.7056746875,133.4425838387306L54.2636634375,129.84627310170546L54.589156875,125.6057012169862L54.6356559375,121.44230633565797L54.7286540625,117.35400259111796L54.8216521875,113.33877861199151L54.86815125,109.39469422586508L54.961149375,111.22323345994899L55.519138125000005,113.0199378472323L55.6586353125,114.78563070349438L55.844631562500005,116.5211071969717L55.98412875,118.22713554105464L56.123625937499995,119.90445812684233L56.3096221875,121.55379259906626L56.356121249999994,123.17583287867615L56.542117499999996,124.77125013511628L56.774612812499996,126.34069371119456L56.821111875,127.88479200317785L57.2861025,129.40415329866312L57.47209875,130.89936657453458L57.6115959375,132.37100225722776L57.9835884375,133.30038796669064L58.1695846875,134.21534506189423L58.309081875000004,135.1162065113592L58.3555809375,136.0032951166335L58.402080000000005,136.8769238973975L58.727573437500006,137.73739645921876L59.006567812499995,138.58500734480995L59.099565937499996,139.42004236969336L59.146065,140.2427789430622L59.332061249999995,141.05348637457297L59.5180575,141.85242616781045L59.657554687499996,142.6398523010728L59.70405375,143.41601149614547L59.7505528125,144.18114347561647L59.9365490625,144.93548120933286L60.355040625,145.6792511504941L60.541036875,145.90039830731308L60.5875359375,146.11848992083134L60.634035000000004,146.33358877633506L60.727033125,146.5457559506718L60.7735321875,146.7550508699599L61.052526562500006,146.96153136498629L61.2385228125,147.1652537243897L61.285021875000005,147.3662727457172L61.37802000000001,147.56464178447297L61.471018125,147.760412801253L61.6105153125,147.9536364070229L61.657014374999996,148.14436190666342L61.7035134375,148.33263734082837L61.7500125,148.51850952620595L61.889509687499995,148.70202409425312L62.0755059375,148.88322552846438L62.30800125,149.06215720024986L62.3545003125,149.23886140347022L62.400999375,149.4133793876948L62.67999375,149.58575139023262L63.4704778125,149.0411199019254L63.6564740625,148.50310472148283L63.749472187500004,147.97158627659468L63.9819675,147.44644785895485L65.097945,146.14645478525136L65.190943125,144.86188223255854L65.4234384375,143.59245807282952L65.5164365625,142.33791654357725L65.7024328125,142.78765099866155L65.7954309375,143.2321734618675L66.1674234375,143.67157379556136L66.4464178125,144.10593980811552L66.6324140625,144.53535731225753L66.95790749999999,144.95991018145267L67.050905625,145.37968040436493L67.3299,145.79474813751492L67.422898125,146.20519175617085L67.5623953125,146.6110879035534L67.60889437499999,147.01251153841298L67.7018925,147.40953598106876L68.073885,147.8022329579146L68.1203840625,148.19067264451306L68.25988125,148.57492370727056L68.5853746875,148.73780751238405L68.724871875,147.86115099118723L69.1433634375,144.6627823558555L69.3293596875,141.49818048567911L69.468856875,137.3805983674763L69.5153559375,133.30603748946393L69.9338475,129.53273474267144L69.9803465625,125.79845219112376L70.16634281249999,122.10258951949567L70.21284187500001,118.44455866377753L70.2593409375,114.82378350031345L70.30584,111.23969954429168L70.49183625,108.33856577350731L70.5383353125,105.46653862998238L70.67783250000001,102.62318368266268L70.7243315625,99.80807510306603L71.0963240625,97.02079545340281L71.2823203125,94.26093548091896L71.3753184375,91.52809391826524L71.46831656250001,89.31684186693747L71.514815625,87.12702977659218L71.9333071875,87.70019589109101L72.07280437499999,88.26785747761836L72.444796875,88.83009317310808L72.537795,89.38698012374505L72.72379124999999,89.93859402013274L72.77029031250001,90.48500913145847L73.002785625,91.02629833870166L73.3282790625,91.56253316692461L73.83976875,92.09378381665064L73.932766875,92.6201191943925L74.21176125,93.14160694232517L74.3512584375,93.65831346715004L74.4442565625,94.17030396818325L74.63025281249999,94.67764246466382L74.81624906249999,93.39438093981373L74.9092471875,92.12267554931925L75.1417425,90.8623715214402L75.1882415625,89.61331683592229L75.234740625,88.37536216312661L75.606733125,86.71360511223443L75.8857275,85.1329291117782L76.07172375,83.566117689827L76.1182228125,82.0129900013441L76.16472187500001,80.47336833279635L76.5832134375,78.94707803466402L76.81570875,78.00618550381992L77.466695625,77.07337101793497L77.55969375,76.14853145134788L78.489675,75.23156542627925L78.53617406250001,74.32237327596326L78.72217031250001,73.42085700869828L78.768669375,72.52692027280307L78.8151684375,71.64046832245101L79.6521515625,69.42347547957644L79.884646875,67.22489320594941L80.2101403125,65.80024023089588L80.256639375,64.3873219645174L80.53563375,62.985994713729454L80.62863187500001,61.59611712190944L80.8611271875,60.2175501215967L80.9541253125,58.850156888344856L81.0471234375,57.49380279568268L81.2331196875,56.148355371143396L82.0701028125,54.813684253375236L82.1631009375,53.48966115023204L82.2560990625,52.17615979790084L82.6280915625,52.44549098950898L82.76758875,52.712698468439406L83.13958124999999,52.97780712252198L83.2790784375,53.240841452231535L83.418575625,53.50182557819256L84.02306343750001,53.76078324851026L84.348556875,54.017737845940815L84.62755125,54.272712394883094L84.8135475,54.525729568221536L84.906545625,54.77681169400496L84.9530446875,55.02598076198774L85.2320390625,55.27325842999675L85.69702968749999,54.78446671786217L85.929525,54.299357869992136L85.9760240625,54.09816555925333L86.11552125,53.89847801994805L86.39451562500001,53.700278531916865L86.48751375,53.50355062179357L86.6270109375,53.30827805845836L86.766508125,53.11444484861628L86.9060053125,52.92203523244278L86.95250437499999,52.7310336793507L87.78948749999999,52.54142488382834L88.4869734375,52.35319376138216L89.184459375,51.27111087341812L89.3239565625,50.1968346136837L89.370455625,49.1302813369718L89.46345375,48.07136858874702L89.5099528125,47.02001508403132L90.486433125,45.976140686740074L90.5329321875,44.93966638945951L90.7654275,43.91051429363886L90.9049246875,42.62963302844423L91.0909209375,41.357738371546034L91.1839190625,40.72632302178133L91.3699153125,40.09930741440423L91.5559115625,39.47664603310975L91.7419078125,38.858293987240735L92.90438437499999,38.24420700107274L92.9508834375,37.634341403324804L93.462373125,37.02865411687721L93.834365625,36.42710264869821L93.88086468750001,35.69373107313698L94.02036187499999,34.965333945344824L94.11336,34.24186118486776L94.1598590625,33.52326338121624L94.578350625,32.80949178270351L94.90384406250001,32.67063297185054L95.60133,33.00427730779466L95.6478290625,33.33570269738681L95.78732625,33.664931039128184L96.1128196875,33.99198394432928L96.6708084375,34.316882741805045L96.90330375,34.63964848247372L96.9498028125,34.96030194386456L97.0428009375,35.2788636345486L97.368294375,35.59535379847302L97.6937878125,35.90979241921566L97.740286875,36.22219922415616L98.1587784375,36.53259368857176L98.3447746875,36.0510012260986L98.4377728125,35.572491520136765L98.6237690625,35.09703530244233L99.042260625,34.88721479433589L99.36775406250001,35.66640794051138L99.414253125,36.4406748540272L99.64674843750001,37.21006172091939L100.01874093750001,37.97461415169795L100.4372325,38.73437719029731L100.4837315625,39.48939532283572L100.6697278125,40.23971248623096L100.902223125,40.98537207664371L101.04172031249999,41.726416957777666L101.1347184375,42.46288946901275L101.274215625,43.194831433407984L101.4137128125,43.92228416554078L101.5997090625,44.64528847921182L101.9717015625,45.36588328155247L102.34369406249999,46.08209767165716L102.5296903125,46.79397111530591L102.6691875,47.501542605642776L102.7156865625,48.20485067023019L102.9946809375,48.903933377974965L103.04118,49.59882834593586L103.41317249999999,50.28957274600647L103.59916874999999,50.97620331148023L103.64566781250001,51.65875634350586L103.692166875,52.33726771741581L103.78516499999999,53.01177288895671L103.9246621875,53.682306900403844L104.25015562499999,54.34890438657289L104.29665468750001,55.01159958072326L104.6686471875,55.34792471221717L104.71514625,55.68229210706279L105.13363781250001,55.170332305876336L105.3196340625,54.66133586440804L105.41263218750001,54.155277380384746L105.45913125,53.652131741010606L105.55212937499999,53.15187411886015L105.7846246875,52.65447996782923L105.83112375,52.15992501916968L105.924121875,51.66818527757263L105.97062093749999,51.17923701733994L106.01712,50.69305677859661L106.2496153125,51.05279550185569L106.9006021875,51.41050878965101L107.31909375000001,51.76621352213287L107.598088125,52.11992639242004L107.9235815625,52.47166390917861L107.97008062500001,52.82144239916627L108.3885721875,53.16927800972879L108.71406562499999,53.515186711261336L109.1325571875,53.240117647513586L109.272054375,52.96656426449373L109.5975478125,52.72930661129671L109.6905459375,52.49334936178816L109.87654218750001,52.2586819710925L110.3415328125,52.025294008024545L110.388031875,51.793175153559446L110.52752906250001,51.562315199327L110.760024375,51.33270404613968L110.946020625,51.10433170252605L111.5505084375,51.52477907622173L111.6435065625,51.942969787868705L111.690005625,52.35892174944621L111.96900000000001,52.772652683893554L112.0154990625,53.184180127597855L112.061998125,53.59352143284061L112.15499625,54.00069377020984L112.80598312500001,54.44446163828349L113.64296625,54.88589007721685L113.921960625,55.32499731847545L114.2474540625,55.76180140460405L114.52644843750001,56.19632019166776L114.7124446875,56.62857135165191L114.8054428125,57.05857237483084L114.8984409375,57.48634057209852L115.17743531250001,57.81681095648882L115.3169325,58.14557387546691L115.409930625,58.472642364786964L115.5494278125,58.79802932786551L115.688925,59.12174753745407L115.82842218750001,59.44380963729343L116.24691375,59.09183490362775L116.339911875,58.74165202084899L116.897900625,58.3932475145617L116.9443996875,58.04660804511286L116.99089875,57.701720405906606L117.641885625,57.91451897087977L117.827881875,58.126247301238536L118.013878125,58.336913345402984L118.19987437500001,58.54652497329486L118.2463734375,58.755089977301814L118.38587062500001,58.97121864291277L118.47886875,59.18627329150911L118.57186687500001,59.4002618021477L118.943859375,59.61319197701864L119.03685750000001,59.825071542382965L119.1763546875,60.09185487184293L119.31585187499999,60.357328075784224L119.4553490625,60.62150064936422L119.5483471875,60.884381996223325L119.687844375,61.145981429588325L119.8273415625,61.40630817335048L120.5713265625,61.665371363140736L120.89681999999999,62.47279480681978L121.12931531250001,63.27631737001396L121.175814375,64.07596685464776L121.2223134375,64.87177079913046L121.3153115625,65.66375648147304L121.361810625,66.45195092235738L121.45480875,67.23638088816094L121.547806875,68.0170728939469L121.733803125,68.79405320640404L121.919799375,69.56734784674701L122.15229468749999,70.33698259358009L122.2452928125,71.102982985718L122.57078625,71.86537432496468L122.663784375,72.62418167885943L122.7102834375,73.37942988337954L122.94277875,74.13114354561367L123.128775,74.87934704638458L123.3612703125,75.6240645428498L123.45426843749999,75.4749743039638L123.50076750000001,75.32657562769094L123.96575812500001,75.17886378715176L124.0122571875,75.03183409843656L124.1982534375,74.8854819201172L124.33775062500001,74.73980265276835L124.4772478125,74.59479173849276L124.52374687499999,74.4504446604512L124.6632440625,74.3067569424063L124.70974312499999,74.16372414826235L124.80274125,73.85564577464248L125.0352365625,73.58089719331157L125.081735625,73.30739281113244L125.40722906250001,73.90595169702866L125.453728125,74.50181163430614L125.639724375,75.09499054033549L125.7327225,75.68550617428748L125.825720625,76.2733761388716L126.01171687499999,77.62985986357714L126.4767075,78.98029193645208L126.569705625,80.3247120931332L126.66270374999999,81.66315972224402L126.70920281250001,82.99567386916861L126.89519906250001,84.32229323978622L127.03469625,85.6430562041522L127.40668875,86.95800080013223L127.592685,88.26716473699116L128.243671875,89.57058539893282L128.429668125,90.86829984859428L128.52266625000001,92.16034483049917L128.7551615625,92.24168976684474L128.801660625,92.32268078774224L128.89465875000002,92.40332015762944L128.987656875,92.48361012167133L129.0341559375,92.5635529059669L129.1271540625,92.64315071775192L129.2201521875,92.72240574559717L129.26665125,92.80132015960639L129.5921446875,92.87989611160829L129.731641875,92.95813573535119L129.9641371875,93.03604114669244L130.5221259375,92.44100125544458L130.7081221875,91.8484929462778L130.847619375,91.28586487246807L131.31261,90.72562090317966L131.591604375,90.16774619531456L131.6381034375,89.61222602869314L131.73110156250002,89.05904580478115L131.87059875,88.50819104543437L132.0100959375,87.9596473916653L132.056595,87.41340060241379L132.10309406250002,86.86943655334237L132.5680846875,86.3277412356428L132.61458375,85.78830075485344L132.66108281249998,85.25110132970003L132.7540809375,84.71612929094331L133.31206968749999,84.93685892263662L133.35856875,85.15667690445952L133.4050678125,85.37558876332996L133.451566875,85.59359998159661L133.823559375,85.8107159974889L134.2420509375,86.03895740221863L135.032535,86.671781789757L135.683521875,87.30202262676127L135.86951812499998,87.92969538878253L135.9160171875,88.5548154280731L136.0090153125,89.1773979748077L136.3810078125,89.79745813829716L136.4740059375,90.4150109081833L136.6600021875,91.03007115562441L137.1249928125,91.6426536344587L137.49698531250002,92.25277298236604L137.543484375,92.8604437220007L138.05497406249998,92.3375471456212L138.42696656249998,91.81674125475766L138.70596093749998,91.29801379482288L138.75246,90.78135260677176L138.845458125,90.26674562617468L138.93845625,89.3028320435533L139.1709515625,88.3427366915526L140.05443375,88.62335058653422L140.333428125,88.90285702773403L140.37992718750002,89.18126241908809L140.8449178125,89.45857311527699L140.93791593749998,89.73479542219522L141.07741312500002,90.00993559742243L141.1239121875,90.28399985068287L141.17041125,90.55699434430264L141.635401875,90.82892519366222L141.6819009375,91.09979846764041L141.821398125,91.3696201890573L142.1003925,91.49689806469442L142.33288781250002,91.62368362135169L142.4258859375,91.74997964690752L142.5188840625,91.87578890824236L142.6118821875,92.00111415143414L143.03037375,92.12595810195567L143.21637,92.25032346486482L143.40236625,92.37421292499891L143.49536437499998,92.49762914715768L143.63486156250002,92.62057477629729L144.053353125,92.74305243770817L144.0998521875,92.86506473720107L144.2858484375,92.48737521234139L144.56484281250002,92.1111156868955L144.6578409375,91.73627824211218L145.2158296875,91.06547206302841L145.26232875,90.39719232997511L145.30882781250003,89.73142512940392L145.355326875,89.06815664968528L145.49482406250002,88.40737318017813L145.6808203125,87.7490611103085L145.9598146875,87.09320692865693L146.00631375,86.43979722205788L146.1458109375,85.7888186747078L146.5178034375,85.14025806728496L146.75029875,84.49410227607358L146.8897959375,83.76699171971377L147.029293125,83.04256799969527L147.0757921875,82.32081661136026L147.35478656249998,81.87912830047055L147.44778468750002,81.43906378712104L147.7267790625,81.00061435232769L147.86627625000003,80.5637713393799L148.0057734375,80.7176565235066L148.05227250000002,80.8709797975717L148.23826875,81.02374415736135L149.1217509375,81.17595257741475L149.3077471875,81.3276080112168L149.4007453125,81.47871339138115L149.633240625,81.62927162983563L149.8657359375,82.0864805117869L150.47022375,82.54203939179642L150.65622,82.99595695893468L150.7957171875,83.44824184140882L151.493203125,83.8989026070986L152.0046928125,84.34794776407905L152.051191875,84.79538576114389L152.1906890625,85.24122498832206L152.46968343749998,85.68547377738396L152.795176875,85.97958476547112L152.84167593749999,86.27265001128228L152.888175,86.56467493638837L152.9346740625,86.85566492497647L152.98117312500003,87.14562532416905L153.0276721875,87.43456144434491L153.39966468749998,87.72247855945174L154.469143125,88.01791931184957L154.5156421875,88.31232148707898L154.56214125,88.60569040539886L154.8876346875,88.89803135081902L155.39912437499999,89.18934957140868L155.4921225,89.47965027960052L156.05011125000001,89.76893865249596L156.09661031250002,90.05721983216101L156.2361075,90.3444989259226L156.32910562499998,90.6307810066625L156.3756046875,90.91607111310674L156.46860281250002,91.20037425011284L157.35208500000002,90.87183424756215L157.58458031249998,90.54442724680801L157.72407750000002,90.21814756006229L157.8635746875,89.89298953751347L158.28206625,89.56894756700851L158.3285653125,89.24601607374198L158.60755968750001,88.92418951994367L158.7005578125,88.6034624045722L158.747056875,88.28382926301204L159.02605125000002,87.96528466676996L159.1655484375,87.64782322318032L159.2120475,87.21647240456578L159.4445428125,86.78658377395182L159.5375409375,86.35815012322477L159.6305390625,85.93116429152921L159.77003624999998,85.50561916488199L160.18852781249998,85.0815076757884L160.421023125,84.6588228028637L160.51402124999998,84.23755757045731L160.5605203125,83.81770504828013L160.607019375,83.39925835103882L161.1185090625,83.36915920707555L161.58349968750002,83.33916054001713L161.95549218750003,83.82636614970811L162.74597624999998,84.31195029726041L163.07146968749998,84.79592082194968L163.11796875,85.27828551264601L163.2574659375,85.75905210822188L163.7224565625,86.2382282979494L164.00145093749998,86.71582172189719L164.1874471875,87.19183997132745L164.4199425,87.61693316126858L164.51294062500003,88.04062851646106L164.60593875,88.46293270932493L164.698936875,88.88385236992346L164.791935,89.30339408629979L164.97793125,88.91089425470207L165.02443031250002,88.51967552843392L165.1639275,88.12973184034006L165.442921875,87.65112682707044L165.53592,87.17407706520895L165.6754171875,86.69857522385355L166.0474096875,86.22461401805371L166.1404078125,85.75218620845233L166.18690687499998,85.28128460092857L166.2334059375,84.81190204624683L166.60539843749999,84.34403143970559L167.302884375,83.87352125182412L167.3958825,83.40452224608589L167.48888062499998,82.93702738735958L167.58187875000002,82.47102968406637L167.674876875,82.00652218784359L168.0933684375,81.54349799320966L168.2793646875,81.08195023723518L168.88385250000002,80.62187209921636L169.06984875,80.16325680034828L169.9533309375,79.70609760340635L170.650816875,79.24542056478052L170.6973159375,78.78620200311636L170.9763103125,78.32843523192905L171.022809375,77.87211360549755L171.1158075,77.41723051855173L171.2553046875,76.96377940596773L171.4878,76.51175374246039L171.6272971875,75.93646521118183L171.67379624999998,75.36298003686441L171.76679437500002,74.79129003898566L172.510779375,74.22138708636714L172.8362728125,73.6532630968038L173.0222690625,72.99382100568997L173.3477625,72.33643162624537L173.3942615625,71.68108571633398L173.719755,71.02777408914636L173.85925218749998,70.3764876127904L174.9752296875,69.72721720988041L175.114726875,69.07995385712972L175.4402203125,69.37950108158135L175.5797175,69.67812488947153L175.62621656250002,69.97582939539187L175.7192146875,70.27261868955814L175.76571375,70.56849683798836L176.0912071875,70.86346788268256L176.1842053125,71.15753584180108L176.695695,71.4507047098377L176.92819031250002,71.74297845779593L177.346681875,72.03436103336138L177.43968,72.32485636106867L177.532678125,72.61446834247766L177.71867437499998,72.90320085633583L177.85817156250002,73.19105775874796L178.462659375,73.09685004997512L178.5091584375,73.00292726585272L178.5556575,73.29641926782726L178.834651875,73.58902600820673L179.206644375,73.88075134049879L179.48563875000002,74.17159909591183L179.5321378125,74.4615730835145L179.578636875,74.75067709039499L179.764633125,75.03891488181908L179.9971284375,75.326290201388L180.322621875,75.61280677119476L180.694614375,75.89846829197674L180.880610625,76.18327844326816L181.066606875,76.46724088355612L181.159605,76.75035925042506L181.438599375,76.67872050572011L181.5780965625,76.60729414612643L181.67109468750002,76.53607926415368L181.7640928125,76.46507495746914L181.8570909375,76.39428032885556L181.99658812500002,76.32369448618084L182.2290834375,76.25331654235531L182.7870721875,76.34237946408017L183.0195675,76.43118074751636L183.2520628125,76.51972149963802L184.08904593749998,76.60800282119123L184.2750421875,76.69602580674216L184.414539375,76.78379154471804L184.6470346875,76.87130111744757L184.9260290625,76.95855560120964L184.97252812500003,77.04555606627056L185.158524375,77.13230357692721L185.2515225,77.21879919155198L185.53051687500002,77.19848752900282L185.5770159375,77.17823469657742L185.85601031250002,77.1580404491477L186.18150375,77.16822105698206L186.460498125,77.17837229036948L186.5999953125,77.18849427119977L186.8789896875,77.19858712069274L187.39047937499998,77.2086509593978L187.4834775,77.2186859072039L187.8089709375,77.22869208333908L187.94846812499998,77.23866960637946L188.08796531250002,77.24861859424983L188.1809634375,77.25853916423108L188.41345875000002,77.2684314329628L189.15744375,76.87109678429127L189.250441875,76.47489281679358L189.2969409375,76.0798149084733L189.4829371875,75.6858584624464L189.52943625,75.29301890676754L189.71543250000002,74.90129169426551L189.808430625,74.510672302372L190.08742500000002,74.8268187673484L190.1339240625,75.14207336383728L190.4594175,75.45643970342783L191.01740625000002,75.76992137827162L191.24990156249999,76.08252196121343L191.38939875000003,76.39424500592375L191.8078903125,76.70509404702331L191.854389375,77.01507260021428L192.13338374999998,77.32418416240203L192.17988281249998,77.63243221182555L192.8308696875,77.4078258494066L193.0168659375,77.1838454075235L193.1098640625,76.96048838503116L193.20286218750002,76.73775229406547L193.342359375,76.51563465995493L193.48185656249998,76.29413302113653L193.900348125,75.72870934466728L194.1793425,75.16484997481729L194.272340625,74.59957534889104L194.78383031250002,74.03586086519284L194.83032937500002,73.47370035467503L195.10932375,72.91308768070351L195.4348171875,72.35401673884377L196.5507946875,71.55037289677414L196.690291875,70.74893388179649L196.8297890625,69.94969103227477L196.9227871875,69.15263573178697L197.8992675,68.80686814466601L198.0387646875,68.4620446937112L198.2247609375,68.11816168905693L198.27126,67.77521545999508L198.31775906250002,67.43320235485768L198.59675343749998,67.09211874088564L198.736250625,66.75196100411533L198.82924875,66.41272554924747L199.2477403125,66.07440879953684L199.4337365625,65.73700719666498L199.57323375,65.99198610035809L199.80572906249998,66.24627689289038L200.17772156249998,66.49988222925562L200.3637178125,66.7528047508375L200.4567159375,67.00504708549919L200.5497140625,67.25661184766587L201.15420187499998,67.50750163841381L201.24720000000002,67.75771904555297L201.3866971875,68.00726664371216L201.9446859375,68.25614699442383L202.1306821875,68.50436264620683L202.36317749999998,68.6573573199262L202.45617562500001,68.80994431811794L202.92116625,68.96212519201075L203.014164375,69.11390148499375L203.1071625,69.26527473266081L203.71165031249998,69.4162464628669L203.9906446875,69.83964710691755L204.4556353125,70.26192723045556L204.688130625,70.68309106523756L205.0136240625,71.10314282179166L205.15312125,71.52208668955086L205.246119375,71.93992683698202L206.176100625,72.35666741171906L206.22259968749998,72.7723125406951L206.26909874999998,73.18686633026694L206.5015940625,73.60033286634588L206.59459218749998,73.70653000208014L206.8735865625,73.81244923657724L207.0595828125,73.91809160644344L207.4315753125,74.42736186549837L207.478074375,74.93530389518979L207.7105696875,75.44192263175594L207.75706875,75.94722298707163L207.943065,76.45120984879459L208.4545546875,76.95388808051749L208.7335490625,77.45526252191513L209.0125434375,77.95533798889133L209.15204062499998,78.45411927372545L209.6635303125,78.95161114521456L209.84952656250002,78.61550131139903L210.0355228125,78.28025845876579L210.1285209375,77.94587940426455L210.36101625,77.26917064578855L210.54701250000002,76.59420171086323L210.7795078125,75.92096623497557L211.012003125,75.24945788452891L211.197999375,74.57967035665874L211.2444984375,73.91159737904346L211.33749656249998,73.24523270972215L211.755988125,72.58057013690895L211.8024871875,71.91760347881134L212.313976875,70.83664060415944L212.40697500000002,69.75842990906827L212.4534740625,68.68296143373355L212.77896750000002,68.4555624295268L212.871965625,68.22874052987274L212.9184646875,68.00249365374083L212.96496374999998,67.77681973006626L213.01146281249999,67.55171669768679L213.1974590625,67.81618749403708L213.2904571875,68.07999067876166L214.3134365625,68.34312864504831L214.45293375,68.60560377469415L215.103920625,68.86741843817343L215.33641593750002,69.12857499470525L215.382915,69.38907579232028L215.475913125,69.64892316792827L215.847905625,69.90811944737996L216.08040093749997,69.74599751162549L216.405894375,69.58428094881614L217.707868125,70.0306392467608L218.0333615625,70.47588380058635L218.54485125,71.02378579945908L218.77734656250001,71.57032354142383L219.195838125,72.11550184305014L219.2423371875,72.65932549833347L219.7073278125,73.20179927882971L219.753826875,73.74292793377975L219.8003259375,74.28271619024824L219.8933240625,74.82116875324739L219.9863221875,75.35829030586653L220.07932031250002,75.89408550940102L220.125819375,76.42855900347786L220.1723184375,76.96171540618165L220.2653165625,77.49355931417969L221.1022996875,78.02409530284656L221.334795,78.08030617834022L221.56729031249998,78.1363791022441L221.70678750000002,78.19231455381028L221.8462846875,78.05311074632482L222.07878000000002,77.86287710391908L222.5902696875,77.9492051030407L223.00876125000002,78.03532231549889L223.1482584375,78.12122946942353L223.1947575,78.20692728960636L223.6132490625,78.3402579629326L223.8922434375,78.47326440048028L224.589729375,78.60594771720878L224.63622843750002,78.73830902299004L224.9152228125,78.8703494226354L225.1012190625,79.00207001592742L225.24071625,79.13347189764525L225.51971062500002,79.26455615759821L225.61270875,79.39532388064654L226.0312003125,79.52577614673606L226.2171965625,79.65591403092338L226.4961909375,79.4105165186685L226.72868624999998,79.11631807035049L227.007680625,78.82282650747196L227.19367687500002,78.53003943174986L227.4261721875,78.23795445569824L227.75166562500002,78.42521625313148L227.937661875,78.61202988685497L228.35615343749998,78.79839687062932L228.49565062500002,78.9843187114336L229.053639375,79.1697969094983L229.37913281250002,79.35483295834742L229.51863,79.53942834483561L229.61162812499998,79.72358454918044L229.65812718749999,79.90730304500657L229.8441234375,80.09058529937738L229.8906225,80.2734327728332L229.9371215625,80.45584691942788L230.4951103125,79.86483652572001L230.7741046875,79.27522403400548L230.82060375,78.76395876340437L230.91360187499998,78.25390043149281L231.1460971875,77.74504502388025L231.19259625,77.23738854388812L231.3320934375,76.73092701244909L231.61108781250002,76.22565646801603L231.79708406249998,75.72157296645993L232.1225775,75.7301155852461L232.587568125,75.73863817320304L232.86656250000001,75.74714079645102L233.05255875,75.75562352081967L233.19205593750002,75.76408641185178L233.5640484375,75.77252953480347L233.6570465625,75.78095295464526L234.261534375,75.78935673606559L234.447530625,75.79774094347096L234.49402968750002,75.80610564098701L235.377511875,75.28587739730565L235.42401093750001,74.76685742263673L235.563508125,74.24904177128495L235.8890015625,73.73242651464429L235.9819996875,73.21700774110171L236.3539921875,72.55902510616043L236.4469903125,71.90256349617667L236.493489375,71.2476179705479L237.0979771875,70.59418360995124L237.1909753125,69.94225551622971L237.237474375,69.29182881227658L237.609466875,68.55356157710335L237.65596593749999,67.81699139964412L237.795463125,67.08211280245145L237.88846125,66.348920331518L238.30695281250001,65.4373298407449L238.44645,65.02545909554016L238.539448125,64.61453073190452L238.63244625,64.2045417241715L239.190435,63.79548905955505L239.98091906250002,63.3873697380798L240.21341437499999,63.54886560915649L240.678405,63.70999367002459L240.957399375,63.87075509542723L241.28289281250002,64.03115105513535L241.5618871875,64.1911827139715L241.6548853125,64.35085123183678L241.84088156250002,64.51015776373747L242.16637500000002,64.66910345981042L242.21287406250002,64.8276894653473L242.259373125,64.98591692082303L242.72436375,65.1437869619179L243.46834875000002,65.13372855760821L243.70084406249998,65.1236928326873L243.933339375,65.36837650226828L244.1658346875,65.61250946379084L244.21233375,65.85609345260085L244.305331875,66.09913019679706L244.4448290625,66.34162141726901L244.9098196875,66.58356882773394L245.09581593750002,66.82497413477407L245.142315,67.06583903787507L245.421309375,67.37617130852212L245.607305625,67.68581011944976L245.6538046875,67.99475763798638L246.02579718750002,68.30301602248404L246.1187953125,68.61058742236555L246.165294375,68.917473978169L246.2117934375,69.22367782159635L246.3047915625,69.52920107555519L246.44428875,69.83404585420891L246.4907878125,70.13821426301702L246.537286875,70.44170839878319L246.5837859375,70.74453034969771L246.7697821875,71.0466821953838L246.8627803125,71.34816600693844L247.0022775,71.64898384697952L247.0487765625,71.94913776968745L247.095275625,72.24862982084724L247.1417746875,72.54746203789387L247.2347728125,72.84563644995244L247.37427,73.14315507788255L247.4207690625,73.44001993432L247.69976343750002,73.73623302371547L247.9787578125,74.03179634238207L248.07175593749997,74.38004846443181L248.211253125,74.72753798832666L248.769241875,75.07426724287113L249.141234375,75.42023854744879L249.1877334375,75.76545421207146L249.2342325,76.10991653742683L249.51322687500002,76.45362781492346L249.83872031250002,76.79659032673892L250.071215625,77.13880634586765L250.3967090625,77.48027813616444L250.5827053125,77.82100795239134L250.815200625,78.16099804026433L251.00119687499998,78.11513969285159L251.28019125,78.06938073446811L251.37318937499998,78.0237208651841L251.51268656250002,77.978159786265" style="fill: none;" fill="none"></path></g></g></g></g><g opacity="0.2"><g><g><g><path stroke="rgb(238, 51, 119)" stroke-width="2px" d="M27.247708125000003,-313.2449479536578L27.387205312499997,55.707099220969475L28.08469125,55.707099220969475L28.2241884375,55.707099220969475L28.45668375,55.707099220969475L28.828676249999997,55.707099220969475L29.154169687499998,55.707099220969475L29.5261621875,55.707099220969475L29.665659375,55.707099220969475L29.7121584375,55.707099220969475L30.037651874999998,55.707099220969475L30.270147187499997,-137.39551544189456L30.6421396875,-137.39551544189456L31.246627500000002,140.51297101107517L31.758117187499998,140.51297101107517L31.9906125,140.51297101107517L32.1301096875,140.51297101107517L32.548601250000004,140.51297101107517L32.5951003125,140.51297101107517L33.0600909375,140.51297101107517L33.29258625,140.51297101107517L33.385584375,140.51297101107517L33.4320834375,140.51297101107517L33.6180796875,140.51297101107517L33.990072187500004,-255.9060495549983L42.406402500000006,373.136483972723L43.010890312499996,177.57521369240507L44.359363125,335.9483146667481L49.985749687500004,-20.028506192294042L50.218245,17.026329040527344L50.683235625,17.026329040527344L50.96223,17.026329040527344L51.241224374999994,17.026329040527344L51.427220625,17.026329040527344L51.706215,17.026329040527344L51.799213125,17.026329040527344L51.8457121875,17.026329040527344L51.9387103125,17.026329040527344L52.0317084375,17.026329040527344L52.0782075,17.026329040527344L52.3107028125,17.026329040527344L52.357201875,17.026329040527344L52.7756934375,17.026329040527344L53.054687812500006,-193.2736032659358L60.355040625,244.08592224121102L60.541036875,175.3515902432529L60.5875359375,175.3515902432529L60.634035000000004,175.3515902432529L60.727033125,175.3515902432529L60.7735321875,175.3515902432529L61.052526562500006,175.3515902432529L61.2385228125,175.3515902432529L61.285021875000005,175.3515902432529L61.37802000000001,175.3515902432529L61.471018125,175.3515902432529L61.6105153125,175.3515902432529L61.657014374999996,175.3515902432529L61.7035134375,175.3515902432529L61.7500125,175.3515902432529L61.889509687499995,175.3515902432529L62.0755059375,175.3515902432529L62.30800125,175.3515902432529L62.3545003125,175.3515902432529L62.400999375,175.3515902432529L62.67999375,175.3515902432529L63.4704778125,67.16796528209342L63.6564740625,67.16796528209342L63.749472187500004,67.16796528209342L63.9819675,67.16796528209342L65.097945,-53.68486577814277L68.25988125,213.43791268088606L68.5853746875,176.36841687289157L68.724871875,-1.5765519575639169L82.2560990625,-240.24917255748406L82.6280915625,112.61590264060283L82.76758875,112.61590264060283L83.13958124999999,112.61590264060283L83.2790784375,112.61590264060283L83.418575625,112.61590264060283L84.02306343750001,112.61590264060283L84.348556875,112.61590264060283L84.62755125,112.61590264060283L84.8135475,112.61590264060283L84.906545625,112.61590264060283L84.9530446875,112.61590264060283L85.2320390625,112.61590264060283L85.69702968749999,-58.939215920188225L85.929525,-58.939215920188225L85.9760240625,6.979977000843405L86.11552125,6.979977000843405L86.39451562500001,6.979977000843405L86.48751375,6.979977000843405L86.6270109375,6.979977000843405L86.766508125,6.979977000843405L86.9060053125,6.979977000843405L86.95250437499999,6.979977000843405L87.78948749999999,6.979977000843405L88.4869734375,6.979977000843405L89.184459375,-210.3857352516869L94.90384406250001,-3.298475092107614L95.60133,119.67628132213251L95.6478290625,119.67628132213251L95.78732625,119.67628132213251L96.1128196875,119.67628132213251L96.6708084375,119.67628132213251L96.90330375,119.67628132213251L96.9498028125,119.67628132213251L97.0428009375,119.67628132213251L97.368294375,119.67628132213251L97.6937878125,119.67628132213251L97.740286875,119.67628132213251L98.1587784375,119.67628132213251L98.3447746875,-93.30267819491303L104.29665468750001,247.7908810702238L104.6686471875,153.42369079589847L104.71514625,153.42369079589847L105.13363781250001,-94.84620527787645L106.01712,-94.84620527787645L106.2496153125,158.993166143244L106.9006021875,158.993166143244L107.31909375000001,158.993166143244L107.598088125,158.993166143244L107.9235815625,158.993166143244L107.97008062500001,158.993166143244L108.3885721875,158.993166143244L108.71406562499999,158.993166143244L109.1325571875,-30.827640186656634L114.8984409375,195.25987971912738L115.17743531250001,164.4768385453658L115.3169325,164.4768385453658L115.409930625,164.4768385453658L115.5494278125,164.4768385453658L115.688925,164.4768385453658L115.82842218750001,164.4768385453658L116.24691375,-55.93333504416728L116.99089875,-55.93333504416728L117.641885625,128.17077289928093L117.827881875,128.17077289928093L118.013878125,128.17077289928093L118.19987437500001,128.17077289928093L118.2463734375,128.17077289928093L118.38587062500001,131.04825800115415L118.47886875,131.04825800115415L118.57186687500001,131.04825800115415L118.943859375,131.04825800115415L119.03685750000001,131.04825800115415L119.1763546875,149.9477455832742L119.31585187499999,149.9477455832742L119.4553490625,149.9477455832742L119.5483471875,149.9477455832742L119.687844375,149.9477455832742L119.8273415625,149.9477455832742L120.5713265625,149.9477455832742L120.89681999999999,338.15434542569255L123.3612703125,338.15434542569255L123.45426843749999,22.82080563631926L123.50076750000001,22.82080563631926L123.96575812500001,22.82080563631926L124.0122571875,22.82080563631926L124.1982534375,22.82080563631926L124.33775062500001,22.82080563631926L124.4772478125,22.82080563631926L124.52374687499999,22.82080563631926L124.6632440625,22.82080563631926L124.70974312499999,22.82080563631926L124.80274125,-36.929062930020415L128.52266625000001,572.3346571488815L128.7551615625,122.52367366443984L128.801660625,122.52367366443984L128.89465875000002,122.52367366443984L128.987656875,122.52367366443984L129.0341559375,122.52367366443984L129.1271540625,122.52367366443984L129.2201521875,122.52367366443984L129.26665125,122.52367366443984L129.5921446875,122.52367366443984L129.731641875,122.52367366443984L129.9641371875,122.52367366443984L130.5221259375,-133.1541338833896L132.7540809375,-122.71827350963251L133.31206968749999,170.65928025679162L133.35856875,170.65928025679162L133.4050678125,170.65928025679162L133.451566875,170.65928025679162L133.823559375,170.65928025679162L134.2420509375,175.3741212324663L135.032535,334.7478450428357L141.821398125,201.66793996637523L142.1003925,143.60095110806557L142.33288781250002,143.60095110806557L142.4258859375,143.60095110806557L142.5188840625,143.60095110806557L142.6118821875,143.60095110806557L143.03037375,143.60095110806557L143.21637,143.60095110806557L143.40236625,143.60095110806557L143.49536437499998,143.60095110806557L143.63486156250002,143.60095110806557L144.053353125,143.60095110806557L144.0998521875,143.60095110806557L144.2858484375,-64.78600762107158L147.86627625000003,-106.38361497358846L148.0057734375,146.66084462946117L148.05227250000002,146.66084462946117L148.23826875,146.66084462946117L149.1217509375,146.66084462946117L149.3077471875,146.66084462946117L149.4007453125,146.66084462946117L149.633240625,146.66084462946117L149.8657359375,279.8308736627753L160.607019375,-108.69535619562328L161.1185090625,69.53541668978608L161.58349968750002,69.53541668978608L161.95549218750003,308.27424136075115L177.85817156250002,215.70397463711834L178.462659375,26.40878850763496L178.5091584375,26.40878850763496L178.5556575,219.04241908680316L181.159605,219.04241908680316L181.438599375,40.63834277066318L181.5780965625,40.63834277066318L181.67109468750002,40.63834277066318L181.7640928125,40.63834277066318L181.8570909375,40.63834277066318L181.99658812500002,40.63834277066318L182.2290834375,40.63834277066318L182.7870721875,121.45684675736864L183.0195675,121.45684675736864L183.2520628125,121.45684675736864L184.08904593749998,121.45684675736864L184.2750421875,121.45684675736864L184.414539375,121.45684675736864L184.6470346875,121.45684675736864L184.9260290625,121.45684675736864L184.97252812500003,121.45684675736864L185.158524375,121.45684675736864L185.2515225,121.45684675736864L185.53051687500002,66.80021632801406L185.5770159375,66.80021632801406L185.85601031250002,66.80021632801406L186.18150375,82.39490162242545L186.460498125,82.39490162242545L186.5999953125,82.39490162242545L186.8789896875,82.39490162242545L187.39047937499998,82.39490162242545L187.4834775,82.39490162242545L187.8089709375,82.39490162242545L187.94846812499998,82.39490162242545L188.08796531250002,82.39490162242545L188.1809634375,82.39490162242545L188.41345875000002,82.39490162242545L189.15744375,-129.23065532337537L202.1306821875,203.5264379327948L202.36317749999998,151.9516147266735L202.45617562500001,151.9516147266735L202.92116625,151.9516147266735L203.014164375,151.9516147266735L203.1071625,151.9516147266735L203.71165031249998,151.9516147266735L203.9906446875,301.5018272399903L206.5015940625,301.5018272399903L206.59459218749998,132.2896229137074L206.8735865625,132.2896229137074L207.0595828125,132.2896229137074L207.4315753125,356.0464200106535L221.1022996875,384.2959594726564L221.334795,110.55385416204281L221.56729031249998,110.55385416204281L221.70678750000002,110.55385416204281L221.8462846875,-2.5419894131747087L222.07878000000002,-32.35696965997871L222.5902696875,128.00317937677562L223.00876125000002,128.00317937677562L223.1482584375,128.00317937677562L223.1947575,128.00317937677562L223.6132490625,155.87015498768204L223.8922434375,155.87015498768204L224.589729375,155.87015498768204L224.63622843750002,155.87015498768204L224.9152228125,155.87015498768204L225.1012190625,155.87015498768204L225.24071625,155.87015498768204L225.51971062500002,155.87015498768204L225.61270875,155.87015498768204L226.0312003125,155.87015498768204L226.2171965625,155.87015498768204L226.4961909375,-64.40606724132192L231.79708406249998,-224.84137101606893L232.1225775,80.8271460099654L232.587568125,80.8271460099654L232.86656250000001,80.8271460099654L233.05255875,80.8271460099654L233.19205593750002,80.8271460099654L233.5640484375,80.8271460099654L233.6570465625,80.8271460099654L234.261534375,80.8271460099654L234.447530625,80.8271460099654L234.49402968750002,80.8271460099654L235.377511875,-237.19668648459705L239.98091906250002,-184.97602636163893L240.21341437499999,161.8911760503596L240.678405,161.8911760503596L240.957399375,161.8911760503596L241.28289281250002,161.8911760503596L241.5618871875,161.8911760503596L241.6548853125,161.8911760503596L241.84088156250002,161.8911760503596L242.16637500000002,161.8911760503596L242.21287406250002,161.8911760503596L242.259373125,161.8911760503596L242.72436375,161.8911760503596L243.46834875000002,58.96575927734377L243.70084406249998,58.96575927734377L243.933339375,215.60088764537468L250.815200625,292.29699221524334L251.00119687499998,49.215242212468944L251.28019125,49.215242212468944L251.37318937499998,49.215242212468944L251.51268656250002,49.215242212468944" style="fill: none;" fill="none"></path></g></g></g></g></g></g><g transform="translate(51, 178)" clip-path="url(#clip_1)"><clipPath id="clip_1"><rect width="278" height="22"></rect></clipPath><g><g><line x1="0" y1="0" x2="0" y2="5" style="visibility: inherit;" fill="rgb(0, 0, 0)" stroke="rgb(204, 204, 204)" stroke-width="1px"></line><line x1="23.203125" y1="0" x2="23.203125" y2="5" style="visibility: inherit;" fill="rgb(0, 0, 0)" stroke="rgb(204, 204, 204)" stroke-width="1px"></line><line x1="46.40625" y1="0" x2="46.40625" y2="5" style="visibility: inherit;" fill="rgb(0, 0, 0)" stroke="rgb(204, 204, 204)" stroke-width="1px"></line><line x1="69.609375" y1="0" x2="69.609375" y2="5" style="visibility: inherit;" fill="rgb(0, 0, 0)" stroke="rgb(204, 204, 204)" stroke-width="1px"></line><line x1="92.8125" y1="0" x2="92.8125" y2="5" style="visibility: inherit;" fill="rgb(0, 0, 0)" stroke="rgb(204, 204, 204)" stroke-width="1px"></line><line x1="116.015625" y1="0" x2="116.015625" y2="5" style="visibility: inherit;" fill="rgb(0, 0, 0)" stroke="rgb(204, 204, 204)" stroke-width="1px"></line><line x1="139.21875" y1="0" x2="139.21875" y2="5" style="visibility: inherit;" fill="rgb(0, 0, 0)" stroke="rgb(204, 204, 204)" stroke-width="1px"></line><line x1="162.421875" y1="0" x2="162.421875" y2="5" style="visibility: inherit;" fill="rgb(0, 0, 0)" stroke="rgb(204, 204, 204)" stroke-width="1px"></line><line x1="185.625" y1="0" x2="185.625" y2="5" style="visibility: inherit;" fill="rgb(0, 0, 0)" stroke="rgb(204, 204, 204)" stroke-width="1px"></line><line x1="208.828125" y1="0" x2="208.828125" y2="5" style="visibility: inherit;" fill="rgb(0, 0, 0)" stroke="rgb(204, 204, 204)" stroke-width="1px"></line><line x1="232.03125" y1="0" x2="232.03125" y2="5" style="visibility: inherit;" fill="rgb(0, 0, 0)" stroke="rgb(204, 204, 204)" stroke-width="1px"></line><line x1="255.234375" y1="0" x2="255.234375" y2="5" style="visibility: inherit;" fill="rgb(0, 0, 0)" stroke="rgb(204, 204, 204)" stroke-width="1px"></line><line x1="278.4375" y1="0" x2="278.4375" y2="5" style="visibility: inherit;" fill="rgb(0, 0, 0)" stroke="rgb(204, 204, 204)" stroke-width="1px"></line></g><g transform="translate(0, 8)"><text x="0" y="0" dx="0em" dy="0.95em" style="text-anchor: middle; visibility: hidden; font-family: Roboto, sans-serif; font-size: 12px; font-weight: 200;" fill="rgb(50, 49, 63)" stroke="none" stroke-width="1px">-500k</text><text x="23.203125" y="0" dx="0em" dy="0.95em" style="text-anchor: middle; visibility: inherit; font-family: Roboto, sans-serif; font-size: 12px; font-weight: 200;" fill="rgb(50, 49, 63)" stroke="none" stroke-width="1px">0</text><text x="46.40625" y="0" dx="0em" dy="0.95em" style="text-anchor: middle; visibility: hidden; font-family: Roboto, sans-serif; font-size: 12px; font-weight: 200;" fill="rgb(50, 49, 63)" stroke="none" stroke-width="1px">500k</text><text x="69.609375" y="0" dx="0em" dy="0.95em" style="text-anchor: middle; visibility: inherit; font-family: Roboto, sans-serif; font-size: 12px; font-weight: 200;" fill="rgb(50, 49, 63)" stroke="none" stroke-width="1px">1M</text><text x="92.8125" y="0" dx="0em" dy="0.95em" style="text-anchor: middle; visibility: hidden; font-family: Roboto, sans-serif; font-size: 12px; font-weight: 200;" fill="rgb(50, 49, 63)" stroke="none" stroke-width="1px">1.5M</text><text x="116.015625" y="0" dx="0em" dy="0.95em" style="text-anchor: middle; visibility: inherit; font-family: Roboto, sans-serif; font-size: 12px; font-weight: 200;" fill="rgb(50, 49, 63)" stroke="none" stroke-width="1px">2M</text><text x="139.21875" y="0" dx="0em" dy="0.95em" style="text-anchor: middle; visibility: hidden; font-family: Roboto, sans-serif; font-size: 12px; font-weight: 200;" fill="rgb(50, 49, 63)" stroke="none" stroke-width="1px">2.5M</text><text x="162.421875" y="0" dx="0em" dy="0.95em" style="text-anchor: middle; visibility: inherit; font-family: Roboto, sans-serif; font-size: 12px; font-weight: 200;" fill="rgb(50, 49, 63)" stroke="none" stroke-width="1px">3M</text><text x="185.625" y="0" dx="0em" dy="0.95em" style="text-anchor: middle; visibility: hidden; font-family: Roboto, sans-serif; font-size: 12px; font-weight: 200;" fill="rgb(50, 49, 63)" stroke="none" stroke-width="1px">3.5M</text><text x="208.828125" y="0" dx="0em" dy="0.95em" style="text-anchor: middle; visibility: inherit; font-family: Roboto, sans-serif; font-size: 12px; font-weight: 200;" fill="rgb(50, 49, 63)" stroke="none" stroke-width="1px">4M</text><text x="232.03125" y="0" dx="0em" dy="0.95em" style="text-anchor: middle; visibility: hidden; font-family: Roboto, sans-serif; font-size: 12px; font-weight: 200;" fill="rgb(50, 49, 63)" stroke="none" stroke-width="1px">4.5M</text><text x="255.234375" y="0" dx="0em" dy="0.95em" style="text-anchor: middle; visibility: inherit; font-family: Roboto, sans-serif; font-size: 12px; font-weight: 200;" fill="rgb(50, 49, 63)" stroke="none" stroke-width="1px">5M</text><text x="278.4375" y="0" dx="0em" dy="0.95em" style="text-anchor: middle; visibility: hidden; font-family: Roboto, sans-serif; font-size: 12px; font-weight: 200;" fill="rgb(50, 49, 63)" stroke="none" stroke-width="1px">5.5M</text></g><line x1="0" y1="0" x2="278.4375" y2="0" fill="rgb(0, 0, 0)" stroke="rgb(204, 204, 204)" stroke-width="1px"></line></g></g></g></g></svg>