<svg viewBox="0 0 330 200" xmlns="http://www.w3.org/2000/svg"><g><g><g><g><g><line x1="51.5625" y1="178" x2="46.5625" y2="178" style="visibility: inherit;" fill="rgb(0, 0, 0)" stroke="rgb(204, 204, 204)" stroke-width="1px"></line><line x1="51.5625" y1="160.20000000000002" x2="46.5625" y2="160.20000000000002" style="visibility: inherit;" fill="rgb(0, 0, 0)" stroke="rgb(204, 204, 204)" stroke-width="1px"></line><line x1="51.5625" y1="142.4" x2="46.5625" y2="142.4" style="visibility: inherit;" fill="rgb(0, 0, 0)" stroke="rgb(204, 204, 204)" stroke-width="1px"></line><line x1="51.5625" y1="124.6" x2="46.5625" y2="124.6" style="visibility: inherit;" fill="rgb(0, 0, 0)" stroke="rgb(204, 204, 204)" stroke-width="1px"></line><line x1="51.5625" y1="106.8" x2="46.5625" y2="106.8" style="visibility: inherit;" fill="rgb(0, 0, 0)" stroke="rgb(204, 204, 204)" stroke-width="1px"></line><line x1="51.5625" y1="89" x2="46.5625" y2="89" style="visibility: inherit;" fill="rgb(0, 0, 0)" stroke="rgb(204, 204, 204)" stroke-width="1px"></line><line x1="51.5625" y1="71.2" x2="46.5625" y2="71.2" style="visibility: inherit;" fill="rgb(0, 0, 0)" stroke="rgb(204, 204, 204)" stroke-width="1px"></line><line x1="51.5625" y1="53.400000000000006" x2="46.5625" y2="53.400000000000006" style="visibility: inherit;" fill="rgb(0, 0, 0)" stroke="rgb(204, 204, 204)" stroke-width="1px"></line><line x1="51.5625" y1="35.60000000000001" x2="46.5625" y2="35.60000000000001" style="visibility: inherit;" fill="rgb(0, 0, 0)" stroke="rgb(204, 204, 204)" stroke-width="1px"></line><line x1="51.5625" y1="17.799999999999997" x2="46.5625" y2="17.799999999999997" style="visibility: inherit;" fill="rgb(0, 0, 0)" stroke="rgb(204, 204, 204)" stroke-width="1px"></line><line x1="51.5625" y1="0" x2="46.5625" y2="0" style="visibility: inherit;" fill="rgb(0, 0, 0)" stroke="rgb(204, 204, 204)" stroke-width="1px"></line></g><g transform="translate(41.5625, 0)"><text x="0" y="178" dx="0em" dy="0.3em" style="text-anchor: end; visibility: hidden; font-family: Roboto, sans-serif; font-size: 12px; font-weight: 200;" fill="rgb(50, 49, 63)" stroke="none" stroke-width="1px">-0.2</text><text x="0" y="160.20000000000002" dx="0em" dy="0.3em" style="text-anchor: end; visibility: inherit; font-family: Roboto, sans-serif; font-size: 12px; font-weight: 200;" fill="rgb(50, 49, 63)" stroke="none" stroke-width="1px">0</text><text x="0" y="142.4" dx="0em" dy="0.3em" style="text-anchor: end; visibility: hidden; font-family: Roboto, sans-serif; font-size: 12px; font-weight: 200;" fill="rgb(50, 49, 63)" stroke="none" stroke-width="1px">0.2</text><text x="0" y="124.6" dx="0em" dy="0.3em" style="text-anchor: end; visibility: inherit; font-family: Roboto, sans-serif; font-size: 12px; font-weight: 200;" fill="rgb(50, 49, 63)" stroke="none" stroke-width="1px">0.4</text><text x="0" y="106.8" dx="0em" dy="0.3em" style="text-anchor: end; visibility: hidden; font-family: Roboto, sans-serif; font-size: 12px; font-weight: 200;" fill="rgb(50, 49, 63)" stroke="none" stroke-width="1px">0.6</text><text x="0" y="89" dx="0em" dy="0.3em" style="text-anchor: end; visibility: inherit; font-family: Roboto, sans-serif; font-size: 12px; font-weight: 200;" fill="rgb(50, 49, 63)" stroke="none" stroke-width="1px">0.8</text><text x="0" y="71.2" dx="0em" dy="0.3em" style="text-anchor: end; visibility: hidden; font-family: Roboto, sans-serif; font-size: 12px; font-weight: 200;" fill="rgb(50, 49, 63)" stroke="none" stroke-width="1px">1</text><text x="0" y="53.400000000000006" dx="0em" dy="0.3em" style="text-anchor: end; visibility: inherit; font-family: Roboto, sans-serif; font-size: 12px; font-weight: 200;" fill="rgb(50, 49, 63)" stroke="none" stroke-width="1px">1.2</text><text x="0" y="35.60000000000001" dx="0em" dy="0.3em" style="text-anchor: end; visibility: hidden; font-family: Roboto, sans-serif; font-size: 12px; font-weight: 200;" fill="rgb(50, 49, 63)" stroke="none" stroke-width="1px">1.4</text><text x="0" y="17.799999999999997" dx="0em" dy="0.3em" style="text-anchor: end; visibility: inherit; font-family: Roboto, sans-serif; font-size: 12px; font-weight: 200;" fill="rgb(50, 49, 63)" stroke="none" stroke-width="1px">1.6</text><text x="0" y="0" dx="0em" dy="0.3em" style="text-anchor: end; visibility: hidden; font-family: Roboto, sans-serif; font-size: 12px; font-weight: 200;" fill="rgb(50, 49, 63)" stroke="none" stroke-width="1px">1.8</text></g><line x1="51.5625" y1="0" x2="51.5625" y2="178" fill="rgb(0, 0, 0)" stroke="rgb(204, 204, 204)" stroke-width="1px"></line></g></g><g transform="translate(51, 0)" clip-path="url(#clip_0)"><clipPath id="clip_0"><rect width="278" height="178"></rect></clipPath><g><g><g><line x1="0" y1="0" x2="0" y2="178" fill="rgb(0, 0, 0)" stroke="rgb(60, 60, 60)" stroke-width="1px" opacity="0.25"></line><line x1="23.203125" y1="0" x2="23.203125" y2="178" fill="rgb(0, 0, 0)" stroke="rgb(60, 60, 60)" stroke-width="1px" opacity="0.25"></line><line x1="46.40625" y1="0" x2="46.40625" y2="178" fill="rgb(0, 0, 0)" stroke="rgb(60, 60, 60)" stroke-width="1px" opacity="0.25"></line><line x1="69.609375" y1="0" x2="69.609375" y2="178" fill="rgb(0, 0, 0)" stroke="rgb(60, 60, 60)" stroke-width="1px" opacity="0.25"></line><line x1="92.8125" y1="0" x2="92.8125" y2="178" fill="rgb(0, 0, 0)" stroke="rgb(60, 60, 60)" stroke-width="1px" opacity="0.25"></line><line x1="116.015625" y1="0" x2="116.015625" y2="178" fill="rgb(0, 0, 0)" stroke="rgb(60, 60, 60)" stroke-width="1px" opacity="0.25"></line><line x1="139.21875" y1="0" x2="139.21875" y2="178" fill="rgb(0, 0, 0)" stroke="rgb(60, 60, 60)" stroke-width="1px" opacity="0.25"></line><line x1="162.421875" y1="0" x2="162.421875" y2="178" fill="rgb(0, 0, 0)" stroke="rgb(60, 60, 60)" stroke-width="1px" opacity="0.25"></line><line x1="185.625" y1="0" x2="185.625" y2="178" fill="rgb(0, 0, 0)" stroke="rgb(60, 60, 60)" stroke-width="1px" opacity="0.25"></line><line x1="208.828125" y1="0" x2="208.828125" y2="178" fill="rgb(0, 0, 0)" stroke="rgb(60, 60, 60)" stroke-width="1px" opacity="0.25"></line><line x1="232.03125" y1="0" x2="232.03125" y2="178" fill="rgb(0, 0, 0)" stroke="rgb(60, 60, 60)" stroke-width="1px" opacity="0.25"></line><line x1="255.234375" y1="0" x2="255.234375" y2="178" fill="rgb(0, 0, 0)" stroke="rgb(60, 60, 60)" stroke-width="1px" opacity="0.25"></line><line x1="278.4375" y1="0" x2="278.4375" y2="178" fill="rgb(0, 0, 0)" stroke="rgb(60, 60, 60)" stroke-width="1px" opacity="0.25"></line></g><g><line x1="0" y1="178" x2="278.4375" y2="178" fill="rgb(0, 0, 0)" stroke="rgb(60, 60, 60)" stroke-width="1px" opacity="0.25"></line><line x1="0" y1="160.20000000000002" x2="278.4375" y2="160.20000000000002" fill="rgb(0, 0, 0)" stroke="rgb(60, 60, 60)" stroke-width="1px" opacity="0.25"></line><line x1="0" y1="142.4" x2="278.4375" y2="142.4" fill="rgb(0, 0, 0)" stroke="rgb(60, 60, 60)" stroke-width="1px" opacity="0.25"></line><line x1="0" y1="124.6" x2="278.4375" y2="124.6" fill="rgb(0, 0, 0)" stroke="rgb(60, 60, 60)" stroke-width="1px" opacity="0.25"></line><line x1="0" y1="106.8" x2="278.4375" y2="106.8" fill="rgb(0, 0, 0)" stroke="rgb(60, 60, 60)" stroke-width="1px" opacity="0.25"></line><line x1="0" y1="89" x2="278.4375" y2="89" fill="rgb(0, 0, 0)" stroke="rgb(60, 60, 60)" stroke-width="1px" opacity="0.25"></line><line x1="0" y1="71.2" x2="278.4375" y2="71.2" fill="rgb(0, 0, 0)" stroke="rgb(60, 60, 60)" stroke-width="1px" opacity="0.25"></line><line x1="0" y1="53.400000000000006" x2="278.4375" y2="53.400000000000006" fill="rgb(0, 0, 0)" stroke="rgb(60, 60, 60)" stroke-width="1px" opacity="0.25"></line><line x1="0" y1="35.60000000000001" x2="278.4375" y2="35.60000000000001" fill="rgb(0, 0, 0)" stroke="rgb(60, 60, 60)" stroke-width="1px" opacity="0.25"></line><line x1="0" y1="17.799999999999997" x2="278.4375" y2="17.799999999999997" fill="rgb(0, 0, 0)" stroke="rgb(60, 60, 60)" stroke-width="1px" opacity="0.25"></line><line x1="0" y1="0" x2="278.4375" y2="0" fill="rgb(0, 0, 0)" stroke="rgb(60, 60, 60)" stroke-width="1px" opacity="0.25"></line></g></g></g><g><g><line x1="0" y1="160.20000000000002" x2="278.4375" y2="160.20000000000002" fill="rgb(0, 0, 0)" stroke="rgb(153, 153, 153)" stroke-width="1.5px"></line></g></g><g><g><line x1="23.203125" y1="0" x2="23.203125" y2="178" fill="rgb(0, 0, 0)" stroke="rgb(153, 153, 153)" stroke-width="1.5px"></line></g></g><g><g><g><g><g><path stroke="rgb(238, 51, 119)" stroke-width="2px" d="M23.899775625,53.291639637947085L24.5042634375,37.280582351489585L24.783257812499997,31.07965071120437L25.5272428125,18.585975803293795L25.6202409375,10.758836963419196L25.759738125000002,5.861096370416248L25.852736250000003,2.322741227110085L26.131730625,-0.7565353488477307L32.8740946875,-0.47328647474361496L33.2460871875,0.5875566457707038L33.29258625,1.585991732979479L33.5250815625,2.8001491098331615L34.03657125,3.792298553225143L34.315565625,4.481175529807135L34.5480609375,5.115362138118352L34.687558125,5.5655148145580515L35.245546874999995,6.3953617212118425L35.52454125,7.373523178110977L35.7570365625,8.353029220005196L36.08253,9.60901233344249L36.26852625,10.891421775579897L36.361524375,12.1523688486643L37.2450065625,14.124388968618366L37.477501874999994,16.158338057020867L37.5240009375,18.20106290298237L37.75649625,20.222780867949787L37.9889915625,22.13734978457431L38.0819896875,23.968738035554452L38.453982187499996,25.74158886407565L38.50048125,27.480768888314554L38.8259746875,29.148916636138416L39.0119709375,30.767586034770265L39.430462500000004,32.4015324740304L39.802455,33.86843107800599L40.54644,35.33565995807672L40.73243625,36.77332691664767L41.011430624999996,38.162759189680386L41.197426875,39.52694078602348L41.290425,40.84711208635302L43.243385624999995,42.30072965358674L43.2898846875,43.72503242628464L43.3828828125,45.10955523054343L43.6618771875,46.49218561871856L44.08036875,47.86717640996295L44.173366875,49.20458033333343L44.2198659375,50.49651559484245L44.359363125,51.757048125992135L44.638357500000005,52.92079644928596L45.0568490625,53.99803424501785L45.196346250000005,55.017267255768836L45.2428453125,56.002852011005544L45.7078359375,56.95143002149856L46.49832,57.81519532818234L46.591318125,58.632182712004415L47.242305,59.51040266775891L47.4748003125,60.377288988078945L47.5677984375,61.25163125743438L47.707295625,62.11105062802037L48.079288125,62.993451070959544L48.358282499999994,63.81953449453116L48.451280624999995,64.5864432036663L48.5907778125,65.32756511919804L48.8697721875,66.09734912295089L49.102267499999996,66.85470377509009L49.567258125,67.61205084919744L49.8462525,68.31806008745141L50.125246875,69.02461663451055L50.311243125000004,69.71408746175976L50.5902375,70.40854513576556L50.683235625,71.0810548001396L50.729734687500006,71.74120047480498L50.82273281249999,72.3874951103842L50.915730937499994,73.02955196222138L50.96223,73.65836045891518L51.1947253125,74.31579624487901L51.241224374999994,74.96810919579093L51.659715937499996,75.60657753093562L51.9387103125,76.21482347655997L52.0317084375,76.80782681747465L52.26420375,77.40310515443555L52.4966990625,78.01391729315729L52.5896971875,78.61702291062512L53.1476859375,79.21079632988844L53.473179374999994,79.78725112418239L53.5196784375,80.35748240455968L53.6126765625,80.91489776373925L53.7056746875,81.4623612176579L53.75217375,81.99820524228406L53.845171875,82.55063406646642L54.403160625,83.07564815858046L54.542657812499996,83.59194749265437L54.7286540625,84.11254548250254L54.86815125,84.61729300025789L55.0076484375,85.12028423767002L55.193644687500004,85.612421620638L55.24014375,86.09895543392928L55.426140000000004,86.57608784640767L55.6586353125,87.04625943701039L55.705134375,87.50916570431495L56.170125,87.95631229038165L56.356121249999994,88.38928874041474L56.4956184375,88.80415818407384L56.8676109375,89.21530587596806L57.0536071875,89.6115794318209L57.193104375,90.01652026100969L57.2396034375,90.40953774229538L57.2861025,90.79650047498771L57.6115959375,91.13263851380327L57.8905903125,91.46354223757592L57.9835884375,91.78696423914988L58.0300875,92.07909151661329L58.21608375,92.3445818092687L58.402080000000005,92.60705559476321L58.5415771875,92.8693599993464L58.58807625,93.13053788820955L58.634575312500004,93.39014935039572L58.8205715625,93.64975343203248L59.239063124999994,93.92499802734724L59.425059375,94.2032801673849L59.4715584375,94.48077452268961L59.5180575,94.75447282706546L59.611055625,95.02006244252868L59.657554687499996,95.26637532809166L59.9365490625,95.51472337853875L60.1225453125,95.76305397801757L60.169044375,96.01239523855727L60.2620425,96.26074210777531L60.355040625,96.51134157172018L60.4945378125,96.78912555284816L60.541036875,97.06293118090277L60.5875359375,97.33328373763872L60.634035000000004,97.60207673470877L60.7735321875,97.85157708212235L60.959528437500005,98.13529711076652L61.192023750000004,98.4095826182988L61.2385228125,98.68006373255925L61.285021875000005,98.942699148128L61.564016249999995,99.17428030853165L62.3545003125,99.36016932409217L62.540496562499996,99.55278804452358L62.6334946875,99.74215818709537L62.865990000000004,99.92630853071068L63.9819675,100.12593738765501L64.074965625,100.32597982398372L64.3074609375,100.55187846845241L64.40045906249999,100.76774636559789L64.5864553125,100.98226585558967L64.6794534375,101.19407732211506L65.0514459375,101.40978996835668L65.3304403125,101.60424904109092L65.5164365625,101.7797803430225L65.84193,101.95885732170643L65.934928125,102.13959467136705L66.2139225,102.3240927823658L66.306920625,102.50258905716463L66.4464178125,102.6578250701792L66.492916875,102.810831931519L66.585915,102.94760436499772L66.95790749999999,103.08566444772372L67.0044065625,103.22155241113268L67.14390374999999,103.3616857139493L67.4693971875,103.50201608450065L67.60889437499999,103.65512840774356L68.0273859375,103.82717250488868L68.2133821875,104.01014709470115L68.352879375,104.19636920679517L68.3993784375,104.37960819379215L68.81787,104.54642043709656L68.8643690625,104.71158231102373L69.0503653125,104.87324237917053L69.096864375,105.03555929465878L69.1433634375,105.19741525852139L69.1898625,105.36041194986583L69.37585875,105.54855636856846L69.42235781250001,105.73442993357912L69.561855,105.91996205268543L69.6083540625,106.10345033634067L69.9803465625,106.28758955661277L70.16634281249999,106.46740372079823L70.2593409375,106.64666165975281L70.3523390625,106.82570928115094L70.39883812500001,107.00698891500436L70.8173296875,107.18549788912694L70.95682687499999,107.36260405850473L71.328819375,107.54718855911372L71.42181749999999,107.72900995565391L71.60781374999999,107.91698545755786L71.6543128125,108.10287067077984L71.886808125,108.29027190383002L72.2123015625,108.47600996556982L72.72379124999999,108.66007664824274L72.816789375,108.84255174653013L73.09578375,109.02490967538289L73.23528093750001,109.20735031705962L73.3282790625,109.38736067528858L73.5142753125,109.56952213211335L73.70027156249999,109.73315343456228L73.79326968749999,109.89617852320293L74.025765,110.06101106169332L74.0722640625,110.2245355445091L74.118763125,110.3853082274878L74.490755625,110.54965808025437L74.76975,110.71325238357178L74.95574625,110.87305940050831L75.0022453125,111.02863706362152L75.048744375,111.18223329219735L75.46723593749999,111.33057596112307L75.69973125,111.47675880555025L76.35071812499999,111.61998122508147L76.44371625,111.7592296729332L77.37369749999999,111.85665661728677L77.42019656250001,111.95212103772053L77.6061928125,112.01382822723899L77.652691875,112.07637885836391L77.6991909375,112.13979945196066L78.53617406250001,112.20454740422375L78.768669375,112.2670690696396L79.09416281249999,112.32839900063546L79.140661875,112.3882262176689L79.41965625,112.44914512403183L79.512654375,112.50943946557241L79.74514968749999,112.57049497113398L79.8381478125,112.63259394128457L80.1171421875,112.73227470558363L80.9541253125,112.87279966226107L81.0471234375,113.01013123552376L81.1401215625,113.14736712792246L81.5121140625,113.28699242988824L81.65161124999999,113.42467673996781L82.02360374999999,113.55723956747592L82.1631009375,113.69213618282015L82.30259812499999,113.82370423272386L82.9070859375,113.95378695553892L83.232579375,114.0772882710822L83.51157375,114.17984100183396L83.69757,114.27708519125598L83.790568125,114.37366153305304L83.83706718750001,114.4710789457444L84.11606156250001,114.55169114882123L84.58105218749999,114.6264880886705L84.8135475,114.707052970767L84.86004656249999,114.78754090090526L84.99954375,114.86580022596425L85.278538125,114.94540662448597L85.37153625,115.02493453294834L85.51103343749999,115.0942745031617L85.650530625,115.1593659923605L85.7900278125,115.22063336288473L85.836526875,115.28010265986443L86.67351000000001,115.36512156353493L87.3709959375,115.44994098431532L88.06848187499999,115.52621707732149L88.2079790625,115.61203183983673L88.25447812499999,115.69693665038002L88.34747625,115.78126786196594L88.3939753125,115.86701057327977L89.370455625,115.96460228956278L89.41695468750001,116.0614948825065L89.64945,116.15872945954072L89.7889471875,116.25606602393336L89.97494343749999,116.35250057611033L90.0679415625,116.45047489227733L90.2539378125,116.55252950337857L90.4399340625,116.65439028860877L90.62593031249999,116.75689756640854L91.788406875,116.84693541609771L91.8349059375,116.9370457589826L92.34639562499999,117.0212055385136L92.71838812499999,117.1047690722279L92.76488718750001,117.18718498668765L92.90438437499999,117.26661785486093L92.9973825,117.34280154643592L93.0438815625,117.4185675223983L93.462373125,117.48660693738765L93.7878665625,117.55784503444063L94.4853525,117.5836013629989L94.53185156250001,117.58649418073215L94.67134874999999,117.58890367542405L94.9968421875,117.57161697210961L95.5548309375,117.55174784609721L95.78732625,117.52854643429481L95.8338253125,117.50549833006832L95.92682343749999,117.4898919164275L96.252316875,117.45575484938978L96.57781031249999,117.41886762673481L96.62430937500001,117.38238161749572L97.0428009375,117.37177243077157L97.22879718749999,117.39383862760305L97.3217953125,117.4171425880688L97.5077915625,117.44644043406142L97.926283125,117.48029569354212L98.2517765625,117.49250966358304L98.29827562499999,117.50433609099757L98.53077093750001,117.51207923289195L98.9027634375,117.51667340092735L99.321255,117.51471352083165L99.36775406250001,117.49738315621312L99.5537503125,117.4677637415717L99.78624562499999,117.43750908744246L99.9257428125,117.4090121195193L100.01874093750001,117.38738938074937L100.158238125,117.36486535717162L100.29773531250001,117.34218332632875L100.4837315625,117.31723509664504L100.85572406249999,117.31877862504317L101.22771656249999,117.3411776829757L101.4137128125,117.36129850673277L101.55321,117.37883509949961L101.5997090625,117.39588478497815L101.8787034375,117.41632263095988L101.9252025,117.4359866348776L102.297195,117.50595840083898L102.48319125,117.56705883497236L102.5296903125,117.62677467933447L102.57618937500001,117.68540958583671L102.6691875,117.74535545337254L102.8086846875,117.80403083358446L103.13417812499999,117.86239107353693L103.1806771875,117.92103047036942L103.5526696875,117.96443125549446L103.59916874999999,118.0065029869017L104.0176603125,118.05276248053549L104.2036565625,118.10566163703805L104.29665468750001,118.15986322712035L104.436151875,118.21282109504175L104.6686471875,118.26746810062473L104.71514625,118.32115614021048L104.808144375,118.37468200684276L104.8546434375,118.42721474272656L104.90114249999999,118.4784952302018L105.13363781250001,118.53070580521063L105.7846246875,118.58815907968973L106.20311625000001,118.6601102394591L106.482110625,118.72871045834063L106.80760406249999,118.79597967151996L106.85410312500001,118.86198567562923L107.2725946875,118.9248591626971L107.598088125,118.98874736192447L108.0165796875,119.04770103232185L108.15607687500001,119.1074839255597L108.4815703125,119.16576462716415L108.5745684375,119.22306995942638L108.76056468750001,119.27786153928835L109.2255553125,119.33473581191649L109.272054375,119.3910198113192L109.41155156250001,119.44783770808284L109.644046875,119.50588979934044L109.830043125,119.56160320032653L110.4345309375,119.6157566594219L110.52752906250001,119.67087052675093L110.574028125,119.72424058134982L110.8530225,119.7790757961898L110.89952156250001,119.8337265009973L110.946020625,119.88808387974517L111.03901875,119.94581194447625L111.690005625,120.00222549994254L112.52698875,120.0409540109131L112.80598312500001,120.08075450122008L113.1314765625,120.11472729561429L113.4104709375,120.14474615605593L113.5964671875,120.1741742887417L113.6894653125,120.20375099268718L113.7824634375,120.23208448891734L114.0614578125,120.25498197720195L114.200955,120.272399949202L114.29395312499999,120.28579275721383L114.4334503125,120.29955736802106L114.5729475,120.31560642219753L114.7124446875,120.3357251779907L115.13093624999999,120.37184784000688L115.223934375,120.40563089079964L115.78192312499999,120.45007491386409L115.82842218750001,120.49671958112597L115.87492125,120.54422040091737L116.525908125,120.60078690432157L116.711904375,120.65639593638043L116.897900625,120.71696567100827L117.08389687500001,120.78798041411699L117.1303959375,120.85784193930198L117.269893125,120.92603753737266L117.36289125,120.9946905048525L117.455889375,121.06352878907458L117.827881875,121.1287161989236L117.92088000000001,121.19414796096174L118.0603771875,121.25901089651681L118.19987437500001,121.32290540135028L118.33937156249999,121.38674698338188L118.4323696875,121.44681970913871L118.57186687500001,121.50601351837224L118.7113640625,121.56377108721163L119.4553490625,121.59962375666062L119.78084249999999,121.60221840078147L120.0133378125,121.6057888638754L120.059836875,121.60845373504232L120.1063359375,121.60947775457426L120.1993340625,121.60881429831218L120.24583312499999,121.60892147140157L120.33883125,121.60790694279689L120.43182937499999,121.6060807257719L120.617825625,121.60311868354572L120.803821875,121.60087715740829L121.0363171875,121.59782208806841L121.12931531250001,121.59598545312863L121.45480875,121.58935475059933L121.547806875,121.58377733784963L121.59430593750001,121.57860887608321L121.82680125,121.57297402463873L122.0127975,121.57532579209165L122.2452928125,121.60048918119558L122.33829093749999,121.62675404768154L122.38479,121.66132948604223L122.84978062500001,121.70837829297405L122.8962796875,121.75508197634525L123.0822759375,121.7986694509014L123.221773125,121.8437010089323L123.3612703125,121.88864275337255L123.407769375,121.93337695119486L123.5472665625,121.97600220703995L123.593765625,122.0198938117572L123.68676375000001,122.06385769407805L123.9192590625,122.1079611733652L123.96575812500001,122.14988788256396L124.2912515625,122.1954089796347L124.33775062500001,122.24028162795852L124.52374687499999,122.28544501199423L124.616745,122.33066916758827L124.70974312499999,122.37714661900017L124.89573937499999,122.4243543238717L125.36072999999999,122.4672153659474L125.453728125,122.50954824242964L125.54672624999999,122.55052706421873L125.59322531250001,122.5923910508866L125.7792215625,122.63759523735874L125.91871875,122.68212983477787L126.29071125,122.72603866919826L126.4767075,122.77068180239692L127.127694375,122.80990466791141L127.313690625,122.84862802625756L127.40668875,122.886701415188L127.6391840625,122.9241207565424L127.685683125,122.96243053948456L127.77868125,123.00288923738549L127.871679375,123.04407684612013L127.91817843749999,123.08442351857481L128.0111765625,123.12553074628453L128.1041746875,123.1574688190316L128.15067375,123.1899040107648L128.47616718749998,123.22146323956642L128.615664375,123.25304998196567L128.8481596875,123.28603338036433L129.4061484375,123.32253046111119L129.5921446875,123.36111095812323L129.731641875,123.39781197095463L130.1966325,123.43476831580838L130.475626875,123.46990466249389L130.5221259375,123.50390127081563L130.6151240625,123.53777755422695L130.75462124999999,123.5721744878901L130.8941184375,123.6161515877983L130.9406175,123.65952698374328L130.9871165625,123.70272185554231L131.4521071875,123.74397740451376L131.49860625,123.78505793067444L131.5451053125,123.82637583209622L131.6381034375,123.86592120034872L132.1960921875,123.90422355323564L132.24259125,123.95077048005432L132.2890903125,123.99716819475165L132.335589375,124.041838941622L132.707581875,124.08433112932917L133.1260734375,124.12698985101446L133.9165575,124.16499992692216L134.567544375,124.20472659318969L134.753540625,124.24619240368926L134.8000396875,124.28303615773129L134.8930378125,124.3192369517224L135.2650303125,124.35460342044765L135.3580284375,124.39007395949223L135.5440246875,124.42631339707548L136.0090153125,124.46597121863734L136.3810078125,124.50361325670762L136.427506875,124.54191524666085L136.9389965625,124.58137336695071L137.3109890625,124.61285540961495L137.5899834375,124.648273828887L137.6364825,124.68273223705089L137.729480625,124.71763632296954L137.82247875,124.75232531111733L138.05497406249998,124.78860844264501L138.93845625,124.81906067240604L139.217450625,124.84496180257045L139.2639496875,124.87331667570538L139.7289403125,124.89920283812582L139.82193843750002,124.93157023711355L139.961435625,124.96499322544551L140.0079346875,124.99815398412845L140.05443375,125.03090928485364L140.519424375,125.05836806243441L140.56592343749998,125.0861245781485L140.70542062500002,125.1144201549139L140.98441499999998,125.14571379918368L141.2169103125,125.17715156240736L141.30990843749998,125.20744132449092L141.4029065625,125.23760630153288L141.4959046875,125.26746731690164L141.91439625,125.29854831862211L142.1003925,125.33493298592515L142.28638875,125.37014389912268L142.37938687500002,125.40569379286431L142.5188840625,125.43334445739187L142.93737562500002,125.45225143151686L142.9838746875,125.46988500661426L143.16987093749998,125.48991103636226L143.4488653125,125.50533029741636L143.54186343749998,125.52100011428125L144.0998521875,125.5311634730849L144.14635125,125.54128476333844L144.1928503125,125.55154770637698L144.239349375,125.56090435628009L144.3788465625,125.57120037205658L144.56484281250002,125.58161366971397L144.8438371875,125.59432600242887L144.89033625000002,125.60655627794233L145.0298334375,125.61848969752882L145.4018259375,125.6366594469395L145.63432125,125.66398522546369L145.7738184375,125.69230922383785L145.913315625,125.72380276140927L145.9598146875,125.75539259928487L146.2388090625,125.78284186430382L146.3318071875,125.80854485016803L146.6108015625,125.8363768194758L146.75029875,125.85769894331696L146.8897959375,125.87769888343824L146.936295,125.89790039737628L147.12229125000002,125.91891178706274L148.0057734375,125.92958455945475L148.1917696875,125.93168016231371L148.28476781249998,125.93262464127821L148.517263125,125.93025306357067L148.74975843750002,125.91553388004641L149.35424625,125.90170522767295L149.54024249999998,125.88680067784644L149.67973968750002,125.87032221034221L150.377225625,125.84470765680652L150.8887153125,125.80299248165248L150.93521437500002,125.76064918975904L151.0747115625,125.71854946294285L151.3537059375,125.68463450983664L151.679199375,125.64510380461626L151.72569843749997,125.60569652687627L151.7721975,125.57209126855497L151.8186965625,125.53981497013692L151.865195625,125.50717222530253L151.9116946875,125.47401468318725L152.2836871875,125.42263994022737L153.353165625,125.35286358155408L153.39966468749998,125.2903664202485L153.44616375,125.22851081266349L153.77165718749998,125.17480652635226L154.28314687499997,125.12522230639435L154.376145,125.07920999205578L154.93413375,125.05338778673926L154.9806328125,125.02705370829146L155.12013000000002,125.00790319370698L155.213128125,125.00895993362046L155.2596271875,125.00958184390173L155.3526253125,125.01182183751328L156.2361075,125.0238157957832L156.46860281250002,125.04167886625804L156.6081,125.05630070224512L156.7475971875,125.07212352318108L157.16608875,125.05264016973369L157.21258781249998,125.03312977816087L157.4915821875,125.01473465698751L157.58458031249998,124.99608115130314L157.63107937499998,124.97016011863383L157.91007375,124.94816018595192L158.0495709375,124.92003772867245L158.3285653125,124.89215888484448L158.4215634375,124.86349673766522L158.51456156249998,124.83582666747635L158.65405875000002,124.80779887815807L159.0725503125,124.77497187234079L159.305045625,124.7376027220466L159.39804374999997,124.7082580466518L159.4445428125,124.67866160357032L159.491041875,124.64890555714331L160.0025315625,124.65449319160982L160.4675221875,124.65445445638068L160.8395146875,124.64962971275276L161.62999875,124.6279262939153L161.95549218750003,124.61906542383505L162.00199125,124.6100536198129L162.1414884375,124.60180619442016L162.6064790625,124.58657814288297L162.8854734375,124.56886611878024L163.07146968749998,124.55015093009722L163.303965,124.52707634484597L163.396963125,124.50493251845076L163.48996125,124.4899014110602L163.582959375,124.47543919952153L163.6759575,124.4669378411275L163.86195375,124.45786370072425L163.9084528125,124.44881939883422L164.04795,124.4404413914037L164.326944375,124.43115643148394L164.4199425,124.42145808875314L164.5594396875,124.40583524201864L164.93143218749998,124.37798598461139L165.02443031250002,124.36008482517934L165.070929375,124.34119741401805L165.1174284375,124.32152194369105L165.4894209375,124.30187971110605L166.18690687499998,124.28430162632472L166.279905,124.26758653529657L166.372903125,124.2508067492476L166.46590125,124.23079333124575L166.55889937499998,124.20860535080489L166.9773909375,124.18814164378797L167.1633871875,124.16331851799283L167.767875,124.14293709357402L167.95387125000002,124.12210677542167L168.8373534375,124.11321223641364L169.534839375,124.10363732935103L169.5813384375,124.09471019709358L169.8603328125,124.08776698827637L169.906831875,124.0860169271202L169.99983,124.08146832333223L170.13932718750002,124.07702604555942L170.37182249999998,124.07505516487336L170.51131968750002,124.0744751590829L170.55781875,124.07309500798418L170.650816875,124.07190053435517L171.394801875,124.05550543477055L171.72029531249999,124.03431909403288L171.9062915625,124.00863956357863L172.231785,123.99009080278562L172.2782840625,123.97160010504258L172.60377749999998,123.96112054667627L172.7432746875,123.95214179413941L173.85925218749998,123.95112121980685L173.99874937500002,123.95750821660633L174.32424281250002,123.96562678336397L174.46374,123.98127774386343L174.5102390625,123.99906930811093L174.60323718749999,124.02184130061342L174.64973625,124.04454694606183L174.9752296875,124.05875377405984L175.0682278125,124.07292447153505L175.5797175,124.09044152260745L175.8122128125,124.10867749896246L176.230704375,124.11989325453354L176.3237025,124.12630389558885L176.41670062499998,124.12745935407466L176.602696875,124.1293677548209L176.7421940625,124.12340927262291L177.346681875,124.12018470469809L177.3931809375,124.11479198686926L177.43968,124.10972420115485L177.71867437499998,124.10678197436982L178.09066687499998,124.09366220317224L178.36966125,124.08415786327893L178.41616031249998,124.07464510960149L178.462659375,124.06515943543467L178.648655625,124.0447390084088L178.8811509375,124.03215728685085L179.206644375,124.02988025772444L179.578636875,124.03697073019491L179.764633125,124.02987271945426L179.950629375,124.01379446659257L180.0436275,123.99629495304346L180.322621875,123.97515420942628L180.4621190625,123.96202850865258L180.5551171875,123.94943376773247L180.64811531249998,123.93846584898431L180.74111343750002,123.93150900064629L180.880610625,123.92447045119059L181.1131059375,123.91287043927954L181.67109468750002,123.89925147398274L181.90358999999998,123.87377255892007L182.1360853125,123.8357129275723L182.97306843750002,123.8000236697304L183.1590646875,123.75810518760659L183.29856187500002,123.715382905468L183.53105718749998,123.67488119283584L183.8100515625,123.62942341158158L183.856550625,123.58409585464022L184.042546875,123.53573166625661L184.135545,123.48922172500097L184.414539375,123.42946464058932L184.46103843749998,123.36892446089345L184.7400328125,123.31913408484445L185.06552625,123.26481998142732L185.344520625,123.20002609921215L185.4840178125,123.13519406726515L185.76301218749998,123.09179824229416L186.274501875,123.04004337824615L186.3675,122.99307522615977L186.6929934375,122.943568082816L186.832490625,122.89836545572946L186.9719878125,122.85403985277135L187.06498593749998,122.80930070347748L187.29748125,122.77460887869894L188.04146625,122.74292330657327L188.134464375,122.71150901870418L188.1809634375,122.6841467532594L188.36695968749999,122.65771532291525L188.41345875000002,122.62283091107057L188.599455,122.59050476614922L188.692453125,122.56498676080795L188.9714475,122.53895143229418L189.0179465625,122.5171383770886L189.34344000000002,122.50078340201021L189.90142875,122.4826044330025L190.1339240625,122.47190052866688L190.27342125,122.46722128340635L190.6919128125,122.46664552772371L190.738411875,122.46547077928939L191.01740625000002,122.45807039557306L191.0639053125,122.45074427251703L191.7148921875,122.45228941280394L191.90088843750002,122.45411766395773L191.9938865625,122.4489962621745L192.0868846875,122.44417116700461L192.22638187500002,122.4428726223526L192.3658790625,122.43477044519062L192.784370625,122.42198283526332L193.06336499999998,122.40089893693651L193.156363125,122.37538575000943L193.6678528125,122.34463625300782L193.714351875,122.31397203309578L193.99334625,122.28364583716548L194.31883968749997,122.23334590420728L195.4348171875,122.18686280206305L195.574314375,122.14087773323216L195.7138115625,122.10323926447465L195.8068096875,122.05962067089415L196.78329,122.01876038793361L196.9227871875,121.98298292107843L197.1087834375,121.94894272925798L197.1552825,121.92052443831189L197.2017815625,121.89218509834498L197.4807759375,121.84742730314593L197.62027312499998,121.80158061455427L197.71327125,121.75855093770566L198.1317628125,121.70574006611267L198.31775906250002,121.65291332749128L198.45725625,121.60258826211687L198.68975156250002,121.55385149806862L199.06174406250003,121.5092891677112L199.2477403125,121.46053380182724L199.3407384375,121.4132117457421L199.4337365625,121.37088889666447L200.038224375,121.34296315896697L200.1312225,121.31333947725321L200.2707196875,121.29220121728358L200.8287084375,121.25543259388665L201.0147046875,121.21797550417752L201.24720000000002,121.19356850415193L201.340198125,121.16948766502193L201.80518875,121.125399919927L201.898186875,121.0763594714803L201.991185,121.02613163767411L202.5956728125,120.98874378782233L202.87466718750002,120.9460828258083L203.3396578125,120.90473498115922L203.572153125,120.88778863413651L203.8976465625,120.86517252160228L204.03714374999998,120.842588300017L204.130141875,120.820464834271L205.06012312500002,120.81858005031648L205.1066221875,120.81685219034414L205.15312125,120.81517920878403L205.3856165625,120.80572859342792L205.4786146875,120.78774853691813L205.7576090625,120.76207251392833L205.9436053125,120.73141576942382L206.31559781250002,120.68896297757313L206.36209687500002,120.64131405207925L206.59459218749998,120.59543194391925L206.64109125,120.54984307103162L206.8270875,120.50423759517462L207.3385771875,120.45861636939026L207.61757156250002,120.40513671259285L207.8965659375,120.33577201810014L208.036063125,120.26270687587882L208.54755281250002,120.22138855437065L208.7335490625,120.18929359422802L208.91954531250002,120.15829645018546L209.0125434375,120.13280347240251L209.24503875,120.10732395837549L209.431035,120.08074469248395L209.6635303125,120.05213896573335L209.896025625,120.02797130543003L210.08202187499998,120.00945546380261L210.1285209375,119.99129272642801L210.22151906250002,119.97846196059552L210.640010625,119.98510207685179L210.6865096875,119.99172515848326L211.197999375,120.00067593132923L211.2909975,120.00843093730528L211.33749656249998,120.01570099963159L211.66299,120.0332239539707L211.755988125,120.04990555565887L211.8024871875,120.0662651440149L211.84898625000002,120.08048232866716L211.8954853125,120.09451403900474L212.0814815625,120.11401692259516L212.1744796875,120.13367774186898L213.1974590625,120.14678114853324L213.33695625,120.16126876026279L213.98794312500002,120.1732857197202L214.2204384375,120.18115088793566L214.26693749999998,120.18895061707377L214.359935625,120.19723770128387L214.731928125,120.20765491963881L214.96442343750002,120.21945198381063L215.28991687500002,120.22878571575878L216.59189062500002,120.24581256502914L216.9173840625,120.2738349003555L217.42887375,120.30181173990299L217.6613690625,120.32471279695L218.079860625,120.35236243077523L218.12635968749998,120.37946967263532L218.5913503125,120.40849325558737L218.63784937499997,120.44242571013939L218.6843484375,120.476272697676L218.77734656250001,120.50906170993059L218.8703446875,120.54072520602568L218.9633428125,120.57229305393916L219.00984187499998,120.60262384116012L219.05634093749998,120.63276034723224L219.14933906250002,120.66134931285129L219.9863221875,120.68515158428362L220.2188175,120.70842428112373L220.45131281250002,120.73752076655518L220.59081,120.7666979947789L220.7303071875,120.79527040451256L220.9628025,120.82425731222388L221.4742921875,120.85073220527048L221.89278375,120.87590093128553L222.0322809375,120.90075385147036L222.07878000000002,120.92470416187795L222.49727156249998,120.95156531242013L222.7762659375,120.98050626592914L223.473751875,121.0065048966834L223.5202509375,121.03267947319549L223.7992453125,121.06080340675994L223.9852415625,121.09106772940277L224.12473874999998,121.11696967105283L224.403733125,121.14832696654584L224.49673124999998,121.17894636427066L224.9152228125,121.20594454358749L225.1012190625,121.23238249139276L225.3802134375,121.2591853049845L225.61270875,121.28480254622376L225.891703125,121.31306111189686L226.077699375,121.33670857050491L226.31019468750003,121.36070889931467L226.635688125,121.38410261743346L226.82168437500002,121.40739807657405L227.2401759375,121.43460922169493L227.379673125,121.46145431880146L227.937661875,121.4956592001691L228.2631553125,121.52972741603551L228.4026525,121.55650396636344L228.49565062500002,121.5833750063525L228.5421496875,121.60991940796823L228.7281459375,121.63845772443814L228.774645,121.66692647359564L228.8211440625,121.69543973510216L229.37913281250002,121.7244829212029L229.65812718749999,121.7519540087598L229.70462625,121.77925401788687L229.797624375,121.80505582433395L230.0301196875,121.83067714581648L230.07661875,121.85558652875372L230.2161159375,121.88080590099568L230.4951103125,121.9010359640675L230.68110656250002,121.92013012827324L231.0066,121.93570791225041L231.471590625,121.95302307254568L231.750585,121.96136065722405L231.93658125000002,121.97104084585504L232.0760784375,121.98054238735781L232.4480709375,121.98907577192794L232.5410690625,121.99817821835337L233.14555687499998,122.01019285745465L233.331553125,122.02443862734076L233.3780521875,122.03633474687928L234.261534375,122.0544745976182L234.3080334375,122.0778366045254L234.447530625,122.1022744549702L234.77302406249999,122.12592969565837L234.86602218750002,122.15060760261639L235.2380146875,122.17588958709878L235.3310128125,122.20136779603452L235.377511875,122.22612048731298L235.9819996875,122.24245195288215L236.0749978125,122.25864294208738L236.121496875,122.2752284796839L236.5399884375,122.29005961990431L236.679485625,122.30533056668563L236.77248375,122.32066218080266L237.1909753125,122.33661176112253L237.33047249999998,122.35223715120442L237.42347062500002,122.36810239826421L237.51646875,122.384736492154L238.0744575,122.38910941553706L238.8649415625,122.39884142397024L239.097436875,122.41344706731198L239.5624275,122.4218326972153L239.84142187499998,122.42751027796626L240.1669153125,122.43765909139277L240.4459096875,122.4396756333056L240.5389078125,122.4416631932768L240.7249040625,122.4490500463539L241.0503975,122.46392519228489L241.0968965625,122.47905792180715L241.14339562499998,122.49450818911957L241.60838625,122.50621576795454L242.35237125,122.52448502740386L242.5848665625,122.5432118640727L242.817361875,122.56345459975186L243.0498571875,122.58296492729522L243.09635625,122.60967175886104L243.189354375,122.63692445491876L243.32885156249998,122.66423693876345L243.7938421875,122.68641523628492L243.9798384375,122.70133203520477L244.0263375,122.71830968974591L244.305331875,122.73388626849258L244.491328125,122.75072660231349L244.5378271875,122.7672024792118L244.9098196875,122.78226388042958L245.00281781249998,122.79709430560983L245.049316875,122.81027316840941L245.09581593750002,122.82249749902205L245.1888140625,122.82961612265012L245.32831124999998,122.83729930838186L245.3748103125,122.84424783636102L245.421309375,122.8511852839641L245.4678084375,122.85806589159915L245.6538046875,122.86361516940113L245.7468028125,122.86941084504542L245.88629999999998,122.87388128519713L245.93279906249998,122.87749302596038L245.979298125,122.8810967603056L246.02579718750002,122.8785909965721L246.1187953125,122.88036899585964L246.25829249999998,122.88425847424878L246.3047915625,122.8882782469143L246.5837859375,122.8999838733284L246.8627803125,122.91250613449552L246.95577843750002,122.92454460377569L247.095275625,122.93784342208465L247.65326437500002,122.94938586557096L248.025256875,122.96231853978905L248.07175593749997,122.9755059935603L248.118255,122.98885093327212L248.397249375,122.99788785423942L248.7227428125,123.00861178693091L248.95523812500002,123.01794244961627L249.2807315625,123.02024053316853L249.4667278125,123.02203203301399L249.699223125,123.02394536440929L249.88521937500002,123.02578377115697L250.16421375,123.03087978538836L250.25721187500002,123.03798384531534L250.3967090625,123.04447261403978L250.7222025,123.05555766921269L251.00119687499998,123.06472951870713L251.14069406250002,123.07861067081537L251.2336921875,123.09761311851494L251.28019125,123.11639656219339L251.51268656250002,123.1358503758965" style="fill: none;" fill="none"></path></g></g></g></g><g opacity="0.2"><g><g><g><path stroke="rgb(238, 51, 119)" stroke-width="2px" d="M23.899775625,53.291639637947085L24.5042634375,21.285536122322085L24.783257812499997,18.69638402462006L25.5272428125,-18.820136833190933L28.5961809375,-7.174755859375016L28.921674375,3.874353480339054L29.154169687499998,-2.6561688661575475L29.5261621875,13.057982754707341L30.13065,10.898032498359685L30.6421396875,-8.853474664688125L30.874635,7.116857004165653L31.0141321875,14.564380002021794L31.432623749999998,15.920767736434941L31.479122812499998,13.451981854438786L31.9441134375,21.86857755184174L32.17660875,23.381213259696963L32.269606875,18.92024714946747L32.3161059375,18.59983642101288L32.5021021875,22.18505210876465L32.8740946875,23.767690134048465L33.2460871875,33.980156135559085L33.29258625,33.980156135559085L33.5250815625,43.366959762573245L34.03657125,37.89950079917908L34.315565625,28.82726199626923L34.5480609375,28.139736962318423L34.687558125,22.34183056354523L35.245546874999995,38.120234084129336L35.52454125,45.708217930793765L35.7570365625,47.680558156967166L36.08253,61.24149663448334L36.26852625,64.83867998123169L36.361524375,66.40340895652771L37.2450065625,100.8538696885109L37.477501874999994,107.55391795635224L37.5240009375,111.93987400531769L37.75649625,114.92452646493912L37.9889915625,113.64296842813492L38.0819896875,113.24081583023072L38.453982187499996,113.84488554000855L38.50048125,115.56177778244019L38.8259746875,115.21448225975037L39.0119709375,115.81392882466317L39.430462500000004,119.79700816869736L39.802455,113.71593083143235L40.54644,116.58703376054764L40.73243625,117.7442522764206L41.011430624999996,117.72684453129769L41.197426875,118.92977727651596L41.290425,118.93031836748123L43.243385624999995,129.64297257065775L43.2898846875,130.64316065311434L43.3828828125,130.89875717163088L43.6618771875,133.4597035765648L44.08036875,135.64129216670992L44.173366875,135.8299870312214L44.2198659375,135.38382039666178L44.359363125,135.75746757984163L44.638357500000005,131.55666278004648L45.0568490625,127.79165105223656L45.196346250000005,125.78579766750336L45.2428453125,125.35124592185021L45.7078359375,124.57681478261948L46.49832,120.19549248814583L46.591318125,118.39139176607132L47.242305,124.56162179708481L47.4748003125,125.390814524889L47.5677984375,127.63222284317017L47.707295625,128.1519990682602L48.079288125,131.61406086087229L48.358282499999994,128.8216203570366L48.451280624999995,125.63804004788399L48.5907778125,125.00772477388382L48.8697721875,128.7926003754139L49.102267499999996,129.2325577259064L49.567258125,130.68349314928057L49.8462525,127.76062319874764L50.125246875,129.1596218466759L50.311243125000004,129.02502812147142L50.5902375,130.782496881485L50.683235625,130.16028736233713L50.729734687500006,130.33576263189318L50.82273281249999,130.3409215629101L50.915730937499994,131.18681649565698L50.96223,131.18681649565698L51.1947253125,135.0599376678467L51.241224374999994,135.83031327724458L51.659715937499996,135.75530852079393L51.9387103125,134.06670419573786L52.0317084375,133.74595130681993L52.26420375,135.09719337224962L52.4966990625,137.76453576684L52.5896971875,138.15728293061258L53.1476859375,138.36431653499605L53.473179374999994,137.7338872075081L53.5196784375,138.19085576832296L53.6126765625,137.94879315495493L53.7056746875,137.96889309287073L53.75217375,137.78543673157694L53.845171875,140.55888732969763L54.403160625,138.67455395758154L54.542657812499996,138.7290688723326L54.7286540625,140.17321413457395L54.86815125,139.42099027037622L55.0076484375,140.18116604983808L55.193644687500004,139.92293834388258L55.24014375,140.22343745529653L55.426140000000004,140.0782871514559L55.6586353125,140.18490196466448L55.705134375,140.2368095636368L56.170125,139.2846061706543L56.356121249999994,138.4738237977028L56.4956184375,137.1606305062771L56.8676109375,137.50079105496408L57.0536071875,136.4995738387108L57.193104375,138.28666865527632L57.2396034375,137.60416330099108L57.2861025,137.60416330099108L57.6115959375,132.08760298490526L57.8905903125,132.07101483345033L57.9835884375,131.7597124695778L58.0300875,128.43975601792337L58.21608375,125.62195850610733L58.402080000000005,125.73564596176148L58.5415771875,126.20550654530525L58.58807625,126.55123980045319L58.634575312500004,126.83654062151909L58.8205715625,127.32109288573265L59.239063124999994,129.86422307491304L59.425059375,130.78079138398172L59.4715584375,131.1954819083214L59.5180575,131.20414466857912L59.611055625,130.6198168218136L59.657554687499996,128.49531863331796L59.9365490625,129.23281766176225L60.1225453125,129.69314549565317L60.169044375,130.29559988975527L60.2620425,130.62117485404016L60.355040625,131.39911247491838L60.4945378125,135.70028434395792L60.541036875,135.65199197530748L60.5875359375,135.6676623940468L60.634035000000004,135.94573010206224L60.7735321875,133.65676943659784L60.959528437500005,139.09399361610414L61.192023750000004,138.24069714248182L61.2385228125,138.18964494466783L61.285021875000005,137.53025664091112L61.564016249999995,133.3965338587761L62.3545003125,126.98843069076538L62.540496562499996,128.34506775140764L62.6334946875,128.2097207427025L62.865990000000004,127.76547445058823L63.9819675,130.4743376195431L64.074965625,130.90668521523477L64.3074609375,135.27638996839525L64.40045906249999,134.132828694582L64.5864553125,134.32008330225946L64.6794534375,134.28973181247713L65.0514459375,135.29679758548738L65.3304403125,132.31617943644525L65.5164365625,129.64998288154604L65.84193,130.5424938619137L65.934928125,131.13996173143389L66.2139225,132.08260585069658L66.306920625,131.4425668537617L66.4464178125,127.95647956132889L66.492916875,127.87412233352661L66.585915,125.46584580540657L66.95790749999999,125.93109650611878L67.0044065625,125.8208200454712L67.14390374999999,126.78367550373078L67.4693971875,127.07367904186249L67.60889437499999,129.5010502457619L68.0273859375,133.01167760491373L68.2133821875,135.20058683753015L68.352879375,136.09468395709993L68.3993784375,135.9186065912247L68.81787,133.39599011540415L68.8643690625,133.41215918660166L69.0503653125,133.0987083733082L69.096864375,133.50952373147013L69.1433634375,133.72381962537767L69.1898625,134.2219707787037L69.37585875,139.0176241964102L69.42235781250001,138.9521574944258L69.561855,139.2288592129946L69.6083540625,139.19577707052233L69.9803465625,139.64805882871153L70.16634281249999,139.1913608133793L70.2593409375,139.4158485800028L70.3523390625,139.70258700549604L70.39883812500001,140.44152231216432L70.8173296875,140.25442817509176L70.95682687499999,140.31578364670278L71.328819375,142.04187576174738L71.42181749999999,141.8549964696169L71.60781374999999,143.35054006874563L71.6543128125,143.2930637419224L71.886808125,143.91920147538187L72.2123015625,143.9389751672745L72.72379124999999,143.9526642382145L72.816789375,143.9772772461176L73.09578375,144.28413815498354L73.23528093750001,144.62955444753172L73.3282790625,144.4825872451067L73.5142753125,145.23059643507005L73.70027156249999,141.89808216392996L73.79326968749999,142.0727603852749L74.025765,142.72646723389627L74.0722640625,142.7617243498564L74.118763125,142.50358152091505L74.490755625,143.51391108036043L74.76975,143.65658005774023L74.95574625,143.18119981586935L75.0022453125,142.6056991785765L75.048744375,142.47939820289614L75.46723593749999,141.6752296060324L75.69973125,141.49573726654054L76.35071812499999,141.14469787180425L76.44371625,140.57513199448587L77.37369749999999,132.0952366113663L77.42019656250001,131.85856236219408L77.6061928125,124.92991907596588L77.652691875,125.21840808987618L77.6991909375,125.51464213132859L78.53617406250001,125.91034672856331L78.768669375,125.55083422064781L79.09416281249999,125.4071984410286L79.140661875,125.19357625842095L79.41965625,125.5359780907631L79.512654375,125.50938240885735L79.74514968749999,125.78238136768341L79.8381478125,126.11887629032135L80.1171421875,134.45827899575235L80.9541253125,143.61079023480417L81.0471234375,143.156765845418L81.1401215625,143.37997117340566L81.5121140625,144.15470203459265L81.65161124999999,143.97038894593717L82.02360374999999,143.06975497007372L82.1631009375,143.8289533376694L82.30259812499999,143.31894062161447L82.9070859375,143.21682959496977L83.232579375,141.95539138913156L83.51157375,137.408495259285L83.69757,136.37845168709757L83.790568125,136.39777181744577L83.83706718750001,136.76209844350817L84.11606156250001,133.05943418741228L84.58105218749999,131.85665528178217L84.8135475,133.3278444826603L84.86004656249999,133.45235110521318L84.99954375,133.07383940815927L85.278538125,133.5278651237488L85.37153625,133.6499554038048L85.51103343749999,131.3863650083542L85.650530625,130.502967697382L85.7900278125,129.70956389307977L85.836526875,129.38915846943857L86.67351000000001,135.6005697667599L87.3709959375,135.70245666503908L88.06848187499999,133.7968112051487L88.2079790625,136.23261971473696L88.25447812499999,136.16328845620157L88.34747625,136.17327211499216L88.3939753125,136.66525111794473L89.370455625,139.7108267068863L89.41695468750001,139.7108267068863L89.64945,139.9649365514517L89.7889471875,140.1606510102749L89.97494343749999,140.10821823477747L90.0679415625,140.6592398107052L90.2539378125,141.8462422013283L90.4399340625,141.97657748758795L90.62593031249999,142.31672212183477L91.788406875,139.36504968702795L91.8349059375,139.5407742828131L92.34639562499999,138.1952295869589L92.71838812499999,138.19123771488668L92.76488718750001,138.04559936821462L92.90438437499999,137.42931134700777L92.9973825,136.73751593828203L93.0438815625,136.76334242224695L93.462373125,134.9092146575451L93.7878665625,135.85245291590692L94.4853525,124.21718291640282L94.53185156250001,118.33368865847588L94.67134874999999,118.2130439400673L94.9968421875,113.08098710775376L95.5548309375,112.37558485269547L95.78732625,111.46714617013932L95.8338253125,111.46714617013932L95.92682343749999,113.38967950344086L96.252316875,108.46192164421082L96.57781031249999,107.67333991527558L96.62430937500001,107.7160436630249L97.0428009375,114.55326379537583L97.22879718749999,123.27227629423142L97.3217953125,123.64239312410355L97.5077915625,125.29429609775543L97.926283125,126.5736738562584L98.2517765625,120.78205100893975L98.29827562499999,120.69813151359558L98.53077093750001,119.60880399942398L98.9027634375,118.76404960155487L99.321255,116.98115487098694L99.36775406250001,112.76676179170609L99.5537503125,109.36112995147705L99.78624562499999,109.13507063388825L99.9257428125,109.56826699972153L100.01874093750001,111.42238945960999L100.158238125,111.13494284152985L100.29773531250001,111.05217183828354L100.4837315625,110.38077343702317L100.85572406249999,117.74904517531395L101.22771656249999,123.60116411447525L101.4137128125,122.99905188083649L101.55321,122.30510537028313L101.5997090625,122.19761924147606L101.8787034375,123.18693245649338L101.9252025,123.00219498276711L102.297195,137.36267228126528L102.48319125,134.9499503195286L102.5296903125,134.6584216475487L102.57618937500001,134.450613540411L102.6691875,134.92814223170282L102.8086846875,134.66444526314737L103.13417812499999,134.673781734705L103.1806771875,134.85452468395235L103.5526696875,130.52824513316156L103.59916874999999,130.2154282450676L104.0176603125,131.50973640084268L104.2036565625,133.5315837979317L104.29665468750001,134.00392968654634L104.436151875,133.7307503640652L104.6686471875,134.3189348101616L104.71514625,134.12881029844286L104.808144375,134.17229915857317L104.8546434375,133.9686951160431L104.90114249999999,133.68556396365167L105.13363781250001,134.0502645790577L105.7846246875,135.70642466545107L106.20311625000001,140.14847778975965L106.482110625,139.26435637176039L106.80760406249999,138.98025045990946L106.85410312500001,138.71336264610292L107.2725946875,137.8780295968056L107.598088125,138.29236735105516L108.0165796875,136.901450586319L108.15607687500001,137.25397665500643L108.4815703125,136.8968141794205L108.5745684375,136.69719139933588L108.76056468750001,136.0234933614731L109.2255553125,136.75632415413858L109.272054375,136.6707840383053L109.41155156250001,136.93083129525186L109.644046875,137.4087790668011L109.830043125,136.7817315578461L110.4345309375,136.39109305739404L110.52752906250001,136.78170238137247L110.574028125,136.33042986392977L110.8530225,136.8788706481457L110.89952156250001,136.91353760361673L110.946020625,136.91353760361673L111.03901875,138.06659847199919L111.690005625,137.7490377545357L112.52698875,132.2508373975754L112.80598312500001,132.65581215620043L113.1314765625,130.8717158854008L113.4104709375,129.67026318311693L113.5964671875,129.53230355381967L113.6894653125,129.62926758527757L113.7824634375,129.28069095015528L114.0614578125,127.58310292363167L114.200955,125.85868049860001L114.29395312499999,124.59020943641663L114.4334503125,124.7327975153923L114.5729475,125.49547318816185L114.7124446875,126.84270216226578L115.13093624999999,132.0793460428715L115.223934375,131.37765185236933L115.78192312499999,134.91451947093012L115.82842218750001,135.7087879598141L115.87492125,136.06746495962145L116.525908125,139.12471644282343L116.711904375,138.90412373542787L116.897900625,140.63314808607103L117.08389687500001,144.18622190952303L117.1303959375,143.9228896468878L117.269893125,143.4866854518652L117.36289125,143.75251893401148L117.455889375,143.92873820364477L117.827881875,142.82472696602346L117.92088000000001,143.01507427990438L118.0603771875,142.9334053516388L118.19987437500001,142.71617191731931L118.33937156249999,142.80469599068167L118.4323696875,141.64022977352144L118.57186687500001,141.44321298301222L118.7113640625,141.05547356307508L119.4553490625,133.72270030975344L119.78084249999999,122.48127557039261L120.0133378125,122.81780762672425L120.059836875,122.51482055783272L120.1063359375,121.95843846797943L120.1993340625,121.38228799104691L120.24583312499999,121.64558444619179L120.33883125,121.26017914414406L120.43182937499999,120.97894976735115L120.617825625,120.5839984536171L120.803821875,120.82818962335587L121.0363171875,120.54269517660141L121.12931531250001,120.96046779751778L121.45480875,119.29065046906472L121.547806875,119.64658488035202L121.59430593750001,119.78008846640587L121.82680125,119.60849101543427L122.0127975,122.39675397872925L122.2452928125,130.40593735575678L122.33829093749999,130.8346909403801L122.38479,133.8052060723305L122.84978062500001,138.26373329460623L122.8962796875,138.21921927928926L123.0822759375,137.1924487769604L123.221773125,137.7765697360039L123.3612703125,137.81872974038126L123.407769375,137.81872974038126L123.5472665625,137.13990460038187L123.593765625,137.66253216266634L123.68676375000001,137.76050676107408L123.9192590625,137.8827641427517L123.96575812500001,137.17299867868425L124.2912515625,138.53561956882479L124.33775062500001,138.37644599080087L124.52374687499999,138.55503518581392L124.616745,138.65103904604914L124.70974312499999,139.17946079075338L124.89573937499999,139.5207605481148L125.36072999999999,138.01676107645036L125.453728125,137.8944135129452L125.54672624999999,137.46933881640436L125.59322531250001,137.86003832221033L125.7792215625,139.15207469165327L125.91871875,138.98020802140238L126.29071125,138.82290571630003L126.4767075,139.16497334539892L127.127694375,137.23849190473558L127.313690625,137.11790553927423L127.40668875,136.9404754459858L127.6391840625,136.76004017591478L127.685683125,137.15169985294344L127.77868125,138.01351187825205L127.871679375,138.35099880099298L127.91817843749999,138.10413267910482L128.0111765625,138.45413233041765L128.1041746875,135.08695243000986L128.15067375,135.32535870075228L128.47616718749998,135.04890100359918L128.615664375,135.11051641106607L128.8481596875,135.6883644282818L129.4061484375,137.06880418658258L129.5921446875,137.91609428524973L129.731641875,137.26655436754228L130.1966325,137.42295087575914L130.475626875,136.79100967645647L130.5221259375,136.41397536993028L130.6151240625,136.4231367826462L130.75462124999999,136.67685009241106L130.8941184375,140.39789420068266L130.9406175,140.238438141346L130.9871165625,140.23927497565748L131.4521071875,139.56350806057455L131.49860625,139.56276273429395L131.5451053125,139.72065652608873L131.6381034375,139.10263250470163L132.1960921875,138.68551104962827L132.24259125,141.94226462841036L132.2890903125,141.95940580666067L132.335589375,141.36283710300924L132.707581875,140.5865704983473L133.1260734375,140.71995339989664L133.9165575,138.97296695113184L134.567544375,139.70565318763258L134.753540625,140.45095957517626L134.8000396875,138.7039200782776L134.8930378125,138.51045751273634L135.2650303125,138.2402236878872L135.3580284375,138.33806301355364L135.5440246875,138.69860730767252L136.0090153125,140.10853784978391L136.3810078125,139.37383445799352L136.427506875,139.69597853422167L136.9389965625,140.21666320860388L137.3109890625,137.10659832954408L137.5899834375,138.72550669014456L137.6364825,138.39913202524187L137.729480625,138.63241649866106L137.82247875,138.60218038856985L138.05497406249998,139.29669849276544L138.93845625,137.01386488676073L139.217450625,135.23274992108347L139.2639496875,136.26214630603792L139.7289403125,135.31192956566812L139.82193843750002,137.97069407701494L139.961435625,138.44928373098375L140.0079346875,138.39639872014524L140.05443375,138.284821254015L140.519424375,136.18544666171076L140.56592343749998,136.35033617615701L140.70542062500002,136.61417902708055L140.98441499999998,137.88247768282892L141.2169103125,137.99118391871454L141.30990843749998,137.57146177887918L141.4029065625,137.56851230263712L141.4959046875,137.49174369573595L141.91439625,138.04057968854906L142.1003925,140.27269795238973L142.28638875,139.846742656827L142.37938687500002,140.04255923330786L142.5188840625,136.83411924242975L142.93737562500002,133.25896678566934L142.9838746875,132.76114718317987L143.16987093749998,133.78214870095255L143.4488653125,131.89904869794847L143.54186343749998,132.02776999473573L144.0998521875,129.75735230445864L144.14635125,129.755882871151L144.1928503125,129.8311104297638L144.239349375,129.4679959535599L144.3788465625,129.87653289437296L144.56484281250002,129.94203673005106L144.8438371875,130.92481441497804L144.89033625000002,130.74199993610384L145.0298334375,130.63619543313982L145.4018259375,133.28709821105005L145.63432125,137.18539602756502L145.7738184375,137.65095440745355L145.913315625,139.03882090449335L145.9598146875,139.12932765185835L146.2388090625,137.41961680054666L146.3318071875,136.71978725194933L146.6108015625,137.66738871932031L146.75029875,134.93369637131693L146.8897959375,134.40236095786096L146.936295,134.5200508952141L147.12229125000002,134.8987456083298L148.0057734375,130.49700773954393L148.1917696875,126.82969210743904L148.28476781249998,126.33789346814156L148.517263125,124.91127530932427L148.74975843750002,119.58287407159806L149.35424625,119.944314879179L149.54024249999998,119.45744441151619L149.67973968750002,118.75267342925072L150.377225625,114.76632632017136L150.8887153125,107.73740614652634L150.93521437500002,107.39908106327057L151.0747115625,107.43879820108414L151.3537059375,110.93956656455994L151.679199375,108.43619329929352L151.72569843749997,108.42830504179001L151.7721975,110.90484125614167L151.8186965625,111.43444199562073L151.865195625,111.22331042289734L151.9116946875,110.94627184867859L152.2836871875,102.88434536457062L153.353165625,94.70261497497559L153.39966468749998,97.80262590646744L153.44616375,97.98835272789002L153.77165718749998,101.49435163736344L154.28314687499997,103.23380525112152L154.376145,104.73913623094559L154.93413375,113.6241151213646L154.9806328125,113.35656685829163L155.12013000000002,116.51031554937363L155.213128125,125.47845004200936L155.2596271875,125.28623012900353L155.3526253125,126.00949369072914L156.2361075,130.3724507212639L156.46860281250002,133.017489027977L156.6081,131.59298748970033L156.7475971875,132.15444363355638L157.16608875,116.32111672759056L157.21258781249998,116.2787418782711L157.4915821875,116.7506501197815L157.58458031249998,116.6056616127491L157.63107937499998,113.29654289484024L157.91007375,115.02835227251053L158.0495709375,112.22415895462036L158.3285653125,112.2909942984581L158.4215634375,111.89260281324387L158.51456156249998,112.29877115488053L158.65405875000002,112.09336347579956L159.0725503125,109.86553282737732L159.305045625,107.74484349489212L159.39804374999997,111.34847218990326L159.4445428125,111.18816072940827L159.491041875,111.0694920539856L160.0025315625,127.20748765468598L160.4675221875,124.63673530220986L160.8395146875,122.43997229337693L161.62999875,114.6763566851616L161.95549218750003,120.55134202241898L162.00199125,120.46817581057549L162.1414884375,120.80679265856743L162.6064790625,117.57125700712204L162.8854734375,116.39968366622925L163.07146968749998,115.90822188258171L163.303965,113.85975493192673L163.396963125,114.25601388216019L163.48996125,117.52493272423744L163.582959375,117.7663335621357L163.6759575,120.51855827569962L163.86195375,120.23861001133919L163.9084528125,120.23861001133919L164.04795,120.53592888712883L164.326944375,120.09901649951935L164.4199425,119.89128000736237L164.5594396875,117.09996147155762L164.93143218749998,111.3397510766983L165.02443031250002,115.9697656750679L165.070929375,115.47860361337662L165.1174284375,115.0787214756012L165.4894209375,115.06429768800736L166.18690687499998,116.00817782878876L166.279905,116.38894937634468L166.372903125,116.33282179832459L166.46590125,114.77638424634934L166.55889937499998,113.7152412056923L166.9773909375,114.49947298765183L167.1633871875,112.39761043787003L167.767875,114.47181369066239L167.95387125000002,114.22705490589142L168.8373534375,119.88336787819863L169.534839375,119.54522846341133L169.5813384375,119.8400249004364L169.8603328125,120.77499560713768L169.906831875,123.25010747909546L169.99983,121.90647516846657L170.13932718750002,121.9505608201027L170.37182249999998,123.13059268593788L170.51131968750002,123.79623005986214L170.55781875,123.41028101444245L170.650816875,123.4976380288601L171.394801875,116.16479979157448L171.72029531249999,113.82669533491135L171.9062915625,111.62290610074997L172.231785,115.03408147096634L172.2782840625,115.03408147096634L172.60377749999998,118.89039964675904L172.7432746875,119.60298727154732L173.85925218749998,123.45624722242356L173.99874937500002,127.05783091187477L174.32424281250002,127.91064332127571L174.46374,131.59450466632845L174.5102390625,132.6626871943474L174.60323718749999,135.12234349250795L174.64973625,135.12432218790056L174.9752296875,130.99858314991L175.0682278125,131.00233895778658L175.5797175,132.66514332294466L175.8122128125,133.04458866715433L176.230704375,129.62149603366854L176.3237025,127.27413998246193L176.41670062499998,124.69541449546814L176.602696875,125.06839327216149L176.7421940625,121.18852702975273L177.346681875,122.53027347922325L177.3931809375,121.45312051177025L177.43968,121.60586730837822L177.71867437499998,122.65162108540535L178.09066687499998,117.59829298853874L178.36966125,119.37393603920937L178.41616031249998,119.35546467900276L178.462659375,119.35464243292809L178.648655625,113.8938436627388L178.8811509375,117.77152962684632L179.206644375,122.89569554924965L179.578636875,127.57227579951287L179.764633125,120.48725722432137L179.950629375,115.98110471367836L180.0436275,115.24480457305908L180.322621875,113.3921409368515L180.4621190625,117.38478751182556L180.5551171875,117.63198385834694L180.64811531249998,118.431565117836L180.74111343750002,120.43507642745972L180.880610625,120.38348181247711L181.1131059375,118.07132585048676L181.67109468750002,117.0342534005642L181.90358999999998,111.01784439086914L182.1360853125,104.61309916973114L182.97306843750002,105.7569760799408L183.1590646875,102.54512907266617L183.29856187500002,102.07458151578903L183.53105718749998,103.13895518779755L183.8100515625,100.55821652412415L183.856550625,100.55670465230942L184.042546875,98.94191945791245L184.135545,99.81550551652909L184.414539375,92.98362733125687L184.46103843749998,92.49447048902512L184.7400328125,97.90254737138748L185.06552625,95.51246370077133L185.344520625,90.06129581928253L185.4840178125,89.94534320831299L185.76301218749998,100.85477681159973L186.274501875,96.49447484016419L186.3675,98.87982661724091L186.6929934375,97.50277132987976L186.832490625,99.6476506114006L186.9719878125,100.03295512199402L187.06498593749998,99.7536407828331L187.29748125,104.8799100637436L188.04146625,106.38359655141831L188.134464375,106.47708327770233L188.1809634375,108.53055001497269L188.36695968749999,108.97287596464157L188.41345875000002,104.54468299150467L188.599455,105.8225860118866L188.692453125,109.31626714468003L188.9714475,109.00915027856827L189.0179465625,111.17107392549515L189.34344000000002,113.98590869903565L189.90142875,113.00940926074982L190.1339240625,116.88890151381493L190.27342125,120.02436186075211L190.6919128125,122.165790361166L190.738411875,121.85105843544007L191.01740625000002,118.58402810692787L191.0639053125,118.61209322214127L191.7148921875,123.26262683868408L191.90088843750002,123.41379810571671L191.9938865625,119.75825650691986L192.0868846875,119.90682311058045L192.22638187500002,121.75939921736718L192.3658790625,118.16645706892014L192.784370625,115.67929531335831L193.06336499999998,111.27377511262894L193.156363125,108.89866162538529L193.6678528125,106.08748186826706L193.714351875,106.08748186826706L193.99334625,106.22177852392197L194.31883968749997,95.56904484033585L195.4348171875,97.52409137487412L195.574314375,97.72080976963043L195.7138115625,102.09796513319016L195.8068096875,98.85545099973679L196.78329,100.26287103891373L196.9227871875,102.91672594547272L197.1087834375,103.79263551235199L197.1552825,106.7495862364769L197.2017815625,106.75021220445633L197.4807759375,97.91212255954743L197.62027312499998,97.2626807808876L197.71327125,98.70746792554856L198.1317628125,93.39038450717926L198.31775906250002,93.30460036993027L198.45725625,94.57347459793091L198.68975156250002,95.35528738498688L199.06174406250003,97.53413869142533L199.2477403125,95.20699663162232L199.3407384375,95.90968282222748L199.4337365625,98.54213811159134L200.038224375,106.26711345911026L200.1312225,105.30724461078644L200.2707196875,109.86120409965515L200.8287084375,101.3551108956337L201.0147046875,100.92788774967194L201.24720000000002,107.96140719652176L201.340198125,108.10315181016922L201.80518875,97.18313510417939L201.898186875,94.4221229672432L201.991185,93.70365495681763L202.5956728125,100.63383133411408L202.87466718750002,97.70095915794373L203.3396578125,98.3563264131546L203.572153125,111.63867200613022L203.8976465625,108.51131476163864L204.03714374999998,108.49592549800873L204.130141875,108.71568800210953L205.06012312500002,119.78647546172142L205.1066221875,119.86989895701409L205.15312125,119.89754764437676L205.3856165625,115.61780191659928L205.4786146875,110.90948296785355L205.7576090625,106.64408941268921L205.9436053125,103.86100925207138L206.31559781250002,97.30814303159714L206.36209687500002,94.37737156152726L206.59459218749998,95.28480763435364L206.64109125,95.38058604001999L206.8270875,95.30543274879456L207.3385771875,95.23074097633362L207.61757156250002,90.80781037807465L207.8965659375,81.91625882387162L208.036063125,79.76107759475708L208.54755281250002,97.29935295581818L208.7335490625,102.36981559991837L208.91954531250002,102.93458194732666L209.0125434375,105.95620365142823L209.24503875,105.92692638635636L209.431035,105.27652974128723L209.6635303125,104.10657436847687L209.896025625,106.54562677145005L210.08202187499998,109.67190713882447L210.1285209375,109.84288127422333L210.22151906250002,112.80363554954529L210.640010625,123.70110414624214L210.6865096875,123.70110414624214L211.197999375,125.01765007972718L211.2909975,124.35856945514679L211.33749656249998,124.09699706435204L211.66299,129.87799702286722L211.755988125,129.4292814254761L211.8024871875,129.271731120348L211.84898625000002,128.08663050532343L211.8954853125,128.00233171582224L212.0814815625,131.1137029051781L212.1744796875,131.23099232912065L213.1974590625,127.54853675961495L213.33695625,128.35121337771417L213.98794312500002,126.97176561951638L214.2204384375,124.63420225381851L214.26693749999998,124.60832802653313L214.359935625,124.89633695483208L214.731928125,126.11912296414376L214.96442343750002,126.91903312206269L215.28991687500002,125.53345830440522L216.59189062500002,129.93007437586786L216.9173840625,136.22399143576624L217.42887375,136.23809693455698L217.6613690625,133.37954254150392L218.079860625,136.12599561810495L218.12635968749998,135.8552936434746L218.5913503125,136.9908022105694L218.63784937499997,139.84387673139574L218.6843484375,139.84331707358362L218.77734656250001,139.28473348617555L218.8703446875,138.68540362715723L218.9633428125,138.67560696303846L219.00984187499998,138.00942319333555L219.05634093749998,137.9408730685711L219.14933906250002,137.09281377196314L219.9863221875,134.37556899785997L220.2188175,134.10410843491556L220.45131281250002,137.49767712950708L220.59081,137.58570520281793L220.7303071875,137.27770773768427L220.9628025,137.5580406010151L221.4742921875,136.14552528858187L221.89278375,135.42671246528627L222.0322809375,135.2794481933117L222.07878000000002,134.79126213192941L222.49727156249998,136.51470051407816L222.7762659375,137.76080648303034L223.473751875,136.09171060919763L223.5202509375,136.23093543648721L223.7992453125,137.40271831750871L223.9852415625,138.6893424510956L224.12473874999998,136.1893960952759L224.403733125,139.40832104980947L224.49673124999998,139.02200597226621L224.9152228125,136.95002411007883L225.1012190625,136.66075528860094L225.3802134375,136.91161726117136L225.61270875,136.25550998449327L225.891703125,137.83907369971277L226.077699375,135.17587436437609L226.31019468750003,135.41631503105165L226.635688125,135.0941218852997L226.82168437500002,135.0694518506527L227.2401759375,137.4043150663376L227.379673125,137.22739688754083L227.937661875,141.59803528785707L228.2631553125,141.56579661071302L228.4026525,137.31522868275644L228.49565062500002,137.4087392807007L228.5421496875,137.25379894375803L228.7281459375,138.46913699507715L228.774645,138.46822854578497L228.8211440625,138.53466868102552L229.37913281250002,138.88853421509268L229.65812718749999,137.99812924563886L229.70462625,137.93538258671762L229.797624375,137.08505548238756L230.0301196875,137.01421500444414L230.07661875,136.62734292149545L230.2161159375,136.8466306447983L230.4951103125,133.91428099274637L230.68110656250002,133.26657919287683L231.0066,131.19890086054804L231.471590625,132.25633318424227L231.750585,126.92597181797028L231.93658125000002,127.73901138901711L232.0760784375,127.64589599967003L232.4480709375,127.08059651851654L232.5410690625,127.43289713263512L233.14555687499998,129.1884985983372L233.331553125,130.54148329496385L233.3780521875,129.15337808132173L234.261534375,132.91419900655748L234.3080334375,136.07324455380441L234.447530625,136.75195829272272L234.77302406249999,136.31591589450838L234.86602218750002,136.9639068067074L235.2380146875,137.36187655925752L235.3310128125,137.5153686821461L235.377511875,137.11388979554178L235.9819996875,132.07167793512346L236.0749978125,132.00975219607355L236.121496875,132.27053682208063L236.5399884375,131.23395506739618L236.679485625,131.52049721479418L236.77248375,131.57850269675257L237.1909753125,131.97390757203104L237.33047249999998,131.7998142063618L237.42347062500002,131.96696091890337L237.51646875,132.45531938672067L238.0744575,125.03827784657479L238.8649415625,128.29843313694002L239.097436875,131.2731974244118L239.5624275,127.51182745099068L239.84142187499998,125.87597153782845L240.1669153125,128.60584176778795L240.4459096875,123.66606585383416L240.5389078125,123.65120441913605L240.7249040625,126.94724677205086L241.0503975,131.52789212465288L241.0968965625,131.70587657094003L241.14339562499998,131.92095227241518L241.60838625,129.65374134182932L242.35237125,133.68504143953325L242.5848665625,133.9905668616295L242.817361875,134.94529799818994L243.0498571875,134.52437431812288L243.09635625,138.96607732474806L243.189354375,139.3381755024195L243.32885156249998,139.41267497539522L243.7938421875,136.29504675865175L243.9798384375,131.86004770994188L244.0263375,133.14889986515047L244.305331875,132.309686344862L244.491328125,133.10989887714388L244.5378271875,132.90850694179537L244.9098196875,132.05869970917703L245.00281781249998,131.93695158958437L245.049316875,130.93733112215997L245.09581593750002,130.36559424996378L245.1888140625,127.2249245762825L245.32831124999998,127.58412144780159L245.3748103125,127.13983271718025L245.421309375,127.14256204366684L245.4678084375,127.11690000891686L245.6538046875,126.30051575303078L245.7468028125,126.46111632585526L245.88629999999998,125.64600522518158L245.93279906249998,125.11850519180298L245.979298125,125.11850519180298L246.02579718750002,121.3219192147255L246.1187953125,123.98559863567353L246.25829249999998,125.30348138213158L246.3047915625,125.39005858898163L246.5837859375,130.18960706591608L246.8627803125,130.715396296978L246.95577843750002,130.43049864172937L247.095275625,131.23461551666261L247.65326437500002,130.15473322272302L248.025256875,131.04036120772363L248.07175593749997,131.21762685179712L248.118255,131.33439109921457L248.397249375,128.65269387960436L248.7227428125,129.72305933833124L248.95523812500002,128.86351777315141L249.2807315625,124.46082503795624L249.4667278125,124.14572442770005L249.699223125,124.22476614713669L249.88521937500002,124.18026406764984L250.16421375,126.23295895457268L250.25721187500002,127.50445110797882L250.3967090625,127.12649641633034L250.7222025,130.03316281437876L251.00119687499998,128.8414364874363L251.14069406250002,131.82650272250177L251.2336921875,135.07995007634165L251.28019125,134.96755699515344L251.51268656250002,135.41713197231294" style="fill: none;" fill="none"></path></g></g></g></g></g></g><g transform="translate(51, 178)" clip-path="url(#clip_1)"><clipPath id="clip_1"><rect width="278" height="22"></rect></clipPath><g><g><line x1="0" y1="0" x2="0" y2="5" style="visibility: inherit;" fill="rgb(0, 0, 0)" stroke="rgb(204, 204, 204)" stroke-width="1px"></line><line x1="23.203125" y1="0" x2="23.203125" y2="5" style="visibility: inherit;" fill="rgb(0, 0, 0)" stroke="rgb(204, 204, 204)" stroke-width="1px"></line><line x1="46.40625" y1="0" x2="46.40625" y2="5" style="visibility: inherit;" fill="rgb(0, 0, 0)" stroke="rgb(204, 204, 204)" stroke-width="1px"></line><line x1="69.609375" y1="0" x2="69.609375" y2="5" style="visibility: inherit;" fill="rgb(0, 0, 0)" stroke="rgb(204, 204, 204)" stroke-width="1px"></line><line x1="92.8125" y1="0" x2="92.8125" y2="5" style="visibility: inherit;" fill="rgb(0, 0, 0)" stroke="rgb(204, 204, 204)" stroke-width="1px"></line><line x1="116.015625" y1="0" x2="116.015625" y2="5" style="visibility: inherit;" fill="rgb(0, 0, 0)" stroke="rgb(204, 204, 204)" stroke-width="1px"></line><line x1="139.21875" y1="0" x2="139.21875" y2="5" style="visibility: inherit;" fill="rgb(0, 0, 0)" stroke="rgb(204, 204, 204)" stroke-width="1px"></line><line x1="162.421875" y1="0" x2="162.421875" y2="5" style="visibility: inherit;" fill="rgb(0, 0, 0)" stroke="rgb(204, 204, 204)" stroke-width="1px"></line><line x1="185.625" y1="0" x2="185.625" y2="5" style="visibility: inherit;" fill="rgb(0, 0, 0)" stroke="rgb(204, 204, 204)" stroke-width="1px"></line><line x1="208.828125" y1="0" x2="208.828125" y2="5" style="visibility: inherit;" fill="rgb(0, 0, 0)" stroke="rgb(204, 204, 204)" stroke-width="1px"></line><line x1="232.03125" y1="0" x2="232.03125" y2="5" style="visibility: inherit;" fill="rgb(0, 0, 0)" stroke="rgb(204, 204, 204)" stroke-width="1px"></line><line x1="255.234375" y1="0" x2="255.234375" y2="5" style="visibility: inherit;" fill="rgb(0, 0, 0)" stroke="rgb(204, 204, 204)" stroke-width="1px"></line><line x1="278.4375" y1="0" x2="278.4375" y2="5" style="visibility: inherit;" fill="rgb(0, 0, 0)" stroke="rgb(204, 204, 204)" stroke-width="1px"></line></g><g transform="translate(0, 8)"><text x="0" y="0" dx="0em" dy="0.95em" style="text-anchor: middle; visibility: hidden; font-family: Roboto, sans-serif; font-size: 12px; font-weight: 200;" fill="rgb(50, 49, 63)" stroke="none" stroke-width="1px">-500k</text><text x="23.203125" y="0" dx="0em" dy="0.95em" style="text-anchor: middle; visibility: inherit; font-family: Roboto, sans-serif; font-size: 12px; font-weight: 200;" fill="rgb(50, 49, 63)" stroke="none" stroke-width="1px">0</text><text x="46.40625" y="0" dx="0em" dy="0.95em" style="text-anchor: middle; visibility: hidden; font-family: Roboto, sans-serif; font-size: 12px; font-weight: 200;" fill="rgb(50, 49, 63)" stroke="none" stroke-width="1px">500k</text><text x="69.609375" y="0" dx="0em" dy="0.95em" style="text-anchor: middle; visibility: inherit; font-family: Roboto, sans-serif; font-size: 12px; font-weight: 200;" fill="rgb(50, 49, 63)" stroke="none" stroke-width="1px">1M</text><text x="92.8125" y="0" dx="0em" dy="0.95em" style="text-anchor: middle; visibility: hidden; font-family: Roboto, sans-serif; font-size: 12px; font-weight: 200;" fill="rgb(50, 49, 63)" stroke="none" stroke-width="1px">1.5M</text><text x="116.015625" y="0" dx="0em" dy="0.95em" style="text-anchor: middle; visibility: inherit; font-family: Roboto, sans-serif; font-size: 12px; font-weight: 200;" fill="rgb(50, 49, 63)" stroke="none" stroke-width="1px">2M</text><text x="139.21875" y="0" dx="0em" dy="0.95em" style="text-anchor: middle; visibility: hidden; font-family: Roboto, sans-serif; font-size: 12px; font-weight: 200;" fill="rgb(50, 49, 63)" stroke="none" stroke-width="1px">2.5M</text><text x="162.421875" y="0" dx="0em" dy="0.95em" style="text-anchor: middle; visibility: inherit; font-family: Roboto, sans-serif; font-size: 12px; font-weight: 200;" fill="rgb(50, 49, 63)" stroke="none" stroke-width="1px">3M</text><text x="185.625" y="0" dx="0em" dy="0.95em" style="text-anchor: middle; visibility: hidden; font-family: Roboto, sans-serif; font-size: 12px; font-weight: 200;" fill="rgb(50, 49, 63)" stroke="none" stroke-width="1px">3.5M</text><text x="208.828125" y="0" dx="0em" dy="0.95em" style="text-anchor: middle; visibility: inherit; font-family: Roboto, sans-serif; font-size: 12px; font-weight: 200;" fill="rgb(50, 49, 63)" stroke="none" stroke-width="1px">4M</text><text x="232.03125" y="0" dx="0em" dy="0.95em" style="text-anchor: middle; visibility: hidden; font-family: Roboto, sans-serif; font-size: 12px; font-weight: 200;" fill="rgb(50, 49, 63)" stroke="none" stroke-width="1px">4.5M</text><text x="255.234375" y="0" dx="0em" dy="0.95em" style="text-anchor: middle; visibility: inherit; font-family: Roboto, sans-serif; font-size: 12px; font-weight: 200;" fill="rgb(50, 49, 63)" stroke="none" stroke-width="1px">5M</text><text x="278.4375" y="0" dx="0em" dy="0.95em" style="text-anchor: middle; visibility: hidden; font-family: Roboto, sans-serif; font-size: 12px; font-weight: 200;" fill="rgb(50, 49, 63)" stroke="none" stroke-width="1px">5.5M</text></g><line x1="0" y1="0" x2="278.4375" y2="0" fill="rgb(0, 0, 0)" stroke="rgb(204, 204, 204)" stroke-width="1px"></line></g></g></g></g></svg>